<svg width="2000" height="2000" viewBox="0 0 2000 2000" fill="none" xmlns="http://www.w3.org/2000/svg">
<mask id="mask0_2620_2741" style="mask-type:luminance" maskUnits="userSpaceOnUse" x="557" y="1000" width="886" height="394">
<path d="M1442.16 1215.72C1408.68 1248.33 1375.22 1280.94 1341.74 1313.55C1338.02 1310.45 1334.23 1307.19 1330.41 1303.83C1327.64 1301.37 1325.21 1299.19 1323.28 1297.42C1320.98 1295.32 1319.39 1293.86 1318.85 1293.35C1313.03 1287.94 1301.08 1277.58 1274.85 1256.27C1281.85 1274.32 1288.72 1295.81 1293.85 1320.42C1297.52 1338.08 1299.72 1354.52 1300.95 1369.34C1249.96 1378.77 1190.25 1386.98 1123.26 1390.92C1100.83 1392.26 1077.6 1393.1 1053.58 1393.36C1038.37 1393.54 1022.89 1393.46 1007.07 1393.1C1004.22 1393.05 1001.35 1392.98 998.48 1392.9C994.07 1392.77 989.712 1392.64 985.353 1392.46C969.689 1391.9 954.306 1391.08 939.257 1390.05C935.181 1389.77 931.13 1389.46 927.105 1389.16C922.721 1388.82 918.362 1388.46 914.03 1388.1C913.517 1388.05 913.004 1388 912.491 1387.98C908.671 1387.64 904.903 1387.28 901.134 1386.92C891.238 1385.98 881.495 1384.95 871.933 1383.85L871.061 1383.75C867.728 1383.36 864.395 1382.95 861.088 1382.54C858.524 1382.23 855.935 1381.9 853.371 1381.57C842.424 1380.16 831.707 1378.64 821.196 1377.05C808.249 1375.08 795.635 1372.98 783.355 1370.77C781.304 1370.41 779.253 1370.03 777.227 1369.67C773.151 1368.93 769.151 1368.16 765.178 1367.39C761.204 1366.65 757.281 1365.85 753.384 1365.08C748.411 1364.08 743.488 1363.06 738.643 1362.03C734.002 1361.06 729.413 1360.06 724.901 1359.06C720.107 1358.01 715.389 1356.93 710.749 1355.83C708.236 1355.24 705.775 1354.67 703.314 1354.08C700.853 1353.49 698.417 1352.9 696.007 1352.31C697.571 1338.57 700.084 1323.21 704.057 1306.68C708.595 1287.86 714.159 1271.2 719.773 1256.94C714.21 1262.2 708.544 1267.48 702.776 1272.81C697.007 1278.12 691.11 1283.45 685.137 1288.81C677.446 1295.68 669.806 1302.42 662.217 1308.99C655.987 1302.91 649.731 1296.83 643.501 1290.76H643.476C614.659 1262.63 585.817 1234.56 557 1206.46C566.178 1187.67 578.613 1165.41 595.405 1141.83C603.737 1130.09 613.146 1118.04 623.76 1105.88C645.655 1080.78 668.113 1060.63 689.034 1044.51C689.264 1044.33 689.47 1044.17 689.7 1043.99C704.673 1032.48 718.85 1023.07 731.387 1015.46C735.464 1013 739.899 1011.28 744.565 1010.36L752.718 1008.77C753.743 1007.36 755.358 1005.46 757.794 1003.72C760.922 1001.44 763.973 1000.46 765.895 1000C777.791 1010.43 806.403 1034.2 849.269 1054.63C862.447 1060.97 877.009 1066.91 892.827 1072.09C921.593 1081.5 954.588 1088.27 991.353 1089.45C1011.22 1090.09 1030.12 1089.04 1047.96 1086.71C1072.14 1083.55 1094.36 1078.09 1114.49 1071.4C1141.26 1062.48 1164.25 1051.35 1182.99 1040.56C1209.86 1025.05 1227.99 1010.23 1235.96 1003.44C1238.24 1003.95 1242.14 1005.13 1246.04 1008.13C1248.45 1009.97 1250.16 1011.97 1251.29 1013.59C1251.37 1014.02 1251.42 1014.46 1251.5 1014.9C1251.65 1014.74 1251.81 1014.64 1251.93 1014.51C1251.75 1014.23 1251.55 1013.92 1251.29 1013.59C1251.29 1013.51 1251.27 1013.41 1251.27 1013.33L1252.19 1013.51L1259.39 1014.92C1264.06 1015.84 1268.52 1017.54 1272.57 1020.02C1321.82 1049.92 1356.41 1080.4 1380.22 1110.45C1381.86 1112.52 1383.56 1114.7 1385.3 1116.98C1402.66 1139.75 1424.09 1172.52 1442.16 1215.72Z" fill="white"/>
</mask>
<g mask="url(#mask0_2620_2741)">
<path d="M1442.16 1215.72C1408.68 1248.33 1375.22 1280.94 1341.74 1313.55C1338.02 1310.45 1334.23 1307.19 1330.41 1303.83C1327.64 1301.37 1325.21 1299.19 1323.28 1297.42C1320.98 1295.32 1319.39 1293.86 1318.85 1293.35C1313.03 1287.94 1301.08 1277.58 1274.85 1256.27C1281.85 1274.32 1288.72 1295.81 1293.85 1320.42C1297.52 1338.08 1299.72 1354.52 1300.95 1369.34C1249.96 1378.77 1190.25 1386.98 1123.26 1390.92C1100.83 1392.26 1077.6 1393.1 1053.58 1393.36C1038.37 1393.54 1022.89 1393.46 1007.07 1393.1C1004.22 1393.05 1001.35 1392.97 998.48 1392.9C994.07 1392.77 989.712 1392.64 985.353 1392.46C969.689 1391.9 954.306 1391.08 939.257 1390.05C935.181 1389.77 931.13 1389.46 927.105 1389.15C922.721 1388.82 918.362 1388.46 914.03 1388.1C913.517 1388.05 913.004 1388 912.491 1387.97C908.671 1387.64 904.903 1387.28 901.134 1386.92C891.238 1385.98 881.495 1384.95 871.933 1383.85L871.061 1383.74C867.728 1383.36 864.395 1382.95 861.088 1382.54C858.524 1382.23 855.935 1381.9 853.371 1381.57C842.424 1380.16 831.707 1378.64 821.196 1377.05C808.249 1375.08 795.635 1372.98 783.355 1370.77C781.304 1370.41 779.253 1370.03 777.227 1369.67C773.151 1368.93 769.151 1368.16 765.178 1367.39C761.204 1366.64 757.281 1365.85 753.384 1365.08C748.411 1364.08 743.488 1363.06 738.643 1362.03C734.002 1361.06 729.413 1360.06 724.901 1359.06C720.107 1358 715.389 1356.93 710.749 1355.83C708.236 1355.24 705.775 1354.67 703.314 1354.08C700.853 1353.49 698.417 1352.9 696.007 1352.31C697.571 1338.57 700.084 1323.21 704.057 1306.68C708.595 1287.86 714.159 1271.2 719.773 1256.94C714.21 1262.2 708.544 1267.48 702.776 1272.81C697.007 1278.12 691.11 1283.45 685.137 1288.81C677.446 1295.68 669.806 1302.42 662.217 1308.99C655.987 1302.91 649.731 1296.83 643.501 1290.76H643.476C614.659 1262.63 585.817 1234.56 557 1206.46C566.178 1187.67 578.613 1165.41 595.405 1141.83C603.737 1130.09 613.146 1118.04 623.76 1105.88C645.655 1080.78 668.113 1060.63 689.034 1044.51C689.264 1044.33 689.47 1044.17 689.7 1043.99C704.673 1032.48 718.85 1023.07 731.387 1015.46C735.464 1013 739.899 1011.28 744.565 1010.36L752.718 1008.77C766.203 1020.84 800.48 1049.84 852.32 1073.02C889.648 1089.73 936.104 1103.4 990.455 1105.58C1011.2 1106.42 1030.99 1105.47 1049.68 1103.22C1051.09 1103.06 1052.5 1102.88 1053.91 1102.68C1073.21 1100.11 1091.36 1096.17 1108.23 1091.3C1109.93 1090.81 1111.62 1090.32 1113.26 1089.81C1123.59 1086.68 1133.44 1083.22 1142.74 1079.55C1143.95 1079.07 1145.13 1078.6 1146.31 1078.12C1174.46 1066.71 1197.76 1053.45 1215.58 1041.71C1216.53 1041.12 1217.45 1040.51 1218.35 1039.89C1227.45 1033.79 1234.99 1028.18 1240.91 1023.53C1241.5 1023.07 1242.09 1022.64 1242.63 1022.18C1243.75 1021.3 1244.81 1020.46 1245.78 1019.64C1246.29 1019.25 1246.75 1018.84 1247.22 1018.46C1248.86 1017.13 1250.29 1015.92 1251.5 1014.9C1251.42 1014.46 1251.37 1014.02 1251.29 1013.59C1251.29 1013.51 1251.27 1013.41 1251.27 1013.33L1252.19 1013.51L1259.39 1014.92C1264.06 1015.84 1268.52 1017.54 1272.57 1020.02C1321.82 1049.92 1356.41 1080.4 1380.22 1110.45C1381.86 1112.52 1383.56 1114.7 1385.3 1116.98C1402.66 1139.75 1424.09 1172.52 1442.16 1215.72Z" fill="#EFE4CE" stroke="black" stroke-miterlimit="10"/>
<path d="M1251.94 1014.51C1251.94 1014.51 1251.65 1014.74 1251.5 1014.9C1250.3 1015.92 1248.86 1017.13 1247.22 1018.46C1246.76 1018.84 1246.3 1019.25 1245.78 1019.64C1244.81 1020.46 1243.76 1021.31 1242.63 1022.18C1242.09 1022.64 1241.5 1023.07 1240.91 1023.54C1234.99 1028.18 1227.45 1033.79 1218.35 1039.89C1217.45 1040.51 1216.53 1041.12 1215.58 1041.71C1207.56 1047.02 1198.35 1052.63 1188.12 1058.25C1175.72 1065.04 1161.74 1071.86 1146.31 1078.12C1145.13 1078.61 1143.95 1079.07 1142.75 1079.55C1133.75 1083.09 1124.21 1086.45 1114.24 1089.5C1113.93 1089.6 1113.6 1089.71 1113.26 1089.81C1111.62 1090.32 1109.93 1090.81 1108.24 1091.3C1091.37 1096.17 1073.22 1100.12 1053.91 1102.68C1052.5 1102.88 1051.09 1103.06 1049.68 1103.22C1047.37 1103.5 1045.07 1103.76 1042.73 1103.99C1041.22 1104.14 1039.73 1104.29 1038.22 1104.42C1036.66 1104.55 1035.09 1104.68 1033.53 1104.81C1031.71 1104.96 1029.86 1105.09 1028.02 1105.19C1026.66 1105.27 1025.3 1105.35 1023.94 1105.42C1022.68 1105.47 1021.43 1105.55 1020.17 1105.58C1017.2 1105.7 1014.2 1105.78 1011.17 1105.83C1009.28 1105.86 1007.38 1105.88 1005.46 1105.88C1000.51 1105.88 995.509 1105.78 990.458 1105.58C988.382 1105.5 986.305 1105.4 984.228 1105.27C984.075 1105.27 983.895 1105.27 983.741 1105.24C981.87 1105.14 979.973 1105.01 978.127 1104.88C977.973 1104.86 977.819 1104.86 977.665 1104.83C975.64 1104.7 973.64 1104.53 971.64 1104.35C967.487 1103.96 963.385 1103.53 959.334 1103.01C957.693 1102.83 956.104 1102.63 954.489 1102.4C952.181 1102.06 949.874 1101.73 947.567 1101.37C946.336 1101.19 945.105 1100.99 943.875 1100.76C941.721 1100.42 939.568 1100.04 937.44 1099.63C936.568 1099.47 935.722 1099.32 934.876 1099.14C933.363 1098.86 931.825 1098.55 930.338 1098.24C928.441 1097.86 926.595 1097.45 924.724 1097.04C923.467 1096.76 922.185 1096.47 920.929 1096.17C908.623 1093.32 896.932 1089.94 885.831 1086.17C883.857 1085.5 881.909 1084.81 879.96 1084.12C877.858 1083.37 875.807 1082.63 873.756 1081.84C872.013 1081.19 870.269 1080.53 868.551 1079.84C862.962 1077.63 857.553 1075.35 852.323 1073.02C800.484 1049.84 766.206 1020.84 752.721 1008.77C753.746 1007.36 755.361 1005.46 757.797 1003.72C760.925 1001.44 763.976 1000.46 765.898 1000C777.794 1010.43 806.406 1034.2 849.272 1054.63C862.45 1060.97 877.012 1066.91 892.83 1072.09C921.596 1081.5 954.591 1088.27 991.356 1089.45C1011.22 1090.09 1030.12 1089.04 1047.96 1086.71C1072.14 1083.55 1094.37 1078.09 1114.49 1071.4C1141.26 1062.48 1164.26 1051.35 1183 1040.56C1209.87 1025.05 1227.99 1010.23 1235.96 1003.44C1238.25 1003.95 1242.14 1005.13 1246.04 1008.13C1248.45 1009.97 1250.17 1011.97 1251.3 1013.59C1251.55 1013.92 1251.76 1014.23 1251.94 1014.51Z" fill="#EFE4CE" stroke="black" stroke-miterlimit="10"/>
<path d="M1436.06 1201.87C1401.47 1236.48 1366.86 1271.07 1332.28 1305.68" stroke="black" stroke-width="3" stroke-miterlimit="10"/>
<path d="M985.352 1392.46C885.032 1388.82 797.172 1375.11 724.899 1359.06C720.105 1358 715.388 1356.93 710.747 1355.83C708.235 1355.24 705.774 1354.67 703.313 1354.08C700.851 1353.49 698.416 1352.9 696.006 1352.31C697.57 1338.57 700.082 1323.21 704.056 1306.68C708.594 1287.86 714.157 1271.2 719.772 1256.94C722.592 1249.58 725.489 1242.12 728.489 1234.61C733.283 1222.59 738.334 1210.36 743.641 1197.97H743.666C744.615 1197.67 791.275 1183.67 825.809 1197.97C860.728 1212.43 834.116 1218.1 841.961 1232.07C849.806 1246.02 922.258 1262.17 917.899 1278.32C913.541 1294.47 832.808 1276.58 854.626 1291.4C876.443 1306.24 963.714 1306.24 944.511 1342.47C925.309 1378.69 957.612 1365.59 972.867 1374.34C977.84 1377.18 982.378 1384.33 985.352 1392.46Z" fill="#6AA847"/>
<path d="M852.319 1073.02C847.166 1084.09 827.527 1079.04 821.451 1089.45C814.17 1101.94 836.654 1119.29 830.193 1132.57C823.502 1146.26 795.352 1136.24 785.661 1150.47C773.457 1168.41 805.351 1204.49 797.89 1211.56C794.275 1214.97 781.995 1211.1 748.614 1186.46C749.537 1184.36 750.46 1182.26 751.409 1180.13C748.332 1179.59 745.41 1178.77 742.692 1177.72C693.545 1158.95 690.109 1063.15 689.699 1044.02C704.672 1032.48 718.849 1023.07 731.386 1015.46C735.462 1013 739.898 1011.28 744.564 1010.36L752.717 1008.77C753.742 1007.36 755.357 1005.46 757.793 1003.72C760.921 1001.44 763.971 1000.46 765.894 1000C777.79 1010.43 806.402 1034.2 849.268 1054.63C851.934 1059.4 855.19 1066.89 852.319 1073.02Z" fill="#7AACF4"/>
<path d="M871.931 1383.85C839.192 1350.13 824.347 1307.04 816.656 1311.04C805.734 1316.73 823.63 1340.29 808.349 1329.8C793.095 1319.34 766.022 1287.47 774.764 1305.68C783.481 1323.85 819.322 1374.34 819.322 1374.34C819.861 1375.13 820.476 1376.05 821.194 1377.05L871.931 1383.85Z" fill="#7AACF4"/>
<path d="M728.493 1234.61C725.493 1242.12 722.596 1249.58 719.776 1256.94C714.212 1262.2 708.547 1267.48 702.778 1272.81C697.01 1278.12 691.113 1283.45 685.139 1288.81C677.448 1295.68 669.808 1302.42 662.219 1308.99C655.989 1302.91 649.734 1296.83 643.504 1290.76H643.478C641.171 1288.04 641.504 1283.94 644.17 1281.71C646.786 1279.53 650.759 1279.84 653.015 1282.45C651.81 1277.07 650.554 1268.66 651.708 1258.58C652.272 1253.53 654.836 1230.97 668.065 1221.59C681.755 1211.9 706.957 1216.2 728.493 1234.61Z" fill="#7AACF4"/>
<path d="M696.008 1266.53C675.729 1266.53 683.984 1176.64 664.782 1186.67C645.605 1196.72 680.498 1244.28 664.782 1262.76C649.091 1281.27 641.657 1228.12 617.711 1181.41C610.686 1167.72 602.918 1154.16 595.406 1141.83C603.738 1130.09 613.147 1118.04 623.761 1105.88C645.656 1080.78 668.115 1060.63 689.035 1044.51C720.467 1097.32 714.493 1266.53 696.008 1266.53Z" fill="#D7972F"/>
<path d="M1128.03 1132.83C1124.64 1137.21 1115.41 1136.6 1102.06 1132.57C1041.4 1114.24 1052.29 1184.49 1070.19 1171.85C1083.9 1162.13 1121.46 1183.72 1118.41 1206.31C1117.28 1214.64 1110.8 1223.15 1102.49 1226.38C1088.98 1231.66 1080.39 1219.71 1068.98 1224.53C1055.83 1230.07 1060.65 1248.71 1048.04 1255.3C1034.3 1262.48 1022.73 1243.3 1001.89 1246.15C975.791 1249.69 970.073 1283.12 952.794 1280.94C937.616 1279.01 940.565 1251.22 913.748 1240.12C901.313 1234.97 891.776 1236.43 885.597 1227.69C877.547 1216.25 886.213 1202.92 879.265 1197.15C869.907 1189.36 847.167 1207.97 842.398 1202.77C835.04 1194.69 875.906 1138.08 872.599 1133.5C872.01 1132.7 871.138 1132.09 869.882 1131.7C852.14 1126.03 891.879 1094.71 897.929 1090.04C898.416 1089.65 898.698 1089.45 898.698 1089.45L892.827 1072.09C921.593 1081.5 954.588 1088.27 991.353 1089.45C1011.22 1090.09 1030.12 1089.04 1047.96 1086.71L1042.73 1103.99C1042.73 1103.99 1031.48 1113.78 1032.89 1116.42C1034.09 1118.7 1042.7 1115.86 1046.63 1114.68C1073.73 1106.55 1117.98 1105.06 1127.36 1121.01C1129.51 1124.65 1130.28 1129.96 1128.03 1132.83Z" fill="#D7972F"/>
<path d="M1123.26 1390.92C1100.83 1392.26 1077.6 1393.1 1053.58 1393.36C1038.38 1393.54 1022.89 1393.46 1007.07 1393.1C993.049 1382.05 966.976 1359.11 976.692 1347.93C989.793 1332.85 1004.2 1365.59 1010.1 1355.13C1015.97 1344.65 972.924 1323.7 985.46 1303.42C997.972 1283.12 1017.61 1343.34 1028.1 1334.19C1038.56 1325.01 999.612 1268.4 1033.66 1263.48C1041.15 1262.4 1052.4 1267.61 1064.48 1276.86C1096.14 1301.06 1133.47 1352.93 1123.26 1390.92Z" fill="#7AACF4"/>
<path d="M1177.64 1281.04C1175.33 1242.3 1137.39 1261.53 1108.6 1281.04C1079.81 1300.55 1065.4 1235.99 1092.24 1194.1C1111.26 1164.39 1114.16 1115.45 1114.24 1089.5C1114.26 1078.86 1113.83 1072.09 1113.83 1072.09L1114.49 1071.4C1141.26 1062.48 1164.26 1051.35 1183 1040.56C1184.33 1045.87 1186.02 1051.79 1188.12 1058.25C1194.33 1077.35 1204.2 1101.4 1219.89 1129.96C1263.73 1209.79 1179.95 1319.78 1177.64 1281.04Z" fill="#6AA847"/>
<path d="M1300.95 1369.34C1249.96 1378.77 1190.25 1386.98 1123.26 1390.92C1100.83 1392.26 1077.6 1393.1 1053.58 1393.36C1029.45 1383.67 1011.04 1372 1025.48 1361.95C1056.88 1340.06 1105.98 1373.44 1115.13 1358.39C1124.31 1343.34 1079.14 1330.24 1065.39 1317.16C1059.5 1311.55 1060.22 1294.5 1064.47 1276.86C1070.14 1253.35 1082.03 1228.79 1092.88 1228.79C1111.88 1228.79 1172.1 1289.66 1198.27 1313.88C1224.45 1338.11 1230.19 1282.01 1232.55 1253.76C1234.94 1225.51 1274.85 1256.27 1274.85 1256.27C1281.85 1274.32 1288.72 1295.81 1293.85 1320.42C1297.52 1338.08 1299.72 1354.52 1300.95 1369.34Z" fill="#D7972F"/>
<path d="M1385.3 1116.98C1367.15 1135.8 1329.59 1149.13 1315.88 1175.77C1294.06 1218.1 1261.35 1189.74 1283.16 1166.59C1304.98 1143.47 1290.57 1091.55 1274.86 1106.83C1259.14 1122.11 1223.81 1106.81 1238.63 1084.55C1253.48 1062.3 1251.5 1014.9 1251.5 1014.9L1252.19 1013.51L1259.4 1014.92C1264.06 1015.84 1268.52 1017.54 1272.58 1020.02C1321.83 1049.92 1356.41 1080.4 1380.23 1110.45C1381.87 1112.52 1383.56 1114.7 1385.3 1116.98Z" fill="#7AACF4"/>
<path d="M1323.28 1297.42C1320.97 1295.32 1319.38 1293.86 1318.85 1293.35C1313.03 1287.94 1301.08 1277.58 1274.85 1256.27C1274.85 1256.27 1289.7 1211.56 1329.84 1192.36C1369.99 1173.16 1303.23 1223.33 1339 1210.69C1374.79 1198.03 1313.69 1251.71 1354.28 1230.77C1386.68 1214.02 1342.43 1272.99 1323.28 1297.42Z" fill="#6AA847"/>
<path d="M1274.85 1256.28C1271.19 1247.15 1267.44 1237.97 1263.65 1228.77C1259.52 1218.74 1255.37 1208.79 1251.21 1198.92H1251.19C1249.09 1193.95 1246.93 1188.98 1244.73 1183.95C1244.73 1183.95 1241.5 1176.62 1237.99 1168.85C1233.24 1158.36 1222.68 1136.01 1208.32 1106.83" stroke="black" stroke-width="3" stroke-miterlimit="10" stroke-linecap="round"/>
<path d="M563.742 1188.69C600.378 1225.84 636.989 1263.02 673.625 1300.17" stroke="black" stroke-width="3" stroke-miterlimit="10"/>
<path d="M786.532 1105.88C776.559 1125.65 766.637 1146.34 756.869 1167.9C752.28 1178.03 747.87 1188.05 743.666 1197.97H743.64C735.026 1218.1 727.078 1237.79 719.771 1256.94" stroke="black" stroke-width="3" stroke-miterlimit="10" stroke-linecap="round"/>
<path d="M752.721 1008.77C773.82 1027.79 865.424 1106.01 1005.46 1105.88C1140.59 1105.78 1229.97 1032.79 1252.19 1013.51" stroke="#231F20" stroke-width="3" stroke-miterlimit="10"/>
</g>
<path d="M1251.29 1013.59C1250.16 1011.97 1248.45 1009.97 1246.04 1008.13C1242.14 1005.13 1238.24 1003.95 1235.96 1003.44C1227.99 1010.23 1209.86 1025.05 1182.99 1040.56C1164.25 1051.35 1141.26 1062.48 1114.49 1071.4C1094.36 1078.09 1072.14 1083.55 1047.96 1086.71C1030.12 1089.04 1011.22 1090.09 991.353 1089.45C954.588 1088.27 921.593 1081.5 892.827 1072.09C877.009 1066.91 862.447 1060.97 849.269 1054.63C806.403 1034.2 777.791 1010.43 765.895 1000C763.973 1000.46 760.922 1001.44 757.794 1003.72C755.358 1005.46 753.743 1007.36 752.718 1008.77L744.565 1010.36C739.899 1011.28 735.463 1013 731.387 1015.46C718.85 1023.07 704.673 1032.48 689.7 1043.99C689.47 1044.17 689.264 1044.33 689.034 1044.51C668.113 1060.63 645.655 1080.78 623.76 1105.88C613.146 1118.04 603.737 1130.09 595.405 1141.83C578.613 1165.41 566.178 1187.67 557 1206.46C585.817 1234.56 614.659 1262.63 643.476 1290.76H643.501C649.731 1296.83 655.987 1302.91 662.217 1308.99C669.806 1302.42 677.446 1295.68 685.137 1288.81C691.11 1283.45 697.007 1278.12 702.776 1272.81C708.544 1267.48 714.21 1262.2 719.773 1256.94C714.159 1271.2 708.595 1287.86 704.057 1306.68C700.084 1323.21 697.571 1338.57 696.007 1352.31C698.417 1352.9 700.853 1353.49 703.314 1354.08C705.775 1354.67 708.236 1355.24 710.749 1355.83C715.389 1356.93 720.107 1358.01 724.901 1359.06C729.413 1360.06 734.002 1361.06 738.643 1362.03C743.488 1363.06 748.411 1364.08 753.384 1365.08C757.281 1365.85 761.204 1366.65 765.178 1367.39C769.151 1368.16 773.151 1368.93 777.227 1369.67C779.253 1370.03 781.304 1370.41 783.355 1370.77C795.635 1372.98 808.249 1375.08 821.196 1377.05C831.707 1378.64 842.424 1380.16 853.371 1381.57C855.935 1381.9 858.524 1382.23 861.088 1382.54C864.395 1382.95 867.728 1383.36 871.061 1383.75L871.933 1383.85C881.495 1384.95 891.238 1385.98 901.134 1386.92C904.903 1387.28 908.671 1387.64 912.491 1387.98C913.004 1388 913.517 1388.05 914.03 1388.1C918.362 1388.46 922.721 1388.82 927.105 1389.16C931.13 1389.46 935.181 1389.77 939.257 1390.05C954.306 1391.08 969.689 1391.9 985.353 1392.46C989.712 1392.64 994.07 1392.77 998.48 1392.9C1001.35 1392.98 1004.22 1393.05 1007.07 1393.1C1022.89 1393.46 1038.37 1393.54 1053.58 1393.36C1077.6 1393.1 1100.83 1392.26 1123.26 1390.92C1190.25 1386.98 1249.96 1378.77 1300.95 1369.34C1299.72 1354.52 1297.52 1338.08 1293.85 1320.42C1288.72 1295.81 1281.85 1274.32 1274.85 1256.27C1301.08 1277.58 1313.03 1287.94 1318.85 1293.35C1319.39 1293.86 1320.98 1295.32 1323.28 1297.42C1325.21 1299.19 1327.64 1301.37 1330.41 1303.83C1334.23 1307.19 1338.02 1310.45 1341.74 1313.55C1375.22 1280.94 1408.68 1248.33 1442.16 1215.72C1424.09 1172.52 1402.66 1139.75 1385.3 1116.98C1383.56 1114.7 1381.86 1112.52 1380.22 1110.45C1356.41 1080.4 1321.82 1049.92 1272.57 1020.02C1268.52 1017.54 1264.06 1015.84 1259.39 1014.92L1252.19 1013.51L1251.27 1013.33C1251.27 1013.41 1251.29 1013.51 1251.29 1013.59ZM1251.29 1013.59C1251.37 1014.02 1251.42 1014.46 1251.5 1014.9C1251.65 1014.74 1251.81 1014.64 1251.93 1014.51C1251.75 1014.23 1251.55 1013.92 1251.29 1013.59Z" stroke="black" stroke-width="3" stroke-miterlimit="10"/>
</svg>
