<svg width="2000" height="2000" viewBox="0 0 2000 2000" fill="none" xmlns="http://www.w3.org/2000/svg">
<g clip-path="url(#clip0_3263_31675)">
<path d="M971 1055.4L667.795 1057C645.098 1046.17 610.476 1024.56 591.795 983.858C549.318 891.318 625.061 778.338 638.751 757.948C645.149 748.415 651.904 739.44 658.992 731C650.778 769.974 648.962 816.93 665.953 865.31C718.461 1014.95 904.98 1048.25 971 1055.4Z" fill="#203076" stroke="#22227C" stroke-width="3" stroke-miterlimit="10"/>
<path d="M1424.18 983.871C1400.04 1032 1346.03 1048.02 1319.48 1053.65L1067 1055C1142.32 1046.88 1251.67 1017.28 1311.98 915.721C1349.4 852.664 1353.07 786.934 1346.92 736C1370.86 765.032 1469.67 893.208 1424.18 983.871Z" fill="#203076" stroke="#22227C" stroke-width="3" stroke-miterlimit="10"/>
<path d="M1377.5 1241C1357.09 1250.77 1311 1268 1311 1268C1300.59 1274.87 1287.59 1271.8 1280.11 1260.75C1272.64 1249.7 1270.19 1245.56 1270.19 1245.56L1298.02 1369.88C1300.72 1381.93 1296.72 1394 1289.02 1400.89C1285.78 1403.8 1281.9 1405.82 1277.56 1406.51L1202.12 1418.55C1070.85 1439.53 937.888 1441.6 806.18 1424.71L727.523 1414.62C720.993 1413.81 715.357 1409.98 711.454 1404.47C706.43 1397.37 705.41 1389.2 705.894 1381.09C707.017 1361.92 716.555 1315.32 732.853 1254.55C729.588 1256.92 724.283 1260.9 718.06 1266.24C706.098 1276.47 710.411 1272.82 701 1280.5C691.588 1288.18 685.83 1292.58 680.5 1292.5C674.71 1292.42 666.616 1290.05 662 1285L577.999 1202C569.557 1192.81 567.568 1177.91 573.154 1166.01L581.672 1147.99C608.835 1096.52 642.591 1051.72 700.36 1001.08C711.276 991.487 722.167 982.835 732.853 975C800.314 993.912 878.155 1008.66 964.719 1012.8C992.29 1014.1 1018.89 1014.25 1044.4 1013.49L1276.54 979.773L1322.48 1022.4C1377.19 1073.18 1397 1094.5 1421 1138C1434.52 1162.5 1443.42 1192.83 1432.5 1200C1432.5 1200 1397.9 1231.23 1377.5 1241Z" fill="#203076" stroke="#22227C" stroke-width="3" stroke-miterlimit="10"/>
<path d="M907 1063.72C907 1057.25 901.851 1052 895.5 1052C889.149 1052 884 1057.25 884 1063.72V1191.28C884 1197.75 889.149 1203 895.5 1203C901.851 1203 907 1197.75 907 1191.28V1063.72Z" fill="#C7DDEE"/>
<path d="M1127 1063.72C1127 1057.25 1121.85 1052 1115.5 1052C1109.15 1052 1104 1057.25 1104 1063.72V1191.28C1104 1197.75 1109.15 1203 1115.5 1203C1121.85 1203 1127 1197.75 1127 1191.28V1063.72Z" fill="#C7DDEE"/>
<path opacity="0.41" d="M1047.43 1155.99C1046.64 1155.84 1045.91 1166.5 1038.06 1177.95C1034.68 1182.86 1031.25 1186.11 1029.45 1187.69C1027.82 1189.14 1022.13 1193.98 1014.56 1196.83C1012.28 1197.69 989.597 1205.89 977.177 1192.86C972.046 1187.49 967.754 1177.51 971.31 1169.17C973.494 1164.05 978.955 1158.84 984.085 1159.52C989.8 1160.29 989.647 1167.69 997.165 1171.53C1003.08 1174.56 1012.15 1174.56 1017.74 1169.07C1023.91 1162.99 1022.56 1153.42 1022.21 1150.87C1020.91 1141.56 1014.89 1135.91 1012.61 1134.03C1002.83 1125.94 990.79 1128.08 986.701 1128.81C973.85 1131.1 966.027 1139.55 963.868 1141.92C953.683 1153.21 946.343 1173.49 954.496 1192.07C963.208 1211.92 984.085 1216.5 990.308 1217.46C994.778 1218.15 1007.6 1219.45 1020.86 1211.81C1033.31 1204.64 1038.84 1193.75 1041.36 1188.63C1049.33 1172.43 1048.32 1156.17 1047.35 1155.96L1047.43 1155.99Z" fill="#A826ED"/>
<path opacity="0.41" d="M1281.66 1059.11C1281.2 1059.03 1280.79 1065.16 1276.37 1071.8C1274.45 1074.64 1272.5 1076.52 1271.48 1077.43C1270.56 1078.27 1267.33 1081.06 1263.03 1082.71C1261.73 1083.2 1248.88 1087.96 1241.85 1080.41C1238.93 1077.3 1236.5 1071.56 1238.52 1066.73C1239.77 1063.78 1242.84 1060.75 1245.76 1061.17C1249.01 1061.61 1248.91 1065.87 1253.18 1068.11C1256.53 1069.86 1261.68 1069.86 1264.85 1066.68C1268.36 1063.18 1267.59 1057.65 1267.38 1056.18C1266.64 1050.81 1263.24 1047.54 1261.93 1046.47C1256.38 1041.8 1249.57 1043.05 1247.25 1043.47C1239.95 1044.8 1235.53 1049.66 1234.3 1051.04C1228.51 1057.57 1224.37 1069.26 1228.97 1080.02C1233.91 1091.48 1245.74 1094.14 1249.29 1094.69C1251.83 1095.08 1259.09 1095.84 1266.62 1091.43C1273.68 1087.28 1276.8 1081.01 1278.23 1078.04C1282.76 1068.66 1282.17 1059.29 1281.64 1059.16L1281.66 1059.11Z" fill="#A826ED"/>
<path opacity="0.41" d="M709.403 1061.22C708.947 1061.37 711.71 1066.98 711.051 1075.05C710.772 1078.53 709.961 1081.17 709.505 1082.5C709.099 1083.71 707.603 1087.81 704.561 1091.45C703.648 1092.56 694.445 1103.3 684.304 1100.31C680.121 1099.07 674.999 1095.28 674.391 1090.02C674.011 1086.8 675.278 1082.57 678.092 1081.42C681.236 1080.13 683.315 1083.93 688.284 1083.68C692.189 1083.48 696.828 1080.86 698.07 1076.46C699.44 1071.61 695.966 1067.13 695.053 1065.95C691.656 1061.6 686.941 1060.52 685.217 1060.22C677.864 1058.96 672.337 1063.56 670.461 1065.09C664.579 1070 663.033 1076.54 662.627 1078.35C660.726 1087.03 662.906 1099.43 672.515 1106.44C682.783 1113.96 694.775 1110.22 698.248 1108.88C700.733 1107.93 707.654 1104.86 712.192 1097.14C716.451 1089.89 716.096 1082.78 715.894 1079.43C715.234 1068.92 709.961 1060.97 709.403 1061.15V1061.22Z" fill="#A826ED"/>
<path opacity="0.41" d="M1399.89 1161.84C1399.42 1161.99 1402.24 1167.6 1401.57 1175.67C1401.28 1179.14 1400.46 1181.78 1399.99 1183.12C1399.58 1184.32 1398.06 1188.42 1394.96 1192.07C1394.03 1193.18 1384.65 1203.92 1374.32 1200.92C1370.06 1199.69 1364.85 1195.89 1364.23 1190.64C1363.84 1187.42 1365.13 1183.19 1368 1182.03C1371.2 1180.75 1373.32 1184.55 1378.38 1184.3C1382.36 1184.1 1387.08 1181.48 1388.35 1177.08C1389.74 1172.23 1386.2 1167.75 1385.27 1166.57C1381.81 1162.22 1377.01 1161.13 1375.25 1160.83C1367.77 1159.57 1362.14 1164.18 1360.23 1165.71C1354.23 1170.62 1352.66 1177.16 1352.25 1178.97C1350.31 1187.64 1352.53 1200.04 1362.32 1207.06C1372.77 1214.58 1384.99 1210.83 1388.53 1209.5C1391.06 1208.54 1398.11 1205.48 1402.73 1197.75C1407.07 1190.51 1406.71 1183.39 1406.5 1180.05C1405.83 1169.53 1400.46 1161.59 1399.89 1161.76V1161.84Z" fill="#A826ED"/>
<path opacity="0.41" d="M1160.68 1356.04C1160.3 1355.96 1159.97 1360.94 1156.24 1366.29C1154.64 1368.58 1153 1370.12 1152.16 1370.84C1151.4 1371.52 1148.69 1373.76 1145.1 1375.12C1144 1375.52 1133.27 1379.34 1127.38 1373.28C1124.95 1370.77 1122.91 1366.12 1124.6 1362.22C1125.64 1359.83 1128.22 1357.4 1130.67 1357.72C1133.37 1358.07 1133.32 1361.52 1136.86 1363.33C1139.67 1364.74 1143.98 1364.74 1146.63 1362.17C1149.56 1359.33 1148.92 1354.88 1148.75 1353.68C1148.13 1349.33 1145.28 1346.69 1144.21 1345.81C1139.57 1342.04 1133.85 1343.04 1131.92 1343.37C1125.82 1344.45 1122.1 1348.37 1121.1 1349.48C1116.26 1354.76 1112.79 1364.21 1116.67 1372.88C1120.8 1382.16 1130.69 1384.29 1133.65 1384.75C1135.77 1385.07 1141.86 1385.68 1148.13 1382.11C1154.05 1378.76 1156.65 1373.69 1157.85 1371.27C1161.62 1363.71 1161.16 1356.11 1160.68 1356.04Z" fill="#A826ED"/>
<path opacity="0.41" d="M856.675 1283.49C856.231 1283.41 855.836 1289.31 851.571 1295.69C849.721 1298.42 847.847 1300.23 846.861 1301.11C845.973 1301.91 842.866 1304.6 838.723 1306.18C837.466 1306.66 825.087 1311.23 818.306 1303.97C815.495 1300.98 813.152 1295.46 815.1 1290.82C816.309 1287.98 819.268 1285.07 822.079 1285.47C825.21 1285.9 825.112 1289.99 829.23 1292.15C832.46 1293.83 837.417 1293.83 840.474 1290.77C843.852 1287.4 843.113 1282.08 842.915 1280.68C842.2 1275.51 838.921 1272.37 837.663 1271.34C832.312 1266.84 825.753 1268.05 823.509 1268.45C816.481 1269.73 812.215 1274.4 811.032 1275.73C805.459 1282.01 801.464 1293.25 805.903 1303.6C810.662 1314.62 822.054 1317.18 825.482 1317.7C827.923 1318.08 834.926 1318.81 842.176 1314.57C848.981 1310.57 851.99 1304.55 853.371 1301.69C857.735 1292.68 857.168 1283.66 856.65 1283.54L856.675 1283.49Z" fill="#A826ED"/>
</g>
<defs>
<clipPath id="clip0_3263_31675">
<rect width="2000" height="2000" fill="white"/>
</clipPath>
</defs>
</svg>
