<svg width="2000" height="2000" viewBox="0 0 2000 2000" fill="none" xmlns="http://www.w3.org/2000/svg">
<g clip-path="url(#clip0_3263_33989)">
<path d="M749.9 1000.03C749.9 1000.03 660.728 1065.03 644 1072.11L723.425 1244.52C723.425 1244.52 640.035 1377.65 654.808 1385.26C654.808 1385.26 1160.54 1445.09 1331.96 1378.67C1331.96 1378.67 1286.41 1261.46 1276.66 1248.74L1377 1081.97C1377 1081.97 1271.1 1021.66 1244.63 1000C1244.63 1000 1018.89 1092.43 749.952 1000L749.9 1000.03Z" fill="#FFEFB8" stroke="#F0B300" stroke-width="3.9" stroke-miterlimit="10"/>
<path d="M751.5 1001C751.5 1001 844.228 1035.93 1000.01 1040.47C1000.01 1040.47 1018.29 1161.51 873.571 1135.63C728.847 1109.72 751.5 1001 751.5 1001Z" fill="#FFEFB8" stroke="#F0B300" stroke-width="3.9" stroke-miterlimit="10"/>
<path d="M1239.5 1002C1239.5 1002 1123.83 1041.46 1011.09 1040.48C1011.09 1040.48 992.801 1161.51 1137.52 1135.63C1282.25 1109.72 1243.5 1000.5 1243.5 1000.5L1239.5 1002Z" fill="#FFEFB8" stroke="#F0B300" stroke-width="3.9" stroke-miterlimit="10"/>
<path d="M1031.74 1115.21V1410.21" stroke="#F0B300" stroke-width="3.9" stroke-miterlimit="10"/>
<path d="M980.744 1113.21V1410.21" stroke="#F0B300" stroke-width="3.9" stroke-miterlimit="10"/>
<path d="M1008.02 1148.21C1014.99 1148.21 1020.65 1142.56 1020.65 1135.58C1020.65 1128.61 1014.99 1122.95 1008.02 1122.95C1001.04 1122.95 995.385 1128.61 995.385 1135.58C995.385 1142.56 1001.04 1148.21 1008.02 1148.21Z" fill="#F0B300"/>
<path d="M1008.02 1204.33C1014.99 1204.33 1020.65 1198.68 1020.65 1191.7C1020.65 1184.73 1014.99 1179.07 1008.02 1179.07C1001.04 1179.07 995.385 1184.73 995.385 1191.7C995.385 1198.68 1001.04 1204.33 1008.02 1204.33Z" fill="#F0B300"/>
<path d="M1008.02 1260.49C1014.99 1260.49 1020.65 1254.84 1020.65 1247.86C1020.65 1240.89 1014.99 1235.23 1008.02 1235.23C1001.04 1235.23 995.385 1240.89 995.385 1247.86C995.385 1254.84 1001.04 1260.49 1008.02 1260.49Z" fill="#F0B300"/>
<path d="M1008.02 1316.62C1014.99 1316.62 1020.65 1310.97 1020.65 1303.99C1020.65 1297.01 1014.99 1291.36 1008.02 1291.36C1001.04 1291.36 995.385 1297.01 995.385 1303.99C995.385 1310.97 1001.04 1316.62 1008.02 1316.62Z" fill="#F0B300"/>
<path d="M1224.98 1223.41C1224.4 1222.65 1210.89 1238.65 1190.63 1239.03C1173.64 1239.34 1161.64 1228.48 1159.66 1226.65C1157.48 1224.61 1141.39 1209.15 1145.63 1191.03C1145.9 1189.89 1149.64 1174.71 1161.3 1172.33C1166.79 1171.19 1174.36 1172.75 1176.95 1177.46C1179.82 1182.73 1173.73 1186.88 1175.19 1195.45C1176.36 1202.19 1181.89 1209.82 1189.78 1211.31C1198.48 1212.97 1205.42 1206.29 1207.29 1204.51C1214.06 1197.99 1214.95 1189.64 1215.09 1186.65C1215.67 1173.73 1206.57 1164.85 1203.49 1161.84C1193.78 1152.35 1182.14 1150.68 1178.9 1150.26C1169.39 1149.01 1144.8 1151.75 1132.46 1171.55C1122.96 1186.81 1126.51 1202.97 1127.34 1206.78C1131.59 1226.06 1145.84 1236.29 1150.24 1239.14C1153.28 1241.13 1167.89 1250.23 1187.15 1247.49C1211.47 1244.05 1225.61 1224.23 1224.98 1223.43V1223.41Z" fill="#EF6724"/>
<path d="M644 1071.5C644 1071.5 590.063 1054.73 574.849 1098.88C559.636 1143.04 594.428 1141.34 594.428 1141.34C594.428 1141.34 571.233 1205.04 623.409 1203.33C623.409 1203.33 600.214 1264.47 648.257 1267.03C648.257 1267.03 642.37 1319.47 697 1285.5L723.5 1241L646.449 1076.28L644 1071.5Z" fill="#FFEFB8" stroke="#F0B300" stroke-width="3.95" stroke-miterlimit="10"/>
<path d="M630.385 1123C615.765 1126.54 601.817 1131.78 596.78 1146.89C594.946 1151.46 593.707 1156.63 592.053 1162.18C579.578 1136.2 604.193 1110.65 630.385 1123Z" fill="#F0B300"/>
<path d="M659.547 1185.25C644.927 1188.79 630.979 1194.03 625.942 1209.14C624.109 1213.71 622.869 1218.88 621.216 1224.43C608.74 1198.45 633.356 1172.9 659.547 1185.25Z" fill="#F0B300"/>
<path d="M1371.54 1082.32C1371.54 1082.32 1409.48 1059.85 1424.67 1102.91C1439.89 1145.97 1405.09 1144.31 1405.09 1144.31C1405.09 1144.31 1428.29 1206.41 1376.11 1204.75C1376.11 1204.75 1399.31 1264.37 1351.26 1266.85C1351.26 1266.85 1348.16 1312.61 1293.5 1279.5L1276 1245.5L1371.51 1082.32H1371.54Z" fill="#FFEFB8" stroke="#F0B300" stroke-width="3.9" stroke-miterlimit="10"/>
<path d="M1371 1127.2C1396.67 1115.06 1421.73 1139.52 1409.33 1165.41C1407.73 1159.9 1406.46 1154.82 1404.63 1150.35C1399.41 1135.52 1385.34 1130.79 1371 1127.2Z" fill="#F0B300"/>
<path d="M1342 1189.2C1367.67 1177.06 1392.73 1201.52 1380.33 1227.41C1378.73 1221.9 1377.46 1216.82 1375.63 1212.35C1370.41 1197.52 1356.34 1192.79 1342 1189.2Z" fill="#F0B300"/>
</g>
<defs>
<clipPath id="clip0_3263_33989">
<rect width="2000" height="2000" fill="white"/>
</clipPath>
</defs>
</svg>
