<svg width="2000" height="2000" viewBox="0 0 2000 2000" fill="none" xmlns="http://www.w3.org/2000/svg">
<path d="M1294.22 1447.78C1297.12 1497.59 1291.22 1509.5 1288.32 1529.17C1287.31 1536.03 1282.25 1541.3 1275.92 1541.93L1036.6 1565.94C1030.58 1566.54 1024.91 1562.78 1022.59 1556.66L1014.54 1535.4C1013.49 1532.57 1011.7 1530.23 1009.48 1528.64C1007.26 1526.97 1004.59 1526.06 1001.82 1526.06C996.446 1526.06 991.556 1529.49 989.287 1534.79L979.784 1557.21C977.289 1563.04 971.718 1566.52 965.844 1565.86C885.106 1556.76 804.341 1547.63 723.577 1538.5C717.427 1537.82 712.486 1532.7 711.402 1526.04C707.016 1499.28 703.966 1466.6 705.327 1429.47C706.31 1402.31 709.487 1378.03 713.368 1357.3C717.25 1362.32 722.846 1365.8 729.325 1366.55L807.366 1375.73C938.066 1391.09 1069.98 1389.2 1200.25 1370.13C1229.61 1363.1 1258.95 1356.06 1288.32 1349C1288.75 1354.4 1289.38 1362.39 1290.06 1372.08C1292.68 1409.3 1292.38 1415.96 1294.24 1447.83L1294.22 1447.78Z" fill="#203076" stroke="#22227C" stroke-width="3" stroke-miterlimit="10"/>
</svg>
