<svg width="2000" height="2000" viewBox="0 0 2000 2000" fill="none" xmlns="http://www.w3.org/2000/svg">
<g clip-path="url(#clip0_2619_640)">
<path d="M1360.86 1525.18C1337.93 1552.19 1284.04 1566.76 1251.13 1552.61L1259.05 1549.65C1249.74 1565.87 1234.71 1578.89 1217.96 1587.51C1180.64 1606.52 1131.91 1602.72 1099.68 1575.52C1099.65 1575.52 1109.25 1575.15 1109.25 1575.15C1093.02 1589.88 1072.34 1600.06 1050.94 1605.26C1025.25 1611.46 997.584 1610.38 972.644 1601.57C957.354 1596.17 943.069 1588.1 931.297 1577.3L939.126 1578.27C915.403 1588.59 889.1 1592.86 863.289 1591.32C825.449 1589.16 787.843 1574.17 760.703 1547.45C760.613 1547.4 768.912 1549.03 768.901 1549.02C761.942 1552.44 754.515 1554.89 746.875 1556.56C731.552 1559.99 715.357 1560.07 699.933 1556.97C673.038 1551.12 640.626 1540.05 629.68 1512.34C617.875 1480.82 629.401 1445.41 642.926 1416.49C653.392 1395.07 666.616 1375.08 681.593 1356.6C690.763 1345.31 700.547 1334.6 710.878 1324.49C710.878 1324.42 1287.44 1324.49 1287.47 1324.47C1327.9 1362.02 1367.01 1415.06 1373.6 1471.26C1375.55 1489.89 1373.14 1509.92 1360.88 1525.18H1360.86ZM1340.76 1507.36C1350.53 1497.94 1352.63 1479.92 1351.8 1466.26C1350.28 1440.56 1341.49 1415.39 1330.5 1392.14C1320.78 1372.17 1308.96 1353.04 1295.64 1335.22C1293.02 1331.55 1290.2 1328.06 1287.46 1324.47C1287.46 1324.47 710.9 1324.47 710.889 1324.47C702.189 1336.02 693.968 1347.87 686.362 1360.02C674.97 1378.16 664.952 1397 657.156 1416.85C647.316 1441.92 637.085 1478.64 648.768 1504.01C653.693 1514.58 664.549 1520.8 675.506 1524.86C684.017 1528.06 693.03 1530.08 702.032 1531.64C715.759 1534.11 729.586 1534.56 743.547 1533.8C751.645 1533.31 761.931 1532.07 770.073 1531.22C770.085 1531.23 771.883 1533.5 771.905 1533.5C791.484 1545.84 812.001 1555.65 834.228 1561.53C866.606 1570.27 900.761 1569.53 933.274 1561.36L938.076 1560.19C938.076 1560.19 941.103 1562.35 941.114 1562.35C976.14 1585.58 1021.55 1592.02 1061.54 1578.8C1076.5 1574.02 1090.61 1566.64 1103.33 1557.5L1108.68 1560.05C1157.25 1576.03 1199.74 1569.73 1241.65 1540.53C1244.13 1538.89 1248.5 1535.81 1250.95 1534.18L1253.53 1534.87C1272.46 1531.86 1291.21 1529.54 1309.34 1523.27C1320.29 1519.48 1332.24 1515.11 1340.76 1507.36Z" fill="#F59C97"/>
<path d="M1350.81 1516.26C1338.4 1530.28 1310.64 1540.51 1287.46 1543.71C1274.19 1545.53 1262.22 1545.06 1252.32 1543.73C1245.62 1551.35 1223.63 1574.5 1186.45 1581.8C1144.51 1590.03 1112.21 1572.44 1104.18 1567.76C1093.11 1575.38 1059.6 1596.3 1012.77 1594.46C975.023 1592.99 947.938 1577.5 936.199 1569.81C920.574 1575.2 881.159 1586.43 833.412 1574.15C802.697 1566.25 780.214 1551.65 766.276 1540.44C749.545 1545.54 725.464 1549.57 698.022 1543.7C688.462 1541.63 659.869 1535.51 645.797 1518.89C617.975 1485.97 640.525 1404.42 710.878 1324.45H1287.46C1359.46 1401.99 1378.46 1485.1 1350.81 1516.25V1516.26Z" fill="#F7ABA7"/>
<g opacity="0.3">
<mask id="mask0_2619_640" style="mask-type:luminance" maskUnits="userSpaceOnUse" x="634" y="1324" width="729" height="271">
<path d="M1350.81 1516.26C1338.4 1530.28 1310.64 1540.51 1287.46 1543.71C1274.19 1545.53 1262.22 1545.06 1252.32 1543.73C1245.62 1551.35 1223.63 1574.5 1186.45 1581.8C1144.51 1590.03 1112.21 1572.44 1104.18 1567.76C1093.11 1575.38 1059.6 1596.3 1012.77 1594.46C975.023 1592.99 947.938 1577.5 936.199 1569.81C920.574 1575.2 881.159 1586.43 833.412 1574.15C802.697 1566.25 780.214 1551.65 766.276 1540.44C749.545 1545.54 725.464 1549.57 698.022 1543.7C688.462 1541.63 659.869 1535.51 645.797 1518.89C617.975 1485.97 640.525 1404.42 710.878 1324.45H1287.46C1359.46 1401.99 1378.46 1485.1 1350.81 1516.25V1516.26Z" fill="white"/>
</mask>
<g mask="url(#mask0_2619_640)">
<mask id="mask1_2619_640" style="mask-type:luminance" maskUnits="userSpaceOnUse" x="547" y="1272" width="1126" height="589">
<path d="M1672.26 1272.06H547.008V1860.27H1672.26V1272.06Z" fill="white"/>
</mask>
<g mask="url(#mask1_2619_640)">
<path d="M933.262 1522.26C923.087 1544.58 884.733 1544.1 870.492 1543.92C855.28 1543.73 817.54 1543.26 807.064 1519.94C798.464 1500.81 813.587 1478.14 818.635 1470.58C823.024 1464 841.565 1436.21 870.861 1437.3C896.951 1438.27 912.554 1461.47 919.814 1472.26C926.65 1482.42 941.426 1504.37 933.262 1522.26Z" fill="white"/>
<path d="M862.706 1496.8C866.36 1484.88 863.183 1473.34 855.611 1471.02C848.039 1468.7 838.938 1476.47 835.285 1488.39C831.632 1500.3 834.808 1511.84 842.381 1514.16C849.953 1516.48 859.053 1508.71 862.706 1496.8Z" fill="#ED6825"/>
<path d="M898.358 1514.34C905.576 1512.35 908.785 1501.17 905.527 1489.38C902.268 1477.59 893.775 1469.65 886.557 1471.65C879.339 1473.64 876.13 1484.82 879.388 1496.61C882.647 1508.4 891.14 1516.34 898.358 1514.34Z" fill="#ED6825"/>
<path d="M1158.9 1436.54C1156.82 1454.94 1129.2 1463.57 1118.95 1466.77C1107.99 1470.2 1080.8 1478.7 1067.82 1464.43C1057.18 1452.71 1062.71 1432.92 1064.56 1426.31C1066.17 1420.57 1072.96 1396.28 1094.23 1390.2C1113.17 1384.79 1129.8 1397.77 1137.53 1403.82C1144.82 1409.51 1160.55 1421.8 1158.89 1436.54H1158.9Z" fill="white"/>
<path d="M1091.81 1452.06C1097.78 1451.95 1102.49 1444.25 1102.32 1434.85C1102.16 1425.45 1097.18 1417.92 1091.2 1418.02C1085.22 1418.13 1080.51 1425.84 1080.68 1435.23C1080.85 1444.63 1085.83 1452.17 1091.81 1452.06Z" fill="#ED6825"/>
<path d="M1132.03 1439.06C1136.74 1435.94 1136.42 1427.17 1131.32 1419.47C1126.22 1411.77 1118.27 1408.06 1113.56 1411.18C1108.85 1414.3 1109.16 1423.07 1114.26 1430.77C1119.36 1438.47 1127.32 1442.18 1132.03 1439.06Z" fill="#ED6825"/>
<path d="M1310.94 1382.63C1308.97 1391.31 1295.31 1393.98 1290.24 1394.97C1284.83 1396.03 1271.38 1398.66 1265.93 1391.15C1261.46 1384.98 1265.15 1375.82 1266.39 1372.75C1267.46 1370.1 1271.99 1358.84 1282.48 1357.06C1291.83 1355.48 1299.09 1362.57 1302.46 1365.86C1305.65 1368.97 1312.51 1375.68 1310.94 1382.64V1382.63Z" fill="white"/>
<path d="M1284.03 1378.82C1284.44 1374.32 1282.46 1370.46 1279.6 1370.19C1276.74 1369.93 1274.08 1373.36 1273.66 1377.86C1273.24 1382.36 1275.23 1386.23 1278.09 1386.49C1280.95 1386.76 1283.61 1383.32 1284.03 1378.82Z" fill="#ED6825"/>
<path d="M1297.96 1382.4C1300.38 1381.16 1300.69 1376.95 1298.66 1373C1296.63 1369.05 1293.02 1366.86 1290.6 1368.1C1288.19 1369.34 1287.87 1373.55 1289.9 1377.5C1291.93 1381.45 1295.54 1383.65 1297.96 1382.4Z" fill="#ED6825"/>
<path d="M702.959 1442.68C693.599 1454.97 670.111 1449.33 661.399 1447.24C652.084 1445.01 628.976 1439.46 625.793 1423.67C623.179 1410.73 635.622 1398.92 639.776 1394.97C643.384 1391.54 658.652 1377.05 676.489 1381.81C692.371 1386.05 698.726 1402.46 701.674 1410.1C704.456 1417.3 710.464 1432.83 702.97 1442.68H702.959Z" fill="white"/>
<path d="M663.202 1417.22C667.106 1410.41 666.766 1402.88 662.443 1400.4C658.119 1397.92 651.45 1401.43 647.546 1408.24C643.641 1415.04 643.981 1422.57 648.305 1425.05C652.628 1427.53 659.297 1424.02 663.202 1417.22Z" fill="#ED6825"/>
<path d="M682.653 1432.95C687.367 1432.73 690.897 1426.31 690.538 1418.62C690.179 1410.92 686.067 1404.86 681.353 1405.08C676.64 1405.3 673.109 1411.72 673.468 1419.41C673.827 1427.11 677.939 1433.17 682.653 1432.95Z" fill="#ED6825"/>
<path d="M1318.1 1542.39C1310.41 1559.23 1281.47 1558.86 1270.73 1558.74C1259.25 1558.59 1230.77 1558.24 1222.86 1540.65C1216.37 1526.2 1227.77 1509.1 1231.59 1503.4C1234.9 1498.44 1248.91 1477.45 1271.01 1478.28C1290.7 1479.02 1302.47 1496.52 1307.96 1504.66C1313.12 1512.33 1324.26 1528.9 1318.11 1542.39H1318.1Z" fill="white"/>
<path d="M1264.83 1523.15C1267.58 1514.16 1265.18 1505.46 1259.47 1503.71C1253.75 1501.95 1246.89 1507.82 1244.13 1516.81C1241.38 1525.79 1243.77 1534.5 1249.49 1536.25C1255.2 1538 1262.07 1532.14 1264.83 1523.15Z" fill="#ED6825"/>
<path d="M1291.77 1536.45C1297.21 1534.94 1299.63 1526.51 1297.17 1517.61C1294.71 1508.71 1288.31 1502.71 1282.86 1504.22C1277.41 1505.72 1274.99 1514.16 1277.45 1523.06C1279.91 1531.96 1286.32 1537.95 1291.77 1536.45Z" fill="#ED6825"/>
<path d="M917.28 1389.98C912.366 1395.98 900.683 1392.73 896.338 1391.53C891.703 1390.25 880.199 1387.05 878.881 1379.08C877.798 1372.53 884.254 1366.82 886.409 1364.93C888.286 1363.27 896.204 1356.27 905.061 1358.97C912.958 1361.39 915.85 1369.73 917.202 1373.62C918.475 1377.28 921.212 1385.17 917.269 1389.99L917.28 1389.98Z" fill="white"/>
<path d="M897.785 1376.5C899.866 1373.16 899.829 1369.37 897.702 1368.05C895.575 1366.73 892.164 1368.37 890.083 1371.71C888.002 1375.06 888.039 1378.85 890.165 1380.17C892.292 1381.49 895.704 1379.85 897.785 1376.5Z" fill="#ED6825"/>
<path d="M907.246 1384.73C909.614 1384.7 911.499 1381.55 911.456 1377.68C911.413 1373.81 909.458 1370.7 907.089 1370.73C904.721 1370.75 902.836 1373.91 902.879 1377.78C902.922 1381.64 904.877 1384.76 907.246 1384.73Z" fill="#ED6825"/>
</g>
</g>
</g>
<path d="M1264.02 1286.47C1180.5 1292.18 1091.32 1295.58 997.093 1295.58C902.961 1295.58 813.878 1292.17 730.424 1286.47C729.106 1286.47 723.588 1286.62 718.786 1290.92C715.681 1293.69 713.559 1297.57 713.056 1301.99L710.9 1324.47C797.191 1333.79 893.333 1339.94 997.83 1339.98C1103.39 1340.04 1200.45 1333.86 1287.46 1324.47C1285.41 1316.74 1283.34 1309 1281.29 1301.27C1279.96 1292.76 1272.63 1286.5 1264.02 1286.5V1286.47Z" fill="#F59C97"/>
<path d="M831.939 1329.43C808.283 1361.03 792.837 1398.32 787.073 1437.52C786.861 1438.96 785.521 1439.97 784.069 1439.76C782.718 1439.56 781.757 1438.36 781.813 1437.03C782.662 1416.65 786.091 1396.24 791.988 1376.44C797.941 1356.55 806.373 1337.38 817.04 1319.5C819.564 1315.23 825.081 1313.84 829.337 1316.37C833.894 1319.04 835.111 1325.23 831.928 1329.44L831.939 1329.43Z" fill="#F59C97"/>
<path d="M975.972 1332.87C963.843 1352.23 954.416 1373.3 947.994 1395.3C941.516 1417.55 938.109 1440.73 937.92 1463.98C937.886 1466.07 934.736 1466.32 934.491 1464.13C931.095 1428.41 935.273 1391.99 946.564 1357.85C950.351 1346.37 954.975 1335.12 960.324 1324.18C962.502 1319.74 967.875 1317.89 972.32 1320.07C977.067 1322.36 978.798 1328.41 975.983 1332.87H975.972Z" fill="#F59C97"/>
<path d="M1081.98 1331.09C1093.79 1372.89 1099.46 1416.09 1098.95 1458.93C1098.93 1460.5 1097.66 1461.75 1096.09 1461.73C1094.63 1461.7 1093.44 1460.56 1093.3 1459.14C1089.75 1416.97 1080.16 1375.64 1065 1336.77C1063.2 1332.16 1065.48 1326.96 1070.09 1325.16C1074.98 1323.22 1080.58 1326.02 1081.98 1331.09Z" fill="#F59C97"/>
<path d="M1192.47 1319.64C1215.49 1359.98 1226.18 1407.2 1222.34 1453.42C1222.17 1455.23 1219.42 1455.26 1219.33 1453.34C1218.39 1419.94 1209.94 1386.81 1194.58 1357.21C1189.54 1347.45 1183.77 1338.12 1177.39 1329.29C1174.49 1325.28 1175.39 1319.67 1179.41 1316.76C1183.69 1313.63 1189.89 1315 1192.47 1319.62V1319.64Z" fill="#F59C97"/>
</g>
<defs>
<clipPath id="clip0_2619_640">
<rect width="752" height="321.496" fill="white" transform="translate(624 1287.61)"/>
</clipPath>
</defs>
</svg>
