<svg width="2000" height="2000" viewBox="0 0 2000 2000" fill="none" xmlns="http://www.w3.org/2000/svg">
<path d="M943.726 1587.14C937.324 1595.75 930.921 1604.36 924.544 1612.98C921.622 1616.15 917.278 1617.57 913.035 1616.79L725.556 1582.06C720.322 1581.09 716.257 1576.9 715.444 1571.64C713.996 1557.74 712.573 1543.82 711.125 1529.92C729.977 1538.1 752.056 1546.28 777.133 1553.14C807.291 1561.42 834.857 1565.9 858.435 1568.28C874.187 1567.95 895.224 1569.45 918.548 1576.92C927.999 1579.95 936.409 1583.5 943.726 1587.11V1587.14Z" fill="#8686A1" stroke="black" stroke-width="1.90057" stroke-miterlimit="10"/>
<path d="M1288.32 1535.43L1286.37 1571.64C1285.55 1576.9 1281.49 1581.09 1276.25 1582.05L1088.78 1616.79C1084.53 1617.57 1080.19 1616.15 1077.27 1612.98C1068.76 1603.6 1060.24 1594.2 1051.73 1584.82C1060.09 1578.73 1076.68 1568.33 1100.18 1564.4C1120.03 1561.07 1136.44 1563.79 1146.02 1566.12C1163.45 1567.93 1189.11 1568.64 1219.11 1562.24C1249.63 1555.73 1273.08 1544.35 1288.32 1535.43Z" fill="#8686A1" stroke="black" stroke-width="1.90057" stroke-miterlimit="10"/>
<path d="M1294.85 1508.73C1294.47 1512.69 1294.09 1516.58 1293.66 1520.39C1292.77 1528.24 1289.19 1535.51 1283.47 1540.97C1272.04 1551.87 1253.62 1566.1 1227.63 1575.09C1189.92 1588.18 1157.48 1582.92 1143.83 1579.9C1134.69 1585.59 1119.06 1593.34 1098.79 1594.23C1083.01 1594.91 1071.63 1591.13 1054.63 1585.48C1040.61 1580.84 1033.36 1576.54 1029.6 1573.7C1028.56 1572.93 1027.77 1572.25 1027.19 1571.69C1027.09 1571.59 1026.76 1571.26 1026.43 1570.93C1022.95 1567.42 1018.02 1560.54 1015.76 1546.41C1015.02 1541.66 1014.56 1536.12 1014.59 1529.61H983.542C984.329 1535.66 984.583 1540.87 984.456 1545.34C984.05 1560.51 979.349 1567.52 975.97 1570.93C975.69 1571.23 975.411 1571.49 975.208 1571.69C974.624 1572.25 973.836 1572.93 972.794 1573.7C969.034 1576.54 961.793 1580.84 947.768 1585.48C930.771 1591.13 919.389 1594.91 903.611 1594.23C883.336 1593.34 867.711 1585.59 858.564 1579.9C844.921 1582.92 812.476 1588.18 774.772 1575.09C748.781 1566.1 730.361 1551.87 718.927 1540.97C713.211 1535.51 709.628 1528.24 708.739 1520.39C705.767 1493.54 704.115 1463.28 705.157 1430.22C705.843 1407.99 707.647 1387.23 710.137 1368.18C780.438 1389.27 879.957 1411.17 1000.49 1412.72H1001.91C1098.48 1411.47 1181.56 1397.17 1246.94 1380.68C1247.06 1380.65 1247.16 1380.63 1247.29 1380.58C1258.29 1377.83 1268.76 1374.99 1278.75 1372.14C1278.9 1372.09 1279.03 1372.07 1279.18 1372.01C1283.65 1370.72 1288.02 1369.47 1292.26 1368.18C1292.29 1368.33 1292.29 1368.46 1292.31 1368.61C1294.45 1385.05 1296.07 1402.76 1296.91 1421.58C1297.04 1424.43 1297.14 1427.33 1297.24 1430.22C1298.13 1458.58 1297.04 1484.87 1294.85 1508.73Z" fill="#8686A1"/>
<mask id="mask0_2619_404" style="mask-type:luminance" maskUnits="userSpaceOnUse" x="704" y="1368" width="594" height="227">
<path d="M1294.85 1508.73C1294.47 1512.69 1294.09 1516.58 1293.66 1520.39C1292.77 1528.24 1289.19 1535.51 1283.47 1540.97C1272.04 1551.87 1253.62 1566.1 1227.63 1575.09C1189.92 1588.18 1157.48 1582.92 1143.83 1579.9C1134.69 1585.59 1119.06 1593.34 1098.79 1594.23C1083.01 1594.91 1071.63 1591.13 1054.63 1585.48C1040.61 1580.84 1033.36 1576.54 1029.6 1573.7C1028.56 1572.93 1027.77 1572.25 1027.19 1571.69C1027.09 1571.59 1026.76 1571.26 1026.43 1570.93C1022.95 1567.42 1018.02 1560.54 1015.76 1546.41C1015.02 1541.66 1014.56 1536.12 1014.59 1529.61H983.542C984.329 1535.66 984.583 1540.87 984.456 1545.34C984.05 1560.51 979.349 1567.52 975.97 1570.93C975.69 1571.23 975.411 1571.49 975.208 1571.69C974.624 1572.25 973.836 1572.93 972.794 1573.7C969.034 1576.54 961.793 1580.84 947.768 1585.48C930.771 1591.13 919.389 1594.91 903.611 1594.23C883.336 1593.34 867.711 1585.59 858.564 1579.9C844.921 1582.92 812.476 1588.18 774.772 1575.09C748.781 1566.1 730.361 1551.87 718.927 1540.97C713.211 1535.51 709.628 1528.24 708.739 1520.39C705.767 1493.54 704.115 1463.28 705.157 1430.22C705.843 1407.99 707.647 1387.23 710.137 1368.18C780.438 1389.27 879.957 1411.17 1000.49 1412.72H1001.91C1098.48 1411.47 1181.56 1397.17 1246.94 1380.68C1247.06 1380.65 1247.16 1380.63 1247.29 1380.58C1258.29 1377.83 1268.76 1374.99 1278.75 1372.14C1278.9 1372.09 1279.03 1372.07 1279.18 1372.01C1283.65 1370.72 1288.02 1369.47 1292.26 1368.18C1292.29 1368.33 1292.29 1368.46 1292.31 1368.61C1294.45 1385.05 1296.07 1402.76 1296.91 1421.58C1297.04 1424.43 1297.14 1427.33 1297.24 1430.22C1298.13 1458.58 1297.04 1484.87 1294.85 1508.73Z" fill="white"/>
</mask>
<g mask="url(#mask0_2619_404)">
<path d="M1294.85 1508.73C1294.47 1512.69 1294.09 1516.58 1293.66 1520.39C1292.77 1528.24 1289.19 1535.51 1283.47 1540.97C1272.04 1551.87 1253.62 1566.1 1227.63 1575.09C1189.92 1588.18 1157.48 1582.92 1143.83 1579.9C1134.69 1585.59 1119.06 1593.34 1098.79 1594.23C1083.01 1594.91 1071.63 1591.13 1054.63 1585.48C1040.61 1580.84 1033.36 1576.54 1029.6 1573.7C1028.56 1572.93 1027.77 1572.25 1027.19 1571.69C1027.09 1571.59 1026.76 1571.26 1026.43 1570.93C1022.95 1567.42 1018.02 1560.54 1015.76 1546.41C1015.02 1541.66 1014.56 1536.12 1014.59 1529.61H983.542C984.329 1535.66 984.583 1540.87 984.456 1545.34C984.05 1560.51 979.349 1567.52 975.97 1570.93C975.69 1571.23 975.411 1571.49 975.208 1571.69C974.624 1572.25 973.836 1572.93 972.794 1573.7C969.034 1576.54 961.793 1580.84 947.768 1585.48C930.771 1591.13 919.389 1594.91 903.611 1594.23C883.336 1593.34 867.711 1585.59 858.564 1579.9C844.921 1582.92 812.476 1588.18 774.772 1575.09C748.781 1566.1 730.361 1551.87 718.927 1540.97C713.211 1535.51 709.628 1528.24 708.739 1520.39C705.767 1493.54 704.115 1463.28 705.157 1430.22C705.843 1407.99 707.647 1387.23 710.137 1368.18C780.438 1389.27 879.957 1411.17 1000.49 1412.72H1001.91C1098.48 1411.47 1181.56 1397.17 1246.94 1380.68C1247.06 1380.65 1247.16 1380.63 1247.29 1380.58C1258.29 1377.83 1268.76 1374.99 1278.75 1372.14C1278.9 1372.09 1279.03 1372.07 1279.18 1372.01C1283.65 1370.72 1288.02 1369.47 1292.26 1368.18C1292.29 1368.33 1292.29 1368.46 1292.31 1368.61C1294.45 1385.05 1296.07 1402.76 1296.91 1421.58C1297.04 1424.43 1297.14 1427.33 1297.24 1430.22C1298.13 1458.58 1297.04 1484.87 1294.85 1508.73Z" fill="#8686A1" stroke="black" stroke-width="1.90057" stroke-miterlimit="10"/>
<path d="M708.003 1508.22C708.003 1508.22 761.307 1473.19 869.008 1481.24C976.708 1489.29 918.297 1554.79 918.297 1554.79L953.969 1548.31C953.969 1548.31 936.972 1497.73 957.805 1499.66C978.639 1501.59 953.334 1559.42 964.36 1561.32C975.387 1563.23 982.526 1572.96 993.553 1564.52C1004.58 1556.09 1021.7 1462.67 943.73 1467.88C865.756 1473.08 897.54 1418.43 918.958 1423.06C940.376 1427.68 948.15 1368.63 884.582 1374.48C821.014 1380.32 807.396 1440.64 765.881 1441.3C724.366 1441.96 656.249 1448.44 662.093 1475.04C667.937 1501.64 708.029 1508.25 708.029 1508.25" fill="#5D5E71"/>
<path d="M1001.2 1603.57C1001.2 1603.57 915.425 1514.04 835.393 1529.94C755.361 1545.85 741.437 1638.28 814.406 1631.14C887.375 1624 971.701 1652.23 973.658 1657.74C975.614 1663.26 1001.2 1603.57 1001.2 1603.57Z" fill="#65657D"/>
<path d="M691.056 1526.26C691.056 1526.26 721.316 1528.32 754.625 1517.77C787.933 1507.23 804.346 1462.16 841.11 1517.77C877.874 1573.39 759.808 1652.53 707.901 1631.34C655.995 1610.15 691.031 1526.26 691.031 1526.26H691.056Z" fill="#5D5E71"/>
<path d="M992.256 1537.29C992.256 1537.29 972.794 1539.75 953.332 1535.43C933.87 1531.11 914.078 1555.45 941.975 1572.65C969.872 1589.85 1001.17 1566.18 1001.17 1566.18L992.56 1535.46" fill="#585566"/>
<path d="M886.74 1393.28C886.74 1393.28 908.362 1456.42 981.026 1450.8C1053.69 1445.19 1053.08 1475.01 1037.81 1495.77C1022.54 1516.53 1094.32 1535.46 1099.09 1481.24C1103.87 1427.02 1162.66 1349.17 1054.55 1320.62C946.447 1292.06 886.766 1393.28 886.766 1393.28H886.74Z" fill="#585566"/>
<path d="M1031.18 1594.3C1031.18 1594.3 972.796 1532.1 1025.13 1506.16C1077.47 1480.22 1135.83 1530.81 1111.19 1551.57C1086.54 1572.32 1108.16 1641.51 1073.13 1628.12C1038.09 1614.73 1031.18 1594.3 1031.18 1594.3Z" fill="#65657D"/>
<path d="M1258.65 1594.81C1258.65 1594.81 1222.27 1525.96 1153.54 1536.17C1084.82 1546.38 1096.48 1637.19 1140.18 1618.16C1183.88 1599.13 1258.68 1594.81 1258.68 1594.81H1258.65Z" fill="#585566"/>
<path d="M1139.72 1386.8C1139.72 1385.51 1058.29 1507.64 1100.79 1523.03C1143.3 1538.43 1118.53 1470.69 1156.59 1479.33C1194.65 1487.97 1121.55 1545.49 1141.45 1553.73C1161.34 1561.96 1166.52 1516.86 1213.68 1517.77C1260.83 1518.69 1324.81 1415.33 1324.81 1415.33L1309.33 1313.27L1165.23 1332.73L1139.72 1386.8Z" fill="#5D5E71"/>
</g>
<path d="M1294.85 1508.73C1294.47 1512.69 1294.09 1516.58 1293.66 1520.39C1292.77 1528.24 1289.19 1535.51 1283.47 1540.97C1272.04 1551.87 1253.62 1566.1 1227.63 1575.09C1189.92 1588.18 1157.48 1582.92 1143.83 1579.9C1134.69 1585.59 1119.06 1593.34 1098.79 1594.23C1083.01 1594.91 1071.63 1591.13 1054.63 1585.48C1040.61 1580.84 1033.36 1576.54 1029.6 1573.7C1028.56 1572.93 1027.77 1572.25 1027.19 1571.69C1027.09 1571.59 1026.76 1571.26 1026.43 1570.93C1022.95 1567.42 1018.02 1560.54 1015.76 1546.41C1015.02 1541.66 1014.56 1536.12 1014.59 1529.61H983.542C984.329 1535.66 984.583 1540.87 984.456 1545.34C984.05 1560.51 979.349 1567.52 975.97 1570.93C975.69 1571.23 975.411 1571.49 975.208 1571.69C974.624 1572.25 973.836 1572.93 972.794 1573.7C969.034 1576.54 961.793 1580.84 947.768 1585.48C930.771 1591.13 919.389 1594.91 903.611 1594.23C883.336 1593.34 867.711 1585.59 858.564 1579.9C844.921 1582.92 812.476 1588.18 774.772 1575.09C748.781 1566.1 730.361 1551.87 718.927 1540.97C713.211 1535.51 709.628 1528.24 708.739 1520.39C705.767 1493.54 704.115 1463.28 705.157 1430.22C705.843 1407.99 707.647 1387.23 710.137 1368.18C780.438 1389.27 879.957 1411.17 1000.49 1412.72H1001.91C1098.48 1411.47 1181.56 1397.17 1246.94 1380.68C1247.06 1380.65 1247.16 1380.63 1247.29 1380.58C1258.29 1377.83 1268.76 1374.99 1278.75 1372.14C1278.9 1372.09 1279.03 1372.07 1279.18 1372.01C1283.65 1370.72 1288.02 1369.47 1292.26 1368.18C1292.29 1368.33 1292.29 1368.46 1292.31 1368.61C1294.45 1385.05 1296.07 1402.76 1296.91 1421.58C1297.04 1424.43 1297.14 1427.33 1297.24 1430.22C1298.13 1458.58 1297.04 1484.87 1294.85 1508.73Z" stroke="black" stroke-width="1.90057" stroke-miterlimit="10"/>
<path d="M769.892 1383.93C769.561 1385.18 766.106 1396.66 756.68 1406.87C751.345 1412.67 744.104 1418.08 734.398 1420.97C722.939 1424.4 712.574 1422.98 705.333 1420.9C700.454 1419.5 696.974 1417.8 695.475 1417.04C696.821 1415.23 698.6 1412.46 699.946 1408.78C703.046 1400.22 700.937 1394.55 701.852 1387.03C702.436 1382.2 704.418 1375.57 710.617 1368C730.384 1373.31 750.125 1378.62 769.892 1383.93Z" fill="#5C5A65" stroke="black" stroke-width="1.90057" stroke-miterlimit="10"/>
<path d="M773.322 1453.39C768.647 1465.36 762.625 1480.93 755.054 1499.48C752.92 1504.77 747.788 1508.22 742.097 1508.22H708C698.905 1508.22 692.197 1499.68 694.433 1490.87C696.135 1484.08 697.71 1476.97 699.159 1469.53C702.538 1451.84 704.393 1435.51 705.333 1420.9C712.574 1422.98 722.94 1424.4 734.398 1420.97C744.104 1418.08 751.345 1412.67 756.68 1406.87C760.11 1409.82 765.039 1414.55 769.892 1421.28C772.509 1424.89 774.389 1427.53 775.583 1431.03C778.606 1439.88 775.227 1448.46 773.322 1453.39Z" fill="#5C5A65" stroke="black" stroke-width="1.90057" stroke-miterlimit="10"/>
<path d="M957.805 1520.54C968.501 1521.99 978.384 1523.34 989.004 1523.92C999.269 1524.91 1008.82 1524.69 1018.83 1521.76C1023.58 1520.6 1032.12 1518.51 1036.85 1517.57L1037.48 1517.44H1037.56C1037.48 1517.52 1037.25 1517.65 1037.48 1518.05C1037.94 1518.31 1037.86 1518.11 1037.84 1518.18C1037.84 1518.18 1037.84 1518.18 1037.81 1518.18H1037.74L1037.4 1518.23L1036.06 1518.41C1036.54 1518.08 1037.05 1517.75 1037.58 1517.44H1037.63L1037.66 1517.42C1037.66 1517.47 1037.61 1517.29 1038.07 1517.52C1038.29 1517.93 1038.14 1517.9 1038.12 1518C1037.68 1518.46 1035.6 1519.68 1034.99 1520.11C1027.09 1524.74 1019.32 1528.83 1010.22 1531.04C1003.03 1532.64 995.305 1532.26 988.166 1531.14C977.571 1529.67 966.85 1526.39 957.779 1520.57L957.805 1520.54Z" fill="black"/>
<path d="M1233.44 1383.93C1233.77 1385.18 1237.23 1396.66 1246.65 1406.87C1251.99 1412.67 1259.23 1418.08 1268.93 1420.97C1280.39 1424.4 1290.76 1422.98 1298 1420.9C1302.88 1419.5 1306.36 1417.8 1307.86 1417.04C1306.51 1415.23 1304.73 1412.46 1303.39 1408.78C1300.29 1400.22 1302.4 1394.55 1301.48 1387.03C1300.9 1382.2 1298.92 1375.57 1292.72 1368C1272.95 1373.31 1253.21 1378.62 1233.44 1383.93Z" fill="#5C5A65" stroke="black" stroke-width="1.90057" stroke-miterlimit="10"/>
<path d="M1230.02 1453.39C1234.69 1465.36 1240.71 1480.93 1248.28 1499.48C1250.42 1504.77 1255.55 1508.22 1261.24 1508.22H1295.34C1304.43 1508.22 1311.14 1499.68 1308.9 1490.87C1307.2 1484.08 1305.63 1476.97 1304.18 1469.53C1300.8 1451.84 1298.94 1435.51 1298 1420.9C1290.76 1422.98 1280.4 1424.4 1268.94 1420.97C1259.23 1418.08 1251.99 1412.67 1246.66 1406.87C1243.23 1409.82 1238.3 1414.55 1233.45 1421.28C1230.83 1424.89 1228.95 1427.53 1227.75 1431.03C1224.73 1439.88 1228.11 1448.46 1230.02 1453.39Z" fill="#5C5A65" stroke="black" stroke-width="1.90057" stroke-miterlimit="10"/>
<path d="M812.197 1542.78C825.968 1557.26 842.483 1568.72 860.318 1576.52L856.812 1583.27C839.256 1572.76 824.012 1558.88 812.197 1542.78Z" fill="black"/>
<path d="M1190.2 1542.78C1178.39 1558.88 1163.14 1572.76 1145.59 1583.27L1142.08 1576.52C1159.92 1568.72 1176.43 1557.26 1190.2 1542.78Z" fill="black"/>
</svg>
