<svg width="2000" height="2000" viewBox="0 0 2000 2000" fill="none" xmlns="http://www.w3.org/2000/svg">
<path d="M917.586 1607.81L914.72 1678C914.416 1685.4 909.19 1691.69 901.936 1693.32L788.451 1718.96C736.452 1731.87 693.965 1720.89 685.061 1699.15C680.343 1687.66 684.402 1671.78 685.112 1669.02C685.873 1666.1 686.786 1663.39 687.902 1660.82C688.334 1659.66 688.866 1658.52 689.399 1657.43C695.055 1645.86 703.528 1637.95 710.528 1631.55C718.797 1623.99 750.048 1595.43 792.332 1597.11C817.241 1598.1 821.198 1608.6 851.307 1613.04C860.641 1614.41 869.519 1614.76 877.763 1614.43C878.777 1614.43 879.767 1614.38 880.756 1614.31C895.316 1613.47 907.922 1610.63 917.561 1607.79L917.586 1607.81Z" fill="#F6F6F6"/>
<path d="M880.781 1614.33C872.74 1629.24 858.181 1648.93 833.424 1661.91C824.698 1666.45 808.388 1675 789.263 1675C784.621 1675 779.776 1674.5 774.855 1673.28C765.622 1671.05 760.448 1667.42 755.4 1663.89C750.885 1660.72 746.268 1657.5 738.608 1655.19C723.642 1650.65 706.622 1652.58 687.953 1660.85C688.384 1659.68 688.917 1658.54 689.45 1657.45C707.713 1649.87 724.479 1648.27 739.369 1652.76C747.41 1655.19 752.229 1658.54 756.871 1661.81C761.919 1665.36 766.713 1668.69 775.464 1670.82C799.688 1676.7 821.705 1665.21 832.282 1659.66C855.771 1647.38 869.874 1628.91 877.839 1614.46C878.853 1614.46 879.843 1614.41 880.832 1614.33H880.781Z" fill="#231F20"/>
<path d="M917.585 1607.84L914.744 1678.02C914.414 1685.4 909.189 1691.72 901.96 1693.34L788.475 1718.99C736.476 1731.9 694.014 1720.89 685.111 1699.18C680.368 1687.71 684.451 1671.81 685.136 1669.07C685.897 1666.13 686.785 1663.44 687.901 1660.85C688.358 1659.71 688.89 1658.57 689.398 1657.48C695.08 1645.91 703.552 1638.02 710.527 1631.61C718.822 1624.02 750.046 1595.49 792.356 1597.14C817.265 1598.12 821.197 1608.63 851.331 1613.09C860.665 1614.46 869.543 1614.81 877.787 1614.46C878.801 1614.46 879.791 1614.43 880.78 1614.33C895.34 1613.5 907.946 1610.68 917.585 1607.84Z" stroke="#8F8F8F" stroke-miterlimit="10"/>
<path d="M928.593 1589.02C928.238 1589.83 927.858 1590.69 927.528 1591.6C926.564 1594.22 925.701 1597.24 925.397 1601.12C924.636 1610.96 928.492 1612.43 927.223 1618.01C925.473 1625.69 916.164 1631.48 904.597 1635.21C899.195 1636.96 893.31 1638.25 887.476 1639.11H887.45C883.468 1639.67 879.562 1640.03 875.782 1640.18C869.466 1640.43 864.495 1640.03 860.208 1639.37C853.232 1638.25 847.931 1636.42 841.235 1635.43C836.238 1634.7 830.454 1634.42 822.616 1635.23C820.384 1635.46 818.431 1635.74 816.732 1636.04C805.977 1637.92 803.821 1640.84 795.298 1641.4C794.004 1641.45 792.584 1641.47 790.96 1641.45C782.285 1641.24 776.223 1639.34 770.338 1637.01C765.722 1635.23 761.232 1633.18 755.677 1631.53C752.227 1630.49 748.372 1629.58 743.806 1628.97C742.081 1628.74 740.331 1628.56 738.631 1628.46C734.04 1628.13 729.525 1628.21 725.036 1628.64C720.14 1629.07 715.27 1629.91 710.552 1631.12C709.943 1625.85 710.628 1621.56 711.744 1618.19C714.636 1609.44 720.241 1607.36 722.499 1600.05C722.727 1599.37 722.905 1598.63 723.057 1597.84C723.133 1597.49 723.184 1597.18 723.184 1596.93C723.336 1595.49 722.93 1594.55 722.727 1585.67C722.474 1575.19 722.398 1569.92 723.818 1568.02C726.557 1564.36 732.366 1565.17 739.468 1566.26C742.741 1566.8 746.241 1567.36 749.868 1567.58C750.426 1567.58 750.984 1567.66 751.517 1567.69C760.167 1567.99 766.686 1566.16 772.393 1563.58C778.836 1560.66 784.238 1556.78 790.453 1553.94C795.475 1551.6 801.081 1549.98 808.209 1550.13C809.731 1550.13 811.151 1550.29 812.47 1550.46C819.116 1551.35 823.225 1554.01 827.03 1557.11C832.078 1561.24 836.618 1566.14 845.927 1568.8C847.855 1569.36 849.986 1569.82 852.345 1570.15C855.515 1570.6 858.534 1570.73 861.425 1570.65C870.1 1570.4 877.609 1568.07 884.508 1565.68C890.165 1563.7 895.441 1561.67 900.615 1560.74C906.601 1559.62 912.537 1559.9 918.827 1563.3C921.313 1564.64 929.785 1569.16 931.333 1577.07C932.195 1581.53 930.445 1584.73 928.593 1588.99V1589.02Z" fill="#E8C2C6"/>
<path d="M750.552 1598.66C748.472 1606.49 741.547 1606.87 738.605 1615.02C736.88 1619.79 737.489 1624.6 738.63 1628.49C734.039 1628.16 729.524 1628.23 725.034 1628.66C723.766 1625.37 722.828 1621.08 724.045 1616.64C726.607 1607.56 735.663 1607.43 738.275 1598.4C740.076 1592.24 736.449 1590.11 737.108 1578.87C737.438 1573.47 738.554 1569.08 739.442 1566.29C742.714 1566.82 746.215 1567.38 749.842 1567.61C750.4 1567.61 750.958 1567.69 751.491 1567.71C750.07 1570.98 748.751 1575.27 748.599 1580.32C748.269 1589.7 752.252 1592.21 750.527 1598.66H750.552Z" fill="#F8B4C1"/>
<path d="M779.928 1580.47C779.928 1587.01 781.881 1591.02 779.928 1598.71C777.848 1606.95 773.942 1608.9 771.202 1615.98C769.427 1620.55 768.133 1627.37 770.34 1637.03C765.723 1635.26 761.234 1633.2 755.679 1631.55C754.512 1624.78 755.425 1619.84 756.516 1616.49C759.509 1607.48 765.165 1606.29 766.865 1597.44C768.209 1590.46 765.216 1588.38 765.901 1580.49C766.51 1573.27 769.63 1567.53 772.369 1563.65C778.812 1560.74 784.215 1556.85 790.429 1554.01C781.856 1565.1 779.953 1574.1 779.928 1580.49V1580.47Z" fill="#F8B4C1"/>
<path d="M819.498 1578.36C819.574 1586.58 823.227 1590.21 821.755 1599.34C820.436 1607.56 816.784 1609.16 814.983 1616.46C813.867 1621.03 813.537 1627.45 816.733 1636.04C805.978 1637.92 803.822 1640.84 795.299 1641.4C791.697 1629.85 792.915 1621.97 794.792 1616.79C797.658 1608.9 802.199 1606.9 803.518 1598.53C804.887 1589.73 800.778 1585.9 800.22 1578.03C799.763 1571.69 801.615 1562.49 812.446 1550.51C819.092 1551.4 823.201 1554.06 827.006 1557.16C820.741 1566.04 819.422 1573.22 819.498 1578.36Z" fill="#F8B4C1"/>
<path d="M857.595 1620.19C856.581 1624.58 856.454 1630.84 860.208 1639.37C853.233 1638.25 847.931 1636.42 841.235 1635.43C839.028 1628.51 839.079 1623.03 839.687 1619.05C840.93 1610.7 844.558 1608.95 845.166 1599.67C845.75 1590.74 842.63 1588.18 843.213 1579.81C843.492 1575.62 844.583 1571.95 845.902 1568.85C847.83 1569.41 849.96 1569.87 852.319 1570.2C855.49 1570.65 858.509 1570.78 861.4 1570.7C860.081 1573.87 859.219 1577.4 859.346 1581.25C859.701 1590.61 865.586 1593.48 865.002 1602.43C864.47 1610.45 859.473 1611.92 857.57 1620.19H857.595Z" fill="#F8B4C1"/>
<path d="M904.597 1635.21C899.194 1636.96 893.309 1638.25 887.475 1639.11H887.45C883.239 1631.5 882.554 1625.39 882.808 1621C883.341 1611.34 888.54 1608.57 887.805 1598.86C887.095 1589.83 882.275 1587.9 881.666 1579.33C881.311 1574.23 882.656 1569.59 884.533 1565.73C890.189 1563.75 895.465 1561.73 900.64 1560.79C898.56 1565.45 896.987 1571.44 898.408 1577.68C900.412 1586.48 906.575 1588.13 907.336 1596.3C908.148 1604.97 901.68 1607.89 900.412 1617.3C899.803 1621.74 900.335 1627.67 904.622 1635.23L904.597 1635.21Z" fill="#F8B4C1"/>
<path d="M746.548 1611.79L746.041 1614.28C739.827 1612.94 733.84 1610.22 728.793 1606.42C726.484 1604.67 724.379 1602.69 722.502 1600.56C722.73 1599.87 722.908 1599.14 723.06 1598.35C723.136 1598 723.187 1597.69 723.187 1597.44C725.267 1600.05 727.677 1602.36 730.34 1604.39C735.083 1607.99 740.714 1610.55 746.548 1611.79Z" fill="#A67A81"/>
<path d="M928.59 1589.47C928.235 1590.29 927.855 1591.15 927.525 1592.06C923.644 1587.93 918.266 1583.64 910.987 1580.72C904.366 1578.06 897.061 1576.97 889.806 1577.58L889.604 1575.04C897.213 1574.41 904.924 1575.55 911.925 1578.36C919.104 1581.23 924.582 1585.36 928.59 1589.47Z" fill="#A67A81"/>
<path d="M928.617 1589.04C928.617 1589.04 928.516 1589.24 928.49 1589.37C928.516 1589.4 928.592 1589.47 928.617 1589.5C928.237 1590.28 927.882 1591.15 927.526 1592.08C927.501 1592.06 927.45 1591.98 927.4 1591.96C926.512 1594.47 925.7 1597.44 925.421 1601.14C924.66 1610.98 928.49 1612.45 927.247 1618.03C925.497 1625.74 916.188 1631.5 904.596 1635.23C899.168 1636.98 893.308 1638.3 887.474 1639.16H887.449C883.467 1639.69 879.535 1640.05 875.781 1640.2C869.44 1640.45 864.493 1640.05 860.207 1639.41C853.231 1638.3 847.93 1636.45 841.208 1635.46C836.211 1634.72 830.428 1634.47 822.59 1635.25C820.357 1635.48 818.404 1635.76 816.705 1636.09C805.975 1637.94 803.794 1640.86 795.296 1641.44C793.977 1641.47 792.582 1641.52 790.959 1641.47C782.284 1641.27 776.196 1639.39 770.337 1637.03C765.72 1635.28 761.231 1633.25 755.65 1631.55C752.251 1630.54 748.345 1629.6 743.805 1629.02C742.08 1628.79 740.33 1628.61 738.605 1628.51C734.039 1628.18 729.524 1628.25 725.034 1628.71C720.139 1629.12 715.294 1629.95 710.525 1631.17C709.916 1625.92 710.627 1621.61 711.692 1618.26C714.584 1609.51 720.189 1607.43 722.472 1600.12C722.701 1599.41 722.878 1598.68 723.005 1597.92C723.106 1597.54 723.132 1597.26 723.132 1597C723.284 1595.56 722.878 1594.62 722.675 1585.77C722.422 1575.29 722.345 1569.99 723.766 1568.11C726.505 1564.46 732.314 1565.27 739.442 1566.36C742.689 1566.87 746.189 1567.45 749.816 1567.68C750.349 1567.71 750.932 1567.76 751.44 1567.78C760.115 1568.11 766.634 1566.29 772.315 1563.7C778.784 1560.76 784.161 1556.88 790.376 1554.04C795.398 1551.7 801.029 1550.08 808.157 1550.26C809.653 1550.28 811.099 1550.41 812.393 1550.59C819.064 1551.47 823.122 1554.11 826.952 1557.26C832.026 1561.39 836.541 1566.31 845.85 1568.95C847.803 1569.48 849.908 1569.97 852.293 1570.3C855.438 1570.75 858.482 1570.88 861.373 1570.8C870.048 1570.55 877.557 1568.22 884.481 1565.81C890.163 1563.85 895.414 1561.82 900.614 1560.86C906.6 1559.74 912.51 1560.02 918.801 1563.4C921.287 1564.74 929.759 1569.26 931.281 1577.19C932.143 1581.63 930.418 1584.83 928.566 1589.12L928.617 1589.04Z" stroke="#F8B2B3" stroke-miterlimit="10"/>
<path d="M1082.41 1607.81L1085.28 1678C1085.58 1685.4 1090.81 1691.69 1098.06 1693.32L1211.55 1718.96C1263.55 1731.87 1306.04 1720.89 1314.94 1699.15C1319.66 1687.66 1315.6 1671.78 1314.89 1669.02C1314.13 1666.1 1313.21 1663.39 1312.1 1660.82C1311.67 1659.66 1311.13 1658.52 1310.6 1657.43C1304.95 1645.86 1296.47 1637.95 1289.47 1631.55C1281.2 1623.99 1249.95 1595.43 1207.67 1597.11C1182.76 1598.1 1178.8 1608.6 1148.69 1613.04C1139.36 1614.41 1130.48 1614.76 1122.24 1614.43C1121.22 1614.43 1120.23 1614.38 1119.24 1614.31C1104.68 1613.47 1092.08 1610.63 1082.44 1607.79L1082.41 1607.81Z" fill="#F6F6F6"/>
<path d="M1119.22 1614.33C1127.26 1629.24 1141.82 1648.93 1166.58 1661.91C1175.3 1666.45 1191.61 1675 1210.74 1675C1215.38 1675 1220.23 1674.5 1225.15 1673.28C1234.38 1671.05 1239.55 1667.42 1244.6 1663.89C1249.12 1660.72 1253.73 1657.5 1261.39 1655.19C1276.36 1650.65 1293.38 1652.58 1312.05 1660.85C1311.62 1659.68 1311.08 1658.54 1310.55 1657.45C1292.29 1649.87 1275.52 1648.27 1260.63 1652.76C1252.59 1655.19 1247.77 1658.54 1243.13 1661.81C1238.08 1665.36 1233.29 1668.69 1224.54 1670.82C1200.31 1676.7 1178.3 1665.21 1167.72 1659.66C1144.23 1647.38 1130.13 1628.91 1122.16 1614.46C1121.15 1614.46 1120.16 1614.41 1119.17 1614.33H1119.22Z" fill="#231F20"/>
<path d="M1071.4 1589.02C1071.76 1589.83 1072.14 1590.69 1072.47 1591.6C1073.43 1594.22 1074.3 1597.24 1074.6 1601.12C1075.36 1610.96 1071.5 1612.43 1072.77 1618.01C1074.52 1625.69 1083.83 1631.48 1095.4 1635.21C1100.8 1636.96 1106.69 1638.25 1112.52 1639.11H1112.55C1116.53 1639.67 1120.43 1640.03 1124.21 1640.18C1130.53 1640.43 1135.5 1640.03 1139.79 1639.37C1146.76 1638.25 1152.07 1636.42 1158.76 1635.43C1163.76 1634.7 1169.54 1634.42 1177.38 1635.23C1179.61 1635.46 1181.57 1635.74 1183.26 1636.04C1194.02 1637.92 1196.18 1640.84 1204.7 1641.4C1205.99 1641.45 1207.41 1641.47 1209.04 1641.45C1217.71 1641.24 1223.77 1639.34 1229.66 1637.01C1234.27 1635.23 1238.76 1633.18 1244.32 1631.53C1247.77 1630.49 1251.62 1629.58 1256.19 1628.97C1257.92 1628.74 1259.67 1628.56 1261.37 1628.46C1265.96 1628.13 1270.47 1628.21 1274.96 1628.64C1279.86 1629.07 1284.73 1629.91 1289.44 1631.12C1290.05 1625.85 1289.37 1621.56 1288.25 1618.19C1285.36 1609.44 1279.76 1607.36 1277.5 1600.05C1277.27 1599.37 1277.09 1598.63 1276.94 1597.84C1276.86 1597.49 1276.81 1597.18 1276.81 1596.93C1276.66 1595.49 1277.07 1594.55 1277.27 1585.67C1277.52 1575.19 1277.6 1569.92 1276.18 1568.02C1273.44 1564.36 1267.63 1565.17 1260.53 1566.26C1257.26 1566.8 1253.76 1567.36 1250.13 1567.58C1249.57 1567.58 1249.01 1567.66 1248.48 1567.69C1239.83 1567.99 1233.31 1566.16 1227.6 1563.58C1221.16 1560.66 1215.76 1556.78 1209.54 1553.94C1204.52 1551.6 1198.92 1549.98 1191.79 1550.13C1190.27 1550.13 1188.85 1550.29 1187.53 1550.46C1180.88 1551.35 1176.77 1554.01 1172.97 1557.11C1167.92 1561.24 1163.38 1566.14 1154.07 1568.8C1152.14 1569.36 1150.01 1569.82 1147.65 1570.15C1144.48 1570.6 1141.46 1570.73 1138.57 1570.65C1129.9 1570.4 1122.39 1568.07 1115.49 1565.68C1109.83 1563.7 1104.56 1561.67 1099.38 1560.74C1093.4 1559.62 1087.46 1559.9 1081.17 1563.3C1078.68 1564.64 1070.21 1569.16 1068.66 1577.07C1067.8 1581.53 1069.55 1584.73 1071.4 1588.99V1589.02Z" fill="#E8C2C6"/>
<path d="M1249.47 1598.66C1251.55 1606.49 1258.47 1606.87 1261.42 1615.02C1263.14 1619.79 1262.53 1624.6 1261.39 1628.49C1265.98 1628.16 1270.5 1628.23 1274.99 1628.66C1276.26 1625.37 1277.19 1621.08 1275.98 1616.64C1273.41 1607.56 1264.36 1607.43 1261.75 1598.4C1259.95 1592.24 1263.57 1590.11 1262.91 1578.87C1262.58 1573.47 1261.47 1569.08 1260.58 1566.29C1257.31 1566.82 1253.81 1567.38 1250.18 1567.61C1249.62 1567.61 1249.06 1567.69 1248.53 1567.71C1249.95 1570.98 1251.27 1575.27 1251.42 1580.32C1251.75 1589.7 1247.77 1592.21 1249.5 1598.66H1249.47Z" fill="#F8B4C1"/>
<path d="M1220.07 1580.47C1220.07 1587.01 1218.12 1591.02 1220.07 1598.71C1222.15 1606.95 1226.06 1608.9 1228.8 1615.98C1230.57 1620.55 1231.87 1627.37 1229.66 1637.03C1234.28 1635.26 1238.77 1633.2 1244.32 1631.55C1245.49 1624.78 1244.57 1619.84 1243.48 1616.49C1240.49 1607.48 1234.83 1606.29 1233.13 1597.44C1231.79 1590.46 1234.78 1588.38 1234.1 1580.49C1233.49 1573.27 1230.37 1567.53 1227.63 1563.65C1221.19 1560.74 1215.78 1556.85 1209.57 1554.01C1218.14 1565.1 1220.05 1574.1 1220.07 1580.49V1580.47Z" fill="#F8B4C1"/>
<path d="M1180.5 1578.36C1180.42 1586.58 1176.77 1590.21 1178.24 1599.34C1179.56 1607.56 1183.21 1609.16 1185.02 1616.46C1186.13 1621.03 1186.46 1627.45 1183.27 1636.04C1194.02 1637.92 1196.18 1640.84 1204.7 1641.4C1208.3 1629.85 1207.08 1621.97 1205.21 1616.79C1202.34 1608.9 1197.8 1606.9 1196.48 1598.53C1195.11 1589.73 1199.22 1585.9 1199.78 1578.03C1200.23 1571.69 1198.38 1562.49 1187.55 1550.51C1180.91 1551.4 1176.8 1554.06 1172.99 1557.16C1179.26 1566.04 1180.58 1573.22 1180.5 1578.36Z" fill="#F8B4C1"/>
<path d="M1142.43 1620.19C1143.44 1624.58 1143.57 1630.84 1139.82 1639.37C1146.79 1638.25 1152.09 1636.42 1158.79 1635.43C1161 1628.51 1160.94 1623.03 1160.34 1619.05C1159.09 1610.7 1155.47 1608.95 1154.86 1599.67C1154.27 1590.74 1157.39 1588.18 1156.81 1579.81C1156.53 1575.62 1155.44 1571.95 1154.12 1568.85C1152.19 1569.41 1150.06 1569.87 1147.7 1570.2C1144.53 1570.65 1141.51 1570.78 1138.62 1570.7C1139.94 1573.87 1140.8 1577.4 1140.68 1581.25C1140.32 1590.61 1134.44 1593.48 1135.02 1602.43C1135.55 1610.45 1140.55 1611.92 1142.45 1620.19H1142.43Z" fill="#F8B4C1"/>
<path d="M1095.42 1635.21C1100.83 1636.96 1106.71 1638.25 1112.54 1639.11H1112.57C1116.78 1631.5 1117.47 1625.39 1117.21 1621C1116.68 1611.34 1111.48 1608.57 1112.21 1598.86C1112.93 1589.83 1117.74 1587.9 1118.35 1579.33C1118.71 1574.23 1117.36 1569.59 1115.49 1565.73C1109.83 1563.75 1104.55 1561.73 1099.38 1560.79C1101.46 1565.45 1103.03 1571.44 1101.61 1577.68C1099.61 1586.48 1093.44 1588.13 1092.68 1596.3C1091.87 1604.97 1098.34 1607.89 1099.61 1617.3C1100.22 1621.74 1099.68 1627.67 1095.4 1635.23L1095.42 1635.21Z" fill="#F8B4C1"/>
<path d="M1253.45 1611.79L1253.96 1614.28C1260.17 1612.94 1266.16 1610.22 1271.21 1606.42C1273.52 1604.67 1275.62 1602.69 1277.5 1600.56C1277.27 1599.87 1277.09 1599.14 1276.94 1598.35C1276.86 1598 1276.81 1597.69 1276.81 1597.44C1274.73 1600.05 1272.32 1602.36 1269.66 1604.39C1264.92 1607.99 1259.29 1610.55 1253.45 1611.79Z" fill="#A67A81"/>
<path d="M1071.4 1589.47C1071.76 1590.29 1072.14 1591.15 1072.47 1592.06C1076.35 1587.93 1081.73 1583.64 1089.01 1580.72C1095.63 1578.06 1102.93 1576.97 1110.19 1577.58L1110.39 1575.04C1102.78 1574.41 1095.07 1575.55 1088.07 1578.36C1080.89 1581.23 1075.41 1585.36 1071.4 1589.47Z" fill="#A67A81"/>
<path d="M1082.41 1607.81L1085.28 1678C1085.58 1685.4 1090.81 1691.69 1098.06 1693.32L1211.55 1718.96C1263.55 1731.87 1306.04 1720.89 1314.94 1699.15C1319.66 1687.66 1315.6 1671.78 1314.89 1669.02C1314.13 1666.1 1313.21 1663.39 1312.1 1660.82C1311.67 1659.66 1311.13 1658.52 1310.6 1657.43C1304.95 1645.86 1296.47 1637.95 1289.47 1631.55C1281.2 1623.99 1249.95 1595.43 1207.67 1597.11C1182.76 1598.1 1178.8 1608.6 1148.69 1613.04C1139.36 1614.41 1130.48 1614.76 1122.24 1614.43C1121.22 1614.43 1120.23 1614.38 1119.24 1614.31C1104.68 1613.47 1092.08 1610.63 1082.44 1607.79L1082.41 1607.81Z" fill="#F6F6F6"/>
<path d="M1119.22 1614.33C1127.26 1629.24 1141.82 1648.93 1166.58 1661.91C1175.3 1666.45 1191.61 1675 1210.74 1675C1215.38 1675 1220.23 1674.5 1225.15 1673.28C1234.38 1671.05 1239.55 1667.42 1244.6 1663.89C1249.12 1660.72 1253.73 1657.5 1261.39 1655.19C1276.36 1650.65 1293.38 1652.58 1312.05 1660.85C1311.62 1659.68 1311.08 1658.54 1310.55 1657.45C1292.29 1649.87 1275.52 1648.27 1260.63 1652.76C1252.59 1655.19 1247.77 1658.54 1243.13 1661.81C1238.08 1665.36 1233.29 1668.69 1224.54 1670.82C1200.31 1676.7 1178.3 1665.21 1167.72 1659.66C1144.23 1647.38 1130.13 1628.91 1122.16 1614.46C1121.15 1614.46 1120.16 1614.41 1119.17 1614.33H1119.22Z" fill="#231F20"/>
<path d="M1082.41 1607.84L1085.26 1678.02C1085.58 1685.4 1090.81 1691.72 1098.04 1693.34L1211.52 1718.99C1263.52 1731.9 1305.99 1720.89 1314.89 1699.18C1319.63 1687.71 1315.55 1671.81 1314.86 1669.07C1314.1 1666.13 1313.21 1663.44 1312.1 1660.85C1311.64 1659.71 1311.11 1658.57 1310.6 1657.48C1304.92 1645.91 1296.45 1638.02 1289.47 1631.6C1281.18 1624.02 1249.95 1595.48 1207.64 1597.13C1182.73 1598.12 1178.8 1608.62 1148.67 1613.09C1139.33 1614.46 1130.46 1614.81 1122.21 1614.46C1121.2 1614.46 1120.21 1614.43 1119.22 1614.33C1104.66 1613.49 1092.05 1610.68 1082.41 1607.84Z" stroke="#8F8F8F" stroke-miterlimit="10"/>
<path d="M1071.4 1589.02C1071.76 1589.83 1072.14 1590.69 1072.47 1591.6C1073.43 1594.22 1074.3 1597.24 1074.6 1601.12C1075.36 1610.96 1071.5 1612.43 1072.77 1618.01C1074.52 1625.69 1083.83 1631.48 1095.4 1635.21C1100.8 1636.96 1106.69 1638.25 1112.52 1639.11H1112.55C1116.53 1639.67 1120.43 1640.03 1124.21 1640.18C1130.53 1640.43 1135.5 1640.03 1139.79 1639.37C1146.76 1638.25 1152.07 1636.42 1158.76 1635.43C1163.76 1634.7 1169.54 1634.42 1177.38 1635.23C1179.61 1635.46 1181.57 1635.74 1183.26 1636.04C1194.02 1637.92 1196.18 1640.84 1204.7 1641.4C1205.99 1641.45 1207.41 1641.47 1209.04 1641.45C1217.71 1641.24 1223.77 1639.34 1229.66 1637.01C1234.27 1635.23 1238.76 1633.18 1244.32 1631.53C1247.77 1630.49 1251.62 1629.58 1256.19 1628.97C1257.92 1628.74 1259.67 1628.56 1261.37 1628.46C1265.96 1628.13 1270.47 1628.21 1274.96 1628.64C1279.86 1629.07 1284.73 1629.91 1289.44 1631.12C1290.05 1625.85 1289.37 1621.56 1288.25 1618.19C1285.36 1609.44 1279.76 1607.36 1277.5 1600.05C1277.27 1599.37 1277.09 1598.63 1276.94 1597.84C1276.86 1597.49 1276.81 1597.18 1276.81 1596.93C1276.66 1595.49 1277.07 1594.55 1277.27 1585.67C1277.52 1575.19 1277.6 1569.92 1276.18 1568.02C1273.44 1564.36 1267.63 1565.17 1260.53 1566.26C1257.26 1566.8 1253.76 1567.36 1250.13 1567.58C1249.57 1567.58 1249.01 1567.66 1248.48 1567.69C1239.83 1567.99 1233.31 1566.16 1227.6 1563.58C1221.16 1560.66 1215.76 1556.78 1209.54 1553.94C1204.52 1551.6 1198.92 1549.98 1191.79 1550.13C1190.27 1550.13 1188.85 1550.29 1187.53 1550.46C1180.88 1551.35 1176.77 1554.01 1172.97 1557.11C1167.92 1561.24 1163.38 1566.14 1154.07 1568.8C1152.14 1569.36 1150.01 1569.82 1147.65 1570.15C1144.48 1570.6 1141.46 1570.73 1138.57 1570.65C1129.9 1570.4 1122.39 1568.07 1115.49 1565.68C1109.83 1563.7 1104.56 1561.67 1099.38 1560.74C1093.4 1559.62 1087.46 1559.9 1081.17 1563.3C1078.68 1564.64 1070.21 1569.16 1068.66 1577.07C1067.8 1581.53 1069.55 1584.73 1071.4 1588.99V1589.02Z" fill="#E8C2C6"/>
<path d="M1249.47 1598.66C1251.55 1606.49 1258.47 1606.87 1261.42 1615.02C1263.14 1619.79 1262.53 1624.6 1261.39 1628.49C1265.98 1628.16 1270.5 1628.23 1274.99 1628.66C1276.26 1625.37 1277.19 1621.08 1275.98 1616.64C1273.41 1607.56 1264.36 1607.43 1261.75 1598.4C1259.95 1592.24 1263.57 1590.11 1262.91 1578.87C1262.58 1573.47 1261.47 1569.08 1260.58 1566.29C1257.31 1566.82 1253.81 1567.38 1250.18 1567.61C1249.62 1567.61 1249.06 1567.69 1248.53 1567.71C1249.95 1570.98 1251.27 1575.27 1251.42 1580.32C1251.75 1589.7 1247.77 1592.21 1249.5 1598.66H1249.47Z" fill="#F8B4C1"/>
<path d="M1220.07 1580.47C1220.07 1587.01 1218.12 1591.02 1220.07 1598.71C1222.15 1606.95 1226.06 1608.9 1228.8 1615.98C1230.57 1620.55 1231.87 1627.37 1229.66 1637.03C1234.28 1635.26 1238.77 1633.2 1244.32 1631.55C1245.49 1624.78 1244.57 1619.84 1243.48 1616.49C1240.49 1607.48 1234.83 1606.29 1233.13 1597.44C1231.79 1590.46 1234.78 1588.38 1234.1 1580.49C1233.49 1573.27 1230.37 1567.53 1227.63 1563.65C1221.19 1560.74 1215.78 1556.85 1209.57 1554.01C1218.14 1565.1 1220.05 1574.1 1220.07 1580.49V1580.47Z" fill="#F8B4C1"/>
<path d="M1180.5 1578.36C1180.42 1586.58 1176.77 1590.21 1178.24 1599.34C1179.56 1607.56 1183.21 1609.16 1185.02 1616.46C1186.13 1621.03 1186.46 1627.45 1183.27 1636.04C1194.02 1637.92 1196.18 1640.84 1204.7 1641.4C1208.3 1629.85 1207.08 1621.97 1205.21 1616.79C1202.34 1608.9 1197.8 1606.9 1196.48 1598.53C1195.11 1589.73 1199.22 1585.9 1199.78 1578.03C1200.23 1571.69 1198.38 1562.49 1187.55 1550.51C1180.91 1551.4 1176.8 1554.06 1172.99 1557.16C1179.26 1566.04 1180.58 1573.22 1180.5 1578.36Z" fill="#F8B4C1"/>
<path d="M1142.43 1620.19C1143.44 1624.58 1143.57 1630.84 1139.82 1639.37C1146.79 1638.25 1152.09 1636.42 1158.79 1635.43C1161 1628.51 1160.94 1623.03 1160.34 1619.05C1159.09 1610.7 1155.47 1608.95 1154.86 1599.67C1154.27 1590.74 1157.39 1588.18 1156.81 1579.81C1156.53 1575.62 1155.44 1571.95 1154.12 1568.85C1152.19 1569.41 1150.06 1569.87 1147.7 1570.2C1144.53 1570.65 1141.51 1570.78 1138.62 1570.7C1139.94 1573.87 1140.8 1577.4 1140.68 1581.25C1140.32 1590.61 1134.44 1593.48 1135.02 1602.43C1135.55 1610.45 1140.55 1611.92 1142.45 1620.19H1142.43Z" fill="#F8B4C1"/>
<path d="M1095.42 1635.21C1100.83 1636.96 1106.71 1638.25 1112.54 1639.11H1112.57C1116.78 1631.5 1117.47 1625.39 1117.21 1621C1116.68 1611.34 1111.48 1608.57 1112.21 1598.86C1112.93 1589.83 1117.74 1587.9 1118.35 1579.33C1118.71 1574.23 1117.36 1569.59 1115.49 1565.73C1109.83 1563.75 1104.55 1561.73 1099.38 1560.79C1101.46 1565.45 1103.03 1571.44 1101.61 1577.68C1099.61 1586.48 1093.44 1588.13 1092.68 1596.3C1091.87 1604.97 1098.34 1607.89 1099.61 1617.3C1100.22 1621.74 1099.68 1627.67 1095.4 1635.23L1095.42 1635.21Z" fill="#F8B4C1"/>
<path d="M1253.45 1611.79L1253.96 1614.28C1260.17 1612.94 1266.16 1610.22 1271.21 1606.42C1273.52 1604.67 1275.62 1602.69 1277.5 1600.56C1277.27 1599.87 1277.09 1599.14 1276.94 1598.35C1276.86 1598 1276.81 1597.69 1276.81 1597.44C1274.73 1600.05 1272.32 1602.36 1269.66 1604.39C1264.92 1607.99 1259.29 1610.55 1253.45 1611.79Z" fill="#A67A81"/>
<path d="M1071.4 1589.47C1071.76 1590.29 1072.14 1591.15 1072.47 1592.06C1076.35 1587.93 1081.73 1583.64 1089.01 1580.72C1095.63 1578.06 1102.93 1576.97 1110.19 1577.58L1110.39 1575.04C1102.78 1574.41 1095.07 1575.55 1088.07 1578.36C1080.89 1581.23 1075.41 1585.36 1071.4 1589.47Z" fill="#A67A81"/>
<path d="M1071.4 1589.04C1071.4 1589.04 1071.51 1589.24 1071.53 1589.37C1071.51 1589.4 1071.43 1589.47 1071.4 1589.5C1071.78 1590.28 1072.14 1591.15 1072.49 1592.08C1072.52 1592.06 1072.57 1591.98 1072.62 1591.96C1073.51 1594.47 1074.32 1597.44 1074.6 1601.14C1075.36 1610.98 1071.53 1612.45 1072.77 1618.03C1074.52 1625.74 1083.83 1631.5 1095.42 1635.23C1100.85 1636.98 1106.71 1638.3 1112.55 1639.16H1112.57C1116.55 1639.69 1120.49 1640.05 1124.24 1640.2C1130.58 1640.45 1135.53 1640.05 1139.81 1639.41C1146.79 1638.3 1152.09 1636.45 1158.81 1635.46C1163.81 1634.72 1169.59 1634.47 1177.43 1635.25C1179.66 1635.48 1181.62 1635.76 1183.32 1636.09C1194.05 1637.94 1196.23 1640.86 1204.72 1641.44C1206.04 1641.47 1207.44 1641.52 1209.06 1641.47C1217.74 1641.27 1223.82 1639.39 1229.68 1637.03C1234.3 1635.28 1238.79 1633.25 1244.37 1631.55C1247.77 1630.54 1251.68 1629.6 1256.22 1629.02C1257.94 1628.79 1259.69 1628.61 1261.42 1628.51C1265.98 1628.18 1270.5 1628.25 1274.99 1628.71C1279.88 1629.12 1284.73 1629.95 1289.5 1631.17C1290.1 1625.92 1289.39 1621.61 1288.33 1618.26C1285.44 1609.51 1279.83 1607.43 1277.55 1600.12C1277.32 1599.41 1277.14 1598.68 1277.02 1597.92C1276.91 1597.54 1276.89 1597.26 1276.89 1597C1276.74 1595.56 1277.14 1594.62 1277.35 1585.77C1277.6 1575.29 1277.68 1569.99 1276.25 1568.11C1273.52 1564.46 1267.71 1565.27 1260.58 1566.36C1257.33 1566.87 1253.83 1567.45 1250.2 1567.68C1249.67 1567.71 1249.09 1567.76 1248.58 1567.78C1239.91 1568.11 1233.39 1566.29 1227.71 1563.7C1221.24 1560.76 1215.86 1556.88 1209.65 1554.04C1204.62 1551.7 1198.99 1550.08 1191.86 1550.26C1190.37 1550.28 1188.92 1550.41 1187.63 1550.59C1180.96 1551.47 1176.9 1554.11 1173.07 1557.26C1168 1561.39 1163.48 1566.31 1154.17 1568.95C1152.22 1569.48 1150.11 1569.97 1147.73 1570.3C1144.58 1570.75 1141.54 1570.88 1138.65 1570.8C1129.97 1570.55 1122.46 1568.22 1115.54 1565.81C1109.86 1563.85 1104.61 1561.82 1099.41 1560.86C1093.42 1559.74 1087.51 1560.02 1081.22 1563.4C1078.73 1564.74 1070.26 1569.26 1068.74 1577.19C1067.88 1581.63 1069.6 1584.83 1071.45 1589.12L1071.4 1589.04Z" stroke="#F8B2B3" stroke-miterlimit="10"/>
</svg>
