<svg width="2000" height="2000" viewBox="0 0 2000 2000" fill="none" xmlns="http://www.w3.org/2000/svg">
<path d="M645.385 1698.4C642.971 1706.2 640.001 1720.31 646.661 1732.7C652.694 1743.93 665.062 1751.56 694.554 1756.06C750.522 1764.6 804.518 1756.37 855.102 1743.21C869.512 1739.47 882.019 1735.74 891.997 1732.58C900.977 1729.73 907.358 1721.77 908.193 1712.37L911.65 1672.97C822.895 1681.44 734.14 1689.91 645.385 1698.38V1698.4Z" fill="#FBE9AB"/>
<path d="M912.093 1559.86V1665.64C912.093 1695.11 891.302 1720.42 862.39 1726.22C818.72 1734.99 757.16 1745.04 711.866 1742.98C710.241 1742.91 708.617 1742.81 707.039 1742.7C688.313 1741.45 672.72 1737.9 662.928 1731.05C657.986 1727.62 645.502 1718.89 644.528 1706.06C644.04 1699.54 646.616 1693.48 651.025 1687.71C651.025 1687.66 651.071 1687.64 651.094 1687.61C653.159 1686.04 656.269 1683.67 660.074 1680.7C661.374 1679.68 662.743 1678.61 664.205 1677.45C665.411 1676.48 666.548 1675.59 667.592 1674.81C665.945 1675.01 664.321 1675.34 662.743 1675.76C667.105 1672 671.908 1668.33 676.711 1664.69C689.242 1655.17 709.592 1642.02 738.782 1632.51L732.471 1559.86L735.325 1559.93C736.299 1559.97 737.506 1559.99 738.921 1560.04C739.664 1560.04 740.476 1560.09 741.358 1560.11C742.657 1560.16 744.073 1560.2 745.627 1560.23L754.259 1560.46C755.512 1560.51 756.858 1560.53 758.204 1560.57L764.539 1560.74C770.2 1560.88 776.373 1561.02 782.916 1561.15H783.264C835.914 1562.29 910.793 1563.31 912.07 1559.88L912.093 1559.86Z" fill="#DB8627"/>
<path d="M718.687 1719.19C718.687 1727.01 716.692 1734.37 713.141 1740.75C712.747 1740.75 712.352 1740.75 711.981 1740.7C689.729 1739.66 673.695 1735.81 664.227 1729.19C658.844 1725.44 648.333 1718.27 646.801 1705.88C645.78 1697.78 649.075 1691.07 651.047 1687.71C651.047 1687.66 651.094 1687.64 651.117 1687.61C654.25 1683.51 658.31 1679.61 662.789 1675.76C664.367 1675.36 665.991 1675.01 667.638 1674.81C669.657 1674.48 671.769 1674.37 673.88 1674.37C698.639 1674.37 718.71 1694.41 718.71 1719.19H718.687Z" fill="#FBE9AB"/>
<path d="M766.163 1560.76L766.047 1562.99L763.634 1616.01C762.868 1632.85 754.282 1648.38 740.406 1657.96L710.334 1678.75C705.043 1682.39 698.616 1684.11 692.212 1683.55C680.842 1682.35 669.472 1681.16 658.125 1679.96C659.68 1678.56 661.234 1677.17 662.766 1675.76C668.892 1670.23 674.066 1666.61 676.735 1664.69C684.81 1658.82 699.707 1647.98 719.152 1633.97C724.604 1630.05 728.039 1623.87 728.503 1617.17C729.825 1598.07 731.148 1578.98 732.471 1559.86L735.325 1559.93L738.921 1560.04L741.358 1560.11L745.627 1560.23L754.259 1560.46L758.204 1560.57C760.849 1560.64 763.494 1560.71 766.14 1560.78L766.163 1560.76Z" fill="#E8992E"/>
<path d="M912.093 1559.86V1665.64C912.093 1695.11 891.302 1720.42 862.39 1726.22C818.72 1734.99 757.16 1745.04 711.865 1742.98C710.241 1742.91 708.617 1742.81 707.039 1742.7V1709.4C707.039 1704.13 709.568 1699.19 713.861 1696.13L755.559 1666.22C768.53 1656.92 776.721 1642.37 777.927 1626.45L782.916 1561.13H783.264C835.914 1562.27 910.793 1563.29 912.07 1559.86H912.093Z" fill="#E8992E"/>
<path d="M726.252 1652.44L731.635 1690.17" stroke="white" stroke-width="2.38" stroke-miterlimit="10" stroke-linecap="round"/>
<path d="M700.98 1669.91L762.285 1672.6" stroke="white" stroke-width="2.38" stroke-miterlimit="10" stroke-linecap="round"/>
<path d="M743.885 1621.81L783.123 1648.79" stroke="white" stroke-width="2.38" stroke-miterlimit="10" stroke-linecap="round"/>
<path d="M738.523 1644.25L792.542 1629.67" stroke="white" stroke-width="2.38" stroke-miterlimit="10" stroke-linecap="round"/>
<path d="M728.246 1666.38L726.273 1652.44" stroke="white" stroke-width="2.38" stroke-miterlimit="10" stroke-linecap="round"/>
<path d="M762.288 1672.6L747.576 1671.95" stroke="white" stroke-width="2.38" stroke-miterlimit="10" stroke-linecap="round"/>
<path d="M721.818 1670.82L700.98 1669.91" stroke="white" stroke-width="2.38" stroke-miterlimit="10" stroke-linecap="round"/>
<path d="M783.122 1648.82L774.096 1642.6" stroke="white" stroke-width="2.38" stroke-miterlimit="10" stroke-linecap="round"/>
<path d="M760.058 1632.97L743.885 1621.81" stroke="white" stroke-width="2.38" stroke-miterlimit="10" stroke-linecap="round"/>
<path d="M912.092 1559.86V1665.62C912.092 1668.12 911.952 1670.58 911.628 1673C911.604 1673.27 911.581 1673.53 911.535 1673.78L908.17 1712.37C907.358 1721.75 900.977 1729.75 891.974 1732.58C882.019 1735.74 869.489 1739.47 855.103 1743.21C804.518 1756.36 750.499 1764.58 694.554 1756.06C665.039 1751.56 652.671 1743.93 646.638 1732.7C640.141 1720.61 642.809 1706.94 645.199 1699.03C645.246 1698.8 645.338 1698.61 645.408 1698.38C646.452 1694.67 648.448 1691.14 651.07 1687.68C651.07 1687.66 651.093 1687.64 651.116 1687.59C653.135 1684.99 655.502 1682.39 658.147 1679.91C658.402 1679.65 658.634 1679.45 658.89 1679.24C660.189 1678.08 661.488 1676.92 662.765 1675.76C668.914 1670.23 674.088 1666.59 676.733 1664.67C677.244 1664.29 677.754 1663.9 678.311 1663.51C679.866 1662.32 681.513 1661.12 683.3 1659.89C683.532 1659.72 683.764 1659.54 684.02 1659.37C692.535 1653.2 704.578 1644.46 719.15 1633.94C724.603 1630.02 728.014 1623.85 728.502 1617.17C729.801 1598.05 731.147 1578.95 732.469 1559.86L735.324 1559.9L738.92 1560.02L741.357 1560.11L745.603 1560.23L754.235 1560.44L758.179 1560.55C760.848 1560.64 763.493 1560.69 766.115 1560.78C771.336 1560.9 776.975 1561.02 782.869 1561.15H783.217C835.866 1562.32 910.769 1563.31 912.045 1559.88L912.092 1559.86Z" stroke="#DB8627" stroke-width="2.38" stroke-linecap="round" stroke-linejoin="round"/>
<path d="M1354.62 1698.4C1357.03 1706.2 1360 1720.31 1353.34 1732.7C1347.31 1743.93 1334.94 1751.56 1305.45 1756.06C1249.48 1764.6 1195.48 1756.37 1144.9 1743.21C1130.49 1739.47 1117.98 1735.74 1108 1732.58C1099.02 1729.73 1092.64 1721.77 1091.81 1712.37L1088.35 1672.97C1177.1 1681.44 1265.86 1689.91 1354.62 1698.38V1698.4Z" fill="#FBE9AB"/>
<path d="M1087.91 1559.86V1665.64C1087.91 1695.11 1108.7 1720.42 1137.61 1726.22C1181.28 1734.99 1242.84 1745.04 1288.14 1742.98C1289.76 1742.91 1291.39 1742.81 1292.96 1742.7C1311.69 1741.45 1327.28 1737.9 1337.07 1731.05C1342.02 1727.62 1354.5 1718.89 1355.48 1706.06C1355.96 1699.54 1353.39 1693.48 1348.98 1687.71C1348.98 1687.66 1348.93 1687.64 1348.91 1687.61C1346.84 1686.04 1343.73 1683.67 1339.93 1680.7C1338.63 1679.68 1337.26 1678.61 1335.8 1677.45C1334.59 1676.48 1333.45 1675.59 1332.41 1674.81C1334.06 1675.01 1335.68 1675.34 1337.26 1675.76C1332.9 1672 1328.09 1668.33 1323.29 1664.69C1310.76 1655.17 1290.41 1642.02 1261.22 1632.51L1267.53 1559.86L1264.68 1559.93C1263.7 1559.97 1262.5 1559.99 1261.08 1560.04C1260.34 1560.04 1259.53 1560.09 1258.65 1560.11C1257.35 1560.16 1255.93 1560.2 1254.38 1560.23L1245.74 1560.46C1244.49 1560.51 1243.14 1560.53 1241.8 1560.57L1235.46 1560.74C1229.8 1560.88 1223.63 1561.02 1217.09 1561.15H1216.74C1164.09 1562.29 1089.21 1563.31 1087.93 1559.88L1087.91 1559.86Z" fill="#DB8627"/>
<path d="M1281.31 1719.19C1281.31 1727.01 1283.31 1734.37 1286.86 1740.75C1287.25 1740.75 1287.65 1740.75 1288.02 1740.7C1310.27 1739.66 1326.31 1735.81 1335.77 1729.19C1341.16 1725.44 1351.67 1718.27 1353.2 1705.88C1354.22 1697.78 1350.93 1691.07 1348.95 1687.71C1348.95 1687.66 1348.91 1687.64 1348.88 1687.61C1345.75 1683.51 1341.69 1679.61 1337.21 1675.76C1335.63 1675.36 1334.01 1675.01 1332.36 1674.81C1330.34 1674.48 1328.23 1674.37 1326.12 1674.37C1301.36 1674.37 1281.29 1694.41 1281.29 1719.19H1281.31Z" fill="#FBE9AB"/>
<path d="M1233.84 1560.76L1233.96 1562.99L1236.37 1616.01C1237.14 1632.85 1245.72 1648.38 1259.6 1657.96L1289.67 1678.75C1294.96 1682.39 1301.39 1684.11 1307.79 1683.55C1319.16 1682.35 1330.53 1681.16 1341.88 1679.96C1340.32 1678.56 1338.77 1677.17 1337.24 1675.76C1331.11 1670.23 1325.94 1666.61 1323.27 1664.69C1315.2 1658.82 1300.3 1647.98 1280.85 1633.97C1275.4 1630.05 1271.97 1623.87 1271.5 1617.17C1270.18 1598.07 1268.86 1578.98 1267.53 1559.86L1264.68 1559.93L1261.08 1560.04L1258.65 1560.11L1254.38 1560.23L1245.75 1560.46L1241.8 1560.57L1233.86 1560.78L1233.84 1560.76Z" fill="#E8992E"/>
<path d="M1087.91 1559.86V1665.64C1087.91 1695.11 1108.7 1720.42 1137.61 1726.22C1181.28 1734.99 1242.84 1745.04 1288.14 1742.98C1289.76 1742.91 1291.39 1742.81 1292.96 1742.7V1709.4C1292.96 1704.13 1290.43 1699.19 1286.14 1696.13L1244.44 1666.22C1231.47 1656.92 1223.28 1642.37 1222.08 1626.45L1217.09 1561.13H1216.74C1164.09 1562.27 1089.21 1563.29 1087.93 1559.86H1087.91Z" fill="#E8992E"/>
<path d="M1273.73 1652.44L1268.37 1690.17" stroke="white" stroke-width="2.38" stroke-miterlimit="10" stroke-linecap="round"/>
<path d="M1299.02 1669.91L1237.71 1672.6" stroke="white" stroke-width="2.38" stroke-miterlimit="10" stroke-linecap="round"/>
<path d="M1256.12 1621.81L1216.88 1648.79" stroke="white" stroke-width="2.38" stroke-miterlimit="10" stroke-linecap="round"/>
<path d="M1261.48 1644.25L1207.43 1629.67" stroke="white" stroke-width="2.38" stroke-miterlimit="10" stroke-linecap="round"/>
<path d="M1273.73 1652.44L1271.73 1666.38" stroke="white" stroke-width="3" stroke-miterlimit="10" stroke-linecap="round"/>
<path d="M1252.42 1671.95L1237.71 1672.6" stroke="white" stroke-width="3" stroke-miterlimit="10" stroke-linecap="round"/>
<path d="M1299.02 1669.91L1278.18 1670.82" stroke="white" stroke-width="3" stroke-miterlimit="10" stroke-linecap="round"/>
<path d="M1225.88 1642.6L1216.88 1648.82" stroke="white" stroke-width="3" stroke-miterlimit="10" stroke-linecap="round"/>
<path d="M1256.12 1621.81L1239.92 1632.97" stroke="white" stroke-width="3" stroke-miterlimit="10" stroke-linecap="round"/>
<path d="M1087.91 1559.86V1665.62C1087.91 1668.12 1088.05 1670.58 1088.37 1673C1088.4 1673.27 1088.42 1673.53 1088.47 1673.78L1091.83 1712.37C1092.64 1721.75 1099.02 1729.75 1108.03 1732.58C1117.98 1735.74 1130.51 1739.47 1144.9 1743.21C1195.48 1756.36 1249.5 1764.58 1305.45 1756.06C1334.96 1751.56 1347.33 1743.93 1353.36 1732.7C1359.86 1720.61 1357.19 1706.94 1354.8 1699.03C1354.76 1698.8 1354.66 1698.61 1354.59 1698.38C1353.55 1694.67 1351.55 1691.14 1348.93 1687.68C1348.93 1687.66 1348.91 1687.64 1348.89 1687.59C1346.87 1684.99 1344.5 1682.39 1341.85 1679.91C1341.6 1679.65 1341.37 1679.45 1341.11 1679.24C1339.81 1678.08 1338.51 1676.92 1337.24 1675.76C1331.09 1670.23 1325.91 1666.59 1323.27 1664.67C1322.76 1664.29 1322.25 1663.9 1321.69 1663.51C1320.14 1662.32 1318.49 1661.12 1316.7 1659.89C1316.47 1659.72 1316.24 1659.54 1315.98 1659.37C1307.47 1653.2 1295.42 1644.46 1280.85 1633.94C1275.4 1630.02 1271.99 1623.85 1271.5 1617.17C1270.2 1598.05 1268.85 1578.95 1267.53 1559.86L1264.68 1559.9L1261.08 1560.02L1258.65 1560.11L1254.4 1560.23L1245.77 1560.44L1241.82 1560.55C1239.15 1560.64 1236.51 1560.69 1233.89 1560.78C1228.67 1560.9 1223.03 1561.02 1217.13 1561.15H1216.79C1164.14 1562.32 1089.23 1563.31 1087.96 1559.88L1087.91 1559.86Z" stroke="#DB8627" stroke-width="3" stroke-linecap="round" stroke-linejoin="round"/>
</svg>
