<svg width="2000" height="2000" viewBox="0 0 2000 2000" fill="none" xmlns="http://www.w3.org/2000/svg">
<path d="M676.211 1733.99C673.698 1738.05 672.582 1742.44 672.582 1742.44C671.49 1746.76 671.541 1750.77 671.998 1754.12C672.252 1755.98 673.724 1757.4 675.576 1757.52C700.677 1759.45 728.291 1760.19 758.011 1758.92C819.203 1756.28 872.248 1745.82 915.013 1733.84C916.612 1733.38 917.754 1731.96 917.856 1730.28C918.135 1725.46 918.44 1720.66 918.719 1715.84C906.079 1716.17 683.546 1722.11 676.211 1733.96V1733.99Z" fill="#333333" stroke="black" stroke-width="3" stroke-linecap="round" stroke-linejoin="round"/>
<path d="M727.25 1544.36C796.309 1545.45 865.369 1546.54 934.453 1547.64C929.225 1603.72 923.971 1659.8 918.743 1715.89C903.617 1720.66 887.627 1725.08 870.851 1728.93C796.385 1746.07 728.468 1747.24 672.606 1742.47C670.956 1735.71 668.748 1722.21 673.824 1706.97C684.027 1676.41 714.636 1665.92 718.493 1664.68C721.412 1624.56 724.331 1584.47 727.25 1544.36Z" fill="#191919" stroke="black" stroke-width="3" stroke-linecap="round" stroke-linejoin="round"/>
<path d="M721.311 1544.26V1561.02L936.458 1565.33C937.169 1559.49 937.854 1553.63 938.565 1547.79C866.155 1546.62 793.746 1545.45 721.311 1544.29V1544.26Z" fill="#191919" stroke="black" stroke-width="3" stroke-linecap="round" stroke-linejoin="round"/>
<path d="M721.311 1560.99V1577.19L936.458 1581.5V1565.31C864.734 1563.86 793.035 1562.44 721.311 1560.99Z" fill="#191919" stroke="black" stroke-width="3" stroke-linecap="round" stroke-linejoin="round"/>
<path d="M815.928 1579.12C811.462 1608.44 807.02 1637.74 802.553 1667.06C792.198 1663.92 777.782 1660.69 760.371 1660.23C742.91 1659.78 728.316 1662.29 717.809 1664.88C720.144 1635.68 722.479 1606.46 724.814 1577.27C755.194 1577.87 785.548 1578.48 815.928 1579.09V1579.12Z" fill="#676767" stroke="black" stroke-width="3" stroke-linecap="round" stroke-linejoin="round"/>
<path d="M724.812 1577.29L808.542 1627.64" stroke="black" stroke-width="3" stroke-linecap="round" stroke-linejoin="round"/>
<path d="M721.236 1622.18L802.554 1667.06" stroke="black" stroke-width="3" stroke-linecap="round" stroke-linejoin="round"/>
<path d="M718.492 1664.65L808.541 1627.63" stroke="black" stroke-width="3" stroke-linecap="round" stroke-linejoin="round"/>
<path d="M724.812 1624.16L815.927 1579.12" stroke="black" stroke-width="3" stroke-linecap="round" stroke-linejoin="round"/>
<path d="M820.904 1634.09C823.652 1634.09 825.879 1631.86 825.879 1629.11C825.879 1626.36 823.652 1624.13 820.904 1624.13C818.157 1624.13 815.93 1626.36 815.93 1629.11C815.93 1631.86 818.157 1634.09 820.904 1634.09Z" stroke="black" stroke-width="3" stroke-linecap="round" stroke-linejoin="round"/>
<path d="M827.197 1596.05C829.945 1596.05 832.172 1593.83 832.172 1591.08C832.172 1588.33 829.945 1586.1 827.197 1586.1C824.45 1586.1 822.223 1588.33 822.223 1591.08C822.223 1593.83 824.45 1596.05 827.197 1596.05Z" stroke="black" stroke-width="3" stroke-linecap="round" stroke-linejoin="round"/>
<path d="M813.516 1672.04C816.263 1672.04 818.49 1669.81 818.49 1667.06C818.49 1664.32 816.263 1662.09 813.516 1662.09C810.768 1662.09 808.541 1664.32 808.541 1667.06C808.541 1669.81 810.768 1672.04 813.516 1672.04Z" stroke="black" stroke-width="3" stroke-linecap="round" stroke-linejoin="round"/>
<path d="M718.492 1664.65C718.492 1664.65 782.044 1648.1 826.104 1678.89L718.492 1664.65Z" fill="#191919"/>
<path d="M718.492 1664.65C718.492 1664.65 782.044 1648.1 826.104 1678.89" stroke="black" stroke-width="3" stroke-linecap="round" stroke-linejoin="round"/>
<path d="M908.669 1568.02H877.4C876.309 1568.02 875.269 1567.57 874.558 1566.73C873.847 1565.89 873.492 1564.83 873.644 1563.73L876.233 1542.84C876.461 1540.94 878.086 1539.49 880.015 1539.49H910.319C911.385 1539.49 912.4 1539.92 913.11 1540.71C913.821 1541.49 914.202 1542.53 914.1 1543.58L912.476 1564.47C912.324 1566.45 910.674 1567.97 908.669 1567.97V1568.02ZM881.715 1560.41H905.141L906.182 1547.13H883.365L881.715 1560.41Z" fill="#CDCDCD" stroke="black" stroke-miterlimit="10"/>
<path d="M910.291 1589.45H879.987C878.058 1589.45 876.434 1588.03 876.205 1586.13L873.616 1565.28C873.49 1564.19 873.82 1563.12 874.53 1562.31C875.241 1561.5 876.281 1561.02 877.373 1561.02H908.641C910.621 1561.02 912.271 1562.54 912.448 1564.52L914.073 1585.37C914.149 1586.43 913.793 1587.47 913.083 1588.23C912.372 1589.02 911.357 1589.45 910.291 1589.45ZM883.362 1581.86H906.179L905.139 1568.61H881.713L883.362 1581.86Z" fill="#CDCDCD" stroke="black" stroke-miterlimit="10"/>
<path d="M1328.2 1734.01C1330.72 1738.08 1331.83 1742.47 1331.83 1742.47C1332.92 1746.78 1332.87 1750.8 1332.42 1754.15C1332.16 1756 1330.69 1757.42 1328.84 1757.55C1303.74 1759.48 1276.12 1760.21 1246.4 1758.95C1185.21 1756.31 1132.17 1745.84 1089.4 1733.86C1087.8 1733.4 1086.66 1731.98 1086.56 1730.31C1086.28 1725.48 1085.97 1720.69 1085.7 1715.86C1098.33 1716.19 1320.87 1722.13 1328.2 1733.99V1734.01Z" fill="#333333" stroke="black" stroke-width="3" stroke-linecap="round" stroke-linejoin="round"/>
<path d="M1277.16 1544.36C1208.1 1545.45 1139.04 1546.54 1069.96 1547.64C1075.19 1603.72 1080.44 1659.8 1085.67 1715.89C1100.8 1720.66 1116.79 1725.08 1133.56 1728.93C1208.03 1746.07 1275.94 1747.24 1331.81 1742.47C1333.46 1735.71 1335.66 1722.21 1330.59 1706.97C1320.39 1676.41 1289.78 1665.92 1285.92 1664.68C1283 1624.56 1280.08 1584.47 1277.16 1544.36Z" fill="#191919" stroke="black" stroke-width="3" stroke-linecap="round" stroke-linejoin="round"/>
<path d="M1283.1 1544.26V1561.02L1067.95 1565.33C1067.24 1559.49 1066.56 1553.63 1065.85 1547.79C1138.26 1546.62 1210.67 1545.45 1283.1 1544.29V1544.26Z" fill="#191919" stroke="black" stroke-width="3" stroke-linecap="round" stroke-linejoin="round"/>
<path d="M1283.1 1561.02C1283.1 1566.43 1283.1 1571.83 1283.1 1577.22L1067.96 1581.53C1067.96 1576.12 1067.96 1570.72 1067.96 1565.33C1139.68 1563.89 1211.38 1562.46 1283.1 1561.02Z" fill="#191919" stroke="black" stroke-width="3" stroke-linecap="round" stroke-linejoin="round"/>
<path d="M1188.48 1579.12C1192.95 1608.44 1197.39 1637.74 1201.86 1667.06C1212.21 1663.92 1226.63 1660.69 1244.04 1660.23C1261.5 1659.78 1276.09 1662.29 1286.6 1664.88C1284.27 1635.68 1281.93 1606.46 1279.6 1577.27C1249.22 1577.87 1218.86 1578.48 1188.48 1579.09V1579.12Z" fill="#676767" stroke="black" stroke-width="3" stroke-linecap="round" stroke-linejoin="round"/>
<path d="M1279.6 1577.29L1195.87 1627.66" stroke="black" stroke-width="3" stroke-linecap="round" stroke-linejoin="round"/>
<path d="M1283.18 1622.18L1201.86 1667.06" stroke="black" stroke-width="3" stroke-linecap="round" stroke-linejoin="round"/>
<path d="M1285.92 1664.68L1195.87 1627.66" stroke="black" stroke-width="3" stroke-linecap="round" stroke-linejoin="round"/>
<path d="M1279.6 1624.16L1188.48 1579.12" stroke="black" stroke-width="3" stroke-linecap="round" stroke-linejoin="round"/>
<path d="M1183.51 1634.09C1186.26 1634.09 1188.49 1631.86 1188.49 1629.11C1188.49 1626.36 1186.26 1624.13 1183.51 1624.13C1180.76 1624.13 1178.54 1626.36 1178.54 1629.11C1178.54 1631.86 1180.76 1634.09 1183.51 1634.09Z" stroke="black" stroke-width="3" stroke-linecap="round" stroke-linejoin="round"/>
<path d="M1177.22 1596.08C1179.96 1596.08 1182.19 1593.85 1182.19 1591.1C1182.19 1588.35 1179.96 1586.12 1177.22 1586.12C1174.47 1586.12 1172.24 1588.35 1172.24 1591.1C1172.24 1593.85 1174.47 1596.08 1177.22 1596.08Z" stroke="black" stroke-width="3" stroke-linecap="round" stroke-linejoin="round"/>
<path d="M1190.89 1672.04C1193.64 1672.04 1195.87 1669.81 1195.87 1667.06C1195.87 1664.32 1193.64 1662.09 1190.89 1662.09C1188.15 1662.09 1185.92 1664.32 1185.92 1667.06C1185.92 1669.81 1188.15 1672.04 1190.89 1672.04Z" stroke="black" stroke-width="3" stroke-linecap="round" stroke-linejoin="round"/>
<path d="M1285.92 1664.68C1285.92 1664.68 1222.37 1648.12 1178.31 1678.92L1285.92 1664.68Z" fill="#191919"/>
<path d="M1285.92 1664.68C1285.92 1664.68 1222.37 1648.12 1178.31 1678.92" stroke="black" stroke-width="3" stroke-linecap="round" stroke-linejoin="round"/>
<path d="M1091.94 1564.52L1090.31 1543.62C1090.24 1542.56 1090.59 1541.52 1091.3 1540.76C1092.01 1539.97 1093.03 1539.54 1094.09 1539.54H1124.4C1126.33 1539.54 1127.95 1540.96 1128.18 1542.89L1130.77 1563.78C1130.9 1564.87 1130.57 1565.97 1129.86 1566.78C1129.14 1567.59 1128.1 1568.07 1127.01 1568.07H1095.74C1093.76 1568.07 1092.11 1566.55 1091.94 1564.57V1564.52ZM1121.05 1547.13H1098.23L1099.27 1560.41H1122.7L1121.05 1547.13Z" fill="#CDCDCD" stroke="black" stroke-miterlimit="10"/>
<path d="M1091.3 1588.23C1090.59 1587.45 1090.21 1586.41 1090.32 1585.37L1091.94 1564.52C1092.09 1562.54 1093.74 1561.02 1095.75 1561.02H1127.01C1128.11 1561.02 1129.15 1561.47 1129.86 1562.31C1130.57 1563.15 1130.92 1564.22 1130.77 1565.28L1128.18 1586.13C1127.95 1588.03 1126.33 1589.45 1124.4 1589.45H1094.1C1093.03 1589.45 1092.02 1589.02 1091.3 1588.23ZM1122.67 1568.61H1099.25L1098.21 1581.86H1121.03L1122.67 1568.61Z" fill="#CDCDCD" stroke="black" stroke-miterlimit="10"/>
</svg>
