<svg width="390" height="998" viewBox="0 0 390 998" fill="none" xmlns="http://www.w3.org/2000/svg">
<g clip-path="url(#clip0_2064_50170)">
<path d="M-17.1379 160.423C-22.7364 161.945 -27.699 161.547 -32.3641 159.03C-37.0292 156.512 -40.1151 152.401 -41.5502 146.967C-42.9852 141.533 -42.3388 136.407 -39.5392 131.861C-36.6679 127.586 -32.638 124.452 -27.0395 122.93L115.056 84.2995C120.654 82.7775 125.617 83.1755 130.282 85.6928C134.947 88.2101 138.033 92.3214 139.468 97.7552C140.903 103.189 140.257 108.315 137.457 112.862C134.658 117.408 130.556 120.271 124.957 121.793L-17.1379 160.423ZM103.879 331.942C98.014 333.537 92.4465 333.012 87.7096 330.223C82.9728 327.434 79.6202 323.395 78.1135 317.69L28.1747 128.594L69.7636 117.288L119.702 306.383C121.209 312.089 120.563 317.215 117.568 322.105C114.574 326.996 110.011 330.275 103.879 331.942Z" fill="#BC8910"/>
<path d="M-40.1273 349.192C-45.8175 348.074 -50.1075 345.512 -53.2155 341.176C-56.3236 336.841 -57.3239 331.774 -56.2694 326.251C-55.2149 320.728 -52.4218 316.407 -47.9429 313.562C-43.5168 310.994 -38.5413 309.967 -32.8511 311.085L111.572 339.472C117.262 340.591 121.552 343.153 124.66 347.489C127.768 351.824 128.768 356.891 127.714 362.414C126.659 367.937 123.866 372.258 119.387 375.103C114.908 377.947 109.986 378.698 104.295 377.58L-40.1273 349.192ZM-5.33588 557.156C-11.297 555.984 -16.0762 553.039 -19.1315 548.428C-22.1869 543.816 -23.4582 538.696 -22.351 532.897L14.3462 340.704L56.6163 349.012L19.9191 541.205C18.8119 547.004 16.0188 551.326 11.2162 554.393C6.41361 557.46 0.896255 558.381 -5.33588 557.156Z" fill="#BC8910"/>
<path d="M183.021 338.905C181.484 344.726 178.062 348.848 172.956 351.619C167.849 354.391 162.439 355 156.996 353.521C151.01 351.893 146.625 348.621 143.84 343.704C141.056 338.787 140.668 333.63 142.205 327.808L193.017 135.406C194.555 129.584 197.704 125.389 202.811 122.617C207.645 119.772 213.328 119.237 219.314 120.864C224.484 122.27 228.598 125.468 231.654 130.459C234.711 135.45 235.371 140.681 233.833 146.503L183.021 338.905Z" fill="#BC8910"/>
<path d="M279.719 57.6446C275.974 68.5121 263.888 75.6262 252.93 72.9444C244.495 70.6512 233.149 62.8125 240.557 53.5351C243.56 49.8944 248.74 46.8455 253.439 47.8259C258.138 48.8062 260.776 54.2777 261.656 58.6768C263.991 69.7116 253.622 80.2639 244.12 84.2178C236.889 87.3033 229.029 87.2466 221.703 84.0663C219.055 83.0493 216.554 81.4779 214.325 79.9804C213.78 79.8324 213.582 79.4812 213.111 79.056C211.624 78.0577 214.053 79.9064 213.111 79.056C212.566 78.9081 212.367 78.5569 212.169 78.2057C206.318 72.7522 197.549 81.6597 203.4 87.1132C214.83 97.9461 232.59 102.477 247.178 96.9347C263.419 90.653 277.921 74.3901 274.078 55.8139C272.245 47.2928 266.98 39.6215 259.036 36.5705C250.276 33.2976 240.576 36.9003 234.245 43.202C228.333 49.0233 224.556 57.8022 227.08 65.9167C229.603 74.0312 236.197 79.9839 243.795 83.2381C263.398 91.8359 285.583 81.8215 292.435 61.3987C295.029 53.7841 283.056 50.5291 280.462 58.1438L279.719 57.6446Z" fill="#BC8910"/>
<path d="M71.3136 640.967C68.9437 646.502 64.9579 650.081 59.5017 652.078C54.0455 654.076 48.6041 653.889 43.4358 651.632C37.7506 649.149 33.8891 645.273 31.8512 640.002C29.8134 634.732 30.1814 629.574 32.5513 624.038L110.872 441.1C113.241 435.565 116.969 431.873 122.425 429.876C127.623 427.765 133.323 428.065 139.008 430.547C143.918 432.692 147.521 436.456 149.817 441.839C152.113 447.222 152.004 452.493 149.634 458.029L71.3136 640.967Z" fill="#BC8910"/>
<path d="M207.982 376.812C202.693 387.018 189.699 392.294 179.249 388.043C171.238 384.544 161.157 375.135 169.838 367.037C173.34 363.873 178.909 361.612 183.415 363.267C187.921 364.922 189.733 370.72 189.962 375.2C190.664 386.457 178.866 395.385 168.89 397.911C161.286 399.91 153.519 398.708 146.735 394.493C144.263 393.101 142.018 391.182 140.03 389.375C139.514 389.15 139.368 388.773 138.964 388.284C137.639 387.079 139.772 389.262 138.964 388.284C138.447 388.058 138.302 387.682 138.156 387.305C133.163 381.057 123.189 388.591 128.183 394.839C137.911 407.223 154.821 414.295 170.061 410.938C187.044 407.092 203.763 393.117 202.669 374.179C202.098 365.482 198.007 357.125 190.593 352.948C182.404 348.433 172.282 350.583 165.1 355.894C158.403 360.791 153.386 368.926 154.7 377.322C156.013 385.717 161.669 392.568 168.711 396.895C186.851 408.259 210.259 401.586 220.015 382.38C223.692 375.225 212.322 370.259 208.645 377.415L207.982 376.812Z" fill="#BC8910"/>
<path d="M358.081 216.205C364.236 217.605 368.431 221.402 370.81 227.006C373.189 232.609 372.863 238.546 369.977 244.223C368.173 248.54 364.951 251.502 360.839 252.99C356.728 254.478 351.991 254.432 347.015 253.324C341.449 252.071 335.739 251.408 329.68 251.661C323.826 251.589 317.887 252.374 311.539 253.809C300.166 256.381 290.272 260.573 282.06 266.059C273.909 271.811 267.38 278.591 262.534 286.666C257.688 294.741 254.729 303.786 253.332 313.593C252.201 323.341 252.632 333.852 255.154 345.006C258.097 358.02 262.471 368.756 268.336 377.48C274.201 386.203 281.028 393.035 289.081 397.913C297.135 402.792 305.886 405.838 315.539 406.726C325.252 407.88 335.074 407.055 345.388 404.722C351.207 403.406 356.641 401.619 362.219 399.241C367.798 396.863 372.667 393.807 377.296 389.69C381.312 386.548 385.363 384.795 390.04 384.575C394.392 384.149 398.635 385.702 402.385 388.762C407.818 393.117 410.666 398.335 410.605 404.212C410.808 410.028 408.331 415.055 403.582 418.641C398.628 422.553 393.615 426.2 388.216 429.375C382.818 432.549 377.3 435.193 371.457 437.631C365.614 440.069 359.856 441.651 353.772 443.026C338.432 446.495 323.61 447.335 308.716 445.399C293.881 443.728 280.034 439.043 267.292 431.874C254.551 424.706 243.385 414.668 234.058 401.702C224.732 388.736 217.774 372.722 213.51 353.865C209.786 337.399 209.332 321.868 211.763 306.802C214.195 291.735 219.426 277.99 227.459 265.565C235.492 253.14 245.856 242.421 258.348 233.734C271.104 224.986 285.519 218.656 302.181 214.888C311.438 212.794 320.936 211.763 330.144 211.914C339.352 212.065 348.536 213.338 357.372 215.528L358.081 216.205Z" fill="#BC8910"/>
<path d="M150.684 644.513C156.839 645.912 161.034 649.71 163.413 655.313C165.792 660.917 165.466 666.853 162.58 672.531C160.776 676.847 157.554 679.809 153.442 681.297C149.331 682.786 144.594 682.74 139.618 681.632C134.052 680.378 128.342 679.715 122.283 679.969C116.429 679.897 110.49 680.681 104.142 682.117C92.7694 684.689 82.875 688.88 74.6634 694.367C66.5118 700.118 59.9829 706.899 55.1368 714.974C50.2907 723.049 47.3318 732.093 45.9355 741.901C44.8037 751.648 45.2346 762.159 47.7571 773.314C50.7 786.328 55.0739 797.064 60.9388 805.787C66.8037 814.511 73.6306 821.342 81.6841 826.221C89.7376 831.1 98.4887 834.146 108.142 835.034C117.855 836.187 127.677 835.362 137.991 833.03C143.81 831.714 149.244 829.927 154.822 827.548C160.401 825.17 165.27 822.115 169.899 817.997C173.915 814.856 177.966 813.102 182.643 812.882C186.995 812.456 191.238 814.009 194.988 817.07C200.421 821.424 203.269 826.643 203.208 832.519C203.411 838.336 200.934 843.363 196.185 846.949C191.231 850.861 186.218 854.507 180.819 857.682C175.421 860.857 169.903 863.501 164.06 865.939C158.217 868.377 152.459 869.958 146.375 871.334C131.035 874.803 116.213 875.642 101.319 873.706C86.4845 872.036 72.6366 867.351 59.8951 860.182C47.1536 853.013 35.9875 842.976 26.6612 830.01C17.3349 817.044 10.3773 801.03 6.11313 782.173C2.38945 765.707 1.93543 750.176 4.36648 735.109C6.79754 720.043 12.0294 706.297 20.062 693.872C28.0945 681.447 38.459 670.729 50.9508 662.041C63.7072 653.294 78.1221 646.963 94.7845 643.195C104.041 641.102 113.539 640.071 122.747 640.222C131.955 640.373 141.14 641.646 149.975 643.836L150.684 644.513Z" fill="#BC8910"/>
<path d="M225.115 415.933C230.331 416.599 234.752 419.125 238.378 423.51C242.004 427.896 243.327 432.828 242.588 438.618L218.164 629.959C217.425 635.749 214.63 640.155 210.019 643.49C205.408 646.824 200.219 648.123 194.728 647.422C188.688 646.651 183.992 644.09 180.641 639.739C177.29 635.389 176.241 630.492 176.98 624.702L201.404 433.361C202.144 427.571 204.664 423.129 209.275 419.795C213.611 416.426 219.074 415.162 225.115 415.933ZM211.734 512.015L358.623 530.765L353.766 568.812L206.877 550.062L211.734 512.015ZM370.906 434.543C376.946 435.314 381.642 437.875 384.993 442.225C388.344 446.576 389.393 451.473 388.654 457.263L364.23 648.604C363.49 654.394 360.97 658.836 356.634 662.205C352.297 665.574 346.834 666.838 340.519 666.032C335.303 665.366 330.882 662.84 327.256 658.455C323.63 654.069 322.307 649.137 323.046 643.347L347.47 452.006C348.209 446.216 351.004 441.81 355.615 438.475C360.226 435.141 365.415 433.842 370.906 434.543Z" fill="#BC8910"/>
<path d="M254.742 644.122C259.959 644.788 264.38 647.314 268.006 651.7C271.631 656.085 272.955 661.018 272.216 666.808L247.791 858.148C247.052 863.938 244.257 868.345 239.646 871.679C235.035 875.013 229.847 876.312 224.356 875.611C218.315 874.84 213.62 872.28 210.269 867.929C206.917 863.578 205.868 858.681 206.607 852.891L231.032 661.55C231.771 655.761 234.291 651.319 238.902 647.985C243.239 644.615 248.702 643.351 254.742 644.122ZM241.361 740.204L388.251 758.954L383.394 797.002L236.505 778.252L241.361 740.204ZM400.533 662.733C406.574 663.504 411.269 666.064 414.62 670.415C417.971 674.766 419.021 679.663 418.281 685.453L393.857 876.793C393.118 882.583 390.598 887.025 386.261 890.394C381.925 893.763 376.462 895.028 370.147 894.221C364.93 893.556 360.509 891.03 356.883 886.644C353.258 882.259 351.934 877.326 352.673 871.536L377.098 680.196C377.837 674.406 380.631 669.999 385.242 666.665C389.854 663.331 395.042 662.032 400.533 662.733Z" fill="#BC8910"/>
</g>
<defs>
<clipPath id="clip0_2064_50170">
<rect x="-62.0952" y="-3.63867" width="488.084" height="1001.64" rx="4.15833" fill="white"/>
</clipPath>
</defs>
</svg>
