<svg width="306" height="64" viewBox="0 0 306 64" fill="none" xmlns="http://www.w3.org/2000/svg">
<g clip-path="url(#clip0_3666_14653)">
<path d="M3.98679 25.045C2.83991 25.045 1.91148 24.7177 1.14689 24.0084C0.382295 23.2991 0 22.3716 0 21.2803C0 20.1891 0.382295 19.2616 1.14689 18.5523C1.91148 17.8976 2.83991 17.5156 3.98679 17.5156H33.0958C34.2427 17.5156 35.1712 17.843 35.9357 18.5523C36.7003 19.2616 37.0826 20.1891 37.0826 21.2803C37.0826 22.3716 36.7003 23.2991 35.9357 24.0084C35.1712 24.7177 34.2427 25.045 33.0958 25.045H3.98679ZM18.4594 63.3468C17.2579 63.3468 16.2202 62.9649 15.4556 62.201C14.6911 61.4372 14.2541 60.5097 14.2541 59.3639V21.3895H22.7739V59.3639C22.7739 60.5097 22.3916 61.4372 21.5724 62.201C20.7532 62.9649 19.7155 63.3468 18.4594 63.3468Z" fill="#F06724"/>
<path d="M52.1608 59.3639C52.1608 60.5097 51.7239 61.4372 50.9047 62.201C50.0855 62.9649 49.1024 63.3468 48.0102 63.3468C46.8087 63.3468 45.8256 62.9649 45.061 62.201C44.2964 61.4372 43.9688 60.5097 43.9688 59.3639V21.4986C43.9688 20.3528 44.351 19.4253 45.1703 18.6614C45.9348 17.8976 46.9725 17.5156 48.174 17.5156C49.2117 17.5156 50.1401 17.8976 50.9593 18.6614C51.7785 19.4253 52.1608 20.3528 52.1608 21.4986V59.3639Z" fill="#F06724"/>
<path d="M94.1008 19.7515C95.2476 20.2971 95.903 21.2246 96.1215 22.425C96.3399 23.6253 96.0122 24.7711 95.193 25.7532C94.6469 26.517 93.8823 26.9535 93.0085 27.0627C92.1347 27.1718 91.2062 26.9535 90.2778 26.517C89.2402 26.026 88.1479 25.6441 86.9464 25.4258C85.7995 25.153 84.598 25.0439 83.2873 25.0439C80.9389 25.0439 78.809 25.4258 76.9521 26.1351C75.0952 26.899 73.5114 27.9356 72.2007 29.2997C70.89 30.6637 69.9069 32.3005 69.197 34.1556C68.5416 36.0107 68.1593 38.084 68.1593 40.3755C68.1593 43.049 68.5416 45.3406 69.3062 47.3048C70.0708 49.269 71.1084 50.9058 72.4738 52.2153C73.8391 53.5247 75.4229 54.5068 77.2798 55.107C79.1366 55.7617 81.1027 56.0345 83.2326 56.0345C84.4341 56.0345 85.581 55.9254 86.7825 55.7072C87.984 55.4889 89.0763 55.107 90.1686 54.5068C91.097 54.0703 91.9708 53.9066 92.8993 54.0703C93.7731 54.1795 94.5377 54.6705 95.1384 55.4344C96.0122 56.5256 96.3399 57.6714 96.0668 58.8171C95.8484 59.9629 95.1384 60.8359 94.0461 61.3269C92.8993 61.8725 91.7524 62.3636 90.5509 62.7455C89.3494 63.1274 88.1479 63.4003 86.8918 63.6185C85.6356 63.8367 84.4341 63.8913 83.178 63.8913C80.0104 63.8913 77.0613 63.4003 74.2214 62.3636C71.3815 61.3815 68.8693 59.8538 66.6847 57.8896C64.5002 55.9254 62.7526 53.4702 61.4964 50.5239C60.2403 47.5776 59.585 44.1402 59.585 40.2664C59.585 36.8836 60.1857 33.8282 61.3326 30.991C62.4795 28.1539 64.1179 25.6986 66.2478 23.6253C68.3778 21.552 70.89 19.9152 73.7299 18.7694C76.6244 17.6236 79.7374 17.0234 83.178 17.0234C85.0895 17.0234 87.001 17.2417 88.8032 17.6782C90.6055 18.1147 92.3531 18.7694 93.9915 19.5878L94.1008 19.7515Z" fill="#F06724"/>
<path d="M107.257 17.5156C108.295 17.5156 109.223 17.8976 110.042 18.6614C110.861 19.4253 111.244 20.3528 111.244 21.4986V59.3639C111.244 60.5097 110.807 61.4372 109.988 62.201C109.168 62.9649 108.185 63.3468 107.093 63.3468C105.892 63.3468 104.909 62.9649 104.144 62.201C103.379 61.4372 103.052 60.5097 103.052 59.3639V21.4986C103.052 20.3528 103.434 19.4253 104.253 18.6614C105.018 17.8976 106.055 17.5156 107.257 17.5156ZM107.039 36.5574H136.257V44.0868H107.039V36.5574ZM136.257 17.5156C137.458 17.5156 138.441 17.8976 139.206 18.6614C139.971 19.4253 140.298 20.3528 140.298 21.4986V59.3639C140.298 60.5097 139.916 61.4372 139.151 62.201C138.387 62.9649 137.349 63.3468 136.093 63.3468C135.055 63.3468 134.127 62.9649 133.308 62.201C132.488 61.4372 132.106 60.5097 132.106 59.3639V21.4986C132.106 20.3528 132.543 19.4253 133.362 18.6614C134.182 17.8976 135.165 17.5156 136.257 17.5156Z" fill="#F06724"/>
<path d="M169.63 25.045C168.483 25.045 167.555 24.7177 166.79 24.0084C166.026 23.2991 165.644 22.3716 165.644 21.2803C165.644 20.1891 166.026 19.2616 166.79 18.5523C167.555 17.8976 168.483 17.5156 169.63 17.5156H198.739C199.886 17.5156 200.815 17.843 201.579 18.5523C202.344 19.2616 202.726 20.1891 202.726 21.2803C202.726 22.3716 202.344 23.2991 201.579 24.0084C200.815 24.7177 199.886 25.045 198.739 25.045H169.63ZM184.103 63.3468C182.901 63.3468 181.864 62.9649 181.099 62.201C180.335 61.4372 179.898 60.5097 179.898 59.3639V21.3895H188.417V59.3639C188.417 60.5097 188.035 61.4372 187.216 62.201C186.397 62.9649 185.359 63.3468 184.103 63.3468Z" fill="#F06724"/>
<path d="M217.804 59.3639C217.804 60.5097 217.367 61.4372 216.548 62.201C215.729 62.9649 214.746 63.3468 213.654 63.3468C212.452 63.3468 211.469 62.9649 210.705 62.201C209.94 61.4372 209.612 60.5097 209.612 59.3639V21.4986C209.612 20.3528 209.995 19.4253 210.814 18.6614C211.578 17.8976 212.616 17.5156 213.818 17.5156C214.855 17.5156 215.784 17.8976 216.603 18.6614C217.422 19.4253 217.804 20.3528 217.804 21.4986V59.3639Z" fill="#F06724"/>
<path d="M259.743 19.7515C260.89 20.2971 261.546 21.2246 261.764 22.425C261.982 23.6253 261.655 24.7711 260.836 25.7532C260.289 26.517 259.525 26.9535 258.651 27.0627C257.777 27.1718 256.849 26.9535 255.92 26.517C254.883 26.026 253.79 25.6441 252.589 25.4258C251.442 25.153 250.241 25.0439 248.93 25.0439C246.581 25.0439 244.452 25.4258 242.595 26.1351C240.738 26.899 239.154 27.9356 237.843 29.2997C236.533 30.6637 235.55 32.3005 234.84 34.1556C234.184 36.0107 233.802 38.084 233.802 40.3755C233.802 43.049 234.184 45.3406 234.949 47.3048C235.713 49.269 236.751 50.9058 238.116 52.2153C239.482 53.5247 241.065 54.5068 242.922 55.107C244.779 55.7617 246.745 56.0345 248.875 56.0345C250.077 56.0345 251.224 55.9254 252.425 55.7072C253.627 55.4889 254.719 55.107 255.811 54.5068C256.74 54.0703 257.613 53.9066 258.542 54.0703C259.416 54.1795 260.18 54.6705 260.781 55.4344C261.655 56.5256 261.982 57.6714 261.709 58.8171C261.491 59.9629 260.781 60.8359 259.689 61.3269C258.542 61.8725 257.395 62.3636 256.193 62.7455C254.992 63.1274 253.79 63.4003 252.534 63.6185C251.278 63.8367 250.077 63.8913 248.821 63.8913C245.653 63.8913 242.704 63.4003 239.864 62.3636C237.024 61.3815 234.512 59.8538 232.327 57.8896C230.143 55.9254 228.395 53.4702 227.139 50.5239C225.883 47.5776 225.228 44.1402 225.228 40.2664C225.228 36.8836 225.828 33.8282 226.975 30.991C228.122 28.1539 229.76 25.6986 231.89 23.6253C234.02 21.552 236.533 19.9152 239.372 18.7694C242.267 17.6236 245.38 17.0234 248.821 17.0234C250.732 17.0234 252.644 17.2417 254.446 17.6782C256.248 18.1147 257.996 18.7694 259.634 19.5878L259.743 19.7515Z" fill="#F06724"/>
<path d="M272.9 17.5156C273.937 17.5156 274.866 17.8976 275.685 18.6614C276.504 19.4253 276.886 20.3528 276.886 21.4986V59.3639C276.886 60.5097 276.449 61.4372 275.63 62.201C274.811 62.9649 273.828 63.3468 272.736 63.3468C271.534 63.3468 270.551 62.9649 269.787 62.201C269.022 61.4372 268.694 60.5097 268.694 59.3639V21.4986C268.694 20.3528 269.077 19.4253 269.896 18.6614C270.66 17.8976 271.698 17.5156 272.9 17.5156ZM272.681 36.5574H301.899V44.0868H272.681V36.5574ZM301.899 17.5156C303.101 17.5156 304.084 17.8976 304.849 18.6614C305.613 19.4253 305.941 20.3528 305.941 21.4986V59.3639C305.941 60.5097 305.559 61.4372 304.794 62.201C304.029 62.9649 302.992 63.3468 301.736 63.3468C300.698 63.3468 299.769 62.9649 298.95 62.201C298.131 61.4372 297.749 60.5097 297.749 59.3639V21.4986C297.749 20.3528 298.186 19.4253 299.005 18.6614C299.824 17.8976 300.807 17.5156 301.899 17.5156Z" fill="#F06724"/>
<path d="M56.3584 2.89183C56.1946 5.07426 54.2831 6.9839 52.0985 7.03846C50.4055 7.03846 47.8933 6.16548 48.8217 4.09217C49.204 3.27375 50.0232 2.45534 50.9516 2.40078C51.8801 2.34622 52.6447 3.21919 53.027 3.98305C54.01 5.89268 52.5901 8.34792 51.0063 9.54826C49.8048 10.4758 48.3302 10.8577 46.801 10.6395C46.2549 10.5849 45.7087 10.4212 45.2172 10.2576C45.108 10.2576 45.0534 10.203 44.9441 10.1484C44.6165 10.0393 45.1626 10.2576 44.9441 10.1484C44.8349 10.1484 44.7803 10.0939 44.7257 10.0393C43.3604 9.33002 42.1589 11.4033 43.5242 12.1126C46.2003 13.5312 49.7502 13.4767 52.2078 11.7307C54.9384 9.76651 56.8499 6.05636 55.2115 2.83727C54.4469 1.36412 53.0816 0.218339 51.4432 0.0546564C49.6409 -0.109026 48.0025 1.03675 47.1287 2.5099C46.3095 3.87392 46.0364 5.67443 46.9102 7.03846C47.7841 8.40248 49.3132 9.16634 50.897 9.38458C54.9931 9.98475 58.6522 7.03846 58.9252 2.94639C59.0345 1.41868 56.6315 1.41868 56.5222 2.94639L56.3584 2.89183Z" fill="#F06724"/>
<path d="M221.948 2.89183C221.784 5.07426 219.873 6.9839 217.688 7.03846C215.995 7.03846 213.483 6.16548 214.412 4.09217C214.794 3.27375 215.613 2.45534 216.541 2.40078C217.47 2.34622 218.235 3.21919 218.617 3.98305C219.6 5.89268 218.18 8.34792 216.596 9.54826C215.395 10.4758 213.92 10.8577 212.391 10.6395C211.845 10.5849 211.299 10.4212 210.807 10.2576C210.698 10.2576 210.643 10.203 210.534 10.1484C210.206 10.0393 210.752 10.2576 210.534 10.1484C210.425 10.1484 210.37 10.0939 210.316 10.0393C208.95 9.33002 207.749 11.4033 209.114 12.1126C211.79 13.5312 215.34 13.4767 217.798 11.7307C220.528 9.76651 222.44 6.05636 220.801 2.83727C220.037 1.36412 218.671 0.218339 217.033 0.0546564C215.231 -0.109026 213.592 1.03675 212.719 2.5099C211.899 3.87392 211.626 5.67443 212.5 7.03846C213.374 8.40248 214.903 9.16634 216.487 9.38458C220.583 9.98475 224.242 7.03846 224.515 2.94639C224.624 1.41868 222.221 1.41868 222.112 2.94639L221.948 2.89183Z" fill="#F06724"/>
</g>
<defs>
<clipPath id="clip0_3666_14653">
<rect width="306" height="64" fill="white"/>
</clipPath>
</defs>
</svg>
