<svg width="24" height="24" viewBox="0 0 24 24" fill="none" xmlns="http://www.w3.org/2000/svg">
<rect width="24" height="24" rx="8" fill="#FBB615"/>
<g clip-path="url(#clip0_2047_11049)">
<path d="M8.5127 8.94795C8.89813 8.24808 9.25553 7.60365 9.61293 6.95228C9.64796 6.88299 9.69702 6.82756 9.72505 6.75826C9.84418 6.39793 10.0614 6.24548 10.4679 6.28013C10.6501 6.29399 10.8463 6.13461 11.0425 6.07225C11.1546 6.0376 11.3018 5.9891 11.3859 6.03067C12.1918 6.44644 12.9977 6.87606 13.7896 7.31954C13.9087 7.38884 13.9998 7.54128 14.0629 7.67987C14.175 7.93626 14.2451 8.20651 14.3432 8.47675C14.4623 8.81629 14.3642 8.96181 14.0209 8.96181C12.2689 8.96181 10.5169 8.96181 8.76498 8.96181C8.70191 8.96181 8.63183 8.96181 8.5197 8.96181L8.5127 8.94795Z" fill="#F8E270"/>
<path d="M7.14014 9.0931C7.15415 9.0446 7.16116 9.00302 7.18218 8.96144C8.03013 7.40926 8.87808 5.85707 9.73304 4.30488C9.93626 3.94455 9.95028 3.93762 10.3287 4.12472C11.8354 4.87309 13.3421 5.6284 14.8558 6.3837C15.4374 6.67474 16.0191 6.96577 16.6217 7.26374C16.2994 7.84581 16.0191 8.42788 15.6617 8.95451C15.5706 9.10003 15.2622 9.10003 14.9959 9.12775C15.2692 8.70506 15.066 8.39323 14.8838 8.06755C14.8418 7.99826 14.8067 7.9151 14.7927 7.83195C14.7366 7.26374 14.3862 6.94499 13.8887 6.70939C13.0828 6.32134 12.3049 5.89865 11.513 5.47595C11.2467 5.33736 11.0015 5.3235 10.7772 5.53139C10.5109 5.77392 10.2026 5.84321 9.85918 5.81549C9.62792 5.7947 9.48776 5.89865 9.38264 6.09267C8.8991 6.96577 8.40856 7.83195 7.91801 8.70506C7.67974 9.13468 7.68675 9.13468 7.14014 9.07924V9.0931Z" fill="#C8D24A"/>
<path d="M17.5996 8.7998C18.4833 8.7998 19.2002 9.51674 19.2002 10.4004V12H15.2002C13.8747 12 12.7998 13.0749 12.7998 14.4004C12.8 15.7257 13.8748 16.7998 15.2002 16.7998H19.2002V18.4004C19.2 19.2839 18.4831 20 17.5996 20H6.40039C5.51687 20 4.80002 19.2839 4.7998 18.4004V10.4004C4.7998 9.51674 5.51674 8.7998 6.40039 8.7998H17.5996Z" fill="#F06724"/>
<path d="M13.6001 14.3998C13.6001 13.5161 14.2746 12.7998 15.6001 12.7998H20.0001V15.9998H15.6001C14.2746 15.9998 13.6001 15.2835 13.6001 14.3998Z" fill="#F06724"/>
<path d="M16.3064 14.6646C16.1937 15.0603 15.5625 15.1662 15.4836 15.1773C15.461 15.1773 15.4441 15.1773 15.4328 15.1829C15.1341 15.2219 14.5029 15.1829 14.3395 14.7928C14.2099 14.4752 14.4466 14.0851 14.5086 13.9792C14.5705 13.8789 14.8016 13.4999 15.213 13.4665C15.6019 13.4331 15.8668 13.7284 15.9795 13.851C16.0753 13.9569 16.4135 14.3303 16.312 14.6702L16.3064 14.6646Z" fill="#FFEECC"/>
<path d="M15.2125 14.2855C15.253 14.1021 15.1921 13.9332 15.0765 13.9082C14.961 13.8833 14.8345 14.0118 14.794 14.1952C14.7535 14.3786 14.8144 14.5476 14.9299 14.5725C15.0455 14.5974 15.172 14.4689 15.2125 14.2855Z" fill="#EF6724"/>
<path d="M15.6612 14.5408C15.7561 14.5109 15.794 14.3654 15.7458 14.2158C15.6977 14.0663 15.5817 13.9692 15.4868 13.9991C15.3919 14.029 15.354 14.1745 15.4021 14.324C15.4503 14.4736 15.5663 14.5706 15.6612 14.5408Z" fill="#EF6724"/>
</g>
<defs>
<clipPath id="clip0_2047_11049">
<rect width="16" height="16" fill="white" transform="translate(4 4)"/>
</clipPath>
</defs>
</svg>
