<svg width="24" height="24" viewBox="0 0 24 24" fill="none" xmlns="http://www.w3.org/2000/svg">
<rect width="24" height="24" rx="8" fill="#FBB615"/>
<g clip-path="url(#clip0_2047_11045)">
<path d="M20 16.3642C19.5427 16.3705 19.0853 16.3642 18.628 16.3897C17.0757 16.4726 15.5942 16.8423 14.1771 17.4672C13.5072 17.7604 12.8631 18.1175 12.2126 18.449C12.0902 18.5128 12.0064 18.5255 11.8776 18.449C10.4283 17.5947 8.88245 16.9699 7.22705 16.6256C6.21578 16.4152 5.19807 16.3323 4.16747 16.3642C4.11594 16.3642 4.06441 16.3642 4 16.3642V6.71777C4.16747 6.71777 4.34138 6.71777 4.50886 6.71777C4.67633 6.71777 4.83736 6.71777 5.0306 6.71777V6.9218C5.0306 9.47844 5.0306 12.0287 5.0306 14.5854C5.0306 14.6364 5.0306 14.6874 5.0306 14.7384C5.0306 15.0125 5.1723 15.14 5.44928 15.1337C5.7971 15.1273 6.14493 15.1082 6.4992 15.1145C8.31562 15.1528 9.95813 15.7202 11.4718 16.6957C11.5169 16.7212 11.5556 16.7531 11.6006 16.785C11.9936 17.0464 12 17.0464 12.3994 16.785C13.6361 15.9561 14.9823 15.4142 16.4573 15.2038C17.1272 15.1082 17.81 15.0954 18.4863 15.1337C18.8341 15.1528 18.963 15.038 18.963 14.6874C18.963 12.1052 18.963 9.51669 18.963 6.93455C18.963 6.87079 18.963 6.80066 18.963 6.7369H20.0064V16.3642H20Z" fill="#EF6724"/>
<path d="M5.73926 5.52553C6.4027 5.49365 7.05327 5.52553 7.69739 5.62754C9.08869 5.85069 10.3576 6.37349 11.5235 7.13857C11.6008 7.18958 11.6459 7.24059 11.6459 7.34897C11.6459 10.1925 11.6459 13.0361 11.6459 15.8796C11.6459 15.9051 11.6459 15.9306 11.6459 15.9944C9.82943 14.8786 7.8713 14.3431 5.73926 14.426V5.52553Z" fill="#FFEFCD"/>
<path d="M18.2544 5.5V14.4259C16.1287 14.3494 14.1706 14.8722 12.3542 15.988C12.3542 15.9242 12.3413 15.886 12.3413 15.8413C12.3413 13.0169 12.3413 10.1861 12.3413 7.3617C12.3413 7.27244 12.3542 7.21506 12.4379 7.15768C13.7584 6.28421 15.2012 5.72952 16.7858 5.56376C17.2624 5.51275 17.7519 5.51913 18.2544 5.5Z" fill="#FFEFCD"/>
<path d="M17.1145 7.13235C17.1467 7.20886 17.3399 7.69341 17.0823 8.20984C16.8633 8.63701 16.4768 8.80277 16.3673 8.84103C16.2836 8.87291 15.6781 9.0833 15.2594 8.74539C15.2336 8.72627 14.8858 8.43299 14.976 8.10783C15.0146 7.95481 15.1564 7.78267 15.3109 7.77629C15.4849 7.77629 15.5171 7.98031 15.7554 8.05045C15.9486 8.10783 16.2127 8.0632 16.3544 7.8783C16.509 7.67428 16.4253 7.41288 16.3995 7.34275C16.3158 7.08772 16.1097 6.9602 16.0324 6.91558C15.7039 6.73706 15.356 6.85182 15.2401 6.89645C14.8729 7.02396 14.6797 7.29812 14.6217 7.37462C14.4671 7.60415 14.2224 8.26722 14.5831 8.83465C14.8601 9.27457 15.3238 9.38934 15.4333 9.41484C15.9873 9.5551 16.4382 9.3192 16.567 9.2427C16.6765 9.17894 17.0823 8.93029 17.2562 8.40748C17.4752 7.76354 17.166 7.22161 17.1145 7.13235Z" fill="#F06724"/>
</g>
<defs>
<clipPath id="clip0_2047_11045">
<rect width="16" height="13" fill="white" transform="translate(4 5.5)"/>
</clipPath>
</defs>
</svg>
