<svg width="2000" height="2000" viewBox="0 0 2000 2000" fill="none" xmlns="http://www.w3.org/2000/svg">
<g clip-path="url(#clip0_3263_34831)">
<g clip-path="url(#clip1_3263_34831)">
<path d="M733.62 1026.88C675.541 1157.14 477.845 1609.87 543.894 1658.94C555.086 1667.25 569.839 1673.1 569.839 1673.1C622.803 1694.05 657.651 1664 710.643 1661.85C787.913 1658.68 793.367 1719.32 877.816 1719.6C932.051 1719.77 934.849 1694.78 997.62 1694.87C1059.97 1694.95 1066.98 1719.6 1122.54 1719.6C1197.69 1719.6 1195.85 1674.49 1267.58 1673.13C1333.75 1671.89 1366.56 1709.65 1438.91 1690.74C1448.75 1688.17 1462.76 1684.52 1470.37 1679.21C1537.01 1632.71 1377.19 1276.94 1254.24 1026.97C1213.72 1050.23 1120.73 1096.34 993.918 1096.34C867.076 1096.34 774.092 1050.2 733.564 1026.97L733.62 1026.88Z" fill="#52769B" stroke="black" stroke-width="4.14451" stroke-miterlimit="10"/>
<path d="M685.435 1718.56C682.383 1722 657.709 1750.5 667.064 1768.02C672.462 1778.14 686.905 1780.35 697.362 1781.42C752.615 1786.99 835.339 1774.41 872.957 1768.02C877.563 1760.19 882.17 1752.36 886.777 1744.53L805.127 1690.68L690.635 1702.24L685.435 1718.56Z" fill="#A5BDD1" stroke="black" stroke-width="4.14451" stroke-miterlimit="10"/>
<path d="M1302.49 1718.56C1305.54 1722 1330.21 1750.5 1320.86 1768.02C1315.46 1778.14 1301.02 1780.35 1290.56 1781.42C1235.31 1786.99 1152.58 1774.41 1114.97 1768.02C1110.36 1760.19 1105.75 1752.36 1101.15 1744.53L1182.8 1690.68L1297.29 1702.24L1302.49 1718.56Z" fill="#A5BDD1" stroke="black" stroke-width="4.14451" stroke-miterlimit="10"/>
<path d="M1309.64 1646.5L1302.49 1718.55C1268.43 1706.23 1240.59 1704.87 1220.3 1706.43C1161.88 1710.89 1101.17 1744.53 1101.17 1744.53L1070.73 1687.15L1162.5 1603.45L1262.44 1601.64L1309.64 1646.5Z" fill="#52769B" stroke="black" stroke-width="4.14451" stroke-miterlimit="10"/>
<path d="M678.289 1646.5L685.439 1718.55C719.496 1706.23 747.334 1704.87 767.627 1706.43C826.045 1710.89 886.753 1744.53 886.753 1744.53L917.192 1687.15L825.424 1603.45L725.487 1601.64L678.289 1646.5Z" fill="#52769B" stroke="black" stroke-width="4.14451" stroke-miterlimit="10"/>
<path d="M1314.95 1643.03C1314.81 1644.33 1314.47 1646.22 1313.49 1648.28C1312.07 1651.19 1310.09 1653.03 1308.91 1653.94C1309.16 1651.48 1309.42 1648.99 1309.67 1646.5C1301.45 1641.98 1289.77 1635.96 1275.33 1629.88C1263.09 1624.74 1248.76 1618.72 1236.64 1616.43C1217.48 1612.81 1200.1 1617.75 1167.57 1632.79C1142.38 1644.41 1108.92 1661.74 1070.94 1687.01C1072.01 1689.61 1073.08 1692.21 1074.16 1694.81C1072.15 1694.02 1069.89 1692.95 1067.46 1691.5C1064.83 1689.95 1062.66 1688.31 1060.9 1686.84C1044.51 1663.35 1028.12 1639.89 1011.7 1616.43H976.257C959.836 1639.89 943.444 1663.35 927.052 1686.84C925.299 1688.31 923.123 1689.95 920.495 1691.5C918.064 1692.95 915.803 1694.02 913.797 1694.81C914.871 1692.21 915.945 1689.61 917.019 1687.01C879.034 1661.74 845.571 1644.41 820.389 1632.79C787.859 1617.75 770.477 1612.81 751.315 1616.43C739.191 1618.72 724.862 1624.74 712.624 1629.88C698.182 1635.96 686.509 1641.98 678.285 1646.5C678.539 1648.99 678.794 1651.48 679.048 1653.94C677.861 1653.03 675.883 1651.19 674.47 1648.28C673.48 1646.22 673.141 1644.33 673 1643.03C675.176 1595.59 677.352 1548.16 679.557 1500.7L993.977 1502.03L1308.4 1500.7C1310.6 1548.16 1312.78 1595.59 1314.95 1643.03Z" fill="#C7DBE4" stroke="black" stroke-width="4.14451" stroke-miterlimit="10"/>
<path d="M1303.03 1304.58C1301.56 1303.25 1300.12 1301.95 1298.65 1300.65C1302.75 1311.68 1306.73 1324.06 1310.15 1337.74C1314.28 1354.16 1316.85 1369.4 1318.4 1382.94C1238.42 1404.87 1127.32 1426.61 993.978 1426.61C860.607 1426.61 749.508 1404.87 669.525 1382.94C671.107 1369.4 673.651 1354.16 677.777 1337.74C681.197 1324.06 685.182 1311.68 689.28 1300.65C687.839 1301.95 686.369 1303.25 684.928 1304.58C683.458 1305.88 682.017 1307.18 680.575 1308.48C669.383 1287.76 656.354 1265.85 641.206 1243.24C617.522 1207.85 593.188 1177.63 570.295 1152.25C581.459 1138.68 591.746 1128.79 599.236 1122.12C614.413 1108.63 634.564 1093.93 634.875 1094.36H634.903L733.624 1026.88C795.293 1045.62 884.857 1065.58 993.978 1065.58C1103.1 1065.58 1192.64 1045.62 1254.3 1026.88L1353.03 1094.36H1353.05C1353.36 1093.93 1373.52 1108.63 1388.69 1122.12C1396.18 1128.79 1406.47 1138.68 1417.63 1152.25C1394.74 1177.63 1370.41 1207.85 1346.72 1243.24C1331.57 1265.85 1318.54 1287.76 1307.35 1308.48C1305.91 1307.18 1304.47 1305.88 1303.03 1304.58Z" fill="#B5CBDB" stroke="black" stroke-width="4.14451" stroke-miterlimit="10"/>
<path d="M686.361 1297.17C756.226 1288.41 809.388 1272.07 844.377 1259.12C918.877 1231.56 940.498 1208.61 989.618 1211.69C1037.61 1214.69 1053.27 1238.89 1111.37 1264.18C1151.79 1281.77 1211.99 1299.58 1295.73 1297.17" fill="#B5CBDB"/>
<path d="M686.361 1297.17C756.226 1288.41 809.388 1272.07 844.377 1259.12C918.877 1231.56 940.498 1208.61 989.618 1211.69C1037.61 1214.69 1053.27 1238.89 1111.37 1264.18C1151.79 1281.77 1211.99 1299.58 1295.73 1297.17" stroke="black" stroke-width="4.14451" stroke-miterlimit="10"/>
<path d="M755.265 1044.16C742.039 1017.05 696.112 1011.76 666.606 1027.48C629.186 1047.41 613.501 1103.6 634.217 1126.92C652.559 1147.59 697.271 1139.95 723.922 1119.69C744.865 1103.77 767.842 1069.99 755.237 1044.16H755.265Z" fill="#A5BDD1"/>
<path d="M1232.65 1044.16C1245.88 1017.05 1291.81 1011.76 1321.31 1027.48C1358.73 1047.41 1374.42 1103.6 1353.7 1126.92C1335.36 1147.59 1290.65 1139.95 1264 1119.69C1243.05 1103.77 1220.08 1069.99 1232.68 1044.16H1232.65Z" fill="#A5BDD1"/>
<path d="M741.503 1025.98C744.81 1024.53 749.021 1023.32 753.854 1023.32C761.937 1023.32 767.9 1026.82 769.002 1027.42C779.94 1033.3 883.013 1061.4 993.915 1060.86C1102.81 1060.32 1212.16 1032.22 1223.83 1024.53C1224.9 1023.83 1231.01 1019.45 1237.54 1020.92C1241.47 1021.82 1244.18 1024.51 1245.76 1026.43V1043.28C1212.78 1065.75 1122.31 1121.07 993.887 1122.09C864.275 1123.1 772.309 1068.24 739.129 1046.16L741.446 1025.95L741.503 1025.98Z" fill="#52769B" stroke="black" stroke-width="4.14451" stroke-miterlimit="10"/>
<path d="M750.209 1037.48C742.663 1015.72 696.143 1005.57 665.055 1023.04C631.45 1041.92 617.856 1092.01 633.937 1109.11C649.03 1125.2 689.53 1111.4 712.677 1095.43C728.702 1084.35 757.247 1057.84 750.209 1037.46V1037.48Z" fill="#C7DAE4" stroke="black" stroke-width="4.14451" stroke-miterlimit="10"/>
<path d="M572.019 1154.23C563.314 1160.93 552.32 1170.85 541.976 1184.78C534.062 1195.44 528.636 1205.67 524.877 1214.13C545.452 1231 568.514 1252.43 591.605 1279.2C610.428 1301.02 625.661 1322.19 637.927 1341.39C643.777 1337.88 650.136 1333.58 656.722 1328.38C666.076 1320.98 673.594 1313.49 679.529 1306.73C668.592 1286.55 655.93 1265.2 641.205 1243.21C618.087 1208.67 594.374 1179.1 572.019 1154.2V1154.23Z" fill="#EAB032" stroke="black" stroke-width="4.14451" stroke-miterlimit="10"/>
<path d="M521.621 1210.77C542.366 1227.87 565.569 1249.41 588.886 1276.1C609.574 1299.75 626.221 1322.71 639.476 1343.34C635.717 1348.54 630.291 1354.99 622.801 1361.26C616.499 1366.52 610.422 1370.28 605.335 1372.94C594.736 1358.16 580.86 1341.19 562.913 1324.09C540.529 1302.75 518.456 1287.46 500.227 1276.69C500.792 1267.25 502.488 1254.58 507.349 1240.37C511.588 1227.98 516.958 1218.09 521.621 1210.77Z" fill="#F0C33F" stroke="black" stroke-width="4.14451" stroke-miterlimit="10"/>
<path d="M502.998 1279.23C499.352 1289.32 497.6 1297.97 496.668 1304.21C494.83 1316.6 489.743 1351.17 507.859 1363.58C508.396 1363.94 509.753 1364.82 511.816 1365.75C531.148 1374.18 553.758 1357.95 560.173 1353.03C560.202 1355.83 560.399 1360.07 561.163 1365.13C563 1377.17 564.3 1385.71 570.178 1388.68C577.753 1392.52 588.577 1384.86 591.997 1382.46C597.876 1378.3 601.38 1373.36 603.302 1370.16C593.184 1356.2 579.957 1340.23 562.915 1324.11C541.492 1303.88 520.408 1289.43 502.998 1279.25V1279.23Z" fill="#EAB032" stroke="black" stroke-width="4.14451" stroke-miterlimit="10"/>
<path d="M689.275 1300.65C696.963 1267.21 707.024 1230.89 720.308 1192.44C730.171 1163.87 740.685 1137.41 751.34 1113.07" stroke="black" stroke-width="4.14451" stroke-miterlimit="10"/>
<path d="M1237.71 1037.48C1245.25 1015.72 1291.77 1005.57 1322.86 1023.04C1356.46 1041.92 1370.06 1092.01 1353.98 1109.11C1338.89 1125.2 1298.38 1111.4 1275.24 1095.43C1259.21 1084.35 1230.67 1057.84 1237.71 1037.46V1037.48Z" fill="#C7DAE4" stroke="black" stroke-width="4.14451" stroke-miterlimit="10"/>
<path d="M1415.91 1154.23C1424.61 1160.93 1435.6 1170.85 1445.95 1184.78C1453.86 1195.44 1459.29 1205.67 1463.05 1214.13C1442.47 1231 1419.41 1252.43 1396.32 1279.2C1377.5 1301.02 1362.26 1322.19 1350 1341.39C1344.15 1337.88 1337.79 1333.58 1331.2 1328.38C1321.85 1320.98 1314.33 1313.49 1308.39 1306.73C1319.33 1286.55 1331.99 1265.2 1346.72 1243.21C1369.84 1208.67 1393.55 1179.1 1415.91 1154.2V1154.23Z" fill="#52769B" stroke="black" stroke-width="4.14451" stroke-miterlimit="10"/>
<path d="M1466.3 1210.77C1445.56 1227.87 1422.35 1249.41 1399.04 1276.1C1378.35 1299.75 1361.7 1322.71 1348.45 1343.34C1352.21 1348.54 1357.63 1354.99 1365.12 1361.26C1371.42 1366.52 1377.5 1370.28 1382.59 1372.94C1393.19 1358.16 1407.06 1341.19 1425.01 1324.09C1447.39 1302.75 1469.47 1287.46 1487.7 1276.69C1487.13 1267.25 1485.44 1254.58 1480.57 1240.37C1476.34 1227.98 1470.97 1218.09 1466.3 1210.77Z" fill="#B5CBDB" stroke="black" stroke-width="4.14451" stroke-miterlimit="10"/>
<path d="M1484.92 1279.23C1488.56 1289.32 1490.32 1297.97 1491.25 1304.21C1493.09 1316.6 1498.17 1351.17 1480.06 1363.58C1479.52 1363.94 1478.16 1364.82 1476.1 1365.75C1456.77 1374.18 1434.16 1357.95 1427.74 1353.03C1427.72 1355.83 1427.52 1360.07 1426.75 1365.13C1424.92 1377.17 1423.62 1385.71 1417.74 1388.68C1410.16 1392.52 1399.34 1384.86 1395.92 1382.46C1390.04 1378.3 1386.54 1373.36 1384.62 1370.16C1394.73 1356.2 1407.96 1340.23 1425 1324.11C1446.43 1303.88 1467.51 1289.43 1484.92 1279.25V1279.23Z" fill="#52769B" stroke="black" stroke-width="4.14451" stroke-miterlimit="10"/>
<path d="M1298.64 1300.65C1290.96 1267.21 1280.89 1230.89 1267.61 1192.44C1257.75 1163.87 1247.23 1137.41 1236.58 1113.07" stroke="black" stroke-width="4.14451" stroke-miterlimit="10"/>
<path d="M672.545 1423.11C664.094 1467.54 655.644 1511.98 647.193 1556.39C667.74 1563.12 696.37 1570.01 730.907 1570.95C779.405 1572.25 818.295 1561.22 842.261 1552.26C876.572 1564.98 928.886 1579.85 993.946 1581.29C1069.58 1582.99 1129.86 1565.83 1166.49 1552.26C1186.39 1562.78 1222.22 1578.21 1269.19 1580.1C1299.66 1581.32 1325.1 1576.46 1343.04 1571.46C1335.1 1520.97 1327.19 1470.48 1319.25 1420.03C1255.4 1447.87 1141.28 1487.93 993.974 1488.24C849.044 1488.55 736.333 1450.24 672.545 1423.14V1423.11Z" fill="#B5CADA" stroke="black" stroke-width="4.14451" stroke-miterlimit="10"/>
<path d="M669.52 1382.94L662.822 1418.92C727.148 1447.22 843.476 1488.52 993.974 1488.2C1148.97 1487.89 1268.04 1443.57 1332.47 1414.12L1318.4 1382.97C1238.42 1404.9 1127.32 1426.64 993.974 1426.64C860.603 1426.64 749.503 1404.9 669.52 1382.97V1382.94Z" fill="#52769B" stroke="black" stroke-width="4.14451" stroke-miterlimit="10"/>
<path d="M675.058 539.533C680.949 503.184 697.143 442.241 746.435 391.289C821.256 313.979 926.501 306.948 969.276 304.073C989.226 302.736 1007.04 303.049 1022.55 304.073C1063.48 306.806 1179.45 314.577 1257.97 401.451C1275.5 420.835 1310.17 465.212 1324 539.505C1214.63 547.275 1105.26 555.018 995.886 562.789L675.029 539.505L675.058 539.533Z" fill="#B5CBDB" stroke="black" stroke-width="4.17345" stroke-miterlimit="10"/>
<path d="M1020.15 304.996H967.24V470.021H1020.15V304.996Z" fill="#52769B" stroke="black" stroke-width="4.14451" stroke-miterlimit="10"/>
<path d="M1045.42 275.031C1037 285.009 1028.57 294.988 1020.15 304.994H967.244C958.822 294.988 950.4 285.009 942.006 275.031C959.218 242.354 976.458 209.677 993.698 177C1010.94 209.677 1028.18 242.354 1045.42 275.031Z" fill="#C7DBE4" stroke="black" stroke-width="4.14451" stroke-miterlimit="10"/>
<path d="M712.85 608.05C699.736 629.759 684.955 659.666 675.035 697.12C663.306 741.528 662.373 781.724 665.03 813.327C667.093 838.004 681.111 860.109 702.591 872.462C718.842 881.818 735.093 891.147 751.315 900.503C769.855 911.16 781.274 930.919 781.274 952.289V1051.03C755.555 1046.14 725.342 1038.42 692.529 1025.98C653.923 1011.34 622.127 994.068 597.285 978.351C594.374 933.887 594.769 896.8 595.843 870.087C598.359 806.854 601.496 740.228 630.013 663.425C640.752 634.508 652.227 611.809 660.282 597.082C677.804 600.729 695.327 604.375 712.878 608.021L712.85 608.05Z" fill="#B5CBDB" stroke="black" stroke-width="4.14451" stroke-miterlimit="10"/>
<path d="M1275.07 608.05C1288.19 629.759 1302.97 659.666 1312.89 697.12C1324.62 741.528 1325.55 781.724 1322.89 813.327C1320.83 838.004 1306.81 860.109 1285.33 872.462C1269.08 881.818 1252.83 891.147 1236.61 900.503C1218.07 911.16 1206.65 930.919 1206.65 952.289V1051.03C1232.37 1046.14 1262.58 1038.42 1295.39 1025.98C1334 1011.34 1365.8 994.068 1390.64 978.351C1393.55 933.887 1393.15 896.8 1392.08 870.087C1389.57 806.854 1386.43 740.228 1357.91 663.425C1347.17 634.508 1335.7 611.809 1327.64 597.082C1310.12 600.729 1292.6 604.375 1275.05 608.021L1275.07 608.05Z" fill="#B5CBDB" stroke="black" stroke-width="4.14451" stroke-miterlimit="10"/>
<path d="M1334.77 597.113L1329.85 601.947C1233.14 615.261 1121.45 624.702 997.571 624.702C873.612 624.702 761.862 615.261 665.091 601.947C663.48 600.336 661.898 598.725 660.287 597.113C657.291 594.089 655.934 589.707 656.697 585.411L663 549.342C664.074 543.179 669.161 538.741 675.068 538.798H675.181C779.074 508.976 882.967 479.126 986.888 449.304C991.523 447.975 996.441 447.947 1001.1 449.275C1107.26 479.126 1213.41 508.976 1319.54 538.798H1319.65C1325.67 538.741 1330.87 543.179 1331.97 549.342L1338.42 585.411C1339.18 589.707 1337.82 594.089 1334.77 597.113Z" fill="#B5CBDB" stroke="black" stroke-width="4.14451" stroke-miterlimit="10"/>
<path d="M993.984 483.023H993.955C983.731 483.023 975.443 491.313 975.443 501.538V573.733C975.443 583.959 983.731 592.248 993.955 592.248H993.984C1004.21 592.248 1012.5 583.959 1012.5 573.733V501.538C1012.5 491.313 1004.21 483.023 993.984 483.023Z" fill="#52769B" stroke="black" stroke-width="4.14451" stroke-miterlimit="10"/>
<path d="M920.502 529.719C920.502 522.787 914.891 517.168 907.968 517.168C901.045 517.168 895.434 522.787 895.434 529.719V578.565C895.434 585.496 901.045 591.115 907.968 591.115C914.891 591.115 920.502 585.496 920.502 578.565V529.719Z" fill="#52769B" stroke="black" stroke-width="4.14451" stroke-miterlimit="10"/>
<path d="M1092.48 529.719C1092.48 522.787 1086.87 517.168 1079.94 517.168C1073.02 517.168 1067.41 522.787 1067.41 529.719V578.565C1067.41 585.496 1073.02 591.115 1079.94 591.115C1086.87 591.115 1092.48 585.496 1092.48 578.565V529.719Z" fill="#52769B" stroke="black" stroke-width="4.14451" stroke-miterlimit="10"/>
<path d="M527.263 1051.03H332.986C331.364 1063.19 325.824 1091.63 303.146 1117.78C288.089 1135.11 271.471 1144.54 261.004 1149.38C260.851 1203.43 264.095 1521.32 465.228 1633.54C483.376 1643.68 503.943 1652.56 527.263 1659.29" fill="#6B9FCE"/>
<path d="M527.263 1051.03H332.986C331.364 1063.19 325.824 1091.63 303.146 1117.78C288.089 1135.11 271.471 1144.54 261.004 1149.38C260.851 1203.43 264.095 1521.32 465.228 1633.54C483.376 1643.68 503.943 1652.56 527.263 1659.29" stroke="black" stroke-width="4.14451" stroke-miterlimit="10"/>
<path d="M527.256 1622.03C526.706 1622.27 526.185 1622.52 525.634 1622.76C510.363 1617.62 495.703 1611.16 481.962 1603.5C405.726 1560.97 351.525 1479.4 320.921 1361.05C301.609 1286.4 296.559 1214.69 295.58 1169.5C308.067 1161.41 319.268 1151.65 329.092 1140.35C344.976 1122.04 354.524 1102.75 360.217 1085.45H527.256" fill="#FFC739"/>
<path d="M527.256 1622.03C526.706 1622.27 526.185 1622.52 525.634 1622.76C510.363 1617.62 495.703 1611.16 481.962 1603.5C405.726 1560.97 351.525 1479.4 320.921 1361.05C301.609 1286.4 296.559 1214.69 295.58 1169.5C308.067 1161.41 319.268 1151.65 329.092 1140.35C344.976 1122.04 354.524 1102.75 360.217 1085.45H527.256" stroke="black" stroke-width="4.14451" stroke-miterlimit="10"/>
<path d="M527.264 1659.29C527.264 1659.29 576.078 1636.76 595.726 1623.59C787.066 1495.42 793.523 1217.27 793.492 1152.32C782.75 1146.72 761.388 1133.74 744.342 1108.41C728.794 1085.29 724.234 1062.91 722.704 1051.03H527.264" fill="#416082"/>
<path d="M527.264 1659.29C527.264 1659.29 576.078 1636.76 595.726 1623.59C787.066 1495.42 793.523 1217.27 793.492 1152.32C782.75 1146.72 761.388 1133.74 744.342 1108.41C728.794 1085.29 724.234 1062.91 722.704 1051.03H527.264" stroke="black" stroke-width="4.14451" stroke-miterlimit="10"/>
<path d="M527.264 1085.42H695.374C700.21 1100.36 707.096 1114.63 715.849 1127.61C727.356 1144.73 742.046 1159.61 758.909 1171.43C757.44 1235.39 748.657 1298.53 733.202 1355.18C703.362 1464.68 650.661 1545.36 576.598 1594.99C561.173 1605.34 544.616 1614.41 527.264 1622.03" fill="#F0B300"/>
<path d="M527.264 1085.42H695.374C700.21 1100.36 707.096 1114.63 715.849 1127.61C727.356 1144.73 742.046 1159.61 758.909 1171.43C757.44 1235.39 748.657 1298.53 733.202 1355.18C703.362 1464.68 650.661 1545.36 576.598 1594.99C561.173 1605.34 544.616 1614.41 527.264 1622.03" stroke="black" stroke-width="4.14451" stroke-miterlimit="10"/>
<path d="M527.264 1622.03C544.616 1614.38 561.173 1605.34 576.598 1594.99C650.661 1545.36 703.362 1464.71 733.202 1355.18C748.626 1298.53 757.44 1235.39 758.909 1171.43C742.016 1159.58 727.356 1144.7 715.849 1127.61C707.096 1114.63 700.21 1100.36 695.374 1085.42H527.264" fill="#6C8B9E"/>
<path d="M527.264 1622.03C544.616 1614.38 561.173 1605.34 576.598 1594.99C650.661 1545.36 703.362 1464.71 733.202 1355.18C748.626 1298.53 757.44 1235.39 758.909 1171.43C742.016 1159.58 727.356 1144.7 715.849 1127.61C707.096 1114.63 700.21 1100.36 695.374 1085.42H527.264" stroke="black" stroke-width="4.14451" stroke-linecap="round" stroke-linejoin="round"/>
<path d="M527.256 1085.42H360.217C354.524 1102.72 344.976 1122.01 329.092 1140.32C319.268 1151.62 308.067 1161.39 295.58 1169.47C296.559 1214.63 301.609 1286.38 320.921 1361.03C351.525 1479.37 405.726 1560.94 481.962 1603.48C495.703 1611.13 510.332 1617.59 525.634 1622.74C526.185 1622.49 526.706 1622.25 527.256 1622" fill="#B5CBDB"/>
<path d="M527.256 1085.42H360.217C354.524 1102.72 344.976 1122.01 329.092 1140.32C319.268 1151.62 308.067 1161.39 295.58 1169.47C296.559 1214.63 301.609 1286.38 320.921 1361.03C351.525 1479.37 405.726 1560.94 481.962 1603.48C495.703 1611.13 510.332 1617.59 525.634 1622.74C526.185 1622.49 526.706 1622.25 527.256 1622" stroke="black" stroke-width="4.14451" stroke-linecap="round" stroke-linejoin="round"/>
<path d="M1435.06 572.648H1413.64V1830.31H1435.06V572.648Z" fill="#705F36" stroke="black" stroke-width="4.14451" stroke-miterlimit="10"/>
<mask id="mask0_3263_34831" style="mask-type:luminance" maskUnits="userSpaceOnUse" x="1435" y="607" width="299" height="593">
<path d="M1733.51 1146.18H1638.67L1634.08 1199.96L1500.24 1070.95L1536.25 1025.31C1502.52 991.495 1468.79 957.679 1435.05 923.833V607.785C1515.94 714.411 1596.79 821.037 1677.67 927.663C1669.19 932.391 1660.68 937.15 1652.21 941.908L1733.51 1146.18Z" fill="white"/>
</mask>
<g mask="url(#mask0_3263_34831)">
<path d="M1652.21 941.904L1733.51 1146.18H1638.67L1634.08 1199.99L1500.24 1070.94L1612.66 928.438L1652.21 941.904Z" fill="#EF6724"/>
<path d="M1435.05 607.785C1515.94 714.411 1596.82 821.037 1677.67 927.663C1652.18 941.938 1626.68 956.182 1601.19 970.457C1597.87 1007.15 1594.57 1043.81 1591.25 1080.49C1539.18 1028.27 1487.12 976.083 1435.05 923.862V607.815V607.785Z" fill="#EF6724"/>
<path d="M1500.24 1070.95L1591.24 1080.49L1536.93 1026.24L1500.24 1070.95Z" fill="#9B5537"/>
<path d="M1591.24 1080.49C1599.78 1047.22 1608.32 1013.94 1616.86 980.662C1628.63 967.764 1640.4 954.836 1652.18 941.938L1601.16 970.457L1591.21 1080.49H1591.24Z" fill="#9B5537"/>
</g>
<path d="M1733.51 1146.18H1638.67L1634.08 1199.96L1500.24 1070.95L1536.25 1025.31C1502.52 991.495 1468.79 957.679 1435.05 923.833V607.785C1515.94 714.411 1596.79 821.037 1677.67 927.663C1669.19 932.391 1660.68 937.15 1652.21 941.908L1733.51 1146.18Z" stroke="black" stroke-width="4.14451" stroke-linejoin="round"/>
<mask id="mask1_3263_34831" style="mask-type:luminance" maskUnits="userSpaceOnUse" x="1390" y="198" width="69" height="375">
<path d="M1458.48 548.501L1434.34 572.651H1414.36L1390.21 548.501C1401.59 431.7 1412.98 314.87 1424.33 198.039L1458.48 548.501Z" fill="white"/>
</mask>
<g mask="url(#mask1_3263_34831)">
<path d="M1414.36 572.651L1390.21 548.501C1401.59 431.7 1412.98 314.87 1424.33 198.039C1435.71 314.87 1447.1 431.7 1458.45 548.531L1434.31 572.651H1414.36Z" fill="#416082"/>
<path d="M1424.33 198.039V572.651H1435.05L1458.48 548.501L1424.33 198.039Z" fill="#1E2F3F"/>
</g>
<path d="M1458.48 548.501L1434.34 572.651H1414.36L1390.21 548.501C1401.59 431.7 1412.98 314.87 1424.33 198.039L1458.48 548.501Z" stroke="black" stroke-width="4.14451" stroke-linejoin="round"/>
<path d="M1458.48 548.496L1435.05 572.646H1434.34L1458.48 548.496Z" fill="#1E2F3F"/>
<path d="M1424.33 575.041V441.062" stroke="black" stroke-width="4.14451" stroke-linecap="round" stroke-linejoin="round"/>
<path d="M1609.31 886.844C1608.32 888.55 1606.58 889.957 1604.64 890.645C1602.69 891.333 1600.41 891.243 1598.7 890.495C1597.6 890.016 1597.06 889.657 1596.22 888.879C1595.53 888.251 1594.93 887.533 1594.57 886.754C1594.66 886.934 1594.51 886.605 1594.51 886.605C1594.45 886.485 1594.42 886.336 1594.36 886.216C1594.3 886.096 1594.27 885.946 1594.24 885.827C1594.24 885.857 1594.27 886.096 1594.24 885.857C1594.21 885.617 1594.18 885.378 1594.18 885.168C1594.18 885.109 1594.21 884.779 1594.18 885.109C1594.18 884.989 1594.21 884.839 1594.24 884.72C1594.27 884.6 1594.3 884.45 1594.33 884.33C1594.33 884.39 1594.24 884.6 1594.33 884.39C1594.42 884.181 1594.54 883.941 1594.66 883.732C1594.48 884.031 1594.87 883.463 1594.93 883.403C1595.05 883.253 1595.38 882.894 1595.44 882.834C1596.79 881.577 1599.09 880.829 1600.62 881.517C1601.31 881.847 1601.91 882.475 1602.21 883.104C1602.69 884.121 1602.78 884.749 1602.81 885.827C1602.81 885.946 1602.81 886.515 1602.81 886.336C1602.81 886.096 1602.81 886.425 1602.81 886.425C1602.81 886.545 1602.81 886.665 1602.78 886.784C1602.75 887.054 1602.69 887.323 1602.63 887.562C1602.54 887.952 1602.63 887.742 1602.45 888.101C1601.94 889.208 1601.58 889.747 1600.71 890.645C1599.21 892.171 1597.06 893.308 1594.84 893.787C1592.11 894.386 1589.21 893.757 1586.81 892.201C1586.84 892.201 1586.99 892.321 1586.81 892.201C1586.66 892.081 1586.51 891.992 1586.36 891.872C1586.12 891.692 1585.91 891.513 1585.7 891.333C1585.31 891.004 1584.95 890.675 1584.63 890.316C1584.48 890.166 1584.36 890.016 1584.21 889.867C1584 889.627 1584.48 890.226 1584.15 889.777C1584.06 889.657 1583.94 889.508 1583.85 889.388C1582.29 887.173 1578.78 889.568 1580.34 891.752C1583.52 896.211 1589.27 898.934 1594.72 898.066C1600.8 897.109 1607 892.5 1607.06 885.827C1607.09 882.984 1605.98 879.931 1603.62 878.285C1600.77 876.31 1597.09 876.729 1594.21 878.525C1591.66 880.081 1589.69 882.984 1590.11 886.096C1590.5 888.999 1592.38 891.453 1594.72 893.039C1597.75 895.104 1601.25 895.792 1604.85 894.954C1608.35 894.146 1611.32 891.782 1613.08 888.67C1613.65 887.682 1613.08 886.306 1612.12 885.857C1611.05 885.348 1609.88 885.857 1609.31 886.844Z" fill="#FFEECC"/>
<path d="M1552.75 829.415C1553.02 829.385 1553.35 829.325 1553.71 829.266C1553.98 830.313 1554.19 831.42 1554.34 832.528C1555.03 837.256 1554.58 841.565 1553.68 845.216C1552.51 844.797 1551.4 843.899 1550.54 842.672V842.613C1547.33 838.842 1545.77 836.418 1545.44 835.49C1545.35 835.251 1545.17 834.802 1545.29 834.293C1545.38 833.874 1545.65 833.575 1545.89 833.306C1546.88 832.258 1547.54 831.57 1548.95 830.792C1549.7 830.373 1550.96 829.655 1552.72 829.385L1552.75 829.415Z" fill="#FFEECC"/>
<path d="M1572.49 932.056C1568.03 936.754 1561.26 941.572 1556.95 943.727C1554.4 944.984 1551.91 946.36 1549.34 947.587C1547.27 948.575 1546.34 948.934 1544.9 949.922C1542.93 951.268 1542.09 952.136 1540.47 953.393C1538.64 954.829 1537.71 955.548 1536.64 955.847C1535.83 956.086 1534.75 956.056 1532.59 956.026C1530.44 956.026 1530.05 955.847 1529.87 955.548C1529.3 954.62 1530.79 952.794 1530.91 952.645C1530.61 952.884 1529.9 953.363 1528.85 953.483C1528.37 953.543 1527.11 953.692 1526.72 953.184C1525.76 951.957 1529.6 947.258 1531.03 945.493C1532.68 943.488 1535.05 940.854 1538.22 938.041C1538.22 938.041 1538.04 938.041 1537.92 938.041C1526.45 938.161 1516.12 933.552 1516.12 933.552C1500.54 926.639 1490.8 911.527 1491.82 910.389C1492.03 910.18 1492.51 910.569 1493.86 911.018C1498.65 912.574 1505.78 911.856 1509.71 907.337C1510.18 906.798 1512.4 904.105 1512.58 900.215C1513 891.117 1501.74 885.252 1500.78 884.773C1498.92 883.845 1489.78 879.925 1481.43 882.947C1479.6 883.606 1478.7 884.264 1477.62 883.785C1476.63 883.366 1475.29 881.93 1475.65 868.553C1475.77 864.004 1475.89 859.815 1476.63 854.039C1477.08 850.478 1477.8 846.528 1478.85 842.069C1480.26 836.113 1481.94 831.206 1483.28 827.674C1482.72 826.328 1481.43 822.707 1482.45 818.278C1483.07 815.494 1484.33 813.489 1485.2 812.352C1492.24 812.233 1499.25 812.113 1506.29 812.023C1506.38 810.108 1506.47 808.163 1506.56 806.247C1509.59 804.991 1515.31 803.105 1522.56 803.584C1528.88 804.003 1533.43 806.008 1534.93 806.726C1542.24 810.198 1550.18 817.44 1553.29 827.824C1552.99 827.854 1552.72 827.914 1552.51 827.944C1550.48 828.273 1549.04 829.081 1548.23 829.53C1546.64 830.428 1545.83 831.265 1544.81 832.313C1544.54 832.582 1544.04 833.151 1543.83 834.019C1543.62 834.946 1543.92 835.724 1544.04 836.054C1544.57 837.43 1546.58 840.303 1549.31 843.565C1550.18 844.822 1551.31 845.779 1552.48 846.348C1552.72 846.468 1552.96 846.558 1553.23 846.647C1551.79 851.645 1549.61 855.206 1548.68 856.613C1552.33 856.912 1558.98 857.959 1565.84 862.239C1575.94 868.523 1579.98 877.74 1581.51 881.361C1585.85 891.656 1585.16 900.993 1584.54 905.332C1583.61 911.587 1580.94 922.988 1572.43 931.996L1572.49 932.056Z" fill="#FFEECC"/>
<path d="M1504.94 908.632C1498.53 912.313 1489.78 907.645 1488.68 906.957C1488.47 906.837 1487.39 906.238 1485.89 905.52C1485.83 905.49 1484.69 904.981 1483.76 904.742C1481.76 904.263 1479.93 904.981 1478.85 905.43C1475.17 906.957 1474.9 909.051 1471.81 909.56C1471.39 909.62 1469.62 909.919 1469.08 909.081C1468.84 908.692 1468.93 908.243 1469.53 906.178C1469.8 905.281 1470.04 904.443 1470.28 903.665C1469.32 904.114 1468.37 904.712 1467.47 905.58C1466.33 906.687 1466.06 907.465 1465.13 907.705C1464.2 907.944 1462.97 907.495 1462.46 906.777C1460.43 903.964 1467.95 895.136 1468.64 894.328C1471.54 890.976 1474.15 887.954 1478.88 885.919C1484.93 883.315 1490.38 884.093 1492.48 884.452C1493.11 884.542 1496.1 885.051 1499.67 886.727C1502.55 888.073 1505.42 889.42 1507.61 892.502C1508.57 893.849 1510.87 897.111 1510.12 901.301C1509.29 906.029 1505.21 908.453 1504.91 908.602L1504.94 908.632Z" fill="#FFEECC"/>
<path d="M1497.96 922.244C1497 923.321 1496.28 924.309 1495.77 925.027C1495.03 926.074 1494.67 926.643 1494.37 927.481C1494.22 927.87 1494.16 928.169 1494.1 928.468C1493.95 929.366 1494.01 929.605 1493.8 929.815C1493.44 930.174 1492.51 929.965 1491.94 929.456C1491.19 928.738 1491.4 927.6 1491.4 927.511C1491.31 927.66 1490.8 928.738 1490.02 928.768C1489.6 928.768 1489.27 928.468 1489.03 928.229C1486.85 925.865 1486.37 923.082 1486.37 923.082C1486.1 920.568 1486.37 917.336 1487 914.732C1487.27 913.535 1488.26 910.214 1489.48 910.184C1490.26 910.184 1490.38 911.47 1492.24 914.463C1492.96 915.66 1493.95 916.947 1495.86 919.52C1496.7 920.628 1497.42 921.555 1497.93 922.244H1497.96Z" fill="#FFEECC"/>
<path d="M1510 932.184C1511.8 933.231 1514.59 934.727 1518.15 936.104C1523.9 938.318 1528.82 939.156 1528.73 939.605C1528.64 940.174 1521.27 937.301 1516.47 940.742C1515.43 941.491 1513.93 942.957 1511.92 942.837C1511.14 942.777 1510.45 942.508 1509.05 941.939C1507.64 941.341 1506.56 940.892 1506.56 940.264C1506.56 939.875 1506.95 939.575 1507.73 938.947C1508.36 938.438 1508.96 938.109 1509.38 937.899C1508.39 937.78 1507.7 937.959 1507.19 938.288C1506.74 938.588 1506.59 938.857 1506.2 938.947C1505.75 939.067 1505.12 938.887 1504.13 937.84C1504.46 937.121 1504.97 936.194 1505.75 935.266C1507.25 933.47 1509.02 932.632 1510 932.243V932.184Z" fill="#FFEECC"/>
<path d="M1508.71 810.472C1506.83 815.948 1501.73 819.599 1496.31 819.539C1491.67 819.48 1487.39 816.697 1485.23 812.387C1485.08 811.579 1484.99 810.681 1484.93 809.694C1484.84 808.287 1484.87 807.001 1484.99 805.893C1492.09 804.158 1499.19 802.422 1506.26 800.656C1507.01 801.883 1507.97 803.798 1508.44 806.342C1508.74 807.928 1508.77 809.365 1508.71 810.472Z" fill="#EF6724"/>
<path d="M1500.57 831.384C1495.72 830.516 1490.32 825.399 1490.32 825.399C1488.2 823.633 1485.95 821.299 1483.97 818.276C1483.58 817.708 1483.25 817.109 1482.92 816.541C1482.98 816.331 1483.07 816.152 1483.16 815.942C1483.25 815.703 1483.37 815.463 1483.46 815.254C1483.55 815.374 1483.64 815.493 1483.7 815.553C1490.62 824.441 1498.71 828.332 1500.33 828.75C1500.54 828.81 1500.75 828.87 1500.93 828.9C1501.17 828.96 1502.01 829.349 1502.1 830.127C1502.16 830.486 1502.01 830.965 1501.68 831.204C1501.59 831.264 1501.26 831.504 1500.57 831.384Z" fill="#EF6724"/>
<path d="M1500.96 812.541C1499.55 813.888 1497.12 816.192 1493.95 815.953C1492.81 815.863 1491.82 815.474 1490.98 814.935C1489.45 813.978 1488.35 812.571 1487.51 811.554C1486.67 810.476 1485.77 809.369 1485.29 808.112C1485.02 807.424 1484.87 806.676 1484.93 805.868C1485.32 801.588 1490.86 799.374 1492.36 798.775C1495.06 797.698 1500.51 796.381 1503.83 798.027C1503.98 798.117 1504.13 798.177 1504.28 798.297C1504.88 798.656 1505.39 799.164 1505.78 799.793C1508.15 803.564 1503.86 809.758 1500.93 812.541H1500.96Z" fill="#FAE2BA"/>
<path d="M1496.09 803.581C1497.86 802.572 1498.84 800.963 1498.28 799.987C1497.72 799.012 1495.83 799.039 1494.07 800.048C1492.3 801.057 1491.32 802.666 1491.88 803.642C1492.44 804.617 1494.32 804.59 1496.09 803.581Z" fill="#EF6724"/>
<path d="M1500.84 807.398C1502.22 805.729 1502.65 803.805 1501.8 803.099C1500.94 802.393 1499.13 803.174 1497.75 804.842C1496.37 806.511 1495.94 808.435 1496.79 809.141C1497.65 809.847 1499.46 809.066 1500.84 807.398Z" fill="#EF6724"/>
<path d="M1516 823.546C1518.21 822.409 1521.21 822.409 1523.16 824.174C1524.29 825.192 1524.95 826.658 1525.25 828.124C1525.43 829.082 1525.49 829.71 1525.46 830.548C1525.37 832.105 1527.77 832.314 1527.89 830.728C1528.07 827.586 1526.99 824.234 1524.59 822.169C1521.99 819.925 1518.03 819.775 1515.01 821.331C1513.63 822.049 1514.62 824.264 1516.03 823.546H1516Z" fill="#EF6724"/>
<path d="M1570.7 909.142C1570.64 908.813 1563.99 911.895 1557.66 908.992C1552.33 906.568 1550.27 901.331 1549.94 900.464C1549.58 899.506 1546.94 892.204 1551.01 887.057C1551.28 886.728 1554.76 882.478 1558.71 883.436C1560.6 883.885 1562.7 885.501 1562.79 887.386C1562.88 889.481 1560.36 889.9 1559.49 892.832C1558.83 895.137 1559.37 898.399 1561.59 900.045C1564.05 901.87 1567.22 900.793 1568.06 900.494C1571.14 899.446 1572.7 896.902 1573.21 895.975C1575.37 891.965 1573.9 887.775 1573.39 886.368C1571.83 881.91 1568.45 879.635 1567.52 879.037C1564.76 877.241 1556.71 874.428 1549.85 878.887C1544.57 882.328 1543.2 887.985 1542.9 889.301C1541.28 896.065 1544.15 901.421 1545.08 902.977C1545.71 904.055 1548.89 909.112 1555.27 911.117C1563.36 913.631 1570.76 909.471 1570.7 909.112V909.142Z" fill="#EF6724"/>
<path d="M1548.74 856.651C1548.56 857.369 1548.26 858.297 1547.81 859.374C1547.63 859.823 1547.33 860.452 1546.82 861.439C1545.98 863.085 1545.08 864.492 1544.24 865.689C1543.49 866.766 1542.39 868.232 1540.92 869.759C1532.08 878.946 1520.4 880.233 1520.52 880.741C1520.61 881.1 1526.96 881.071 1533.49 877.539C1533.49 877.539 1541.46 873.26 1547.69 863.055C1547.75 862.965 1547.78 862.906 1547.78 862.906C1548.35 861.978 1548.92 860.871 1549.46 859.584C1549.88 858.566 1550.17 857.639 1550.41 856.771C1550.15 856.741 1549.88 856.711 1549.58 856.681C1549.31 856.681 1549.04 856.621 1548.8 856.621L1548.74 856.651Z" fill="#EF6724"/>
<path d="M1556.47 845.337C1555.63 845.666 1554.64 845.606 1553.68 845.247C1552.51 844.828 1551.4 843.93 1550.53 842.703V842.643C1547.33 838.873 1545.77 836.449 1545.44 835.521C1545.35 835.282 1545.17 834.833 1545.29 834.324C1545.38 833.905 1545.65 833.606 1545.89 833.336C1546.88 832.289 1547.54 831.601 1548.95 830.823C1549.7 830.404 1550.95 829.685 1552.72 829.416C1552.99 829.386 1553.32 829.326 1553.68 829.266C1554.82 829.147 1556.35 829.147 1557.84 829.865C1558.11 829.985 1558.38 830.164 1558.65 830.344C1559.28 830.793 1560.93 831.96 1561.11 834.025C1561.23 835.76 1560.24 837.077 1559.79 837.586L1559.55 837.855L1559.61 838.214C1559.82 839.471 1559.7 840.728 1559.28 841.865C1558.59 843.721 1557.63 844.888 1556.47 845.337Z" fill="#FFEECC"/>
<path d="M1541.94 800.958C1543.43 801.257 1544.45 801.886 1545.08 802.305C1545.98 802.933 1547.51 804.01 1547.9 805.986C1548.17 807.392 1547.72 808.529 1547.57 808.888C1546.73 810.983 1544.84 811.791 1544.45 811.941C1543.97 811.522 1543.31 810.923 1542.51 810.265C1541.28 809.277 1539.42 807.811 1536.81 806.404C1535.35 805.626 1533.28 804.699 1530.7 803.98C1530.85 803.292 1531.21 802.185 1532.02 801.018C1532.47 800.389 1533.91 798.384 1536.42 798.025C1536.9 797.965 1538.19 797.786 1539.6 798.504C1541.1 799.252 1541.76 800.539 1541.94 800.958Z" fill="#FFEECC"/>
<path d="M1530.67 844.292C1530.67 844.292 1529.78 845.609 1527.95 846.627C1527.17 847.075 1526.48 847.255 1526.12 847.375C1525.79 847.465 1524.68 847.734 1523.45 847.614C1523.07 847.584 1519.41 847.165 1518.54 844.562C1518.18 843.484 1518.24 841.868 1519.29 840.971C1519.92 840.432 1521.03 840.103 1521.69 840.522C1522.44 841.001 1521.93 841.988 1522.71 843.006C1523.34 843.814 1524.59 844.412 1525.7 844.053C1526.96 843.664 1527.41 842.287 1527.53 841.898C1527.95 840.552 1527.5 839.385 1527.32 838.995C1526.51 837.26 1524.68 836.721 1524.08 836.542C1522.17 835.973 1520.52 836.601 1520.07 836.781C1517.91 837.619 1515.58 839.863 1515.49 842.916C1515.4 846.178 1517.97 848.183 1518.78 848.751C1519.35 849.14 1521.06 850.188 1523.37 850.038C1525.55 849.918 1527.05 848.811 1527.71 848.302C1529.87 846.656 1530.79 844.412 1530.67 844.322V844.292Z" fill="#EF6724"/>
</g>
</g>
<defs>
<clipPath id="clip0_3263_34831">
<rect width="2000" height="2000" fill="white"/>
</clipPath>
<clipPath id="clip1_3263_34831">
<rect width="2000" height="2000" fill="white"/>
</clipPath>
</defs>
</svg>
