<svg width="2000" height="2000" viewBox="0 0 2000 2000" fill="none" xmlns="http://www.w3.org/2000/svg">
<g clip-path="url(#clip0_3263_35230)">
<g clip-path="url(#clip1_3263_35230)">
<path d="M731.725 1552.51L739.285 1626.34C723.819 1643.29 725.845 1651.94 726.907 1654.74C731.354 1666.38 753.985 1667.32 784.076 1668.55C800.431 1669.22 818.466 1669.86 842.11 1664.82C865.901 1659.76 884.578 1651.25 897.351 1644.18L911.483 1585.31L731.7 1552.48L731.725 1552.51Z" fill="#2D2019" stroke="black" stroke-width="4.91866" stroke-miterlimit="10"/>
<path d="M1273.02 1552.51L1265.46 1626.34C1280.93 1643.29 1278.9 1651.94 1277.84 1654.74C1273.39 1666.38 1250.76 1667.32 1220.67 1668.55C1204.31 1669.22 1186.28 1669.86 1162.64 1664.82C1138.84 1659.76 1120.17 1651.25 1107.39 1644.18L1093.26 1585.31L1273.04 1552.48L1273.02 1552.51Z" fill="#2D2019" stroke="black" stroke-width="4.91866" stroke-miterlimit="10"/>
<path d="M725.775 1557.64C801.127 1573.07 876.479 1588.49 951.831 1603.91C962.207 1575.93 972.559 1547.95 982.935 1519.97H1010.06C1025.33 1547.95 1040.62 1575.93 1055.89 1603.91C1131.44 1589.92 1206.99 1575.93 1282.54 1561.94C1285.18 1534.21 1286.52 1502.52 1285.06 1467.6C1283.35 1426.24 1278.12 1389.51 1271.82 1358.42C1187.84 1365.59 1096.98 1370.16 1000.03 1370.55C902.173 1370.97 810.49 1367.09 725.775 1360.52C721.377 1388.77 718.116 1422.16 718.141 1459.66C718.165 1496.66 721.427 1529.64 725.775 1557.62V1557.64Z" fill="#23201F" stroke="black" stroke-width="4.91866" stroke-miterlimit="10"/>
<path d="M940.414 1506.43L984.686 1520H1011.81L1059.64 1506.43" stroke="black" stroke-width="4.91866" stroke-miterlimit="10" stroke-linecap="round"/>
<path d="M853.808 786.998C897.225 786.998 932.422 751.785 932.422 708.347C932.422 664.909 897.225 629.695 853.808 629.695C810.392 629.695 775.195 664.909 775.195 708.347C775.195 751.785 810.392 786.998 853.808 786.998Z" stroke="black" stroke-width="4.91866" stroke-linecap="round" stroke-linejoin="round"/>
<path d="M1146.28 786.998C1189.69 786.998 1224.89 751.785 1224.89 708.347C1224.89 664.909 1189.69 629.695 1146.28 629.695C1102.86 629.695 1067.66 664.909 1067.66 708.347C1067.66 751.785 1102.86 786.998 1146.28 786.998Z" stroke="black" stroke-width="4.91866" stroke-linecap="round" stroke-linejoin="round"/>
<path d="M932.426 708.348C942.975 702.168 965.482 690.897 996.092 690.007C1031.25 688.969 1057.11 702.168 1067.69 708.348" stroke="black" stroke-width="4.91866" stroke-linecap="round" stroke-linejoin="round"/>
<path d="M910.876 560.871C910.755 578.756 910.625 596.616 910.503 614.501L925.605 604.509L934.261 638.855L936.707 583.652L921.949 594.107L910.876 560.871Z" fill="#FFB573"/>
<path d="M656.6 1300.38L387.26 1131.88L652.178 1309.2L656.6 1300.38Z" fill="#492F21" stroke="black" stroke-width="1.63955" stroke-linecap="round" stroke-linejoin="round"/>
<path d="M916.849 1377.6C934.835 1384.99 962.011 1393.76 996.08 1396.09C1033.41 1398.63 1063.92 1392.43 1083.41 1386.84L1102.98 1288.17L1071.43 1098.98L1053.35 1088.97L996.055 1127.85L947.682 1087.19L915.886 1105.78L897.332 1306.46L916.825 1377.57L916.849 1377.6Z" fill="#715643" stroke="black" stroke-width="4.91866" stroke-miterlimit="10"/>
<path d="M917.445 1360.54C934.986 1368.13 961.866 1377.3 995.762 1379.9C1034.28 1382.84 1065.56 1376.04 1084.92 1370.21" stroke="#B93C25" stroke-width="4.91866" stroke-miterlimit="10"/>
<path d="M1053.37 1088.99L1015.72 1114.55L996.081 1127.87L979.305 1113.79L947.707 1087.21C949.066 1082.1 950.449 1077.01 951.833 1071.89C966.36 1071.89 981.134 1071.77 996.081 1071.52C1013.65 1071.22 1030.89 1070.75 1047.86 1070.11C1049.69 1076.41 1051.52 1082.69 1053.37 1088.99Z" fill="white" stroke="black" stroke-width="4.91866" stroke-miterlimit="10"/>
<path d="M980.713 1071.74L984.987 1083.7H1005.64L1009.74 1071.52H996.08L980.713 1071.74Z" fill="#B93C25" stroke="black" stroke-width="4.91866" stroke-miterlimit="10"/>
<path d="M1015.72 1114.55L996.084 1127.87L979.309 1113.78L984.991 1083.7H1005.64L1015.72 1114.55Z" fill="#B93C25" stroke="black" stroke-width="4.91866" stroke-miterlimit="10"/>
<path d="M1454.26 1209.67C1437.83 1228.4 1411.34 1254.06 1372.88 1275.29C1345.85 1290.22 1320.65 1298.7 1300.83 1303.69C1291.67 1288.37 1282.48 1273.07 1273.31 1257.74C1281.05 1290.44 1287.99 1326.53 1293.1 1365.68C1296.73 1393.39 1299.08 1419.77 1300.49 1444.61C1236.48 1474.05 1172.46 1503.49 1108.45 1532.9C1103.34 1535.17 1097.46 1531.91 1096.69 1526.37C1093.13 1500.94 1088.81 1465.4 1085.65 1422.98C1079.5 1340.13 1083.28 1304.58 1078.93 1244.59C1075.92 1202.89 1068.43 1142.24 1047.85 1068.38C1078.06 1066.87 1110.55 1064.03 1144.94 1059.33C1170.44 1055.85 1194.58 1051.67 1217.31 1047.05C1235.96 1043.27 1253.52 1039.21 1269.9 1035.06C1274.18 1033.97 1277.44 1031.35 1279.51 1028.07C1308.3 1045.52 1345.48 1072.09 1382.34 1111.22C1415.84 1146.79 1438.82 1181.86 1454.26 1209.67Z" fill="#231A14" stroke="black" stroke-width="4.91866" stroke-linecap="round" stroke-linejoin="round"/>
<path d="M951.825 1071.89C931.245 1145.75 923.784 1206.41 920.745 1248.1C916.397 1308.12 920.177 1343.64 914.025 1426.49C910.863 1468.93 906.539 1504.45 903.006 1529.89C902.216 1535.45 896.361 1538.69 891.247 1536.41L703.855 1453.36C702.447 1428.17 702.496 1399.38 705.436 1367.79C710.006 1318.65 720.333 1276.63 731.13 1243.28C726.485 1255.84 720.482 1269.71 712.601 1284.24C708.079 1292.57 703.435 1300.23 698.84 1307.2C679.026 1302.21 653.826 1293.73 626.798 1278.8C588.332 1257.57 561.847 1231.91 545.418 1213.18C560.859 1185.37 583.835 1150.3 617.336 1114.73C654.197 1075.6 691.378 1049.03 720.16 1031.58C722.236 1034.87 725.497 1037.49 729.771 1038.57C746.151 1042.73 763.716 1046.78 782.369 1050.56C805.098 1055.21 829.26 1059.39 854.732 1062.87C889.122 1067.57 921.61 1070.38 951.825 1071.89Z" fill="#231A14" stroke="black" stroke-width="4.91866" stroke-linecap="round" stroke-linejoin="round"/>
<mask id="mask0_3263_35230" style="mask-type:luminance" maskUnits="userSpaceOnUse" x="1077" y="1061" width="122" height="333">
<path d="M1197.78 1369.52C1197.48 1382.79 1186.64 1393.39 1173.37 1393.39H1134.76C1127.71 1393.39 1122.06 1387.59 1122.23 1380.52C1122.55 1368.26 1122.62 1355.5 1122.45 1342.3C1122.08 1318.3 1120.77 1292.77 1118.15 1265.9C1117.73 1261.53 1117.26 1257.1 1116.77 1252.65C1114.89 1235.89 1112.62 1219.68 1110.05 1204.03C1105.08 1173.88 1098.93 1145.85 1092.21 1120.09C1087.39 1101.63 1082.31 1084.32 1077.12 1068.28L1144.93 1061.09C1150.42 1075.6 1155.95 1091.42 1161.26 1108.5C1169.32 1134.4 1176.88 1163.2 1182.98 1194.64C1186.44 1212.31 1189.43 1230.83 1191.83 1250.13C1192.17 1252.9 1192.49 1255.64 1192.81 1258.36C1195.98 1286.29 1197.51 1312.72 1197.9 1337.31C1198.08 1348.43 1198.03 1359.18 1197.78 1369.52Z" fill="white"/>
</mask>
<g mask="url(#mask0_3263_35230)">
<path d="M1197.78 1369.52C1197.48 1382.79 1186.63 1393.39 1173.37 1393.39H1134.75C1127.71 1393.39 1122.05 1387.58 1122.23 1380.51C1122.55 1368.26 1122.62 1355.5 1122.45 1342.3C1131.89 1344.43 1142.98 1345.84 1155.38 1345.49C1172.28 1345.02 1186.71 1341.39 1197.9 1337.31C1198.07 1348.43 1198.02 1359.18 1197.78 1369.52Z" fill="#B93C25" stroke="black" stroke-width="4.91866" stroke-miterlimit="10"/>
<path d="M1197.9 1337.31C1186.71 1341.39 1172.28 1345.02 1155.38 1345.49C1142.98 1345.84 1131.89 1344.43 1122.45 1342.3C1122.08 1318.3 1120.77 1292.77 1118.15 1265.9C1117.73 1261.53 1117.26 1257.1 1116.77 1252.65C1114.89 1235.89 1112.62 1219.68 1110.05 1204.03C1105.08 1173.88 1098.93 1145.85 1092.21 1120.09C1087.39 1101.63 1082.31 1084.32 1077.12 1068.28L1144.93 1061.09C1150.42 1075.6 1155.95 1091.42 1161.26 1108.5C1169.32 1134.4 1176.88 1163.2 1182.98 1194.64C1186.44 1212.31 1189.43 1230.83 1191.83 1250.13C1192.17 1252.9 1192.49 1255.64 1192.81 1258.36C1195.98 1286.29 1197.51 1312.72 1197.9 1337.31Z" fill="#B93C25" stroke="black" stroke-width="4.91866" stroke-miterlimit="10"/>
<path d="M1182.98 1194.64C1173.05 1198.55 1160.62 1202.2 1146.07 1203.98C1132.36 1205.67 1120.11 1205.22 1110.05 1204.03C1105.08 1173.88 1098.93 1145.85 1092.21 1120.09C1103.21 1119.52 1115.36 1118.31 1128.43 1116.04C1140.36 1113.99 1151.36 1111.34 1161.26 1108.5C1169.32 1134.4 1176.88 1163.2 1182.98 1194.64Z" fill="#EC8E2A"/>
<path d="M1197.9 1337.31C1186.71 1341.39 1172.28 1345.02 1155.39 1345.49C1142.98 1345.84 1131.89 1344.43 1122.45 1342.3C1122.08 1318.3 1120.77 1292.77 1118.15 1265.9C1129.3 1266.54 1141.72 1266.47 1155.16 1265.14C1169.07 1263.78 1181.67 1261.3 1192.81 1258.36C1195.98 1286.29 1197.51 1312.72 1197.9 1337.31Z" fill="#EC8E2A"/>
<path d="M1148.18 1347.59C1148.62 1354.12 1148.84 1361.26 1148.67 1368.9C1148.47 1377.8 1147.76 1386 1146.77 1393.37" stroke="black" stroke-width="1.63955" stroke-miterlimit="10"/>
<path d="M1171.39 1346.23C1171.61 1354.26 1171.56 1362.91 1171.11 1372.06C1170.74 1379.55 1170.13 1386.69 1169.34 1393.39" stroke="black" stroke-width="1.63955" stroke-miterlimit="10"/>
</g>
<path d="M1197.79 1369.52C1197.49 1382.79 1186.64 1393.39 1173.38 1393.39H1134.76C1127.72 1393.39 1122.06 1387.59 1122.24 1380.52C1122.56 1368.26 1122.63 1355.5 1122.46 1342.3C1122.09 1318.3 1120.78 1292.77 1118.16 1265.9C1117.74 1261.53 1117.27 1257.1 1116.78 1252.65C1114.9 1235.89 1112.63 1219.68 1110.06 1204.03C1105.09 1173.88 1098.94 1145.85 1092.22 1120.09C1087.4 1101.63 1082.31 1084.32 1077.12 1068.28L1144.94 1061.09C1150.43 1075.6 1155.96 1091.42 1161.27 1108.5C1169.33 1134.4 1176.89 1163.2 1182.99 1194.64C1186.45 1212.31 1189.44 1230.83 1191.83 1250.13C1192.18 1252.9 1192.5 1255.64 1192.82 1258.36C1195.98 1286.29 1197.52 1312.72 1197.91 1337.31C1198.08 1348.43 1198.03 1359.18 1197.79 1369.52Z" stroke="black" stroke-width="4.91866" stroke-miterlimit="10"/>
<mask id="mask1_3263_35230" style="mask-type:luminance" maskUnits="userSpaceOnUse" x="718" y="991" width="564" height="81">
<path d="M1279.51 1029.82C1277.43 1033.11 1274.17 1035.73 1269.9 1036.82C1253.52 1040.97 1235.95 1045.02 1217.3 1048.8C1201.09 1052.09 1184.05 1055.18 1166.21 1057.95C1134.61 1062.89 1100.54 1066.85 1064.25 1069.17C1042.31 1070.6 1019.56 1071.42 996.063 1071.52C967.775 1071.64 940.599 1070.7 914.609 1068.9C878.934 1066.5 845.532 1062.52 814.625 1057.63C783.966 1052.81 755.801 1047.07 730.355 1041.04C718.348 1038.2 713.975 1023.2 722.77 1014.54C724.401 1012.91 726.155 1011.31 728.032 1009.7C738.063 1001.1 748.093 995.809 755.851 992.571C758.939 991.285 762.348 991.038 765.634 991.854C784.583 996.476 805.287 1000.97 827.571 1004.98C856.724 1010.22 888.643 1014.67 922.984 1017.54C945.689 1019.46 969.431 1020.7 994.186 1021.05C1016.1 1021.37 1037.3 1020.95 1057.68 1019.96C1092.61 1018.3 1125.22 1014.94 1155.17 1010.59C1185.95 1006.14 1213.92 1000.68 1238.77 994.943C1240.65 994.523 1242.58 994.424 1244.5 994.696C1251.69 995.759 1264.98 999.022 1276.79 1009.9C1276.87 1009.97 1276.94 1010.05 1277.04 1010.12C1282.89 1015.56 1283.22 1023.81 1279.51 1029.82Z" fill="white"/>
</mask>
<g mask="url(#mask1_3263_35230)">
<path d="M1279.51 1029.82C1277.43 1033.11 1274.17 1035.73 1269.9 1036.82C1253.52 1040.97 1235.95 1045.02 1217.3 1048.8C1154.99 1061.46 1080.35 1071.17 996.059 1071.52C890.492 1071.96 800.144 1057.55 730.351 1041.04C718.344 1038.2 713.971 1023.2 722.766 1014.54C724.397 1012.91 726.151 1011.31 728.029 1009.7C738.059 1001.1 748.089 995.809 755.847 992.571C758.935 991.285 762.345 991.038 765.63 991.854C825.714 1006.54 903.315 1019.76 994.182 1021.05C1092.26 1022.43 1175.62 1009.5 1238.77 994.943C1240.64 994.523 1242.57 994.424 1244.5 994.696C1251.69 995.759 1264.98 999.022 1276.79 1009.9C1276.86 1009.97 1276.94 1010.05 1277.04 1010.12C1282.89 1015.56 1283.21 1023.81 1279.51 1029.82Z" fill="#B93C25" stroke="black" stroke-width="4.91866" stroke-miterlimit="10"/>
<path d="M916.159 1043.1C914.627 1052.64 914.306 1061.36 914.603 1068.9C878.928 1066.5 845.526 1062.52 814.619 1057.63C814.916 1049.99 815.879 1041.19 818.177 1031.58C820.647 1021.2 824.081 1012.3 827.565 1004.98C856.717 1010.22 888.637 1014.67 922.978 1017.54C920.211 1024.83 917.715 1033.38 916.159 1043.1Z" fill="#EC8E2A"/>
<path d="M1166.2 1057.95C1134.61 1062.89 1100.54 1066.85 1064.24 1069.17C1064.74 1060.54 1064.49 1050.26 1062.49 1038.89C1061.28 1031.95 1059.57 1025.62 1057.67 1019.96C1092.61 1018.3 1125.22 1014.94 1155.16 1010.59C1158.74 1017.16 1161.98 1025.07 1164.05 1034.27C1166.01 1043.02 1166.48 1051.08 1166.2 1057.95Z" fill="#EC8E2A"/>
</g>
<path d="M1279.51 1029.82C1277.44 1033.11 1274.18 1035.73 1269.9 1036.82C1253.52 1040.97 1235.96 1045.02 1217.31 1048.8C1201.1 1052.09 1184.05 1055.18 1166.21 1057.95C1134.62 1062.89 1100.55 1066.85 1064.25 1069.17C1042.32 1070.6 1019.56 1071.42 996.067 1071.52C967.779 1071.64 940.603 1070.7 914.613 1068.9C878.938 1066.5 845.536 1062.52 814.629 1057.63C783.97 1052.81 755.805 1047.07 730.359 1041.04C718.352 1038.2 713.979 1023.2 722.774 1014.54C724.405 1012.91 726.159 1011.31 728.036 1009.7C738.067 1001.1 748.097 995.809 755.855 992.571C758.943 991.285 762.352 991.038 765.638 991.854C784.587 996.476 805.291 1000.97 827.575 1004.98C856.728 1010.22 888.647 1014.67 922.988 1017.54C945.692 1019.46 969.434 1020.7 994.189 1021.05C1016.1 1021.37 1037.3 1020.95 1057.68 1019.96C1092.62 1018.3 1125.23 1014.94 1155.17 1010.59C1185.95 1006.14 1213.92 1000.68 1238.77 994.943C1240.65 994.523 1242.58 994.424 1244.51 994.696C1251.7 995.759 1264.99 999.022 1276.8 1009.9C1276.87 1009.97 1276.94 1010.05 1277.04 1010.12C1282.9 1015.56 1283.22 1023.81 1279.51 1029.82Z" stroke="black" stroke-width="4.91866" stroke-miterlimit="10"/>
</g>
</g>
<defs>
<clipPath id="clip0_3263_35230">
<rect width="2000" height="2000" fill="white"/>
</clipPath>
<clipPath id="clip1_3263_35230">
<rect width="2000" height="2000" fill="white"/>
</clipPath>
</defs>
</svg>
