<svg width="2000" height="2000" viewBox="0 0 2000 2000" fill="none" xmlns="http://www.w3.org/2000/svg">
<g clip-path="url(#clip0_3263_31850)">
<path d="M1465.91 1603.4V1603.45C1465.71 1603.73 1465.51 1603.99 1465.3 1604.27C1451.52 1622.9 1421.93 1637.38 1402.53 1626.58C1402.4 1626.51 1402.28 1626.43 1402.12 1626.36C1400.19 1625.24 1398.47 1623.92 1396.94 1622.5C1392.25 1618.1 1389.53 1612.7 1387.98 1608.79C1387.52 1609.09 1387.07 1609.42 1386.58 1609.75C1384.12 1611.45 1381.33 1613.28 1378.18 1615.11C1377.57 1615.49 1376.93 1615.84 1376.27 1616.23C1374.85 1617.04 1373.35 1617.85 1371.78 1618.66C1370.86 1619.15 1369.9 1619.63 1368.93 1620.11C1367.97 1620.59 1366.98 1621.08 1365.96 1621.53C1364.95 1622.01 1363.91 1622.5 1362.84 1622.95C1361.8 1623.41 1360.71 1623.87 1359.61 1624.3C1358.52 1624.76 1357.4 1625.19 1356.24 1625.62C1355.22 1626 1354.18 1626.38 1353.11 1626.76C1349.46 1628.03 1345.57 1629.2 1341.51 1630.24C1333.69 1632.22 1326.19 1633.39 1319.11 1634C1297.27 1635.83 1279.52 1632.12 1269.57 1629.4C1262.61 1631.26 1254.86 1633.06 1246.46 1634.68C1229.19 1638.04 1209.05 1640.58 1186.55 1640.98C1150.9 1641.62 1120.81 1636.72 1098.53 1631.36C1075.05 1639.74 1041.17 1648.93 999.65 1650.81C958.13 1648.93 924.254 1639.74 900.764 1631.36C878.493 1636.72 848.401 1641.62 812.747 1640.98C791.01 1640.58 771.456 1638.19 754.569 1634.99H754.518C745.452 1633.31 737.174 1631.38 729.733 1629.4C722.547 1631.36 711.272 1633.85 697.33 1634.38C685.75 1634.81 672.292 1633.92 657.791 1630.24C653.728 1629.2 649.843 1628.03 646.186 1626.76C645.12 1626.38 644.078 1626 643.063 1625.62C641.895 1625.19 640.777 1624.76 639.685 1624.3C638.593 1623.87 637.501 1623.41 636.46 1622.95C635.394 1622.5 634.352 1622.01 633.337 1621.53C632.321 1621.08 631.33 1620.59 630.366 1620.11C629.401 1619.63 628.436 1619.15 627.521 1618.66C625.947 1617.85 624.449 1617.04 623.027 1616.23C622.366 1615.84 621.731 1615.49 621.122 1615.11C617.973 1613.28 615.18 1611.45 612.716 1609.75C612.234 1609.42 611.777 1609.09 611.32 1608.79C610.837 1610.06 610.202 1611.45 609.415 1612.92C607.054 1617.52 603.244 1622.8 597.251 1626.31C597.099 1626.38 596.972 1626.46 596.82 1626.53C577.418 1637.4 547.809 1622.93 533.994 1604.27C533.791 1603.99 533.588 1603.73 533.41 1603.45C520.865 1585.88 520.205 1564.45 522.389 1556.76C522.414 1556.68 522.44 1556.63 522.44 1556.58C522.541 1556.3 522.617 1556.02 522.719 1555.77C522.821 1555.52 522.922 1555.24 523.024 1554.98L617.694 1306.99C622.062 1334.33 644.307 1323.72 649.31 1314.53C650.173 1312.93 652.738 1310.08 656.471 1306.38C661.093 1301.78 667.543 1295.86 674.806 1289.39C701.063 1266 737.936 1235.66 737.936 1235.66L741.796 1211.11L769.628 1033.47C846.293 1048.45 922.984 1063.49 999.65 1078.47C1077.79 1063.18 1155.95 1047.89 1234.09 1032.61L1260.6 1201.74L1266.06 1236.53C1266.06 1236.53 1298.11 1262.91 1323.73 1285.4C1335.08 1295.41 1345.16 1304.62 1350.65 1310.46C1352.68 1312.62 1354.1 1314.32 1354.69 1315.42C1359.21 1323.72 1377.85 1333.19 1384.58 1314.73L1476.28 1554.98C1476.38 1555.24 1476.48 1555.52 1476.58 1555.77C1476.68 1556.02 1476.76 1556.3 1476.86 1556.58C1476.88 1556.66 1476.91 1556.73 1476.91 1556.81C1479.09 1564.53 1478.41 1585.88 1465.91 1603.4Z" fill="#C20000"/>
<path d="M1424.8 1583.7L1396.94 1622.5C1392.25 1618.1 1389.53 1612.7 1387.98 1608.79C1387.52 1609.09 1387.07 1609.42 1386.58 1609.75C1384.12 1611.45 1381.33 1613.28 1378.18 1615.11C1377.57 1615.49 1376.93 1615.84 1376.27 1616.22C1374.85 1617.04 1373.35 1617.85 1371.78 1618.66C1370.86 1619.14 1369.9 1619.63 1368.93 1620.11C1367.97 1620.59 1366.98 1621.07 1365.96 1621.53C1364.95 1622.01 1363.91 1622.5 1362.84 1622.95C1361.8 1623.41 1360.71 1623.87 1359.61 1624.3C1358.52 1624.76 1357.4 1625.19 1356.24 1625.62C1355.22 1626 1354.18 1626.38 1353.11 1626.76C1349.46 1628.03 1345.57 1629.2 1341.51 1630.24C1333.69 1632.22 1326.2 1633.39 1319.11 1634C1313.07 1606.07 1288.71 1497.01 1269.85 1498.79C1251.66 1500.47 1247.45 1604.39 1246.46 1634.68C1229.19 1638.04 1209.05 1640.57 1186.55 1640.98C1150.9 1641.62 1120.81 1636.72 1098.54 1631.36C1075.05 1639.74 1041.17 1648.93 999.65 1650.81C958.13 1648.93 924.254 1639.74 900.764 1631.36C878.494 1636.72 848.401 1641.62 812.748 1640.98C791.01 1640.57 771.457 1638.19 754.569 1634.99H754.519C748.652 1576.39 738.139 1491 725.391 1491C712.72 1491.05 702.816 1575.67 697.356 1634.35H697.331C685.751 1634.81 672.292 1633.92 657.792 1630.24C653.729 1629.2 649.843 1628.03 646.186 1626.76C645.12 1626.38 644.079 1626 643.063 1625.62C641.895 1625.19 640.777 1624.76 639.686 1624.3C638.594 1623.87 637.502 1623.41 636.46 1622.95C635.394 1622.5 634.353 1622.01 633.337 1621.53C632.321 1621.07 631.331 1620.59 630.366 1620.11C629.401 1619.63 628.436 1619.14 627.522 1618.66C625.947 1617.85 624.449 1617.04 623.027 1616.22C622.367 1615.84 621.732 1615.49 621.122 1615.11C617.973 1613.28 615.18 1611.45 612.717 1609.75C612.234 1609.42 611.777 1609.09 611.32 1608.79C610.838 1610.05 610.203 1611.45 609.416 1612.92L599.436 1599.92L626.684 1452.1L656.471 1306.38C661.093 1301.78 667.543 1295.86 674.806 1289.39C701.064 1266 737.936 1235.66 737.936 1235.66L741.796 1211.11L1112.3 1158.98L1260.6 1201.74L1266.06 1236.53C1266.06 1236.53 1298.11 1262.91 1323.73 1285.4C1335.08 1295.41 1345.16 1304.62 1350.65 1310.46L1424.8 1583.7Z" fill="#890100"/>
<path d="M674.806 1289.39L614.977 1602.43C614.469 1605.02 613.707 1607.46 612.717 1609.75C609.517 1617.06 603.956 1622.8 597.251 1626.3C597.099 1626.38 596.972 1626.45 596.82 1626.53C587.627 1631.2 576.377 1631.74 566.194 1626.53C566.042 1626.43 565.89 1626.35 565.712 1626.28C553.167 1619.78 542.882 1612.13 534.629 1604.62C534.223 1604.24 533.817 1603.86 533.41 1603.45C521.043 1591.36 516.879 1573.16 522.389 1556.76C522.414 1556.68 522.44 1556.63 522.44 1556.58C522.618 1556.04 522.821 1555.51 523.024 1554.98L617.694 1306.98C622.062 1334.33 644.307 1323.72 649.31 1314.52C650.173 1312.92 652.738 1310.08 656.471 1306.37C661.093 1301.78 667.543 1295.86 674.806 1289.39Z" fill="#BE0106"/>
<path d="M673.808 1288.27C674.287 1287.84 674.987 1287.77 675.546 1288.08C676.105 1288.4 676.4 1289.04 676.279 1289.67L616.45 1602.72L616.448 1602.72C615.92 1605.42 615.127 1607.96 614.093 1610.34L614.091 1610.35C610.75 1617.98 604.943 1623.97 597.946 1627.63C597.938 1627.64 597.93 1627.64 597.922 1627.64C597.873 1627.67 597.826 1627.69 597.754 1627.73C597.689 1627.77 597.599 1627.82 597.498 1627.87L597.499 1627.87C587.906 1632.74 576.15 1633.3 565.512 1627.87C565.46 1627.84 565.41 1627.81 565.362 1627.78C565.312 1627.74 565.249 1627.71 565.121 1627.66C565.087 1627.64 565.054 1627.63 565.022 1627.61C552.347 1621.04 541.957 1613.32 533.619 1605.73C533.614 1605.72 533.609 1605.72 533.604 1605.71C533.204 1605.34 532.784 1604.94 532.361 1604.52C519.572 1592.02 515.278 1573.21 520.967 1556.28C520.97 1556.27 520.973 1556.26 520.977 1556.25C520.988 1556.2 521.001 1556.15 521.017 1556.1C521.206 1555.54 521.421 1554.97 521.622 1554.44L521.623 1554.44L616.293 1306.45L616.343 1306.33C616.615 1305.77 617.215 1305.43 617.849 1305.49C618.524 1305.56 619.068 1306.08 619.175 1306.75C620.236 1313.39 622.352 1317.51 624.82 1319.92C627.257 1322.29 630.173 1323.13 633.179 1322.96C636.223 1322.78 639.359 1321.57 642.055 1319.81C644.758 1318.05 646.888 1315.83 647.992 1313.81C648.513 1312.84 649.469 1311.63 650.69 1310.25C651.936 1308.84 653.537 1307.17 655.414 1305.31C660.066 1300.68 666.541 1294.74 673.808 1288.27ZM672.498 1293.47C667.037 1298.38 662.181 1302.86 658.411 1306.57L657.528 1307.44C655.673 1309.28 654.123 1310.89 652.938 1312.23C651.729 1313.6 650.974 1314.6 650.63 1315.24L650.627 1315.24C649.23 1317.81 646.703 1320.37 643.692 1322.33C640.674 1324.29 637.038 1325.74 633.35 1325.95C629.623 1326.17 625.846 1325.1 622.727 1322.06C620.433 1319.83 618.571 1316.6 617.306 1312.21L524.426 1555.51C524.231 1556.03 524.048 1556.51 523.888 1556.98C523.871 1557.05 523.857 1557.1 523.847 1557.13C523.833 1557.17 523.819 1557.21 523.816 1557.22C523.814 1557.22 523.813 1557.23 523.813 1557.23L523.811 1557.23C518.562 1572.86 522.39 1590.15 533.904 1601.83L534.459 1602.38L534.471 1602.39C534.857 1602.78 535.246 1603.14 535.655 1603.52C543.818 1610.95 553.986 1618.51 566.386 1624.94C566.558 1625.01 566.738 1625.1 566.926 1625.22C576.641 1630.17 587.363 1629.65 596.141 1625.19L596.149 1625.19C596.198 1625.16 596.245 1625.14 596.317 1625.1C596.379 1625.07 596.463 1625.02 596.557 1624.97C602.967 1621.62 608.281 1616.14 611.34 1609.15C612.286 1606.97 613.016 1604.64 613.503 1602.15L672.498 1293.47Z" fill="black"/>
<path d="M1465.92 1603.4V1603.45C1465.48 1603.86 1465.08 1604.24 1464.67 1604.62C1456.39 1612.14 1446.13 1619.78 1433.56 1626.28C1433.41 1626.35 1433.26 1626.43 1433.08 1626.53C1422.95 1631.74 1411.72 1631.2 1402.53 1626.58C1402.4 1626.51 1402.28 1626.43 1402.12 1626.35C1395.4 1622.85 1389.78 1617.11 1386.58 1609.75C1385.57 1607.46 1384.81 1605.03 1384.32 1602.44L1323.73 1285.4C1335.08 1295.41 1345.17 1304.62 1350.65 1310.46C1352.68 1312.62 1354.1 1314.32 1354.69 1315.41C1359.21 1323.72 1377.85 1333.19 1384.58 1314.73L1476.28 1554.98C1476.48 1555.51 1476.68 1556.05 1476.86 1556.58C1476.89 1556.66 1476.91 1556.73 1476.91 1556.81C1482.4 1573.19 1478.21 1591.37 1465.92 1603.4Z" fill="#BE0106" stroke="black" stroke-width="3" stroke-linecap="round" stroke-linejoin="round"/>
<path d="M1344.5 1308C1335.51 1303.15 1326.45 1297.69 1316.54 1290.76C1297.63 1277.53 1282.59 1263.62 1270.94 1251.13C1282.77 1304.73 1292.6 1374.25 1290.13 1455.25C1288.48 1509.02 1281.78 1556.73 1273.48 1597H1066C1052.16 1576.26 1038.35 1555.52 1024.51 1534.77H970.039C956.631 1555.52 943.248 1576.26 929.84 1597C860.209 1595.91 790.578 1594.85 720.972 1593.75C710.484 1551.53 700.834 1495.24 701.037 1428.66C701.266 1355.64 713.303 1294.62 725.568 1250.26C713.074 1263.52 697.051 1277.96 676.964 1291.35C669.777 1296.14 662.717 1300.36 655.937 1304.07C625.159 1272.91 594.407 1241.76 563.629 1210.63C576.783 1181.58 597.327 1144.36 629.451 1106.47C676.71 1050.74 728.184 1018.09 762.644 1000.01C838.598 1018.9 914.553 1037.76 990.507 1056.66C1074.71 1039.44 1158.9 1022.2 1243.1 1004.98C1275.66 1020.42 1335.13 1054.24 1383.26 1120.72C1411.37 1159.54 1426.76 1197.27 1435.44 1225.2C1405.3 1252.9 1375.15 1280.61 1345.04 1308.31L1344.5 1308Z" fill="#4985C8" stroke="black" stroke-width="3" stroke-miterlimit="10"/>
<path d="M1270.94 1251.15C1261.24 1226.47 1250.72 1201.13 1239.32 1175.2C1226.6 1146.26 1213.67 1118.58 1200.67 1092.23" stroke="black" stroke-width="3" stroke-miterlimit="10" stroke-linecap="round"/>
<path d="M725.568 1250.26C734.939 1224.69 745.452 1198.11 757.26 1170.68C767.672 1146.51 778.287 1123.51 788.953 1101.7" stroke="black" stroke-width="3" stroke-miterlimit="10" stroke-linecap="round"/>
<path d="M702.182 1376.58C797.207 1380.21 895.61 1382.22 997.238 1382.19C1097.8 1382.19 1195.21 1380.19 1289.27 1376.58C1289.93 1385.37 1290.39 1394.53 1290.62 1404.03C1290.75 1409.69 1290.8 1415.25 1290.77 1420.66C1202.02 1458.7 1113.26 1496.73 1024.51 1534.77H970.041C880.373 1499.4 790.706 1464.03 701.039 1428.66C700.277 1421.35 699.82 1413.17 699.947 1404.23C700.099 1393.98 700.963 1384.71 702.182 1376.58Z" fill="#C20000" stroke="black" stroke-width="3" stroke-miterlimit="10"/>
<path d="M700.098 1398.85C795.276 1403.73 895.177 1406.49 999.395 1406.42C1100.59 1406.34 1197.7 1403.6 1290.34 1398.85C1289.98 1391.44 1289.63 1384.02 1289.27 1376.61C1195.18 1380.21 1097.77 1382.2 997.236 1382.22C895.608 1382.22 797.205 1380.24 702.18 1376.61C701.494 1384.02 700.783 1391.44 700.098 1398.85Z" fill="#D0C100" stroke="black" stroke-width="3" stroke-miterlimit="10"/>
<path d="M813.586 1407.38C813.434 1397.51 813.281 1387.63 813.129 1377.75L787.125 1376.61C786.49 1386.54 785.856 1396.49 785.221 1406.42" fill="#C20000"/>
<path d="M813.586 1407.38C813.434 1397.51 813.281 1387.63 813.129 1377.75L787.125 1376.61C786.49 1386.54 785.856 1396.49 785.221 1406.42" stroke="black" stroke-width="3" stroke-miterlimit="10"/>
<path d="M1182.62 1406.39V1377.6L1208.62 1376.58C1209.61 1386.51 1210.63 1396.46 1211.62 1406.39" fill="#C20000"/>
<path d="M1182.62 1406.39V1377.6L1208.62 1376.58C1209.61 1386.51 1210.63 1396.46 1211.62 1406.39" stroke="black" stroke-width="3" stroke-miterlimit="10"/>
<path d="M995.231 1425.1C1019.62 1425.1 1039.39 1412.38 1039.39 1396.69C1039.39 1381 1019.62 1368.28 995.231 1368.28C970.842 1368.28 951.07 1381 951.07 1396.69C951.07 1412.38 970.842 1425.1 995.231 1425.1Z" fill="#D0C100" stroke="black" stroke-width="3" stroke-miterlimit="10"/>
<path d="M1285.97 1028.85C1283.13 1026.41 1279.52 1023.69 1275.15 1021.1C1270.99 1018.62 1267.05 1016.81 1263.65 1015.52L990.508 1066.81C908.764 1048.93 826.994 1031.08 745.224 1013.21C741.796 1014.12 737.834 1015.47 733.568 1017.42C728.439 1019.78 724.249 1022.42 720.973 1024.81C721.582 1021.15 723.969 1009.37 734.025 1002.77C736.006 1001.48 738.012 1000.56 739.891 999.928C741.009 998.354 742.863 996.17 745.732 994.342C751.116 990.914 756.601 990.939 758.759 991.066C774.732 996.018 790.985 1000.87 807.542 1005.54C871.256 1023.54 932.761 1037.46 991.498 1048.12C1056.41 1037.28 1124.03 1023.34 1193.89 1005.54C1212.25 1000.87 1230.33 996.043 1248.13 991.066C1250.7 990.889 1256.61 990.813 1262.63 994.342C1265.68 996.145 1267.76 998.278 1269.11 999.928C1271.67 1000.61 1275.13 1001.98 1278.3 1004.78C1287.98 1013.33 1286.2 1027.3 1285.97 1028.85Z" fill="#C20000" stroke="black" stroke-width="3" stroke-miterlimit="10"/>
<path d="M739.891 999.926C748.449 1000.99 757.819 1002.59 767.824 1004.9C779.15 1007.52 789.384 1010.64 798.399 1013.87" stroke="black" stroke-miterlimit="10" stroke-linecap="round"/>
<path d="M1269.11 999.926C1261.54 1000.79 1252.76 1002.31 1243.13 1004.98C1233.43 1007.67 1225.02 1010.92 1218.07 1014.09" stroke="black" stroke-miterlimit="10" stroke-linecap="round"/>
<path d="M992.767 1266.69L1103.71 1159.87L1068.59 1119.9L916.533 1118.02L877.324 1157.25L992.767 1266.69Z" fill="#BE0106" stroke="black" stroke-width="3" stroke-linecap="round" stroke-linejoin="round"/>
<path d="M937.459 1132.22C935.25 1132.67 920.14 1136.18 912.801 1150.55C908.459 1159.08 908.992 1167.21 909.449 1170.68L894.873 1156.11L918.794 1132.19H937.485L937.459 1132.22Z" fill="#EDD02D" stroke="black" stroke-width="3" stroke-linecap="round" stroke-linejoin="round"/>
<path d="M948.303 1207.37L937.155 1194.8C935.403 1192.82 936.799 1189.68 939.466 1189.68H1031.98C1037.69 1192.7 1039.21 1199.02 1036.93 1202.47C1035.38 1204.81 1032.03 1205.9 1028.6 1205.47C1013.97 1206.1 999.345 1206.76 984.693 1207.4L980.401 1198.54H948.633L948.252 1207.4L948.303 1207.37Z" fill="#EDD02D" stroke="black" stroke-width="3" stroke-linecap="round" stroke-linejoin="round"/>
<path d="M969.684 1220.65H1015.83L992.285 1244.19L969.684 1220.65Z" fill="#EDD02D" stroke="black" stroke-width="3" stroke-linecap="round" stroke-linejoin="round"/>
<path d="M1028.17 1133.44L1037.13 1141.28L1044.78 1133.44H1028.17Z" fill="#EDD02D" stroke="black" stroke-width="3" stroke-linecap="round" stroke-linejoin="round"/>
<path d="M1061.79 1135.01V1156.87H1032.36C1030.33 1153.12 1026.92 1147.89 1021.44 1142.86C1017.4 1139.18 1013.41 1136.69 1010.24 1135.01H959.805C950.232 1135.42 943.274 1143.39 943.832 1151.44C944.289 1157.89 949.521 1163.7 956.732 1165.25H1046.96C1048.51 1165.63 1054.73 1167.31 1058.72 1173.38C1061.23 1177.21 1061.71 1181.02 1061.79 1182.9L1087.01 1158.96L1061.79 1135.01Z" fill="#EDD02D" stroke="black" stroke-width="3" stroke-linecap="round" stroke-linejoin="round"/>
<path d="M713.405 1559.5L770.999 1594.54L942.766 1577.02L908.458 1666.42C880.423 1675.59 856.679 1682.37 839.081 1687.12C787.734 1700.93 770.593 1702.27 752.207 1697.5C743.979 1695.37 716.63 1688.23 713.405 1670.28C711.729 1660.86 717.341 1652.2 720.972 1647.58L713.405 1559.53V1559.5Z" fill="#BE0106" stroke="black" stroke-width="3" stroke-linecap="round" stroke-linejoin="round"/>
<path d="M1279.42 1559.5L1221.82 1594.54L1050.06 1577.02L1084.36 1666.42C1112.4 1675.59 1136.14 1682.37 1153.74 1687.12C1205.09 1700.93 1222.23 1702.27 1240.62 1697.5C1248.84 1695.37 1276.19 1688.23 1279.42 1670.28C1281.09 1660.86 1275.48 1652.2 1271.85 1647.58L1279.42 1559.53V1559.5Z" fill="#BE0106" stroke="black" stroke-width="3" stroke-linecap="round" stroke-linejoin="round"/>
</g>
<defs>
<clipPath id="clip0_3263_31850">
<rect width="2000" height="2000" fill="white"/>
</clipPath>
</defs>
</svg>
