<svg width="2000" height="2000" viewBox="0 0 2000 2000" fill="none" xmlns="http://www.w3.org/2000/svg">
<path d="M701.677 1362.71L698.782 1528.58C698.549 1542.49 707.339 1554.95 720.523 1559.34C746.841 1568.08 777.139 1576.33 811.031 1582.59C849.034 1589.59 883.805 1592.64 914.026 1593.52C925.065 1593.83 935.457 1588.38 941.507 1579.12L966.971 1540.21C972.84 1531.22 982.87 1525.81 993.599 1525.81C1003.94 1525.81 1013.61 1530.83 1019.58 1539.26L1046.6 1577.44C1052.49 1585.76 1061.98 1590.75 1072.16 1590.88C1109.55 1591.4 1152.41 1589.41 1199.36 1582.56C1227.33 1578.47 1253.26 1573.2 1276.99 1567.31C1291.36 1563.74 1301.42 1550.79 1301.24 1535.97L1299.2 1373.24L701.651 1362.69L701.677 1362.71Z" fill="#643F2F" stroke="#603924" stroke-width="3" stroke-linecap="round" stroke-linejoin="round"/>
<path d="M1013.98 1284.74C1019.53 1284.74 1024.04 1280.24 1024.04 1274.69C1024.04 1269.13 1019.53 1264.63 1013.98 1264.63C1008.43 1264.63 1003.92 1269.13 1003.92 1274.69C1003.92 1280.24 1008.43 1284.74 1013.98 1284.74Z" fill="#B37E54" stroke="#603924" stroke-width="3" stroke-linecap="round" stroke-linejoin="round"/>
<path d="M993.84 1129.56V1375.07C993.84 1381.67 988.359 1386.91 981.767 1386.63C887.924 1382.67 794.107 1378.72 700.264 1374.76C692.715 1374.45 687.493 1367.08 689.664 1359.85C700.548 1323.76 711.432 1287.69 722.315 1251.6C714.431 1260.16 706.546 1268.72 698.661 1277.27C694.137 1282.19 686.407 1282.26 681.805 1277.43L573.253 1164.15C568.987 1159.67 568.961 1152.67 573.201 1148.17C601.974 1117.82 630.773 1087.47 659.547 1057.12C675.653 1040.13 694.912 1026.51 716.266 1016.94C725.366 1012.89 734.466 1008.83 743.54 1004.74C756.182 999.106 770.297 997.71 783.792 1000.81C811.712 1007.25 839.632 1013.66 867.552 1020.1C925.177 1033.36 972.46 1074.34 993.788 1129.48L993.84 1129.56Z" fill="#B37E54" stroke="#603924" stroke-width="3" stroke-linecap="round" stroke-linejoin="round"/>
<path d="M993.827 1129.56V1375.2C993.827 1381.74 999.23 1386.99 1005.77 1386.76C1104.14 1383.53 1202.53 1380.32 1300.9 1377.09C1308.5 1376.83 1313.8 1369.46 1311.6 1362.2C1301.41 1328.31 1291.2 1294.42 1281.02 1260.52C1286.83 1266.03 1292.65 1271.51 1298.47 1277.02C1303.04 1281.33 1310.23 1281.2 1314.65 1276.73C1351.98 1239.01 1389.29 1201.3 1426.62 1163.58C1430.86 1159.31 1431.09 1152.51 1427.18 1147.94C1407.25 1124.57 1387.32 1101.17 1367.36 1077.8C1359.87 1069.01 1337.84 1051.46 1307.36 1032.15C1295.03 1024.34 1283.09 1017.64 1271.87 1011.9C1245.86 998.616 1221.17 1001.15 1207 1001.3C1191.08 1001.46 1174.09 1003.66 1157.26 1006.99C1087.33 1020.8 1027.51 1065.73 994.24 1128.76L993.801 1129.58L993.827 1129.56Z" fill="#EDCEA9" stroke="#603924" stroke-width="3" stroke-linecap="round" stroke-linejoin="round"/>
<path d="M763.326 1009.11C763.662 1041.32 761.826 1078.86 755.596 1120.22C747.685 1172.83 734.733 1217.86 721.652 1254" fill="#B37E54"/>
<path d="M763.326 1009.11C763.662 1041.32 761.826 1078.86 755.596 1120.22C747.685 1172.83 734.733 1217.86 721.652 1254" stroke="#603924" stroke-width="3" stroke-linecap="round" stroke-linejoin="round"/>
<path d="M747.284 1237.02C747.879 1233.4 751.369 1231 754.962 1231.77C773.369 1235.7 793.766 1239.12 815.947 1241.42C845.935 1244.52 873.39 1244.96 897.536 1243.98C901.569 1243.82 904.723 1247.39 904.154 1251.37L890.323 1344.83C889.936 1347.49 887.919 1349.63 885.282 1350.2C865.971 1354.29 837.042 1357.88 802.659 1352.87C774.661 1348.78 752.067 1340.3 736.064 1332.73C733.453 1331.49 731.98 1328.67 732.471 1325.82C737.408 1296.22 742.346 1266.62 747.284 1237.05V1237.02Z" fill="#643F2F" stroke="#603924" stroke-width="3" stroke-linecap="round" stroke-linejoin="round"/>
<path d="M745.016 1251.63C765.982 1257.21 790.334 1262.31 817.608 1265.59C849.018 1269.36 877.378 1269.91 901.55 1268.95" stroke="#603924" stroke-width="3" stroke-linecap="round" stroke-linejoin="round"/>
<path d="M1255.65 1037.49C1253.09 1065.75 1252.21 1099.59 1255.65 1137.52C1260.09 1186.61 1270.46 1228.2 1281.06 1260.49" fill="#EDCEA9"/>
<path d="M1255.65 1037.49C1253.09 1065.75 1252.21 1099.59 1255.65 1137.52C1260.09 1186.61 1270.46 1228.2 1281.06 1260.49" stroke="#603924" stroke-width="3" stroke-linecap="round" stroke-linejoin="round"/>
<path d="M1017.42 1323.86C1022.97 1323.86 1027.47 1319.35 1027.47 1313.8C1027.47 1308.25 1022.97 1303.74 1017.42 1303.74C1011.86 1303.74 1007.36 1308.25 1007.36 1313.8C1007.36 1319.35 1011.86 1323.86 1017.42 1323.86Z" fill="#B37E54" stroke="#603924" stroke-width="3" stroke-linecap="round" stroke-linejoin="round"/>
<path d="M1019.05 1362.89C1024.6 1362.89 1029.11 1358.39 1029.11 1352.84C1029.11 1347.28 1024.6 1342.78 1019.05 1342.78C1013.5 1342.78 1008.99 1347.28 1008.99 1352.84C1008.99 1358.39 1013.5 1362.89 1019.05 1362.89Z" fill="#B37E54" stroke="#603924" stroke-width="3" stroke-linecap="round" stroke-linejoin="round"/>
<path d="M811.875 1342.78C817.588 1338.85 824.646 1333.94 832.738 1328.25C845.379 1319.39 848.404 1317.11 851.119 1312.38C852.282 1310.36 858.874 1298.81 853.213 1288.52C852.747 1287.67 848.197 1279.7 838.865 1278.57C831.549 1277.69 824.155 1281.36 819.915 1288.03C817.356 1279.42 809.962 1273.47 801.87 1273.19C790.857 1272.83 784.653 1283.22 784.032 1284.31C783.412 1285.37 781.344 1289.19 781.111 1294.8C780.93 1299.35 781.938 1306.05 794.839 1323.06C798.794 1328.28 804.404 1335.16 811.849 1342.78H811.875Z" fill="#EDCEA9"/>
<path d="M830.967 1318.64C827.658 1323.76 818.222 1322.26 814.732 1321.69C811.009 1321.09 801.728 1319.6 799.996 1313.49C798.574 1308.48 803.124 1303.44 804.624 1301.76C805.942 1300.31 811.526 1294.13 818.687 1295.48C825.073 1296.66 828.072 1302.95 829.468 1305.84C830.786 1308.58 833.63 1314.53 830.967 1318.64Z" fill="white" stroke="white" stroke-width="0.84" stroke-miterlimit="10"/>
<path d="M814.551 1309.82C815.882 1307.02 815.519 1304.07 813.74 1303.22C811.961 1302.38 809.439 1303.96 808.108 1306.75C806.777 1309.55 807.14 1312.51 808.919 1313.35C810.698 1314.2 813.219 1312.62 814.551 1309.82Z" fill="#ED6825"/>
<path d="M822.744 1315.41C824.586 1315.18 825.776 1312.55 825.402 1309.53C825.028 1306.52 823.232 1304.25 821.39 1304.48C819.548 1304.71 818.358 1307.34 818.731 1310.36C819.105 1313.38 820.902 1315.64 822.744 1315.41Z" fill="#ED6825"/>
<mask id="mask0_2620_10583" style="mask-type:luminance" maskUnits="userSpaceOnUse" x="670" y="540" width="672" height="142">
<path d="M682.399 596.057C680.641 600.555 680.357 604.795 680.331 607.147C677.487 611.93 670.688 624.752 670.481 642.875C670.352 654.379 672.937 663.427 674.824 668.623C772.39 656.602 881.512 649.312 1000.33 651.147C1125.01 653.086 1238.92 664.745 1340.08 681.032C1341.14 676.922 1342.25 670.769 1341.94 663.349C1341.34 649.855 1336.35 640.264 1333.92 636.179C1334.85 627.88 1335.01 615.756 1329.48 605.389C1323.74 594.583 1314.22 590.085 1307.37 587.784C1178.76 544.533 1003.58 540.268 1003.58 540.268C1003.58 540.268 809.591 535.537 700.883 579.098C697.316 580.519 686.82 584.733 682.399 596.057Z" fill="white"/>
</mask>
<g mask="url(#mask0_2620_10583)">
<path d="M682.41 596.058C680.652 600.556 680.368 604.796 680.342 607.149C664.831 622.453 657.799 643.341 662.556 659.085C663.564 662.446 665.684 667.436 670.492 672.296C768.368 658.672 879.041 649.882 1000.34 651.175C1125.8 652.519 1239.81 664.437 1340.09 681.06C1341.15 676.949 1342.26 670.796 1341.95 663.377C1341.35 649.882 1336.36 640.291 1333.93 636.206C1334.86 627.908 1335.02 615.783 1329.49 605.416C1323.75 594.61 1314.23 590.112 1307.38 587.811C1178.77 544.561 1003.6 540.295 1003.6 540.295C1003.6 540.295 809.602 535.564 700.894 579.125C697.327 580.547 686.831 584.761 682.41 596.084V596.058Z" fill="white" stroke="#231F20" stroke-miterlimit="10"/>
<g opacity="0.6">
<path d="M735.285 532.201C731.252 556.709 727.219 581.191 723.186 605.699C717.886 611.231 709.769 621.287 703.978 636.721C694.283 662.573 697.489 686.59 698.988 695.25" fill="#603924"/>
<path d="M686.738 698.51C684.412 685.067 682.059 658.336 692.607 630.183C695.269 623.047 699.07 615.964 699.07 615.964C705.455 603.814 712.358 595.205 717.502 589.621C719.338 569.456 721.173 549.292 723.009 529.127C731.721 530.962 740.459 532.798 749.171 534.633C749.016 550.765 748.887 566.897 748.732 583.028C740.95 590.836 723.681 610.406 715.357 643.264C710.29 663.273 710.419 680.801 711.272 691.995L686.764 698.535L686.738 698.51Z" fill="#603924"/>
</g>
<g opacity="0.6">
<path d="M811.77 535.301C810.296 548.175 808.823 561.075 807.349 573.95C801.894 579.223 784.341 597.553 779.843 628.808C777.8 642.975 779.145 655.073 780.644 663.139" fill="#603924"/>
<path d="M768.434 666.631C767.374 657.091 766.625 641.011 770.864 622.217C776.138 598.847 786.427 583.439 792.089 576.097C794.519 561.775 796.949 547.453 799.379 533.131L824.223 537.474C823.499 549.133 822.801 560.793 822.077 572.478C815.356 581.086 800.904 602.13 797.44 633.695C796.096 645.872 796.742 656.574 797.88 664.899C788.082 665.468 778.284 666.062 768.486 666.631H768.434Z" fill="#603924"/>
</g>
<g opacity="0.6">
<path d="M893.641 521.215C886.971 538.174 879.035 563.121 875.312 594.583C872.236 620.461 872.959 642.823 874.511 659.601" fill="#603924"/>
<path d="M862.052 661.385C859.906 638.402 860.19 615.161 862.905 592.334C866.111 565.293 872.651 539.079 882.372 514.416L904.915 527.988C896.332 549.782 890.567 572.945 887.723 596.832C885.345 616.997 885.086 637.498 886.973 657.817L862.052 661.359V661.385Z" fill="#603924"/>
</g>
<g opacity="0.6">
<path d="M971.623 665.88C969.219 649.387 967.15 624.103 971.08 593.934C974.803 565.316 982.558 543.057 988.685 528.58" fill="#603924"/>
<path d="M959.294 668.622C955.571 643.055 955.39 617.099 958.725 591.454C961.931 566.946 968.29 543.369 977.623 521.369L999.83 535.795C991.764 554.822 986.258 575.219 983.491 596.392C980.596 618.547 980.777 641.012 983.983 663.116L959.294 668.597V668.622Z" fill="#603924"/>
</g>
<g opacity="0.6">
<path d="M1090.68 537.682C1084.91 550.918 1078.55 568.471 1074.06 589.98C1067.95 618.986 1067.46 644.321 1068.26 662.263" fill="#603924"/>
<path d="M1055.71 663.114C1054.52 637.081 1056.59 611.152 1061.86 586.075C1065.92 566.738 1071.89 547.969 1079.6 530.312L1101.68 545.048C1094.93 560.508 1089.71 576.95 1086.14 593.883C1081.51 615.857 1079.7 638.555 1080.74 661.382L1055.68 663.114H1055.71Z" fill="#603924"/>
</g>
<g opacity="0.6">
<path d="M1171.22 548.025C1166.31 561.081 1161.06 578.583 1158.06 599.859C1153.25 634.113 1156.46 662.912 1159.74 681.034" fill="#603924"/>
<path d="M1147.54 684.418C1142.3 655.438 1141.68 626.096 1145.73 597.219C1148.42 578.011 1153.18 559.269 1159.88 541.482L1182.63 554.564C1176.86 569.868 1172.78 586 1170.45 602.519C1166.96 627.363 1167.5 652.646 1172.03 677.645L1147.54 684.418Z" fill="#603924"/>
</g>
<g opacity="0.6">
<path d="M1251.3 559.682L1235.58 606.706L1238.24 666.528" fill="#603924"/>
<path d="M1225.73 667.381L1222.89 604.044L1239.72 553.762L1262.88 565.628L1248.25 609.37L1250.78 665.675L1225.73 667.381Z" fill="#603924"/>
</g>
<g opacity="0.6">
<path d="M1314.21 570.438L1301.26 621.082L1304.1 687.263" fill="#603924"/>
<path d="M1291.59 688.088L1288.62 619.089L1302.24 565.756L1326.16 575.114L1313.9 623.07L1316.64 686.433L1291.59 688.088Z" fill="#603924"/>
</g>
<path d="M653.631 652.001C758.513 631.914 885.731 617.747 1030.06 622.969C1154.67 627.467 1265.34 645.435 1358.85 667.616" stroke="#603924" stroke-width="4" stroke-miterlimit="10"/>
<path d="M669.068 624.755C761.257 605.521 872.705 590.992 999.147 592.285C1133.89 593.681 1251.67 612.734 1347.71 636.078" stroke="#603924" stroke-width="4" stroke-miterlimit="10"/>
<path d="M668.861 598.538C757.637 576.693 870.12 558.803 1000.34 561.13C1140.27 563.637 1259.68 588.766 1351.9 616.582" stroke="#603924" stroke-width="4" stroke-miterlimit="10"/>
</g>
<path d="M682.399 596.057C680.641 600.555 680.357 604.795 680.331 607.147C677.487 611.93 670.688 624.752 670.481 642.875C670.352 654.379 672.937 663.427 674.824 668.623C772.39 656.602 881.512 649.312 1000.33 651.147C1125.01 653.086 1238.92 664.745 1340.08 681.032C1341.14 676.922 1342.25 670.769 1341.94 663.349C1341.34 649.855 1336.35 640.264 1333.92 636.179C1334.85 627.88 1335.01 615.756 1329.48 605.389C1323.74 594.583 1314.22 590.085 1307.37 587.784C1178.76 544.533 1003.58 540.268 1003.58 540.268C1003.58 540.268 809.591 535.537 700.883 579.098C697.316 580.519 686.82 584.733 682.399 596.057Z" stroke="#603924" stroke-width="3" stroke-miterlimit="10"/>
<path d="M1570.62 1033.29C1520.39 991.973 1445.9 999.213 1404.58 1049.43C1363.26 1099.65 1370.5 1174.12 1420.74 1215.43C1470.98 1256.74 1545.48 1249.5 1586.8 1199.28C1628.12 1149.06 1620.87 1074.6 1570.63 1033.28L1570.62 1033.29ZM1424.6 1210.74C1376.88 1171.49 1370.01 1101.01 1409.27 1053.29C1448.53 1005.59 1519.04 998.727 1566.76 1037.98C1614.48 1077.23 1621.35 1147.72 1582.09 1195.43C1542.83 1243.14 1472.32 1250 1424.59 1210.75L1424.6 1210.74Z" fill="#D2AC3F" stroke="#371B0D" stroke-miterlimit="10"/>
<path d="M1452.37 1182.65L1446.86 1178.12L1343.39 1303.87L1348.91 1308.4L1452.37 1182.65Z" fill="#F5EBC8" stroke="#371B0D" stroke-width="3" stroke-miterlimit="10"/>
<path d="M1451.11 1185.87C1455.55 1186.19 1459.4 1182.85 1459.72 1178.42C1460.04 1173.98 1456.7 1170.12 1452.26 1169.8C1447.82 1169.48 1443.96 1172.82 1443.64 1177.26C1443.32 1181.7 1446.66 1185.55 1451.11 1185.87Z" fill="#B36332" stroke="#371B0D" stroke-width="3" stroke-miterlimit="10"/>
<path d="M1492.42 1234.09C1490.71 1236.44 1487.13 1236.22 1485.71 1233.68L1453.3 1175.86C1465.43 1178.15 1479.37 1180.03 1494.82 1180.83C1508.23 1181.53 1520.55 1181.3 1531.55 1180.57L1492.43 1234.09L1492.42 1234.09Z" fill="#F5EBC8" stroke="#371B0D" stroke-width="3" stroke-miterlimit="10"/>
<path d="M1453.3 1175.86L1390.29 1155.22C1387.53 1154.3 1386.63 1150.85 1388.6 1148.71L1433.59 1100.03C1434.39 1109.49 1435.87 1120.1 1438.48 1131.55C1442.42 1149.03 1447.91 1163.89 1453.3 1175.85L1453.3 1175.86Z" fill="#F5EBC8" stroke="#371B0D" stroke-width="3" stroke-miterlimit="10"/>
<path d="M1596.56 1167.62L1531.54 1180.57C1537 1170 1542.53 1158.06 1547.72 1144.84C1552.92 1131.61 1556.99 1119.11 1560.18 1107.65L1599.01 1161.37C1600.72 1163.73 1599.41 1167.06 1596.55 1167.62L1596.56 1167.62Z" fill="#B36332" stroke="#371B0D" stroke-width="3" stroke-miterlimit="10"/>
<path d="M1560.19 1107.64C1552.18 1098.61 1542.07 1088.53 1529.6 1078.51C1519.03 1070.02 1508.83 1063.24 1499.66 1057.86L1562.77 1037.55C1565.54 1036.66 1568.31 1038.93 1567.96 1041.81L1560.19 1107.64Z" fill="#5E1214" stroke="#371B0D" stroke-width="3" stroke-miterlimit="10"/>
<path d="M1499.65 1057.86C1490.57 1062.14 1480.82 1067.27 1470.68 1073.45C1456.21 1082.27 1443.88 1091.43 1433.59 1100.03L1433.75 1033.75C1433.76 1030.84 1436.78 1028.92 1439.42 1030.14L1499.64 1057.87L1499.65 1057.86Z" fill="#F5EBC8" stroke="#371B0D" stroke-width="3" stroke-miterlimit="10"/>
<path d="M1493.55 1222.24L1489.42 1227.9L1486 1221.79" stroke="#3B2112" stroke-linecap="round" stroke-linejoin="round"/>
<path d="M1478.81 1208.97L1468.04 1189.74" stroke="#3B2112" stroke-linecap="round" stroke-linejoin="round"/>
<path d="M1464.44 1183.32L1461.02 1177.22C1463.27 1177.58 1465.58 1177.93 1467.94 1178.26" stroke="#3B2112" stroke-linecap="round" stroke-linejoin="round"/>
<path d="M1484.13 1180.1C1487.61 1180.39 1491.16 1180.65 1494.8 1180.83C1499.52 1181.08 1504.11 1181.21 1508.55 1181.25" stroke="#3B2112" stroke-linecap="round" stroke-linejoin="round"/>
<path d="M1516.7 1181.2C1519.08 1181.16 1521.41 1181.08 1523.7 1180.99L1519.57 1186.65" stroke="#3B2112" stroke-linecap="round" stroke-linejoin="round"/>
<path d="M1510.9 1198.51L1497.89 1216.31" stroke="#3B2112" stroke-linecap="round" stroke-linejoin="round"/>
<path d="M1447.54 1161.91C1448.38 1164.16 1449.23 1166.32 1450.09 1168.42L1443.44 1166.24" stroke="#3B2112" stroke-linecap="round" stroke-linejoin="round"/>
<path d="M1429.6 1161.71L1408.83 1154.9" stroke="#3B2112" stroke-linecap="round" stroke-linejoin="round"/>
<path d="M1401.91 1152.63L1395.26 1150.45L1400.02 1145.31" stroke="#3B2112" stroke-linecap="round" stroke-linejoin="round"/>
<path d="M1409.9 1134.61L1424.72 1118.57" stroke="#3B2112" stroke-linecap="round" stroke-linejoin="round"/>
<path d="M1429.67 1113.22L1434.41 1108.07C1434.68 1110.33 1434.99 1112.64 1435.35 1115.01" stroke="#3B2112" stroke-linecap="round" stroke-linejoin="round"/>
<path d="M1438.33 1130.91C1438.38 1131.12 1438.43 1131.34 1438.47 1131.55C1440.32 1139.71 1442.5 1147.3 1444.84 1154.29" stroke="#3B2112" stroke-linecap="round" stroke-linejoin="round"/>
<path d="M1486.23 1058.37L1492.59 1061.29C1490.55 1062.32 1488.48 1063.39 1486.37 1064.5" stroke="#3B2112" stroke-linecap="round" stroke-linejoin="round"/>
<path d="M1472.19 1072.54C1471.69 1072.84 1471.19 1073.15 1470.69 1073.45C1463.91 1077.58 1457.61 1081.78 1451.77 1085.96" stroke="#3B2112" stroke-linecap="round" stroke-linejoin="round"/>
<path d="M1445.21 1090.79C1443.32 1092.23 1441.47 1093.65 1439.69 1095.08L1439.7 1088.08" stroke="#3B2112" stroke-linecap="round" stroke-linejoin="round"/>
<path d="M1439.74 1073.38L1439.79 1051.34" stroke="#3B2112" stroke-linecap="round" stroke-linejoin="round"/>
<path d="M1439.81 1044L1439.83 1037L1446.18 1039.93" stroke="#3B2112" stroke-linecap="round" stroke-linejoin="round"/>
<path d="M1459.54 1046.07L1479.57 1055.3" stroke="#3B2112" stroke-linecap="round" stroke-linejoin="round"/>
<path d="M1555.59 1094.78L1554.77 1101.73C1553.22 1100.08 1551.58 1098.41 1549.89 1096.71" stroke="white" stroke-linecap="round" stroke-linejoin="round"/>
<path d="M1538.06 1085.63C1535.36 1083.26 1532.54 1080.89 1529.59 1078.52C1526.02 1075.65 1522.49 1072.98 1519.02 1070.49" stroke="white" stroke-linecap="round" stroke-linejoin="round"/>
<path d="M1512.38 1065.86C1510.39 1064.52 1508.44 1063.25 1506.51 1062.03L1513.17 1059.89" stroke="white" stroke-linecap="round" stroke-linejoin="round"/>
<path d="M1527.08 1055.41L1547.94 1048.71" stroke="white" stroke-linecap="round" stroke-linejoin="round"/>
<path d="M1554.89 1046.46L1561.54 1044.32L1560.73 1051.26" stroke="white" stroke-linecap="round" stroke-linejoin="round"/>
<path d="M1559.02 1065.78L1556.45 1087.52" stroke="white" stroke-linecap="round" stroke-linejoin="round"/>
<path d="M1588.1 1156.63L1592.2 1162.31L1585.34 1163.67" stroke="white" stroke-linecap="round" stroke-linejoin="round"/>
<path d="M1570.84 1166.56L1549.11 1170.88" stroke="white" stroke-linecap="round" stroke-linejoin="round"/>
<path d="M1541.86 1172.32L1535.01 1173.69C1536.02 1171.63 1537.02 1169.53 1538.03 1167.38" stroke="white" stroke-linecap="round" stroke-linejoin="round"/>
<path d="M1544.65 1152.43C1545.69 1149.94 1546.72 1147.41 1547.73 1144.84C1549.79 1139.61 1551.66 1134.48 1553.38 1129.5" stroke="white" stroke-linecap="round" stroke-linejoin="round"/>
<path d="M1555.96 1121.72C1556.68 1119.46 1557.37 1117.24 1558.03 1115.04L1562.13 1120.72" stroke="white" stroke-linecap="round" stroke-linejoin="round"/>
<path d="M1570.79 1132.69L1583.77 1150.64" stroke="white" stroke-linecap="round" stroke-linejoin="round"/>
<path d="M1527.85 1175.34L1523.72 1180.99C1521.44 1181.09 1519.1 1181.16 1516.73 1181.2" stroke="white" stroke-linecap="round" stroke-linejoin="round"/>
<path d="M1500.43 1181.07C1498.59 1181.01 1496.71 1180.93 1494.82 1180.83C1488.29 1180.49 1482.02 1179.96 1476.05 1179.28" stroke="white" stroke-linecap="round" stroke-linejoin="round"/>
<path d="M1467.97 1178.27C1465.6 1177.93 1463.3 1177.59 1461.05 1177.22L1457.63 1171.12" stroke="white" stroke-linecap="round" stroke-linejoin="round"/>
<path d="M1456.77 1170.61L1450.12 1168.43C1449.27 1166.34 1448.41 1164.16 1447.57 1161.93" stroke="white" stroke-linecap="round" stroke-linejoin="round"/>
<path d="M1442.42 1146.58C1441 1141.81 1439.67 1136.81 1438.5 1131.55C1437.84 1128.64 1437.25 1125.78 1436.73 1122.99" stroke="white" stroke-linecap="round" stroke-linejoin="round"/>
<path d="M1435.38 1115.02C1435.03 1112.66 1434.72 1110.34 1434.45 1108.09L1439.19 1102.95" stroke="white" stroke-linecap="round" stroke-linejoin="round"/>
<path d="M1439.68 1102.08L1439.71 1095.08C1441.49 1093.67 1443.34 1092.23 1445.23 1090.79" stroke="white" stroke-linecap="round" stroke-linejoin="round"/>
<path d="M1458.47 1081.31C1462.37 1078.68 1466.44 1076.05 1470.7 1073.45C1473.58 1071.7 1476.43 1070.02 1479.25 1068.43" stroke="white" stroke-linecap="round" stroke-linejoin="round"/>
<path d="M1486.4 1064.52C1488.5 1063.4 1490.57 1062.33 1492.62 1061.3L1498.98 1064.23" stroke="white" stroke-linecap="round" stroke-linejoin="round"/>
<path d="M1499.87 1064.19L1506.53 1062.05C1508.45 1063.26 1510.4 1064.54 1512.39 1065.87" stroke="white" stroke-linecap="round" stroke-linejoin="round"/>
<path d="M1525.55 1075.33C1526.9 1076.36 1528.25 1077.43 1529.61 1078.52C1534.84 1082.72 1539.66 1086.94 1544.07 1091.08" stroke="white" stroke-linecap="round" stroke-linejoin="round"/>
<path d="M1549.91 1096.71C1551.6 1098.4 1553.22 1100.07 1554.79 1101.73L1553.97 1108.68" stroke="white" stroke-linecap="round" stroke-linejoin="round"/>
<path d="M1553.97 1109.38L1558.06 1115.05C1557.4 1117.25 1556.72 1119.48 1555.99 1121.73" stroke="white" stroke-linecap="round" stroke-linejoin="round"/>
<path d="M1550.66 1137.2C1549.73 1139.71 1548.76 1142.26 1547.75 1144.84C1545.68 1150.09 1543.58 1155.11 1541.44 1159.94" stroke="white" stroke-linecap="round" stroke-linejoin="round"/>
<path d="M1538.05 1167.39C1537.04 1169.54 1536.03 1171.64 1535.02 1173.69L1528.15 1175.06" stroke="white" stroke-linecap="round" stroke-linejoin="round"/>
<path d="M1531.54 1180.57C1529 1180.74 1526.38 1180.88 1523.71 1180.99C1514.79 1181.37 1505.12 1181.37 1494.81 1180.83C1482.55 1180.19 1471.23 1178.87 1461.02 1177.22C1458.38 1176.79 1455.8 1176.34 1453.31 1175.87C1452.24 1173.5 1451.18 1171.01 1450.11 1168.42C1445.82 1157.91 1441.65 1145.58 1438.49 1131.55C1436.61 1123.24 1435.3 1115.38 1434.44 1108.08C1434.1 1105.31 1433.84 1102.62 1433.61 1100.03C1435.57 1098.4 1437.59 1096.74 1439.7 1095.08C1448.67 1087.96 1458.99 1080.59 1470.7 1073.45C1478.26 1068.85 1485.61 1064.82 1492.61 1061.3C1495 1060.11 1497.36 1058.96 1499.66 1057.87C1501.89 1059.18 1504.18 1060.57 1506.52 1062.05C1513.81 1066.66 1521.59 1072.1 1529.6 1078.53C1539.42 1086.42 1547.76 1094.34 1554.78 1101.74C1556.68 1103.75 1558.49 1105.73 1560.2 1107.65C1559.52 1110.08 1558.81 1112.54 1558.05 1115.06C1555.24 1124.43 1551.84 1134.42 1547.75 1144.84C1543.64 1155.28 1539.33 1164.91 1535.03 1173.7C1533.87 1176.05 1532.72 1178.36 1531.56 1180.59L1531.54 1180.57Z" fill="#B36332" stroke="#371B0D" stroke-width="3" stroke-miterlimit="10"/>
<path d="M1464.47 1171.6C1462.17 1171.25 1459.85 1170.86 1457.57 1170.46C1456.65 1168.33 1455.75 1166.17 1454.89 1164" stroke="white" stroke-linecap="round" stroke-linejoin="round"/>
<path d="M1450.98 1153.43C1448.37 1145.81 1446.18 1138.04 1444.4 1130.22C1443.29 1125.27 1442.33 1120.25 1441.54 1115.2" stroke="white" stroke-linecap="round" stroke-linejoin="round"/>
<path d="M1440.74 1109.62C1440.44 1107.3 1440.17 1104.98 1439.94 1102.66C1441.75 1101.19 1443.57 1099.73 1445.42 1098.3" stroke="white" stroke-linecap="round" stroke-linejoin="round"/>
<path d="M1454.47 1091.5C1460.77 1086.95 1467.26 1082.65 1473.85 1078.63C1478.48 1075.81 1483.23 1073.09 1488.05 1070.5" stroke="white" stroke-linecap="round" stroke-linejoin="round"/>
<path d="M1493.08 1067.87C1495.15 1066.8 1497.24 1065.76 1499.34 1064.74C1501.33 1065.95 1503.31 1067.18 1505.27 1068.46" stroke="white" stroke-linecap="round" stroke-linejoin="round"/>
<path d="M1514.58 1074.77C1518.41 1077.49 1522.15 1080.32 1525.8 1083.25C1526.55 1083.85 1527.29 1084.46 1528.02 1085.06C1533.78 1089.8 1539.36 1094.83 1544.69 1100.1" stroke="white" stroke-linecap="round" stroke-linejoin="round"/>
<path d="M1548.64 1104.12C1550.27 1105.8 1551.86 1107.49 1553.43 1109.22C1552.79 1111.45 1552.12 1113.69 1551.43 1115.93" stroke="white" stroke-linecap="round" stroke-linejoin="round"/>
<path d="M1547.93 1126.65C1546.09 1132.02 1544.14 1137.36 1542.08 1142.61C1539.34 1149.58 1536.38 1156.5 1533.21 1163.33" stroke="white" stroke-linecap="round" stroke-linejoin="round"/>
<path d="M1530.79 1168.44C1529.78 1170.54 1528.75 1172.63 1527.7 1174.71C1525.38 1174.83 1523.04 1174.93 1520.71 1175.01" stroke="white" stroke-linecap="round" stroke-linejoin="round"/>
<path d="M1509.42 1175.17C1504.64 1175.14 1499.86 1175.01 1495.12 1174.76C1486.77 1174.32 1478.38 1173.54 1470.05 1172.42" stroke="white" stroke-linecap="round" stroke-linejoin="round"/>
<path d="M1532.15 1137.83C1531.75 1137.33 1526.19 1143.19 1515.92 1145.94C1511.51 1147.12 1507.85 1147.3 1506.01 1147.32C1504.32 1147.34 1498.55 1147.31 1492.57 1145.18C1490.76 1144.54 1473.04 1137.97 1471.73 1124.17C1471.19 1118.47 1473.34 1110.5 1479.53 1107.43C1483.31 1105.55 1489.14 1105.23 1491.93 1108.21C1495.05 1111.52 1491.41 1115.74 1494.13 1121.75C1496.28 1126.49 1501.8 1131.01 1507.83 1130.61C1514.5 1130.15 1518.28 1123.91 1519.28 1122.25C1522.95 1116.18 1521.99 1109.87 1521.51 1107.65C1519.44 1098.04 1511.08 1093.26 1508.24 1091.64C1499.32 1086.55 1490.5 1087.55 1488.07 1087.87C1476.44 1089.34 1462.27 1097.5 1458.32 1112.4C1454.09 1128.33 1464.6 1141.44 1467.94 1145.13C1470.32 1147.77 1477.5 1154.95 1489.24 1157.11C1500.26 1159.16 1508.84 1155.59 1512.84 1153.87C1525.46 1148.42 1532.65 1138.44 1532.15 1137.84L1532.15 1137.83Z" fill="#FCEED1"/>
<path d="M1560.26 1151.67C1562.65 1151.84 1564.72 1150.04 1564.9 1147.66C1565.07 1145.27 1563.27 1143.19 1560.88 1143.02C1558.49 1142.84 1556.41 1144.64 1556.24 1147.03C1556.07 1149.42 1557.87 1151.5 1560.26 1151.67Z" fill="#5E1214"/>
<path d="M1545.72 1067.38C1548.11 1067.56 1550.18 1065.76 1550.36 1063.37C1550.53 1060.98 1548.73 1058.9 1546.34 1058.73C1543.95 1058.56 1541.87 1060.36 1541.7 1062.74C1541.53 1065.13 1543.33 1067.21 1545.72 1067.38Z" fill="#FCEED1"/>
<path d="M1456.05 1068.84C1458.44 1069.01 1460.51 1067.22 1460.68 1064.83C1460.86 1062.44 1459.06 1060.36 1456.67 1060.19C1454.28 1060.02 1452.2 1061.81 1452.03 1064.2C1451.86 1066.59 1453.65 1068.67 1456.05 1068.84Z" fill="#5E1214"/>
<path d="M1424.47 1146.31C1426.86 1146.49 1428.93 1144.69 1429.11 1142.3C1429.28 1139.91 1427.48 1137.83 1425.09 1137.66C1422.7 1137.49 1420.62 1139.29 1420.45 1141.68C1420.28 1144.07 1422.08 1146.14 1424.47 1146.31Z" fill="#5E1214"/>
<path d="M1490.72 1200.8C1493.12 1200.97 1495.19 1199.17 1495.36 1196.78C1495.54 1194.39 1493.74 1192.31 1491.35 1192.14C1488.96 1191.97 1486.88 1193.77 1486.71 1196.16C1486.54 1198.55 1488.33 1200.62 1490.72 1200.8Z" fill="#5E1214"/>
</svg>
