<svg width="2000" height="2000" viewBox="0 0 2000 2000" fill="none" xmlns="http://www.w3.org/2000/svg">
<g clip-path="url(#clip0_3263_32111)">
<g clip-path="url(#clip1_3263_32111)">
<path d="M1301.91 1465.7C1301.28 1481.73 1299.66 1496.48 1297.57 1509.76C1217.34 1526.88 1137.11 1544.01 1056.9 1561.13L1029.18 1520.5H983.063L955.335 1561.13C875.131 1544.01 794.901 1526.88 714.672 1509.76C712.576 1496.48 710.959 1481.73 710.328 1465.7C709.268 1438.04 711.439 1413.52 714.672 1393.12L727.728 1369.63L1006.12 1390.01L1284.51 1369.63L1297.57 1393.12C1300.8 1413.52 1302.97 1438.04 1301.91 1465.7Z" fill="#345A8B" stroke="black" stroke-width="3" stroke-linecap="round" stroke-linejoin="round"/>
<path d="M1247.14 1438.28L1255.32 1452.17L1271.05 1455.66C1272.39 1455.96 1272.89 1457.57 1272.01 1458.58L1261.33 1470.66L1262.87 1486.69C1263 1488.06 1261.63 1489.04 1260.37 1488.51L1245.6 1482.1L1230.82 1488.51C1229.59 1489.04 1228.2 1488.06 1228.32 1486.69L1229.86 1470.66L1219.18 1458.58C1218.27 1457.57 1218.8 1455.96 1220.14 1455.66L1235.87 1452.17L1244.06 1438.28C1244.74 1437.12 1246.43 1437.12 1247.14 1438.28Z" fill="white"/>
<path d="M772.455 1436.75L780.637 1450.64L796.37 1454.12C797.708 1454.42 798.213 1456.04 797.33 1457.05L786.647 1469.12L788.188 1485.16C788.314 1486.52 786.95 1487.51 785.688 1486.97L770.915 1480.56L756.142 1486.97C754.904 1487.51 753.515 1486.52 753.641 1485.16L755.182 1469.12L744.5 1457.05C743.591 1456.04 744.121 1454.42 745.459 1454.12L761.192 1450.64L769.374 1436.75C770.056 1435.58 771.748 1435.58 772.455 1436.75Z" fill="white"/>
<path d="M928.367 1509.31L983.066 1520.5H1029.18L1082.69 1509.31" stroke="black" stroke-width="3" stroke-miterlimit="10" stroke-linecap="round"/>
<mask id="mask0_3263_32111" style="mask-type:luminance" maskUnits="userSpaceOnUse" x="724" y="1540" width="193" height="142">
<path d="M807.808 1540.15C780.863 1546.71 753.943 1553.28 726.998 1559.85C728.639 1583.41 730.281 1606.97 731.947 1630.53C730.407 1633.31 719.498 1653.48 728.286 1667.4C730.811 1671.41 736.897 1677.88 765.256 1680.3C795.434 1682.85 819.425 1678.16 831.773 1675.38C850.789 1671.11 877.229 1663.64 907.609 1649.7C910.437 1629.09 913.291 1608.48 916.119 1587.9L807.808 1540.2V1540.15Z" fill="white"/>
</mask>
<g mask="url(#mask0_3263_32111)">
<path d="M807.808 1540.15C780.863 1546.71 753.943 1553.28 726.998 1559.85C728.639 1583.41 730.281 1606.97 731.947 1630.53C730.407 1633.31 719.498 1653.48 728.286 1667.4C730.811 1671.41 736.897 1677.88 765.256 1680.3C795.434 1682.85 819.425 1678.16 831.773 1675.38C850.789 1671.11 877.229 1663.64 907.609 1649.7C910.437 1629.09 913.291 1608.48 916.119 1587.9L807.808 1540.2V1540.15Z" fill="#BE2734" stroke="black" stroke-width="3" stroke-linecap="round" stroke-linejoin="round"/>
<path d="M728.69 1584.06L804.147 1564.11C840.814 1577.95 877.507 1591.77 914.175 1605.6C914.831 1600.15 915.463 1594.72 916.119 1589.27L807.808 1540.15L726.998 1559.85L728.69 1584.09V1584.06Z" fill="#EBCB77" stroke="black" stroke-width="3" stroke-linecap="round" stroke-linejoin="round"/>
<path d="M773.744 1678.99C781.749 1663.33 789.755 1647.67 797.76 1632.02C801.119 1601.39 804.452 1570.75 807.811 1540.12" stroke="white" stroke-width="3" stroke-linecap="round" stroke-linejoin="round"/>
<path d="M725.055 1651.47C729.095 1655.08 735.434 1659.95 744.096 1663.74C756.242 1669.04 768.516 1670.28 789.223 1668.56C808.567 1666.97 827.052 1663.54 851.119 1656.95C865.841 1652.93 885.791 1646.87 909.151 1637.93C908.646 1641.84 908.141 1645.73 907.635 1649.65C877.256 1663.59 850.79 1671.09 831.8 1675.33C828.82 1675.99 801.016 1682.02 765.283 1680.25C746.57 1679.32 734.196 1676.67 728.312 1667.35C724.878 1661.87 724.701 1655.73 725.105 1651.44L725.055 1651.47Z" fill="#EBCB77" stroke="black" stroke-width="3" stroke-linecap="round" stroke-linejoin="round"/>
</g>
<path d="M807.808 1540.15C780.863 1546.71 753.943 1553.28 726.998 1559.85C728.639 1583.41 730.281 1606.97 731.947 1630.53C730.407 1633.31 719.498 1653.48 728.286 1667.4C730.811 1671.41 736.897 1677.88 765.256 1680.3C795.434 1682.85 819.425 1678.16 831.773 1675.38C850.789 1671.11 877.229 1663.64 907.609 1649.7C910.437 1629.09 913.291 1608.48 916.119 1587.9L807.808 1540.2V1540.15Z" stroke="black" stroke-width="3" stroke-linecap="round" stroke-linejoin="round"/>
<mask id="mask1_3263_32111" style="mask-type:luminance" maskUnits="userSpaceOnUse" x="1087" y="1540" width="193" height="142">
<path d="M1196.28 1540.15C1223.22 1546.71 1250.14 1553.28 1277.09 1559.85C1275.45 1583.41 1273.81 1606.97 1272.14 1630.53C1273.68 1633.31 1284.59 1653.48 1275.8 1667.4C1273.28 1671.41 1267.19 1677.88 1238.83 1680.3C1208.65 1682.85 1184.66 1678.16 1172.31 1675.38C1153.3 1671.11 1126.86 1663.64 1096.48 1649.7C1093.65 1629.09 1090.8 1608.48 1087.97 1587.9L1196.28 1540.2V1540.15Z" fill="white"/>
</mask>
<g mask="url(#mask1_3263_32111)">
<path d="M1196.28 1540.15C1223.22 1546.71 1250.14 1553.28 1277.09 1559.85C1275.45 1583.41 1273.81 1606.97 1272.14 1630.53C1273.68 1633.31 1284.59 1653.48 1275.8 1667.4C1273.28 1671.41 1267.19 1677.88 1238.83 1680.3C1208.65 1682.85 1184.66 1678.16 1172.31 1675.38C1153.3 1671.11 1126.86 1663.64 1096.48 1649.7C1093.65 1629.09 1090.8 1608.48 1087.97 1587.9L1196.28 1540.2V1540.15Z" fill="#BE2734" stroke="black" stroke-width="3" stroke-linecap="round" stroke-linejoin="round"/>
<path d="M1275.4 1584.06L1199.94 1564.11C1163.27 1577.95 1126.58 1591.77 1089.91 1605.6C1089.26 1600.15 1088.63 1594.72 1087.97 1589.27L1196.28 1540.15L1277.09 1559.85L1275.4 1584.09V1584.06Z" fill="#EBCB77" stroke="black" stroke-width="3" stroke-linecap="round" stroke-linejoin="round"/>
<path d="M1230.35 1678.99C1222.34 1663.33 1214.34 1647.67 1206.33 1632.02C1202.97 1601.39 1199.64 1570.75 1196.28 1540.12" stroke="white" stroke-width="3" stroke-linecap="round" stroke-linejoin="round"/>
<path d="M1279.03 1651.47C1274.99 1655.08 1268.65 1659.95 1259.99 1663.74C1247.85 1669.04 1235.57 1670.28 1214.87 1668.56C1195.52 1666.97 1177.04 1663.54 1152.97 1656.95C1138.25 1652.93 1118.3 1646.87 1094.94 1637.93C1095.44 1641.84 1095.95 1645.73 1096.45 1649.65C1126.83 1663.59 1153.3 1671.09 1172.29 1675.33C1175.27 1675.99 1203.07 1682.02 1238.81 1680.25C1257.52 1679.32 1269.89 1676.67 1275.78 1667.35C1279.21 1661.87 1279.39 1655.73 1278.98 1651.44L1279.03 1651.47Z" fill="#EBCB77" stroke="black" stroke-width="3" stroke-linecap="round" stroke-linejoin="round"/>
</g>
<path d="M1196.28 1540.15C1223.22 1546.71 1250.14 1553.28 1277.09 1559.85C1275.45 1583.41 1273.81 1606.97 1272.14 1630.53C1273.68 1633.31 1284.59 1653.48 1275.8 1667.4C1273.28 1671.41 1267.19 1677.88 1238.83 1680.3C1208.65 1682.85 1184.66 1678.16 1172.31 1675.38C1153.3 1671.11 1126.86 1663.64 1096.48 1649.7C1093.65 1629.09 1090.8 1608.48 1087.97 1587.9L1196.28 1540.2V1540.15Z" stroke="black" stroke-width="3" stroke-linecap="round" stroke-linejoin="round"/>
<path d="M759.321 1176.42C749.397 1201.4 739.548 1230.47 731.442 1263.35C722.3 1300.44 717.3 1334.41 714.674 1363.8C811.823 1376.73 908.972 1389.69 1006.12 1402.62L1292.39 1372.97C1290.75 1340.42 1286.48 1302.44 1277.32 1260.77C1270.37 1229.28 1261.81 1201.07 1252.92 1176.42C1241.53 1160.26 1230.14 1144.1 1218.75 1127.94C1147.87 1144.43 1076.98 1160.89 1006.12 1177.38C938.215 1157.89 870.284 1138.42 802.378 1118.92C788.034 1138.09 773.691 1157.26 759.321 1176.42Z" fill="#BE2734" stroke="black" stroke-width="3" stroke-linecap="round" stroke-linejoin="round"/>
<mask id="mask2_3263_32111" style="mask-type:luminance" maskUnits="userSpaceOnUse" x="712" y="1341" width="584" height="98">
<path d="M1293.33 1393.12C1258.17 1389.87 1210.07 1389.18 1154.38 1399.71C1105.24 1409.03 1065.01 1424.29 1035.24 1438.2C1025.54 1432.72 1015.82 1427.22 1006.12 1421.74C996.272 1427.22 986.424 1432.72 976.575 1438.2C946.372 1424.29 905.563 1409.03 855.662 1399.71C799.171 1389.18 750.357 1389.87 714.674 1393.12C713.184 1386.76 711.744 1377.59 712.527 1366.61C713.209 1357.24 715.28 1349.49 717.25 1343.83C755.71 1340.04 810.358 1339.21 873.289 1353.73C913.391 1362.97 946.978 1376.2 973.342 1388.86C984.277 1378.1 995.186 1367.34 1006.12 1356.58C1016.88 1367.34 1027.66 1378.1 1038.42 1388.86C1064.41 1376.2 1097.49 1362.97 1137.01 1353.73C1199.03 1339.21 1252.9 1340.04 1290.8 1343.83C1292.74 1349.49 1294.79 1357.24 1295.45 1366.61C1296.23 1377.59 1294.82 1386.76 1293.33 1393.12Z" fill="white"/>
</mask>
<g mask="url(#mask2_3263_32111)">
<path d="M1293.33 1393.12C1258.17 1389.87 1210.07 1389.18 1154.38 1399.71C1105.24 1409.03 1065.01 1424.29 1035.24 1438.2C1025.54 1432.72 1015.82 1427.22 1006.12 1421.74C996.272 1427.22 986.424 1432.72 976.575 1438.2C946.372 1424.29 905.563 1409.03 855.662 1399.71C799.171 1389.18 750.357 1389.87 714.674 1393.12C713.184 1386.76 711.744 1377.59 712.527 1366.61C713.209 1357.24 715.28 1349.49 717.25 1343.83C755.71 1340.04 810.358 1339.21 873.289 1353.73C913.391 1362.97 946.978 1376.2 973.342 1388.86C984.277 1378.1 995.186 1367.34 1006.12 1356.58C1016.88 1367.34 1027.66 1378.1 1038.42 1388.86C1064.41 1376.2 1097.49 1362.97 1137.01 1353.73C1199.03 1339.21 1252.9 1340.04 1290.8 1343.83C1292.74 1349.49 1294.79 1357.24 1295.45 1366.61C1296.23 1377.59 1294.82 1386.76 1293.33 1393.12Z" fill="#EBCB77" stroke="black" stroke-width="3" stroke-linecap="round" stroke-linejoin="round"/>
<path d="M712.527 1366.61C745.382 1364.92 786.241 1365.65 832.404 1373.08C888.921 1382.17 935.336 1398.41 969.731 1413.41C981.853 1405.6 993.974 1397.8 1006.12 1390.02L1036.15 1413.41C1066.22 1399.75 1105.77 1385.15 1153.5 1375.65C1209.84 1364.44 1258.91 1364.09 1295.45 1366.61" stroke="#E0B65B" stroke-linecap="round" stroke-linejoin="round"/>
</g>
<path d="M1293.33 1393.12C1258.17 1389.87 1210.07 1389.18 1154.38 1399.71C1105.24 1409.03 1065.01 1424.29 1035.24 1438.2C1025.54 1432.72 1015.82 1427.22 1006.12 1421.74C996.272 1427.22 986.424 1432.72 976.575 1438.2C946.372 1424.29 905.563 1409.03 855.662 1399.71C799.171 1389.18 750.357 1389.87 714.674 1393.12C713.184 1386.76 711.744 1377.59 712.527 1366.61C713.209 1357.24 715.28 1349.49 717.25 1343.83C755.71 1340.04 810.358 1339.21 873.289 1353.73C913.391 1362.97 946.978 1376.2 973.342 1388.86C984.277 1378.1 995.186 1367.34 1006.12 1356.58C1016.88 1367.34 1027.66 1378.1 1038.42 1388.86C1064.41 1376.2 1097.49 1362.97 1137.01 1353.73C1199.03 1339.21 1252.9 1340.04 1290.8 1343.83C1292.74 1349.49 1294.79 1357.24 1295.45 1366.61C1296.23 1377.59 1294.82 1386.76 1293.33 1393.12Z" stroke="black" stroke-width="3" stroke-miterlimit="10"/>
<mask id="mask3_3263_32111" style="mask-type:luminance" maskUnits="userSpaceOnUse" x="759" y="1071" width="494" height="132">
<path d="M1252.92 1176.43L1212.46 1136.63C1208.02 1132.26 1201.2 1131.45 1195.87 1134.63L1082.08 1202.54L1006.12 1177.39L930.562 1202.54L816.367 1134.61C811.039 1131.43 804.221 1132.26 799.801 1136.6L759.346 1176.4L800.938 1080.16C804.296 1072.41 813.766 1069.53 820.863 1074.08L930.588 1144.48L983.771 1107.56C986.296 1105.82 986.877 1102.31 985.059 1099.84L975.892 1087.39C973.24 1083.77 975.816 1078.7 980.286 1078.7H1021.5C1023.07 1078.7 1024.55 1079.38 1025.59 1080.54L1082.08 1144.48C1118.52 1121.02 1154.94 1097.56 1191.38 1074.13C1198.47 1069.56 1207.97 1072.46 1211.33 1080.19C1225.19 1112.26 1239.06 1144.33 1252.92 1176.4V1176.43Z" fill="white"/>
</mask>
<g mask="url(#mask3_3263_32111)">
<path d="M1252.92 1176.43L1212.46 1136.63C1208.02 1132.26 1201.2 1131.45 1195.87 1134.63L1082.08 1202.54L1006.12 1177.39L930.562 1202.54L816.367 1134.61C811.039 1131.43 804.221 1132.26 799.801 1136.6L759.346 1176.4L800.938 1080.16C804.296 1072.41 813.766 1069.53 820.863 1074.08L930.588 1144.48L983.771 1107.56C986.296 1105.82 986.877 1102.31 985.059 1099.84L975.892 1087.39C973.24 1083.77 975.816 1078.7 980.286 1078.7H1021.5C1023.07 1078.7 1024.55 1079.38 1025.59 1080.54L1082.08 1144.48C1118.52 1121.02 1154.94 1097.56 1191.38 1074.13C1198.47 1069.56 1207.97 1072.46 1211.33 1080.19C1225.19 1112.26 1239.06 1144.33 1252.92 1176.4V1176.43Z" fill="#EBCB77" stroke="black" stroke-width="3" stroke-linecap="round" stroke-linejoin="round"/>
<path d="M793.486 1097.39L927.455 1172.22L1006.12 1137.24L1080.92 1172.22L1218.78 1097.39" stroke="#E0B65B" stroke-linecap="round" stroke-linejoin="round"/>
</g>
<path d="M1252.92 1176.43L1212.46 1136.63C1208.02 1132.26 1201.2 1131.45 1195.87 1134.63L1082.08 1202.54L1006.12 1177.39L930.562 1202.54L816.367 1134.61C811.039 1131.43 804.221 1132.26 799.801 1136.6L759.346 1176.4L800.938 1080.16C804.296 1072.41 813.766 1069.53 820.863 1074.08L930.588 1144.48L983.771 1107.56C986.296 1105.82 986.877 1102.31 985.059 1099.84L975.892 1087.39C973.24 1083.77 975.816 1078.7 980.286 1078.7H1021.5C1023.07 1078.7 1024.55 1079.38 1025.59 1080.54L1082.08 1144.48C1118.52 1121.02 1154.94 1097.56 1191.38 1074.13C1198.47 1069.56 1207.97 1072.46 1211.33 1080.19C1225.19 1112.26 1239.06 1144.33 1252.92 1176.4V1176.43Z" stroke="black" stroke-width="3" stroke-miterlimit="10"/>
<path d="M662.021 1297.32C666.314 1296.13 674.269 1293.3 681.997 1286.51C689.648 1279.79 693.462 1272.39 695.204 1268.3C685.305 1254.49 671.037 1237.49 651.188 1221.03C624.849 1199.13 598.888 1186.63 580.252 1179.43C577.019 1182.64 571.766 1188.68 568.332 1197.82C564.418 1208.15 564.797 1217.21 565.327 1221.86C580.681 1228.3 601.136 1238.78 622.172 1255.85C640.001 1270.32 652.956 1285.22 661.996 1297.34L662.021 1297.32Z" fill="#C2C3C5" stroke="black" stroke-width="3" stroke-miterlimit="10"/>
<path d="M575.58 1214.84C575.681 1212.12 576.186 1207.95 578.08 1203.28C579.848 1198.96 582.146 1195.85 583.888 1193.86" stroke="white" stroke-width="3" stroke-miterlimit="10" stroke-linecap="round"/>
<path d="M1345.27 1299.89C1340.98 1298.7 1333.02 1295.87 1325.3 1289.08C1317.65 1282.36 1313.83 1274.96 1312.09 1270.87C1321.99 1257.06 1336.26 1240.06 1356.11 1223.6C1382.45 1201.71 1408.41 1189.2 1427.04 1182.01C1430.27 1185.21 1435.53 1191.25 1438.96 1200.39C1442.88 1210.72 1442.5 1219.79 1441.97 1224.43C1426.61 1230.87 1406.16 1241.35 1385.12 1258.42C1367.29 1272.89 1354.34 1287.79 1345.3 1299.92L1345.27 1299.89Z" fill="#C2C3C5" stroke="black" stroke-width="3" stroke-miterlimit="10"/>
<path d="M1431.74 1217.41C1431.64 1214.68 1431.13 1210.52 1429.24 1205.85C1427.47 1201.53 1425.17 1198.42 1423.43 1196.43" stroke="white" stroke-width="3" stroke-miterlimit="10" stroke-linecap="round"/>
<mask id="mask4_3263_32111" style="mask-type:luminance" maskUnits="userSpaceOnUse" x="719" y="479" width="582" height="201">
<path d="M719.799 605.238C761.997 607.662 813.943 614.152 871.747 629.506C925.057 643.648 970.109 661.78 1006.12 679.053C1041.9 663.32 1084.4 647.537 1133.07 634.658C1196.3 617.94 1253.5 610.491 1300.88 607.561C1291.86 593.091 1282.84 578.621 1273.85 564.151C1226.45 556.727 1171.33 544.428 1111.58 523.746C1072.28 510.134 1037.08 495.033 1006.12 479.906C972.786 493.063 936.547 505.892 897.531 517.736C843.489 534.125 792.604 546.044 746.012 554.732C737.274 571.575 728.536 588.394 719.799 605.238Z" fill="white"/>
</mask>
<g mask="url(#mask4_3263_32111)">
<path d="M719.799 605.238C761.997 607.662 813.943 614.152 871.747 629.506C925.057 643.648 970.109 661.78 1006.12 679.053C1041.9 663.32 1084.4 647.537 1133.07 634.658C1196.3 617.94 1253.5 610.491 1300.88 607.561C1291.86 593.091 1282.84 578.621 1273.85 564.151C1226.45 556.727 1171.33 544.428 1111.58 523.746C1072.28 510.134 1037.08 495.033 1006.12 479.906C972.786 493.063 936.547 505.892 897.531 517.736C843.489 534.125 792.604 546.044 746.012 554.732C737.274 571.575 728.536 588.394 719.799 605.238Z" fill="#E2AD49"/>
<path d="M987.939 670.609L1111.6 523.761C1094.05 518.105 1075.29 511.286 1055.62 503.029C1037.74 495.528 1021.22 487.7 1006.15 479.922C972.282 532.954 938.417 585.96 904.553 638.992C915.992 642.25 928.038 646.113 940.539 650.684C957.862 656.997 973.696 663.791 987.964 670.634L987.939 670.609Z" fill="#F3CD75"/>
<path d="M1009.61 528.84L1023.65 552.755L1050.74 558.715C1053.75 559.371 1054.94 563.008 1052.89 565.306L1034.48 586.039L1037.18 613.641C1037.49 616.696 1034.38 618.944 1031.58 617.706L1006.17 606.595L980.766 617.706C977.963 618.944 974.857 616.696 975.16 613.641L977.862 586.039L959.453 565.306C957.407 563.008 958.594 559.371 961.599 558.715L988.696 552.755L1002.74 528.84C1004.3 526.189 1008.12 526.189 1009.68 528.84H1009.61Z" fill="#FF0000" stroke="black" stroke-width="3" stroke-linecap="round" stroke-linejoin="round"/>
</g>
<path d="M719.799 605.238C761.997 607.662 813.943 614.152 871.747 629.506C925.057 643.648 970.109 661.78 1006.12 679.053C1041.9 663.32 1084.4 647.537 1133.07 634.658C1196.3 617.94 1253.5 610.491 1300.88 607.561C1291.86 593.091 1282.84 578.621 1273.85 564.151C1226.45 556.727 1171.33 544.428 1111.58 523.746C1072.28 510.134 1037.08 495.033 1006.12 479.906C972.786 493.063 936.547 505.892 897.531 517.736C843.489 534.125 792.604 546.044 746.012 554.732C737.274 571.575 728.536 588.394 719.799 605.238Z" stroke="black" stroke-width="3" stroke-linecap="round" stroke-linejoin="round"/>
<path d="M891.219 519.641C865.032 515.955 847.127 521.005 835.435 526.561C765.686 559.643 802.252 664.645 724.169 727.501C695.608 750.506 645.127 765.381 642.273 799.927C641.516 809.245 644.672 829.195 646.642 834.372" stroke="black" stroke-width="3" stroke-linecap="round" stroke-linejoin="round"/>
<path d="M928.543 507.922C940.084 495.296 965.438 471.406 1002.51 466.28C1013.7 464.739 1048.42 461.785 1103.55 499.462C1208.53 571.232 1180.37 648.886 1271.38 699.619C1304.44 718.054 1344.87 728.282 1354.24 763.056C1358.68 779.546 1354.44 795.178 1350.15 805.834" stroke="black" stroke-width="3" stroke-linecap="round" stroke-linejoin="round"/>
<path d="M642.653 1009.63C637.526 1009.75 631.39 1009.45 624.597 1008.19C611.414 1005.71 601.263 1000.66 594.621 996.57C595.076 1005.41 597.121 1022.81 607.829 1041.37C618.586 1060.06 632.728 1070.59 640.153 1075.39C642.324 1069.75 645.506 1062.91 650.279 1055.66C654.421 1049.37 658.714 1044.32 662.527 1040.41C659.067 1036.19 655.406 1031.32 651.769 1025.71C648.082 1020.03 645.077 1014.58 642.653 1009.6V1009.63Z" fill="#30302E" stroke="black" stroke-width="3" stroke-linecap="round" stroke-linejoin="round"/>
<path d="M1428.38 697.781C1426.49 556.615 1385.07 489.341 1340.27 455.173C1311.16 432.976 1303.13 441.915 1215.62 405.753C1083.85 351.281 1058.35 312.947 999.836 319.791C972.764 322.947 932.385 336.533 886.802 390.5C750.284 389.666 694.676 427.193 669.928 464.264C651.594 491.765 662.024 501.336 640.912 592.298C614.093 707.983 588.31 731.14 594.497 792.48C597.653 823.794 608.739 860.992 637.048 901.801C633.361 916.802 627.578 949.404 639.422 987.334C647.124 1011.96 659.397 1029.68 668.211 1040.42C652.175 1056.98 642.68 1077.54 640.129 1098.3C673.312 1066.07 727.909 1020.92 772.153 990.895C770.284 989.733 768.415 988.521 766.572 987.309C724.828 959.985 688.363 921.751 669.069 868.189C630.129 760.131 685.635 658.335 696.191 638.966C704.626 623.486 714.071 609.394 724.197 596.566C763.34 604.849 789.174 607.753 802.709 607.753C805.361 607.753 807.533 607.627 809.225 607.425C811.977 607.122 818.392 606.364 823.846 601.717C828.796 597.45 830.564 591.894 831.548 588.813C835.816 575.53 838.897 565.908 839.023 549.544C839.074 540.882 839.2 526.387 833.165 509.139C900.363 475.224 963.244 468.961 974.254 468.052C1035.77 462.875 1109.28 473.002 1174.74 503.71C1173.7 506.387 1172.85 508.76 1172.19 510.604C1165.98 528.104 1166.08 542.802 1166.18 551.565C1166.28 567.954 1169.36 577.55 1173.65 590.934C1174.61 593.939 1176.38 599.495 1181.33 603.738C1186.79 608.384 1193.2 609.117 1195.93 609.445C1197.62 609.647 1199.82 609.748 1202.47 609.748C1216.15 609.748 1242.34 606.819 1282.09 598.359L1282.39 598.308C1285.37 597.955 1288.28 597.424 1291.13 596.743C1301.59 610.859 1310.9 626.264 1318.81 643.006C1322.34 650.507 1383.46 785.687 1310.68 911.574C1292.37 943.242 1269.24 967.965 1243.81 987.309H1224.06C1227.39 989.531 1230.83 991.854 1234.29 994.253C1291.43 1033.77 1363.46 1096.1 1385.07 1123.58C1394.22 1135.19 1402.02 1146.2 1408.61 1156.91C1423.51 1141.81 1433.91 1128.78 1439.87 1120.87C1440.55 1119.99 1441.16 1119.16 1441.72 1118.42C1441.11 1118.63 1440.48 1118.78 1439.87 1118.93V1074.46C1449.39 1064.63 1458.31 1044.18 1461.92 1001.93C1459.47 1002.94 1450.53 1006.48 1439.87 1008.82V987.309H1394.01C1390.86 943.419 1450.43 889.276 1465.35 837.709C1473.51 809.602 1473.31 765.181 1428.38 697.755V697.781Z" fill="#30302E" stroke="black" stroke-width="3" stroke-miterlimit="10"/>
<path d="M941.648 507.926C953.189 495.299 978.543 471.41 1015.61 466.283C1026.8 464.743 1061.52 461.788 1116.65 499.466C1221.63 571.235 1193.47 648.889 1284.49 699.623C1317.54 718.058 1357.97 728.285 1367.34 763.059C1373 784.019 1359.89 804.247 1363.25 805.838C1368.3 808.186 1400.35 765.913 1411.89 729.22C1441.41 635.177 1359.59 503.33 1259.71 436.51C1090.21 323.097 880.106 404.64 832.882 424.893C734.168 467.217 702.55 492.774 691.035 515.906C672.575 552.977 690.404 565.579 667.827 641.742C650.857 698.966 633.104 717.78 639.468 757.503C644.998 792.151 657.12 835.384 659.746 834.374C661.236 833.793 656.186 823.212 656.312 812.025C656.64 779.574 708.738 750.458 737.274 727.502C815.357 664.622 778.79 559.644 848.539 526.563C860.232 521.007 878.136 515.981 904.324 519.643" fill="#30302E"/>
<path d="M757.228 616.387C757.051 627.776 755.056 648.66 742.607 670.328C719.803 710.026 679.524 721.541 670.66 723.839" stroke="black" stroke-width="3" stroke-linecap="round" stroke-linejoin="round"/>
<path d="M923.568 483.555C935.942 466.433 966.549 429.286 1016.05 418.225C1087.16 402.341 1159.05 448.832 1195.6 494.742C1235.27 544.567 1225.32 583.583 1279.46 642.6C1300.12 665.126 1320.75 680.353 1335.35 689.874" stroke="black" stroke-width="3" stroke-linecap="round" stroke-linejoin="round"/>
</g>
</g>
<defs>
<clipPath id="clip0_3263_32111">
<rect width="2000" height="2000" fill="white"/>
</clipPath>
<clipPath id="clip1_3263_32111">
<rect width="2000" height="2000" fill="white"/>
</clipPath>
</defs>
</svg>
