<svg width="330" height="302" viewBox="0 0 330 302" fill="none" xmlns="http://www.w3.org/2000/svg">
<g clip-path="url(#clip0_1991_46725)">
<path d="M170.209 101.583C167.798 98.4913 166.334 94.799 166.334 90.7632V75.9938C166.334 70.6699 168.831 65.7754 172.792 62.4265C214.978 79.9437 245.455 119.701 249.33 167.186H240.29C230.561 167.186 222.038 158.685 222.038 148.982V108.967H184.587C182.951 108.967 181.401 108.71 179.851 108.28C176.063 107.164 172.619 104.76 170.209 101.583Z" fill="#F8B519"/>
<path d="M179.851 108.28C176.063 107.164 172.619 104.76 170.209 101.583C173.566 103.558 176.838 105.79 179.851 108.28Z" fill="#EE6B27"/>
<path d="M249.157 190.285C242.7 252.711 190.01 301.571 125.698 302C56.7363 302.515 0.430517 247.044 4.45123e-05 178.263C-0.430428 109.483 55.1005 53.4103 124.062 52.8951C132.672 52.8092 141.109 53.6679 149.202 55.2994C145.414 61.3961 143.261 68.5232 143.261 75.9938V91.1066C143.433 113.261 162.288 131.98 184.587 131.98H198.964V148.982C198.964 161.175 204.647 172.338 213.342 179.981C220.66 186.421 230.13 190.285 240.29 190.285H249.157Z" fill="#F8B519"/>
<path d="M213.342 179.981C212.051 227.38 173.308 265.506 125.439 265.849C76.5378 266.107 36.59 226.865 36.2456 178.092C35.9874 129.232 75.3325 89.4751 124.32 89.1316C130.863 89.0458 137.148 89.7327 143.261 91.1066C143.433 113.261 162.288 131.98 184.586 131.98H198.964V148.982C198.964 161.175 204.646 172.338 213.342 179.981Z" fill="#EE6B27"/>
<path d="M330 75.9937V90.7631C330 100.466 321.477 108.967 311.748 108.967H274.297V148.982C274.297 158.685 265.774 167.186 256.045 167.186H240.29C230.561 167.186 222.038 158.685 222.038 148.982V108.967H184.587C182.951 108.967 181.401 108.71 179.851 108.28C176.063 107.164 172.619 104.76 170.209 101.583C167.798 98.4913 166.334 94.799 166.334 90.7631V75.9937C166.334 70.6699 168.831 65.7754 172.792 62.4265C176.063 59.5928 180.11 57.7896 184.587 57.7896H222.038V18.2041C222.038 8.50099 230.561 0 240.29 0H256.045C265.774 0 274.297 8.50099 274.297 18.2041V57.7896H311.748C321.477 57.7896 330 66.2906 330 75.9937Z" fill="#C8D24A"/>
</g>
<defs>
<clipPath id="clip0_1991_46725">
<rect width="330" height="302" fill="white"/>
</clipPath>
</defs>
</svg>
