<svg width="24" height="24" viewBox="0 0 24 24" fill="none" xmlns="http://www.w3.org/2000/svg">
<rect width="24" height="24" rx="8" fill="#FBB615"/>
<path d="M15.5074 14.6099L19.302 16.7043C19.302 16.7043 19.558 17.8049 18.167 17.6421C19.0294 18.8438 17.7997 19.3435 16.8928 18.8157C16.7593 20.2532 15.8579 20.0679 15.5074 19.8545L13.6323 16.1428L15.513 14.6155L15.5074 14.6099Z" fill="#FDEDCC"/>
<path d="M15.88 17.861C15.8578 17.8891 15.6909 18.0744 15.4238 18.0744C15.1957 18.0744 15.051 17.9452 15.0065 17.9059C14.9787 17.8779 14.7617 17.6701 14.8173 17.423C14.8173 17.4062 14.8674 17.1984 15.0232 17.1703C15.0955 17.1535 15.1957 17.1703 15.2346 17.2377C15.2736 17.3107 15.1901 17.3669 15.2123 17.4848C15.229 17.5746 15.3014 17.6813 15.4071 17.6982C15.5239 17.7206 15.6185 17.6308 15.6408 17.6027C15.7298 17.5129 15.7409 17.4006 15.7465 17.3613C15.7521 17.1872 15.6296 17.0636 15.5907 17.0243C15.4627 16.8952 15.3069 16.8727 15.2624 16.8671C15.1345 16.8503 14.8062 16.8896 14.6448 17.1591C14.5169 17.3669 14.5669 17.5859 14.5781 17.6364C14.6337 17.9003 14.8284 18.0351 14.8841 18.0744C14.9341 18.1081 15.1233 18.2204 15.3793 18.1867C15.6964 18.1418 15.8578 17.8947 15.8856 17.8554L15.88 17.861Z" fill="#EE6B27"/>
<mask id="mask0_2047_11047" style="mask-type:luminance" maskUnits="userSpaceOnUse" x="13" y="14" width="7" height="6">
<path d="M15.5074 14.6099L19.302 16.7043C19.302 16.7043 19.558 17.8049 18.167 17.6421C19.0294 18.8438 17.7997 19.3435 16.8928 18.8157C16.7593 20.2532 15.8579 20.0679 15.5074 19.8545L13.6323 16.1428L15.513 14.6155L15.5074 14.6099Z" fill="white"/>
</mask>
<g mask="url(#mask0_2047_11047)">
<path d="M18.9569 18.5239C19.6698 18.5239 20.2477 17.9407 20.2477 17.2212C20.2477 16.5017 19.6698 15.9185 18.9569 15.9185C18.2439 15.9185 17.666 16.5017 17.666 17.2212C17.666 17.9407 18.2439 18.5239 18.9569 18.5239Z" fill="#F8B519"/>
</g>
<path d="M17.716 15.8284L15.5071 14.6099L13.6265 16.1372L14.3553 17.5859C15.4292 17.075 16.9927 16.2271 17.716 15.8284Z" fill="#FDEDCC"/>
<path d="M8.52392 9.44396L4.6959 7.38317C4.6959 7.38317 4.45108 6.27696 5.86433 6.41735C5.00748 5.21007 6.49306 4.22178 7.17743 5.21007C7.33323 3.75572 8.25128 3.92979 8.60738 4.13756L10.182 7.95031L8.52392 9.44396Z" fill="#FDEDCC"/>
<mask id="mask1_2047_11047" style="mask-type:luminance" maskUnits="userSpaceOnUse" x="4" y="4" width="7" height="6">
<path d="M8.52392 9.44396L4.6959 7.38317C4.6959 7.38317 4.45108 6.27696 5.86433 6.41735C5.00748 5.21007 6.49306 4.22178 7.17743 5.21007C7.33323 3.75572 8.25128 3.92979 8.60738 4.13756L10.182 7.95031L8.52392 9.44396Z" fill="white"/>
</mask>
<g mask="url(#mask1_2047_11047)">
<path d="M8.28499 6.36133C8.9979 6.36133 9.57583 5.77808 9.57583 5.0586C9.57583 4.33911 8.9979 3.75586 8.28499 3.75586C7.57207 3.75586 6.99414 4.33911 6.99414 5.0586C6.99414 5.77808 7.57207 6.36133 8.28499 6.36133Z" fill="#F8B519"/>
<path d="M7.47274 8.12435C7.43379 8.16927 7.19454 8.44441 6.79393 8.44441C6.46009 8.44441 6.23753 8.2535 6.17633 8.19734C6.13182 8.15804 5.80911 7.84358 5.89257 7.47859C5.89257 7.45613 5.97046 7.14729 6.20415 7.09675C6.31543 7.07429 6.46566 7.10237 6.51573 7.19783C6.57137 7.30452 6.45453 7.38875 6.48235 7.56282C6.50461 7.69759 6.61589 7.85481 6.77168 7.88289C6.94416 7.91658 7.08326 7.78181 7.11664 7.74251C7.25018 7.60774 7.26687 7.43928 7.27244 7.38313C7.28356 7.11922 7.09995 6.94514 7.03875 6.88338C6.84401 6.69246 6.61032 6.65877 6.54912 6.65315C6.35994 6.63069 5.87031 6.68684 5.63106 7.09114C5.44188 7.39998 5.51422 7.72566 5.53091 7.80428C5.61993 8.19173 5.9037 8.39949 5.98715 8.45564C6.05949 8.50618 6.34325 8.67464 6.7216 8.61849C7.18898 8.5511 7.43379 8.18611 7.47274 8.12996V8.12435Z" fill="#EE6B27"/>
</g>
<path d="M10.1819 7.9502L9.23605 5.67041C8.62957 6.15894 7.59467 7.11914 6.79346 8.51734L8.51829 9.44947L10.1764 7.95581L10.1819 7.9502Z" fill="#FDEDCC"/>
<path d="M15.6399 16.227C13.8093 17.9004 11.3 16.7661 9.33032 14.4751C7.36067 12.1784 6.68743 9.43818 8.50685 7.92207C10.2484 6.46772 12.8468 7.383 14.8164 9.67402C16.7861 11.9707 17.5984 14.4358 15.6399 16.227Z" fill="#FDEDCC"/>
<mask id="mask2_2047_11047" style="mask-type:luminance" maskUnits="userSpaceOnUse" x="7" y="7" width="10" height="11">
<path d="M15.6399 16.227C13.8093 17.9004 11.3 16.7661 9.33032 14.4751C7.36067 12.1784 6.68743 9.43818 8.50685 7.92207C10.2484 6.46772 12.8468 7.383 14.8164 9.67402C16.7861 11.9707 17.5984 14.4358 15.6399 16.227Z" fill="white"/>
</mask>
<g mask="url(#mask2_2047_11047)">
<path d="M14.4435 8.5305C14.5573 7.82023 14.0789 7.15139 13.3752 7.03661C12.6714 6.92183 12.0086 7.40456 11.8949 8.11483C11.7812 8.82509 12.2595 9.49393 12.9633 9.60871C13.6671 9.7235 14.3298 9.24076 14.4435 8.5305Z" fill="#F8B519"/>
<path d="M10.6541 15.7998C11.367 15.7998 11.945 15.2166 11.945 14.4971C11.945 13.7776 11.367 13.1943 10.6541 13.1943C9.94121 13.1943 9.36328 13.7776 9.36328 14.4971C9.36328 15.2166 9.94121 15.7998 10.6541 15.7998Z" fill="#F8B519"/>
<path d="M12.3289 18.9448C13.0418 18.9448 13.6198 18.3616 13.6198 17.6421C13.6198 16.9226 13.0418 16.3394 12.3289 16.3394C11.616 16.3394 11.0381 16.9226 11.0381 17.6421C11.0381 18.3616 11.616 18.9448 12.3289 18.9448Z" fill="#EE6B27"/>
<path d="M9.65711 7.44287C9.82015 6.74245 9.3897 6.04127 8.69568 5.87673C8.00166 5.71219 7.30687 6.14661 7.14384 6.84702C6.9808 7.54744 7.41125 8.24862 8.10527 8.41316C8.79929 8.5777 9.49407 8.14328 9.65711 7.44287Z" fill="#EE6B27"/>
<path d="M17.4242 16.6773C17.5889 15.9773 17.16 15.2751 16.4663 15.109C15.7727 14.9429 15.0769 15.3757 14.9123 16.0757C14.7477 16.7758 15.1766 17.4779 15.8702 17.6441C16.5639 17.8102 17.2596 17.3774 17.4242 16.6773Z" fill="#F8B519"/>
</g>
<path d="M16.0126 13.0601C15.957 13.1218 15.5953 13.5318 15 13.5318C14.5048 13.5318 14.1765 13.251 14.0819 13.1668C14.0152 13.105 13.5422 12.6445 13.6646 12.0999C13.6702 12.0662 13.7815 11.6113 14.1209 11.5383C14.2822 11.5046 14.5048 11.5496 14.5827 11.69C14.6662 11.8472 14.4881 11.9707 14.5326 12.229C14.566 12.4312 14.7329 12.6614 14.9666 12.7007C15.2226 12.7512 15.4284 12.5491 15.4841 12.4929C15.6844 12.2964 15.7066 12.0437 15.7122 11.9539C15.7289 11.5664 15.4562 11.3025 15.3672 11.2127C15.0779 10.9319 14.7329 10.8814 14.6383 10.8701C14.3601 10.8364 13.6313 10.9207 13.2696 11.5159C12.9914 11.9763 13.0971 12.4592 13.1249 12.5715C13.2529 13.1499 13.6758 13.4531 13.8037 13.5374C13.9095 13.6104 14.3323 13.8631 14.8943 13.7844C15.5898 13.6834 15.9514 13.1443 16.0071 13.0545L16.0126 13.0601Z" fill="#EE6B27"/>
<path d="M10.3155 11.2074C10.2766 11.2523 10.0373 11.5274 9.63671 11.5274C9.30287 11.5274 9.08031 11.3365 9.0191 11.2804C8.97459 11.241 8.65188 10.9266 8.73534 10.5616C8.73534 10.5391 8.81324 10.2303 9.04692 10.1798C9.1582 10.1573 9.30843 10.1854 9.35851 10.2808C9.41415 10.3875 9.2973 10.4718 9.32512 10.6458C9.34738 10.7806 9.45866 10.9378 9.61445 10.9659C9.78693 10.9996 9.92603 10.8648 9.95942 10.8255C10.093 10.6908 10.1096 10.5223 10.1152 10.4661C10.1263 10.2022 9.94273 10.0282 9.88152 9.96638C9.68678 9.77547 9.45309 9.74177 9.39189 9.73616C9.20272 9.7137 8.71308 9.76985 8.47383 10.1741C8.28466 10.483 8.35699 10.8087 8.37368 10.8873C8.46271 11.2747 8.74647 11.4825 8.82993 11.5387C8.90226 11.5892 9.18602 11.7576 9.56437 11.7015C10.0317 11.6341 10.2766 11.2691 10.3155 11.213V11.2074Z" fill="#EE6B27"/>
</svg>
