<svg width="24" height="24" viewBox="0 0 24 24" fill="none" xmlns="http://www.w3.org/2000/svg">
<rect width="24" height="24" rx="8" fill="#FBB615"/>
<g clip-path="url(#clip0_2047_11051)">
<path d="M15.816 4.81525C17.9248 4.81525 19.6453 6.61581 19.6453 8.82272C19.6453 12.8302 15.816 15.1212 11.9867 19.1287C8.15741 15.1212 4.32812 12.8302 4.32812 8.82272C4.32812 6.61581 6.04863 4.81525 8.15741 4.81525C10.0721 4.81525 11.0294 5.81711 11.9867 7.82085C12.944 5.81711 13.9013 4.81525 15.816 4.81525Z" fill="#EF6724"/>
<path d="M11.9866 19.5C11.9063 19.5 11.8192 19.472 11.7389 19.3879C10.8084 18.4141 9.87782 17.5593 9.00084 16.7256C7.66192 15.4645 6.40335 14.2945 5.49958 13.0614C4.4954 11.6532 4 10.3361 4 8.85077C4 6.44769 5.86109 4.5 8.15732 4.5C10.0987 4.5 11.1096 5.47384 11.9866 7.10626C12.8636 5.47384 13.8745 4.5 15.8159 4.5C18.1121 4.5 20 6.44769 20 8.85077C20 10.308 19.5381 11.6532 18.4937 13.0614C17.59 14.2665 16.3314 15.4645 14.9925 16.6976C14.0887 17.5243 13.1849 18.386 12.2276 19.3879C12.1741 19.444 12.0603 19.5 11.9799 19.5H11.9866ZM8.15732 5.1866C6.24268 5.1866 4.68285 6.81901 4.68285 8.82275C4.68285 11.6882 6.79163 13.6569 9.46946 16.1511C10.2929 16.9218 11.1364 17.7275 12.0134 18.6102C12.8904 17.7205 13.7339 16.9218 14.5573 16.1511C17.2084 13.6639 19.3172 11.6882 19.3172 8.82275C19.3172 6.81901 17.7573 5.1866 15.8159 5.1866C14.1757 5.1866 13.2987 5.90121 12.2879 7.98902C12.2343 8.10112 12.1205 8.1922 11.9866 8.1922C11.8527 8.1922 11.7389 8.10813 11.6854 7.98902C10.6745 5.90121 9.79749 5.1866 8.15732 5.1866Z" fill="#EF6724"/>
<path d="M15.3805 13.0752C14.9923 14.4904 12.8433 14.8688 12.5822 14.9108C12.5019 14.9248 12.4416 14.9318 12.4082 14.9388C11.3973 15.0719 9.24832 14.9388 8.68598 13.5306C8.23744 12.3956 9.04748 10.9804 9.26171 10.6021C9.46255 10.2447 10.2458 8.87856 11.6517 8.75245C12.9705 8.63335 13.8743 9.69126 14.2492 10.1326C14.5705 10.504 15.722 11.8561 15.3805 13.0752Z" fill="#FFEECC"/>
<path d="M11.6562 11.7034C11.7942 11.0418 11.5897 10.4333 11.1996 10.3442C10.8095 10.2551 10.3814 10.7192 10.2434 11.3807C10.1055 12.0423 10.3099 12.6508 10.7 12.7399C11.0902 12.829 11.5183 12.3649 11.6562 11.7034Z" fill="#EF6724"/>
<path d="M13.1885 12.6054C13.5091 12.4986 13.6372 11.9786 13.4745 11.444C13.3119 10.9094 12.9201 10.5626 12.5995 10.6694C12.2789 10.7762 12.1509 11.2962 12.3135 11.8308C12.4762 12.3654 12.8679 12.7122 13.1885 12.6054Z" fill="#EF6724"/>
</g>
<defs>
<clipPath id="clip0_2047_11051">
<rect width="16" height="15" fill="white" transform="translate(4 4.5)"/>
</clipPath>
</defs>
</svg>
