<svg width="326" height="248" viewBox="0 0 326 248" fill="none" xmlns="http://www.w3.org/2000/svg">
<g clip-path="url(#clip0_1991_46726)">
<path d="M188.768 49.5829H223.44C234.826 64.6287 242.874 82.4102 246.298 101.73H188.768C179.608 101.73 171.561 93.0961 171.561 83.1796V68.1337C171.561 62.6625 173.958 57.6187 177.725 54.1992C180.721 51.2926 184.659 49.5829 188.768 49.5829Z" fill="#F8B519"/>
<path d="M212.14 118.828H188.769C170.192 118.828 154.44 102.5 154.44 83.1799V68.134C154.44 59.4143 157.693 51.293 162.915 45.0523C169.25 37.3584 178.581 32.4856 188.769 32.4856H207.86C185.601 12.1396 155.895 -0.170682 123.363 0.000293185C54.7904 0.427732 -0.427527 56.3367 0.000518784 124.812C0.428565 193.288 56.417 248.428 124.99 248C193.563 247.573 248.781 191.664 248.353 123.188C248.353 121.735 248.267 120.282 248.267 118.828H212.14Z" fill="#F8B519"/>
<path d="M209.4 101.73H188.768C179.608 101.73 171.561 93.0961 171.561 83.1796V68.1337C171.561 62.6625 173.958 57.6187 177.725 54.1992C193.049 65.911 204.435 82.4957 209.4 101.73Z" fill="#EE6B27"/>
<path d="M212.311 123.444C212.568 172.001 173.444 211.668 124.733 211.924C76.1065 212.266 36.3838 173.113 36.127 124.556C35.7845 75.9986 74.9936 36.3323 123.62 36.0759C137.745 35.9904 151.1 39.2389 162.914 45.0521C157.692 51.2927 154.439 59.414 154.439 68.1338V83.1796C154.439 102.5 170.191 118.828 188.768 118.828H212.14C212.225 120.367 212.311 121.906 212.311 123.444Z" fill="#EE6B27"/>
<path d="M326 68.1337V83.1796C326 93.0961 317.953 101.73 308.793 101.73H188.768C179.608 101.73 171.561 93.0961 171.561 83.1796V68.1337C171.561 62.6625 173.958 57.6187 177.725 54.1992C180.721 51.2926 184.659 49.5829 188.768 49.5829H308.793C317.953 49.5829 326 58.2171 326 68.1337Z" fill="#EE6B27"/>
</g>
<defs>
<clipPath id="clip0_1991_46726">
<rect width="326" height="248" fill="white"/>
</clipPath>
</defs>
</svg>
