<svg width="2000" height="2000" viewBox="0 0 2000 2000" fill="none" xmlns="http://www.w3.org/2000/svg">
<g clip-path="url(#clip0_2620_4551)">
<path d="M770.258 998.252C808.205 1019.3 889.875 1057.98 1000.39 1059.29C1113.37 1060.62 1197.42 1022.2 1235.74 1001.68" stroke="#FCD43F" stroke-width="6.87" stroke-miterlimit="10" stroke-linecap="round"/>
<path d="M999.216 1051.98H1001.47C1005.02 1051.98 1007.91 1054.86 1007.91 1058.41V1084.13H992.775V1058.41C992.775 1054.86 995.663 1051.98 999.216 1051.98Z" fill="#EAB120"/>
<path d="M993.507 1146.6C997.61 1149.96 1003.58 1149.78 1007.45 1146.15C1012.39 1141.54 1017.96 1136.3 1024.04 1130.54C1038.09 1117.24 1041.47 1113.86 1043.95 1107.51C1045.02 1104.78 1051.09 1089.27 1042.19 1077.54C1041.45 1076.57 1034.35 1067.53 1022.57 1067.84C1013.33 1068.09 1004.84 1074 1000.8 1083.02C996.033 1072.84 985.775 1066.8 975.697 1067.95C961.971 1069.51 956.148 1083.53 955.578 1084.97C955.008 1086.4 953.137 1091.5 953.878 1098.49C954.486 1104.17 956.956 1112.29 976.086 1131C980.531 1135.34 986.335 1140.71 993.507 1146.58V1146.6Z" fill="#FCD43F"/>
<path d="M1023.64 1101.59C1023.6 1102.22 1023.3 1102.86 1022.82 1103.33C1022.35 1103.8 1021.69 1104.09 1021.08 1104.11C1020.69 1104.12 1020.48 1104.09 1020.13 1103.99C1019.83 1103.91 1019.56 1103.79 1019.35 1103.61C1019.39 1103.65 1019.31 1103.58 1019.31 1103.58C1019.28 1103.55 1019.25 1103.52 1019.22 1103.49C1019.19 1103.45 1019.16 1103.42 1019.13 1103.39C1019.14 1103.4 1019.18 1103.46 1019.14 1103.4C1019.09 1103.34 1019.05 1103.27 1019.02 1103.21C1019.01 1103.19 1018.97 1103.09 1019.01 1103.19C1019 1103.15 1018.98 1103.11 1018.97 1103.07C1018.96 1103.03 1018.95 1102.98 1018.95 1102.94C1018.95 1102.95 1018.95 1103.03 1018.95 1102.95C1018.95 1102.87 1018.95 1102.79 1018.95 1102.71C1018.94 1102.82 1018.97 1102.61 1018.98 1102.58C1019 1102.52 1019.04 1102.37 1019.05 1102.35C1019.26 1101.81 1019.82 1101.27 1020.37 1101.26C1020.61 1101.26 1020.88 1101.35 1021.06 1101.49C1021.34 1101.72 1021.46 1101.88 1021.62 1102.19C1021.64 1102.22 1021.71 1102.38 1021.69 1102.33C1021.66 1102.27 1021.7 1102.36 1021.7 1102.37C1021.72 1102.4 1021.73 1102.44 1021.74 1102.47C1021.77 1102.56 1021.79 1102.64 1021.81 1102.72C1021.84 1102.85 1021.83 1102.77 1021.83 1102.9C1021.84 1103.29 1021.81 1103.49 1021.69 1103.87C1021.47 1104.51 1021 1105.14 1020.43 1105.58C1019.72 1106.13 1018.79 1106.35 1017.88 1106.24C1017.89 1106.24 1017.94 1106.25 1017.87 1106.24C1017.81 1106.24 1017.74 1106.22 1017.69 1106.21C1017.59 1106.19 1017.5 1106.17 1017.41 1106.15C1017.26 1106.11 1017.11 1106.07 1016.95 1106.01C1016.89 1105.99 1016.83 1105.97 1016.77 1105.95C1016.68 1105.91 1016.91 1106.01 1016.74 1105.93C1016.7 1105.91 1016.65 1105.89 1016.6 1105.86C1015.84 1105.45 1015.15 1106.61 1015.92 1107.02C1017.47 1107.86 1019.52 1107.84 1020.98 1106.83C1022.62 1105.71 1023.76 1103.54 1022.84 1101.62C1022.45 1100.81 1021.69 1100.09 1020.77 1099.95C1019.67 1099.78 1018.66 1100.42 1018.07 1101.32C1017.55 1102.13 1017.39 1103.23 1017.95 1104.05C1018.47 1104.83 1019.37 1105.26 1020.27 1105.4C1021.44 1105.57 1022.56 1105.28 1023.48 1104.54C1024.38 1103.82 1024.91 1102.74 1024.99 1101.59C1025.01 1101.23 1024.66 1100.92 1024.31 1100.92C1023.93 1100.92 1023.66 1101.23 1023.64 1101.59H1023.64Z" fill="#FFEECC"/>
<path d="M999.097 1093.05C999.167 1093 999.253 1092.94 999.355 1092.88C999.582 1093.14 999.799 1093.43 1000 1093.72C1000.87 1094.98 1001.35 1096.27 1001.61 1097.43C1001.21 1097.47 1000.76 1097.37 1000.34 1097.14L1000.32 1097.13C998.868 1096.5 998.077 1096.02 997.841 1095.8C997.78 1095.75 997.667 1095.65 997.628 1095.49C997.597 1095.35 997.628 1095.23 997.665 1095.12C997.807 1094.68 997.9 1094.39 998.195 1093.98C998.353 1093.75 998.623 1093.37 999.094 1093.05L999.097 1093.05Z" fill="#FFEECC"/>
<path d="M1019.35 1119.61C1018.72 1121.58 1017.44 1123.89 1016.49 1125.11C1015.93 1125.82 1015.4 1126.56 1014.82 1127.27C1014.36 1127.84 1014.15 1128.07 1013.86 1128.55C1013.48 1129.21 1013.36 1129.57 1013.07 1130.16C1012.74 1130.83 1012.57 1131.16 1012.3 1131.39C1012.1 1131.57 1011.78 1131.72 1011.15 1132.01C1010.52 1132.3 1010.39 1132.31 1010.3 1132.25C1010 1132.07 1010.18 1131.33 1010.19 1131.28C1010.14 1131.38 1010 1131.62 1009.71 1131.81C1009.58 1131.89 1009.24 1132.11 1009.05 1132.01C1008.59 1131.8 1009.05 1129.93 1009.22 1129.22C1009.41 1128.42 1009.72 1127.34 1010.25 1126.1C1010.23 1126.11 1010.2 1126.12 1010.17 1126.14C1006.85 1127.76 1003.2 1127.89 1003.2 1127.89C997.694 1128.07 992.733 1125.11 992.869 1124.64C992.894 1124.56 993.093 1124.6 993.551 1124.54C995.165 1124.32 997.134 1123.13 997.632 1121.29C997.694 1121.06 997.961 1119.98 997.462 1118.85C996.295 1116.19 992.196 1116.09 991.849 1116.08C991.174 1116.07 987.974 1116.22 985.971 1118.24C985.534 1118.68 985.364 1118.99 984.985 1119.01C984.641 1119.02 984.045 1118.8 982.255 1114.94C981.648 1113.63 981.09 1112.41 980.49 1110.66C980.118 1109.57 979.764 1108.35 979.44 1106.93C979.012 1105.03 978.799 1103.4 978.686 1102.2C978.328 1101.89 977.444 1101.04 977.109 1099.63C976.898 1098.75 976.986 1098 977.075 1097.56C979.098 1096.55 981.124 1095.54 983.148 1094.53C982.901 1093.97 982.654 1093.41 982.407 1092.85C983.111 1092.07 984.505 1090.74 986.678 1089.87C988.568 1089.11 990.177 1089.05 990.719 1089.05C993.334 1089.02 996.66 1089.99 999.037 1092.52C998.956 1092.58 998.886 1092.63 998.829 1092.66C998.287 1093.04 997.979 1093.47 997.811 1093.71C997.476 1094.18 997.363 1094.53 997.218 1094.98C997.181 1095.09 997.104 1095.33 997.172 1095.6C997.245 1095.9 997.44 1096.08 997.526 1096.16C997.875 1096.47 998.87 1097.02 1000.12 1097.57C1000.56 1097.8 1001.02 1097.92 1001.44 1097.92C1001.53 1097.92 1001.62 1097.91 1001.7 1097.9C1001.99 1099.53 1001.86 1100.85 1001.79 1101.38C1002.89 1100.96 1004.97 1100.34 1007.57 1100.61C1011.39 1101 1013.87 1103.07 1014.82 1103.89C1017.54 1106.23 1018.66 1108.99 1019.09 1110.31C1019.71 1112.23 1020.55 1115.86 1019.35 1119.61L1019.35 1119.61Z" fill="#FFEECC"/>
<path d="M996.418 1122.31C995.079 1124.25 991.875 1124.13 991.46 1124.09C991.385 1124.08 990.987 1124.07 990.445 1124.07C990.422 1124.07 990.021 1124.07 989.722 1124.14C989.074 1124.28 988.648 1124.74 988.394 1125.02C987.535 1125.96 987.76 1126.6 986.935 1127.17C986.822 1127.25 986.348 1127.58 986.078 1127.41C985.956 1127.34 985.92 1127.19 985.804 1126.52C985.754 1126.23 985.707 1125.95 985.666 1125.7C985.451 1125.96 985.253 1126.27 985.117 1126.64C984.943 1127.11 984.977 1127.38 984.741 1127.57C984.503 1127.77 984.082 1127.81 983.833 1127.68C982.842 1127.17 983.776 1123.6 983.864 1123.27C984.229 1121.91 984.56 1120.68 985.645 1119.44C987.035 1117.86 988.725 1117.33 989.389 1117.13C989.586 1117.07 990.529 1116.8 991.802 1116.79C992.833 1116.77 993.851 1116.76 994.92 1117.33C995.387 1117.58 996.523 1118.19 996.901 1119.5C997.327 1120.96 996.486 1122.22 996.423 1122.31H996.418Z" fill="#FFEECC"/>
<path d="M996.324 1127.17C996.2 1127.61 996.127 1127.99 996.084 1128.27C996.021 1128.67 995.989 1128.88 996.021 1129.16C996.034 1129.29 996.057 1129.39 996.082 1129.48C996.164 1129.76 996.223 1129.82 996.189 1129.9C996.13 1130.05 995.833 1130.13 995.602 1130.06C995.28 1129.96 995.18 1129.61 995.173 1129.58C995.173 1129.63 995.173 1130.01 994.951 1130.12C994.829 1130.19 994.688 1130.14 994.591 1130.1C993.619 1129.73 993.089 1129.01 993.089 1129.01C992.653 1128.33 992.28 1127.36 992.087 1126.54C991.999 1126.16 991.813 1125.07 992.169 1124.9C992.388 1124.79 992.613 1125.13 993.573 1125.73C993.954 1125.97 994.416 1126.21 995.341 1126.68C995.74 1126.88 996.077 1127.05 996.327 1127.17L996.324 1127.17Z" fill="#FFEECC"/>
<path d="M1001.22 1128.33C1001.9 1128.38 1002.91 1128.42 1004.14 1128.32C1006.12 1128.16 1007.66 1127.71 1007.7 1127.85C1007.76 1128.03 1005.21 1128.23 1004.31 1129.87C1004.11 1130.24 1003.88 1130.86 1003.28 1131.11C1003.05 1131.2 1002.8 1131.22 1002.32 1131.24C1001.82 1131.27 1001.45 1131.29 1001.36 1131.11C1001.3 1131 1001.37 1130.85 1001.51 1130.57C1001.62 1130.34 1001.74 1130.16 1001.84 1130.05C1001.53 1130.14 1001.36 1130.3 1001.26 1130.46C1001.16 1130.6 1001.16 1130.7 1001.07 1130.78C1000.95 1130.88 1000.74 1130.92 1000.31 1130.75C1000.3 1130.5 1000.32 1130.16 1000.41 1129.79C1000.6 1129.07 1000.99 1128.58 1001.22 1128.33V1128.33Z" fill="#FFEECC"/>
<path d="M983.626 1093.75C983.85 1095.58 982.894 1097.33 981.305 1098.06C979.946 1098.69 978.312 1098.49 977.075 1097.56C976.92 1097.35 976.76 1097.11 976.605 1096.84C976.381 1096.45 976.211 1096.08 976.082 1095.74C977.895 1094.26 979.708 1092.78 981.521 1091.3C981.913 1091.54 982.466 1091.96 982.962 1092.61C983.277 1093.03 983.485 1093.43 983.626 1093.76V1093.75Z" fill="#EF6724"/>
<path d="M984.225 1100.86C982.694 1101.28 980.407 1100.57 980.407 1100.57C979.541 1100.35 978.558 1100 977.559 1099.42C977.366 1099.3 977.182 1099.19 977.008 1099.07C977.001 1099.01 976.994 1098.93 976.99 1098.86C976.983 1098.78 976.981 1098.7 976.979 1098.62C977.028 1098.65 977.065 1098.67 977.085 1098.68C980.355 1100.26 983.253 1100.24 983.779 1100.14C983.847 1100.13 983.913 1100.12 983.981 1100.1C984.055 1100.09 984.355 1100.08 984.491 1100.29C984.556 1100.39 984.583 1100.54 984.525 1100.66C984.511 1100.68 984.448 1100.8 984.228 1100.86L984.225 1100.86Z" fill="#EF6724"/>
<path d="M981.674 1095.42C981.454 1096.01 981.078 1096.99 980.124 1097.37C979.784 1097.5 979.442 1097.52 979.118 1097.49C978.54 1097.43 978.014 1097.18 977.631 1097C977.233 1096.82 976.816 1096.62 976.498 1096.33C976.319 1096.17 976.172 1095.98 976.081 1095.74C975.587 1094.46 976.886 1093.06 977.235 1092.69C977.867 1092 979.261 1090.87 980.462 1090.88C980.518 1090.88 980.575 1090.88 980.632 1090.89C980.858 1090.91 981.076 1090.98 981.278 1091.1C982.494 1091.85 982.13 1094.22 981.676 1095.42L981.674 1095.42Z" fill="#FAE2BA"/>
<path d="M978.974 1093.56C979.346 1093.03 979.41 1092.43 979.116 1092.22C978.823 1092.02 978.282 1092.28 977.909 1092.81C977.537 1093.34 977.473 1093.93 977.766 1094.14C978.06 1094.35 978.601 1094.09 978.974 1093.56Z" fill="#EF6724"/>
<path d="M980.913 1093.97C981.08 1093.3 980.933 1092.69 980.584 1092.6C980.236 1092.52 979.818 1092.99 979.651 1093.65C979.485 1094.32 979.632 1094.93 979.981 1095.02C980.329 1095.11 980.747 1094.64 980.913 1093.97Z" fill="#EF6724"/>
<path d="M987.588 1096.48C988.073 1095.84 988.937 1095.43 989.759 1095.66C990.233 1095.79 990.634 1096.11 990.931 1096.5C991.121 1096.74 991.228 1096.91 991.332 1097.16C991.527 1097.62 992.254 1097.34 992.057 1096.88C991.663 1095.95 990.876 1095.15 989.886 1094.89C988.817 1094.61 987.641 1095.12 986.983 1095.98C986.68 1096.38 987.285 1096.88 987.588 1096.47V1096.48Z" fill="#EF6724"/>
<path d="M1015.59 1113.32C1015.52 1113.24 1014.03 1115.03 1011.78 1115.09C1009.89 1115.13 1008.55 1113.92 1008.33 1113.72C1008.08 1113.49 1006.28 1111.78 1006.74 1109.75C1006.77 1109.62 1007.18 1107.92 1008.47 1107.64C1009.08 1107.52 1009.92 1107.68 1010.21 1108.21C1010.54 1108.8 1009.86 1109.27 1010.03 1110.22C1010.16 1110.98 1010.78 1111.83 1011.66 1111.99C1012.63 1112.17 1013.4 1111.42 1013.6 1111.22C1014.35 1110.49 1014.45 1109.55 1014.46 1109.21C1014.52 1107.77 1013.5 1106.78 1013.16 1106.45C1012.07 1105.39 1010.77 1105.21 1010.41 1105.16C1009.35 1105.03 1006.62 1105.35 1005.26 1107.57C1004.21 1109.29 1004.62 1111.09 1004.72 1111.52C1005.2 1113.67 1006.79 1114.8 1007.28 1115.12C1007.62 1115.34 1009.25 1116.35 1011.39 1116.03C1014.1 1115.63 1015.66 1113.41 1015.59 1113.32Z" fill="#EF6724"/>
<path d="M1001.79 1101.39C1001.83 1101.62 1001.88 1101.93 1001.9 1102.3C1001.91 1102.46 1001.91 1102.67 1001.9 1103.02C1001.89 1103.61 1001.83 1104.14 1001.75 1104.6C1001.69 1105.01 1001.58 1105.58 1001.36 1106.23C1000.1 1110.07 996.884 1112.07 996.993 1112.2C997.072 1112.29 998.91 1111.39 1000.3 1109.49C1000.3 1109.49 1002.01 1107.16 1002.37 1103.38C1002.37 1103.35 1002.38 1103.33 1002.38 1103.33C1002.41 1102.99 1002.42 1102.59 1002.4 1102.15C1002.37 1101.8 1002.33 1101.49 1002.27 1101.21C1002.19 1101.24 1002.11 1101.27 1002.02 1101.3C1001.94 1101.33 1001.86 1101.36 1001.78 1101.39L1001.79 1101.39Z" fill="#EF6724"/>
<path d="M1002.43 1097.08C1002.23 1097.29 1001.94 1097.41 1001.61 1097.44C1001.21 1097.47 1000.76 1097.38 1000.34 1097.15L1000.32 1097.14C998.87 1096.5 998.079 1096.02 997.843 1095.81C997.782 1095.75 997.669 1095.65 997.63 1095.49C997.598 1095.36 997.63 1095.24 997.666 1095.12C997.809 1094.69 997.902 1094.4 998.197 1093.98C998.355 1093.75 998.625 1093.38 999.096 1093.05C999.167 1093 999.253 1092.94 999.355 1092.88C999.665 1092.69 1000.11 1092.47 1000.65 1092.47C1000.75 1092.47 1000.85 1092.48 1000.95 1092.49C1001.2 1092.53 1001.85 1092.63 1002.19 1093.21C1002.47 1093.69 1002.37 1094.2 1002.31 1094.4L1002.28 1094.51L1002.34 1094.6C1002.58 1094.93 1002.72 1095.31 1002.76 1095.69C1002.82 1096.32 1002.71 1096.79 1002.43 1097.08L1002.43 1097.08Z" fill="#FFEECC"/>
<path d="M991.934 1086.42C992.41 1086.31 992.797 1086.34 993.033 1086.37C993.382 1086.43 993.978 1086.52 994.37 1087.03C994.648 1087.39 994.68 1087.78 994.689 1087.9C994.737 1088.61 994.306 1089.11 994.216 1089.2C994.018 1089.15 993.744 1089.07 993.413 1089C992.917 1088.89 992.169 1088.72 991.213 1088.69C990.676 1088.67 989.949 1088.69 989.094 1088.84C989.044 1088.62 988.985 1088.26 989.063 1087.82C989.106 1087.58 989.239 1086.81 989.917 1086.35C990.041 1086.27 990.395 1086.03 990.905 1086.04C991.446 1086.05 991.818 1086.33 991.934 1086.42V1086.42Z" fill="#FFEECC"/>
<path d="M994.789 1100.37C994.748 1100.36 994.714 1100.87 994.324 1101.41C994.156 1101.65 993.986 1101.8 993.896 1101.88C993.814 1101.95 993.531 1102.18 993.155 1102.31C993.041 1102.35 991.913 1102.74 991.296 1102.12C991.043 1101.87 990.827 1101.4 991.006 1101C991.115 1100.76 991.387 1100.51 991.641 1100.54C991.926 1100.57 991.917 1100.93 992.291 1101.11C992.586 1101.25 993.037 1101.25 993.313 1100.99C993.619 1100.7 993.554 1100.25 993.535 1100.13C993.472 1099.68 993.171 1099.42 993.06 1099.33C992.575 1098.94 991.976 1099.04 991.772 1099.08C991.133 1099.19 990.744 1099.59 990.637 1099.7C990.129 1100.24 989.767 1101.2 990.173 1102.08C990.605 1103.03 991.643 1103.24 991.954 1103.29C992.176 1103.32 992.813 1103.39 993.472 1103.02C994.091 1102.68 994.365 1102.17 994.492 1101.92C994.888 1101.15 994.838 1100.38 994.789 1100.37Z" fill="#EF6724"/>
</g>
<defs>
<clipPath id="clip0_2620_4551">
<rect width="472" height="154" fill="white" transform="translate(767 995)"/>
</clipPath>
</defs>
</svg>
