<svg width="2000" height="2000" viewBox="0 0 2000 2000" fill="none" xmlns="http://www.w3.org/2000/svg">
<path d="M842.31 445.931C799.859 412.274 760.537 391.329 732.528 378.542C656.987 344.034 627.777 352.292 615.412 357.497C609.956 359.799 604.749 361.976 599.468 366.956C570.508 394.157 593.211 454.439 612.058 504.461C623.722 535.466 643.07 578.381 675.66 626.327C701.816 618.319 727.972 610.312 754.129 602.329L842.31 445.956V445.931Z" fill="#D3F0F6"/>
<path d="M1157.69 455.313C1200.14 421.656 1239.46 400.712 1267.47 387.925C1343.01 353.417 1372.22 361.675 1384.59 366.879C1390.04 369.182 1395.25 371.359 1400.53 376.339C1429.49 403.539 1406.79 463.822 1387.94 513.844C1376.28 544.848 1356.93 587.764 1324.34 635.71C1298.18 627.702 1272.03 619.694 1245.87 611.712L1157.69 455.338V455.313Z" fill="#D3F0F6"/>
<path d="M701.016 713.434C746.27 595.647 944.033 583.685 971.165 582.034C994.994 580.583 1217.79 569.797 1280.74 697.894C1303.71 744.663 1298.38 795.687 1295.08 827.242C1286.69 907.292 1249.75 964.221 1229.48 991.147C1239.44 990.822 1249.5 988.945 1259.29 984.816C1357.68 943.602 1408.57 686.983 1291.12 532.562C1191.03 400.937 1014.37 403.715 976.397 405.466C942.957 407.018 788.947 414.125 701.016 532.562C582.624 692.013 653.434 959.667 742.916 984.816C751.777 987.293 760.012 987.193 766.52 986.342C746.12 959.742 714.933 911.647 701.016 844.608C693.682 809.274 683.345 759.427 701.016 713.409V713.434Z" fill="#5180D2"/>
<path d="M766.519 986.344C811.573 1062.29 826.241 1127.45 831.698 1168.84C843.036 1255.07 821.285 1291.76 814.727 1295.06C808.845 1298.01 803.213 1297.61 803.213 1297.61C803.213 1297.61 798.333 1297.26 793.627 1294.41C768.847 1279.4 775.105 1171.74 775.105 1171.74C777.908 1123.22 767.47 1052.68 705.896 959.844C726.096 968.677 746.32 977.511 766.519 986.344Z" fill="#5180D2"/>
<path d="M1229.45 991.122C1184.4 1067.07 1169.73 1132.23 1164.27 1173.62C1152.93 1259.85 1174.68 1296.54 1181.24 1299.84C1187.12 1302.79 1192.76 1302.39 1192.76 1302.39C1192.76 1302.39 1197.64 1302.04 1202.34 1299.19C1227.25 1284.1 1220.86 1176.52 1220.86 1176.52C1217.99 1127.93 1228.32 1057.16 1289.82 963.846C1269.7 972.954 1249.57 982.038 1229.45 991.147V991.122Z" fill="#5180D2"/>
</svg>
