<svg width="772" height="731" viewBox="0 0 772 731" fill="none" xmlns="http://www.w3.org/2000/svg">
<path d="M391.285 189.658C338.884 137.289 338.884 52.3689 391.285 0C443.686 52.3689 443.686 137.289 391.285 189.658Z" fill="#AED24A"/>
<path d="M391.281 189.658C317.16 189.658 257.094 129.609 257.094 55.5527C331.215 55.5527 391.281 115.602 391.281 189.658Z" fill="#AED24A"/>
<path d="M391.281 189.658C391.281 115.582 451.367 55.5527 525.469 55.5527C525.469 129.629 465.383 189.658 391.281 189.658Z" fill="#AED24A"/>
<path d="M177.095 726.579C95.2687 630.655 75.3994 508.766 125.471 430.392C182.013 341.87 306.544 342.089 379.949 342.229C450.905 342.348 559.549 342.547 620.411 420.961C680.019 497.763 673.19 623.074 603.25 730.439C610.138 730.518 620.511 729.961 632.397 726.559C671.219 715.436 692.821 683.323 705.463 663.943C800.688 518.038 764.931 380.471 764.931 380.471C741.26 289.86 683.941 234.864 662.121 215.883C564.487 130.942 447.302 131.639 376.067 132.057C301.109 132.494 191.111 133.151 101.58 214.351C36.4771 273.425 15.0549 345.213 8.36546 372.87C-22.195 499.017 38.2689 596.373 72.6122 651.766C114.68 719.635 151.353 725.544 160.352 726.559C167.36 727.355 173.233 726.996 177.095 726.559V726.579Z" fill="#EF694F"/>
<path d="M79.3249 541.536C78.21 542.889 75.2634 546.51 71.202 546.51C67.1206 546.51 64.1542 542.869 63.0791 541.536C55.9914 532.821 64.5125 509.899 69.1314 499.135C70.0472 497.006 73.0535 497.026 73.9295 499.175C78.3493 509.939 86.4324 532.821 79.3249 541.536Z" fill="#F8CF54"/>
<path d="M41.1921 468.096C40.0772 469.449 37.1306 473.07 33.0692 473.07C28.9878 473.07 26.0213 469.429 24.9462 468.096C17.8586 459.381 26.3797 436.46 30.9986 425.696C31.9144 423.567 34.9207 423.587 35.7967 425.736C40.2165 436.5 48.2996 459.381 41.1921 468.096Z" fill="#F8CF54"/>
<path d="M101.098 426.254C99.9834 427.607 97.0369 431.229 92.9754 431.229C88.894 431.229 85.9276 427.587 84.8525 426.254C77.7649 417.539 86.286 394.618 90.9049 383.854C91.8207 381.725 94.827 381.745 95.703 383.894C100.123 394.658 108.206 417.539 101.098 426.254Z" fill="#F8CF54"/>
<path d="M52.0827 373.407C50.9678 374.76 48.0212 378.381 43.9598 378.381C39.8784 378.381 36.912 374.74 35.8369 373.407C28.7492 364.692 37.2703 341.771 41.8892 331.006C42.8051 328.877 45.8113 328.897 46.6873 331.046C51.1072 341.81 59.1903 364.692 52.0827 373.407Z" fill="#F8CF54"/>
<path d="M707.934 510.317C706.819 511.67 703.873 515.291 699.811 515.291C695.73 515.291 692.764 511.65 691.688 510.317C684.601 501.602 693.122 478.681 697.741 467.916C698.657 465.787 701.663 465.807 702.539 467.956C706.959 478.72 715.042 501.602 707.934 510.317Z" fill="#F8CF54"/>
<path d="M669.809 436.879C668.694 438.232 665.748 441.854 661.686 441.854C657.605 441.854 654.639 438.213 653.563 436.879C646.476 428.165 654.997 405.243 659.616 394.479C660.532 392.35 663.538 392.37 664.414 394.519C668.834 405.283 676.917 428.165 669.809 436.879Z" fill="#F8CF54"/>
<path d="M729.716 395.036C728.601 396.389 725.654 400.01 721.593 400.01C717.511 400.01 714.545 396.369 713.47 395.036C706.382 386.321 714.903 363.399 719.522 352.635C720.438 350.506 723.444 350.526 724.32 352.675C728.74 363.439 736.823 386.321 729.716 395.036Z" fill="#F8CF54"/>
<path d="M680.692 342.188C679.577 343.541 676.631 347.162 672.569 347.162C668.488 347.162 665.521 343.521 664.446 342.188C657.359 333.473 665.88 310.552 670.499 299.787C671.414 297.659 674.421 297.678 675.297 299.827C679.717 310.592 687.8 333.473 680.692 342.188Z" fill="#F8CF54"/>
<path d="M181.598 340.239C180.483 341.592 177.537 345.213 173.475 345.213C169.394 345.213 166.428 341.572 165.352 340.239C158.265 331.524 166.786 308.603 171.405 297.838C172.321 295.709 175.327 295.729 176.203 297.878C180.623 308.642 188.706 331.524 181.598 340.239Z" fill="#F8CF54"/>
<path d="M121.708 299.967C120.593 301.32 117.646 304.942 113.585 304.942C109.503 304.942 106.537 301.3 105.462 299.967C98.3742 291.252 106.895 268.331 111.514 257.567C112.43 255.438 115.436 255.458 116.312 257.607C120.732 268.371 128.815 291.252 121.708 299.967Z" fill="#F8CF54"/>
<path d="M181.598 224.956C180.483 226.309 177.537 229.93 173.475 229.93C169.394 229.93 166.428 226.289 165.352 224.956C158.265 216.241 166.786 193.319 171.405 182.555C172.321 180.426 175.327 180.446 176.203 182.595C180.623 193.359 188.706 216.241 181.598 224.956Z" fill="#F8CF54"/>
<path d="M385.762 304.961C384.647 306.314 381.701 309.936 377.639 309.936C373.558 309.936 370.592 306.295 369.517 304.961C362.429 296.247 370.95 273.325 375.569 262.561C376.485 260.432 379.491 260.452 380.367 262.601C384.787 273.365 392.87 296.247 385.762 304.961Z" fill="#F8CF54"/>
<path d="M347.637 255.995C346.522 257.348 343.576 260.969 339.514 260.969C335.433 260.969 332.467 257.328 331.392 255.995C324.304 247.28 332.825 224.358 337.444 213.594C338.36 211.465 341.366 211.485 342.242 213.634C346.662 224.398 354.745 247.28 347.637 255.995Z" fill="#F8CF54"/>
<path d="M407.544 189.657C406.429 191.01 403.482 194.631 399.421 194.631C395.339 194.631 392.373 190.99 391.298 189.657C384.21 180.942 392.731 158.021 397.35 147.256C398.266 145.127 401.272 145.147 402.148 147.296C406.568 158.06 414.651 180.942 407.544 189.657Z" fill="#F8CF54"/>
<path d="M500.88 324.44C499.765 325.793 496.818 329.414 492.757 329.414C488.675 329.414 485.709 325.773 484.634 324.44C477.546 315.725 486.067 292.804 490.686 282.039C491.602 279.91 494.608 279.93 495.484 282.079C499.904 292.844 507.987 315.725 500.88 324.44Z" fill="#F8CF54"/>
<path d="M462.77 275.493C461.655 276.846 458.709 280.467 454.647 280.467C450.566 280.467 447.599 276.826 446.524 275.493C439.437 266.778 447.958 243.856 452.577 233.092C453.493 230.963 456.499 230.983 457.375 233.132C461.795 243.896 469.878 266.778 462.77 275.493Z" fill="#F8CF54"/>
<path d="M522.661 209.157C521.546 210.51 518.599 214.131 514.538 214.131C510.457 214.131 507.49 210.49 506.415 209.157C499.327 200.442 507.848 177.521 512.467 166.756C513.383 164.627 516.389 164.647 517.265 166.796C521.685 177.56 529.768 200.442 522.661 209.157Z" fill="#F8CF54"/>
<path d="M609.856 348.934C608.741 350.287 605.795 353.908 601.733 353.908C597.652 353.908 594.685 350.267 593.61 348.934C586.523 340.219 595.044 317.298 599.663 306.534C600.579 304.405 603.585 304.425 604.461 306.573C608.881 317.338 616.964 340.219 609.856 348.934Z" fill="#F8CF54"/>
<path d="M560.981 275.493C559.866 276.846 556.92 280.467 552.858 280.467C548.777 280.467 545.81 276.826 544.735 275.493C537.648 266.778 546.169 243.856 550.788 233.092C551.704 230.963 554.71 230.983 555.586 233.132C560.006 243.896 568.089 266.778 560.981 275.493Z" fill="#F8CF54"/>
<path d="M637.137 271.754C636.022 273.107 633.076 276.729 629.015 276.729C624.933 276.729 621.967 273.087 620.892 271.754C613.804 263.04 622.325 240.118 626.944 229.354C627.86 227.225 630.866 227.245 631.742 229.394C636.162 240.158 644.245 263.04 637.137 271.754Z" fill="#F8CF54"/>
<path d="M273.333 315.766C272.218 317.119 269.271 320.74 265.21 320.74C261.128 320.74 258.162 317.099 257.087 315.766C249.999 307.051 258.52 284.13 263.139 273.366C264.055 271.237 267.061 271.257 267.937 273.405C272.357 284.17 280.44 307.051 273.333 315.766Z" fill="#F8CF54"/>
<path d="M235.208 266.797C234.093 268.15 231.146 271.772 227.085 271.772C223.003 271.772 220.037 268.13 218.962 266.797C211.874 258.082 220.395 235.161 225.014 224.397C225.93 222.268 228.936 222.288 229.812 224.437C234.232 235.201 242.315 258.082 235.208 266.797Z" fill="#F8CF54"/>
<path d="M295.114 200.481C293.999 201.834 291.052 205.455 286.991 205.455C282.91 205.455 279.943 201.814 278.868 200.481C271.78 191.766 280.302 168.845 284.92 158.08C285.836 155.951 288.843 155.971 289.719 158.12C294.138 168.885 302.221 191.766 295.114 200.481Z" fill="#F8CF54"/>
</svg>
