<svg width="24" height="24" viewBox="0 0 24 24" fill="none" xmlns="http://www.w3.org/2000/svg">
<g clip-path="url(#clip0_3723_27531)">
<path d="M7.97954 0.73597C8.02295 0.632006 7.78851 0.441403 7.66695 0.354766C7.56275 0.276792 7.25884 0.0688623 6.9723 0.164163C6.93757 0.172827 6.91152 0.190155 6.87679 0.207482C6.68576 0.311447 6.64235 0.424076 6.52947 0.519377C6.32976 0.683988 6.20819 0.554032 6.02585 0.718643C5.90429 0.831272 5.86955 0.978555 5.83482 1.09985C5.81746 1.16049 5.75667 1.39441 5.83482 1.4464C5.8956 1.48105 5.9998 1.38575 6.06058 1.34243C6.49473 1.03054 7.1807 0.839935 7.6409 0.80528C7.80588 0.796617 7.94481 0.80528 7.97086 0.727307L7.97954 0.73597Z" fill="black"/>
<path d="M23.9913 12.2333C23.2966 10.7604 22.1852 9.81609 20.4833 9.61683C19.5629 9.51286 18.6599 9.67747 17.7481 9.77278C14.7525 10.0933 13.3111 9.35692 12.8248 9.11433C12.7206 9.06235 12.6338 9.01037 12.5817 8.98438C12.573 9.02769 12.5557 9.07101 12.547 9.11433C12.5209 9.23562 12.5209 9.34825 12.5296 9.43489C12.903 9.58217 13.2069 9.76411 13.4761 9.93739C14.2141 10.4139 14.8046 11.055 15.2735 11.8434C15.6381 12.4585 15.5513 13.091 15.1085 13.6541C14.6917 14.1826 14.1533 14.5725 13.5716 14.9017C13.4761 14.9537 13.3632 14.9797 13.3371 15.1183C13.285 15.4562 13.1461 15.7594 12.9464 16.0453C12.8161 16.2359 12.8943 16.3486 13.1374 16.3486C13.7713 16.3486 14.136 16.6691 14.1968 17.3016C14.2054 17.4229 14.2315 17.5182 14.3704 17.5442C15.1779 17.7088 15.9768 17.7954 16.7669 17.4835C17.7134 17.111 18.382 16.4352 18.9203 15.6208C19.3892 14.9104 19.7539 14.1393 20.2662 13.4549C20.8046 12.7358 21.5253 12.3199 22.4457 12.2333C22.9753 12.1813 23.4876 12.2593 24.0173 12.3546C24.0173 12.2939 24.0173 12.2679 23.9999 12.2419L23.9913 12.2333Z" fill="black"/>
<path d="M1.50217 1.45574C1.43271 1.4904 1.41534 1.52505 1.31114 1.60303C1.22431 1.66367 1.11143 1.73298 1.03329 1.74165C0.885673 1.76764 0.712012 1.69833 0.442836 1.53372C0.434153 1.63768 0.45152 1.71566 0.468886 1.76764C0.668596 2.31346 1.84081 2.45208 2.07525 2.36544C2.09262 2.36544 2.16208 2.33078 2.21418 2.36544C2.24891 2.39143 2.26628 2.43475 2.27496 2.49539C2.38784 3.17117 2.75253 3.73431 3.10854 4.30612C3.19537 4.44474 3.2301 4.57469 3.15195 4.72198C2.56151 5.88292 2.10999 7.09584 1.73661 8.33476C1.72793 8.36941 1.70188 8.40407 1.66715 8.47338C1.36324 7.94489 1.11143 7.43373 0.920405 6.88791C0.347323 5.20714 0 3.50039 0 1.73298C0 1.28247 0.11288 0.86661 0.42547 0.520061C0.885673 0.000235943 1.64978 -0.147048 2.24891 0.156183C2.75253 0.416096 3.08249 1.22182 2.92619 1.81962C2.90014 1.93225 2.83936 1.9929 2.74385 2.03622C2.44863 2.16617 2.1534 2.23548 1.83213 2.12285C1.46744 2.00156 1.41534 1.83695 1.65847 1.53372L1.85818 1.41243C1.68452 1.37777 1.58032 1.41243 1.51085 1.44708L1.50217 1.45574Z" fill="black"/>
<path d="M3.75988 18.0028C4.30691 18.5053 4.85394 18.9558 5.50517 19.285C5.71357 19.389 5.91328 19.5016 6.13036 19.5883C6.26928 19.6489 6.3127 19.7182 6.26928 19.8655C5.94801 20.9831 5.62674 22.1008 5.30546 23.2184C5.25337 23.409 5.11444 23.5129 4.90604 23.5303C4.28954 23.5909 3.67305 23.6169 3.04787 23.5996C2.82211 23.5996 2.77001 23.5129 2.90025 23.3223C3.04787 23.1057 3.22153 22.9065 3.4386 22.7679C3.62095 22.6552 3.65568 22.5166 3.65568 22.3173C3.65568 20.9918 3.66436 19.6749 3.68173 18.3494C3.68173 18.2454 3.65568 18.1328 3.75119 17.9941L3.75988 18.0028Z" fill="black"/>
<path d="M12.7118 2.45165C12.8507 2.44298 13.3804 2.41699 13.6582 2.73755C13.8319 2.93682 13.9101 3.22272 13.8406 3.54328C13.7972 3.73388 13.7972 3.89849 13.8927 4.08043C14.049 4.40099 13.9622 4.72155 13.7885 5.01611C13.6756 5.20672 13.4933 5.24137 13.2936 5.24137C12.9028 5.24137 12.3818 4.87749 12.1734 4.74754C11.3051 4.1584 11.2444 4.01112 11.2183 3.88983C11.1836 3.66457 11.2965 3.47397 11.4093 3.28337C11.4614 3.19673 11.8956 2.50363 12.7031 2.45165H12.7118Z" fill="black"/>
<path d="M13.5976 17.7603C13.6758 17.717 13.7452 17.691 13.7973 17.6564C13.9189 17.5697 14.0491 17.5351 14.1447 17.665C14.2315 17.7863 14.1968 17.9163 14.1012 18.0202C13.8928 18.2195 13.6324 18.2975 13.3458 18.2715C13.1114 18.2455 12.8943 18.1848 12.6685 18.1069C12.5036 18.0549 12.4601 17.9683 12.4688 17.795C12.4862 17.6217 12.5296 17.5611 12.7033 17.639C12.8509 17.6997 12.9811 17.639 13.0853 17.5264C13.1895 17.4051 13.1895 17.2665 13.1114 17.1365C13.0506 17.0152 12.8856 16.9979 12.7727 16.9806C12.6251 16.9546 12.5817 16.9806 12.5383 16.9373C12.4775 16.868 12.5122 16.7207 12.5991 16.634C12.6338 16.5994 12.6859 16.5647 12.764 16.5474C13.2937 16.4521 13.7626 16.9286 13.641 17.4398C13.615 17.5351 13.5455 17.613 13.5889 17.7603H13.5976Z" fill="black"/>
<path d="M12.3908 8.57671C12.3648 8.64602 12.304 8.80197 12.2779 9.01856C12.2606 9.15718 12.2606 9.26981 12.2606 9.33912C12.1824 9.30447 12.0782 9.26981 11.974 9.23516C11.9393 9.22649 11.809 9.18317 11.6527 9.15718C11.3575 9.09654 10.7931 8.98391 10.2027 9.13986C10.1245 9.15718 10.003 9.19184 10.0116 9.21783C10.0116 9.27848 10.5587 9.25248 10.9407 9.27848C11.7569 9.33912 12.3561 9.67701 12.7989 9.93692C13.2852 10.2142 14.0406 10.7513 14.5963 11.635C14.9436 12.1895 14.961 12.4841 14.9436 12.666C14.9002 13.1165 14.5963 13.4284 14.3966 13.6363C13.9885 14.0522 13.1723 14.5634 12.9292 14.6327C12.9031 14.6327 12.8163 14.6673 12.7729 14.7366C12.7294 14.8059 12.7468 14.8753 12.7468 14.9099C12.7468 14.9099 12.7729 15.0918 12.6513 15.4644C12.5471 15.7676 11.9567 16.0449 11.427 15.8976C10.9407 15.759 10.6108 15.2998 10.6021 14.8666C10.6021 14.5547 10.7671 14.3208 10.8886 14.1475C10.9841 14.0175 11.1144 13.8789 11.809 13.1945C11.8698 13.1338 11.9827 13.0212 11.9653 12.8913C11.9567 12.8046 11.8872 12.7266 11.7135 12.64C11.2012 12.3714 10.576 12.4581 10.576 12.5187C10.576 12.5794 11.0797 12.692 11.3923 12.9172C11.4357 12.9432 11.5051 13.0039 11.5138 13.0819C11.5138 13.1598 11.4444 13.2205 11.4096 13.2465C11.4096 13.2465 11.1318 13.4804 10.7237 13.9222C10.6629 13.9916 10.359 14.3121 10.3416 14.7713C10.3242 15.1092 10.4718 15.3604 10.5413 15.4904C10.7584 15.8716 11.2012 16.2874 11.5833 16.2701C11.7569 16.2701 11.9306 16.3048 12.1043 16.2788C12.1477 16.2788 12.2258 16.2615 12.2692 16.3048C12.33 16.3654 12.2953 16.478 12.2866 16.504C12.0348 17.4484 12.1737 18.4447 12.0782 19.4151C11.9046 21.2604 11.7917 22.4214 11.809 22.8892C11.809 22.9499 11.8264 23.1578 11.6875 23.3137C11.5833 23.4264 11.4444 23.461 11.3054 23.487C11.3054 23.487 10.5413 23.6343 9.69905 23.5477C9.64696 23.5477 9.54276 23.5303 9.50803 23.461C9.50803 23.4437 9.47329 23.3917 9.56012 23.2358C9.69905 22.9845 9.96823 22.7679 10.003 22.7419C10.029 22.7159 10.0898 22.6726 10.1072 22.6033C10.1245 22.5253 10.0985 22.456 10.0898 22.43C10.029 22.3001 9.14334 20.1341 9.11729 20.0475C9.11729 20.0302 9.09124 19.9782 9.03914 19.9435C8.96099 19.8829 8.86548 19.8916 8.8568 19.8916C8.69182 19.8916 3.58617 18.514 2.0319 14.3381C1.38067 12.588 1.31121 10.2142 2.084 8.58538C2.71787 7.26849 2.90021 5.735 3.70774 4.52208C3.71642 4.50475 3.7772 4.42678 3.75984 4.34014C3.75115 4.27083 3.70774 4.22751 3.66432 4.1842C3.55144 4.0629 3.45593 3.9676 3.40383 3.89829C3.3691 3.84631 3.27358 3.71635 3.24753 3.54308C3.24753 3.48243 3.23885 3.38713 3.30832 3.19653C3.33437 3.13588 3.43856 2.84132 3.75984 2.4861C3.89008 2.33882 3.99428 2.23485 4.15926 2.13089C4.31555 2.03559 4.4458 1.95761 4.61078 1.96628C4.74971 1.96628 4.98415 2.01826 5.18386 2.14822C5.23596 2.18287 5.29674 2.22619 5.38357 2.21753C5.44435 2.21753 5.48777 2.17421 5.5746 2.1049C5.60933 2.07891 5.68748 2.0096 5.75694 1.91429C5.80036 1.85365 5.82641 1.81033 5.82641 1.80167C6.05217 1.40313 7.52829 1.04792 7.52829 1.04792C7.86693 0.961283 8.23162 0.891973 8.69182 0.952619C8.7005 0.952619 8.70918 0.952619 8.72655 0.952619C9.49066 1.05658 10.0637 1.13456 10.6889 1.34249C10.6889 1.34249 11.3315 1.55908 12.0001 2.15688C12.0522 2.2002 12.1043 2.26084 12.0956 2.32149C12.0869 2.38214 12.0001 2.41679 11.974 2.43412C11.783 2.52076 11.6614 2.7027 11.5051 2.84132C11.3575 2.96261 10.9147 3.43045 10.9581 3.85497C11.0362 4.66936 12.8944 5.43177 13.042 5.47509C13.0507 5.47509 13.1028 5.49242 13.1375 5.53574C13.1896 5.60505 13.1723 5.70035 13.1636 5.74367C12.7729 7.64103 12.4169 8.58538 12.4169 8.58538L12.3908 8.57671Z" fill="black"/>
</g>
<defs>
<clipPath id="clip0_3723_27531">
<rect width="24" height="23.6087" fill="white"/>
</clipPath>
</defs>
</svg>
