<svg width="36" height="36" viewBox="0 0 36 36" fill="none" xmlns="http://www.w3.org/2000/svg">
<g clip-path="url(#clip0_4084_10404)">
<path d="M25.8912 23.8726L34.4291 28.5852C34.4291 28.5852 35.005 31.0615 31.8752 30.6951C33.8157 33.3988 31.049 34.5233 29.0084 33.3356C28.7079 36.57 26.6799 36.1531 25.8912 35.673L21.6723 27.3217L25.9037 23.8852L25.8912 23.8726Z" fill="#FDEDCC"/>
<path d="M26.7298 31.1874C26.6797 31.2506 26.3041 31.6675 25.7032 31.6675C25.19 31.6675 24.8645 31.3769 24.7643 31.2885C24.7017 31.2253 24.2135 30.7578 24.3387 30.2019C24.3387 30.164 24.4513 29.6966 24.8019 29.6334C24.9646 29.5955 25.19 29.6334 25.2776 29.785C25.3652 29.9492 25.1774 30.0756 25.2275 30.3409C25.2651 30.5431 25.4278 30.7831 25.6657 30.821C25.9286 30.8715 26.1414 30.6694 26.1915 30.6062C26.3918 30.4041 26.4168 30.1514 26.4293 30.0629C26.4419 29.6713 26.1664 29.3933 26.0788 29.3049C25.7909 29.0143 25.4403 28.9638 25.3402 28.9511C25.0523 28.9132 24.3136 29.0017 23.9506 29.6081C23.6626 30.0756 23.7753 30.5683 23.8004 30.682C23.9255 31.2758 24.3637 31.5791 24.4889 31.6675C24.6016 31.7433 25.0272 31.996 25.6031 31.9202C26.3167 31.8191 26.6797 31.2632 26.7423 31.1748L26.7298 31.1874Z" fill="#EE6B27"/>
<mask id="mask0_4084_10404" style="mask-type:luminance" maskUnits="userSpaceOnUse" x="21" y="23" width="14" height="13">
<path d="M25.8911 23.8726L34.429 28.5852C34.429 28.5852 35.0049 31.0615 31.8752 30.6951C33.8156 33.3988 31.0489 34.5233 29.0083 33.3356C28.7079 36.57 26.6798 36.1531 25.8911 35.673L21.6722 27.3217L25.9036 23.8852L25.8911 23.8726Z" fill="white"/>
</mask>
<g mask="url(#mask0_4084_10404)">
<path d="M33.6524 32.6787C35.2565 32.6787 36.5568 31.3664 36.5568 29.7476C36.5568 28.1287 35.2565 26.8164 33.6524 26.8164C32.0484 26.8164 30.748 28.1287 30.748 29.7476C30.748 31.3664 32.0484 32.6787 33.6524 32.6787Z" fill="#F8B519"/>
</g>
<path d="M30.8611 26.6142L25.891 23.8726L21.6596 27.3091L23.2996 30.5687C25.7158 29.419 29.2336 27.5112 30.8611 26.6142Z" fill="#FDEDCC"/>
<path d="M10.1788 12.2489L1.56572 7.61213C1.56572 7.61213 1.01489 5.12317 4.19471 5.43903C2.26679 2.72265 5.60935 0.499016 7.14918 2.72265C7.49972 -0.549631 9.56535 -0.157968 10.3666 0.309501L13.9094 8.88819L10.1788 12.2489Z" fill="#FDEDCC"/>
<mask id="mask1_4084_10404" style="mask-type:luminance" maskUnits="userSpaceOnUse" x="1" y="0" width="13" height="13">
<path d="M10.1788 12.2489L1.56574 7.61213C1.56574 7.61213 1.0149 5.12317 4.19472 5.43903C2.2668 2.72265 5.60936 0.499016 7.1492 2.72265C7.49973 -0.549631 9.56536 -0.157968 10.3666 0.309501L13.9094 8.88819L10.1788 12.2489Z" fill="white"/>
</mask>
<g mask="url(#mask1_4084_10404)">
<path d="M9.64172 5.31275C11.2458 5.31275 12.5461 4.00043 12.5461 2.3816C12.5461 0.762763 11.2458 -0.549561 9.64172 -0.549561C8.03766 -0.549561 6.73732 0.762763 6.73732 2.3816C6.73732 4.00043 8.03766 5.31275 9.64172 5.31275Z" fill="#F8B519"/>
<path d="M7.81386 9.2799C7.72622 9.38097 7.18791 10.0001 6.28654 10.0001C5.53541 10.0001 5.03465 9.57049 4.89694 9.44414C4.79679 9.3557 4.07069 8.64818 4.25847 7.82695C4.25847 7.77642 4.43374 7.08153 4.95953 6.96782C5.20991 6.91728 5.54792 6.98046 5.6606 7.19524C5.78578 7.43529 5.52289 7.6248 5.58548 8.01647C5.63556 8.31969 5.88594 8.67345 6.23647 8.73662C6.62456 8.81243 6.93753 8.50921 7.01264 8.42077C7.3131 8.11754 7.35066 7.73851 7.36317 7.61217C7.38821 7.01836 6.97509 6.62669 6.83738 6.48772C6.39921 6.05815 5.87342 5.98234 5.73571 5.96971C5.31006 5.91917 4.20839 6.04552 3.67008 6.95519C3.24443 7.65007 3.40718 8.38286 3.44474 8.55974C3.64504 9.43151 4.28351 9.89898 4.47129 10.0253C4.63404 10.139 5.27251 10.5181 6.1238 10.3917C7.17539 10.2401 7.72622 9.41888 7.81386 9.29253V9.2799Z" fill="#EE6B27"/>
</g>
<path d="M13.909 8.88831L11.7808 3.75879C10.4162 4.85797 8.0877 7.01844 6.28497 10.1644L10.1658 12.2617L13.8965 8.90095L13.909 8.88831Z" fill="#FDEDCC"/>
<path d="M26.1893 27.5108C22.0706 31.2758 16.4245 28.7237 11.9928 23.5689C7.56109 18.4015 6.0463 12.2359 10.14 8.82465C14.0584 5.55237 19.9048 7.61176 24.3365 12.7666C28.7682 17.934 30.596 23.4804 26.1893 27.5108Z" fill="#FDEDCC"/>
<mask id="mask2_4084_10404" style="mask-type:luminance" maskUnits="userSpaceOnUse" x="7" y="7" width="22" height="23">
<path d="M26.1893 27.5108C22.0706 31.2758 16.4245 28.7237 11.9928 23.5689C7.5611 18.4015 6.04631 12.2359 10.14 8.82465C14.0584 5.55237 19.9048 7.61176 24.3365 12.7666C28.7682 17.934 30.596 23.4804 26.1893 27.5108Z" fill="white"/>
</mask>
<g mask="url(#mask2_4084_10404)">
<path d="M23.4981 10.1945C23.754 8.59637 22.6778 7.09149 21.0943 6.83323C19.5108 6.57496 18.0196 7.66112 17.7637 9.25922C17.5078 10.8573 18.584 12.3622 20.1675 12.6205C21.7511 12.8787 23.2422 11.7926 23.4981 10.1945Z" fill="#F8B519"/>
<path d="M14.972 26.5505C16.576 26.5505 17.8764 25.2382 17.8764 23.6194C17.8764 22.0006 16.576 20.6882 14.972 20.6882C13.3679 20.6882 12.0676 22.0006 12.0676 23.6194C12.0676 25.2382 13.3679 26.5505 14.972 26.5505Z" fill="#F8B519"/>
<path d="M18.7399 33.6257C20.344 33.6257 21.6443 32.3134 21.6443 30.6946C21.6443 29.0758 20.344 27.7634 18.7399 27.7634C17.1358 27.7634 15.8355 29.0758 15.8355 30.6946C15.8355 32.3134 17.1358 33.6257 18.7399 33.6257Z" fill="#EE6B27"/>
<path d="M12.7286 7.74694C13.0954 6.17101 12.1269 4.59335 10.5653 4.22313C9.00378 3.85292 7.44052 4.83035 7.07369 6.40629C6.70686 7.98222 7.67537 9.55988 9.23691 9.93009C10.7985 10.3003 12.3617 9.32288 12.7286 7.74694Z" fill="#EE6B27"/>
<path d="M30.2046 28.5239C30.575 26.9488 29.6101 25.3689 28.0493 24.9951C26.4886 24.6213 24.9232 25.5952 24.5528 27.1703C24.1824 28.7454 25.1474 30.3252 26.7081 30.699C28.2688 31.0728 29.8343 30.099 30.2046 28.5239Z" fill="#F8B519"/>
</g>
<path d="M27.0287 20.3855C26.9035 20.5245 26.0897 21.4468 24.7502 21.4468C23.636 21.4468 22.8974 20.8151 22.6846 20.6256C22.5343 20.4866 21.4702 19.4506 21.7456 18.2251C21.7582 18.1493 22.0085 17.1259 22.7722 16.9616C23.1353 16.8858 23.636 16.9869 23.8113 17.3028C23.9991 17.6565 23.5985 17.9345 23.6986 18.5156C23.7737 18.9705 24.1493 19.4885 24.6751 19.5769C25.251 19.6906 25.7142 19.2358 25.8394 19.1095C26.29 18.6673 26.3401 18.0987 26.3526 17.8966C26.3902 17.0248 25.7768 16.431 25.5765 16.2288C24.9255 15.5971 24.1493 15.4834 23.9365 15.4581C23.3105 15.3823 21.6705 15.5719 20.8568 16.9111C20.2309 17.9471 20.4687 19.0337 20.5313 19.2863C20.8192 20.5877 21.7707 21.2699 22.0586 21.4594C22.2965 21.6237 23.2479 22.1922 24.5123 22.0154C26.0772 21.7879 26.8909 20.575 27.0161 20.3729L27.0287 20.3855Z" fill="#EE6B27"/>
<path d="M14.2097 16.2162C14.1221 16.3173 13.5837 16.9363 12.6824 16.9363C11.9312 16.9363 11.4305 16.5068 11.2928 16.3804C11.1926 16.292 10.4665 15.5845 10.6543 14.7632C10.6543 14.7127 10.8296 14.0178 11.3554 13.9041C11.6058 13.8536 11.9438 13.9167 12.0564 14.1315C12.1816 14.3716 11.9187 14.5611 11.9813 14.9527C12.0314 15.256 12.2818 15.6097 12.6323 15.6729C13.0204 15.7487 13.3334 15.4455 13.4085 15.357C13.7089 15.0538 13.7465 14.6748 13.759 14.5484C13.7841 13.9546 13.3709 13.563 13.2332 13.424C12.7951 12.9944 12.2693 12.9186 12.1315 12.906C11.7059 12.8555 10.6042 12.9818 10.0659 13.8915C9.64027 14.5864 9.80302 15.3191 9.84058 15.496C10.0409 16.3678 10.6793 16.8353 10.8671 16.9616C11.0299 17.0753 11.6683 17.4543 12.5196 17.328C13.5712 17.1764 14.1221 16.3552 14.2097 16.2288V16.2162Z" fill="#EE6B27"/>
</g>
<defs>
<clipPath id="clip0_4084_10404">
<rect width="36" height="36" fill="white"/>
</clipPath>
</defs>
</svg>
