<svg width="36" height="36" viewBox="0 0 36 36" fill="none" xmlns="http://www.w3.org/2000/svg">
<g clip-path="url(#clip0_4084_10385)">
<path d="M36 28.0712C34.971 28.0859 33.942 28.0712 32.913 28.1301C29.4203 28.3213 26.087 29.1747 22.8986 30.6166C21.3913 31.2934 19.942 32.1173 18.4783 32.8824C18.2029 33.0295 18.0145 33.059 17.7246 32.8824C14.4638 30.9108 10.9855 29.469 7.26087 28.6745C4.98551 28.1889 2.69565 27.9977 0.376812 28.0712C0.26087 28.0712 0.144928 28.0712 0 28.0712V5.8103C0.376812 5.8103 0.768116 5.8103 1.14493 5.8103C1.52174 5.8103 1.88406 5.8103 2.31884 5.8103V6.28112C2.31884 12.1811 2.31884 18.0663 2.31884 23.9663C2.31884 24.084 2.31884 24.2017 2.31884 24.3194C2.31884 24.952 2.63768 25.2463 3.26087 25.2316C4.04348 25.2169 4.82609 25.1727 5.62319 25.1875C9.71015 25.2757 13.4058 26.5852 16.8116 28.8363C16.913 28.8951 17 28.9687 17.1015 29.0423C17.9855 29.6455 18 29.6455 18.8986 29.0423C21.6812 27.1296 24.7101 25.879 28.029 25.3934C29.5362 25.1727 31.0725 25.1433 32.5942 25.2316C33.3768 25.2757 33.6667 25.0109 33.6667 24.2017C33.6667 18.2429 33.6667 12.2694 33.6667 6.31055C33.6667 6.16342 33.6667 6.00157 33.6667 5.85444H36.0145V28.0712H36Z" fill="#EF6724"/>
<path d="M3.91304 3.05886C5.4058 2.98529 6.86957 3.05886 8.31884 3.29427C11.4493 3.80922 14.3043 5.0157 16.9275 6.78127C17.1015 6.89897 17.2029 7.01668 17.2029 7.2668C17.2029 13.8288 17.2029 20.3909 17.2029 26.9529C17.2029 27.0118 17.2029 27.0706 17.2029 27.2178C13.1159 24.643 8.71015 23.4071 3.91304 23.5983V3.05886Z" fill="#FFEFCD"/>
<path d="M32.0725 3V23.5983C27.2899 23.4218 22.8841 24.6283 18.7971 27.203C18.7971 27.0559 18.7681 26.9676 18.7681 26.8646C18.7681 20.3467 18.7681 13.8141 18.7681 7.29622C18.7681 7.09024 18.7971 6.95782 18.9855 6.8254C21.9565 4.80971 25.2029 3.52967 28.7681 3.14713C29.8406 3.02943 30.942 3.04414 32.0725 3Z" fill="#FFEFCD"/>
<path d="M29.5072 6.76643C29.5797 6.94299 30.0145 8.06118 29.4348 9.25294C28.942 10.2387 28.0725 10.6213 27.8261 10.7095C27.6377 10.7831 26.2754 11.2686 25.3333 10.4888C25.2754 10.4447 24.4928 9.7679 24.6957 9.01754C24.7826 8.66442 25.1014 8.26717 25.4493 8.25245C25.8406 8.25245 25.913 8.72327 26.4493 8.88512C26.8841 9.01753 27.4783 8.91454 27.7971 8.48786C28.1449 8.01704 27.9565 7.41381 27.8985 7.25196C27.7101 6.66344 27.2464 6.36918 27.0725 6.26619C26.3333 5.85422 25.5507 6.11906 25.2899 6.22205C24.4638 6.51631 24.029 7.14897 23.8985 7.32553C23.5507 7.8552 23 9.38536 23.8116 10.6948C24.4348 11.71 25.4783 11.9749 25.7246 12.0337C26.971 12.3574 27.9855 11.813 28.2754 11.6365C28.5217 11.4893 29.4348 10.9155 29.8261 9.70905C30.3188 8.22303 29.6232 6.97241 29.5072 6.76643Z" fill="#F06724"/>
</g>
<defs>
<clipPath id="clip0_4084_10385">
<rect width="36" height="30" fill="white" transform="translate(0 3)"/>
</clipPath>
</defs>
</svg>
