<svg width="50" height="50" viewBox="0 0 50 50" fill="none" xmlns="http://www.w3.org/2000/svg">
<path d="M27.6673 8.21526C26.8272 5.62945 23.1689 5.62945 22.3287 8.21526L20.0158 15.3339C19.64 16.4903 18.5624 17.2732 17.3465 17.2732H9.86153C7.14264 17.2732 6.01219 20.7524 8.21181 22.3505L14.2673 26.7501C15.251 27.4648 15.6626 28.7316 15.2868 29.888L12.9739 37.0066C12.1337 39.5924 15.0933 41.7427 17.2929 40.1446L23.3483 35.745C24.332 35.0303 25.6641 35.0303 26.6478 35.745L32.7032 40.1446C34.9028 41.7427 37.8624 39.5924 37.0222 37.0066L34.7093 29.888C34.3335 28.7316 34.7451 27.4648 35.7288 26.7501L41.7843 22.3505C43.9839 20.7524 42.8535 17.2732 40.1346 17.2732H32.6496C31.4337 17.2732 30.3561 16.4903 29.9803 15.3339L27.6673 8.21526Z" fill="#F06724"/>
<path d="M30.9636 23.7973C30.9931 23.7917 31.019 24.1605 31.3065 24.5569C31.4298 24.7267 31.5562 24.8395 31.6215 24.8941C31.6816 24.944 31.8899 25.1109 32.1671 25.2098C32.251 25.2399 33.0825 25.523 33.5374 25.0731C33.7249 24.8874 33.8829 24.5426 33.7519 24.2539C33.6716 24.0774 33.4716 23.8968 33.2835 23.9202C33.0737 23.9468 33.0794 24.2023 32.8038 24.3355C32.5867 24.4401 32.2546 24.4401 32.05 24.2498C31.8241 24.0401 31.8728 23.7091 31.8857 23.6213C31.9334 23.2994 32.1541 23.1041 32.2375 23.0393C32.596 22.7597 33.0369 22.8337 33.1872 22.8592C33.6581 22.9383 33.9451 23.2306 34.0239 23.3122C34.3974 23.7029 34.6658 24.4038 34.3674 25.0461C34.0482 25.7322 33.283 25.8908 33.054 25.924C32.8903 25.948 32.4204 25.9928 31.9344 25.7286C31.478 25.4802 31.2754 25.1042 31.1827 24.9267C30.8905 24.3661 30.9273 23.8039 30.963 23.7973H30.9636Z" fill="#FFEFCD"/>
<path d="M18.9127 23.7973C18.8831 23.7917 18.8572 24.1605 18.5697 24.5569C18.4464 24.7267 18.32 24.8395 18.2547 24.8941C18.1946 24.944 17.9863 25.1109 17.7092 25.2098C17.6252 25.2399 16.7937 25.523 16.3388 25.0731C16.1513 24.8874 15.9933 24.5426 16.1243 24.2539C16.2046 24.0774 16.4046 23.8968 16.5927 23.9202C16.8025 23.9468 16.7968 24.2023 17.0724 24.3355C17.2895 24.4401 17.6216 24.4401 17.8262 24.2498C18.0521 24.0401 18.0034 23.7091 17.9905 23.6213C17.9428 23.2994 17.7221 23.1041 17.6387 23.0393C17.2802 22.7597 16.8393 22.8337 16.6891 22.8592C16.2181 22.9383 15.9311 23.2306 15.8524 23.3122C15.4788 23.7029 15.2105 24.4038 15.5089 25.0461C15.828 25.7322 16.5932 25.8908 16.8222 25.924C16.9859 25.948 17.4558 25.9928 17.9418 25.7286C18.3982 25.4802 18.6008 25.1042 18.6935 24.9267C18.9857 24.3661 18.9489 23.8039 18.9132 23.7973H18.9127Z" fill="#FFEFCD"/>
<path d="M27.1607 21.4971C27.1607 21.1435 27.3012 20.8043 27.5513 20.5542C27.8014 20.3041 28.1406 20.1636 28.4943 20.1636C28.848 20.1636 29.1872 20.3041 29.4373 20.5542C29.6874 20.8043 29.8279 21.1435 29.8279 21.4971" stroke="#FFEFCD" stroke-width="0.86359" stroke-linecap="round" stroke-linejoin="round"/>
<path d="M20.0484 21.4976C20.0484 21.1439 20.1889 20.8047 20.439 20.5547C20.6891 20.3046 21.0283 20.1641 21.382 20.1641C21.7357 20.1641 22.0749 20.3046 22.325 20.5547C22.5751 20.8047 22.7156 21.1439 22.7156 21.4976" stroke="#FFEFCD" stroke-width="0.86359" stroke-linecap="round" stroke-linejoin="round"/>
<path d="M21.9401 26.6416C22.4228 27.7005 24.2429 27.6774 24.9178 27.6692C25.6395 27.6604 27.4305 27.6379 27.9269 26.5317C28.3345 25.6238 27.6177 24.5489 27.3783 24.1897C27.1701 23.8777 26.2903 22.5585 24.9008 22.6106C23.6629 22.6568 22.9226 23.7575 22.5782 24.2694C22.2536 24.7516 21.5529 25.793 21.9401 26.6416Z" fill="#FFEFCD"/>
<path d="M25.2875 25.4329C25.1141 24.8677 25.2646 24.3202 25.6236 24.2101C25.9826 24.1 26.4142 24.469 26.5875 25.0342C26.7609 25.5994 26.6103 26.1469 26.2513 26.257C25.8923 26.3671 25.4608 25.9982 25.2875 25.4329Z" fill="#F06724"/>
<path d="M23.5957 26.2664C23.253 26.1717 23.1006 25.6413 23.2553 25.0817C23.4099 24.5221 23.8131 24.1452 24.1557 24.2399C24.4984 24.3346 24.6507 24.865 24.4961 25.4246C24.3414 25.9843 23.9383 26.3611 23.5957 26.2664Z" fill="#F06724"/>
</svg>
