<svg width="512" height="512" viewBox="0 0 512 512" fill="none" xmlns="http://www.w3.org/2000/svg">
<path d="M512 0H0V512H512V0Z" fill="#EF6724"/>
<path d="M434.062 197.628C433.748 202.447 431.399 207.389 427.763 210.973C424.126 214.558 419.028 216.785 414.382 216.942C411.389 217.046 409.806 216.837 407.057 216.054C404.795 215.41 402.741 214.506 401.071 213.131C401.436 213.427 400.81 212.87 400.81 212.87C400.566 212.644 400.305 212.418 400.079 212.174C399.853 211.93 399.609 211.687 399.401 211.426C399.47 211.513 399.801 211.965 399.453 211.495C399.105 211.026 398.826 210.538 398.565 210.016C398.478 209.86 398.217 209.112 398.496 209.895C398.391 209.581 398.287 209.268 398.2 208.955C398.113 208.642 398.043 208.294 397.991 207.963C397.991 208.085 398.061 208.677 398.026 208.068C397.991 207.459 397.991 206.85 398.043 206.241C397.974 207.076 398.2 205.458 398.252 205.214C398.374 204.727 398.722 203.596 398.774 203.439C400.392 199.263 404.725 195.105 408.901 195.052C410.763 195.018 412.816 195.748 414.191 196.827C416.383 198.567 417.271 199.855 418.506 202.186C418.645 202.43 419.254 203.7 419.08 203.317C418.854 202.813 419.15 203.491 419.167 203.561C419.272 203.839 419.376 204.118 419.463 204.396C419.672 205.023 419.811 205.649 419.968 206.293C420.194 207.285 420.107 206.676 420.142 207.685C420.229 210.66 420.02 212.226 419.045 215.115C417.392 220.056 413.773 224.876 409.388 228.287C403.942 232.515 396.825 234.22 389.796 233.385C389.918 233.385 390.3 233.454 389.709 233.385C389.239 233.315 388.769 233.228 388.317 233.141C387.621 233.002 386.925 232.845 386.229 232.671C385.028 232.376 383.862 232.01 382.696 231.61C382.227 231.436 381.774 231.245 381.305 231.088C380.574 230.827 382.331 231.593 381.078 230.984C380.713 230.81 380.347 230.636 379.982 230.444C374.118 227.277 368.881 236.221 374.745 239.388C386.646 245.808 402.411 245.634 413.651 237.926C426.179 229.313 434.984 212.609 427.902 197.854C424.892 191.607 419.08 186.022 412.033 184.978C403.559 183.707 395.799 188.562 391.292 195.54C387.308 201.717 386.072 210.173 390.335 216.541C394.32 222.475 401.228 225.851 408.17 226.877C417.149 228.2 425.744 225.955 432.844 220.265C439.751 214.732 443.823 206.397 444.397 197.628C444.589 194.826 441.892 192.442 439.212 192.442C436.254 192.442 434.218 194.826 434.027 197.628H434.062Z" fill="#FFEECC"/>
<path d="M245.565 131.923C246.104 131.558 246.765 131.088 247.548 130.601C249.288 132.636 250.959 134.811 252.525 137.091C259.172 146.748 262.878 156.683 264.844 165.627C261.799 165.905 258.319 165.175 255.117 163.4L254.961 163.33C243.807 158.423 237.735 154.752 235.925 153.099C235.455 152.681 234.585 151.881 234.289 150.646C234.046 149.619 234.29 148.697 234.568 147.827C235.664 144.468 236.378 142.241 238.64 139.04C239.858 137.3 241.928 134.411 245.547 131.906L245.565 131.923Z" fill="#FFEECC"/>
<path d="M401.089 336.217C396.269 351.303 386.403 369.104 379.095 378.482C374.797 383.981 370.725 389.671 366.323 395.082C362.773 399.449 361.12 401.276 358.945 404.965C355.987 410.011 355.1 412.795 352.838 417.354C350.315 422.452 349.045 424.993 346.974 426.82C345.408 428.194 342.99 429.308 338.152 431.553C333.28 433.815 332.289 433.832 331.575 433.397C329.313 432.005 330.67 426.315 330.775 425.898C330.357 426.733 329.278 428.577 327.086 429.987C326.077 430.63 323.467 432.301 321.988 431.587C318.49 429.934 321.97 415.527 323.275 410.098C324.754 403.921 327.173 395.621 331.21 386.069C331.07 386.138 330.844 386.243 330.566 386.382C305.127 398.875 277.043 399.832 277.043 399.832C234.796 401.276 196.707 378.482 197.751 374.898C197.942 374.219 199.473 374.585 202.988 374.115C215.377 372.444 230.498 363.24 234.326 349.076C234.796 347.354 236.849 339.054 233.021 330.319C224.06 309.891 192.583 309.073 189.921 309.038C184.736 308.969 160.167 310.117 144.785 325.656C141.427 329.049 140.122 331.432 137.216 331.554C134.571 331.659 129.995 329.936 116.249 300.251C111.586 290.177 107.305 280.781 102.694 267.313C99.8404 258.961 97.126 249.617 94.6378 238.638C91.3492 224.039 89.7136 211.511 88.8436 202.289C86.0944 199.905 79.3083 193.363 76.7331 182.522C75.1149 175.771 75.7935 170.012 76.4721 166.584C92.0104 158.823 107.566 151.08 123.104 143.32C121.208 139.005 119.311 134.689 117.415 130.374C122.826 124.406 133.527 114.157 150.214 107.458C164.725 101.629 177.08 101.177 181.238 101.142C201.318 100.933 226.861 108.38 245.114 127.869C244.488 128.269 243.948 128.652 243.513 128.947C239.355 131.818 236.988 135.177 235.701 136.986C233.125 140.623 232.255 143.32 231.142 146.748C230.863 147.618 230.272 149.41 230.794 151.533C231.35 153.829 232.847 155.204 233.508 155.796C236.188 158.249 243.826 162.408 253.449 166.636C256.772 168.463 260.304 169.35 263.593 169.35C264.271 169.35 264.933 169.316 265.576 169.229C267.786 181.739 266.76 191.884 266.22 196.007C274.712 192.771 290.685 187.968 310.625 190.022C339.979 193.049 358.98 208.97 366.323 215.304C387.203 233.296 395.781 254.541 399.122 264.686C403.838 279.389 410.311 307.316 401.106 336.2L401.089 336.217Z" fill="#FFEECC"/>
<path d="M225.011 356.943C214.728 371.855 190.124 370.932 186.94 370.637C186.365 370.584 183.303 370.445 179.144 370.445C178.97 370.445 175.891 370.515 173.594 371.002C168.617 372.081 165.346 375.613 163.397 377.771C156.803 385.044 158.525 389.968 152.192 394.353C151.322 394.945 147.685 397.45 145.614 396.197C144.675 395.623 144.396 394.492 143.509 389.342C143.126 387.08 142.761 384.974 142.448 383.025C140.795 385.009 139.281 387.41 138.237 390.264C136.897 393.866 137.158 395.919 135.348 397.415C133.521 398.947 130.285 399.26 128.371 398.251C120.767 394.283 127.936 366.843 128.614 364.32C131.416 353.845 133.956 344.415 142.291 334.897C152.957 322.734 165.938 318.645 171.036 317.131C172.55 316.679 179.788 314.591 189.567 314.452C197.484 314.347 205.297 314.243 213.51 318.662C217.094 320.594 225.811 325.274 228.717 335.314C231.988 346.572 225.533 356.247 225.046 356.943H225.011Z" fill="#FFEECC"/>
<path d="M224.288 394.301C223.331 397.729 222.774 400.634 222.444 402.775C221.957 405.889 221.713 407.49 221.957 409.648C222.061 410.622 222.235 411.422 222.426 412.066C223.053 414.224 223.505 414.676 223.244 415.337C222.792 416.486 220.512 417.043 218.738 416.503C216.267 415.738 215.501 413.058 215.449 412.814C215.449 413.267 215.449 416.155 213.744 417.025C212.804 417.513 211.725 417.182 210.977 416.886C203.512 414.015 199.441 408.464 199.441 408.464C196.1 403.21 193.229 395.797 191.75 389.463C191.071 386.54 189.645 378.188 192.376 376.831C194.064 375.996 195.787 378.658 203.164 383.269C206.088 385.113 209.637 386.906 216.737 390.525C219.799 392.091 222.392 393.361 224.306 394.283L224.288 394.301Z" fill="#FFEECC"/>
<path d="M261.887 403.261C267.072 403.644 274.868 403.94 284.281 403.174C299.489 401.921 311.356 398.493 311.669 399.572C312.069 400.929 292.546 402.443 285.586 415.111C284.055 417.912 282.332 422.697 277.686 424.594C275.894 425.324 274.032 425.429 270.309 425.655C266.515 425.864 263.662 426.003 262.931 424.594C262.496 423.741 263.018 422.645 264.079 420.47C264.949 418.678 265.906 417.32 266.62 416.433C264.288 417.199 262.931 418.364 262.148 419.6C261.435 420.713 261.452 421.479 260.704 422.105C259.834 422.819 258.216 423.132 254.91 421.844C254.84 419.896 254.962 417.338 255.693 414.467C257.119 408.934 260.095 405.192 261.887 403.278V403.261Z" fill="#FFEECC"/>
<path d="M126.782 137.318C128.505 151.378 121.162 164.811 108.965 170.466C98.5246 175.303 85.9791 173.772 76.4787 166.603C75.2955 164.967 74.0601 163.105 72.8768 161.035C71.1542 158.025 69.8492 155.171 68.8574 152.613C82.7775 141.216 96.6976 129.819 110.618 118.422C113.628 120.318 117.874 123.52 121.684 128.549C124.103 131.733 125.704 134.813 126.782 137.336V137.318Z" fill="#EF6724"/>
<path d="M131.382 191.937C119.619 195.225 102.063 189.71 102.063 189.71C95.4158 188.074 87.8642 185.377 80.1908 180.87C78.7117 180 77.3023 179.113 75.9625 178.208C75.9103 177.703 75.8581 177.164 75.8233 176.625C75.7711 175.981 75.7537 175.372 75.7363 174.78C76.1191 174.972 76.3975 175.111 76.5541 175.18C101.662 187.326 123.917 187.204 127.954 186.438C128.476 186.334 128.981 186.247 129.503 186.143C130.077 186.021 132.374 185.986 133.418 187.587C133.922 188.352 134.131 189.501 133.679 190.406C133.574 190.614 133.087 191.502 131.399 191.972L131.382 191.937Z" fill="#EF6724"/>
<path d="M111.794 150.142C110.106 154.631 107.218 162.235 99.8921 165.089C97.2821 166.115 94.6547 166.307 92.1665 166.046C87.7294 165.593 83.6926 163.679 80.752 162.305C77.6896 160.86 74.488 159.364 72.0519 157.154C70.6773 155.901 69.5463 154.422 68.8503 152.595C65.0571 142.782 75.0274 131.976 77.707 129.105C82.5616 123.85 93.2627 115.133 102.485 115.203C102.92 115.203 103.355 115.22 103.79 115.272C105.53 115.446 107.2 115.968 108.749 116.925C118.093 122.685 115.291 140.885 111.811 150.125L111.794 150.142Z" fill="#FAE2BA"/>
<path d="M91.0592 135.787C93.9215 131.714 94.4126 127.127 92.1561 125.541C89.8996 123.955 85.7501 125.971 82.8877 130.044C80.0254 134.116 79.5343 138.704 81.7908 140.289C84.0473 141.875 88.1968 139.859 91.0592 135.787Z" fill="#EF6724"/>
<path d="M105.949 138.964C107.228 133.835 106.096 129.137 103.42 128.469C100.744 127.802 97.5378 131.417 96.2582 136.546C94.9787 141.674 96.1107 146.372 98.7867 147.04C101.463 147.708 104.669 144.092 105.949 138.964Z" fill="#EF6724"/>
<path d="M157.211 158.268C160.934 153.361 167.564 150.212 173.88 151.969C177.517 152.978 180.596 155.466 182.876 158.407C184.337 160.286 185.155 161.591 185.956 163.505C187.452 167.038 193.038 164.897 191.524 161.33C188.496 154.214 182.458 148.037 174.854 146.053C166.642 143.913 157.611 147.828 152.565 154.475C150.233 157.537 154.879 161.33 157.211 158.25V158.268Z" fill="#EF6724"/>
<path d="M372.189 287.812C371.684 287.168 360.218 300.983 342.939 301.401C328.445 301.749 318.127 292.457 316.439 290.891C314.56 289.151 300.744 275.945 304.276 260.319C304.503 259.345 307.617 246.277 317.553 244.155C322.233 243.163 328.706 244.45 330.933 248.505C333.421 253.011 328.236 256.631 329.524 263.991C330.55 269.785 335.318 276.31 342.052 277.563C349.482 278.937 355.398 273.161 356.964 271.629C362.723 266.009 363.437 258.806 363.541 256.23C363.976 245.112 356.163 237.508 353.519 234.933C345.184 226.824 335.231 225.432 332.464 225.084C324.339 224.058 303.354 226.528 292.914 243.615C284.858 256.787 287.99 270.672 288.721 273.944C292.444 290.509 304.659 299.226 308.435 301.662C311.028 303.35 323.556 311.11 339.999 308.674C360.74 305.594 372.728 288.508 372.189 287.812Z" fill="#EF6724"/>
<path d="M266.216 196.025C266.564 197.783 266.93 200.167 267.086 203.038C267.156 204.256 267.191 205.909 267.121 208.606C266.999 213.095 266.564 217.167 265.973 220.716C265.486 223.883 264.616 228.25 262.963 233.244C253.253 262.807 228.58 278.171 229.415 279.163C230.024 279.876 244.136 272.969 254.837 258.335C254.837 258.335 267.939 240.396 270.723 211.372C270.74 211.146 270.758 210.937 270.758 210.937C271.019 208.327 271.123 205.265 270.897 201.854C270.723 199.21 270.375 196.808 269.957 194.686C269.314 194.894 268.67 195.138 268.009 195.364C267.382 195.59 266.773 195.817 266.182 196.043L266.216 196.025Z" fill="#EF6724"/>
<path d="M271.192 162.895C269.626 164.496 267.398 165.418 264.875 165.644C261.83 165.923 258.35 165.192 255.149 163.417L254.992 163.348C243.839 158.441 237.766 154.769 235.956 153.116C235.487 152.699 234.617 151.898 234.321 150.663C234.077 149.636 234.321 148.714 234.599 147.844C235.695 144.486 236.409 142.259 238.671 139.057C239.889 137.317 241.959 134.429 245.579 131.923C246.118 131.558 246.779 131.088 247.562 130.601C249.946 129.122 253.391 127.451 257.515 127.451C258.263 127.451 259.046 127.503 259.847 127.625C261.726 127.921 266.685 128.704 269.295 133.106C271.487 136.795 270.687 140.762 270.235 142.293L269.991 143.129L270.496 143.842C272.305 146.382 273.401 149.288 273.715 152.246C274.202 157.049 273.349 160.633 271.174 162.878L271.192 162.895Z" fill="#FFEECC"/>
<path d="M190.568 80.9426C194.222 80.0378 197.197 80.264 199.007 80.5424C201.686 80.96 206.262 81.6908 209.273 85.5884C211.413 88.3898 211.656 91.3826 211.726 92.3049C212.091 97.7859 208.785 101.579 208.089 102.327C206.576 101.892 204.47 101.318 201.93 100.744C198.119 99.8913 192.377 98.6211 185.034 98.3775C180.91 98.2383 175.325 98.3775 168.765 99.5607C168.382 97.8729 167.93 95.0541 168.522 91.6611C168.852 89.8166 169.879 83.8832 175.081 80.3684C176.038 79.7246 178.753 77.9324 182.668 78.002C186.827 78.0716 189.68 80.1944 190.568 80.9252V80.9426Z" fill="#FFEECC"/>
<path d="M212.491 188.195C212.178 188.143 211.917 192.041 208.924 196.234C207.636 198.026 206.331 199.227 205.635 199.801C205.009 200.323 202.834 202.098 199.945 203.142C199.075 203.455 190.41 206.448 185.677 201.698C183.728 199.731 182.075 196.095 183.45 193.032C184.285 191.171 186.373 189.257 188.322 189.5C190.514 189.779 190.445 192.476 193.316 193.885C195.578 194.999 199.04 194.981 201.163 192.98C203.512 190.753 203.008 187.256 202.869 186.333C202.381 182.923 200.067 180.87 199.215 180.174C195.491 177.216 190.897 177.999 189.331 178.26C184.424 179.095 181.432 182.192 180.614 183.045C176.716 187.169 173.932 194.581 177.047 201.384C180.37 208.64 188.339 210.311 190.723 210.676C192.428 210.92 197.318 211.407 202.381 208.605C207.132 205.978 209.237 202.011 210.211 200.132C213.256 194.198 212.874 188.265 212.491 188.195Z" fill="#EF6724"/>
</svg>
