<svg width="170" height="161" viewBox="0 0 170 161" fill="none" xmlns="http://www.w3.org/2000/svg">
<path d="M165.321 54.0202C165.176 56.1963 164.118 58.4286 162.472 60.0484C160.806 61.6915 158.525 62.6709 156.426 62.7457C155.077 62.7925 154.357 62.7013 153.119 62.3437C152.097 62.0515 151.174 61.6425 150.417 61.0231C150.583 61.1586 150.295 60.9085 150.295 60.9085C150.183 60.8033 150.071 60.7005 149.963 60.5906C149.856 60.4808 149.755 60.3709 149.657 60.2564C149.688 60.2914 149.835 60.5042 149.681 60.2868C149.526 60.0694 149.4 59.852 149.279 59.623C149.241 59.5528 149.122 59.2186 149.251 59.5715C149.199 59.4313 149.155 59.2887 149.117 59.1438C149.08 58.9989 149.043 58.8469 149.021 58.6997C149.029 58.7511 149.052 59.0199 149.04 58.7464C149.028 58.473 149.026 58.1971 149.05 57.9213C149.017 58.2977 149.122 57.5684 149.148 57.4609C149.201 57.2435 149.358 56.7316 149.386 56.6591C150.115 54.7752 152.074 52.8983 153.96 52.8679C154.801 52.8539 155.729 53.1788 156.346 53.6696C157.337 54.4597 157.735 55.0393 158.293 56.0865C158.352 56.1963 158.627 56.7667 158.553 56.5984C158.452 56.367 158.583 56.6802 158.592 56.7059C158.639 56.8298 158.684 56.9537 158.723 57.0799C158.814 57.3627 158.882 57.6479 158.948 57.9354C159.048 58.3818 159.013 58.1083 159.027 58.5665C159.067 59.9105 158.969 60.6187 158.534 61.9229C157.791 64.1552 156.155 66.3313 154.17 67.8739C151.709 69.7859 148.496 70.5549 145.322 70.1809C145.38 70.188 145.553 70.2137 145.284 70.1763C145.074 70.1459 144.861 70.1085 144.653 70.0664C144.338 70.0056 144.022 69.9355 143.711 69.856C143.174 69.7205 142.641 69.5592 142.117 69.3745C141.905 69.2997 141.697 69.2133 141.486 69.1361C141.154 69.0146 141.951 69.3605 141.386 69.0894C141.22 69.0099 141.054 68.9328 140.893 68.8463C138.242 67.4158 135.877 71.4548 138.532 72.8853C143.91 75.786 151.029 75.7065 156.103 72.2215C161.764 68.3321 165.737 60.787 162.535 54.1207C161.18 51.2972 158.553 48.7798 155.372 48.303C151.543 47.7303 148.038 49.9228 146.009 53.0689C144.212 55.8551 143.648 59.6814 145.576 62.554C147.378 65.2374 150.494 66.759 153.63 67.2241C157.686 67.8249 161.568 66.8058 164.774 64.2393C167.897 61.7406 169.732 57.9774 169.996 54.0156C170.08 52.7534 168.86 51.6758 167.656 51.6758C166.322 51.6758 165.401 52.7487 165.317 54.0156L165.321 54.0202Z" fill="#FFEFCD"/>
<path d="M61.5164 131.065C58.7071 131.811 56.5592 132.068 54.7946 132.136C53.3409 131.205 51.9339 130.287 50.5713 129.401C46.0931 126.484 39.7663 122.288 33.5493 116.015C37.0201 112.408 41.4094 109.514 46.5279 107.988C47.631 107.659 50.8354 106.777 54.8928 106.777C58.1181 106.777 61.8881 107.336 65.5598 109.178C67.7217 110.265 70.8279 111.878 72.2186 115.363C73.885 119.535 72.3004 124.392 69.6032 127.258C67.5652 129.424 65.2513 130.072 61.5164 131.063V131.065Z" fill="white"/>
<path d="M80.1929 24.347C80.436 24.1787 80.7375 23.9707 81.0904 23.751C81.8781 24.6742 82.6307 25.6513 83.3412 26.6844C86.3445 31.0483 88.0133 35.5314 88.9038 39.5751C87.5248 39.7037 85.9565 39.3694 84.5074 38.57L84.4397 38.5373C79.4006 36.3215 76.6614 34.6619 75.8457 33.9139C75.6354 33.7223 75.2427 33.36 75.1072 32.8084C74.995 32.3432 75.1072 31.9272 75.2334 31.5392C75.7265 30.0199 76.0514 29.0148 77.0728 27.5726C77.6267 26.7896 78.5546 25.4806 80.1929 24.347Z" fill="#FFEFCD"/>
<path d="M150.426 116.613C148.253 123.426 143.796 131.467 140.493 135.704C138.555 138.191 136.716 140.756 134.725 143.198C133.121 145.169 132.374 145.994 131.394 147.66C130.057 149.941 129.655 151.199 128.634 153.258C127.491 155.561 126.918 156.711 125.984 157.533C125.28 158.15 124.186 158.658 121.999 159.674C119.802 160.696 119.348 160.705 119.026 160.507C118.002 159.875 118.619 157.311 118.668 157.117C118.476 157.498 117.99 158.33 117.002 158.962C116.548 159.251 115.37 160.004 114.699 159.686C113.122 158.943 114.688 152.433 115.279 149.979C115.95 147.186 117.037 143.444 118.86 139.124C118.86 139.124 118.86 139.122 118.862 139.122C118.797 139.152 118.696 139.204 118.572 139.264C117.45 139.825 106.975 144.921 94.4031 145.339C75.086 145.984 57.6387 135.214 58.1365 133.54C58.251 133.154 59.2397 133.521 62.014 132.951C64.1525 132.509 68.0416 131.761 71.0216 128.594C72.6319 126.883 73.8449 124.639 74.4386 122.274C75.1047 119.619 74.9621 116.977 74.0296 114.64C72.3351 110.398 68.64 108.542 66.4336 107.436C62.9816 105.706 59.0994 104.828 54.8925 104.828C52.6557 104.828 49.5659 104.764 45.9713 106.12C40.9369 108.02 35.2762 112.513 34.6054 113.051C33.1774 114.196 32.9016 114.535 32.1911 114.614C30.368 114.818 27.6171 113.088 21.7858 100.375C18.3033 92.7807 14.8419 84.9668 12.0326 72.5412C10.5438 65.9498 9.80989 60.2886 9.41724 56.1257C8.17618 55.0505 5.11208 52.0914 3.94581 47.2016C3.2166 44.1489 3.5181 41.5498 3.82661 40.0071C10.8476 36.5057 17.8686 33.0019 24.8896 29.5005C24.0342 27.5511 23.1788 25.6018 22.321 23.65C24.7634 20.9527 29.5991 16.3247 37.1296 13.3024C43.6855 10.6705 49.2621 10.4648 51.1389 10.4461C60.2096 10.355 71.7438 13.7185 79.9848 22.5141C79.702 22.6964 79.4613 22.8647 79.2626 23.0003C77.3858 24.2975 76.313 25.8145 75.7358 26.6279C74.5718 28.2734 74.1768 29.4912 73.6767 31.0339C73.5505 31.4242 73.2864 32.24 73.5177 33.1936C73.7702 34.2291 74.4479 34.8532 74.7401 35.1196C75.9508 36.2299 79.4005 38.1068 83.7477 40.0188C85.2506 40.8415 86.8422 41.2482 88.3287 41.2482C88.6325 41.2482 88.9317 41.2319 89.2238 41.1968C90.2195 46.844 89.7591 51.4276 89.5183 53.2928C93.3514 51.8296 100.564 49.6652 109.569 50.5931C122.826 51.9628 131.406 59.1526 134.725 62.0136C144.158 70.1431 148.026 79.738 149.533 84.317C151.663 90.9575 154.584 103.568 150.426 116.613Z" fill="#FFEFCD"/>
<path d="M69.6031 127.26C67.565 129.427 65.2512 130.074 61.5163 131.065C58.707 131.811 56.5591 132.068 54.7945 132.136C54.4182 132.15 54.0606 132.154 53.717 132.154C52.3755 132.154 51.2559 132.066 50.1972 132.066C50.1154 132.066 48.7294 132.094 47.687 132.32C45.4409 132.807 43.9591 134.401 43.078 135.373C40.1004 138.657 40.881 140.885 38.0156 142.862C37.6253 143.131 35.9822 144.262 35.0427 143.694C34.6173 143.437 34.4934 142.925 34.0914 140.602C33.9161 139.583 33.7572 138.627 33.6146 137.748C32.8714 138.645 32.1889 139.728 31.7121 141.02C31.1115 142.649 31.2213 143.577 30.4103 144.25C29.5806 144.94 28.1268 145.08 27.2574 144.627C23.824 142.832 27.0634 130.441 27.3696 129.303C28.6387 124.57 29.7792 120.311 33.5492 116.015C38.3709 110.522 44.2303 108.675 46.5277 107.988C47.6309 107.659 50.8352 106.777 54.8926 106.777C58.118 106.777 61.8879 107.336 65.5597 109.178C67.7216 110.265 70.8278 111.878 72.2184 115.363C73.8849 119.535 72.3002 124.392 69.6031 127.258V127.26Z" fill="#FFEFCD"/>
<path d="M70.5872 142.843C70.1525 144.391 69.9024 145.707 69.7505 146.67C69.5308 148.077 69.421 148.801 69.5285 149.771C69.5776 150.215 69.6547 150.573 69.7388 150.865C70.0193 151.84 70.225 152.043 70.1104 152.342C69.9094 152.864 68.874 153.114 68.0724 152.868C66.9552 152.522 66.614 151.309 66.5859 151.204C66.5882 151.405 66.5882 152.714 65.8123 153.107C65.3846 153.324 64.8961 153.177 64.5642 153.048C61.194 151.751 59.3569 149.243 59.3569 149.243C57.8471 146.871 56.5522 143.526 55.8815 140.66C55.5729 139.342 54.9302 135.567 56.1619 134.957C56.9262 134.578 57.7045 135.78 61.035 137.867C62.3579 138.697 63.9612 139.513 67.1679 141.146C68.5515 141.852 69.7248 142.427 70.5849 142.843H70.5872Z" fill="#FFEFCD"/>
<path d="M87.5646 146.887C89.9065 147.062 93.4263 147.198 97.6754 146.847C104.542 146.282 109.901 144.73 110.046 145.221C110.226 145.833 101.413 146.52 98.2714 152.24C97.5772 153.504 96.8013 155.666 94.7025 156.522C93.8891 156.854 93.05 156.9 91.3719 156.999C89.6611 157.097 88.3663 157.158 88.0414 156.522C87.8451 156.136 88.0811 155.643 88.5579 154.659C88.9482 153.848 89.3853 153.238 89.7078 152.836C88.6514 153.184 88.0414 153.705 87.6861 154.264C87.3659 154.766 87.373 155.115 87.0317 155.393C86.6414 155.713 85.9052 155.858 84.414 155.274C84.3813 154.395 84.4351 153.24 84.7716 151.943C85.419 149.444 86.7629 147.752 87.5669 146.887H87.5646Z" fill="#FFEFCD"/>
<path d="M26.5446 26.782C27.3183 33.128 24.0088 39.1959 18.4953 41.753C13.7788 43.9408 8.11802 43.2489 3.82689 40.007C3.28933 39.266 2.73776 38.4269 2.2002 37.4896C1.4219 36.1316 0.832919 34.839 0.381836 33.6843C6.66895 28.5374 12.9561 23.3881 19.2432 18.2412C20.6058 19.099 22.52 20.5412 24.2448 22.8178C25.334 24.2553 26.0585 25.6461 26.5446 26.782Z" fill="#F06724"/>
<path d="M28.6319 51.4463C23.317 52.9282 15.3916 50.4389 15.3916 50.4389C12.3906 49.7002 8.98291 48.4801 5.51682 46.4466C4.84603 46.0539 4.21031 45.6495 3.60263 45.2405C3.57692 45.0091 3.55588 44.7707 3.53719 44.5229C3.51615 44.2354 3.50213 43.9573 3.49512 43.6885C3.66573 43.7726 3.79428 43.8334 3.8644 43.8685C15.2022 49.3496 25.2499 49.2959 27.08 48.9546C27.3137 48.9102 27.5427 48.8658 27.7765 48.819C28.0336 48.7676 29.0736 48.7489 29.5481 49.4688C29.7771 49.8148 29.8683 50.3337 29.6649 50.7427C29.6159 50.8409 29.4008 51.2336 28.6342 51.4486L28.6319 51.4463Z" fill="#F06724"/>
<path d="M19.7806 32.5716C19.014 34.5981 17.7168 38.0317 14.4073 39.3243C13.2293 39.7848 12.0444 39.8759 10.9155 39.7591C8.91484 39.551 7.08714 38.6909 5.7596 38.0668C4.37831 37.4147 2.92923 36.7415 1.83074 35.7411C1.21138 35.1778 0.701865 34.5093 0.384003 33.6818C-1.32918 29.2478 3.17465 24.3744 4.38065 23.0701C6.5753 20.6976 11.4086 16.7568 15.5712 16.7942C15.7676 16.7942 15.9639 16.8059 16.1579 16.8246C16.9432 16.9064 17.6981 17.1425 18.3993 17.5749C22.6156 20.1764 21.3558 28.3993 19.7806 32.5692V32.5716Z" fill="#FBE3BB"/>
<path d="M10.4083 26.0868C11.6998 24.2491 11.9206 22.1787 10.9015 21.4624C9.88236 20.7461 8.00927 21.6551 6.7178 23.4928C5.42634 25.3306 5.20555 27.401 6.22466 28.1173C7.24377 28.8336 9.11687 27.9245 10.4083 26.0868Z" fill="#F06724"/>
<path d="M17.1464 27.5232C17.7239 25.2086 17.2123 23.0877 16.0037 22.7861C14.7951 22.4845 13.3472 24.1164 12.7698 26.4311C12.1923 28.7457 12.7039 30.8665 13.9124 31.1681C15.121 31.4697 16.5689 29.8378 17.1464 27.5232Z" fill="#F06724"/>
<path d="M40.2898 36.2391C41.9702 34.0232 44.9665 32.5974 47.8133 33.3945C49.4563 33.8526 50.8446 34.9769 51.8777 36.3045C52.5344 37.1506 52.9037 37.7443 53.2707 38.6068C53.9461 40.2033 56.4703 39.2333 55.7878 37.6251C54.4252 34.4065 51.6907 31.6204 48.2597 30.7298C44.5482 29.7668 40.4721 31.5292 38.1909 34.5374C37.1415 35.9212 39.2333 37.6321 40.2874 36.2414L40.2898 36.2391Z" fill="#F06724"/>
<path d="M137.373 94.7512C137.146 94.4567 131.969 100.7 124.168 100.889C117.619 101.048 112.963 96.8525 112.197 96.142C111.351 95.3566 105.11 89.3893 106.706 82.335C106.807 81.8933 108.216 75.9913 112.704 75.0377C114.819 74.5866 117.74 75.1756 118.745 76.9988C119.867 79.0346 117.525 80.6661 118.112 83.9899C118.575 86.6101 120.73 89.5552 123.77 90.1209C127.127 90.7449 129.794 88.1364 130.504 87.4399C133.101 84.8991 133.428 81.6502 133.472 80.4861C133.671 75.4631 130.142 72.0341 128.943 70.8678C125.178 67.2098 120.683 66.5787 119.435 66.4221C115.766 65.9616 106.288 67.0765 101.572 74.7899C97.9349 80.7386 99.3443 87.0098 99.6761 88.4894C101.357 95.9667 106.877 99.9052 108.579 101.008C109.752 101.77 115.41 105.274 122.833 104.173C132.201 102.785 137.614 95.0621 137.371 94.7489L137.373 94.7512Z" fill="#F06724"/>
<path d="M89.5184 53.2909C89.6727 54.0809 89.8409 55.1631 89.9157 56.4557C89.9484 57.005 89.9601 57.7553 89.9274 58.9684C89.8737 60.9973 89.6726 62.8345 89.4109 64.4402C89.1888 65.8731 88.7962 67.8411 88.053 70.1014C83.666 83.4572 72.5268 90.3923 72.9008 90.8364C73.1742 91.1589 79.5455 88.0409 84.3835 81.4261C84.3835 81.4261 90.3014 73.3247 91.5611 60.2119C91.5705 60.1067 91.5798 60.0132 91.5798 60.0132C91.6943 58.8329 91.7458 57.4491 91.6453 55.9088C91.5658 54.712 91.4092 53.6275 91.2222 52.6738C90.9324 52.772 90.6403 52.8748 90.3434 52.9824C90.063 53.0852 89.7895 53.1881 89.5208 53.2909H89.5184Z" fill="#F06724"/>
<path d="M60.5676 51.5142C60.5161 51.4488 59.3545 52.8512 57.6016 52.8933C56.1315 52.9284 55.0844 51.9864 54.9138 51.8275C54.7245 51.6522 53.3222 50.3105 53.6821 48.7281C53.7055 48.6299 54.021 47.3046 55.0284 47.0896C55.5028 46.9891 56.1596 47.12 56.3863 47.5313C56.6387 47.9895 56.1128 48.3541 56.2437 49.1021C56.3465 49.6911 56.8327 50.3526 57.5152 50.4788C58.2701 50.619 58.8684 50.0323 59.0273 49.8757C59.6116 49.3054 59.6841 48.5762 59.6934 48.3144C59.7378 47.1854 58.9455 46.4164 58.6768 46.1546C57.8307 45.3319 56.821 45.1916 56.5405 45.1566C55.7155 45.0537 53.5886 45.3038 52.5299 47.0358C51.7142 48.3728 52.0297 49.7799 52.1045 50.1118C52.4808 51.7901 53.7219 52.6759 54.1028 52.9237C54.3669 53.0943 55.636 53.882 57.3048 53.6343C59.4083 53.3234 60.6237 51.589 60.5699 51.5166L60.5676 51.5142Z" fill="#F06724"/>
<path d="M91.7552 38.3336C91.0516 39.0582 90.042 39.4742 88.9038 39.5747C87.5248 39.7033 85.9565 39.3691 84.5074 38.5697L84.4397 38.5369C79.4006 36.3211 76.6614 34.6616 75.8457 33.9136C75.6354 33.7219 75.2427 33.3596 75.1072 32.808C74.995 32.3429 75.1072 31.9268 75.2334 31.5388C75.7265 30.0195 76.0514 29.0144 77.0728 27.5722C77.6267 26.7892 78.5546 25.4803 80.1929 24.3467C80.436 24.1784 80.7375 23.9703 81.0904 23.7506C82.1679 23.0845 83.7245 22.3271 85.5849 22.3271C85.9261 22.3271 86.2791 22.3529 86.6413 22.409C87.4874 22.5422 89.7311 22.8951 90.9091 24.8866C91.8977 26.5555 91.5354 28.3436 91.3344 29.0355L91.2246 29.4141L91.4536 29.7367C92.267 30.882 92.7672 32.1956 92.9051 33.5349C93.1271 35.7064 92.7391 37.3215 91.7552 38.3336Z" fill="#FFEFCD"/>
<path d="M55.3509 1.319C56.9986 0.912297 58.3472 1.0128 59.1652 1.14136C60.3783 1.33303 62.4444 1.65559 63.7999 3.42265C64.7699 4.68718 64.8774 6.04053 64.9054 6.45425C65.0714 8.92954 63.5779 10.6405 63.2647 10.9818C62.5846 10.7854 61.631 10.526 60.4834 10.2689C58.7609 9.8832 56.1666 9.31287 52.8548 9.19834C50.9897 9.13523 48.4725 9.20068 45.5112 9.7336C45.3359 8.97395 45.1373 7.69774 45.4037 6.16909C45.5486 5.33697 46.0184 2.65599 48.3626 1.07124C48.7974 0.776729 50.0244 -0.027333 51.7843 0.000715653C53.6634 0.0311017 54.9489 0.994106 55.3486 1.319H55.3509Z" fill="#FFEFCD"/>
</svg>
