<svg width="64" height="96" viewBox="0 0 64 96" fill="none" xmlns="http://www.w3.org/2000/svg">
<path d="M16.6787 12.5073C16.6679 13.7364 16.4515 14.4161 16.0872 15.5483C16.0006 15.8128 15.9285 15.9779 15.7927 16.0952C15.6063 16.2532 15.3419 16.2843 15.1808 16.3022C14.5869 16.3704 12.6069 16.2747 8.83203 15.5148C11.1066 12.9465 13.7141 11.0317 16.2988 9.604C16.6895 10.8211 16.6835 11.8683 16.6775 12.5073H16.6787Z" fill="#FFEFCD"/>
<path d="M56.3256 15.5075C56.3064 15.5111 56.2847 15.5146 56.2655 15.5158L56.1549 15.5338C51.8944 16.4373 49.692 16.551 49.0596 16.4768C48.9033 16.4577 48.6365 16.4278 48.4537 16.2722C48.3143 16.1525 48.2421 15.9862 48.1544 15.7121C47.7937 14.5884 47.5749 13.911 47.5653 12.6807C47.5581 12.0034 47.5497 10.8689 48.0185 9.55841C48.0642 9.43155 48.1207 9.27478 48.188 9.09766C51.2368 10.6714 54.0415 12.7825 56.3268 15.5063L56.3256 15.5075Z" fill="#FFEFCD"/>
<path d="M58.8864 43.8264C51.3343 56.8255 34.3631 56.3444 31.4298 56.2618C30.2985 56.2283 8.6652 55.3092 3.14838 40.0721C-0.236969 30.7291 4.5862 21.9234 5.50466 20.2479C6.238 18.91 7.05668 17.6905 7.93668 16.5823C11.3377 17.2979 13.5821 17.5493 14.7579 17.5493C14.9887 17.5493 15.1774 17.5385 15.3253 17.5217C15.5633 17.4954 16.1211 17.4308 16.596 17.0287C17.0264 16.6601 17.1791 16.1802 17.2656 15.9133C17.6359 14.7644 17.904 13.9327 17.9136 12.5181C17.9184 11.7677 17.9292 10.5147 17.4039 9.02239C23.2417 6.08914 28.7056 5.54821 29.6613 5.46923C35.005 5.02164 41.391 5.89886 47.0786 8.55446C46.9872 8.78543 46.9127 8.99127 46.8562 9.14924C46.3152 10.6643 46.326 11.9341 46.3332 12.6928C46.344 14.1098 46.6097 14.9391 46.9836 16.0976C47.0666 16.3573 47.2216 16.8372 47.6508 17.2058C48.1233 17.6079 48.6811 17.6701 48.9179 17.6988C49.0658 17.7168 49.2557 17.7252 49.4866 17.7252C50.6743 17.7252 52.95 17.4703 56.4027 16.739L56.4304 16.7355C56.6876 16.7043 56.9401 16.6589 57.1877 16.6002C58.0966 17.8209 58.9057 19.1529 59.5933 20.601C59.8999 21.2496 65.2099 32.9407 58.8864 43.8276V43.8264Z" fill="#FFEFCD"/>
<path d="M60.061 12.7132C59.9733 13.2996 59.6306 13.8621 59.0668 14.348C58.3623 14.9583 57.3898 15.3688 56.3246 15.5076C56.3054 15.5112 56.2838 15.5148 56.2645 15.516L56.1539 15.534C51.8934 16.4375 49.691 16.5512 49.0586 16.477C48.9023 16.4579 48.6355 16.4279 48.4527 16.2724C48.3133 16.1527 48.2412 15.9863 48.1534 15.7123C47.7927 14.5885 47.5739 13.9112 47.5643 12.6809C47.5571 12.0035 47.5487 10.869 48.0176 9.55858C48.0632 9.43172 48.1197 9.27495 48.187 9.09783C48.2183 9.01406 48.2544 8.9243 48.2928 8.83335C48.7737 7.67968 49.3989 6.83597 50.2067 6.25793C50.3955 6.1227 50.5974 6.00063 50.8078 5.89532C51.1985 5.69666 51.9631 5.3125 52.8503 5.3125C53.2134 5.3125 53.5969 5.37712 53.9852 5.54706C55.102 6.03295 55.5829 7.09566 55.738 7.53128L55.9375 8.08897L56.5014 8.28045C57.3994 8.58682 58.1964 9.10621 58.8011 9.78357C59.7665 10.8678 60.1909 11.8528 60.0622 12.7132H60.061Z" fill="#FFEFCD"/>
<path d="M16.6794 12.5073C16.6685 13.7364 16.4521 14.4161 16.0879 15.5482C16.0013 15.8127 15.9292 15.9779 15.7933 16.0952C15.607 16.2531 15.3425 16.2843 15.1814 16.3022C14.5876 16.3704 12.6076 16.2747 8.83271 15.5147C8.59107 15.4657 8.34342 15.4142 8.08735 15.3604L7.97675 15.3412C6.88998 15.212 5.89457 14.7955 5.17326 14.1708C4.89195 13.929 4.66593 13.667 4.50003 13.3941C4.33293 13.1188 4.22474 12.8316 4.18266 12.5396C4.05403 11.678 4.47719 10.693 5.44255 9.60996C6.04725 8.9314 6.84309 8.41201 7.74233 8.10445L8.30615 7.91297L8.50571 7.35528C8.66079 6.92086 9.14167 5.85694 10.2585 5.37106C10.6456 5.20232 11.0303 5.1377 11.3946 5.1377C12.2794 5.1377 13.044 5.52185 13.4347 5.71812C13.6438 5.82343 13.847 5.9467 14.0358 6.08074C14.8424 6.65997 15.4688 7.50128 15.9496 8.65376C16.0566 8.91704 16.142 9.14801 16.2249 9.38138C16.2514 9.45558 16.2766 9.52858 16.3007 9.60039C16.6914 10.8175 16.6854 11.8646 16.6794 12.5037V12.5073Z" fill="#FFEFCD"/>
<mask id="mask0_792_11262" style="mask-type:luminance" maskUnits="userSpaceOnUse" x="1" y="51" width="31" height="45">
<path d="M31.9997 51.4424H1.28027V95.9999H31.9997V51.4424Z" fill="white"/>
</mask>
<g mask="url(#mask0_792_11262)">
<path d="M13.4347 51.4424C9.35574 54.1339 6.70493 57.0133 5.10603 59.0382C3.06592 61.6208 1.97794 63.7737 1.54516 66.19C1.35882 67.2347 0.82745 70.2075 2.14865 70.9207C3.24504 71.5131 4.99542 70.2146 5.29597 69.9873C5.28755 70.4253 5.28515 72.1486 6.0269 72.4083C6.57389 72.5998 7.27356 71.9045 7.61619 71.5694C8.82438 70.3906 10.6517 68.7738 13.6403 66.4269C12.711 69.7814 12.2891 72.668 12.0823 74.8126C11.5846 79.9814 12.0871 83.4603 12.8301 88.5956C13.5586 93.6303 14.2066 94.9444 15.2777 95.3046C16.5652 95.7378 18.0932 94.6416 19.0285 93.817C19.1355 94.0635 19.9374 95.8455 21.3656 95.9771C22.3249 96.0657 23.057 95.3692 23.7735 94.6715C24.7076 93.762 25.4229 92.6502 26.7297 89.1987C27.0807 88.2725 27.534 87.0195 28.0172 85.5104C28.6147 85.6432 29.401 85.7856 30.3302 85.8658C32.273 86.0357 33.7841 85.8454 33.9705 85.8107C36.2173 85.3835 36.8593 71.038 35.2892 51.6159" fill="#FFEFCD"/>
<path d="M19.2249 92.2385C21.2158 92.4121 22.7509 92.1751 23.209 92.0973C24.2465 91.9226 25.106 91.6653 25.7444 91.4379C25.6025 91.8723 25.3945 92.3941 25.0832 92.9542C24.7718 93.5143 24.4376 93.9667 24.1431 94.3161C24.1431 94.3161 23.637 94.8989 22.9361 95.4494C22.8435 95.5224 22.4612 95.818 21.9827 95.9401C21.7123 96.0095 21.4947 95.9999 21.4466 95.9999C21.4466 95.9999 21.2542 95.9916 21.0559 95.9377C20.6447 95.8276 20.1206 95.465 19.6782 94.9468C19.4798 94.7146 19.2165 94.3544 19.0001 93.853C18.4604 94.3376 17.9578 94.662 17.5876 94.8714C17.144 95.1227 16.8458 95.2867 16.4034 95.3621C16.1233 95.4099 15.5799 95.5021 15.0558 95.2436C14.4595 94.9492 14.213 94.3592 13.9317 93.6854C13.7261 93.1936 13.63 92.801 13.5025 92.2302C13.3475 91.5372 13.2681 90.9532 13.2236 90.5439C14.6302 91.2333 16.6907 92.0159 19.2249 92.2373V92.2385Z" fill="#FED9B9"/>
</g>
<mask id="mask1_792_11262" style="mask-type:luminance" maskUnits="userSpaceOnUse" x="32" y="51" width="31" height="45">
<path d="M62.7204 51.4424H32.001V95.9999H62.7204V51.4424Z" fill="white"/>
</mask>
<g mask="url(#mask1_792_11262)">
<path d="M50.5663 51.4424C54.6453 54.1339 57.2961 57.0133 58.895 59.0382C60.9351 61.6208 62.0231 63.7737 62.4559 66.19C62.6422 67.2347 63.1736 70.2075 61.8524 70.9207C60.756 71.5131 59.0056 70.2146 58.7051 69.9873C58.7135 70.4253 58.7159 72.1486 57.9742 72.4083C57.4272 72.5998 56.7275 71.9045 56.3849 71.5694C55.1767 70.3906 53.3494 68.7738 50.3607 66.4269C51.29 69.7814 51.712 72.668 51.9188 74.8126C52.4165 79.9814 51.914 83.4603 51.171 88.5956C50.4425 93.6303 49.7945 94.9444 48.7234 95.3046C47.4358 95.7378 45.9079 94.6416 44.9726 93.817C44.8656 94.0635 44.0637 95.8455 42.6355 95.9771C41.6762 96.0657 40.944 95.3692 40.2275 94.6715C39.2934 93.762 38.5781 92.6502 37.2714 89.1987C36.9203 88.2725 36.4671 87.0195 35.9838 85.5104C35.3863 85.6432 34.6001 85.7856 33.6708 85.8658C31.7281 86.0357 30.2169 85.8454 30.0306 85.8107C27.7837 85.3835 27.1418 71.038 28.7118 51.6159" fill="#FFEFCD"/>
<path d="M44.7763 92.2385C42.7855 92.4121 41.2503 92.1751 40.7922 92.0973C39.7548 91.9226 38.8952 91.6653 38.2568 91.4379C38.3987 91.8723 38.6067 92.3941 38.918 92.9542C39.2294 93.5143 39.5636 93.9667 39.8581 94.3161C39.8581 94.3161 40.3643 94.8989 41.0651 95.4494C41.1577 95.5224 41.54 95.818 42.0185 95.9401C42.289 96.0095 42.5066 95.9999 42.5546 95.9999C42.5546 95.9999 42.747 95.9916 42.9454 95.9377C43.3565 95.8276 43.8807 95.465 44.3231 94.9468C44.5214 94.7146 44.7847 94.3544 45.0011 93.853C45.5409 94.3376 46.0434 94.662 46.4136 94.8714C46.8573 95.1227 47.1554 95.2867 47.5978 95.3621C47.8779 95.4099 48.4213 95.5021 48.9455 95.2436C49.5417 94.9492 49.7882 94.3592 50.0695 93.6854C50.2751 93.1936 50.3713 92.801 50.4987 92.2302C50.6538 91.5372 50.7331 90.9532 50.7776 90.5439C49.371 91.2333 47.3105 92.0159 44.7763 92.2373V92.2385Z" fill="#FED9B9"/>
</g>
<path d="M59.7944 78.0701C59.6128 78.6433 59.1813 79.1723 58.6331 79.499C58.0849 79.8257 57.3996 79.9442 56.8298 79.8269C56.4643 79.7515 56.2768 79.6797 55.9666 79.5038C55.7118 79.359 55.4894 79.189 55.3259 78.9736C55.3619 79.0203 55.3006 78.9353 55.3006 78.9353C55.2778 78.8994 55.2537 78.8647 55.2321 78.8288C55.2105 78.7929 55.19 78.7558 55.172 78.7187C55.178 78.7307 55.2032 78.7965 55.1768 78.7283C55.1503 78.6601 55.1299 78.593 55.1119 78.5236C55.1071 78.5021 55.0962 78.4051 55.1071 78.5081C55.1023 78.4674 55.0998 78.4255 55.0998 78.3848C55.0998 78.3441 55.0998 78.301 55.1035 78.2591C55.1023 78.2735 55.0914 78.3477 55.1059 78.2723C55.1203 78.1969 55.1383 78.1239 55.1624 78.0521C55.1287 78.1514 55.2044 77.9623 55.2189 77.9348C55.2477 77.8798 55.3235 77.7529 55.3355 77.7362C55.6553 77.279 56.3044 76.9044 56.8142 77.0193C57.0414 77.0708 57.2698 77.218 57.4032 77.3891C57.6184 77.6655 57.687 77.8463 57.7687 78.1634C57.7771 78.1969 57.8144 78.368 57.8048 78.3166C57.7927 78.2484 57.8072 78.3405 57.8084 78.3477C57.812 78.3836 57.8168 78.4195 57.8192 78.4566C57.8252 78.538 57.8252 78.6194 57.824 78.7007C57.8216 78.8276 57.83 78.751 57.8036 78.8755C57.7266 79.2381 57.6533 79.4212 57.4513 79.7419C57.1051 80.2912 56.522 80.7675 55.8873 81.0512C55.0998 81.403 54.185 81.3982 53.3555 81.0919C53.3699 81.0978 53.4156 81.1158 53.3459 81.0883C53.2906 81.0667 53.2365 81.0428 53.1836 81.0177C53.103 80.9806 53.0225 80.9411 52.9443 80.9004C52.8085 80.8286 52.6762 80.7508 52.5476 80.667C52.4959 80.6335 52.4454 80.5964 52.3937 80.5617C52.3132 80.5078 52.5043 80.6526 52.3697 80.5425C52.33 80.5102 52.2903 80.4791 52.2531 80.4456C51.634 79.8903 50.7335 80.8166 51.3526 81.3731C52.6089 82.5004 54.53 82.9444 56.1229 82.3425C57.9009 81.6699 59.4638 79.9095 59.0394 77.9157C58.8591 77.0708 58.3181 76.2259 57.4934 75.8908C56.5004 75.4875 55.4148 75.8465 54.6623 76.5562C53.9963 77.1857 53.5935 78.173 53.9241 79.0681C54.2331 79.9047 54.9712 80.515 55.7851 80.8441C56.837 81.269 57.9478 81.2498 58.9781 80.7723C59.9819 80.3068 60.7225 79.4188 61.0519 78.3752C61.1564 78.0425 60.9004 77.6751 60.5758 77.5961C60.2163 77.5088 59.899 77.7362 59.7932 78.0701H59.7944Z" fill="#FFEFCD"/>
<path d="M44.3085 69.2968C44.3229 72.0051 43.7855 74.3435 42.6362 76.5144C41.4918 78.6782 39.8243 80.2136 37.7193 81.1938C34.6549 82.6215 31.4752 82.9111 28.2689 81.9333C24.1984 80.6911 21.4562 77.8979 20.2335 73.4663C19.9029 72.2684 19.689 71.0597 19.6866 69.809C19.6829 68.1468 19.9919 66.5491 20.5762 65.0161C21.2181 63.331 22.0525 61.7705 23.1765 60.3978C25.1228 58.021 27.5176 56.5227 30.4509 56.0763C32.8096 55.7173 35.0853 55.9459 37.2348 57.1474C40.0347 58.7116 42.0388 61.056 43.259 64.1867C43.9238 65.8921 44.3614 67.6453 44.3073 69.298L44.3085 69.2968Z" fill="white" stroke="white" stroke-width="1.56" stroke-miterlimit="10"/>
<path d="M14.3969 31.5383C14.3283 31.5251 14.267 32.3988 13.5926 33.3382C13.3029 33.7415 13.0071 34.0084 12.8532 34.1376C12.7126 34.2561 12.2233 34.651 11.5741 34.8856C11.377 34.9562 9.42943 35.6288 8.36189 34.5613C7.92189 34.1209 7.55162 33.3035 7.85938 32.6202C8.04812 32.2013 8.51577 31.774 8.95697 31.8303C9.44867 31.8925 9.43544 32.4993 10.081 32.814C10.5907 33.063 11.3686 33.0618 11.8482 32.6118C12.3784 32.1139 12.2642 31.3301 12.2329 31.1218C12.1223 30.3583 11.603 29.8963 11.4094 29.7432C10.5691 29.0802 9.53523 29.2561 9.18419 29.3159C8.08058 29.5038 7.40736 30.1955 7.22343 30.3894C6.34704 31.3157 5.71829 32.9768 6.41917 34.4991C7.16693 36.1254 8.96058 36.5012 9.49675 36.5802C9.88025 36.6365 10.9827 36.7442 12.1211 36.1171C13.1911 35.5283 13.6659 34.6379 13.8823 34.2178C14.5676 32.8894 14.481 31.5574 14.3969 31.5419V31.5383Z" fill="#F06724"/>
<path d="M57.8275 31.0153C57.759 31.0022 57.6977 31.8758 57.0233 32.8153C56.7335 33.2186 56.4378 33.4854 56.2839 33.6147C56.1433 33.7332 55.654 34.1281 55.0048 34.3627C54.8076 34.4333 52.8601 35.1058 51.7926 34.0383C51.3526 33.5979 50.9823 32.7806 51.29 32.0972C51.4788 31.6783 51.9464 31.2511 52.3876 31.3073C52.8793 31.3696 52.8661 31.9763 53.5117 32.2911C54.0214 32.54 54.7992 32.5388 55.2789 32.0888C55.8091 31.591 55.6948 30.8071 55.6636 30.5989C55.553 29.8353 55.0336 29.3734 54.8401 29.2202C53.9998 28.5572 52.9659 28.7331 52.6149 28.793C51.5113 28.9809 50.838 29.6726 50.6541 29.8665C49.7777 30.7927 49.149 32.4538 49.8498 33.9761C50.5976 35.6025 52.3912 35.9783 52.9274 36.0573C53.3109 36.1135 54.4133 36.2212 55.5518 35.5941C56.6217 35.0053 57.0966 34.1149 57.313 33.6949C57.9982 32.3665 57.9117 31.0345 57.8275 31.0189V31.0153Z" fill="#F06724"/>
<path d="M35.4994 44.3888C35.1039 44.7658 34.8118 44.9765 34.2467 45.2685C33.4341 45.6885 32.5132 45.8561 31.6019 45.789C30.8374 45.7328 30.0944 45.4659 29.4368 45.0806C28.9547 44.7981 28.8778 44.7467 28.5003 44.3876C27.5157 43.453 26.0178 44.9394 27.0048 45.8764C29.789 48.5176 34.2119 48.5284 36.9937 45.8764C37.9783 44.937 36.4816 43.4506 35.4982 44.3876L35.4994 44.3888Z" fill="#F06724"/>
<path d="M41.8949 38.3191C40.3453 41.6999 34.5075 41.6281 32.3411 41.6006C30.0257 41.5719 24.2805 41.5013 22.6864 37.9673C21.3784 35.0675 23.6782 31.6353 24.4476 30.4888C25.116 29.4919 27.9387 25.2805 32.3964 25.4456C36.3673 25.5928 38.7428 29.1077 39.8476 30.7425C40.8887 32.2827 43.1367 35.6085 41.8949 38.3191Z" fill="white" stroke="white" stroke-width="1.23" stroke-miterlimit="10"/>
<path d="M31.1515 34.4587C31.7075 32.654 31.2242 30.9058 30.0721 30.5541C28.92 30.2024 27.5353 31.3802 26.9794 33.1849C26.4234 34.9896 26.9066 36.7378 28.0587 37.0895C29.2108 37.4412 30.5955 36.2634 31.1515 34.4587Z" fill="#F06724"/>
<path d="M36.5841 37.1245C37.6829 36.8221 38.1714 35.1284 37.6753 33.3415C37.1792 31.5545 35.8862 30.351 34.7874 30.6533C33.6886 30.9556 33.2 32.6493 33.6962 34.4363C34.1923 36.2232 35.4853 37.4268 36.5841 37.1245Z" fill="#F06724"/>
<path d="M41.4298 25.4118C41.467 24.1935 42.3675 22.7275 43.7632 22.8663C45.1589 23.0051 45.9692 24.4209 45.9343 25.7038C45.9163 26.3704 46.7194 26.8419 47.2916 26.4793C48.406 25.772 49.2115 24.6291 49.393 23.3139C49.4591 22.8304 49.2752 22.3553 48.7631 22.2093C48.3435 22.0896 47.7196 22.3565 47.6535 22.8364C47.5356 23.6944 47.1245 24.4568 46.3803 24.9283L47.7376 25.7038C47.7989 23.4431 46.164 21.2531 43.8125 21.0783C41.3925 20.8976 39.6938 23.2038 39.6265 25.4118C39.5916 26.5678 41.3949 26.5666 41.4298 25.4118Z" fill="#F06724"/>
<path d="M24.0904 25.3439C24.0231 23.1347 22.3244 20.8298 19.9044 21.0105C17.5529 21.1852 15.918 23.3765 15.9793 25.6359C16.4313 25.3774 16.8833 25.1189 17.3365 24.8604C16.5912 24.3877 16.1824 23.6266 16.0634 22.7685C15.9973 22.2898 15.3794 22.0229 14.9538 22.1414C14.4333 22.2862 14.2577 22.7613 14.3239 23.246C14.5054 24.5612 15.3121 25.7041 16.4253 26.4114C16.9975 26.774 17.7994 26.3025 17.7825 25.6359C17.7477 24.353 18.5543 22.9384 19.9537 22.7984C21.353 22.6584 22.2499 24.1244 22.2871 25.3439C22.322 26.4964 24.1265 26.5012 24.0904 25.3439Z" fill="#F06724"/>
<path d="M30.0099 4.18989C29.1143 5.35313 28.6382 6.51638 29.0878 8.00155C29.2573 8.56163 29.6877 8.81773 29.7983 9.3467C29.3884 9.67221 28.964 9.98457 28.5276 10.2802C28.3978 10.3675 27.8303 10.7505 27.1872 11.1143C26.0607 11.7522 24.772 12.481 23.0961 12.7335C21.9625 12.9034 21.3938 12.9812 20.8132 12.7132C18.5892 11.6887 18.9654 7.00226 19.0484 5.96707C19.1566 4.61593 19.4631 0.805471 21.5621 0.0957967C22.1152 -0.0908968 22.6549 0.00604023 23.6179 0.293261C25.8924 0.97182 28.2415 2.65445 30.0087 4.18989H30.0099Z" fill="#F58030"/>
<path d="M33.918 4.18989C34.8136 5.35313 35.2897 6.51638 34.84 8.00155C34.6705 8.56163 34.2402 8.81773 34.1296 9.3467C34.5395 9.67221 34.9639 9.98457 35.4003 10.2802C35.5301 10.3675 36.0975 10.7505 36.7407 11.1143C37.8671 11.7522 39.1559 12.481 40.8317 12.7335C41.9654 12.9034 42.534 12.9812 43.1147 12.7132C45.3387 11.6887 44.9624 7.00226 44.8795 5.96707C44.7713 4.61593 44.4647 0.805471 42.3657 0.0957967C41.8127 -0.0908968 41.2729 0.00604023 40.31 0.293261C38.0354 0.97182 35.6864 2.65445 33.9192 4.18989H33.918Z" fill="#F58030"/>
<path d="M31.9296 10.0945C33.8146 10.0945 35.3426 8.57333 35.3426 6.6969C35.3426 4.82047 33.8146 3.29932 31.9296 3.29932C30.0447 3.29932 28.5166 4.82047 28.5166 6.6969C28.5166 8.57333 30.0447 10.0945 31.9296 10.0945Z" fill="#F36C26"/>
</svg>
