<svg width="64" height="96" viewBox="0 0 64 96" fill="none" xmlns="http://www.w3.org/2000/svg">
<path d="M17.0731 13.3001C17.0625 14.5175 16.8512 15.1908 16.4954 16.3122C16.4109 16.5742 16.3405 16.7377 16.2078 16.8539C16.0258 17.0104 15.7675 17.0412 15.6102 17.059C15.0302 17.1265 13.0966 17.0317 9.41016 16.279C11.6314 13.7351 14.1779 11.8385 16.7021 10.4243C17.0836 11.6299 17.0778 12.6671 17.0719 13.3001H17.0731Z" fill="#FFEFCD"/>
<path d="M55.7923 16.2718C55.7735 16.2754 55.7524 16.2789 55.7336 16.2801L55.6256 16.2979C51.4648 17.1929 49.314 17.3055 48.6965 17.232C48.5438 17.213 48.2832 17.1834 48.1047 17.0293C47.9686 16.9108 47.8981 16.746 47.8124 16.4745C47.4602 15.3614 47.2465 14.6905 47.2371 13.4719C47.2301 12.801 47.2219 11.6772 47.6797 10.3792C47.7244 10.2536 47.7795 10.0983 47.8453 9.92285C50.8226 11.4816 53.5616 13.5727 55.7935 16.2706L55.7923 16.2718Z" fill="#FFEFCD"/>
<path d="M58.2916 44.3217C50.9163 57.1974 34.3425 56.7209 31.4779 56.6391C30.3731 56.6059 9.24644 55.6955 3.85881 40.6031C0.552738 31.3487 5.26295 22.6265 6.15991 20.967C6.87607 19.6417 7.67558 18.4338 8.53497 17.3361C11.8563 18.045 14.0482 18.2939 15.1964 18.2939C15.4218 18.2939 15.6062 18.2832 15.7506 18.2666C15.983 18.2406 16.5278 18.1766 16.9915 17.7783C17.4118 17.4132 17.5609 16.9378 17.6455 16.6735C18.0071 15.5355 18.2689 14.7116 18.2783 13.3105C18.283 12.5673 18.2935 11.3262 17.7805 9.84796C23.4816 6.94256 28.8175 6.40676 29.7509 6.32852C34.9695 5.88518 41.2059 6.75408 46.7602 9.38447C46.671 9.61325 46.5982 9.81714 46.543 9.97361C46.0147 11.4743 46.0253 12.732 46.0323 13.4836C46.0429 14.8871 46.3024 15.7086 46.6675 16.856C46.7485 17.1133 46.9 17.5886 47.3191 17.9537C47.7805 18.352 48.3252 18.4136 48.5565 18.4421C48.7009 18.4599 48.8864 18.4682 49.1118 18.4682C50.2718 18.4682 52.4942 18.2157 55.866 17.4914L55.893 17.4878C56.1443 17.457 56.3908 17.412 56.6327 17.3539C57.5202 18.563 58.3104 19.8823 58.9819 21.3167C59.2813 21.9592 64.467 33.5393 58.2916 44.3228V44.3217Z" fill="#FFEFCD"/>
<path d="M59.4402 13.5038C59.3545 14.0847 59.0199 14.6418 58.4693 15.1231C57.7813 15.7276 56.8315 16.1342 55.7913 16.2717C55.7725 16.2753 55.7514 16.2788 55.7326 16.28L55.6246 16.2978C51.4638 17.1928 49.313 17.3054 48.6955 17.2319C48.5429 17.2129 48.2822 17.1833 48.1038 17.0292C47.9676 16.9107 47.8971 16.7459 47.8114 16.4744C47.4592 15.3613 47.2456 14.6904 47.2362 13.4718C47.2291 12.8009 47.2209 11.6771 47.6788 10.3791C47.7234 10.2535 47.7786 10.0982 47.8443 9.92275C47.8748 9.83977 47.9101 9.75087 47.9476 9.66078C48.4172 8.51805 49.0277 7.68235 49.8167 7.1098C50.001 6.97585 50.1982 6.85494 50.4037 6.75063C50.7853 6.55385 51.5319 6.17334 52.3984 6.17334C52.7529 6.17334 53.1274 6.23735 53.5067 6.40568C54.5973 6.88695 55.0669 7.93958 55.2184 8.37106L55.4133 8.92346L55.9639 9.11312C56.8409 9.41658 57.6193 9.93105 58.2098 10.602C59.1526 11.6759 59.567 12.6515 59.4414 13.5038H59.4402Z" fill="#FFEFCD"/>
<path d="M17.0727 13.2997C17.0621 14.5171 16.8508 15.1904 16.4951 16.3118C16.4106 16.5737 16.3401 16.7373 16.2074 16.8535C16.0255 17.01 15.7672 17.0408 15.6099 17.0586C15.0299 17.1261 13.0963 17.0313 9.40981 16.2786C9.17383 16.23 8.93198 16.179 8.68191 16.1257L8.5739 16.1067C7.51258 15.9787 6.54048 15.5661 5.83606 14.9474C5.56134 14.7079 5.34062 14.4483 5.1786 14.178C5.01541 13.9054 4.90975 13.6209 4.86866 13.3317C4.74304 12.4782 5.1563 11.5026 6.09904 10.4298C6.68958 9.75771 7.46679 9.24324 8.34496 8.9386L8.89558 8.74893L9.09047 8.19654C9.24192 7.76624 9.71153 6.71242 10.8022 6.23115C11.1802 6.06401 11.5559 6 11.9117 6C12.7758 6 13.5224 6.38051 13.904 6.57492C14.1083 6.67923 14.3067 6.80133 14.491 6.93409C15.2788 7.50782 15.8905 8.34116 16.3601 9.48269C16.4646 9.74348 16.5479 9.97226 16.6289 10.2034C16.6548 10.2769 16.6794 10.3492 16.7029 10.4203C17.0844 11.6259 17.0786 12.6631 17.0727 13.2961V13.2997Z" fill="#FFEFCD"/>
<mask id="mask0_4006_45570" style="mask-type:luminance" maskUnits="userSpaceOnUse" x="2" y="51" width="30" height="45">
<path d="M32 51.8652H2V95.9999H32V51.8652Z" fill="white"/>
</mask>
<g mask="url(#mask0_4006_45570)">
<path d="M13.8699 51.8652C9.88638 54.5312 7.29764 57.3833 5.73618 59.3889C3.74385 61.947 2.68135 64.0796 2.2587 66.4729C2.07673 67.5077 1.55781 70.4522 2.84807 71.1587C3.91878 71.7455 5.62817 70.4594 5.92168 70.2341C5.91346 70.668 5.91111 72.375 6.63549 72.6322C7.16967 72.8218 7.85296 72.1331 8.18756 71.8012C9.36746 70.6336 11.152 69.0321 14.0706 66.7076C13.1631 70.0302 12.751 72.8894 12.5491 75.0136C12.063 80.1334 12.5538 83.5793 13.2793 88.6659C13.9908 93.6528 14.6236 94.9544 15.6697 95.3112C16.927 95.7403 18.4192 94.6545 19.3326 93.8377C19.4371 94.0819 20.2202 95.847 21.615 95.9774C22.5518 96.0651 23.2668 95.3752 23.9665 94.6841C24.8788 93.7832 25.5773 92.682 26.8535 89.2633C27.1963 88.3458 27.6389 87.1047 28.1109 85.6099C28.6944 85.7415 29.4622 85.8825 30.3697 85.962C32.2669 86.1303 33.7427 85.9418 33.9247 85.9074C36.1189 85.4842 36.7459 71.2749 35.2126 52.0371" fill="#FFEFCD"/>
<path d="M19.5238 92.2742C21.468 92.4461 22.9673 92.2114 23.4146 92.1344C24.4278 91.9613 25.2672 91.7064 25.8906 91.4812C25.7521 91.9115 25.549 92.4283 25.2449 92.9831C24.9408 93.5379 24.6144 93.9859 24.3268 94.3321C24.3268 94.3321 23.8325 94.9094 23.1481 95.4546C23.0577 95.5269 22.6843 95.8197 22.2171 95.9407C21.9529 96.0094 21.7404 95.9999 21.6935 95.9999C21.6935 95.9999 21.5056 95.9916 21.3119 95.9383C20.9104 95.8292 20.3985 95.4701 19.9665 94.9568C19.7727 94.7268 19.5156 94.37 19.3043 93.8733C18.7772 94.3534 18.2864 94.6747 17.9248 94.8821C17.4916 95.131 17.2004 95.2934 16.7684 95.3681C16.4948 95.4155 15.9642 95.5068 15.4523 95.2508C14.87 94.9591 14.6293 94.3747 14.3546 93.7074C14.1538 93.2202 14.0599 92.8314 13.9355 92.2659C13.784 91.5796 13.7065 91.0011 13.6631 90.5957C15.0367 91.2785 17.049 92.0537 19.5238 92.273V92.2742Z" fill="#FED9B9"/>
</g>
<mask id="mask1_4006_45570" style="mask-type:luminance" maskUnits="userSpaceOnUse" x="32" y="51" width="30" height="45">
<path d="M62 51.8652H32V95.9999H62V51.8652Z" fill="white"/>
</mask>
<g mask="url(#mask1_4006_45570)">
<path d="M50.1319 51.8652C54.1154 54.5312 56.7041 57.3833 58.2656 59.3889C60.2579 61.947 61.3204 64.0796 61.7431 66.4729C61.9251 67.5077 62.444 70.4522 61.1537 71.1587C60.083 71.7455 58.3736 70.4594 58.0801 70.2341C58.0883 70.668 58.0907 72.375 57.3663 72.6322C56.8321 72.8218 56.1488 72.1331 55.8142 71.8012C54.6343 70.6336 52.8498 69.0321 49.9312 66.7076C50.8387 70.0302 51.2508 72.8894 51.4527 75.0136C51.9388 80.1334 51.448 83.5793 50.7225 88.6659C50.011 93.6528 49.3782 94.9544 48.3321 95.3112C47.0747 95.7403 45.5825 94.6545 44.6692 93.8377C44.5647 94.0819 43.7816 95.847 42.3868 95.9774C41.45 96.0651 40.735 95.3752 40.0353 94.6841C39.123 93.7832 38.4245 92.682 37.1483 89.2633C36.8055 88.3458 36.3629 87.1047 35.8909 85.6099C35.3074 85.7415 34.5396 85.8825 33.6321 85.962C31.7349 86.1303 30.2591 85.9418 30.0771 85.9074C27.8829 85.4842 27.2559 71.2749 28.7892 52.0371" fill="#FFEFCD"/>
<path d="M44.4781 92.2742C42.5339 92.4461 41.0347 92.2114 40.5874 92.1344C39.5742 91.9613 38.7347 91.7064 38.1113 91.4812C38.2499 91.9115 38.453 92.4283 38.757 92.9831C39.0611 93.5379 39.3875 93.9859 39.6751 94.3321C39.6751 94.3321 40.1694 94.9094 40.8539 95.4546C40.9443 95.5269 41.3176 95.8197 41.7849 95.9407C42.049 96.0094 42.2615 95.9999 42.3085 95.9999C42.3085 95.9999 42.4963 95.9916 42.69 95.9383C43.0916 95.8292 43.6034 95.4701 44.0355 94.9568C44.2292 94.7268 44.4863 94.37 44.6976 93.8733C45.2248 94.3534 45.7155 94.6747 46.0771 94.8821C46.5103 95.131 46.8015 95.2934 47.2335 95.3681C47.5071 95.4155 48.0378 95.5068 48.5496 95.2508C49.132 94.9591 49.3726 94.3747 49.6474 93.7074C49.8481 93.2202 49.942 92.8314 50.0665 92.2659C50.2179 91.5796 50.2954 91.0011 50.3389 90.5957C48.9652 91.2785 46.953 92.0537 44.4781 92.273V92.2742Z" fill="#FED9B9"/>
</g>
<path d="M59.1426 78.2406C58.9653 78.8085 58.5438 79.3324 58.0085 79.656C57.4731 79.9796 56.8039 80.097 56.2474 79.9808C55.8905 79.9061 55.7074 79.835 55.4045 79.6608C55.1556 79.5173 54.9384 79.349 54.7787 79.1356C54.8139 79.1819 54.7541 79.0977 54.7541 79.0977C54.7318 79.0621 54.7083 79.0277 54.6871 78.9922C54.666 78.9566 54.6461 78.9199 54.6284 78.8831C54.6343 78.895 54.659 78.9602 54.6331 78.8926C54.6073 78.825 54.5874 78.7587 54.5697 78.6899C54.5651 78.6686 54.5545 78.5726 54.5651 78.6745C54.5604 78.6342 54.558 78.5927 54.558 78.5524C54.558 78.5121 54.558 78.4694 54.5615 78.4279C54.5604 78.4422 54.5498 78.5157 54.5639 78.441C54.578 78.3663 54.5956 78.294 54.6191 78.2229C54.5862 78.3213 54.6601 78.134 54.6742 78.1067C54.7024 78.0522 54.7764 77.9265 54.7881 77.9099C55.1004 77.4571 55.7344 77.0861 56.2322 77.1999C56.4541 77.2508 56.6771 77.3966 56.8074 77.5662C57.0176 77.84 57.0845 78.019 57.1644 78.3331C57.1726 78.3663 57.209 78.5358 57.1996 78.4848C57.1878 78.4173 57.2019 78.5085 57.2031 78.5157C57.2066 78.5512 57.2113 78.5868 57.2137 78.6235C57.2195 78.7041 57.2195 78.7847 57.2184 78.8654C57.216 78.991 57.2242 78.9151 57.1984 79.0384C57.1233 79.3976 57.0517 79.579 56.8544 79.8966C56.5163 80.4407 55.9469 80.9125 55.327 81.1935C54.558 81.542 53.6646 81.5372 52.8545 81.2338C52.8686 81.2397 52.9132 81.2575 52.8451 81.2302C52.7911 81.2089 52.7383 81.1852 52.6866 81.1603C52.6079 81.1235 52.5293 81.0844 52.453 81.0441C52.3203 80.973 52.1912 80.8959 52.0655 80.813C52.0151 80.7798 51.9657 80.743 51.9153 80.7086C51.8366 80.6553 52.0233 80.7987 51.8918 80.6897C51.853 80.6577 51.8143 80.6268 51.7779 80.5937C51.1733 80.0436 50.2939 80.9611 50.8986 81.5123C52.1254 82.629 54.0015 83.0688 55.5571 82.4725C57.2935 81.8063 58.8197 80.0626 58.4053 78.0877C58.2292 77.2508 57.7009 76.414 56.8955 76.082C55.9258 75.6826 54.8656 76.0382 54.1307 76.7411C53.4802 77.3646 53.0869 78.3426 53.4098 79.2293C53.7115 80.0579 54.4324 80.6624 55.2272 80.9884C56.2545 81.4092 57.3393 81.3902 58.3454 80.9173C59.3257 80.4562 60.0489 79.5766 60.3706 78.5429C60.4728 78.2134 60.2227 77.8495 59.9057 77.7712C59.5547 77.6847 59.2447 77.9099 59.1414 78.2406H59.1426Z" fill="#FFEFCD"/>
<path d="M44.0209 69.5503C44.035 72.2328 43.5102 74.5491 42.3879 76.6994C41.2702 78.8426 39.6418 80.3635 37.5861 81.3343C34.5935 82.7485 31.4882 83.0353 28.357 82.0669C24.3818 80.8364 21.7038 78.0697 20.5098 73.6802C20.1869 72.4936 19.978 71.2964 19.9756 70.0576C19.9721 68.4111 20.2738 66.8286 20.8444 65.3101C21.4713 63.6411 22.2861 62.0953 23.3838 60.7357C25.2846 58.3815 27.6233 56.8974 30.4879 56.4552C32.7913 56.0996 35.0138 56.326 37.1129 57.5161C39.8473 59.0654 41.8044 61.3876 42.996 64.4886C43.6453 66.1778 44.0726 67.9144 44.0198 69.5515L44.0209 69.5503Z" fill="white" stroke="white" stroke-width="1.56" stroke-miterlimit="10"/>
<path d="M14.8085 32.1499C14.7415 32.1368 14.6817 33.0022 14.023 33.9327C13.7401 34.3322 13.4513 34.5965 13.301 34.7245C13.1636 34.8419 12.6858 35.2331 12.0518 35.4654C11.8593 35.5354 9.95736 36.2016 8.91482 35.1442C8.48513 34.708 8.12352 33.8983 8.42408 33.2215C8.6084 32.8066 9.0651 32.3834 9.49597 32.4391C9.97614 32.5007 9.96323 33.1017 10.5937 33.4135C11.0915 33.6601 11.8511 33.6589 12.3195 33.2132C12.8373 32.72 12.7257 31.9436 12.6952 31.7374C12.5872 30.9811 12.08 30.5235 11.891 30.3718C11.0703 29.7151 10.0607 29.8893 9.71786 29.9486C8.6401 30.1347 7.98264 30.8199 7.80301 31.0119C6.94714 31.9294 6.33313 33.5747 7.01759 35.0825C7.74783 36.6935 9.49949 37.0657 10.0231 37.1439C10.3976 37.1997 11.4742 37.3063 12.586 36.6852C13.6309 36.102 14.0946 35.22 14.306 34.804C14.9752 33.4882 14.8906 32.1688 14.8085 32.1534V32.1499Z" fill="#F06724"/>
<path d="M57.2215 31.6318C57.1546 31.6188 57.0947 32.4841 56.4361 33.4146C56.1532 33.8141 55.8644 34.0785 55.7141 34.2065C55.5767 34.3238 55.0989 34.715 54.4649 34.9474C54.2724 35.0173 52.3704 35.6835 51.3279 34.6261C50.8982 34.1899 50.5366 33.3803 50.8372 32.7034C51.0215 32.2885 51.4782 31.8653 51.909 31.921C52.3892 31.9827 52.3763 32.5837 53.0068 32.8954C53.5046 33.142 54.2642 33.1408 54.7326 32.6951C55.2503 32.202 55.1388 31.4255 55.1083 31.2193C55.0003 30.463 54.4931 30.0054 54.3041 29.8537C53.4834 29.197 52.4738 29.3713 52.1309 29.4305C51.0532 29.6166 50.3957 30.3018 50.2161 30.4938C49.3602 31.4113 48.7462 33.0566 49.4307 34.5645C50.1609 36.1754 51.9126 36.5476 52.4362 36.6259C52.8107 36.6816 53.8873 36.7883 54.9991 36.1671C56.044 35.5839 56.5077 34.702 56.7191 34.2859C57.3883 32.9701 57.3037 31.6508 57.2215 31.6354V31.6318Z" fill="#F06724"/>
<path d="M35.417 44.8787C35.0307 45.2521 34.7454 45.4607 34.1936 45.7499C33.4 46.166 32.5007 46.332 31.6107 46.2656C30.8641 46.2099 30.1385 45.9455 29.4963 45.5638C29.0255 45.2841 28.9504 45.2331 28.5817 44.8775C27.6202 43.9517 26.1574 45.424 27.1212 46.3521C29.8403 48.9683 34.1596 48.979 36.8763 46.3521C37.8378 45.4216 36.3761 43.9493 35.4158 44.8775L35.417 44.8787Z" fill="#F06724"/>
<path d="M41.6634 38.8663C40.15 42.2151 34.449 42.144 32.3334 42.1167C30.0722 42.0882 24.4615 42.0183 22.9047 38.5178C21.6274 35.6456 23.8733 32.2459 24.6247 31.1103C25.2774 30.1229 28.034 25.9514 32.3874 26.115C36.2652 26.2608 38.5851 29.7423 39.664 31.3616C40.6807 32.8872 42.8761 36.1814 41.6634 38.8663Z" fill="white" stroke="white" stroke-width="1.23" stroke-miterlimit="10"/>
<path d="M31.1777 35.0445C31.7206 33.2569 31.2487 31.5254 30.1236 31.177C28.9985 30.8286 27.6462 31.9953 27.1032 33.7828C26.5603 35.5704 27.0322 37.302 28.1573 37.6504C29.2825 37.9988 30.6347 36.8321 31.1777 35.0445Z" fill="#F06724"/>
<path d="M36.4759 37.6786C37.5489 37.3791 38.0261 35.7015 37.5415 33.9315C37.057 32.1615 35.7944 30.9694 34.7213 31.2688C33.6482 31.5683 33.1711 33.2459 33.6556 35.0159C34.1401 36.7859 35.4028 37.978 36.4759 37.6786Z" fill="#F06724"/>
<path d="M16.1663 26.4398C16.5901 25.0529 17.8158 24.0014 19.2857 23.9943C20.7709 23.9884 22.0329 25.0339 22.4697 26.4398C22.8665 27.7153 24.86 27.1712 24.4608 25.885C23.7506 23.6032 21.703 21.8997 19.2857 21.9092C16.8872 21.9187 14.8702 23.615 14.1752 25.885C13.7819 27.17 15.7742 27.7188 16.1663 26.4398Z" fill="#F06724"/>
<path d="M41.5286 26.2811C41.9524 24.8942 43.1781 23.8428 44.648 23.8356C46.1332 23.8297 47.3953 24.8752 47.832 26.2811C48.2288 27.5566 50.2223 27.0125 49.8231 25.7263C49.1129 23.4445 47.0653 21.741 44.648 21.7505C42.2495 21.76 40.2325 23.4563 39.5375 25.7263C39.1442 27.0113 41.1365 27.5602 41.5286 26.2811Z" fill="#F06724"/>
</svg>
