<svg width="2000" height="2000" viewBox="0 0 2000 2000" fill="none" xmlns="http://www.w3.org/2000/svg">
<path d="M893.01 494.593L997.674 271.447L1109.22 498.292L1027.27 549.237L912.457 536.725L893.01 494.593Z" fill="#F4BDBD" stroke="black" stroke-width="3" stroke-miterlimit="10"/>
<path d="M1126.79 517.741C1126.79 524.84 1122.36 530.933 1116.07 533.299C1115.42 533.626 1114.71 533.952 1114.01 534.197C1114.01 534.197 1113.98 534.224 1113.95 534.224C1113.16 534.659 1112.32 535.013 1111.45 535.285C1110.74 535.666 1110.01 535.965 1109.25 536.21C1108.4 536.672 1107.48 537.053 1106.55 537.325C1106.55 537.325 1106.54 537.334 1106.5 537.352C1105.68 537.787 1104.81 538.114 1103.92 538.359C1103.1 538.794 1102.23 539.147 1101.3 539.392C1100.38 539.855 1099.4 540.235 1098.37 540.48C1097.47 540.943 1096.54 541.269 1095.57 541.487C1094.59 541.976 1093.55 542.357 1092.46 542.602C1091.51 543.037 1090.51 543.391 1089.45 543.608C1088.41 544.098 1087.3 544.479 1086.13 544.696C1085.07 545.159 1083.95 545.512 1082.78 545.757C1081.72 546.219 1080.58 546.546 1079.41 546.763C1078.27 547.226 1077.07 547.579 1075.82 547.742C1074.73 548.205 1073.59 548.504 1072.42 548.64C1071.14 549.184 1069.81 549.51 1068.37 549.701C1067.2 550.163 1065.95 550.462 1064.64 550.626C1063.39 551.088 1062.03 551.387 1060.64 551.523C1059.36 551.986 1058.03 552.258 1056.64 552.366C1055.42 552.774 1054.11 553.046 1052.75 553.128C1051.39 553.563 1049.95 553.835 1048.46 553.89C1047.12 554.298 1045.71 554.542 1044.24 554.57C1042.85 555.005 1041.36 555.222 1039.83 555.25C1038.45 555.63 1036.98 555.821 1035.48 555.821H1035.29C1034.01 556.174 1032.65 556.338 1031.27 556.338C1031.16 556.338 1031.05 556.338 1030.94 556.31C1029.69 556.637 1028.36 556.8 1027 556.8C1026.78 556.8 1026.53 556.8 1026.32 556.773C1025.15 557.072 1023.92 557.208 1022.64 557.208C1022.32 557.208 1021.96 557.208 1021.64 557.154C1020.55 557.398 1019.38 557.534 1018.21 557.534C1017.77 557.534 1017.37 557.507 1016.93 557.48C1015.9 557.698 1014.81 557.806 1013.69 557.806C1013.12 557.806 1012.55 557.779 1011.98 557.725C1011.06 557.915 1010.1 557.997 1009.13 557.997C1008.42 557.997 1007.74 557.942 1007.06 557.861C1006.21 557.997 1005.34 558.078 1004.47 558.078C1003.71 558.078 1002.95 558.024 1002.22 557.915C1001.4 558.051 1000.58 558.106 999.741 558.106C998.898 558.106 998 558.051 997.157 557.888C996.45 557.997 995.716 558.051 994.954 558.051C993.975 558.051 993.023 557.97 992.098 557.779C991.473 557.861 990.847 557.888 990.194 557.888C989.133 557.888 988.1 557.779 987.093 557.589C986.577 557.643 986.087 557.67 985.57 557.67C984.401 557.67 983.231 557.534 982.116 557.29C981.735 557.344 981.382 557.344 981.001 557.344C979.722 557.344 978.498 557.208 977.302 556.936C977.03 556.963 976.785 556.963 976.513 556.963C975.18 556.963 973.874 556.8 972.623 556.501C972.433 556.528 972.27 556.528 972.079 556.528C970.665 556.528 969.305 556.365 968.027 556.011H967.755C966.286 556.011 964.844 555.821 963.484 555.413C963.457 555.44 963.43 555.413 963.43 555.413C961.907 555.413 960.411 555.195 959.023 554.76C957.391 554.76 955.841 554.488 954.345 554.053C954.345 554.026 954.318 554.026 954.291 554.026C952.849 553.971 951.462 553.726 950.129 553.291C948.688 553.21 947.3 552.938 945.995 552.502C944.553 552.394 943.139 552.094 941.833 551.632C940.473 551.523 939.168 551.224 937.944 550.762H937.916C936.529 550.598 935.197 550.299 933.945 549.81C932.531 549.646 931.198 549.293 929.92 548.776C928.587 548.613 927.309 548.259 926.112 547.77C924.833 547.579 923.637 547.226 922.494 546.736C921.325 546.518 920.21 546.165 919.122 545.73C917.816 545.485 916.565 545.131 915.395 544.56C914.253 544.343 913.165 543.989 912.131 543.499C910.934 543.227 909.792 542.847 908.704 542.303C907.67 542.085 906.664 541.731 905.739 541.269C904.597 540.997 903.509 540.616 902.503 540.099C901.442 539.827 900.435 539.419 899.483 538.93C898.531 538.685 897.634 538.304 896.736 537.869C895.784 537.597 894.887 537.216 894.043 536.754C893.989 536.781 893.935 536.754 893.88 536.699C892.955 536.427 892.085 536.047 891.242 535.584C890.317 535.312 889.447 534.931 888.604 534.469H888.576C887.76 534.197 886.999 533.843 886.237 533.435C886.237 533.435 886.21 533.408 886.183 533.408C885.394 533.136 884.632 532.783 883.898 532.347C877.615 529.981 873.127 523.888 873.127 516.789C873.127 512.41 874.841 508.412 877.615 505.447C876.418 502.101 876.527 497.967 878.73 494.186C880.335 491.466 883.028 489.454 886.074 488.61C894.751 486.19 902.666 492.609 902.747 500.905C906.311 496.036 912.43 493.207 919.149 494.35C926.683 495.655 932.422 502.292 932.803 509.935C932.885 511.676 932.694 513.335 932.259 514.94C934.979 509.445 940.636 505.665 947.192 505.665C956.303 505.665 963.729 513.009 963.865 522.093C964.028 510.588 975.887 501.857 988.1 507.351C993.431 509.745 996.858 515.103 997.157 520.924C997.239 522.229 997.239 523.562 996.994 524.84C997.185 524.84 997.402 524.868 997.593 524.949C997.701 524.949 997.837 524.895 997.946 524.895C997.783 524.079 997.729 523.208 997.729 522.338C997.729 513.145 1005.18 505.665 1014.4 505.665C1023.62 505.665 1031.05 513.145 1031.05 522.338C1031.05 522.556 1031.05 522.8 1031.02 523.018H1031.46C1032.22 522.8 1033.03 522.664 1033.85 522.583V522.338C1033.85 515.266 1038.23 508.711 1044.97 506.562C1054.22 503.597 1062.82 508.412 1065.92 516.055C1066.22 515.973 1066.54 515.919 1066.87 515.864C1067.28 515.701 1067.71 515.538 1068.15 515.402C1068.12 514.94 1068.09 514.477 1068.09 514.015C1068.09 504.794 1075.55 497.342 1084.77 497.342C1086.97 497.342 1089.09 497.777 1091 498.566C1094.7 490.705 1104.32 486.271 1114.14 490.895C1119.96 493.67 1123.28 500.034 1122.74 506.453C1122.74 506.535 1122.74 506.617 1122.71 506.725C1125.29 509.663 1126.87 513.498 1126.87 517.714L1126.79 517.741Z" fill="white" stroke="black" stroke-linecap="round" stroke-linejoin="round"/>
<path d="M1037.2 276.073C1037.58 279.147 1037.11 282.356 1035.67 285.348C1034.23 288.34 1032.03 290.734 1029.39 292.366C1028.33 295.222 1026.42 297.833 1023.81 299.818C1020.63 302.212 1016.88 303.327 1013.18 303.191C1010.49 305.721 1006.92 307.407 1002.92 307.706C999.633 307.951 996.478 307.244 993.758 305.775C990.712 306.292 987.529 305.966 984.483 304.687C981.464 303.409 979.016 301.342 977.248 298.812C974.31 297.86 971.59 296.119 969.469 293.563C967.375 291.006 966.123 288.041 965.743 284.995C963.567 282.819 961.935 280.017 961.227 276.78C960.52 273.544 960.765 270.334 961.826 267.424C960.901 264.486 960.765 261.277 961.608 258.094C962.451 254.912 964.138 252.192 966.395 250.098C966.885 247.051 968.272 244.114 970.475 241.638C972.678 239.19 975.453 237.559 978.418 236.743C980.267 234.267 982.824 232.282 985.925 231.112C988.998 229.943 992.208 229.752 995.2 230.378C998.001 229.018 1001.18 228.419 1004.47 228.8C1007.77 229.181 1010.7 230.487 1013.1 232.418C1016.2 232.472 1019.27 233.397 1022.02 235.247C1024.77 237.096 1026.81 239.626 1028.03 242.454C1030.72 243.923 1033.03 246.154 1034.64 249.037C1036.24 251.947 1036.9 255.102 1036.71 258.203C1038.42 260.76 1039.45 263.779 1039.56 267.07C1039.64 270.361 1038.8 273.435 1037.2 276.073Z" fill="white" stroke="black" stroke-linecap="round" stroke-linejoin="round"/>
<mask id="mask0_2620_22563" style="mask-type:luminance" maskUnits="userSpaceOnUse" x="1309" y="1189" width="126" height="118">
<path d="M1430.07 1189.45L1434.27 1210.38C1435.26 1215.32 1433.54 1220.43 1429.76 1223.77L1339.57 1303.28C1335.17 1307.15 1328.84 1307.91 1323.65 1305.18L1309.33 1297.64L1346.06 1241.19L1430.04 1189.42L1430.07 1189.45Z" fill="white"/>
</mask>
<g mask="url(#mask0_2620_22563)">
<path d="M1430.07 1189.45L1434.27 1210.38C1435.26 1215.32 1433.54 1220.43 1429.76 1223.77L1339.57 1303.28C1335.17 1307.15 1328.84 1307.91 1323.65 1305.18L1309.33 1297.64L1346.06 1241.19L1430.04 1189.42L1430.07 1189.45Z" fill="#F4BDBD" stroke="black" stroke-width="3" stroke-miterlimit="10"/>
<path d="M1433.26 1244.02L1409.13 1194.36" stroke="#C4A5A3" stroke-width="3" stroke-miterlimit="10"/>
<path d="M1409.14 1257.79L1376.38 1219.19" stroke="#C4A5A3" stroke-width="3" stroke-miterlimit="10"/>
<path d="M1388.02 1277.3L1343.22 1234.96" stroke="#C4A5A3" stroke-width="3" stroke-miterlimit="10"/>
<path d="M1371.65 1304.34L1320.79 1269.76" stroke="#C4A5A3" stroke-width="3" stroke-miterlimit="10"/>
</g>
<path d="M1430.07 1189.45L1434.27 1210.38C1435.26 1215.32 1433.54 1220.43 1429.76 1223.77L1339.57 1303.28C1335.17 1307.15 1328.84 1307.91 1323.65 1305.18L1309.33 1297.64L1346.06 1241.19L1430.04 1189.42L1430.07 1189.45Z" stroke="black" stroke-width="3" stroke-miterlimit="10"/>
<mask id="mask1_2620_22563" style="mask-type:luminance" maskUnits="userSpaceOnUse" x="558" y="1189" width="126" height="118">
<path d="M562.902 1189.45L558.7 1210.38C557.713 1215.32 559.434 1220.43 563.205 1223.77L653.395 1303.28C657.799 1307.15 664.128 1307.91 669.317 1305.18L683.644 1297.63L646.915 1241.19L562.902 1189.45Z" fill="white"/>
</mask>
<g mask="url(#mask1_2620_22563)">
<path d="M562.902 1189.45L558.7 1210.38C557.713 1215.32 559.434 1220.43 563.205 1223.77L653.395 1303.28C657.799 1307.15 664.128 1307.91 669.317 1305.18L683.644 1297.63L646.915 1241.19L562.902 1189.45Z" fill="#F4BDBD" stroke="black" stroke-width="0.25" stroke-miterlimit="10"/>
<path d="M567.408 1244.02L591.557 1194.36" stroke="#C4A5A3" stroke-width="3" stroke-miterlimit="10"/>
<path d="M591.557 1257.79L624.286 1219.19" stroke="#C4A5A3" stroke-width="3" stroke-miterlimit="10"/>
<path d="M612.668 1277.3L657.472 1234.96" stroke="#C4A5A3" stroke-width="3" stroke-miterlimit="10"/>
<path d="M629.02 1304.34L679.873 1269.76" stroke="#C4A5A3" stroke-width="3" stroke-miterlimit="10"/>
</g>
<path d="M562.902 1189.45L558.7 1210.38C557.713 1215.32 559.434 1220.43 563.205 1223.77L653.395 1303.28C657.799 1307.15 664.128 1307.91 669.317 1305.18L683.644 1297.63L646.915 1241.19L562.902 1189.45Z" stroke="black" stroke-width="3" stroke-miterlimit="10"/>
<path d="M1430.93 1194.38C1425.28 1205.37 1415.39 1210.25 1408.22 1213.98C1394.91 1220.89 1377.11 1232.91 1358.13 1255.34C1339.19 1281.41 1320.61 1297.08 1312.24 1297.66C1307.07 1298.01 1302.54 1296.7 1302.54 1296.7C1296.74 1294.98 1293.18 1291.69 1292.32 1290.88C1290.29 1288.9 1288.85 1286.8 1287.25 1283.76C1281.86 1273.51 1283.2 1269.01 1278.95 1260.83C1275.94 1255.01 1271.05 1249.16 1269.53 1249.84C1267.53 1250.73 1273.63 1264.4 1276.22 1284.42C1277.41 1293.69 1277.48 1301.41 1277.33 1306.49C1222.91 1330.29 1124.97 1364.84 998.358 1364.92C871.287 1364.99 773.023 1330.31 718.55 1306.49C718.398 1301.41 718.474 1293.69 719.664 1284.42C722.246 1264.4 728.346 1250.73 726.346 1249.84C724.828 1249.16 719.942 1255.01 716.93 1260.83C712.677 1269.01 714.019 1273.51 708.627 1283.76C707.033 1286.8 705.59 1288.9 703.565 1290.88C702.704 1291.69 699.135 1294.98 693.338 1296.7C693.338 1296.7 688.807 1298.01 683.644 1297.66C675.265 1297.08 656.686 1281.41 637.752 1255.34C618.767 1232.91 600.972 1220.89 587.658 1213.98C580.494 1210.25 570.597 1205.37 564.952 1194.38C557.915 1180.66 562.243 1166.26 562.8 1164.54C567.686 1149.1 581.102 1140.77 586.898 1137C603.655 1126.09 627.297 1103.99 672.228 1057.47C697.996 1030.74 714.525 1008.16 744.597 1005.12C749.027 1004.66 752.722 1004.74 755.178 1004.87C802.006 1025.65 887.285 1056.28 997.851 1056.3C1108.52 1056.3 1193.87 1025.65 1240.7 1004.87C1243.16 1004.74 1246.85 1004.66 1251.28 1005.12C1281.35 1008.16 1297.88 1030.74 1323.65 1057.47C1368.58 1103.99 1392.22 1126.09 1408.98 1137C1414.78 1140.77 1428.19 1149.1 1433.08 1164.54C1433.64 1166.26 1437.96 1180.66 1430.93 1194.38Z" fill="#F4BDBD" stroke="black" stroke-width="3" stroke-miterlimit="10"/>
<mask id="mask2_2620_22563" style="mask-type:luminance" maskUnits="userSpaceOnUse" x="560" y="1004" width="875" height="361">
<path d="M1430.93 1194.38C1425.28 1205.37 1415.39 1210.25 1408.22 1213.98C1394.91 1220.89 1377.11 1232.91 1358.13 1255.34C1339.19 1281.41 1320.61 1297.08 1312.24 1297.66C1307.07 1298.01 1302.54 1296.7 1302.54 1296.7C1296.74 1294.98 1293.18 1291.69 1292.32 1290.88C1290.29 1288.9 1288.85 1286.8 1287.25 1283.76C1281.86 1273.51 1283.2 1269.01 1278.95 1260.83C1275.94 1255.01 1271.05 1249.16 1269.53 1249.84C1267.53 1250.73 1273.63 1264.4 1276.22 1284.42C1277.41 1293.69 1277.48 1301.41 1277.33 1306.49C1222.91 1330.29 1124.97 1364.84 998.358 1364.92C871.287 1364.99 773.023 1330.31 718.55 1306.49C718.398 1301.41 718.474 1293.69 719.664 1284.42C722.246 1264.4 728.346 1250.73 726.346 1249.84C724.828 1249.16 719.942 1255.01 716.93 1260.83C712.677 1269.01 714.019 1273.51 708.627 1283.76C707.033 1286.8 705.59 1288.9 703.565 1290.88C702.704 1291.69 699.135 1294.98 693.338 1296.7C693.338 1296.7 688.807 1298.01 683.644 1297.66C675.265 1297.08 656.686 1281.41 637.752 1255.34C618.767 1232.91 600.972 1220.89 587.658 1213.98C580.494 1210.25 570.597 1205.37 564.952 1194.38C557.915 1180.66 562.243 1166.26 562.8 1164.54C567.686 1149.1 581.102 1140.77 586.898 1137C603.655 1126.09 627.297 1103.99 672.228 1057.47C697.996 1030.74 714.525 1008.16 744.597 1005.12C749.027 1004.66 752.722 1004.74 755.178 1004.87C802.006 1025.65 887.285 1056.28 997.851 1056.3C1108.52 1056.3 1193.87 1025.65 1240.7 1004.87C1243.16 1004.74 1246.85 1004.66 1251.28 1005.12C1281.35 1008.16 1297.88 1030.74 1323.65 1057.47C1368.58 1103.99 1392.22 1126.09 1408.98 1137C1414.78 1140.77 1428.19 1149.1 1433.08 1164.54C1433.64 1166.26 1437.96 1180.66 1430.93 1194.38Z" fill="white"/>
</mask>
<g mask="url(#mask2_2620_22563)">
<path d="M672.229 1057.46C672.229 1057.46 683.594 1114.7 740.978 1145.35" stroke="#C4A5A3" stroke-width="3" stroke-miterlimit="10"/>
<path d="M583.178 1211.59C591.126 1187.62 602.415 1172.87 611.148 1163.88C624.64 1149.98 635.879 1145.83 665.444 1123.15C677.164 1114.17 686.353 1106.42 692.149 1101.41" stroke="#C4A5A3" stroke-width="3" stroke-miterlimit="10"/>
<path d="M645.852 1265.86C653.471 1256.8 663.95 1243.54 675.138 1226.55C684.454 1212.43 690.554 1201.32 699.793 1184.43C706.501 1172.18 715.285 1155.55 725.03 1135.33" stroke="#C4A5A3" stroke-width="3" stroke-miterlimit="10"/>
<path d="M1323.48 1057.46C1323.48 1057.46 1312.11 1114.7 1254.73 1145.35" stroke="#C4A5A3" stroke-width="3" stroke-miterlimit="10"/>
<path d="M1412.55 1211.59C1404.6 1187.62 1393.31 1172.87 1384.58 1163.88C1371.09 1149.98 1359.85 1145.83 1330.29 1123.15C1318.57 1114.17 1309.38 1106.42 1303.58 1101.41" stroke="#C4A5A3" stroke-width="3" stroke-miterlimit="10"/>
<path d="M1349.85 1265.86C1342.23 1256.8 1331.75 1243.54 1320.57 1226.55C1311.25 1212.43 1305.15 1201.32 1295.91 1184.43C1289.2 1172.18 1280.42 1155.55 1270.67 1135.33" stroke="#C4A5A3" stroke-width="3" stroke-miterlimit="10"/>
</g>
<path d="M1430.93 1194.38C1425.28 1205.37 1415.39 1210.25 1408.22 1213.98C1394.91 1220.89 1377.11 1232.91 1358.13 1255.34C1339.19 1281.41 1320.61 1297.08 1312.24 1297.66C1307.07 1298.01 1302.54 1296.7 1302.54 1296.7C1296.74 1294.98 1293.18 1291.69 1292.32 1290.88C1290.29 1288.9 1288.85 1286.8 1287.25 1283.76C1281.86 1273.51 1283.2 1269.01 1278.95 1260.83C1275.94 1255.01 1271.05 1249.16 1269.53 1249.84C1267.53 1250.73 1273.63 1264.4 1276.22 1284.42C1277.41 1293.69 1277.48 1301.41 1277.33 1306.49C1222.91 1330.29 1124.97 1364.84 998.358 1364.92C871.287 1364.99 773.023 1330.31 718.55 1306.49C718.398 1301.41 718.474 1293.69 719.664 1284.42C722.246 1264.4 728.346 1250.73 726.346 1249.84C724.828 1249.16 719.942 1255.01 716.93 1260.83C712.677 1269.01 714.019 1273.51 708.627 1283.76C707.033 1286.8 705.59 1288.9 703.565 1290.88C702.704 1291.69 699.135 1294.98 693.338 1296.7C693.338 1296.7 688.807 1298.01 683.644 1297.66C675.265 1297.08 656.686 1281.41 637.752 1255.34C618.767 1232.91 600.972 1220.89 587.658 1213.98C580.494 1210.25 570.597 1205.37 564.952 1194.38C557.915 1180.66 562.243 1166.26 562.8 1164.54C567.686 1149.1 581.102 1140.77 586.898 1137C603.655 1126.09 627.297 1103.99 672.228 1057.47C697.996 1030.74 714.525 1008.16 744.597 1005.12C749.027 1004.66 752.722 1004.74 755.178 1004.87C802.006 1025.65 887.285 1056.28 997.851 1056.3C1108.52 1056.3 1193.87 1025.65 1240.7 1004.87C1243.16 1004.74 1246.85 1004.66 1251.28 1005.12C1281.35 1008.16 1297.88 1030.74 1323.65 1057.47C1368.58 1103.99 1392.22 1126.09 1408.98 1137C1414.78 1140.77 1428.19 1149.1 1433.08 1164.54C1433.64 1166.26 1437.96 1180.66 1430.93 1194.38Z" stroke="black" stroke-width="3" stroke-miterlimit="10"/>
<path d="M768.492 996.99C802.538 1015.24 850.177 1035.82 909.636 1047.36C942.594 1053.77 972.64 1056.1 998.434 1056.4C988.106 1074.3 967.906 1101.61 935.506 1110.7C879.767 1126.31 804.968 1083.18 768.518 996.99H768.492Z" fill="white" stroke="#231F20" stroke-width="3" stroke-linecap="round" stroke-linejoin="round"/>
<path d="M1233.89 999.846C1196.71 1017.62 1147.27 1036.47 1087.21 1047.33C1054.7 1053.23 1024.78 1055.74 998.408 1056.37C1009.52 1075.38 1029.72 1101.32 1061.34 1110.67C1118.16 1127.42 1194.53 1085.4 1233.87 999.82L1233.89 999.846Z" fill="white" stroke="#231F20" stroke-width="3" stroke-linejoin="round"/>
<path d="M818.282 1154.38C871.034 1161.57 931.531 1166.69 998.408 1166.89C1068.6 1167.09 1131.86 1161.88 1186.66 1154.38H1206.48C1217.52 1205.8 1238.88 1259.33 1277.99 1306.49C1280.67 1309.73 1283.4 1312.89 1286.16 1315.96C1283.94 1322.84 1281.71 1329.75 1279.46 1336.64C1201.49 1351.6 1106.57 1363.75 998.382 1365.06C889.183 1366.38 793.222 1356.33 714.424 1343.09C712.474 1334.76 710.551 1326.44 708.602 1318.11C711.943 1314.34 715.234 1310.46 718.499 1306.46C758.24 1257.91 782.009 1204.76 796.133 1154.36H818.231L818.282 1154.38Z" fill="#B3C2D9" stroke="black" stroke-width="3" stroke-miterlimit="10"/>
<path d="M726.347 1349.04C724.119 1339.65 721.892 1330.28 719.664 1320.89C721.942 1318.23 724.195 1315.57 726.372 1312.92C761.076 1270.49 787.097 1220.6 803.778 1164.53H817.574C877.287 1172.66 938.114 1176.86 998.358 1177.04H1002.46C1064.04 1177.04 1126.24 1172.84 1187.32 1164.53H1198.35C1211.77 1221.77 1235.92 1271.66 1270.19 1312.97C1271.69 1314.76 1273.2 1316.56 1274.75 1318.36C1272.29 1330.84 1269.86 1343.32 1267.41 1355.82C1190.91 1367.49 1099.56 1375.97 996.51 1374.68C893.512 1373.39 802.437 1362.66 726.296 1349.06L726.347 1349.04Z" fill="#B3C2D9" stroke="black" stroke-miterlimit="10"/>
<path d="M997.826 1205.11C1047.51 1204.91 1091.99 1200.46 1129.98 1194.43C1134.39 1193.72 1138.31 1197.27 1138.11 1201.75L1133.58 1301.4C1133.45 1304.44 1131.38 1307.05 1128.46 1307.88L1000.36 1344.44C999.091 1344.79 997.775 1344.79 996.509 1344.44L865.718 1307.78C862.908 1307 860.883 1304.57 860.605 1301.68L850.784 1202.2C850.328 1197.6 854.327 1193.8 858.884 1194.53C898.549 1200.79 945.352 1205.34 997.851 1205.14L997.826 1205.11Z" fill="#B3C2D9" stroke="black" stroke-width="3" stroke-miterlimit="10"/>
<path d="M870.427 1298.62L861.188 1205.17C905.131 1211.88 949.782 1215.29 994.156 1215.29H997.851C1041.24 1215.12 1084.88 1211.67 1127.83 1205.07L1123.55 1298.77L998.383 1334.49L870.427 1298.62Z" fill="#B3C2D9" stroke="black" stroke-miterlimit="10"/>
<path d="M714.45 1343.11C712.551 1346.15 709.843 1351.37 708.628 1358.4C707.312 1366.15 708.451 1372.5 709.387 1376.07C787.477 1390.58 885.463 1402.14 998.409 1400.2C1110.47 1398.27 1207.32 1383.56 1284.47 1366.58C1285.41 1364.88 1288.92 1358.15 1287.05 1349.57C1285.51 1342.41 1281.1 1338.1 1279.48 1336.63C1201.52 1351.59 1106.6 1363.74 998.409 1365.06C889.209 1366.38 793.248 1356.33 714.45 1343.09V1343.11Z" fill="#B3C2D9" stroke="black" stroke-width="3" stroke-miterlimit="10"/>
<path d="M753.995 1363.78L735.523 1361.56C733.844 1361.36 732.319 1362.55 732.117 1364.23C731.915 1365.91 733.112 1367.44 734.792 1367.64L753.263 1369.86C754.943 1370.06 756.468 1368.87 756.67 1367.19C756.872 1365.51 755.675 1363.98 753.995 1363.78Z" fill="#B3C2D9" stroke="black" stroke-miterlimit="10"/>
<path d="M737.154 1374.66C743.124 1374.66 747.963 1369.82 747.963 1363.85C747.963 1357.88 743.124 1353.04 737.154 1353.04C731.185 1353.04 726.346 1357.88 726.346 1363.85C726.346 1369.82 731.185 1374.66 737.154 1374.66Z" fill="white" stroke="black" stroke-miterlimit="10"/>
<path d="M1256.89 1354.52L1238.55 1357.68C1236.88 1357.96 1235.77 1359.55 1236.05 1361.21C1236.34 1362.88 1237.92 1364 1239.59 1363.71L1257.93 1360.56C1259.59 1360.27 1260.71 1358.68 1260.42 1357.02C1260.14 1355.35 1258.55 1354.23 1256.89 1354.52Z" fill="#B3C2D9" stroke="black" stroke-miterlimit="10"/>
<path d="M1256.65 1366.61C1262.62 1366.61 1267.46 1361.77 1267.46 1355.8C1267.46 1349.83 1262.62 1344.99 1256.65 1344.99C1250.68 1344.99 1245.84 1349.83 1245.84 1355.8C1245.84 1361.77 1250.68 1366.61 1256.65 1366.61Z" fill="white" stroke="black" stroke-miterlimit="10"/>
<path d="M709.387 1376.08C706.4 1398.23 704.223 1422.98 703.666 1449.96C703.008 1482.87 704.932 1512.69 708.02 1538.71C745.128 1543.98 785.502 1548.2 828.812 1550.61C870.275 1552.91 909.231 1553.27 945.302 1552.33C945.353 1552.25 945.403 1552.15 945.454 1552.08C954.161 1536.38 970.716 1526.66 988.663 1526.66H1004.89C1021.75 1526.66 1037.47 1535.27 1046.53 1549.47L1047.36 1550.79C1081.69 1551.06 1121.55 1549.14 1165.5 1542.86C1212.23 1536.18 1253.18 1526.08 1287.53 1515.45C1289.13 1492.16 1289.91 1466.72 1289.28 1439.41C1288.67 1413.29 1286.9 1388.94 1284.42 1366.61C1207.26 1383.59 1110.42 1398.3 998.358 1400.22C885.412 1402.17 787.426 1390.61 709.336 1376.1L709.387 1376.08Z" fill="#B3C2D9" stroke="black" stroke-width="3" stroke-miterlimit="10"/>
<path d="M945.353 1552.33C945.631 1554.12 945.783 1556.48 945.505 1559.24C945.277 1561.46 944.796 1563.39 944.315 1564.88C907.409 1566.17 867.237 1566.07 824.256 1563.74C782.136 1561.49 742.901 1557.41 706.957 1552.33C706.425 1551.03 705.59 1548.38 705.944 1545.01C706.248 1542.05 707.337 1539.87 708.045 1538.71C744.496 1543.24 783.326 1546.91 824.332 1549.31C866.908 1551.82 907.358 1552.65 945.353 1552.33Z" fill="#B3C2D9" stroke="black" stroke-width="3" stroke-miterlimit="10"/>
<path d="M1046.58 1551.04C1046.43 1552.83 1046.4 1555.21 1046.83 1557.95C1047.19 1560.18 1047.77 1562.05 1048.35 1563.52C1085.71 1560.68 1125.3 1556.53 1166.84 1550.63C1209.62 1544.56 1249.94 1537.27 1287.58 1529.29C1288.16 1528.53 1290.19 1525.62 1289.89 1521.55C1289.66 1518.46 1288.24 1516.33 1287.58 1515.47C1250.32 1524.28 1209.54 1532.33 1165.55 1538.74C1123.3 1544.91 1083.49 1548.78 1046.58 1551.04Z" fill="#B3C2D9" stroke="black" stroke-width="3" stroke-miterlimit="10"/>
<path d="M991.244 1400.3V1526.66" stroke="black" stroke-width="3" stroke-miterlimit="10"/>
<path d="M991.244 1400.3H1019.82V1473.22C1019.82 1486.36 1009.17 1497.02 996.028 1497.02H991.269V1400.3H991.244Z" fill="#B3C2D9" stroke="black" stroke-width="3" stroke-miterlimit="10"/>
<path d="M703.92 1441.2C703.92 1441.2 756.115 1455.45 774.441 1386.63" stroke="black" stroke-miterlimit="10"/>
<path d="M703.92 1453.3C703.92 1453.3 767.683 1470.72 790.085 1386.63" stroke="black" stroke-miterlimit="10"/>
<path d="M1289.56 1434.27C1289.56 1434.27 1237.36 1448.52 1219.04 1379.69" stroke="black" stroke-miterlimit="10"/>
<path d="M1289.56 1444.32C1289.56 1444.32 1227.77 1461.2 1206.07 1379.72" stroke="black" stroke-miterlimit="10"/>
<path d="M805.197 1135.63C808.058 1135.32 811.551 1135.22 815.499 1135.63C820.942 1136.16 825.422 1137.48 828.738 1138.74C829.168 1143.86 829.194 1151.96 826.485 1161.37C824.005 1169.93 820.157 1176.28 817.297 1180.28C816.487 1176.89 815.702 1173.5 814.892 1170.08C816.259 1167.47 817.778 1163.98 818.815 1159.68C820.005 1154.84 820.208 1150.61 820.106 1147.47C818.132 1146.82 815.702 1146.16 812.892 1145.75C810.386 1145.4 808.159 1145.32 806.26 1145.37C805.906 1142.13 805.526 1138.89 805.172 1135.65L805.197 1135.63Z" fill="white" stroke="#231F20" stroke-miterlimit="10"/>
<path d="M797.425 1137C795.097 1137.61 792.287 1138.54 789.275 1140.01C785.731 1141.73 782.896 1143.68 780.795 1145.38C782.288 1150.74 784.997 1158.18 790.085 1166.11C794.844 1173.52 800.083 1178.81 804.133 1182.33V1172.89C801.273 1169.85 797.881 1165.63 794.919 1160.06C792.996 1156.41 791.654 1153 790.718 1150.03C791.857 1149.1 793.274 1148.09 794.995 1147.12C796.337 1146.36 797.603 1145.81 798.742 1145.38C798.286 1142.59 797.856 1139.81 797.4 1137.02L797.425 1137Z" fill="white" stroke="#231F20" stroke-linecap="round" stroke-linejoin="round"/>
<path d="M811.83 1189.47C819.267 1189.47 825.296 1183.44 825.296 1176.01C825.296 1168.57 819.267 1162.54 811.83 1162.54C804.392 1162.54 798.363 1168.57 798.363 1176.01C798.363 1183.44 804.392 1189.47 811.83 1189.47Z" fill="white" stroke="#231F20" stroke-linecap="round" stroke-linejoin="round"/>
<path d="M810.613 1184.46C817.016 1184.46 822.206 1179.27 822.206 1172.86C822.206 1166.46 817.016 1161.27 810.613 1161.27C804.21 1161.27 799.02 1166.46 799.02 1172.86C799.02 1179.27 804.21 1184.46 810.613 1184.46Z" fill="white" stroke="#231F20" stroke-linecap="round" stroke-linejoin="round"/>
<path d="M1191.62 1135.63C1188.76 1135.32 1185.27 1135.22 1181.32 1135.63C1175.88 1136.16 1171.4 1137.48 1168.08 1138.74C1167.65 1143.86 1167.62 1151.96 1170.33 1161.37C1172.81 1169.93 1176.66 1176.28 1179.52 1180.28C1180.33 1176.89 1181.12 1173.5 1181.93 1170.08C1180.56 1167.47 1179.04 1163.98 1178 1159.68C1176.81 1154.84 1176.61 1150.61 1176.71 1147.47C1178.69 1146.82 1181.12 1146.16 1183.93 1145.75C1186.43 1145.4 1188.66 1145.32 1190.56 1145.37C1190.91 1142.13 1191.29 1138.89 1191.65 1135.65L1191.62 1135.63Z" fill="white" stroke="#231F20" stroke-miterlimit="10"/>
<path d="M1199.42 1137C1201.75 1137.61 1204.56 1138.54 1207.57 1140.01C1211.11 1141.73 1213.95 1143.68 1216.05 1145.38C1214.56 1150.74 1211.85 1158.18 1206.76 1166.11C1202 1173.52 1196.76 1178.81 1192.71 1182.33C1192.71 1179.19 1192.71 1176.03 1192.71 1172.89C1195.57 1169.85 1198.96 1165.63 1201.92 1160.06C1203.85 1156.41 1205.19 1153 1206.13 1150.03C1204.99 1149.1 1203.57 1148.09 1201.85 1147.12C1200.51 1146.36 1199.24 1145.81 1198.1 1145.38C1198.56 1142.59 1198.99 1139.81 1199.44 1137.02L1199.42 1137Z" fill="white" stroke="#231F20" stroke-linecap="round" stroke-linejoin="round"/>
<path d="M1185.02 1189.47C1192.45 1189.47 1198.48 1183.44 1198.48 1176.01C1198.48 1168.57 1192.45 1162.54 1185.02 1162.54C1177.58 1162.54 1171.55 1168.57 1171.55 1176.01C1171.55 1183.44 1177.58 1189.47 1185.02 1189.47Z" fill="white" stroke="#231F20" stroke-linecap="round" stroke-linejoin="round"/>
<path d="M1186.2 1184.46C1192.61 1184.46 1197.8 1179.27 1197.8 1172.86C1197.8 1166.46 1192.61 1161.27 1186.2 1161.27C1179.8 1161.27 1174.61 1166.46 1174.61 1172.86C1174.61 1179.27 1179.8 1184.46 1186.2 1184.46Z" fill="white" stroke="#231F20" stroke-linecap="round" stroke-linejoin="round"/>
<path d="M768.492 996.99C767.353 996.864 764.214 996.661 760.873 998.484C757.102 1000.56 755.608 1003.88 755.203 1004.86C765.455 1029.11 775.504 1057.41 783.604 1089.51C788.591 1109.25 792.236 1127.96 794.868 1145.32H813.549C811.904 1128.84 809.069 1110.52 804.285 1090.88C795.02 1052.63 781.351 1021.14 768.467 996.965L768.492 996.99Z" fill="#B3C2D9" stroke="black" stroke-width="3" stroke-miterlimit="10"/>
<path d="M1233.89 999.85C1234.45 999.699 1238.15 998.711 1241.64 1000.99C1245.69 1003.65 1245.87 1008.33 1245.87 1008.74C1235.39 1032.68 1225.06 1059.94 1216.05 1090.34C1210.15 1110.24 1205.52 1129.22 1201.82 1147.07C1195.85 1146.61 1189.87 1146.16 1183.88 1145.7C1187.67 1128.39 1192.43 1110.04 1198.35 1090.88C1208.96 1056.55 1221.36 1026.13 1233.87 999.825L1233.89 999.85Z" fill="#B3C2D9" stroke="black" stroke-width="3" stroke-miterlimit="10"/>
<path d="M998.358 1364.91V1365.09C998.358 1365.09 998.08 1365.04 997.953 1365.01C998.08 1364.96 998.231 1364.94 998.358 1364.91Z" stroke="black" stroke-miterlimit="10"/>
<path d="M997.954 1365.01C997.802 1365.04 997.675 1365.06 997.523 1365.09V1364.91C997.675 1364.94 997.802 1364.96 997.954 1365.01Z" stroke="black" stroke-miterlimit="10"/>
<path d="M726.346 1249.84C727.206 1222.58 730.497 1189.75 739.027 1153.35C745.027 1127.68 752.544 1104.97 760.214 1085.48" stroke="#231F20" stroke-width="3" stroke-linecap="round" stroke-linejoin="round"/>
<path d="M1269.53 1249.84C1266.8 1228.95 1263.66 1207.54 1260.02 1185.64C1254.57 1152.94 1248.47 1121.63 1241.92 1091.71" stroke="#231F20" stroke-width="3" stroke-linecap="round" stroke-linejoin="round"/>
</svg>
