<svg width="2000" height="2000" viewBox="0 0 2000 2000" fill="none" xmlns="http://www.w3.org/2000/svg">
<path d="M1326.5 1545.4C1307.98 1572.14 1264.35 1567.32 1264.3 1567.32H1264.25C1264.25 1567.32 1261.85 1565.95 1260.05 1564.89C1259.34 1564.47 1258.6 1564.35 1257.87 1564.5C1249.2 1566.54 1240.52 1568.58 1231.83 1570.57C1230.92 1570.79 1229.62 1572.26 1228.51 1574.43C1227.43 1576.59 1227.11 1578.73 1227.06 1578.97C1223.57 1598.29 1106.79 1609.6 1106.79 1609.6C1106.79 1609.6 1090.94 1611.17 1017.93 1609.37C1014.67 1609.3 1006.76 1608.98 997.642 1603.38C995.578 1602.07 993.908 1600.8 992.802 1599.91C991.844 1597.95 990.37 1596.77 988.798 1596.57C980.568 1595.64 972.339 1594.75 964.109 1593.84C962.562 1593.69 961.039 1594.51 959.884 1596.2C959.196 1597.21 958.336 1597.9 957.575 1598.78C954.897 1601.9 949.468 1602.12 949.468 1602.12C887.759 1604.31 859.263 1600.23 859.263 1600.23C818.287 1594.31 801.607 1594.33 781.758 1573.15C779.399 1570.64 777.532 1568.41 776.304 1566.88C774.584 1564.45 773.307 1562.14 772.447 1560.54C772.447 1560.49 772.423 1560.49 772.398 1560.47C767.018 1558.7 761.663 1556.88 756.283 1555.11H756.209C755.251 1556.26 753.777 1557.71 751.837 1558.7C747.906 1560.61 744.27 1559.24 742.182 1558.23C737.023 1555.8 713.268 1542.53 679.834 1522.99C671.507 1518.1 667.699 1503.01 671.679 1490.52C675.781 1477.65 679.908 1464.69 684.035 1451.82C696.613 1412.3 709.215 1372.85 721.817 1333.38C723.463 1328.22 725.109 1323.04 726.755 1317.88V1317.8C726.878 1314.14 727.001 1310.45 727.123 1306.77C727.467 1296.42 727.811 1286.07 728.155 1275.7C915.199 1280.59 1102.22 1285.44 1289.26 1290.33V1327.53C1290.61 1332.77 1291.94 1338 1293.29 1343.24C1307.91 1400.11 1322.52 1456.93 1337.12 1513.82C1339.47 1523.06 1333.33 1535.65 1326.5 1545.45V1545.4Z" fill="#FEFEFE" stroke="#D6D6D6" stroke-width="3" stroke-miterlimit="10"/>
<path d="M1293.28 1343.19C1232.01 1345.1 1170.18 1346.06 1108.55 1346.06C1076.12 1346.06 1043.74 1345.79 1011.49 1345.25C915.313 1343.68 817.91 1339.67 721.809 1333.33C723.455 1328.17 725.1 1322.98 726.746 1317.82V1317.75C726.869 1314.09 726.992 1310.4 727.115 1306.71C821.546 1312.88 917.205 1316.77 1011.68 1318.34C1103.81 1319.89 1197.11 1319.22 1289.25 1316.37V1327.48C1290.6 1332.72 1291.93 1337.95 1293.28 1343.19Z" fill="#E5E5E5" stroke="#D6D6D6" stroke-width="3" stroke-miterlimit="10"/>
<path d="M756.193 1555.11L798.249 1335.25H800.755C791.297 1410.33 781.839 1485.39 772.381 1560.47C766.977 1558.67 761.572 1556.9 756.168 1555.11H756.193Z" fill="#E5E5E5" stroke="#D6D6D6" stroke-width="3" stroke-miterlimit="10"/>
<path d="M992.657 1593.47C992.706 1595.51 990.864 1596.84 988.825 1596.57C988.825 1596.57 988.8 1596.57 988.776 1596.57C980.546 1595.63 972.317 1594.75 964.087 1593.84C963.964 1593.84 963.841 1593.79 963.719 1593.72C961.409 1592.61 960.378 1589.86 960.623 1587.3L983.494 1344.22H987.474C989.193 1427.31 990.913 1510.38 992.657 1593.45V1593.47Z" fill="#E5E5E5" stroke="#D6D6D6" stroke-width="3" stroke-miterlimit="10"/>
<path d="M1264.3 1567.33H1264.26C1264.26 1567.33 1261.85 1565.95 1260.05 1564.89C1259.34 1564.48 1258.61 1564.35 1257.87 1564.5C1249.2 1566.54 1240.52 1568.58 1231.83 1570.57C1230.92 1570.79 1229.62 1572.27 1228.51 1574.43C1227.43 1576.59 1226.96 1574.58 1226.92 1574.82L1217.24 1344.42H1222.15L1264.3 1567.33Z" fill="#E5E5E5" stroke="#D6D6D6" stroke-width="3" stroke-miterlimit="10"/>
<path d="M689.733 1375.38C683.483 1396.7 677.666 1423.14 675.075 1453.74C673.166 1476.39 673.371 1496.87 674.598 1514.6C674.984 1515.76 676.098 1520.15 679.393 1520.31C680.847 1520.38 682.461 1520.33 684.211 1520.13C689.256 1519.49 693.005 1517.6 695.096 1516.35C695.55 1517.1 696.596 1518.6 698.55 1519.56C698.55 1519.56 698.618 1519.58 698.664 1519.6C699.05 1519.79 699.709 1519.99 700.823 1519.85C704.777 1519.42 707.458 1515.6 706.731 1511.67C703.55 1494.5 700.913 1475.39 699.459 1454.51C697.459 1425.76 698.141 1399.77 700.027 1377.33L689.755 1375.38H689.733Z" fill="#AD3433" stroke="#542628" stroke-width="3" stroke-miterlimit="10"/>
<path d="M696.004 1381.79C701.991 1381.79 706.844 1376.93 706.844 1370.94C706.844 1364.95 701.991 1360.1 696.004 1360.1C690.017 1360.1 685.164 1364.95 685.164 1370.94C685.164 1376.93 690.017 1381.79 696.004 1381.79Z" fill="#AD3433" stroke="#542628" stroke-width="3" stroke-miterlimit="10"/>
<path d="M1314.12 1375.1C1321 1396.25 1327.59 1422.48 1331.09 1453.01C1333.68 1475.59 1334.07 1496.07 1333.39 1513.83C1333.05 1514.99 1332.05 1519.42 1328.75 1519.67C1327.3 1519.79 1325.69 1519.79 1323.94 1519.63C1318.87 1519.13 1315.07 1517.38 1312.96 1516.17C1312.53 1516.92 1311.53 1518.47 1309.62 1519.49C1309.62 1519.49 1309.55 1519.51 1309.5 1519.54C1309.12 1519.74 1308.46 1519.95 1307.35 1519.85C1303.37 1519.54 1300.6 1515.79 1301.21 1511.85C1303.89 1494.6 1305.94 1475.41 1306.78 1454.49C1307.91 1425.69 1306.48 1399.72 1303.91 1377.35L1314.12 1375.08V1375.1Z" fill="#AD3433" stroke="#542628" stroke-width="3" stroke-miterlimit="10"/>
<path d="M1307.71 1381.69C1313.69 1381.69 1318.54 1376.84 1318.54 1370.85C1318.54 1364.86 1313.69 1360 1307.71 1360C1301.72 1360 1296.87 1364.86 1296.87 1370.85C1296.87 1376.84 1301.72 1381.69 1307.71 1381.69Z" fill="#AD3433" stroke="#542628" stroke-width="3" stroke-miterlimit="10"/>
<path d="M729.365 1287.64C716.662 1308.53 703.959 1329.43 691.256 1350.32C687.824 1355.98 690.892 1363.46 697.209 1364.75C778.429 1381.53 877.988 1395.13 991.817 1395.88C1114.99 1396.7 1222.05 1382.26 1307.9 1364.46C1314.35 1363.12 1317.38 1355.37 1313.67 1349.73C1297.45 1325.06 1281.22 1300.37 1265 1275.7L729.365 1287.64Z" fill="#AD3433" stroke="#542628" stroke-width="3" stroke-miterlimit="10"/>
<path d="M760.988 998.342C765.92 998.319 770.828 998.296 775.76 998.273C780.327 998.273 784.827 999.433 788.758 1001.75C824.982 1022.99 893.862 1056.32 986.126 1061.11C1098.23 1066.93 1182.83 1027.4 1220.94 1006.19C1224.83 1004.03 1229.19 1002.91 1233.62 1002.96C1238.06 1003 1242.35 1003.05 1246.74 1003.09C1237.6 1069.09 1228.49 1135.09 1219.35 1201.09H781.509L760.988 998.342Z" fill="#AD3433" stroke="#542628" stroke-width="3" stroke-miterlimit="10"/>
<path d="M1246.74 1003.09C1247.72 1002.91 1252.67 1002.16 1257.38 1005.41C1261.74 1008.44 1262.92 1012.87 1263.17 1013.91C1254.42 1037.04 1245.36 1067.18 1240.24 1103.17C1235.29 1138 1235.45 1168.56 1237.22 1192.68C1231.27 1195.47 1225.31 1198.27 1219.36 1201.07L1208.7 1187.43C1208.13 1163.37 1209.47 1133.43 1215.88 1099.67C1223.41 1059.98 1235.56 1027.37 1246.74 1003.07V1003.09Z" fill="#AD3433" stroke="#542628" stroke-width="3" stroke-miterlimit="10"/>
<path d="M761.009 998.343C759.941 998.229 754.828 997.82 750.306 1001.43C746.647 1004.34 745.534 1008.16 745.238 1009.41C751.624 1036.7 757.26 1068.14 760.669 1103.15C763.85 1135.98 764.464 1166.06 763.691 1192.66C769.645 1195.45 775.599 1198.25 781.553 1201.05L792.211 1187.4C791.893 1161.46 789.939 1131.91 785.03 1099.65C779.121 1060.8 770.281 1026.78 761.032 998.297L761.009 998.343Z" fill="#AD3433" stroke="#542628" stroke-width="3" stroke-miterlimit="10"/>
<path d="M752.756 1160.67C749.734 1184.61 741.917 1220.62 719.896 1258.39C711.669 1272.48 702.852 1284.42 694.398 1294.38C690.671 1298.76 692.149 1305.47 697.375 1307.88C734.326 1324.98 762.914 1326.02 782.708 1323.52C815.978 1319.32 828.09 1304.56 861.11 1307.95C893.561 1311.27 895.129 1326.89 925.285 1328.7C962.327 1330.96 966.645 1307.81 1004.5 1307.06C1044.77 1306.27 1051.36 1332.25 1091.97 1328.7C1118.83 1326.36 1119.88 1314.65 1148.2 1313.13C1178.56 1311.49 1190.65 1324.23 1217.39 1328.7C1236.66 1331.93 1264.57 1331.05 1301.64 1311.93C1306.34 1309.49 1307.79 1303.47 1304.73 1299.15C1297.45 1288.94 1290.16 1277.51 1283.18 1264.8C1261.41 1225.08 1250.84 1187.43 1245.5 1158.35C1171.72 1166.54 1089.72 1172.09 1000.71 1172.56C910.514 1173.04 827.454 1168.27 752.802 1160.7L752.756 1160.67Z" fill="#AD3433" stroke="#542628" stroke-width="3" stroke-miterlimit="10"/>
<path d="M752.739 1160.67C750.603 1170.9 746.603 1184.58 738.763 1199.36C734.809 1206.8 730.582 1213.21 726.514 1218.64C723.196 1223.05 724.787 1229.42 729.832 1231.74C762.556 1246.74 787.917 1247.65 805.507 1245.42C835.277 1241.65 846.094 1228.46 875.614 1231.49C904.634 1234.46 906.042 1248.42 933.017 1250.06C966.15 1252.08 970.014 1231.37 1003.87 1230.71C1039.89 1230.01 1045.78 1253.24 1082.09 1250.06C1106.11 1247.97 1107.05 1237.49 1132.38 1236.12C1159.54 1234.67 1170.36 1246.06 1194.26 1250.06C1211.29 1252.9 1235.87 1252.15 1268.46 1235.62C1273.17 1233.24 1274.73 1227.24 1271.67 1222.92C1266.26 1215.28 1260.49 1205.64 1255.58 1193.93C1249.87 1180.36 1246.96 1167.99 1245.44 1158.33C1195.61 1137.91 1109.89 1110.13 1000.44 1110.38C889.317 1110.63 802.643 1139.66 752.739 1160.67Z" fill="#AD3433" stroke="#542628" stroke-width="3" stroke-miterlimit="10"/>
<path d="M763.658 1130.37C761.272 1132.21 753.273 1138.87 750.682 1150.72C748.705 1159.72 750.91 1167.06 752.023 1170.18C811.381 1152.37 896.486 1133.73 999.817 1133.35C1102.28 1132.96 1186.91 1150.67 1246.18 1167.83C1247.57 1165.27 1250.29 1159.4 1249.66 1151.78C1248.61 1139.01 1239.07 1131.69 1237.48 1130.5C1172.96 1117.8 1092.6 1107.38 1000.16 1107.38C908.076 1107.38 828.016 1117.75 763.658 1130.39V1130.37Z" fill="#AD3433" stroke="#542628" stroke-width="3" stroke-miterlimit="10"/>
<path d="M1008.49 1134.59C1013.89 1144.98 1019.44 1157.4 1024.26 1171.74C1029.64 1187.82 1032.82 1202.66 1034.73 1215.46C1035.01 1217.35 1037.46 1217.87 1038.53 1216.28C1041.51 1211.75 1044.51 1207.23 1047.48 1202.71H1067.66C1069.23 1202.71 1070.23 1201.05 1069.5 1199.66C1063.25 1187.79 1054.96 1174.22 1044.01 1160.12C1033.71 1146.89 1023.33 1136.14 1014.01 1127.57L1008.51 1129.96V1134.57L1008.49 1134.59Z" fill="#AD3433" stroke="#542628" stroke-width="3" stroke-miterlimit="10"/>
<path d="M1087.66 1088.14C1087.21 1099.49 1085.32 1108.61 1083.8 1114.45C1087.18 1127.29 1087.32 1137.77 1086.89 1144.64C1086.14 1156.51 1083.59 1159.24 1082.64 1160.12C1076.59 1165.78 1065.5 1162.69 1056.32 1160.12C1051.39 1158.74 1033.23 1153.19 1014.24 1135.3C1013.53 1134.64 1012.87 1134 1012.21 1133.34C1007.01 1128.2 1003.12 1123.43 1000.44 1119.88C1003.03 1116.52 1006.8 1111.7 1011.46 1105.95C1041.87 1068.34 1051.69 1062.82 1060.09 1060.18C1065.21 1058.59 1076.09 1054.91 1082.64 1060.18C1088.59 1064.98 1088.18 1074.87 1087.66 1088.14Z" fill="#AD3433" stroke="#542628" stroke-width="3" stroke-miterlimit="10"/>
<path d="M1081.83 1157.15C1082.81 1158.69 1082.29 1160.67 1080.67 1161.58C1074.38 1165.17 1064.58 1162.44 1056.31 1160.12C1051.38 1158.74 1033.22 1153.19 1014.23 1135.3C1013.52 1134.64 1012.86 1134 1012.2 1133.34C1021.84 1133.64 1036.25 1135.12 1052.45 1141.12C1058.24 1143.25 1077.56 1150.42 1081.81 1157.15H1081.83Z" fill="#8E3433" stroke="#542628" stroke-width="3" stroke-miterlimit="10"/>
<path d="M992.427 1134.59C987.018 1144.98 981.473 1157.4 976.655 1171.74C971.27 1187.82 968.088 1202.66 966.179 1215.46C965.906 1217.35 963.452 1217.87 962.384 1216.28C959.407 1211.75 956.407 1207.23 953.43 1202.71H933.251C931.682 1202.71 930.683 1201.05 931.41 1199.66C937.659 1187.79 945.954 1174.22 956.907 1160.12C967.202 1146.89 977.587 1136.14 986.904 1127.57L992.404 1129.96V1134.57L992.427 1134.59Z" fill="#AD3433" stroke="#542628" stroke-width="3" stroke-miterlimit="10"/>
<path d="M913.235 1088.14C913.689 1099.49 915.575 1108.61 917.098 1114.45C913.712 1127.29 913.575 1137.77 914.007 1144.64C914.757 1156.51 917.302 1159.24 918.257 1160.12C924.302 1165.78 935.391 1162.69 944.572 1160.12C949.504 1158.74 967.661 1153.19 986.659 1135.3C987.364 1134.64 988.023 1134 988.682 1133.34C993.886 1128.2 997.772 1123.43 1000.45 1119.88C997.863 1116.52 994.09 1111.7 989.432 1105.95C959.026 1068.34 949.208 1062.82 940.8 1060.18C935.687 1058.59 924.802 1054.91 918.257 1060.18C912.303 1064.98 912.712 1074.87 913.235 1088.14Z" fill="#AD3433" stroke="#542628" stroke-width="3" stroke-miterlimit="10"/>
<path d="M919.069 1157.15C918.092 1158.69 918.614 1160.67 920.228 1161.58C926.523 1165.17 936.317 1162.44 944.589 1160.12C949.52 1158.74 967.678 1153.19 986.676 1135.3C987.38 1134.64 988.039 1134 988.698 1133.34C979.063 1133.64 964.655 1135.12 948.452 1141.12C942.657 1143.25 923.341 1150.42 919.092 1157.15H919.069Z" fill="#8E3433" stroke="#542628" stroke-width="3" stroke-miterlimit="10"/>
<path d="M986.131 1114.66C980.495 1108.77 973.155 1106.81 968.247 1109.43C965.929 1110.65 962.815 1113.63 962.906 1117.47C962.997 1121.82 967.133 1124.48 967.906 1124.98C972.746 1128.09 979.814 1127.32 986.131 1123.36V1114.66Z" fill="#8E3433" stroke="#542628" stroke-width="3" stroke-miterlimit="10"/>
<path d="M1008.48 1105.17H992.432C988.955 1105.17 986.137 1107.99 986.137 1111.47V1128.29C986.137 1131.77 988.955 1134.59 992.432 1134.59H1008.48C1011.95 1134.59 1014.77 1131.77 1014.77 1128.29V1111.47C1014.77 1107.99 1011.95 1105.17 1008.48 1105.17Z" fill="#AD3433" stroke="#542628" stroke-width="3" stroke-miterlimit="10"/>
<path d="M1014.77 1114.66C1020.4 1108.77 1027.74 1106.81 1032.65 1109.43C1034.97 1110.65 1038.08 1113.63 1037.99 1117.47C1037.9 1121.82 1033.76 1124.48 1032.99 1124.98C1028.15 1128.09 1021.08 1127.32 1014.77 1123.36V1114.66Z" fill="#8E3433" stroke="#542628" stroke-width="3" stroke-miterlimit="10"/>
<path d="M1561.21 1020.94C1510.98 979.62 1436.49 986.86 1395.17 1037.08C1353.85 1087.3 1361.09 1161.77 1411.33 1203.08C1461.57 1244.39 1536.07 1237.15 1577.39 1186.93C1618.71 1136.71 1611.46 1062.25 1561.22 1020.93L1561.21 1020.94ZM1415.19 1198.39C1367.47 1159.14 1360.6 1088.65 1399.86 1040.94C1439.12 993.234 1509.63 986.373 1557.35 1025.63C1605.07 1064.88 1611.94 1135.37 1572.68 1183.08C1533.42 1230.78 1462.91 1237.64 1415.18 1198.4L1415.19 1198.39Z" fill="#D2AC3F" stroke="#371B0D" stroke-miterlimit="10"/>
<path d="M1442.96 1170.3L1437.45 1165.76L1333.98 1291.51L1339.5 1296.05L1442.96 1170.3Z" fill="#F5EBC8" stroke="#371B0D" stroke-width="3" stroke-miterlimit="10"/>
<path d="M1441.69 1173.52C1446.14 1173.84 1449.99 1170.5 1450.31 1166.06C1450.63 1161.62 1447.29 1157.77 1442.85 1157.45C1438.41 1157.13 1434.55 1160.47 1434.23 1164.9C1433.91 1169.34 1437.25 1173.2 1441.69 1173.52Z" fill="#B36332" stroke="#371B0D" stroke-width="3" stroke-miterlimit="10"/>
<path d="M1483.01 1221.73C1481.3 1224.09 1477.72 1223.86 1476.3 1221.33L1443.89 1163.51C1456.02 1165.8 1469.96 1167.68 1485.41 1168.48C1498.82 1169.17 1511.14 1168.95 1522.14 1168.22L1483.02 1221.73L1483.01 1221.73Z" fill="#F5EBC8" stroke="#371B0D" stroke-width="3" stroke-miterlimit="10"/>
<path d="M1443.89 1163.51L1380.88 1142.86C1378.12 1141.95 1377.22 1138.5 1379.19 1136.36L1424.18 1087.68C1424.98 1097.13 1426.46 1107.75 1429.07 1119.2C1433.01 1136.68 1438.5 1151.54 1443.89 1163.5L1443.89 1163.51Z" fill="#F5EBC8" stroke="#371B0D" stroke-width="3" stroke-miterlimit="10"/>
<path d="M1587.15 1155.27L1522.13 1168.22C1527.59 1157.65 1533.12 1145.71 1538.31 1132.49C1543.51 1119.25 1547.58 1106.76 1550.77 1095.29L1589.6 1149.02C1591.31 1151.37 1590 1154.7 1587.14 1155.27L1587.15 1155.27Z" fill="#B36332" stroke="#371B0D" stroke-width="3" stroke-miterlimit="10"/>
<path d="M1550.78 1095.28C1542.77 1086.25 1532.66 1076.17 1520.19 1066.16C1509.62 1057.67 1499.42 1050.89 1490.25 1045.5L1553.36 1025.19C1556.13 1024.3 1558.9 1026.57 1558.55 1029.46L1550.78 1095.28Z" fill="#5E1214" stroke="#371B0D" stroke-width="3" stroke-miterlimit="10"/>
<path d="M1490.24 1045.5C1481.16 1049.78 1471.41 1054.92 1461.27 1061.1C1446.8 1069.92 1434.47 1079.08 1424.18 1087.68L1424.34 1021.4C1424.35 1018.49 1427.37 1016.57 1430.01 1017.78L1490.23 1045.51L1490.24 1045.5Z" fill="#F5EBC8" stroke="#371B0D" stroke-width="3" stroke-miterlimit="10"/>
<path d="M1484.14 1209.89L1480.01 1215.54L1476.59 1209.44" stroke="#3B2112" stroke-linecap="round" stroke-linejoin="round"/>
<path d="M1469.4 1196.61L1458.62 1177.38" stroke="#3B2112" stroke-linecap="round" stroke-linejoin="round"/>
<path d="M1455.03 1170.96L1451.61 1164.86C1453.86 1165.22 1456.17 1165.58 1458.53 1165.91" stroke="#3B2112" stroke-linecap="round" stroke-linejoin="round"/>
<path d="M1474.72 1167.74C1478.2 1168.04 1481.75 1168.29 1485.39 1168.47C1490.11 1168.72 1494.7 1168.85 1499.14 1168.89" stroke="#3B2112" stroke-linecap="round" stroke-linejoin="round"/>
<path d="M1507.29 1168.85C1509.67 1168.81 1512 1168.73 1514.29 1168.64L1510.16 1174.29" stroke="#3B2112" stroke-linecap="round" stroke-linejoin="round"/>
<path d="M1501.49 1186.15L1488.48 1203.96" stroke="#3B2112" stroke-linecap="round" stroke-linejoin="round"/>
<path d="M1438.13 1149.56C1438.97 1151.8 1439.82 1153.97 1440.68 1156.07L1434.03 1153.89" stroke="#3B2112" stroke-linecap="round" stroke-linejoin="round"/>
<path d="M1420.19 1149.35L1399.42 1142.55" stroke="#3B2112" stroke-linecap="round" stroke-linejoin="round"/>
<path d="M1392.5 1140.27L1385.85 1138.1L1390.61 1132.96" stroke="#3B2112" stroke-linecap="round" stroke-linejoin="round"/>
<path d="M1400.49 1122.26L1415.31 1106.21" stroke="#3B2112" stroke-linecap="round" stroke-linejoin="round"/>
<path d="M1420.26 1100.86L1425 1095.72C1425.27 1097.97 1425.58 1100.29 1425.94 1102.65" stroke="#3B2112" stroke-linecap="round" stroke-linejoin="round"/>
<path d="M1428.92 1118.55C1428.96 1118.77 1429.02 1118.98 1429.06 1119.2C1430.91 1127.36 1433.09 1134.94 1435.43 1141.94" stroke="#3B2112" stroke-linecap="round" stroke-linejoin="round"/>
<path d="M1476.82 1046.01L1483.18 1048.94C1481.14 1049.97 1479.07 1051.04 1476.96 1052.15" stroke="#3B2112" stroke-linecap="round" stroke-linejoin="round"/>
<path d="M1462.78 1060.19C1462.28 1060.49 1461.78 1060.79 1461.28 1061.1C1454.5 1065.23 1448.2 1069.43 1442.36 1073.61" stroke="#3B2112" stroke-linecap="round" stroke-linejoin="round"/>
<path d="M1435.8 1078.44C1433.91 1079.88 1432.06 1081.3 1430.28 1082.73L1430.29 1075.72" stroke="#3B2112" stroke-linecap="round" stroke-linejoin="round"/>
<path d="M1430.33 1061.03L1430.38 1038.98" stroke="#3B2112" stroke-linecap="round" stroke-linejoin="round"/>
<path d="M1430.4 1031.64L1430.42 1024.64L1436.77 1027.58" stroke="#3B2112" stroke-linecap="round" stroke-linejoin="round"/>
<path d="M1450.13 1033.72L1470.16 1042.95" stroke="#3B2112" stroke-linecap="round" stroke-linejoin="round"/>
<path d="M1546.17 1082.43L1545.36 1089.37C1543.81 1087.73 1542.17 1086.06 1540.48 1084.36" stroke="white" stroke-linecap="round" stroke-linejoin="round"/>
<path d="M1528.65 1073.28C1525.95 1070.91 1523.13 1068.54 1520.18 1066.17C1516.61 1063.3 1513.08 1060.63 1509.61 1058.13" stroke="white" stroke-linecap="round" stroke-linejoin="round"/>
<path d="M1502.97 1053.5C1500.98 1052.17 1499.03 1050.89 1497.1 1049.68L1503.76 1047.54" stroke="white" stroke-linecap="round" stroke-linejoin="round"/>
<path d="M1517.67 1043.06L1538.53 1036.35" stroke="white" stroke-linecap="round" stroke-linejoin="round"/>
<path d="M1545.48 1034.11L1552.13 1031.97L1551.32 1038.91" stroke="white" stroke-linecap="round" stroke-linejoin="round"/>
<path d="M1549.61 1053.42L1547.04 1075.17" stroke="white" stroke-linecap="round" stroke-linejoin="round"/>
<path d="M1578.69 1144.28L1582.79 1149.95L1575.93 1151.32" stroke="white" stroke-linecap="round" stroke-linejoin="round"/>
<path d="M1561.43 1154.2L1539.7 1158.53" stroke="white" stroke-linecap="round" stroke-linejoin="round"/>
<path d="M1532.45 1159.97L1525.6 1161.34C1526.61 1159.28 1527.61 1157.18 1528.62 1155.03" stroke="white" stroke-linecap="round" stroke-linejoin="round"/>
<path d="M1535.24 1140.08C1536.28 1137.59 1537.31 1135.06 1538.31 1132.49C1540.38 1127.26 1542.25 1122.13 1543.97 1117.15" stroke="white" stroke-linecap="round" stroke-linejoin="round"/>
<path d="M1546.55 1109.37C1547.27 1107.11 1547.96 1104.89 1548.62 1102.69L1552.72 1108.36" stroke="white" stroke-linecap="round" stroke-linejoin="round"/>
<path d="M1561.38 1120.34L1574.36 1138.29" stroke="white" stroke-linecap="round" stroke-linejoin="round"/>
<path d="M1518.44 1162.99L1514.32 1168.64C1512.03 1168.73 1509.7 1168.81 1507.32 1168.85" stroke="white" stroke-linecap="round" stroke-linejoin="round"/>
<path d="M1491.02 1168.72C1489.18 1168.66 1487.3 1168.58 1485.42 1168.48C1478.88 1168.14 1472.61 1167.6 1466.64 1166.93" stroke="white" stroke-linecap="round" stroke-linejoin="round"/>
<path d="M1458.56 1165.91C1456.2 1165.58 1453.89 1165.24 1451.64 1164.87L1448.22 1158.76" stroke="white" stroke-linecap="round" stroke-linejoin="round"/>
<path d="M1447.36 1158.25L1440.71 1156.08C1439.86 1153.98 1439 1151.81 1438.16 1149.57" stroke="white" stroke-linecap="round" stroke-linejoin="round"/>
<path d="M1433.01 1134.23C1431.59 1129.46 1430.27 1124.45 1429.09 1119.2C1428.43 1116.29 1427.84 1113.43 1427.32 1110.63" stroke="white" stroke-linecap="round" stroke-linejoin="round"/>
<path d="M1425.98 1102.67C1425.62 1100.3 1425.31 1097.99 1425.04 1095.74L1429.78 1090.59" stroke="white" stroke-linecap="round" stroke-linejoin="round"/>
<path d="M1430.27 1089.73L1430.3 1082.73C1432.08 1081.31 1433.93 1079.88 1435.82 1078.44" stroke="white" stroke-linecap="round" stroke-linejoin="round"/>
<path d="M1449.06 1068.95C1452.96 1066.32 1457.03 1063.69 1461.29 1061.1C1464.18 1059.34 1467.02 1057.67 1469.84 1056.08" stroke="white" stroke-linecap="round" stroke-linejoin="round"/>
<path d="M1476.99 1052.16C1479.09 1051.05 1481.16 1049.97 1483.21 1048.95L1489.57 1051.88" stroke="white" stroke-linecap="round" stroke-linejoin="round"/>
<path d="M1490.46 1051.84L1497.12 1049.7C1499.04 1050.91 1501 1052.19 1502.98 1053.52" stroke="white" stroke-linecap="round" stroke-linejoin="round"/>
<path d="M1516.14 1062.98C1517.49 1064.01 1518.84 1065.08 1520.2 1066.17C1525.43 1070.37 1530.25 1074.59 1534.67 1078.73" stroke="white" stroke-linecap="round" stroke-linejoin="round"/>
<path d="M1540.5 1084.36C1542.19 1086.05 1543.81 1087.72 1545.38 1089.38L1544.56 1096.32" stroke="white" stroke-linecap="round" stroke-linejoin="round"/>
<path d="M1544.56 1097.02L1548.66 1102.7C1548 1104.89 1547.31 1107.12 1546.59 1109.37" stroke="white" stroke-linecap="round" stroke-linejoin="round"/>
<path d="M1541.25 1124.84C1540.32 1127.36 1539.35 1129.91 1538.34 1132.49C1536.28 1137.73 1534.17 1142.76 1532.03 1147.59" stroke="white" stroke-linecap="round" stroke-linejoin="round"/>
<path d="M1528.64 1155.03C1527.63 1157.18 1526.63 1159.29 1525.61 1161.34L1518.74 1162.7" stroke="white" stroke-linecap="round" stroke-linejoin="round"/>
<path d="M1522.13 1168.22C1519.59 1168.39 1516.97 1168.53 1514.3 1168.64C1505.38 1169.01 1495.71 1169.02 1485.4 1168.48C1473.14 1167.84 1461.82 1166.52 1451.61 1164.86C1448.97 1164.44 1446.39 1163.98 1443.9 1163.51C1442.83 1161.14 1441.77 1158.66 1440.7 1156.07C1436.41 1145.55 1432.24 1133.22 1429.08 1119.2C1427.2 1110.89 1425.89 1103.02 1425.03 1095.72C1424.69 1092.95 1424.43 1090.27 1424.2 1087.68C1426.16 1086.04 1428.18 1084.39 1430.29 1082.73C1439.26 1075.61 1449.58 1068.24 1461.29 1061.1C1468.85 1056.5 1476.2 1052.47 1483.2 1048.95C1485.59 1047.75 1487.95 1046.6 1490.25 1045.52C1492.48 1046.82 1494.77 1048.22 1497.11 1049.69C1504.4 1054.31 1512.18 1059.75 1520.19 1066.18C1530.01 1074.06 1538.35 1081.98 1545.37 1089.39C1547.27 1091.4 1549.08 1093.37 1550.79 1095.3C1550.11 1097.73 1549.4 1100.19 1548.64 1102.71C1545.83 1112.08 1542.43 1122.06 1538.34 1132.49C1534.23 1142.93 1529.92 1152.55 1525.62 1161.35C1524.46 1163.7 1523.3 1166 1522.15 1168.23L1522.13 1168.22Z" fill="#B36332" stroke="#371B0D" stroke-width="3" stroke-miterlimit="10"/>
<path d="M1455.06 1159.25C1452.76 1158.9 1450.44 1158.51 1448.16 1158.11C1447.24 1155.98 1446.34 1153.82 1445.48 1151.65" stroke="white" stroke-linecap="round" stroke-linejoin="round"/>
<path d="M1441.57 1141.08C1438.96 1133.46 1436.77 1125.69 1434.99 1117.87C1433.88 1112.91 1432.92 1107.9 1432.13 1102.85" stroke="white" stroke-linecap="round" stroke-linejoin="round"/>
<path d="M1431.33 1097.26C1431.03 1094.95 1430.76 1092.63 1430.53 1090.31C1432.34 1088.84 1434.16 1087.38 1436.01 1085.94" stroke="white" stroke-linecap="round" stroke-linejoin="round"/>
<path d="M1445.06 1079.15C1451.36 1074.6 1457.85 1070.3 1464.44 1066.28C1469.07 1063.46 1473.82 1060.74 1478.64 1058.15" stroke="white" stroke-linecap="round" stroke-linejoin="round"/>
<path d="M1483.67 1055.52C1485.74 1054.45 1487.83 1053.41 1489.93 1052.39C1491.92 1053.6 1493.9 1054.83 1495.86 1056.1" stroke="white" stroke-linecap="round" stroke-linejoin="round"/>
<path d="M1505.17 1062.42C1509 1065.14 1512.74 1067.97 1516.39 1070.9C1517.14 1071.5 1517.88 1072.1 1518.61 1072.71C1524.37 1077.45 1529.95 1082.48 1535.28 1087.75" stroke="white" stroke-linecap="round" stroke-linejoin="round"/>
<path d="M1539.23 1091.76C1540.86 1093.45 1542.45 1095.14 1544.02 1096.86C1543.38 1099.1 1542.71 1101.34 1542.02 1103.57" stroke="white" stroke-linecap="round" stroke-linejoin="round"/>
<path d="M1538.52 1114.3C1536.68 1119.67 1534.73 1125 1532.67 1130.26C1529.93 1137.23 1526.97 1144.15 1523.8 1150.98" stroke="white" stroke-linecap="round" stroke-linejoin="round"/>
<path d="M1521.38 1156.09C1520.37 1158.19 1519.34 1160.28 1518.29 1162.35C1515.97 1162.48 1513.63 1162.58 1511.3 1162.66" stroke="white" stroke-linecap="round" stroke-linejoin="round"/>
<path d="M1500.01 1162.82C1495.23 1162.79 1490.45 1162.65 1485.71 1162.41C1477.36 1161.97 1468.97 1161.19 1460.64 1160.06" stroke="white" stroke-linecap="round" stroke-linejoin="round"/>
<path d="M1522.74 1125.47C1522.34 1124.98 1516.78 1130.83 1506.51 1133.59C1502.1 1134.77 1498.44 1134.95 1496.6 1134.97C1494.91 1134.99 1489.14 1134.96 1483.16 1132.83C1481.35 1132.19 1463.63 1125.61 1462.32 1111.82C1461.78 1106.12 1463.93 1098.15 1470.12 1095.08C1473.9 1093.2 1479.73 1092.88 1482.52 1095.85C1485.63 1099.16 1482 1103.39 1484.72 1109.4C1486.87 1114.13 1492.39 1118.66 1498.42 1118.25C1505.09 1117.8 1508.87 1111.56 1509.87 1109.9C1513.54 1103.83 1512.58 1097.51 1512.1 1095.29C1510.03 1085.69 1501.67 1080.91 1498.83 1079.29C1489.91 1074.19 1481.09 1075.2 1478.66 1075.51C1467.03 1076.99 1452.86 1085.15 1448.91 1100.05C1444.68 1115.97 1455.19 1129.09 1458.53 1132.78C1460.91 1135.41 1468.09 1142.6 1479.83 1144.76C1490.85 1146.81 1499.43 1143.24 1503.43 1141.52C1516.05 1136.06 1523.24 1126.08 1522.74 1125.49L1522.74 1125.47Z" fill="#FCEED1"/>
<path d="M1550.85 1139.32C1553.24 1139.49 1555.31 1137.69 1555.49 1135.3C1555.66 1132.91 1553.86 1130.84 1551.47 1130.66C1549.08 1130.49 1547 1132.29 1546.83 1134.68C1546.66 1137.07 1548.46 1139.14 1550.85 1139.32Z" fill="#5E1214"/>
<path d="M1536.31 1055.03C1538.7 1055.2 1540.77 1053.4 1540.95 1051.01C1541.12 1048.62 1539.32 1046.55 1536.93 1046.38C1534.54 1046.2 1532.46 1048 1532.29 1050.39C1532.12 1052.78 1533.92 1054.86 1536.31 1055.03Z" fill="#FCEED1"/>
<path d="M1446.63 1056.49C1449.03 1056.66 1451.1 1054.86 1451.27 1052.47C1451.45 1050.08 1449.65 1048.01 1447.26 1047.84C1444.87 1047.66 1442.79 1049.46 1442.62 1051.85C1442.45 1054.24 1444.24 1056.32 1446.63 1056.49Z" fill="#5E1214"/>
<path d="M1415.06 1133.96C1417.45 1134.13 1419.52 1132.34 1419.7 1129.95C1419.87 1127.56 1418.07 1125.48 1415.68 1125.31C1413.29 1125.14 1411.21 1126.93 1411.04 1129.32C1410.87 1131.71 1412.67 1133.79 1415.06 1133.96Z" fill="#5E1214"/>
<path d="M1481.31 1188.44C1483.7 1188.61 1485.78 1186.82 1485.95 1184.43C1486.13 1182.04 1484.33 1179.96 1481.94 1179.79C1479.55 1179.62 1477.47 1181.41 1477.3 1183.8C1477.13 1186.19 1478.92 1188.27 1481.31 1188.44Z" fill="#5E1214"/>
</svg>
