<svg width="24" height="24" viewBox="0 0 24 24" fill="none" xmlns="http://www.w3.org/2000/svg">
<path d="M14.4437 6.07184L19.8641 6.0465C20.0662 6.04556 20.2257 6.20946 20.2266 6.40275L20.2441 10.0751C20.2519 11.7287 18.9086 13.0737 17.2414 13.0815L11.821 13.1068C11.6189 13.1078 11.4593 12.9439 11.4584 12.7506L11.441 9.07823C11.4331 7.42459 12.7764 6.07963 14.4437 6.07184Z" fill="black"/>
<path d="M19.4013 21.1489H15.1934C13.122 21.1489 11.4403 19.481 11.4403 17.4264V14.5486C11.4403 14.3124 11.6279 14.1263 11.8661 14.1263H16.074C18.1454 14.1263 19.8271 15.7942 19.8271 17.8488V20.7266C19.8271 20.9628 19.6395 21.1489 19.4013 21.1489Z" fill="black"/>
<path d="M5.75316 14.1404H9.96104C10.1992 14.1404 10.3869 14.3265 10.3869 14.5627V17.4405C10.3869 19.4951 8.70517 21.163 6.63371 21.163H2.42584C2.18766 21.163 2 20.9769 2 20.7407V17.8629C2 15.8084 3.68171 14.1404 5.75316 14.1404Z" fill="black"/>
<path d="M6.63371 6.06543H2.42584C2.19488 6.06543 2 6.25871 2 6.48779V9.36558C2 11.413 3.68892 13.0881 5.75316 13.0881H9.96104C10.192 13.0881 10.3869 12.8948 10.3869 12.6657V9.78794C10.3869 7.74056 8.69796 6.06543 6.63371 6.06543Z" fill="black"/>
<path d="M19.6976 2.83691V5.13485C20.044 5.12053 20.4121 5.12053 20.8091 5.13485C21.2349 5.14917 21.6319 5.18496 22 5.22791C21.3793 5.85072 20.7369 6.47352 20.0657 7.11064C19.445 7.69765 18.8315 8.26319 18.218 8.81441C16.7456 8.65692 16.5074 9.00769 15.5402 10.0242C14.7246 10.9549 13.5554 11.7709 12.913 12.766C13.577 14.119 12.2273 15.7154 10.7838 15.2858C9.24646 14.9637 8.90724 12.766 10.2569 11.9929C12.2634 11.0837 11.4695 12.8662 13.5121 10.5039C14.5586 9.27972 16.3847 8.44216 15.9877 6.60954C17.0631 5.26371 18.4778 4.09684 19.6976 2.84407V2.83691Z" fill="white"/>
<path d="M5.85645 13.5964C5.85645 10.7129 8.2118 8.37842 11.1162 8.37842C11.6565 8.37842 12.183 8.45957 12.6788 8.61489L12.6789 8.61476C13.2125 8.77874 13.7416 9.00278 14.0826 9.28974L13.2455 10.2718C13.1101 10.1579 12.7875 9.99536 12.2962 9.84436L12.2924 9.84319C11.9233 9.72727 11.5272 9.66552 11.1162 9.66552C8.92499 9.66552 7.15182 11.4258 7.15182 13.5964C7.15182 15.7669 8.92499 17.5273 11.1162 17.5273C13.3074 17.5273 15.0806 15.7669 15.0806 13.5964C15.0806 12.7689 14.905 12.0314 14.5454 11.6034L15.5398 10.7786C16.1906 11.5533 16.3759 12.6628 16.3759 13.5964C16.3759 16.4799 14.0206 18.8143 11.1162 18.8143C8.21179 18.8143 5.85645 16.4799 5.85645 13.5964Z" fill="white"/>
</svg>
