<svg width="24" height="24" viewBox="0 0 24 24" fill="none" xmlns="http://www.w3.org/2000/svg">
<path d="M7.82758 22.0001C7.11226 20.8862 6.71734 19.551 5.86045 19.1379C5.01846 18.7249 3.70704 19.2338 2.41797 19.3592C3.44624 17.3159 4.4 15.4202 5.46553 13.2883C5.61456 13.8342 5.70397 14.1514 5.78594 14.4686C6.05418 15.5013 6.7397 15.966 7.79778 15.9218C8.13308 15.907 8.46094 15.8332 8.78879 15.8259C9.84687 15.8111 10.443 16.6742 10.0033 17.5741C9.30293 19.0125 8.58761 20.4436 7.81268 22.0001H7.82758Z" fill="black"/>
<path d="M21.582 19.4035C20.591 19.2634 19.8086 19.1896 19.0411 19.0421C18.2811 18.9019 17.7967 19.1085 17.454 19.8388C17.1261 20.5322 16.6716 21.1592 16.1798 21.9632C15.3527 20.2961 14.6001 18.8282 13.9072 17.3455C13.5495 16.5931 14.3319 15.7226 15.2857 15.7521C17.603 15.8185 17.6626 15.7743 18.4748 13.3179C19.5329 15.3833 20.509 17.3012 21.582 19.4035Z" fill="black"/>
<path d="M18.5723 9.92439C17.9538 9.24575 17.9016 8.58186 18.4456 7.82945C19.0864 6.93688 18.7064 6.36889 17.7824 6.05907C16.9404 5.77138 16.5157 5.2624 16.4859 4.34033C16.4561 3.30761 15.778 2.96829 14.8541 3.26335C13.9301 3.55841 13.2595 3.32236 12.6709 2.60684C11.9928 1.78066 11.2775 1.81017 10.6069 2.62159C10.0555 3.28548 9.43701 3.55841 8.54286 3.2486C7.68596 2.95353 7.11967 3.38137 7.10477 4.25181C7.08986 5.29191 6.55337 5.8304 5.65177 6.13284C4.76507 6.43527 4.57134 6.99589 5.08547 7.7483C5.61451 8.51547 5.68158 9.22362 5.12273 10.0129C4.56389 10.8096 4.78742 11.4071 5.71138 11.7243C6.59063 12.0193 7.06751 12.5505 7.08986 13.5242C7.11222 14.3577 7.61145 14.8814 8.49815 14.5864C9.61584 14.2176 10.4057 14.5864 11.1135 15.4052C11.5532 15.9142 12.1046 16.0691 12.6112 15.5158C13.4234 14.6233 14.3027 14.07 15.2713 14.5716C16.3741 14.7634 16.7318 14.3061 16.7616 13.5905C16.7989 12.6611 17.1491 12.0636 18.0954 11.7685C19.1833 11.4292 19.3248 10.7506 18.5723 9.91702V9.92439ZM15.9047 9.00232C15.6514 10.5293 14.5933 11.4218 14.3697 11.5989C14.0419 11.8644 12.9093 12.698 11.3222 12.5578C11.0092 12.5283 9.67545 12.4103 8.72914 11.3259C7.49968 9.91702 7.8797 7.98435 8.20755 7.29096C8.31932 7.05491 8.72914 6.21398 9.69035 5.70499C9.99585 5.54271 10.9049 5.06323 11.8885 5.42468C12.1195 5.50583 12.7379 5.77876 13.0807 6.44265C13.1701 6.62707 13.5203 7.31309 13.185 7.93272C12.8795 8.49334 12.1567 8.72939 11.6128 8.65562C10.9198 8.55973 10.741 7.99911 10.2641 8.08763C9.83938 8.16877 9.53388 8.70726 9.48917 9.14985C9.3923 10.0941 10.4727 10.7358 10.5547 10.7875C11.8512 11.5472 13.4309 10.6989 13.6395 10.5809C13.8258 10.4776 14.9584 9.8285 15.3384 8.53022C15.8004 6.98852 14.8913 5.57959 14.9584 5.55009C15.0329 5.52058 16.2251 7.06966 15.9047 8.99494V9.00232Z" fill="black"/>
</svg>
