<svg width="24" height="24" viewBox="0 0 24 24" fill="none" xmlns="http://www.w3.org/2000/svg">
<path d="M19.3611 2H5.83506C5.20344 2 4.69141 2.48708 4.69141 3.08793V20.9121C4.69141 21.5129 5.20344 22 5.83506 22H19.3611C19.9927 22 20.5048 21.5129 20.5048 20.9121V3.08793C20.5048 2.48708 19.9927 2 19.3611 2Z" fill="black"/>
<path d="M6.32464 5.81152V6.87492H6.28165C5.38736 6.87492 4.49308 6.87492 3.59879 6.87492C3.58159 6.87492 3.573 6.8831 3.5644 6.86674C3.5128 6.8013 3.49561 6.62134 3.49561 6.32686C3.49561 6.04874 3.5214 5.88514 3.5558 5.82788C3.5644 5.81152 3.58159 5.8197 3.59879 5.8197C4.49308 5.8197 5.38736 5.8197 6.28165 5.8197C6.29884 5.8197 6.30744 5.8197 6.32464 5.8197V5.81152Z" fill="white"/>
<path d="M15.5338 12.4293C15.1898 13.5499 13.3325 13.8526 13.1003 13.8771C13.0315 13.8853 12.9799 13.8935 12.9455 13.8935C12.0684 13.9998 10.1939 13.8935 9.71234 12.781C9.32539 11.8812 10.0219 10.7687 10.2111 10.4661C10.3917 10.188 11.071 9.10002 12.292 9.00186C13.4357 8.91188 14.2268 9.74623 14.5535 10.098C14.8287 10.3925 15.8347 11.4558 15.5424 12.4293H15.5338Z" fill="white"/>
<path d="M12.2945 11.3477C12.4139 10.8269 12.2362 10.3477 11.8975 10.2774C11.5588 10.207 11.1874 10.5723 11.0679 11.0931C10.9484 11.6139 11.1261 12.0931 11.4648 12.1634C11.8036 12.2338 12.175 11.8685 12.2945 11.3477Z" fill="black"/>
<path d="M13.6314 12.0711C13.912 11.9861 14.0238 11.5718 13.8812 11.1456C13.7386 10.7194 13.3955 10.4428 13.1149 10.5278C12.8344 10.6128 12.7226 11.0271 12.8652 11.4533C13.0078 11.8795 13.3509 12.1561 13.6314 12.0711Z" fill="black"/>
<path d="M6.32464 11.4727V12.5361H6.28165C5.38736 12.5361 4.49308 12.5361 3.59879 12.5361C3.58159 12.5361 3.573 12.5443 3.5644 12.528C3.5128 12.4543 3.49561 12.2826 3.49561 11.9799C3.49561 11.7018 3.5214 11.5382 3.5558 11.4809C3.5644 11.4646 3.58159 11.4727 3.59879 11.4727C4.49308 11.4727 5.38736 11.4727 6.28165 11.4727C6.29884 11.4727 6.30744 11.4727 6.32464 11.4727Z" fill="white"/>
<path d="M6.32434 17.125V18.1884H6.28135C5.38706 18.1884 4.49278 18.1884 3.59849 18.1884C3.5813 18.1884 3.5727 18.1966 3.5641 18.1802C3.5297 18.1148 3.50391 17.943 3.50391 17.6403C3.50391 17.3622 3.5297 17.1986 3.5641 17.1414C3.5727 17.125 3.5899 17.1332 3.60709 17.1332C4.50138 17.1332 5.39566 17.1332 6.28995 17.1332C6.30714 17.1332 6.31574 17.1332 6.33294 17.1332L6.32434 17.125Z" fill="white"/>
</svg>
