<svg width="24" height="24" viewBox="0 0 24 24" fill="none" xmlns="http://www.w3.org/2000/svg">
<g clip-path="url(#clip0_3723_27519)">
<path d="M0 20.0337C0 20.5605 0.433534 20.9885 0.967114 20.9885H4.40204V10.5068H0V20.0337Z" fill="black"/>
<path d="M4.19083 3C1.87865 3 0 4.85488 0 7.1378V9.24512H4.41315C4.46874 5.97439 5.38027 4.08659 6.32515 3L4.19083 3Z" fill="black"/>
<path d="M16.563 3H8.31473C7.46989 3.42805 5.75799 4.83293 5.68018 9.24512H19.1864C19.1086 4.83293 17.3967 3.42805 16.5519 3H16.563Z" fill="black"/>
<path d="M15.1847 15.2703C15.1847 15.9398 14.64 16.4776 13.9619 16.4776H10.049C9.37089 16.4776 8.82619 15.9398 8.82619 15.2703V10.5068H5.69141V20.9995H19.2088V10.5068H15.1958V15.2812L15.1847 15.2703Z" fill="black"/>
<path d="M19.8094 3H18.5532C19.5092 4.07561 20.4096 5.96341 20.4652 9.24512H24.0002V7.1378C24.0002 4.85488 22.1215 3 19.8094 3Z" fill="black"/>
<path d="M20.4761 20.9995H23.0328C23.5664 20.9995 23.9999 20.5715 23.9999 20.0446V10.5068H20.4761V20.9995Z" fill="black"/>
<path d="M12.0058 14.8973C12.3281 14.8973 12.5838 14.6339 12.5838 14.3265V13.7448C12.9618 13.5363 13.2286 13.1412 13.2286 12.6802C13.2286 12.0107 12.6727 11.4619 11.9946 11.4619C11.3166 11.4619 10.7607 12.0107 10.7607 12.6802C10.7607 13.1412 11.0275 13.5363 11.4055 13.7448V14.3265C11.4055 14.6448 11.6723 14.8973 11.9835 14.8973H12.0058Z" fill="black"/>
<path d="M12.8061 12.0988C12.8061 12.0988 12.9506 12.461 12.7839 12.7902C12.6505 13.0646 12.3948 13.1634 12.3281 13.1963C12.2725 13.2183 11.8835 13.35 11.6167 13.1305C11.5944 13.1195 11.3832 12.9329 11.4388 12.7244C11.461 12.6256 11.55 12.5158 11.65 12.5158C11.7612 12.5158 11.7834 12.6476 11.939 12.6915C12.0613 12.7244 12.2281 12.6915 12.317 12.5817C12.417 12.45 12.3615 12.2854 12.3503 12.2415C12.2948 12.0768 12.1614 12 12.1169 11.9671C11.9057 11.8573 11.6834 11.9232 11.6056 11.9561C11.3721 12.0329 11.2498 12.2085 11.2165 12.2634C11.1164 12.4061 10.9608 12.8341 11.1943 13.1963C11.3721 13.4707 11.6723 13.5476 11.739 13.5695C12.0947 13.6573 12.3837 13.5037 12.4615 13.4598C12.5282 13.4158 12.795 13.2622 12.9062 12.9219C13.0396 12.5158 12.8506 12.1646 12.8172 12.1098L12.8061 12.0988Z" fill="white"/>
</g>
<defs>
<clipPath id="clip0_3723_27519">
<rect width="24" height="18" fill="white" transform="translate(0 3)"/>
</clipPath>
</defs>
</svg>
