<svg width="24" height="24" viewBox="0 0 24 24" fill="none" xmlns="http://www.w3.org/2000/svg">
<path d="M21.5012 18.1297C21.4646 18.5953 21.0618 19.0091 20.5931 19.0239C20.2342 19.0387 19.6996 18.8317 19.89 18.3884C19.9706 18.211 20.139 18.0337 20.3441 18.0263C20.5492 18.0189 20.703 18.2036 20.7835 18.3736C20.9886 18.7874 20.6883 19.3047 20.3514 19.5633C20.0951 19.7628 19.7802 19.8367 19.4579 19.7998C19.3407 19.785 19.2309 19.7555 19.121 19.7111C19.0991 19.7111 19.0844 19.6963 19.0624 19.6889C18.9965 19.6594 19.1064 19.7111 19.0478 19.6889C19.0332 19.6816 19.0112 19.6742 18.9965 19.6668C18.7109 19.5116 18.4473 19.955 18.7402 20.1102C19.3115 20.4205 20.0585 20.4057 20.5931 20.0215C21.1717 19.6003 21.5745 18.8096 21.2229 18.115C21.0618 17.8046 20.7762 17.5534 20.4173 17.5164C20.0365 17.4795 19.6923 17.7233 19.4945 18.0411C19.3188 18.3293 19.2602 18.7135 19.4506 19.0165C19.641 19.3195 19.9633 19.4746 20.2928 19.519C21.157 19.652 21.9407 19.0091 21.9993 18.1297C22.0212 17.7972 21.5159 17.7972 21.4866 18.1297H21.5012Z" fill="black"/>
<path d="M4.84741 17.3904C4.84741 16.3706 4.83276 15.3509 4.86206 14.3385C4.86206 14.1094 4.96459 13.836 5.11839 13.6734C7.20564 11.5083 9.30754 9.35791 11.4094 7.20014C11.8122 6.79371 11.9953 6.78633 12.3908 7.19275C14.522 9.3653 16.6532 11.5304 18.7698 13.7104C18.8943 13.8434 18.9895 14.0651 18.9895 14.2424C19.0041 16.3411 18.9895 18.4397 19.0041 20.5384C19.0041 20.9891 18.8137 21.1665 18.3743 21.1665C17.034 21.1591 15.6938 21.1591 14.3536 21.1665C13.9068 21.1665 13.7311 20.967 13.7384 20.531C13.7457 19.4373 13.7384 18.3363 13.7384 17.2352C13.7384 16.6736 13.5919 16.5332 13.0353 16.5332C12.281 16.5332 11.5193 16.5332 10.765 16.5332C10.2816 16.5332 10.1205 16.7032 10.1132 17.1983C10.1132 18.2993 10.1132 19.393 10.1132 20.494C10.1132 21.063 10.0106 21.1665 9.44669 21.1665C8.13575 21.1665 6.83213 21.1665 5.52119 21.1665C4.96459 21.1665 4.86206 21.0556 4.86206 20.4866C4.86206 19.4521 4.86206 18.4176 4.86206 17.383L4.84741 17.3904Z" fill="black"/>
<path d="M21.8382 12.809C21.8382 13.4076 21.6697 13.7105 21.3036 13.8805C20.93 14.0505 20.5565 14.0135 20.2489 13.7253C19.8828 13.378 19.5312 13.0085 19.1797 12.6464C17.0558 10.4665 14.9393 8.28658 12.8154 6.11404C12.127 5.40464 11.6729 5.40464 10.9845 6.11404C8.63356 8.53044 6.27533 10.9468 3.92442 13.3632C3.79992 13.4889 3.69006 13.6219 3.55091 13.7327C3.14811 14.0652 2.59883 14.0431 2.26194 13.681C1.92505 13.3263 1.90308 12.7573 2.25462 12.3804C2.83319 11.7523 3.44105 11.1464 4.0416 10.5404C6.33392 8.17574 8.63356 5.81107 10.9332 3.45378C11.7315 2.63354 12.105 2.62615 12.896 3.43162C15.7302 6.33573 18.5572 9.23245 21.3841 12.144C21.6038 12.373 21.7503 12.6686 21.8382 12.8016V12.809Z" fill="black"/>
</svg>
