<svg width="24" height="24" viewBox="0 0 24 24" fill="none" xmlns="http://www.w3.org/2000/svg">
<path d="M14.5154 12.7824C14.2565 13.6932 12.8409 13.9384 12.6683 13.956C12.6165 13.956 12.5733 13.9647 12.5475 13.9735C11.8742 14.0611 10.4587 13.9735 10.0875 13.0714C9.79405 12.3446 10.3206 11.4338 10.4673 11.1973C10.6054 10.9696 11.1233 10.0939 12.0468 10.0063C12.9186 9.92747 13.5142 10.6106 13.7645 10.8908C13.9716 11.1273 14.7398 11.9943 14.5154 12.7824Z" fill="#FFEFCD"/>
<path d="M12.0527 11.9031C12.1442 11.4778 12.0107 11.0871 11.7545 11.0303C11.4984 10.9736 11.2166 11.2724 11.1251 11.6977C11.0336 12.123 11.1671 12.5138 11.4233 12.5705C11.6794 12.6272 11.9612 12.3284 12.0527 11.9031Z" fill="#F06724"/>
<path d="M13.0684 12.4862C13.2819 12.4173 13.367 12.0812 13.2586 11.7355C13.1501 11.3898 12.8891 11.1655 12.6756 11.2345C12.4621 11.3035 12.377 11.6396 12.4854 11.9852C12.5939 12.3309 12.8549 12.5552 13.0684 12.4862Z" fill="#F06724"/>
<path d="M4.49381 4.96209C5.00025 5.15148 5.42099 5.2727 5.80277 5.46966C6.69878 5.93178 7.50908 6.10602 8.42068 5.39391C8.83363 5.06815 9.12191 4.82573 9.16866 4.31058C9.2232 3.74241 9.34007 3.18938 9.39461 2.62121C9.45694 2.19697 9.65172 2 10.1114 2C11.3736 2.01515 12.6358 2.01515 13.898 2C14.3266 2 14.5369 2.17424 14.5915 2.58333C14.6772 3.27271 14.8174 3.95453 14.8876 4.64391C14.9187 4.99997 15.207 5.20451 15.5031 5.3636C15.8147 5.53027 16.1498 5.80299 16.4926 5.8939C16.9445 6.00754 17.4042 5.84845 17.8015 5.6439C18.2379 5.41663 18.7209 5.29542 19.165 5.09088C19.5079 4.93179 19.7416 5.04542 19.9052 5.31815C20.5831 6.43935 21.2454 7.56055 21.9076 8.68175C22.1024 9.00751 21.97 9.24993 21.6895 9.46205C21.1363 9.87114 20.5909 10.2954 20.0455 10.712C19.9909 10.7575 19.9286 10.7954 19.8741 10.8484C19.5858 11.0908 19.6092 12.962 19.913 13.1969C20.4584 13.6135 20.996 14.0453 21.557 14.4393C21.9933 14.7423 22.0868 15.0529 21.7985 15.515C21.1752 16.515 20.5831 17.5377 19.9831 18.5604C19.7572 18.9468 19.4923 19.0832 19.0404 18.8862C18.4093 18.6059 17.7548 18.3786 17.1159 18.1286C17.0847 18.1135 17.0536 18.0908 17.0224 18.0756C16.6328 17.9241 14.9577 18.8635 14.8953 19.265C14.7863 19.9695 14.6694 20.6665 14.5837 21.371C14.5292 21.7953 14.3422 22.0074 13.8825 21.9998C12.6203 21.9847 11.358 21.9847 10.0958 21.9998C9.62835 21.9998 9.44915 21.7877 9.4024 21.3634C9.31669 20.6741 9.2232 19.9847 9.08295 19.3104C8.98166 18.8256 8.37393 18.5907 7.99215 18.3635C7.40001 18.0074 6.87019 17.9998 6.24688 18.3407C5.82614 18.5756 5.32749 18.6892 4.88338 18.8938C4.5016 19.0756 4.24448 18.962 4.05749 18.6438C3.40301 17.5529 2.76411 16.462 2.10963 15.3711C1.90706 15.0302 1.99276 14.7726 2.30442 14.5453C2.90436 14.1059 3.48871 13.6514 4.07307 13.1969C4.40031 12.9469 4.39252 11.0605 4.07307 10.8105C3.51209 10.3787 2.9589 9.93932 2.38233 9.53023C1.98497 9.24993 1.90706 8.96205 2.16417 8.53781C2.79528 7.5151 3.38743 6.47723 4.01074 5.45451C4.12761 5.25754 4.33798 5.11361 4.48602 4.96967L4.49381 4.96209ZM12.0203 15.4999C14.0227 15.4847 15.5966 13.9469 15.6044 12.0075C15.6044 10.0454 13.9915 8.48478 11.9814 8.49994C9.95559 8.51509 8.36614 10.0908 8.39731 12.0454C8.43626 13.9923 10.0257 15.515 12.0203 15.4999Z" fill="#F06724"/>
</svg>
