<svg width="36" height="36" viewBox="0 0 36 36" fill="none" xmlns="http://www.w3.org/2000/svg">
<g clip-path="url(#clip0_4084_10394)">
<path d="M26.586 2.67253C31.3307 2.67253 35.2019 6.51372 35.2019 11.2218C35.2019 19.7711 26.586 24.6585 17.9701 33.2078C9.35418 24.6585 0.738281 19.7711 0.738281 11.2218C0.738281 6.51372 4.60941 2.67253 9.35418 2.67253C13.6621 2.67253 15.8161 4.80985 17.9701 9.08448C20.1241 4.80985 22.278 2.67253 26.586 2.67253Z" fill="#EF6724"/>
<path d="M17.9699 34C17.7891 34 17.5933 33.9402 17.4126 33.7609C15.3188 31.6833 13.2251 29.8599 11.2519 28.0813C8.23933 25.3909 5.40753 22.8949 3.37406 20.2644C1.11464 17.2602 0 14.4503 0 11.2816C0 6.15507 4.18745 2 9.35398 2C13.7222 2 15.9967 4.07753 17.9699 7.56002C19.9431 4.07753 22.2176 2 26.5858 2C31.7523 2 36 6.15507 36 11.2816C36 14.3905 34.9607 17.2602 32.6109 20.2644C30.5774 22.8351 27.7456 25.3909 24.7331 28.0215C22.6996 29.7851 20.6661 31.6235 18.5121 33.7609C18.3916 33.8804 18.1356 34 17.9548 34H17.9699ZM9.35398 3.46474C5.04603 3.46474 1.5364 6.94722 1.5364 11.2219C1.5364 17.3349 6.28117 21.5348 12.3063 26.8557C14.159 28.4998 16.0569 30.2186 18.0301 32.1018C20.0033 30.2036 21.9013 28.4998 23.754 26.8557C29.7188 21.5497 34.4636 17.3349 34.4636 11.2219C34.4636 6.94722 30.954 3.46474 26.5858 3.46474C22.8954 3.46474 20.9222 4.98926 18.6477 9.44325C18.5272 9.68239 18.2711 9.87669 17.9699 9.87669C17.6686 9.87669 17.4126 9.69734 17.292 9.44325C15.0176 4.98926 13.0444 3.46474 9.35398 3.46474Z" fill="#EF6724"/>
<path d="M25.6062 20.2942C24.7325 23.3133 19.8974 24.1204 19.3099 24.2101C19.1292 24.24 18.9936 24.2549 18.9183 24.2699C16.6438 24.5539 11.8087 24.2699 10.5434 21.2657C9.5342 18.8444 11.3568 15.8252 11.8388 15.0181C12.2907 14.2559 14.053 11.3413 17.2162 11.0723C20.1836 10.8182 22.217 13.0751 23.0606 14.0167C23.7836 14.8089 26.3744 17.6935 25.6062 20.2942Z" fill="#FFEECC"/>
<path d="M17.2268 17.3672C17.5372 15.9559 17.0772 14.6577 16.1994 14.4676C15.3216 14.2775 14.3584 15.2676 14.048 16.6789C13.7377 18.0903 14.1976 19.3885 15.0754 19.5785C15.9532 19.7686 16.9164 18.7786 17.2268 17.3672Z" fill="#EF6724"/>
<path d="M20.6745 19.2923C21.3958 19.0644 21.6839 17.9551 21.318 16.8146C20.952 15.674 20.0706 14.9342 19.3493 15.1621C18.6279 15.39 18.3398 16.4993 18.7058 17.6398C19.0717 18.7803 19.9531 19.5201 20.6745 19.2923Z" fill="#EF6724"/>
</g>
<defs>
<clipPath id="clip0_4084_10394">
<rect width="36" height="32" fill="white" transform="translate(0 2)"/>
</clipPath>
</defs>
</svg>
