<svg width="36" height="36" viewBox="0 0 36 36" fill="none" xmlns="http://www.w3.org/2000/svg">
<g clip-path="url(#clip0_4084_10370)">
<path d="M10.1538 11.1324C11.021 9.5577 11.8252 8.10772 12.6293 6.64215C12.7082 6.48624 12.8185 6.36151 12.8816 6.2056C13.1497 5.39486 13.6384 5.05185 14.553 5.12981C14.9629 5.16099 15.4044 4.80239 15.8459 4.66207C16.0982 4.58412 16.4293 4.47498 16.6185 4.56853C18.4318 5.504 20.2451 6.47065 22.0268 7.46848C22.2949 7.62439 22.4999 7.9674 22.6418 8.27922C22.894 8.8561 23.0517 9.46415 23.2725 10.0722C23.5405 10.8362 23.3198 11.1636 22.5472 11.1636C18.6053 11.1636 14.6633 11.1636 10.7214 11.1636C10.5795 11.1636 10.4219 11.1636 10.1696 11.1636L10.1538 11.1324Z" fill="#F8E270"/>
<path d="M7.06548 11.4594C7.09702 11.3502 7.11279 11.2567 7.16009 11.1631C9.06797 7.6707 10.9759 4.17828 12.8995 0.685862C13.3568 -0.124878 13.3883 -0.140469 14.2398 0.280492C17.6298 1.96434 21.0198 3.66377 24.4257 5.36321C25.7344 6.01804 27.0431 6.67287 28.3991 7.34329C27.6738 8.65295 27.0431 9.96261 26.2389 11.1475C26.0339 11.4749 25.3402 11.4749 24.741 11.5373C25.3559 10.5863 24.8987 9.88465 24.4887 9.15187C24.3941 8.99595 24.3153 8.80886 24.2837 8.62177C24.1576 7.34329 23.3692 6.6261 22.2497 6.096C20.4364 5.22289 18.6862 4.27183 16.9045 3.32077C16.3053 3.00895 15.7535 2.97776 15.2489 3.4455C14.6497 3.99119 13.9559 4.1471 13.1833 4.08474C12.663 4.03796 12.3476 4.27183 12.1111 4.70838C11.0232 6.67287 9.91943 8.62177 8.81569 10.5863C8.27959 11.5529 8.29536 11.5529 7.06548 11.4282V11.4594Z" fill="#C8D24A"/>
<path d="M30.5996 10.7998C32.5878 10.7998 34.2002 12.4122 34.2002 14.4004V18H25.2002C22.2179 18 19.7998 20.4181 19.7998 23.4004C19.8 26.3825 22.218 28.7998 25.2002 28.7998H34.2002V32.4004C34.2 34.3884 32.5877 36 30.5996 36H5.40039C3.4123 36 1.80002 34.3884 1.7998 32.4004V14.4004C1.7998 12.4122 3.41217 10.7998 5.40039 10.7998H30.5996Z" fill="#F06724"/>
<path d="M21.6 23.4C21.6 21.4118 23.1177 19.8 26.1 19.8H36V27H26.1C23.1177 27 21.6 25.3883 21.6 23.4Z" fill="#F06724"/>
<path d="M27.6895 23.995C27.4359 24.8852 26.0157 25.1234 25.8381 25.1485C25.7874 25.1485 25.7494 25.1485 25.724 25.1611C25.0519 25.2488 23.6317 25.1611 23.2639 24.2833C22.9723 23.5686 23.5049 22.6909 23.6444 22.4527C23.7839 22.227 24.3038 21.3743 25.2295 21.2991C26.1044 21.2239 26.7004 21.8884 26.954 22.1643C27.1696 22.4025 27.9305 23.2426 27.7022 24.0075L27.6895 23.995Z" fill="#FFEECC"/>
<path d="M25.2279 23.1422C25.319 22.7295 25.1821 22.3494 24.9221 22.2933C24.662 22.2372 24.3774 22.5263 24.2863 22.939C24.1953 23.3517 24.3322 23.7318 24.5922 23.7879C24.8522 23.844 25.1368 23.5549 25.2279 23.1422Z" fill="#EF6724"/>
<path d="M26.2382 23.7159C26.4517 23.6486 26.537 23.3213 26.4286 22.9848C26.3203 22.6483 26.0593 22.4299 25.8458 22.4972C25.6322 22.5644 25.5469 22.8917 25.6553 23.2282C25.7637 23.5648 26.0246 23.7831 26.2382 23.7159Z" fill="#EF6724"/>
</g>
<defs>
<clipPath id="clip0_4084_10370">
<rect width="36" height="36" fill="white"/>
</clipPath>
</defs>
</svg>
