<svg width="2000" height="2000" viewBox="0 0 2000 2000" fill="none" xmlns="http://www.w3.org/2000/svg">
<path d="M1147.72 572.635C1097.73 572.635 1055.22 604.726 1039.65 649.471C1027.04 644.756 1013.45 642.151 999.24 642.151C983.664 642.151 968.791 645.294 955.239 650.918C940.077 605.429 897.234 572.635 846.706 572.635C783.494 572.635 732.264 623.914 732.264 687.186C732.264 750.457 783.494 801.736 846.706 801.736C862.281 801.736 877.113 798.635 890.665 792.969C902.439 788.048 913.222 781.225 922.642 772.871C946.026 752.029 960.776 721.882 961.065 688.22C972.385 681.851 985.399 678.295 999.281 678.295C1011.55 678.295 1023.08 681.065 1033.37 686.111C1033.32 686.483 1033.32 686.813 1033.32 687.186C1033.32 722.874 1049.64 754.8 1075.26 775.766C1084.8 783.623 1095.63 789.909 1107.36 794.334C1119.88 799.09 1133.51 801.695 1147.77 801.695C1210.98 801.695 1262.21 750.375 1262.21 687.144C1262.21 623.914 1210.98 572.594 1147.77 572.594L1147.72 572.635ZM884.839 755.668C873.519 762.036 860.505 765.593 846.706 765.593C803.449 765.593 768.331 730.525 768.331 687.186C768.331 643.847 803.449 608.779 846.706 608.779C884.385 608.779 915.908 635.411 923.303 671.016C924.419 676.268 924.997 681.644 924.997 687.186C924.997 716.63 908.76 742.228 884.839 755.668ZM1147.72 765.593C1135.5 765.593 1123.97 762.822 1113.64 757.777C1087.45 745.123 1069.39 718.243 1069.39 687.186C1069.39 680.61 1070.18 674.201 1071.75 668.08C1080.3 634.004 1111.08 608.82 1147.72 608.82C1190.98 608.82 1226.06 643.888 1226.06 687.227C1226.06 730.566 1191.02 765.634 1147.72 765.634V765.593Z" fill="#F1C837"/>
</svg>
