<svg width="24" height="24" viewBox="0 0 24 24" fill="none" xmlns="http://www.w3.org/2000/svg">
<path fill-rule="evenodd" clip-rule="evenodd" d="M5.03 13.2303L5.74 7.65903C5.7911 7.25822 5.92606 6.87204 6.13647 6.52462C6.34688 6.1772 6.62821 5.876 6.96287 5.63984C7.29753 5.40368 7.67834 5.23764 8.0815 5.15209C8.48466 5.06654 8.90151 5.06332 9.306 5.14264C10.163 5.31105 11.124 5.65179 12 5.65179C12.876 5.65179 13.837 5.31105 14.694 5.14264C15.0984 5.06347 15.5152 5.06681 15.9182 5.15243C16.3212 5.23804 16.7019 5.40411 17.0365 5.64026C17.371 5.8764 17.6523 6.17755 17.8626 6.5249C18.0729 6.87224 18.2079 7.25832 18.259 7.65903L18.971 13.2303C20.107 13.5084 22 14.0469 22 15.4814C22 17.0441 19.787 17.5591 18.58 17.8215C16.862 18.1955 14.536 18.4188 12 18.4188C9.464 18.4188 7.138 18.1955 5.42 17.8215C4.212 17.5591 2 17.0441 2 15.4814C2 14.0469 3.893 13.5084 5.03 13.2303ZM5.853 15.9102C5.228 15.7741 4.743 15.6263 4.398 15.4814C4.743 15.3365 5.228 15.1876 5.853 15.0525C7.391 14.7176 9.565 14.5022 12 14.5022C14.435 14.5022 16.609 14.7176 18.147 15.0525C18.772 15.1886 19.257 15.3365 19.602 15.4814C19.258 15.6263 18.772 15.7741 18.147 15.9102C16.609 16.2451 14.435 16.4605 12 16.4605C9.565 16.4605 7.391 16.2451 5.853 15.9102Z" fill="currentColor"/>
</svg>
