<svg width="24" height="24" viewBox="0 0 24 24" fill="none" xmlns="http://www.w3.org/2000/svg">
<path d="M11.9984 5.3994C11.7713 5.39924 11.5487 5.46355 11.3567 5.58484C11.1647 5.70614 11.011 5.87944 10.9136 6.0846C10.8641 6.19334 10.7934 6.29112 10.7056 6.37225C10.6179 6.45338 10.5149 6.51623 10.4027 6.55713C10.2904 6.59803 10.1711 6.61617 10.0518 6.61049C9.9324 6.60481 9.81538 6.57541 9.70751 6.52403C9.59964 6.47264 9.50308 6.40029 9.42346 6.31119C9.34385 6.22209 9.28277 6.11804 9.24379 6.00509C9.20482 5.89214 9.18872 5.77256 9.19645 5.65332C9.20417 5.53408 9.23556 5.41758 9.28879 5.3106C9.48534 4.8983 9.77344 4.53632 10.1311 4.25226C10.4888 3.9682 10.9066 3.76957 11.3528 3.67151C11.7989 3.57345 12.2615 3.57855 12.7053 3.68642C13.1491 3.79429 13.5625 4.00209 13.9138 4.29396C14.2652 4.58583 14.5452 4.95407 14.7326 5.37061C14.9201 5.78715 15.0099 6.24098 14.9953 6.69751C14.9807 7.15403 14.862 7.6012 14.6484 8.0049C14.4347 8.4086 14.1317 8.75819 13.7624 9.027C13.4828 9.2298 13.25 9.423 13.0904 9.6186C12.932 9.8082 12.8984 9.9354 12.8984 10.0182C12.8984 10.1718 12.9824 10.3122 13.1156 10.3854L20.9492 14.6814C21.4178 14.9383 21.7876 15.3439 22.0003 15.8342C22.213 16.3244 22.2565 16.8716 22.124 17.3893C21.9914 17.907 21.6903 18.3659 21.2682 18.6936C20.846 19.0214 20.3268 19.1993 19.7924 19.1994H4.20439C3.66926 19.2001 3.14922 19.0221 2.72666 18.6938C2.30411 18.3654 2.0032 17.9055 1.87163 17.3868C1.74006 16.8681 1.78535 16.3203 2.00032 15.8302C2.21529 15.3402 2.58765 14.9359 3.05839 14.6814L9.47119 11.2086C9.57525 11.1504 9.68986 11.1134 9.80834 11.0998C9.92681 11.0863 10.0468 11.0964 10.1613 11.1296C10.2759 11.1628 10.3827 11.2185 10.4755 11.2933C10.5684 11.3681 10.6454 11.4607 10.7022 11.5655C10.7589 11.6704 10.7943 11.7855 10.8062 11.9042C10.8181 12.0228 10.8063 12.1427 10.7715 12.2567C10.7367 12.3708 10.6795 12.4768 10.6034 12.5686C10.5273 12.6604 10.4336 12.7361 10.328 12.7914L3.91639 16.2642C3.79783 16.328 3.70399 16.4295 3.64978 16.5527C3.59557 16.676 3.58411 16.8138 3.61721 16.9442C3.65031 17.0747 3.72608 17.1904 3.83247 17.2729C3.93887 17.3553 4.06977 17.3999 4.20439 17.3994H19.7924C19.9273 17.3995 20.0584 17.3546 20.165 17.2719C20.2716 17.1892 20.3476 17.0734 20.381 16.9427C20.4144 16.812 20.4034 16.6739 20.3496 16.5501C20.2958 16.4264 20.2024 16.3241 20.084 16.2594L12.2516 11.9634C11.9031 11.7722 11.6124 11.4909 11.4097 11.1489C11.2071 10.807 11.1 10.4169 11.0996 10.0194C11.0996 9.3738 11.3876 8.8542 11.7008 8.4738C12.0104 8.0982 12.3944 7.797 12.704 7.5714C12.9094 7.42266 13.0625 7.21264 13.1411 6.97149C13.2198 6.73035 13.22 6.47049 13.1417 6.22921C13.0635 5.98794 12.9108 5.77766 12.7056 5.62858C12.5004 5.47949 12.2532 5.39926 11.9996 5.3994" fill="currentColor"/>
</svg>
