<svg width="24" height="24" viewBox="0 0 24 24" fill="none" xmlns="http://www.w3.org/2000/svg">
<g clip-path="url(#clip0_4199_24671)">
<path fill-rule="evenodd" clip-rule="evenodd" d="M14.0058 3.8577L16.6063 8.24627H7.39376L9.99434 3.8577H14.0058ZM2.59548 9.96056L11.376 19.8623L11.4738 19.9566L7.28919 9.96056H2.59548ZM16.7435 9.96056L12.5315 19.9514L12.6223 19.8623L21.4029 9.96056H16.7435ZM20.6829 2.9337C20.4267 2.55835 20.0828 2.25116 19.681 2.03877C19.2792 1.82638 18.8317 1.71519 18.3772 1.71484H5.62119C4.69891 1.71484 3.83834 2.17084 3.31891 2.9337L0.617193 6.9057C0.171035 7.56177 -0.0435671 8.34791 0.00735444 9.13968C0.058276 9.93145 0.371812 10.6836 0.898336 11.2771L9.77148 21.2851C10.0509 21.5998 10.3938 21.8518 10.7776 22.0243C11.1615 22.1968 11.5775 22.286 11.9983 22.286C12.4192 22.286 12.8352 22.1968 13.2191 22.0243C13.6029 21.8518 13.9458 21.5998 14.2252 21.2851L23.1001 11.2771C23.6266 10.6836 23.9401 9.93145 23.991 9.13968C24.042 8.34791 23.8274 7.56177 23.3812 6.9057L20.6829 2.9337Z" fill="currentColor"/>
</g>
<defs>
<clipPath id="clip0_4199_24671">
<rect width="24" height="24" fill="white"/>
</clipPath>
</defs>
</svg>
