<svg width="2000" height="2000" viewBox="0 0 2000 2000" fill="none" xmlns="http://www.w3.org/2000/svg">
<path d="M1378.91 1201.58C1386.9 1201.58 1393.38 1195.11 1393.38 1187.13C1393.38 1179.15 1386.9 1172.67 1378.91 1172.67C1370.93 1172.67 1364.45 1179.15 1364.45 1187.13C1364.45 1195.11 1370.93 1201.58 1378.91 1201.58Z" fill="#E59449"/>
<path d="M1394.78 1271.2C1392.26 1270.75 1389.97 1269.43 1388.32 1267.46L1349.98 1221.41C1348.12 1219.19 1347.26 1216.35 1347.51 1213.48C1347.78 1210.6 1349.15 1207.97 1351.39 1206.11L1397.47 1167.8C1399.95 1165.77 1403.16 1164.9 1406.32 1165.47C1408.83 1165.92 1411.12 1167.24 1412.78 1169.21L1451.11 1215.27C1452.97 1217.49 1453.83 1220.32 1453.58 1223.2C1453.31 1226.07 1451.95 1228.7 1449.7 1230.54L1403.62 1268.85C1401.15 1270.88 1397.93 1271.75 1394.78 1271.18V1271.2Z" fill="#FAB829"/>
<path d="M1398.18 1268.64C1395.67 1268.19 1393.38 1266.87 1391.72 1264.9L1353.39 1218.85C1351.53 1216.63 1350.67 1213.79 1350.92 1210.92C1351.19 1208.04 1352.55 1205.41 1354.79 1203.55L1400.88 1165.24C1403.35 1163.21 1406.57 1162.34 1409.72 1162.91C1412.24 1163.36 1414.53 1164.68 1416.18 1166.65L1454.51 1212.71C1456.37 1214.93 1457.23 1217.76 1456.98 1220.64C1456.71 1223.51 1455.35 1226.14 1453.11 1227.98L1407.02 1266.29C1404.55 1268.32 1401.33 1269.19 1398.18 1268.62V1268.64Z" fill="#FED13B"/>
<path d="M1404.33 1169.41L1358.26 1207.7C1355.95 1209.62 1355.64 1213.05 1357.56 1215.36L1395.87 1261.39C1397.79 1263.7 1401.22 1264.02 1403.53 1262.1L1449.6 1223.81C1451.91 1221.89 1452.22 1218.46 1450.3 1216.15L1411.99 1170.11C1410.07 1167.81 1406.64 1167.49 1404.33 1169.41Z" fill="#EF6724"/>
<path d="M1430.62 1193.59C1430.85 1194.36 1430.78 1195.24 1430.44 1196.01C1430.1 1196.78 1429.45 1197.42 1428.74 1197.73C1428.29 1197.94 1428.04 1197.98 1427.56 1198.03C1427.18 1198.07 1426.82 1198.03 1426.48 1197.94C1426.54 1197.96 1426.43 1197.91 1426.43 1197.91C1426.38 1197.91 1426.32 1197.87 1426.27 1197.85C1426.23 1197.82 1426.18 1197.8 1426.11 1197.78C1426.02 1197.71 1425.95 1197.66 1425.89 1197.6C1425.84 1197.55 1425.82 1197.51 1425.8 1197.46C1425.77 1197.42 1425.73 1197.37 1425.7 1197.32C1425.66 1197.21 1425.64 1197.14 1425.59 1197.05C1425.64 1197.19 1425.59 1196.92 1425.57 1196.87C1425.57 1196.78 1425.55 1196.6 1425.55 1196.58C1425.55 1195.83 1425.98 1194.95 1426.61 1194.67C1426.91 1194.56 1427.25 1194.54 1427.54 1194.63C1427.99 1194.76 1428.2 1194.92 1428.52 1195.19C1428.56 1195.22 1428.72 1195.38 1428.67 1195.33C1428.61 1195.26 1428.67 1195.35 1428.7 1195.35C1428.72 1195.4 1428.76 1195.42 1428.79 1195.47C1428.86 1195.56 1428.92 1195.65 1428.97 1195.74C1429.06 1195.87 1429.01 1195.78 1429.08 1195.94C1429.26 1196.4 1429.33 1196.64 1429.35 1197.14C1429.4 1198 1429.13 1198.96 1428.65 1199.75C1428.06 1200.72 1427.06 1201.4 1425.93 1201.7C1425.86 1201.7 1425.77 1201.72 1425.7 1201.74C1425.59 1201.74 1425.48 1201.79 1425.36 1201.79C1425.16 1201.81 1424.96 1201.83 1424.75 1201.83C1424.66 1201.83 1424.59 1201.83 1424.5 1201.83C1424.37 1201.83 1424.68 1201.83 1424.46 1201.83C1424.39 1201.83 1424.32 1201.83 1424.25 1201.83C1423.17 1201.7 1422.89 1203.37 1423.98 1203.53C1426.2 1203.8 1428.63 1202.85 1429.9 1200.99C1431.33 1198.91 1431.69 1195.83 1429.72 1193.97C1428.88 1193.18 1427.65 1192.68 1426.5 1192.93C1425.12 1193.25 1424.21 1194.45 1423.94 1195.78C1423.69 1196.96 1424 1198.34 1425.05 1199.09C1426.02 1199.77 1427.29 1199.88 1428.42 1199.64C1429.9 1199.3 1431.08 1198.46 1431.85 1197.14C1432.62 1195.83 1432.71 1194.36 1432.28 1192.95C1432.14 1192.5 1431.58 1192.3 1431.17 1192.45C1430.71 1192.63 1430.53 1193.11 1430.67 1193.56L1430.62 1193.59Z" fill="#FFEECC"/>
<path d="M1397.6 1194.65C1397.6 1194.65 1397.73 1194.45 1397.82 1194.33C1398.21 1194.54 1398.59 1194.79 1398.98 1195.03C1400.59 1196.12 1401.75 1197.44 1402.58 1198.7C1402.13 1198.93 1401.54 1199.02 1400.95 1198.93H1400.93C1398.91 1198.84 1397.76 1198.64 1397.39 1198.48C1397.3 1198.43 1397.12 1198.36 1396.98 1198.21C1396.89 1198.07 1396.87 1197.91 1396.87 1197.75C1396.85 1197.16 1396.83 1196.78 1396.98 1196.14C1397.08 1195.8 1397.21 1195.24 1397.62 1194.63L1397.6 1194.65Z" fill="#FFEECC"/>
<path d="M1433.77 1216.92C1433.93 1219.53 1433.45 1222.88 1432.89 1224.76C1432.55 1225.87 1432.25 1226.98 1431.91 1228.09C1431.62 1228.97 1431.48 1229.36 1431.37 1230.06C1431.21 1231.01 1431.23 1231.49 1431.16 1232.33C1431.07 1233.25 1431.03 1233.73 1430.82 1234.14C1430.67 1234.43 1430.35 1234.75 1429.74 1235.38C1429.12 1236.02 1428.97 1236.09 1428.83 1236.06C1428.4 1235.97 1428.26 1235.02 1428.26 1234.95C1428.26 1235.11 1428.19 1235.45 1427.95 1235.79C1427.83 1235.95 1427.51 1236.36 1427.24 1236.34C1426.61 1236.29 1426.29 1233.87 1426.15 1232.94C1426.02 1231.9 1425.91 1230.47 1425.95 1228.77C1425.95 1228.77 1425.91 1228.81 1425.86 1228.86C1422.69 1232.3 1418.4 1234.12 1418.4 1234.12C1411.96 1236.86 1404.73 1235.59 1404.69 1234.98C1404.69 1234.86 1404.94 1234.82 1405.46 1234.55C1407.27 1233.55 1409.06 1231.24 1408.81 1228.81C1408.79 1228.52 1408.61 1227.12 1407.5 1226C1404.89 1223.38 1399.99 1225.14 1399.59 1225.28C1398.77 1225.57 1395.05 1227.21 1393.6 1230.54C1393.29 1231.26 1393.22 1231.71 1392.79 1231.9C1392.38 1232.08 1391.58 1232.08 1387.69 1228.32C1386.37 1227.05 1385.15 1225.85 1383.63 1224.03C1382.7 1222.92 1381.72 1221.63 1380.68 1220.09C1379.3 1218.03 1378.3 1216.2 1377.62 1214.84C1377.05 1214.63 1375.63 1214.02 1374.58 1212.5C1373.93 1211.55 1373.7 1210.62 1373.59 1210.06C1375.54 1207.93 1377.46 1205.82 1379.41 1203.69C1378.87 1203.15 1378.32 1202.58 1377.76 1202.04C1378.23 1200.79 1379.28 1198.57 1381.45 1196.55C1383.36 1194.79 1385.21 1193.99 1385.87 1193.74C1388.96 1192.52 1393.35 1192.16 1397.32 1194.06C1397.25 1194.15 1397.18 1194.24 1397.14 1194.33C1396.66 1195.01 1396.5 1195.69 1396.41 1196.03C1396.23 1196.76 1396.25 1197.21 1396.3 1197.8C1396.3 1197.96 1396.32 1198.25 1396.53 1198.55C1396.75 1198.86 1397.07 1199 1397.21 1199.05C1397.77 1199.27 1399.2 1199.45 1400.92 1199.54C1401.54 1199.63 1402.15 1199.54 1402.65 1199.36C1402.76 1199.32 1402.85 1199.27 1402.94 1199.23C1404.03 1201.02 1404.48 1202.65 1404.64 1203.33C1405.75 1202.33 1407.93 1200.63 1411.15 1199.77C1415.86 1198.5 1419.74 1199.82 1421.26 1200.36C1425.54 1201.9 1428.15 1204.66 1429.26 1206.02C1430.87 1208.02 1433.52 1211.94 1433.82 1216.94L1433.77 1216.92Z" fill="#FFEECC"/>
<path d="M1407.82 1230.58C1407.12 1233.5 1403.26 1234.82 1402.76 1234.95C1402.67 1234.98 1402.2 1235.13 1401.54 1235.38C1401.52 1235.38 1401.04 1235.59 1400.72 1235.79C1400.02 1236.24 1399.73 1236.99 1399.54 1237.45C1398.95 1238.96 1399.52 1239.62 1398.8 1240.66C1398.71 1240.8 1398.27 1241.41 1397.89 1241.34C1397.71 1241.32 1397.59 1241.16 1397.16 1240.41C1396.96 1240.1 1396.78 1239.78 1396.62 1239.51C1396.48 1239.91 1396.39 1240.37 1396.39 1240.87C1396.39 1241.5 1396.55 1241.8 1396.39 1242.14C1396.21 1242.47 1395.71 1242.72 1395.37 1242.68C1393.97 1242.52 1393.45 1237.85 1393.4 1237.42C1393.22 1235.63 1393.04 1234.02 1393.76 1232.08C1394.69 1229.56 1396.44 1228.16 1397.14 1227.64C1397.34 1227.48 1398.34 1226.73 1399.84 1226.12C1401.06 1225.64 1402.26 1225.14 1403.78 1225.35C1404.44 1225.44 1406.07 1225.64 1407.12 1227C1408.29 1228.54 1407.86 1230.42 1407.84 1230.56L1407.82 1230.58Z" fill="#FFEECC"/>
<path d="M1409.92 1236.4C1409.97 1236.99 1410.06 1237.47 1410.15 1237.83C1410.26 1238.35 1410.31 1238.6 1410.49 1238.92C1410.56 1239.05 1410.65 1239.17 1410.71 1239.26C1410.94 1239.55 1411.03 1239.6 1411.03 1239.71C1411.03 1239.91 1410.71 1240.14 1410.4 1240.16C1409.97 1240.19 1409.69 1239.82 1409.67 1239.8C1409.69 1239.87 1409.88 1240.32 1409.67 1240.55C1409.56 1240.68 1409.38 1240.68 1409.24 1240.68C1407.93 1240.68 1406.95 1240.07 1406.95 1240.07C1406.11 1239.46 1405.23 1238.49 1404.64 1237.6C1404.37 1237.2 1403.64 1235.99 1403.98 1235.61C1404.19 1235.38 1404.62 1235.68 1406.02 1235.97C1406.59 1236.09 1407.25 1236.15 1408.56 1236.29C1409.13 1236.36 1409.6 1236.38 1409.94 1236.43L1409.92 1236.4Z" fill="#FFEECC"/>
<path d="M1416.27 1235.54C1417.08 1235.29 1418.31 1234.89 1419.71 1234.21C1421.98 1233.12 1423.61 1231.87 1423.73 1232.03C1423.86 1232.21 1420.94 1233.62 1420.62 1235.97C1420.55 1236.49 1420.57 1237.33 1419.96 1237.9C1419.74 1238.13 1419.44 1238.24 1418.9 1238.51C1418.33 1238.76 1417.9 1238.96 1417.7 1238.78C1417.58 1238.67 1417.6 1238.49 1417.63 1238.08C1417.65 1237.76 1417.72 1237.49 1417.79 1237.31C1417.47 1237.56 1417.33 1237.83 1417.29 1238.06C1417.24 1238.26 1417.29 1238.4 1417.22 1238.53C1417.13 1238.69 1416.9 1238.85 1416.31 1238.83C1416.18 1238.53 1416.06 1238.13 1416 1237.65C1415.88 1236.72 1416.13 1235.95 1416.29 1235.57L1416.27 1235.54Z" fill="#FFEECC"/>
<path d="M1379.6 1202.53C1380.71 1204.6 1380.37 1207.11 1378.83 1208.72C1377.51 1210.08 1375.47 1210.6 1373.59 1210.06C1373.32 1209.87 1373 1209.67 1372.71 1209.4C1372.25 1209.04 1371.89 1208.67 1371.57 1208.33C1373.05 1205.75 1374.52 1203.17 1375.99 1200.59C1376.58 1200.7 1377.42 1200.95 1378.3 1201.49C1378.87 1201.83 1379.3 1202.22 1379.62 1202.53H1379.6Z" fill="#EF6724"/>
<path d="M1383.54 1210.69C1381.9 1211.89 1378.87 1212.09 1378.87 1212.09C1377.73 1212.23 1376.42 1212.28 1374.97 1212.03C1374.69 1211.98 1374.42 1211.94 1374.15 1211.87C1374.11 1211.8 1374.08 1211.71 1374.04 1211.64C1373.99 1211.55 1373.95 1211.46 1373.92 1211.37C1373.99 1211.37 1374.04 1211.37 1374.08 1211.37C1378.68 1211.75 1382.11 1210.42 1382.7 1210.06C1382.76 1210.01 1382.83 1209.97 1382.92 1209.92C1383.01 1209.87 1383.35 1209.72 1383.6 1209.92C1383.72 1210.01 1383.83 1210.17 1383.81 1210.35C1383.81 1210.4 1383.78 1210.55 1383.56 1210.74L1383.54 1210.69Z" fill="#EF6724"/>
<path d="M1378.03 1205.41C1378.03 1206.2 1378.03 1207.54 1377.08 1208.42C1376.74 1208.74 1376.35 1208.92 1375.94 1209.04C1375.24 1209.24 1374.49 1209.17 1373.95 1209.13C1373.38 1209.08 1372.81 1209.04 1372.29 1208.85C1372 1208.74 1371.75 1208.58 1371.52 1208.33C1370.34 1207.04 1371.25 1204.78 1371.5 1204.19C1371.93 1203.08 1373.06 1201.11 1374.49 1200.56C1374.56 1200.54 1374.63 1200.52 1374.7 1200.49C1374.97 1200.43 1375.26 1200.4 1375.56 1200.45C1377.35 1200.79 1378.01 1203.76 1378.01 1205.39L1378.03 1205.41Z" fill="#FAE2BA"/>
<path d="M1374.06 1204.5C1374.26 1203.7 1374.06 1202.96 1373.63 1202.86C1373.19 1202.75 1372.67 1203.31 1372.47 1204.11C1372.27 1204.91 1372.46 1205.65 1372.9 1205.76C1373.34 1205.87 1373.86 1205.3 1374.06 1204.5Z" fill="#EF6724"/>
<path d="M1375.84 1205.7C1376.29 1205.65 1376.57 1204.9 1376.46 1204.03C1376.35 1203.16 1375.9 1202.5 1375.45 1202.56C1375.01 1202.61 1374.73 1203.36 1374.84 1204.23C1374.95 1205.1 1375.4 1205.76 1375.84 1205.7Z" fill="#EF6724"/>
<path d="M1385.53 1203.96C1385.8 1202.99 1386.64 1202.1 1387.73 1201.99C1388.34 1201.92 1388.98 1202.13 1389.5 1202.44C1389.84 1202.65 1390.04 1202.81 1390.27 1203.06C1390.7 1203.51 1391.45 1202.85 1390.99 1202.4C1390.11 1201.47 1388.8 1200.88 1387.5 1201.04C1386.1 1201.2 1384.94 1202.33 1384.56 1203.67C1384.37 1204.28 1385.33 1204.6 1385.51 1203.98L1385.53 1203.96Z" fill="#EF6724"/>
<path d="M1426.43 1211.16C1426.31 1211.1 1425.36 1213.91 1422.73 1214.99C1420.51 1215.9 1418.38 1215.08 1418.02 1214.95C1417.63 1214.79 1414.71 1213.57 1414.32 1210.96C1414.3 1210.8 1414 1208.6 1415.41 1207.68C1416.07 1207.25 1417.15 1207.06 1417.74 1207.54C1418.4 1208.08 1417.81 1208.94 1418.45 1210.01C1418.95 1210.85 1420.08 1211.57 1421.19 1211.37C1422.41 1211.14 1422.98 1209.9 1423.14 1209.56C1423.68 1208.36 1423.37 1207.2 1423.23 1206.79C1422.64 1205.05 1420.99 1204.35 1420.42 1204.1C1418.65 1203.35 1417.04 1203.71 1416.59 1203.82C1415.27 1204.14 1412.19 1205.77 1411.58 1209.04C1411.12 1211.55 1412.42 1213.5 1412.73 1213.97C1414.3 1216.31 1416.7 1216.92 1417.43 1217.08C1417.92 1217.19 1420.33 1217.64 1422.71 1216.28C1425.72 1214.59 1426.56 1211.23 1426.43 1211.14V1211.16Z" fill="#EF6724"/>
<path d="M1404.6 1203.3C1404.76 1203.55 1404.96 1203.89 1405.14 1204.32C1405.23 1204.5 1405.32 1204.75 1405.48 1205.18C1405.73 1205.89 1405.91 1206.54 1406.03 1207.13C1406.14 1207.65 1406.25 1208.38 1406.3 1209.24C1406.55 1214.38 1403.67 1218.21 1403.85 1218.32C1403.99 1218.39 1405.75 1216.49 1406.52 1213.59C1406.52 1213.59 1407.48 1210.03 1406.18 1205.39C1406.18 1205.34 1406.18 1205.32 1406.18 1205.32C1406.07 1204.91 1405.91 1204.41 1405.66 1203.92C1405.48 1203.51 1405.28 1203.17 1405.1 1202.87C1405.01 1202.94 1404.92 1203.01 1404.85 1203.1C1404.76 1203.17 1404.69 1203.24 1404.6 1203.3Z" fill="#EF6724"/>
<path d="M1403.39 1197.91C1403.26 1198.25 1402.96 1198.52 1402.58 1198.71C1402.12 1198.93 1401.53 1199.02 1400.94 1198.93H1400.92C1398.9 1198.84 1397.75 1198.64 1397.39 1198.48C1397.29 1198.43 1397.11 1198.37 1396.98 1198.21C1396.89 1198.07 1396.86 1197.91 1396.86 1197.75C1396.84 1197.16 1396.82 1196.78 1396.98 1196.15C1397.07 1195.81 1397.2 1195.24 1397.61 1194.63C1397.68 1194.54 1397.75 1194.42 1397.84 1194.31C1398.11 1193.95 1398.54 1193.47 1399.2 1193.22C1399.31 1193.18 1399.45 1193.13 1399.56 1193.11C1399.88 1193.04 1400.67 1192.86 1401.35 1193.4C1401.92 1193.83 1402.03 1194.49 1402.05 1194.76V1194.9L1402.19 1194.99C1402.62 1195.28 1402.96 1195.65 1403.19 1196.1C1403.55 1196.8 1403.64 1197.41 1403.44 1197.89L1403.39 1197.91Z" fill="#FFEECC"/>
<path d="M1386.07 1190.05C1386.57 1189.69 1387.05 1189.55 1387.34 1189.48C1387.77 1189.39 1388.52 1189.24 1389.22 1189.64C1389.72 1189.94 1389.93 1190.39 1389.99 1190.53C1390.38 1191.34 1390.08 1192.14 1390.04 1192.29C1389.79 1192.29 1389.43 1192.36 1389 1192.41C1388.36 1192.5 1387.39 1192.66 1386.25 1193.04C1385.62 1193.27 1384.76 1193.63 1383.81 1194.2C1383.65 1193.97 1383.42 1193.54 1383.31 1193C1383.24 1192.7 1383.06 1191.7 1383.65 1190.87C1383.76 1190.71 1384.08 1190.28 1384.67 1190.05C1385.32 1189.82 1385.87 1189.98 1386.05 1190.05H1386.07Z" fill="#FFEECC"/>
<path d="M1395.85 1205.3C1395.85 1205.3 1395.98 1205.93 1395.78 1206.75C1395.69 1207.11 1395.55 1207.36 1395.49 1207.49C1395.42 1207.61 1395.19 1208.02 1394.81 1208.36C1394.69 1208.45 1393.54 1209.44 1392.52 1208.99C1392.11 1208.81 1391.63 1208.33 1391.65 1207.79C1391.65 1207.45 1391.88 1207.04 1392.2 1206.95C1392.56 1206.86 1392.7 1207.29 1393.24 1207.34C1393.65 1207.38 1394.19 1207.18 1394.4 1206.72C1394.62 1206.25 1394.35 1205.73 1394.26 1205.59C1393.99 1205.09 1393.51 1204.91 1393.33 1204.87C1392.58 1204.64 1391.93 1205.03 1391.7 1205.16C1391 1205.59 1390.73 1206.23 1390.63 1206.41C1390.27 1207.27 1390.29 1208.58 1391.18 1209.44C1392.13 1210.37 1393.45 1210.15 1393.83 1210.05C1394.1 1209.99 1394.9 1209.78 1395.51 1209.04C1396.07 1208.36 1396.17 1207.61 1396.21 1207.27C1396.32 1206.18 1395.92 1205.27 1395.85 1205.3Z" fill="#EF6724"/>
<path d="M1351.39 1223.06C1335.62 1237.56 1319.86 1252.06 1304.08 1266.56C1302.18 1268.3 1302.09 1271.29 1303.92 1273.13C1307.37 1276.55 1311.04 1280.01 1314.92 1283.5C1323.92 1291.57 1332.8 1298.48 1341.21 1304.41C1342.96 1305.64 1345.34 1305.48 1346.93 1304C1360.57 1291.39 1374.22 1278.77 1387.87 1266.15L1351.42 1223.08L1351.39 1223.06Z" fill="#FED13B"/>
</svg>
