<svg width="2000" height="2000" viewBox="0 0 2000 2000" fill="none" xmlns="http://www.w3.org/2000/svg">
<g clip-path="url(#clip0_3263_33446)">
<path d="M1348.24 1080.01C1356.57 1088.59 1363.86 1097.04 1370.15 1105.05C1371.56 1106.85 1372.92 1108.62 1374.26 1110.37C1383.12 1122.13 1383.84 1139.41 1375.39 1149.76C1366.4 1160.78 1360.91 1173.67 1354.48 1186.62C1346.5 1202.72 1331.6 1215.33 1324.08 1231.61C1318.04 1244.63 1309.16 1266.21 1293.64 1270.37C1286.79 1272.22 1279.21 1268 1275.44 1262.38C1269.73 1253.93 1264.08 1245.51 1258.41 1237.03C1261.23 1244.27 1264.06 1251.85 1266.81 1259.78L1267.06 1260.53C1269.61 1267.95 1272.15 1275.66 1274.59 1283.64C1274.69 1283.9 1274.77 1284.21 1274.84 1284.49C1276.13 1288.78 1277.39 1293.02 1278.59 1297.18C1279.93 1301.98 1281.21 1306.71 1282.42 1311.35C1282.52 1311.74 1282.6 1312.15 1282.73 1312.59C1282.86 1313.02 1282.93 1313.49 1283.06 1313.92C1283.81 1316.8 1284.71 1320.45 1285.71 1324.66C1286.45 1327.79 1287.15 1330.85 1287.81 1333.9C1290.28 1345.15 1275.54 1308.14 1265.55 1311C1197.13 1330.67 1096.62 1311.02 989.217 1311C881.583 1310.94 780.129 1333.7 711.661 1313.97C702.03 1311.2 704.829 1348.88 706.755 1337.91C707.32 1334.67 707.937 1331.36 708.63 1328C709.529 1323.55 710.505 1318.98 711.558 1314.36C711.609 1314.23 711.635 1314.13 711.661 1313.97C712.739 1309.33 713.895 1304.81 715.102 1300.41C716.283 1296.05 717.567 1291.55 718.98 1286.91C720.855 1280.72 722.961 1274.32 725.349 1267.72C725.837 1266.41 726.299 1265.08 726.787 1263.79C729.946 1255.19 733.234 1247.2 736.495 1239.83C731.487 1247.64 726.479 1255.44 721.471 1263.23C720.136 1265.36 718.749 1267.46 717.413 1269.57C713.099 1276.27 706.062 1279.17 699.41 1278.07C695.301 1277.38 691.346 1275.14 688.29 1271.34L661.246 1237.54L615.712 1180.58L600.791 1161.91C600.637 1161.76 600.534 1161.58 600.431 1161.4C594.832 1153.97 594.499 1143.21 599.661 1135.38C599.892 1135 600.174 1134.64 600.431 1134.22C601.792 1132.14 603.205 1130.04 604.694 1127.88C606.98 1124.57 609.369 1121.15 611.885 1117.69C619.076 1107.85 627.243 1097.58 636.489 1087.2C643.551 1079.29 651.23 1071.33 659.577 1063.44C661.94 1061.21 664.328 1058.95 666.794 1056.74C673.856 1050.37 680.842 1044.57 687.725 1039.25C704.521 1026.18 720.521 1016.06 734.646 1008.25C792.328 1030.62 879.596 1056.25 987.59 1057.67C1099.2 1059.16 1189.55 1034.24 1248.42 1012.49C1255.87 1017.11 1263.47 1021.79 1270.89 1026.41C1278.34 1031.03 1285.94 1035.73 1293.39 1040.38C1298.47 1043.49 1303.51 1046.65 1308.62 1049.78" fill="#FFDFAB"/>
<path d="M1345.98 1077.52C1329.34 1099.25 1306 1126.14 1280.11 1149.67C1259.02 1168.82 1238.61 1184.21 1220.09 1196.46C1152.65 1185.31 1074.01 1177.25 986.227 1177.17C897.701 1177.12 818.395 1185.24 750.542 1196.46C728.558 1181.87 703.647 1162.79 678.042 1137.95C660.347 1120.75 647.428 1105.88 634.639 1089.83C641.701 1081.92 650.048 1072.88 658.395 1064.99C660.757 1062.76 663.146 1060.5 665.611 1058.29C678.812 1074.16 693.502 1091.39 716 1109.04C734.594 1123.62 752.314 1134.38 767.647 1142.29C835.525 1136.54 908.59 1133.07 986.202 1133.13C1062.22 1133.18 1133.82 1136.62 1200.47 1142.29C1215.21 1135.59 1234.09 1125.04 1253.76 1108.34C1277.62 1088.11 1296.06 1064.45 1306.3 1048.2C1313.67 1052.74 1320.79 1057.7 1328.13 1062.24C1334.43 1067.77 1340.59 1071.95 1345.96 1077.5L1345.98 1077.52Z" fill="#EA8B24"/>
<path d="M1364.71 1097.68L1264.6 1239.42C1186.86 1231.95 1078.04 1230.23 988.051 1230C898.471 1229.74 814.542 1233.9 737.059 1240.89L608.468 1123.29C608.468 1123.29 592.7 1141.19 596.629 1152.95C604 1174.96 688.494 1294.46 715.717 1295.08C801.829 1289.53 892.718 1286.32 988.025 1286.32C1082.95 1286.35 1192.89 1291.64 1278.67 1297.16C1277.54 1293.48 1275.61 1286.94 1273.58 1280.23C1274.64 1280.34 1275.69 1280.34 1276.82 1280.18C1306.15 1276.61 1377.98 1157.01 1383.71 1131.97C1386.77 1118.62 1364.68 1097.63 1364.68 1097.63L1364.71 1097.68Z" fill="#EA8B24"/>
<path d="M735.211 1008.18C733.721 1008.23 701.85 1027.85 695.866 1033.5C688.983 1039.97 979.525 1175.55 1280.29 1032.09L1248.57 1012.44C1248.57 1012.44 1128.64 1050.97 989.362 1054.97C886.351 1057.93 735.211 1008.21 735.211 1008.21V1008.18Z" fill="#EA8B24"/>
<path d="M1194.1 1133.87H791.045V1133.92C778.923 1142.16 766.775 1150.43 754.653 1158.68C755.604 1173.73 755.244 1197.51 746.384 1224.76C735.34 1258.71 716.515 1281.51 705.215 1293.3L683.5 1351C683.5 1351 788 1416 998.5 1416C1209 1416 1313.5 1351 1313.5 1351L1281 1291C1266.64 1273.9 1246.98 1250.93 1233.98 1215.56C1226.56 1195.35 1222.61 1176.78 1220.48 1161.27C1211.69 1152.13 1202.88 1143.01 1194.1 1133.87Z" fill="#9AB4D8" stroke="#2E3191" stroke-width="3.02" stroke-miterlimit="10"/>
<path d="M791.994 1146.76H1191.69" stroke="#2E3191" stroke-width="3.02" stroke-miterlimit="10"/>
<path d="M884.963 1191.27H1105.47C1108.3 1199.08 1112.97 1209.35 1120.75 1220.11C1130.15 1233.1 1140.5 1241.81 1148.05 1247.2V1275.27C1144.4 1279.41 1142.12 1282.03 1138.47 1286.16C1105.52 1290.81 1072.57 1295.43 1039.62 1300.08C1012.24 1303.94 984.43 1303.94 957.053 1300.08C924.103 1295.43 891.153 1290.81 858.202 1286.16C854.556 1282.03 852.27 1279.41 848.623 1275.27V1248.08C854.53 1244.3 864.366 1236.91 872.559 1224.47C881.368 1211.09 884.039 1198.28 884.963 1191.24V1191.27Z" fill="#9AB4D8" stroke="#2E3191" stroke-width="3.02" stroke-miterlimit="10"/>
<path d="M757.759 1000.66C757.168 1000.5 745.046 997.498 736.545 1005.77C730.818 1011.34 730.407 1018.45 730.33 1020.2C731.486 1036.28 733.335 1053.33 736.083 1071.23C740.783 1101.87 747.306 1129.63 754.471 1154.18C766.208 1153.08 777.919 1152 789.656 1150.9C782.67 1126.86 776.019 1100.84 770.214 1072.98C764.924 1047.63 760.84 1023.46 757.733 1000.66H757.759Z" fill="#9AB4D8" stroke="#2E3191" stroke-width="3.02" stroke-miterlimit="10"/>
<path d="M744.199 1113.12C745.92 1120.03 747.615 1126.94 749.336 1133.85C762.767 1132.03 776.225 1130.2 789.657 1128.38C788.064 1121.65 786.472 1114.9 784.88 1108.17L744.199 1113.12Z" fill="#9AB4D8" stroke="#2E3191" stroke-width="3.02" stroke-miterlimit="10"/>
<path d="M785.931 1107.91L740.216 1112.3C735.26 1112.79 730.868 1109.22 730.38 1104.34C729.892 1099.46 733.513 1095.12 738.47 1094.66L784.184 1090.26C789.141 1089.78 793.532 1093.35 794.02 1098.22C794.508 1103.1 790.887 1107.44 785.931 1107.91Z" fill="#9AB4D8" stroke="#2E3191" stroke-width="3.02" stroke-miterlimit="10"/>
<path d="M771.243 1165.92C784.59 1165.92 795.41 1155.25 795.41 1142.09C795.41 1128.93 784.59 1118.26 771.243 1118.26C757.896 1118.26 747.076 1128.93 747.076 1142.09C747.076 1155.25 757.896 1165.92 771.243 1165.92Z" fill="#9AB4D8" stroke="#2E3191" stroke-width="3.02" stroke-miterlimit="10"/>
<path d="M1243.92 1002.17C1244.54 1002.09 1256.94 1000.73 1264.24 1010.05C1269.14 1016.35 1268.6 1023.44 1268.4 1025.18C1265.03 1040.95 1260.87 1057.59 1255.69 1074.98C1246.83 1104.72 1236.55 1131.35 1226.07 1154.72C1214.59 1152.08 1203.14 1149.43 1191.66 1146.76C1201.88 1123.88 1212.03 1098.99 1221.61 1072.15C1230.34 1047.76 1237.68 1024.33 1243.87 1002.17H1243.92Z" fill="#9AB4D8" stroke="#2E3191" stroke-width="3.02" stroke-miterlimit="10"/>
<path d="M1241.92 1115.43C1239.27 1122.06 1236.63 1128.66 1233.98 1135.29C1220.91 1131.69 1207.84 1128.09 1194.77 1124.5C1197.26 1118.03 1199.78 1111.56 1202.27 1105.11L1241.89 1115.46L1241.92 1115.43Z" fill="#9AB4D8" stroke="#2E3191" stroke-width="3.02" stroke-miterlimit="10"/>
<path d="M1201.29 1104.66L1245.98 1115.12C1250.81 1116.25 1255.66 1113.29 1256.81 1108.54C1257.97 1103.76 1254.97 1098.99 1250.14 1097.86L1205.45 1087.41C1200.62 1086.28 1195.77 1089.23 1194.61 1093.98C1193.46 1098.76 1196.46 1103.53 1201.29 1104.66Z" fill="#9AB4D8" stroke="#2E3191" stroke-width="3.02" stroke-miterlimit="10"/>
<path d="M1211.15 1164.33C1224.5 1164.33 1235.32 1153.66 1235.32 1140.49C1235.32 1127.33 1224.5 1116.66 1211.15 1116.66C1197.81 1116.66 1186.99 1127.33 1186.99 1140.49C1186.99 1153.66 1197.81 1164.33 1211.15 1164.33Z" fill="#9AB4D8" stroke="#2E3191" stroke-width="3.02" stroke-miterlimit="10"/>
<path d="M1059.6 1230.69C1058.78 1230.53 1058.06 1240.8 1050.05 1251.85C1046.61 1256.6 1043.12 1259.73 1041.29 1261.25C1039.62 1262.63 1033.82 1267.28 1026.11 1270.03C1023.78 1270.88 1000.66 1278.76 988.002 1266.23C982.788 1261.04 978.371 1251.44 982.043 1243.4C984.278 1238.47 989.851 1233.43 995.064 1234.1C1000.89 1234.85 1000.74 1241.96 1008.42 1245.66C1014.45 1248.59 1023.7 1248.56 1029.4 1243.27C1035.69 1237.41 1034.33 1228.19 1033.97 1225.75C1032.66 1216.79 1026.5 1211.35 1024.19 1209.55C1014.22 1201.77 1001.95 1203.82 997.761 1204.51C984.663 1206.72 976.676 1214.86 974.493 1217.15C964.091 1228.04 956.618 1247.56 964.939 1265.48C973.825 1284.62 995.09 1289.03 1001.46 1289.96C1006 1290.63 1019.08 1291.89 1032.61 1284.51C1045.3 1277.58 1050.95 1267.13 1053.52 1262.17C1061.66 1246.56 1060.63 1230.89 1059.63 1230.71L1059.6 1230.69Z" fill="#9AB4D8" stroke="#2E3191" stroke-width="3.02" stroke-miterlimit="10"/>
</g>
<defs>
<clipPath id="clip0_3263_33446">
<rect width="2000" height="2000" fill="white"/>
</clipPath>
</defs>
</svg>
