<svg width="2000" height="2000" viewBox="0 0 2000 2000" fill="none" xmlns="http://www.w3.org/2000/svg">
<path d="M1380.04 1114.12C1376.74 1118.36 1373.46 1122.57 1370.16 1126.8C1363.38 1135.51 1356.61 1144.22 1349.82 1152.92C1336.71 1169.76 1323.57 1186.63 1310.46 1203.47C1303.93 1211.86 1297.4 1220.23 1290.86 1228.63C1290.48 1229.13 1290.07 1229.59 1289.64 1230.04C1289.33 1230.38 1289.02 1230.69 1288.69 1230.97C1288.66 1231.02 1288.61 1231.05 1288.59 1231.07C1288.38 1231.29 1288.16 1231.45 1287.92 1231.64C1287.54 1231.96 1287.16 1232.24 1286.75 1232.53C1286.34 1232.82 1285.89 1233.1 1285.46 1233.34C1284.95 1233.63 1284.43 1233.89 1283.93 1234.13C1283.4 1234.37 1282.85 1234.59 1282.32 1234.78C1281.22 1235.16 1280.12 1235.42 1279 1235.59C1278.52 1235.66 1278.04 1235.71 1277.56 1235.76C1275 1235.95 1272.39 1235.64 1269.95 1234.78C1269.28 1234.56 1268.64 1234.28 1267.99 1233.96C1267.03 1233.49 1266.12 1232.96 1265.24 1232.31C1263.76 1231.26 1262.42 1229.95 1261.27 1228.42C1255.6 1220.93 1249.95 1213.44 1244.3 1205.93C1247.13 1212.36 1249.93 1219.09 1252.68 1226.12L1252.94 1226.79C1255.48 1233.37 1258.01 1240.21 1260.43 1247.29C1260.53 1247.53 1260.6 1247.79 1260.69 1248.03C1261.98 1251.83 1263.23 1255.59 1264.43 1259.3C1265.77 1263.55 1267.03 1267.74 1268.23 1271.88C1268.33 1272.21 1268.42 1272.6 1268.54 1272.98C1268.66 1273.36 1268.76 1273.77 1268.88 1274.17C1269.62 1276.73 1270.5 1279.96 1271.51 1283.69C1272.25 1286.47 1272.94 1289.2 1273.61 1291.9C1276.08 1301.87 1270.14 1312.02 1260.17 1314.55C1191.98 1332.01 1101.34 1348.02 994.297 1347.99C887.035 1347.94 796.259 1331.82 728.045 1314.31C718.45 1311.85 712.493 1302.3 714.407 1292.57C714.981 1289.7 715.579 1286.76 716.273 1283.77C717.158 1279.82 718.139 1275.78 719.192 1271.66C719.24 1271.54 719.264 1271.45 719.288 1271.33C720.364 1267.21 721.513 1263.2 722.709 1259.3C723.882 1255.42 725.174 1251.43 726.585 1247.31C728.451 1241.81 730.557 1236.14 732.926 1230.28C733.404 1229.11 733.883 1227.94 734.361 1226.79C737.52 1219.16 740.774 1212.08 744.027 1205.52C739.027 1212.46 734.05 1219.37 729.05 1226.29C727.71 1228.18 726.346 1230.04 725.006 1231.91C720.699 1237.86 713.689 1240.42 707.061 1239.44C702.97 1238.82 699.022 1236.83 695.983 1233.46L669.042 1203.47L623.654 1152.92L608.772 1136.35C608.628 1136.2 608.509 1136.06 608.413 1135.89C602.838 1129.31 602.503 1119.77 607.647 1112.81C607.887 1112.47 608.15 1112.14 608.413 1111.78C609.777 1109.94 611.188 1108.07 612.672 1106.16C614.945 1103.22 617.338 1100.18 619.85 1097.12C627.028 1088.39 635.163 1079.27 644.374 1070.06C651.409 1063.05 659.065 1055.97 667.391 1048.99C669.736 1047 672.129 1044.99 674.593 1043.03C681.628 1037.39 688.59 1032.22 695.433 1027.51H695.457C712.205 1015.91 728.14 1006.94 742.209 1000C799.704 1019.85 886.676 1042.58 994.297 1043.85C1105.53 1045.16 1195.57 1023.06 1254.23 1003.76C1261.65 1007.85 1269.23 1012.01 1276.63 1016.1C1284.04 1020.19 1291.63 1024.37 1299.05 1028.49C1304.12 1031.24 1309.14 1034.04 1314.22 1036.84C1321.56 1040.88 1328.91 1044.95 1336.25 1048.99C1342.52 1053.89 1348.31 1058.82 1353.67 1063.72C1361.97 1071.33 1369.22 1078.84 1375.52 1085.95C1376.93 1087.55 1378.29 1089.1 1379.61 1090.66C1385.3 1097.38 1385.47 1107.16 1380.04 1114.12Z" fill="white"/>
<path d="M792.09 1097.12V1097.09" stroke="#231F20" stroke-miterlimit="10"/>
<path d="M1299.05 1028.49L1228.25 1036.84C1180.93 1056.19 1098.86 1082.79 993.99 1082.17C887.494 1081.54 804.709 1053.15 757.455 1032.89C736.782 1031.1 716.11 1029.3 695.438 1027.51C712.21 1015.91 728.145 1006.94 742.213 1000C799.708 1019.85 886.681 1042.58 994.301 1043.85C1105.53 1045.16 1195.57 1023.06 1254.24 1003.76C1261.65 1007.85 1269.24 1012.01 1276.63 1016.1C1284.05 1020.19 1291.63 1024.37 1299.05 1028.49Z" fill="#213076"/>
<path d="M1353.67 1063.72C1337.07 1083 1316.18 1104.24 1290.36 1125.13C1269.33 1142.13 1248.97 1155.77 1230.5 1166.65C1163.24 1156.77 1084.79 1149.6 997.243 1149.55C908.954 1149.5 829.854 1156.7 762.166 1166.65C740.25 1153.71 715.39 1136.78 689.861 1114.75C672.203 1099.48 657.13 1084.29 644.377 1070.06C651.411 1063.05 659.068 1055.97 667.394 1048.99C669.739 1047 672.131 1044.99 674.596 1043.03C687.755 1057.12 705.293 1073.43 727.736 1089.08C746.279 1102.02 763.961 1111.56 779.25 1118.6C846.961 1113.5 919.817 1110.42 997.243 1110.46C1073.07 1110.51 1144.49 1113.57 1210.95 1118.6C1225.64 1112.64 1244.47 1103.29 1264.09 1088.48C1287.9 1070.52 1304 1051.26 1314.22 1036.84C1321.56 1040.88 1328.91 1044.95 1336.25 1048.99C1342.52 1053.89 1348.31 1058.82 1353.67 1063.72Z" fill="#213076"/>
<path d="M1260.43 1247.29C1176.18 1242.38 1087.25 1239.56 994.033 1239.54C900.433 1239.54 811.164 1242.38 726.584 1247.31C728.45 1241.81 730.556 1236.14 732.924 1230.28C733.403 1229.11 733.882 1227.94 734.36 1226.79C737.518 1219.16 740.772 1212.08 744.026 1205.52L746.945 1199.28C823.199 1193.06 905.816 1189.33 994.033 1189.57C1082.42 1189.78 1165.15 1193.95 1241.5 1200.57L1244.3 1205.93C1247.13 1212.36 1249.92 1219.09 1252.68 1226.12L1252.94 1226.79C1255.48 1233.37 1258.01 1240.21 1260.43 1247.29Z" fill="#213076"/>
<path d="M1273.62 1291.9C1276.08 1301.87 1270.15 1312.02 1260.17 1314.55C1191.98 1332.01 1101.35 1348.02 994.302 1347.99C887.04 1347.94 796.264 1331.82 728.05 1314.31C718.455 1311.85 712.498 1302.3 714.412 1292.57C714.986 1289.7 715.584 1286.76 716.278 1283.77C717.163 1279.82 718.144 1275.78 719.197 1271.66C803.729 1278.82 895.51 1283.26 993.656 1283.29C1091.85 1283.34 1183.68 1278.96 1268.23 1271.88C1269.02 1274.63 1270.17 1278.72 1271.51 1283.69C1272.25 1286.47 1272.95 1289.2 1273.62 1291.9Z" fill="#213076"/>
<path d="M1278.97 1271.42C1278.97 1271.42 1278.95 1271.47 1278.8 1271.52C1278.8 1271.38 1278.85 1271.35 1278.97 1271.42Z" fill="#213076"/>
<path d="M729.05 1226.29C727.71 1228.18 726.346 1230.04 725.006 1231.91C720.699 1237.86 713.689 1240.42 707.061 1239.44C702.97 1238.82 699.022 1236.83 695.983 1233.46L669.042 1203.47L623.654 1152.92L608.772 1136.35C608.628 1136.2 608.509 1136.06 608.413 1135.89C602.838 1129.31 602.503 1119.77 607.647 1112.81C607.887 1112.47 608.15 1112.14 608.413 1111.78C609.777 1109.94 611.188 1108.07 612.672 1106.16L718.139 1215.02L729.05 1226.29Z" fill="#213076"/>
<path d="M1380.04 1114.12C1376.74 1118.36 1373.46 1122.57 1370.16 1126.8C1363.39 1135.51 1356.62 1144.22 1349.82 1152.92C1336.71 1169.76 1323.57 1186.63 1310.46 1203.47C1303.93 1211.86 1297.4 1220.23 1290.87 1228.63C1290.48 1229.13 1290.08 1229.59 1289.65 1230.04C1289.34 1230.38 1289.02 1230.69 1288.69 1230.97C1288.67 1231.02 1288.62 1231.05 1288.59 1231.07C1288.38 1231.29 1288.16 1231.45 1287.92 1231.64C1287.54 1231.95 1287.16 1232.24 1286.75 1232.53C1286.34 1232.82 1285.89 1233.1 1285.46 1233.34C1284.96 1233.63 1284.43 1233.89 1283.93 1234.13C1283.4 1234.37 1282.85 1234.59 1282.32 1234.78C1281.25 1235.16 1280.12 1235.45 1279 1235.59C1278.52 1235.66 1278.04 1235.71 1277.56 1235.76C1275 1235.97 1272.42 1235.64 1269.95 1234.78C1269.28 1234.56 1268.64 1234.28 1267.99 1233.96C1267.04 1233.51 1266.13 1232.96 1265.24 1232.31C1263.76 1231.26 1262.42 1229.95 1261.27 1228.41L1270.6 1216.79L1375.52 1085.95C1376.93 1087.55 1378.29 1089.1 1379.61 1090.66C1385.3 1097.38 1385.47 1107.16 1380.04 1114.12Z" fill="#213076"/>
</svg>
