<svg width="2000" height="2000" viewBox="0 0 2000 2000" fill="none" xmlns="http://www.w3.org/2000/svg">
<mask id="mask0_2620_2634" style="mask-type:luminance" maskUnits="userSpaceOnUse" x="565" y="994" width="879" height="386">
<path d="M1410.22 1220.2C1380.63 1245.18 1366.31 1236.87 1347.16 1259.89C1332.33 1277.75 1328.94 1297.25 1319.53 1296.54C1316.02 1296.28 1313.85 1293.35 1310.48 1288.41C1309.34 1286.73 1308.06 1284.79 1306.53 1282.67C1303.83 1278.93 1300.47 1274.62 1296.24 1270.01C1290.81 1264.04 1283.95 1257.54 1275.31 1250.99C1279.92 1265.44 1284.28 1281.55 1287.87 1299.17C1293.07 1324.68 1295.6 1348.11 1296.59 1368.57C1208.65 1376.17 1112.33 1380.68 1008.77 1379.92C899.211 1379.1 797.763 1372.5 705.746 1362.71C704.039 1343.24 704.115 1316.65 711.685 1286.57C714.973 1273.55 719.103 1262.03 723.411 1252.09C715.05 1259.43 708.015 1265.85 702.815 1270.69C698.507 1274.72 695.449 1277.68 693.97 1279.21C692.925 1280.28 689.79 1283.69 687.012 1287.16C686.91 1287.31 686.782 1287.47 686.655 1287.62C686.247 1288.13 685.865 1288.64 685.406 1289.28C682.755 1292.95 681.302 1294.68 680.945 1294.81C677.326 1296.23 667.64 1274.52 654.844 1260.09C645.209 1249.23 638.454 1248.9 623.033 1237.86C600.73 1221.88 561.17 1192.95 565.299 1169.22C566.727 1161.06 572.335 1157.95 585.436 1146.33C604.834 1129.1 597.11 1131.83 637.511 1088.09C649.924 1074.65 673.12 1053.85 719.511 1012.25C726.648 1005.86 741.559 992.857 760.217 994.081C763.353 994.285 765.876 994.845 767.431 995.253C778.595 1006.49 796.336 1022.58 820.806 1037.54C847.723 1054.01 907.393 1084.34 1073.71 1077.46C1108.84 1076 1151.86 1072.77 1201.18 1065.73C1211.92 1044.35 1222.62 1022.93 1233.33 1001.55C1234.4 999.434 1236.82 998.261 1239.11 998.873C1241.23 999.433 1243.7 1000.35 1246.25 1001.88C1250.63 1004.51 1253.46 1007.82 1255.12 1010.29C1255.96 1011.54 1256.22 1013.07 1255.81 1014.52C1251.68 1029.33 1247.55 1044.17 1243.4 1059C1243.29 1059.03 1243.17 1059.05 1243.06 1059.08C1261.82 1055.77 1281.32 1051.92 1301.49 1047.4C1303.47 1047.61 1306.66 1048.07 1310.43 1049.24C1318.9 1051.89 1324.6 1056.38 1327.15 1058.49C1363.63 1088.6 1385.04 1113.88 1385.04 1113.88C1389.6 1119.8 1397.35 1129.05 1408.39 1138.86C1429.32 1157.47 1439.69 1158.13 1442.8 1168.56C1448.56 1187.9 1419.02 1212.78 1410.22 1220.2Z" fill="white"/>
</mask>
<g mask="url(#mask0_2620_2634)">
<path d="M1243.4 1059C1247.53 1044.17 1251.65 1029.36 1255.81 1014.52C1256.22 1013.07 1255.96 1011.54 1255.12 1010.29C1253.44 1007.82 1250.64 1004.51 1246.23 1001.88C1243.68 1000.38 1241.2 999.459 1239.09 998.898C1236.79 998.286 1234.37 999.434 1233.3 1001.57C1222.6 1022.96 1211.87 1044.37 1201.16 1065.76C1207.71 1064.92 1214.41 1063.97 1221.27 1062.88C1228.87 1061.68 1236.23 1060.38 1243.37 1059.03L1243.4 1059Z" fill="black"/>
<path d="M1410.22 1220.2C1380.63 1245.18 1366.31 1236.87 1347.16 1259.89C1332.33 1277.75 1328.94 1297.25 1319.53 1296.54C1316.02 1296.28 1313.85 1293.35 1310.48 1288.41C1309.34 1286.73 1308.06 1284.79 1306.53 1282.67C1303.83 1278.93 1300.47 1274.62 1296.24 1270.01C1290.81 1264.04 1283.95 1257.54 1275.31 1250.99C1279.92 1265.44 1284.28 1281.55 1287.87 1299.17C1293.07 1324.68 1295.6 1348.11 1296.59 1368.57C1208.65 1376.17 1112.33 1380.68 1008.77 1379.92C899.211 1379.1 797.763 1372.5 705.746 1362.71C704.039 1343.24 704.115 1316.65 711.685 1286.57C714.973 1273.55 719.103 1262.03 723.411 1252.09C715.05 1259.43 708.015 1265.85 702.815 1270.69C698.507 1274.72 695.449 1277.68 693.97 1279.21C692.925 1280.28 689.79 1283.69 687.012 1287.16C686.91 1287.31 686.782 1287.47 686.655 1287.62C686.247 1288.13 685.865 1288.64 685.406 1289.28C682.755 1292.95 681.302 1294.68 680.945 1294.81C677.326 1296.23 667.64 1274.52 654.844 1260.09C645.209 1249.23 638.454 1248.9 623.033 1237.86C600.73 1221.88 561.17 1192.95 565.299 1169.22C566.727 1161.06 572.335 1157.95 585.436 1146.33C604.834 1129.1 597.11 1131.83 637.511 1088.09C649.924 1074.65 673.12 1053.85 719.511 1012.25C726.648 1005.86 741.559 992.857 760.217 994.081C763.353 994.285 765.876 994.845 767.431 995.253C778.595 1006.49 796.336 1022.58 820.806 1037.54C847.723 1054.01 907.393 1084.34 1073.71 1077.46C1130.96 1075.09 1209.29 1067.97 1301.49 1047.4C1303.47 1047.61 1306.66 1048.07 1310.43 1049.24C1318.9 1051.89 1324.6 1056.38 1327.15 1058.49C1363.63 1088.6 1385.04 1113.88 1385.04 1113.88C1389.6 1119.8 1397.35 1129.05 1408.39 1138.86C1429.32 1157.47 1439.69 1158.13 1442.8 1168.56C1448.56 1187.9 1419.02 1212.78 1410.22 1220.2Z" fill="black"/>
<path d="M1234.78 1017.17C1235.24 1016.23 1236.36 1015.8 1237.33 1016.15C1238.3 1016.51 1239.24 1016.97 1240.16 1017.53C1240.92 1017.99 1241.64 1018.47 1242.3 1019.03C1244.03 1020.44 1244.95 1021.1 1245.41 1022.27C1245.69 1022.96 1245.74 1023.6 1245.74 1024.01C1244.34 1028.77 1242.91 1033.56 1241.51 1038.33C1239.37 1045.77 1237.23 1053.22 1235.09 1060.66C1227.21 1061.81 1219.33 1062.95 1211.46 1064.07C1216.33 1054.29 1221.22 1044.47 1226.09 1034.69L1234.81 1017.17H1234.78Z" fill="#EFCED0"/>
<path d="M883.866 1138.45C880.247 1157.21 877.188 1188.18 891.156 1213.29C894.215 1218.8 900.409 1229.94 909.381 1230.22C916.798 1230.45 922.559 1223.18 925.643 1219.15C943.257 1196.26 944.225 1158.79 943.868 1141.72" stroke="#EFCED0" stroke-width="5.72021" stroke-linecap="round" stroke-linejoin="round"/>
<path d="M1061.35 1138.45C1057.73 1157.21 1054.67 1188.18 1068.64 1213.29C1071.7 1218.8 1077.89 1229.94 1086.87 1230.22C1094.28 1230.45 1100.04 1223.18 1103.13 1219.15C1120.74 1196.26 1121.71 1158.79 1121.35 1141.72" stroke="#EFCED0" stroke-width="5.72021" stroke-linecap="round" stroke-linejoin="round"/>
<path d="M969.359 1172.51C970.404 1181.4 972.444 1192.69 976.547 1205.06C978.536 1211 980.677 1216.27 982.843 1220.89C983.71 1222.77 985.927 1222.42 986.488 1220.35C987.686 1215.84 989.725 1210.15 993.37 1204.65C996.098 1200.47 999.004 1197.51 1001.43 1195.47C1002.24 1194.78 1003.29 1194.94 1003.97 1195.8C1006.63 1199.12 1009.66 1203.5 1012.56 1209.01C1015.06 1213.77 1016.9 1218.34 1018.22 1222.34C1018.81 1224.05 1020.57 1224.48 1021.56 1223.1C1024.44 1219.08 1028.11 1212.83 1030.56 1204.19C1033.03 1195.47 1033.29 1187.8 1033.13 1182.98" stroke="#EFCED0" stroke-width="5.72021" stroke-linecap="round" stroke-linejoin="round"/>
<path d="M702.816 1270.69C698.508 1274.72 695.449 1277.68 693.971 1279.21C692.926 1280.28 689.791 1283.69 687.012 1287.16C681.175 1281.12 677.505 1266.26 666.213 1255.42C663.435 1252.75 661.141 1249.43 656.552 1242.81C654.921 1240.46 653.494 1238.5 653.621 1235.77C653.8 1232.46 655.38 1229.27 658.133 1227.21C660.452 1225.45 663.358 1224.63 666.239 1224.84C668.889 1225.02 671.26 1226.39 673.019 1228.33C682.373 1238.7 688.95 1247.93 688.95 1247.93C695.908 1260.11 700.394 1266.51 702.816 1270.69Z" fill="white"/>
<path d="M591.631 1160.2C593.721 1158.18 596.933 1157.83 599.38 1159.38C608.964 1165.45 620.026 1173.55 631.267 1184.33C640.8 1193.46 648.37 1202.51 654.36 1210.64C656.399 1213.42 655.813 1217.32 653.06 1219.41L650.639 1221.24C647.988 1223.26 644.241 1222.85 642.049 1220.38C634.708 1212.07 626.806 1203.53 618.267 1194.86C609.295 1185.74 600.425 1177.3 591.784 1169.47C589.056 1167 588.954 1162.75 591.631 1160.2Z" fill="white"/>
<path d="M1346.35 1239.55C1346.32 1242.27 1344.79 1244.16 1343.01 1246.4C1338.04 1252.75 1335.56 1255.91 1332.63 1258.41C1321.01 1268.32 1316.4 1282.44 1310.48 1288.41C1309.34 1286.73 1308.06 1284.79 1306.53 1282.67C1303.83 1278.93 1300.47 1274.62 1296.23 1270.01C1299.01 1265.95 1303.6 1259.96 1310.38 1249.59C1310.38 1249.59 1317.49 1240.77 1327.43 1230.98C1329.29 1229.15 1331.74 1227.9 1334.42 1227.9C1337.3 1227.85 1340.15 1228.84 1342.37 1230.73C1345 1232.94 1346.37 1236.23 1346.35 1239.55Z" fill="white"/>
<path d="M1412.7 1167.77C1410.71 1165.62 1407.55 1165.09 1405 1166.49C1395.08 1171.97 1383.54 1179.44 1371.68 1189.51C1361.64 1198.05 1353.54 1206.64 1347.09 1214.39C1344.87 1217.04 1345.25 1220.99 1347.88 1223.23L1350.2 1225.22C1352.72 1227.39 1356.47 1227.21 1358.81 1224.86C1366.64 1216.99 1375.02 1208.93 1384.05 1200.8C1393.55 1192.21 1402.91 1184.31 1411.98 1177.02C1414.86 1174.7 1415.19 1170.47 1412.7 1167.77Z" fill="white"/>
</g>
</svg>
