<svg width="2000" height="2000" viewBox="0 0 2000 2000" fill="none" xmlns="http://www.w3.org/2000/svg">
<path d="M708.037 1583.97C682.6 1597.13 663.026 1610.16 649.313 1620.15C630.538 1633.82 621.488 1642.69 620.346 1654.89C619.404 1664.82 624.114 1672.73 625.827 1675.58C645.554 1708.67 717.134 1701.07 721.35 1700.57L867.327 1682.08C884.39 1679.91 898.759 1668.23 904.145 1651.94C906.819 1643.87 908.798 1634.65 909.255 1624.44C909.55 1617.82 909.17 1611.74 908.437 1606.3C891.06 1612.14 868.345 1617.6 841.529 1618.58C778.694 1620.89 730.733 1597.27 708.027 1583.96L708.037 1583.97Z" fill="#FFEECC" stroke="#7B8436" stroke-width="9" stroke-miterlimit="10"/>
<path d="M713.646 1559.43C714.969 1560.26 719.175 1563.05 722.744 1568.26C729.605 1578.28 728.454 1589.09 728.082 1592.14C726.569 1604.6 718.49 1616.77 707.509 1621.3C701.647 1623.72 694.985 1623.94 694.186 1623.96C689.742 1624.09 686.05 1623.44 683.471 1622.81C682.738 1622.59 681.996 1622.38 681.263 1622.16C679.588 1621.45 677.457 1620.39 675.144 1618.83C674.545 1618.43 671.395 1616.27 668.616 1613.18C661.175 1604.92 660.242 1594.23 660.166 1593.24C659.633 1586.08 661.574 1580.66 662.574 1577.95C664.581 1572.52 667.398 1568.6 669.416 1566.2C669.815 1565.73 672.499 1562.79 676.182 1560.38C685.279 1554.45 701.142 1551.55 713.646 1559.41V1559.43ZM676.772 1608.64C685.108 1618 702.941 1615.56 711.477 1607.45C719.442 1599.88 722.734 1584.75 715.864 1575.68C707.014 1557.93 682.548 1560.12 672.594 1575.68C665.904 1586.13 667.246 1600.49 676.772 1608.65V1608.64Z" fill="#FFCD06"/>
<path d="M728.947 1606.17C726.93 1610.35 724.608 1613.12 723.885 1613.97C714.635 1624.68 701.551 1625.98 700.39 1626.09C691.349 1626.86 684.383 1623.79 681.272 1622.18C684.212 1623.06 688.58 1623.96 693.785 1623.53C706.213 1622.48 718.66 1614.2 724.161 1601.37C728.995 1590.11 728.005 1576.4 720.963 1566.64C718.518 1563.24 715.768 1560.93 713.655 1559.44C713.379 1559.25 722.153 1563.79 727.568 1572.71C731.412 1579.04 732.24 1584.94 732.459 1586.93C733.506 1596.5 730.146 1603.71 728.957 1606.19L728.947 1606.17Z" fill="#F6A11D"/>
<path d="M715.863 1575.68C706.728 1563.61 691.302 1563.33 680.216 1572.79C669.948 1581.55 667.54 1598.27 676.771 1608.64C667.245 1600.48 665.904 1586.12 672.593 1575.68C682.547 1560.11 707.013 1557.93 715.863 1575.68V1575.68Z" fill="#F3991F"/>
<path d="M715.862 1575.68C706.727 1563.61 691.301 1563.33 680.215 1572.79C669.947 1581.55 667.539 1598.27 676.77 1608.64C685.106 1618 702.939 1615.56 711.475 1607.45C719.44 1599.88 722.733 1584.75 715.862 1575.68Z" fill="#FCB416"/>
<path d="M699.686 1605.44C695.898 1609.25 688.038 1606.55 687.086 1606.2C686.801 1606.09 686.582 1606.01 686.449 1605.95C682.823 1604.52 675.838 1600.18 676.438 1594.65C676.923 1590.19 682.109 1587.15 683.489 1586.34C684.802 1585.57 689.827 1582.63 694.756 1584.8C699.381 1586.83 700.561 1591.87 701.046 1593.95C701.465 1595.73 702.969 1602.14 699.695 1605.44H699.686Z" fill="#FFEECC"/>
<path d="M684.556 1595.82C683.409 1594.83 683.792 1592.52 685.41 1590.65C687.029 1588.79 689.272 1588.09 690.419 1589.08C691.566 1590.08 691.184 1592.39 689.565 1594.25C687.946 1596.11 685.703 1596.81 684.556 1595.82Z" fill="#EE6825"/>
<path d="M693.133 1600C691.874 1599.76 691.171 1597.93 691.563 1595.92C691.954 1593.91 693.292 1592.48 694.551 1592.72C695.81 1592.96 696.513 1594.79 696.121 1596.8C695.73 1598.82 694.392 1600.25 693.133 1600Z" fill="#EE6825"/>
<path d="M681.286 1653.08C683.028 1652.13 688.071 1649.66 693.99 1650.88C693.99 1650.88 698.273 1651.84 701.927 1655.33C704.03 1657.34 701.775 1658.72 700.1 1660.1C693.315 1665.74 682.828 1665.59 676.462 1659.38" fill="#929A38"/>
<path d="M678.308 1656.88C679.05 1656.36 679.488 1656.08 680.354 1655.82C683.352 1654.93 689.994 1654.48 692.925 1655.5C693.182 1655.59 693.762 1655.78 693.705 1656.11C693.048 1656.48 692.068 1656.53 691.317 1656.61C687.472 1657.03 683.57 1657.31 679.716 1657.65C679.184 1657.7 678.26 1657.9 677.851 1657.46C678.003 1657.27 678.146 1657.06 678.298 1656.87L678.308 1656.88Z" fill="#7B8436"/>
<path d="M681.581 1653.3C682.038 1651.37 683.084 1645.86 680.325 1640.5C680.325 1640.5 678.26 1636.63 673.911 1634.04C671.408 1632.55 670.685 1635.09 669.781 1637.07C666.136 1645.09 669.077 1655.13 676.766 1659.6" fill="#929A38"/>
<path d="M678.698 1657.17C678.993 1656.32 679.154 1655.83 679.173 1654.92C679.24 1651.8 677.917 1645.29 676.138 1642.75C675.985 1642.54 675.643 1642.02 675.348 1642.17C675.167 1642.9 675.376 1643.85 675.5 1644.59C676.119 1648.4 676.88 1652.23 677.575 1656.03C677.67 1656.56 677.717 1657.49 678.26 1657.77C678.403 1657.57 678.564 1657.38 678.707 1657.18L678.698 1657.17Z" fill="#7B8436"/>
<path d="M678.394 1660.22C678.85 1660.62 680.287 1661.93 681.353 1664.12C683.39 1668.34 682.324 1672.4 682 1673.53C680.697 1678.2 676.909 1682.37 672.465 1683.46C670.086 1684.04 667.536 1683.75 667.231 1683.71C665.528 1683.5 664.158 1683.04 663.215 1682.65C662.949 1682.52 662.683 1682.4 662.416 1682.28C661.817 1681.91 661.065 1681.38 660.275 1680.65C660.075 1680.46 658.99 1679.46 658.115 1678.12C655.755 1674.54 656.021 1670.41 656.05 1670.02C656.259 1667.26 657.315 1665.31 657.858 1664.33C658.943 1662.37 660.246 1661.04 661.15 1660.25C661.331 1660.09 662.521 1659.12 664.072 1658.42C667.888 1656.68 674.102 1656.49 678.413 1660.21L678.394 1660.22ZM661.474 1676.85C664.11 1680.9 671.047 1681 674.778 1678.4C678.251 1675.97 680.392 1670.39 678.298 1666.54C675.957 1659.26 666.499 1658.68 661.798 1664.03C658.638 1667.63 658.315 1673.18 661.474 1676.85Z" fill="#FFCD06"/>
<path d="M681.515 1678.93C680.506 1680.41 679.459 1681.33 679.126 1681.61C674.977 1685.16 669.914 1684.9 669.458 1684.88C665.965 1684.65 663.491 1683.07 662.397 1682.28C663.472 1682.78 665.08 1683.38 667.088 1683.51C671.884 1683.83 677.118 1681.39 679.963 1676.82C682.466 1672.8 682.885 1667.52 680.763 1663.39C680.03 1661.96 679.117 1660.91 678.393 1660.22C678.298 1660.13 681.381 1662.37 682.923 1666.08C684.017 1668.72 683.998 1671.02 683.96 1671.79C683.808 1675.5 682.105 1678.05 681.505 1678.93H681.515Z" fill="#F6A11D"/>
<path d="M678.299 1666.54C675.511 1661.4 669.649 1660.41 664.872 1663.38C660.447 1666.13 658.553 1672.36 661.474 1676.85C658.315 1673.18 658.639 1667.63 661.798 1664.03C666.499 1658.67 675.958 1659.26 678.299 1666.54Z" fill="#F3991F"/>
<path d="M678.298 1666.54C675.51 1661.41 669.648 1660.41 664.871 1663.38C660.446 1666.13 658.552 1672.36 661.474 1676.85C664.11 1680.9 671.047 1681 674.777 1678.4C678.251 1675.97 680.392 1670.39 678.298 1666.54Z" fill="#FCB416"/>
<path d="M670.076 1677.72C668.411 1678.95 665.566 1677.47 665.223 1677.28C665.118 1677.22 665.042 1677.18 664.995 1677.15C663.701 1676.39 661.283 1674.33 661.835 1672.26C662.283 1670.59 664.433 1669.73 665.004 1669.5C665.547 1669.28 667.64 1668.45 669.391 1669.56C671.037 1670.6 671.19 1672.58 671.256 1673.42C671.313 1674.12 671.513 1676.65 670.076 1677.72Z" fill="#FFEECC"/>
<path d="M664.895 1673.15C664.513 1672.71 664.791 1671.85 665.516 1671.23C666.24 1670.62 667.137 1670.48 667.518 1670.93C667.9 1671.37 667.622 1672.23 666.897 1672.85C666.173 1673.46 665.276 1673.6 664.895 1673.15Z" fill="#EE6825"/>
<path d="M667.905 1675.26C667.44 1675.09 667.278 1674.35 667.545 1673.61C667.812 1672.86 668.405 1672.39 668.87 1672.56C669.336 1672.72 669.497 1673.46 669.23 1674.21C668.964 1674.95 668.37 1675.42 667.905 1675.26Z" fill="#EE6825"/>
<path d="M738.877 1631.17C739.058 1629.78 739.762 1625.89 742.94 1623.04C742.94 1623.04 745.281 1621.01 748.793 1620.4C750.819 1620.05 750.658 1621.9 750.753 1623.44C751.133 1629.65 746.651 1635.52 740.456 1636.54" fill="#929A38"/>
<path d="M739.8 1634.44C739.819 1633.81 739.838 1633.44 740.057 1632.84C740.799 1630.77 743.321 1626.8 745.129 1625.58C745.281 1625.47 745.643 1625.22 745.805 1625.39C745.738 1625.92 745.357 1626.49 745.091 1626.95C743.721 1629.31 742.255 1631.63 740.837 1633.97C740.637 1634.29 740.371 1634.9 739.943 1634.94C739.895 1634.77 739.838 1634.61 739.8 1634.45V1634.44Z" fill="#7B8436"/>
<path d="M739.133 1631.1C738.229 1630.04 735.527 1627.14 731.311 1626.46C731.311 1626.46 728.247 1626.01 724.954 1627.4C723.061 1628.2 724.202 1629.67 724.954 1631.01C727.999 1636.43 734.956 1638.96 740.713 1636.47" fill="#929A38"/>
<path d="M740.133 1634.35C739.771 1633.83 739.562 1633.53 739.048 1633.14C737.297 1631.8 733.034 1629.83 730.845 1629.77C730.655 1629.77 730.217 1629.74 730.179 1629.97C730.522 1630.38 731.15 1630.66 731.626 1630.9C734.052 1632.15 736.555 1633.31 739.01 1634.51C739.353 1634.68 739.905 1635.04 740.285 1634.85C740.228 1634.69 740.19 1634.52 740.142 1634.36L740.133 1634.35Z" fill="#7B8436"/>
<path d="M741.742 1635.79C742.161 1635.69 743.503 1635.43 745.197 1635.74C748.451 1636.35 750.316 1638.66 750.83 1639.31C752.943 1642 753.742 1645.89 752.496 1648.87C751.829 1650.46 750.592 1651.78 750.45 1651.94C749.622 1652.82 748.784 1653.4 748.166 1653.77C747.985 1653.88 747.804 1653.97 747.614 1654.08C747.157 1654.26 746.539 1654.47 745.796 1654.61C745.606 1654.65 744.578 1654.84 743.455 1654.78C740.429 1654.62 738.183 1652.74 737.984 1652.57C736.499 1651.29 735.823 1649.87 735.5 1649.16C734.843 1647.73 734.624 1646.44 734.548 1645.59C734.529 1645.42 734.482 1644.34 734.729 1643.17C735.338 1640.29 737.831 1636.68 741.752 1635.79H741.742ZM744.14 1652.34C747.547 1652.54 750.516 1648.65 750.592 1645.45C750.659 1642.46 748.375 1638.92 745.301 1638.49C740.172 1636.78 735.89 1641.89 736.975 1646.8C737.708 1650.09 740.734 1652.6 744.14 1652.34Z" fill="#FFCD06"/>
<path d="M753.704 1641.85C754.123 1643.05 754.208 1644.03 754.237 1644.33C754.522 1648.17 752.257 1650.93 752.058 1651.17C750.468 1653.05 748.537 1653.8 747.623 1654.09C748.356 1653.69 749.374 1653.02 750.288 1651.94C752.476 1649.35 753.276 1645.37 751.858 1641.84C750.611 1638.75 747.775 1636.3 744.54 1635.77C743.417 1635.59 742.437 1635.67 741.742 1635.79C741.657 1635.81 744.216 1635 746.986 1635.68C748.946 1636.16 750.24 1637.13 750.668 1637.47C752.714 1639.11 753.466 1641.14 753.713 1641.84L753.704 1641.85Z" fill="#F6A11D"/>
<path d="M745.301 1638.49C741.209 1637.92 738.192 1640.83 737.888 1644.78C737.602 1648.43 740.362 1652.11 744.14 1652.33C740.733 1652.59 737.707 1650.08 736.974 1646.79C735.889 1641.88 740.172 1636.77 745.301 1638.48V1638.49Z" fill="#F3991F"/>
<path d="M745.301 1638.49C741.209 1637.92 738.193 1640.83 737.888 1644.78C737.603 1648.43 740.362 1652.11 744.14 1652.33C747.547 1652.53 750.516 1648.64 750.592 1645.44C750.659 1642.45 748.375 1638.91 745.301 1638.48V1638.49Z" fill="#FCB416"/>
<path d="M748.242 1647.82C748.242 1649.29 746.215 1650.27 745.958 1650.39C745.882 1650.42 745.825 1650.44 745.787 1650.46C744.816 1650.88 742.628 1651.39 741.676 1650.21C740.905 1649.26 741.324 1647.67 741.429 1647.25C741.533 1646.86 741.933 1645.33 743.294 1644.8C744.579 1644.3 745.778 1645.04 746.272 1645.35C746.691 1645.61 748.223 1646.55 748.233 1647.81L748.242 1647.82Z" fill="#FFEECC"/>
<path d="M742.65 1647.72C742.603 1647.06 742.9 1646.49 743.314 1646.46C743.728 1646.43 744.102 1646.95 744.15 1647.62C744.198 1648.29 743.901 1648.85 743.486 1648.88C743.072 1648.91 742.698 1648.39 742.65 1647.72Z" fill="#EE6825"/>
<path d="M744.828 1647.55C744.516 1647.09 744.497 1646.56 744.784 1646.37C745.072 1646.18 745.557 1646.39 745.869 1646.85C746.181 1647.31 746.201 1647.84 745.913 1648.04C745.626 1648.23 745.14 1648.02 744.828 1647.55Z" fill="#EE6825"/>
<path d="M877.405 1631.79C878.28 1630.7 880.897 1627.73 885.094 1626.93C885.094 1626.93 888.148 1626.4 891.479 1627.69C893.401 1628.43 892.297 1629.94 891.584 1631.3C888.691 1636.8 881.81 1639.53 875.987 1637.2" fill="#929A38"/>
<path d="M876.5 1635.07C876.843 1634.54 877.052 1634.23 877.547 1633.84C879.26 1632.45 883.466 1630.35 885.654 1630.24C885.845 1630.23 886.282 1630.19 886.33 1630.42C885.997 1630.84 885.378 1631.13 884.912 1631.39C882.524 1632.7 880.059 1633.93 877.632 1635.19C877.299 1635.37 876.757 1635.75 876.367 1635.56C876.414 1635.4 876.452 1635.23 876.5 1635.06V1635.07Z" fill="#7B8436"/>
<path d="M877.662 1631.86C877.443 1630.48 876.625 1626.61 873.37 1623.86C873.37 1623.86 870.972 1621.9 867.442 1621.38C865.405 1621.09 865.624 1622.94 865.567 1624.47C865.367 1630.68 870.002 1636.43 876.225 1637.27" fill="#929A38"/>
<path d="M876.834 1635.15C876.796 1634.52 876.767 1634.16 876.529 1633.56C875.721 1631.51 873.094 1627.62 871.248 1626.44C871.086 1626.34 870.725 1626.1 870.572 1626.27C870.648 1626.8 871.048 1627.36 871.324 1627.81C872.761 1630.12 874.293 1632.41 875.778 1634.7C875.987 1635.02 876.273 1635.61 876.691 1635.65C876.729 1635.48 876.786 1635.32 876.824 1635.14L876.834 1635.15Z" fill="#7B8436"/>
<path d="M877.462 1637.22C877.861 1637.35 879.165 1637.82 880.44 1638.97C882.914 1641.17 883.314 1644.1 883.419 1644.93C883.837 1648.32 882.496 1652.06 879.898 1653.97C878.508 1655 876.757 1655.49 876.548 1655.55C875.387 1655.87 874.369 1655.94 873.636 1655.94C873.427 1655.94 873.217 1655.92 873.008 1655.91C872.523 1655.83 871.885 1655.69 871.171 1655.42C870.991 1655.36 870.01 1654.99 869.078 1654.36C866.575 1652.66 865.623 1649.9 865.538 1649.65C864.929 1647.78 865.081 1646.23 865.176 1645.45C865.347 1643.88 865.842 1642.67 866.213 1641.9C866.29 1641.75 866.803 1640.8 867.622 1639.93C869.639 1637.76 873.636 1635.97 877.452 1637.23L877.462 1637.22ZM870.943 1652.63C873.76 1654.55 878.308 1652.75 880.031 1650.05C881.639 1647.53 881.515 1643.32 879.108 1641.38C875.606 1637.27 869.287 1639.43 867.679 1644.2C866.594 1647.4 867.888 1651.1 870.943 1652.63V1652.63Z" fill="#FFCD06"/>
<path d="M884.571 1648.57C884.314 1649.81 883.876 1650.69 883.743 1650.97C882.001 1654.4 878.633 1655.6 878.328 1655.7C875.987 1656.49 873.951 1656.14 873.018 1655.91C873.855 1655.95 875.064 1655.91 876.415 1655.45C879.632 1654.37 882.372 1651.37 882.991 1647.62C883.533 1644.33 882.372 1640.77 879.87 1638.66C879.004 1637.92 878.119 1637.49 877.462 1637.23C877.376 1637.19 879.993 1637.83 882.011 1639.83C883.438 1641.26 884.047 1642.76 884.237 1643.27C885.142 1645.73 884.723 1647.85 884.571 1648.58V1648.57Z" fill="#F6A11D"/>
<path d="M879.109 1641.37C875.902 1638.78 871.811 1639.71 869.498 1642.93C867.357 1645.91 867.814 1650.48 870.935 1652.63C867.88 1651.09 866.586 1647.39 867.671 1644.19C869.279 1639.42 875.598 1637.26 879.1 1641.37H879.109Z" fill="#F3991F"/>
<path d="M879.108 1641.37C875.901 1638.78 871.809 1639.71 869.497 1642.93C867.356 1645.91 867.812 1650.48 870.934 1652.63C873.751 1654.55 878.299 1652.75 880.022 1650.05C881.63 1647.53 881.506 1643.32 879.099 1641.38L879.108 1641.37Z" fill="#FCB416"/>
<path d="M876.785 1650.87C876.033 1652.12 873.778 1651.92 873.502 1651.9C873.416 1651.9 873.359 1651.88 873.321 1651.88C872.275 1651.73 870.143 1651.04 869.934 1649.54C869.772 1648.34 870.942 1647.19 871.256 1646.89C871.551 1646.6 872.684 1645.49 874.13 1645.74C875.481 1645.97 876.129 1647.23 876.395 1647.75C876.623 1648.19 877.442 1649.79 876.785 1650.87Z" fill="#FFEECC"/>
<path d="M872.168 1649.29C871.798 1649.1 871.746 1648.47 872.052 1647.87C872.358 1647.27 872.906 1646.94 873.276 1647.13C873.646 1647.32 873.697 1647.96 873.391 1648.55C873.085 1649.15 872.537 1649.48 872.168 1649.29Z" fill="#EE6825"/>
<path d="M874.015 1648.87C873.986 1648.32 874.244 1647.85 874.591 1647.83C874.937 1647.82 875.241 1648.25 875.269 1648.81C875.297 1649.36 875.039 1649.83 874.693 1649.84C874.347 1649.86 874.043 1649.43 874.015 1648.87Z" fill="#EE6825"/>
<path d="M800.809 1652.81C801.38 1651.54 803.15 1648 807.004 1646.16C807.004 1646.16 809.82 1644.87 813.37 1645.28C815.416 1645.51 814.731 1647.24 814.388 1648.74C812.999 1654.8 807.042 1659.18 800.809 1658.41" fill="#929A38"/>
<path d="M800.771 1656.21C800.971 1655.6 801.094 1655.26 801.465 1654.75C802.769 1652.98 806.3 1649.88 808.384 1649.21C808.565 1649.15 808.974 1649.01 809.088 1649.21C808.879 1649.7 808.355 1650.14 807.965 1650.51C805.986 1652.38 803.921 1654.2 801.903 1656.04C801.618 1656.3 801.199 1656.8 800.771 1656.72C800.771 1656.55 800.771 1656.38 800.771 1656.2V1656.21Z" fill="#7B8436"/>
<path d="M801.074 1652.81C800.503 1651.54 798.733 1648 794.879 1646.16C794.879 1646.16 792.062 1644.87 788.513 1645.28C786.467 1645.51 787.152 1647.24 787.495 1648.74C788.884 1654.8 794.841 1659.18 801.074 1658.41" fill="#929A38"/>
<path d="M801.113 1656.21C800.913 1655.6 800.79 1655.26 800.419 1654.75C799.115 1652.98 795.584 1649.88 793.5 1649.21C793.32 1649.15 792.91 1649.01 792.796 1649.21C793.006 1649.7 793.529 1650.14 793.919 1650.51C795.898 1652.38 797.963 1654.2 799.981 1656.04C800.266 1656.3 800.685 1656.8 801.113 1656.72C801.113 1656.55 801.113 1656.38 801.113 1656.2V1656.21Z" fill="#7B8436"/>
<path d="M802.247 1658.05C802.675 1658.07 804.045 1658.2 805.577 1658.98C808.527 1660.48 809.669 1663.21 809.974 1663.99C811.239 1667.16 810.906 1671.11 808.87 1673.63C807.785 1674.97 806.224 1675.89 806.034 1676C804.987 1676.61 804.026 1676.93 803.322 1677.12C803.122 1677.17 802.913 1677.21 802.713 1677.26C802.218 1677.3 801.571 1677.33 800.819 1677.26C800.629 1677.24 799.592 1677.13 798.526 1676.75C795.671 1675.75 794.044 1673.32 793.901 1673.09C792.835 1671.45 792.588 1669.9 792.474 1669.12C792.245 1667.57 792.407 1666.27 792.569 1665.43C792.597 1665.27 792.854 1664.22 793.425 1663.16C794.824 1660.56 798.231 1657.8 802.247 1658.06V1658.05ZM799.877 1674.6C803.094 1675.75 807.033 1672.85 808.013 1669.8C808.927 1666.95 807.728 1662.91 804.911 1661.63C800.477 1658.55 794.919 1662.25 794.577 1667.26C794.348 1670.63 796.546 1673.89 799.887 1674.59L799.877 1674.6Z" fill="#FFCD06"/>
<path d="M812.019 1667.22C812.086 1668.48 811.896 1669.45 811.829 1669.75C811.02 1673.5 808.07 1675.53 807.804 1675.7C805.748 1677.05 803.683 1677.23 802.722 1677.25C803.54 1677.08 804.701 1676.73 805.891 1675.94C808.727 1674.07 810.611 1670.48 810.249 1666.7C809.926 1663.38 807.899 1660.24 804.939 1658.82C803.912 1658.33 802.95 1658.14 802.246 1658.05C802.151 1658.04 804.844 1657.99 807.309 1659.41C809.06 1660.43 810.021 1661.73 810.335 1662.17C811.838 1664.32 811.981 1666.48 812.019 1667.23V1667.22Z" fill="#F6A11D"/>
<path d="M804.91 1661.64C801.151 1659.95 797.43 1661.89 796.022 1665.59C794.718 1669.02 796.327 1673.33 799.886 1674.6C796.545 1673.89 794.347 1670.63 794.576 1667.27C794.918 1662.26 800.476 1658.55 804.91 1661.64Z" fill="#F3991F"/>
<path d="M804.911 1661.64C801.152 1659.95 797.431 1661.89 796.023 1665.59C794.719 1669.02 796.327 1673.33 799.886 1674.6C803.103 1675.75 807.043 1672.85 808.023 1669.8C808.936 1666.95 807.737 1662.91 804.92 1661.63L804.911 1661.64Z" fill="#FCB416"/>
<path d="M805.08 1671.43C804.671 1672.83 802.445 1673.21 802.169 1673.25C802.083 1673.26 802.026 1673.27 801.988 1673.28C800.931 1673.41 798.695 1673.28 798.115 1671.88C797.648 1670.75 798.486 1669.36 798.714 1668.98C798.924 1668.63 799.742 1667.27 801.198 1667.15C802.568 1667.03 803.51 1668.08 803.9 1668.51C804.234 1668.88 805.433 1670.22 805.08 1671.44V1671.43Z" fill="#FFEECC"/>
<path d="M800.217 1671.06C799.811 1670.97 799.599 1670.37 799.742 1669.71C799.885 1669.06 800.331 1668.6 800.736 1668.69C801.142 1668.77 801.354 1669.38 801.211 1670.03C801.068 1670.69 800.622 1671.15 800.217 1671.06Z" fill="#EE6825"/>
<path d="M801.899 1670.19C801.73 1669.66 801.861 1669.14 802.192 1669.04C802.522 1668.93 802.927 1669.28 803.096 1669.81C803.265 1670.34 803.134 1670.85 802.804 1670.96C802.473 1671.06 802.068 1670.72 801.899 1670.19Z" fill="#EE6825"/>
<path d="M1294.58 1582.35C1320.01 1595.51 1339.59 1608.54 1353.3 1618.52C1372.08 1632.19 1381.13 1641.06 1382.27 1653.26C1383.21 1663.2 1378.5 1671.1 1376.79 1673.96C1357.06 1707.04 1285.48 1699.44 1281.27 1698.95L1135.29 1680.45C1118.23 1678.29 1103.86 1666.6 1098.47 1650.32C1095.8 1642.24 1093.82 1633.03 1093.36 1622.81C1093.07 1616.2 1093.45 1610.12 1094.18 1604.68C1111.55 1610.51 1134.27 1615.97 1161.09 1616.96C1223.92 1619.26 1271.88 1595.64 1294.59 1582.34L1294.58 1582.35Z" fill="#FFEECC" stroke="#7B8436" stroke-width="9" stroke-miterlimit="10"/>
<path d="M1288.97 1557.8C1287.65 1558.64 1283.44 1561.43 1279.87 1566.64C1273.01 1576.66 1274.16 1587.47 1274.53 1590.52C1276.05 1602.98 1284.13 1615.14 1295.11 1619.67C1300.97 1622.09 1307.63 1622.32 1308.43 1622.34C1312.87 1622.46 1316.57 1621.82 1319.14 1621.18C1319.88 1620.96 1320.62 1620.75 1321.35 1620.54C1323.03 1619.82 1325.16 1618.76 1327.47 1617.2C1328.07 1616.81 1331.22 1614.64 1334 1611.56C1341.44 1603.3 1342.37 1592.6 1342.45 1591.62C1342.98 1584.45 1341.04 1579.03 1340.04 1576.33C1338.03 1570.9 1335.22 1566.98 1333.2 1564.58C1332.8 1564.1 1330.12 1561.16 1326.43 1558.76C1317.34 1552.83 1301.47 1549.92 1288.97 1557.78V1557.8ZM1325.84 1607.01C1317.51 1616.38 1299.67 1613.94 1291.14 1605.82C1283.17 1598.25 1279.88 1583.12 1286.75 1574.06C1295.6 1556.3 1320.07 1558.49 1330.02 1574.06C1336.71 1584.51 1335.37 1598.87 1325.84 1607.02V1607.01Z" fill="#FFCD06"/>
<path d="M1273.67 1604.54C1275.69 1608.73 1278.01 1611.5 1278.73 1612.34C1287.98 1623.06 1301.06 1624.36 1302.23 1624.46C1311.27 1625.23 1318.23 1622.17 1321.34 1620.55C1318.4 1621.44 1314.04 1622.34 1308.83 1621.9C1296.4 1620.86 1283.95 1612.57 1278.45 1599.75C1273.62 1588.48 1274.61 1574.77 1281.65 1565.01C1284.1 1561.62 1286.85 1559.3 1288.96 1557.81C1289.24 1557.62 1280.46 1562.17 1275.05 1571.09C1271.2 1577.42 1270.38 1583.31 1270.16 1585.31C1269.11 1594.87 1272.47 1602.08 1273.66 1604.56L1273.67 1604.54Z" fill="#F6A11D"/>
<path d="M1286.75 1574.06C1295.89 1561.99 1311.31 1561.7 1322.4 1571.17C1332.67 1579.93 1335.07 1596.65 1325.84 1607.01C1335.37 1598.86 1336.71 1584.5 1330.02 1574.05C1320.07 1558.49 1295.6 1556.3 1286.75 1574.05V1574.06Z" fill="#F3991F"/>
<path d="M1286.75 1574.06C1295.89 1561.99 1311.31 1561.7 1322.4 1571.16C1332.67 1579.92 1335.08 1596.65 1325.85 1607.01C1317.51 1616.38 1299.68 1613.94 1291.14 1605.82C1283.17 1598.25 1279.88 1583.12 1286.75 1574.06Z" fill="#FCB416"/>
<path d="M1302.93 1603.81C1306.72 1607.63 1314.58 1604.92 1315.53 1604.57C1315.81 1604.47 1316.03 1604.38 1316.17 1604.33C1319.79 1602.89 1326.78 1598.56 1326.18 1593.02C1325.69 1588.56 1320.51 1585.52 1319.13 1584.72C1317.81 1583.95 1312.79 1581.01 1307.86 1583.17C1303.23 1585.2 1302.05 1590.24 1301.57 1592.33C1301.15 1594.1 1299.65 1600.52 1302.92 1603.81H1302.93Z" fill="#FFEECC"/>
<path d="M1318.06 1594.2C1319.21 1593.2 1318.82 1590.89 1317.2 1589.03C1315.59 1587.17 1313.34 1586.47 1312.2 1587.46C1311.05 1588.45 1311.43 1590.76 1313.05 1592.62C1314.67 1594.49 1316.91 1595.19 1318.06 1594.2Z" fill="#EE6825"/>
<path d="M1309.48 1598.38C1310.74 1598.14 1311.44 1596.31 1311.05 1594.3C1310.66 1592.28 1309.32 1590.85 1308.06 1591.09C1306.81 1591.34 1306.1 1593.17 1306.49 1595.18C1306.89 1597.19 1308.22 1598.62 1309.48 1598.38Z" fill="#EE6825"/>
<path d="M1321.33 1651.46C1319.59 1650.51 1314.54 1648.03 1308.62 1649.25C1308.62 1649.25 1304.34 1650.21 1300.69 1653.71C1298.59 1655.72 1300.84 1657.09 1302.52 1658.48C1309.3 1664.12 1319.79 1663.97 1326.15 1657.76" fill="#929A38"/>
<path d="M1324.31 1655.25C1323.56 1654.74 1323.13 1654.45 1322.26 1654.2C1319.26 1653.31 1312.62 1652.85 1309.69 1653.88C1309.43 1653.96 1308.85 1654.15 1308.91 1654.48C1309.57 1654.85 1310.55 1654.9 1311.3 1654.99C1315.14 1655.4 1319.04 1655.69 1322.9 1656.03C1323.43 1656.08 1324.35 1656.28 1324.76 1655.83C1324.61 1655.64 1324.47 1655.43 1324.32 1655.24L1324.31 1655.25Z" fill="#7B8436"/>
<path d="M1321.03 1651.67C1320.58 1649.75 1319.53 1644.23 1322.29 1638.87C1322.29 1638.87 1324.36 1635.01 1328.7 1632.42C1331.21 1630.93 1331.93 1633.47 1332.83 1635.44C1336.48 1643.46 1333.54 1653.5 1325.85 1657.98" fill="#929A38"/>
<path d="M1323.92 1655.55C1323.62 1654.69 1323.46 1654.21 1323.44 1653.3C1323.38 1650.17 1324.7 1643.66 1326.48 1641.13C1326.63 1640.91 1326.97 1640.4 1327.27 1640.54C1327.45 1641.27 1327.24 1642.22 1327.12 1642.97C1326.5 1646.78 1325.74 1650.6 1325.04 1654.41C1324.95 1654.94 1324.9 1655.87 1324.36 1656.14C1324.21 1655.94 1324.05 1655.75 1323.91 1655.55L1323.92 1655.55Z" fill="#7B8436"/>
<path d="M1324.22 1658.59C1323.76 1658.99 1322.33 1660.3 1321.26 1662.49C1319.23 1666.72 1320.29 1670.77 1320.61 1671.91C1321.92 1676.58 1325.71 1680.75 1330.15 1681.84C1332.53 1682.42 1335.08 1682.12 1335.38 1682.08C1337.09 1681.87 1338.46 1681.42 1339.4 1681.02C1339.67 1680.9 1339.93 1680.77 1340.2 1680.65C1340.8 1680.28 1341.55 1679.76 1342.34 1679.03C1342.54 1678.84 1343.62 1677.83 1344.5 1676.49C1346.86 1672.92 1346.59 1668.79 1346.57 1668.4C1346.36 1665.64 1345.3 1663.68 1344.76 1662.7C1343.67 1660.75 1342.37 1659.42 1341.46 1658.62C1341.28 1658.46 1340.09 1657.49 1338.54 1656.79C1334.73 1655.05 1328.51 1654.86 1324.2 1658.58L1324.22 1658.59ZM1341.14 1675.22C1338.51 1679.27 1331.57 1679.38 1327.84 1676.78C1324.36 1674.35 1322.22 1668.77 1324.32 1664.91C1326.66 1657.64 1336.12 1657.06 1340.82 1662.41C1343.98 1666.01 1344.3 1671.56 1341.14 1675.22Z" fill="#FFCD06"/>
<path d="M1321.1 1677.3C1322.11 1678.78 1323.16 1679.7 1323.49 1679.99C1327.64 1683.54 1332.7 1683.28 1333.16 1683.25C1336.65 1683.02 1339.12 1681.45 1340.22 1680.65C1339.14 1681.15 1337.53 1681.75 1335.53 1681.88C1330.73 1682.21 1325.5 1679.77 1322.65 1675.19C1320.15 1671.18 1319.73 1665.89 1321.85 1661.76C1322.59 1660.33 1323.5 1659.29 1324.22 1658.59C1324.32 1658.51 1321.23 1660.75 1319.69 1664.46C1318.6 1667.1 1318.62 1669.39 1318.65 1670.16C1318.81 1673.87 1320.51 1676.43 1321.11 1677.3H1321.1Z" fill="#F6A11D"/>
<path d="M1324.32 1664.91C1327.1 1659.78 1332.97 1658.78 1337.74 1661.75C1342.17 1664.51 1344.06 1670.73 1341.14 1675.22C1344.3 1671.56 1343.98 1666.01 1340.82 1662.41C1336.12 1657.05 1326.66 1657.63 1324.32 1664.91Z" fill="#F3991F"/>
<path d="M1324.32 1664.92C1327.11 1659.78 1332.97 1658.78 1337.74 1661.76C1342.17 1664.51 1344.06 1670.73 1341.14 1675.22C1338.51 1679.28 1331.57 1679.38 1327.84 1676.78C1324.36 1674.35 1322.22 1668.77 1324.32 1664.92Z" fill="#FCB416"/>
<path d="M1332.54 1676.09C1334.2 1677.33 1337.05 1675.85 1337.39 1675.66C1337.5 1675.6 1337.57 1675.55 1337.62 1675.52C1338.91 1674.76 1341.33 1672.7 1340.78 1670.64C1340.33 1668.97 1338.18 1668.1 1337.61 1667.87C1337.07 1667.66 1334.98 1666.82 1333.22 1667.93C1331.58 1668.97 1331.43 1670.96 1331.36 1671.79C1331.3 1672.5 1331.1 1675.03 1332.54 1676.09Z" fill="#FFEECC"/>
<path d="M1337.72 1671.53C1338.1 1671.08 1337.82 1670.22 1337.1 1669.61C1336.38 1668.99 1335.48 1668.85 1335.1 1669.3C1334.72 1669.75 1334.99 1670.61 1335.72 1671.22C1336.44 1671.84 1337.34 1671.98 1337.72 1671.53Z" fill="#EE6825"/>
<path d="M1334.71 1673.63C1335.18 1673.46 1335.34 1672.73 1335.07 1671.98C1334.8 1671.24 1334.21 1670.77 1333.74 1670.93C1333.28 1671.1 1333.12 1671.83 1333.39 1672.58C1333.65 1673.33 1334.25 1673.8 1334.71 1673.63Z" fill="#EE6825"/>
<path d="M1263.74 1629.54C1263.56 1628.16 1262.85 1624.27 1259.68 1621.42C1259.68 1621.42 1257.33 1619.39 1253.82 1618.78C1251.8 1618.43 1251.96 1620.28 1251.86 1621.82C1251.48 1628.02 1255.96 1633.9 1262.16 1634.91" fill="#929A38"/>
<path d="M1262.82 1632.82C1262.8 1632.18 1262.78 1631.82 1262.56 1631.21C1261.82 1629.14 1259.29 1625.18 1257.49 1623.95C1257.33 1623.85 1256.97 1623.59 1256.81 1623.76C1256.88 1624.29 1257.26 1624.86 1257.52 1625.33C1258.89 1627.68 1260.36 1630.01 1261.78 1632.34C1261.98 1632.66 1262.24 1633.27 1262.67 1633.32C1262.72 1633.15 1262.78 1632.99 1262.82 1632.83V1632.82Z" fill="#7B8436"/>
<path d="M1263.48 1629.48C1264.39 1628.41 1267.09 1625.52 1271.3 1624.84C1271.3 1624.84 1274.37 1624.39 1277.66 1625.78C1279.55 1626.57 1278.41 1628.04 1277.66 1629.38C1274.62 1634.8 1267.66 1637.34 1261.9 1634.85" fill="#929A38"/>
<path d="M1262.48 1632.72C1262.84 1632.2 1263.05 1631.91 1263.57 1631.52C1265.32 1630.18 1269.58 1628.2 1271.77 1628.15C1271.96 1628.15 1272.4 1628.12 1272.44 1628.35C1272.09 1628.76 1271.47 1629.04 1270.99 1629.28C1268.56 1630.52 1266.06 1631.69 1263.61 1632.88C1263.26 1633.05 1262.71 1633.41 1262.33 1633.23C1262.39 1633.06 1262.43 1632.89 1262.47 1632.73L1262.48 1632.72Z" fill="#7B8436"/>
<path d="M1260.87 1634.16C1260.45 1634.07 1259.11 1633.8 1257.42 1634.12C1254.16 1634.72 1252.3 1637.03 1251.78 1637.69C1249.67 1640.37 1248.87 1644.26 1250.12 1647.24C1250.79 1648.84 1252.02 1650.16 1252.17 1650.32C1252.99 1651.19 1253.83 1651.78 1254.45 1652.15C1254.63 1652.25 1254.81 1652.35 1255 1652.45C1255.46 1652.63 1256.08 1652.84 1256.82 1652.98C1257.01 1653.02 1258.04 1653.21 1259.16 1653.16C1262.19 1652.99 1264.43 1651.11 1264.63 1650.94C1266.12 1649.66 1266.79 1648.25 1267.12 1647.54C1267.77 1646.1 1267.99 1644.81 1268.07 1643.97C1268.09 1643.8 1268.13 1642.72 1267.89 1641.55C1267.28 1638.66 1264.78 1635.06 1260.86 1634.16H1260.87ZM1258.47 1650.72C1255.07 1650.92 1252.1 1647.02 1252.02 1643.83C1251.96 1640.84 1254.24 1637.3 1257.31 1636.87C1262.44 1635.15 1266.73 1640.27 1265.64 1645.17C1264.91 1648.47 1261.88 1650.97 1258.47 1650.72Z" fill="#FFCD06"/>
<path d="M1248.91 1640.23C1248.49 1641.42 1248.41 1642.4 1248.38 1642.71C1248.09 1646.54 1250.36 1649.3 1250.56 1649.55C1252.15 1651.43 1254.08 1652.18 1254.99 1652.46C1254.26 1652.06 1253.24 1651.4 1252.33 1650.32C1250.14 1647.73 1249.34 1643.75 1250.76 1640.22C1252 1637.13 1254.84 1634.68 1258.08 1634.15C1259.2 1633.96 1260.18 1634.04 1260.87 1634.16C1260.96 1634.18 1258.4 1633.38 1255.63 1634.05C1253.67 1634.53 1252.38 1635.5 1251.95 1635.84C1249.9 1637.49 1249.15 1639.52 1248.9 1640.22L1248.91 1640.23Z" fill="#F6A11D"/>
<path d="M1257.31 1636.87C1261.41 1636.3 1264.42 1639.2 1264.73 1643.15C1265.01 1646.81 1262.25 1650.49 1258.48 1650.71C1261.88 1650.96 1264.91 1648.46 1265.64 1645.16C1266.73 1640.26 1262.44 1635.14 1257.31 1636.86V1636.87Z" fill="#F3991F"/>
<path d="M1257.31 1636.87C1261.41 1636.3 1264.42 1639.2 1264.73 1643.15C1265.01 1646.81 1262.25 1650.49 1258.47 1650.71C1255.07 1650.91 1252.1 1647.01 1252.02 1643.82C1251.96 1640.83 1254.24 1637.29 1257.31 1636.86V1636.87Z" fill="#FCB416"/>
<path d="M1254.37 1646.2C1254.37 1647.66 1256.4 1648.65 1256.66 1648.76C1256.73 1648.8 1256.79 1648.82 1256.83 1648.84C1257.8 1649.25 1259.99 1649.77 1260.94 1648.58C1261.71 1647.63 1261.29 1646.05 1261.19 1645.63C1261.08 1645.23 1260.68 1643.7 1259.32 1643.17C1258.04 1642.68 1256.84 1643.42 1256.34 1643.72C1255.92 1643.99 1254.39 1644.93 1254.38 1646.19L1254.37 1646.2Z" fill="#FFEECC"/>
<path d="M1259.96 1646.1C1260.01 1645.43 1259.72 1644.86 1259.3 1644.83C1258.89 1644.81 1258.51 1645.32 1258.47 1645.99C1258.42 1646.66 1258.71 1647.23 1259.13 1647.26C1259.54 1647.29 1259.92 1646.77 1259.96 1646.1Z" fill="#EE6825"/>
<path d="M1257.79 1645.93C1258.1 1645.47 1258.12 1644.94 1257.83 1644.75C1257.54 1644.55 1257.06 1644.77 1256.75 1645.23C1256.43 1645.69 1256.41 1646.22 1256.7 1646.41C1256.99 1646.61 1257.48 1646.39 1257.79 1645.93Z" fill="#EE6825"/>
<path d="M1125.21 1630.17C1124.34 1629.08 1121.72 1626.11 1117.52 1625.31C1117.52 1625.31 1114.47 1624.78 1111.14 1626.07C1109.21 1626.81 1110.32 1628.32 1111.03 1629.68C1113.92 1635.18 1120.8 1637.9 1126.63 1635.58" fill="#929A38"/>
<path d="M1126.12 1633.44C1125.77 1632.91 1125.56 1632.61 1125.07 1632.21C1123.36 1630.83 1119.15 1628.73 1116.96 1628.61C1116.77 1628.6 1116.33 1628.57 1116.29 1628.79C1116.62 1629.21 1117.24 1629.51 1117.7 1629.76C1120.09 1631.07 1122.56 1632.31 1124.98 1633.57C1125.32 1633.75 1125.86 1634.13 1126.25 1633.94C1126.2 1633.78 1126.16 1633.61 1126.12 1633.44V1633.44Z" fill="#7B8436"/>
<path d="M1124.95 1630.24C1125.17 1628.86 1125.99 1624.99 1129.24 1622.23C1129.24 1622.23 1131.64 1620.27 1135.17 1619.76C1137.21 1619.46 1136.99 1621.31 1137.05 1622.84C1137.25 1629.06 1132.61 1634.81 1126.39 1635.65" fill="#929A38"/>
<path d="M1125.78 1633.53C1125.82 1632.89 1125.85 1632.53 1126.09 1631.93C1126.89 1629.88 1129.52 1625.99 1131.37 1624.82C1131.53 1624.71 1131.89 1624.48 1132.04 1624.65C1131.97 1625.18 1131.57 1625.74 1131.29 1626.18C1129.85 1628.5 1128.32 1630.79 1126.84 1633.07C1126.63 1633.4 1126.34 1633.98 1125.92 1634.02C1125.89 1633.85 1125.83 1633.69 1125.79 1633.52L1125.78 1633.53Z" fill="#7B8436"/>
<path d="M1125.15 1635.6C1124.75 1635.73 1123.45 1636.19 1122.18 1637.34C1119.7 1639.54 1119.3 1642.48 1119.2 1643.3C1118.78 1646.69 1120.12 1650.43 1122.72 1652.35C1124.11 1653.37 1125.86 1653.87 1126.07 1653.92C1127.23 1654.25 1128.25 1654.31 1128.98 1654.31C1129.19 1654.31 1129.4 1654.29 1129.61 1654.28C1130.09 1654.21 1130.73 1654.07 1131.44 1653.8C1131.62 1653.73 1132.6 1653.36 1133.54 1652.74C1136.04 1651.04 1136.99 1648.28 1137.08 1648.02C1137.69 1646.16 1137.53 1644.6 1137.44 1643.83C1137.27 1642.26 1136.77 1641.04 1136.4 1640.28C1136.33 1640.12 1135.81 1639.17 1134.99 1638.3C1132.98 1636.14 1128.98 1634.34 1125.16 1635.61L1125.15 1635.6ZM1131.67 1651C1128.86 1652.93 1124.31 1651.12 1122.58 1648.43C1120.98 1645.9 1121.1 1641.7 1123.51 1639.75C1127.01 1635.64 1133.33 1637.81 1134.94 1642.57C1136.02 1645.77 1134.73 1649.47 1131.67 1651.01V1651Z" fill="#FFCD06"/>
<path d="M1118.04 1646.95C1118.3 1648.18 1118.74 1649.06 1118.87 1649.34C1120.61 1652.78 1123.98 1653.97 1124.29 1654.08C1126.63 1654.86 1128.66 1654.51 1129.6 1654.28C1128.76 1654.32 1127.55 1654.28 1126.2 1653.83C1122.98 1652.75 1120.24 1649.75 1119.62 1646C1119.08 1642.71 1120.24 1639.15 1122.75 1637.03C1123.61 1636.29 1124.5 1635.86 1125.15 1635.61C1125.24 1635.57 1122.62 1636.2 1120.6 1638.21C1119.18 1639.63 1118.57 1641.13 1118.38 1641.64C1117.47 1644.1 1117.89 1646.23 1118.04 1646.96V1646.95Z" fill="#F6A11D"/>
<path d="M1123.51 1639.75C1126.71 1637.15 1130.8 1638.08 1133.12 1641.3C1135.26 1644.28 1134.8 1648.86 1131.68 1651C1134.73 1649.46 1136.03 1645.76 1134.94 1642.56C1133.34 1637.8 1127.02 1635.64 1123.52 1639.75H1123.51Z" fill="#F3991F"/>
<path d="M1123.51 1639.74C1126.71 1637.15 1130.81 1638.08 1133.12 1641.3C1135.26 1644.28 1134.8 1648.86 1131.68 1651C1128.86 1652.93 1124.32 1651.12 1122.59 1648.43C1120.99 1645.9 1121.11 1641.7 1123.52 1639.75L1123.51 1639.74Z" fill="#FCB416"/>
<path d="M1125.83 1649.25C1126.58 1650.5 1128.84 1650.3 1129.11 1650.27C1129.2 1650.27 1129.26 1650.25 1129.29 1650.25C1130.34 1650.11 1132.47 1649.42 1132.68 1647.92C1132.84 1646.71 1131.67 1645.56 1131.36 1645.26C1131.06 1644.98 1129.93 1643.86 1128.49 1644.11C1127.13 1644.35 1126.49 1645.6 1126.22 1646.12C1125.99 1646.57 1125.17 1648.16 1125.83 1649.25Z" fill="#FFEECC"/>
<path d="M1130.45 1647.67C1130.82 1647.48 1130.87 1646.84 1130.56 1646.25C1130.26 1645.65 1129.71 1645.32 1129.34 1645.5C1128.97 1645.69 1128.92 1646.33 1129.22 1646.93C1129.53 1647.53 1130.08 1647.86 1130.45 1647.67Z" fill="#EE6825"/>
<path d="M1128.6 1647.25C1128.63 1646.69 1128.37 1646.23 1128.02 1646.21C1127.68 1646.19 1127.37 1646.63 1127.35 1647.18C1127.32 1647.74 1127.58 1648.2 1127.92 1648.22C1128.27 1648.24 1128.57 1647.8 1128.6 1647.25Z" fill="#EE6825"/>
<path d="M1201.81 1651.19C1201.24 1649.92 1199.47 1646.38 1195.61 1644.54C1195.61 1644.54 1192.79 1643.25 1189.25 1643.65C1187.2 1643.88 1187.88 1645.62 1188.23 1647.12C1189.62 1653.17 1195.57 1657.56 1201.81 1656.79" fill="#929A38"/>
<path d="M1201.84 1654.59C1201.64 1653.98 1201.52 1653.64 1201.15 1653.13C1199.85 1651.35 1196.32 1648.26 1194.23 1647.58C1194.05 1647.53 1193.64 1647.38 1193.53 1647.58C1193.74 1648.08 1194.26 1648.51 1194.65 1648.88C1196.63 1650.75 1198.69 1652.58 1200.71 1654.42C1201 1654.67 1201.42 1655.18 1201.84 1655.1C1201.84 1654.93 1201.84 1654.76 1201.84 1654.58V1654.59Z" fill="#7B8436"/>
<path d="M1201.54 1651.19C1202.11 1649.92 1203.88 1646.38 1207.74 1644.54C1207.74 1644.54 1210.55 1643.25 1214.1 1643.65C1216.15 1643.88 1215.46 1645.62 1215.12 1647.12C1213.73 1653.17 1207.77 1657.56 1201.54 1656.79" fill="#929A38"/>
<path d="M1201.5 1654.59C1201.7 1653.98 1201.83 1653.64 1202.2 1653.13C1203.5 1651.35 1207.03 1648.26 1209.11 1647.58C1209.3 1647.53 1209.7 1647.38 1209.82 1647.58C1209.61 1648.08 1209.09 1648.51 1208.7 1648.88C1206.72 1650.75 1204.65 1652.58 1202.63 1654.42C1202.35 1654.67 1201.93 1655.18 1201.5 1655.1C1201.5 1654.93 1201.5 1654.76 1201.5 1654.58V1654.59Z" fill="#7B8436"/>
<path d="M1200.37 1656.42C1199.94 1656.45 1198.57 1656.57 1197.04 1657.35C1194.09 1658.85 1192.95 1661.58 1192.64 1662.36C1191.38 1665.53 1191.71 1669.49 1193.75 1672C1194.83 1673.34 1196.39 1674.26 1196.58 1674.38C1197.63 1674.99 1198.59 1675.31 1199.29 1675.5C1199.49 1675.54 1199.7 1675.58 1199.9 1675.63C1200.4 1675.68 1201.04 1675.71 1201.8 1675.63C1201.99 1675.61 1203.02 1675.51 1204.09 1675.13C1206.94 1674.12 1208.57 1671.69 1208.71 1671.46C1209.78 1669.82 1210.03 1668.28 1210.14 1667.5C1210.37 1665.94 1210.21 1664.64 1210.05 1663.8C1210.02 1663.64 1209.76 1662.59 1209.19 1661.54C1207.79 1658.94 1204.38 1656.17 1200.37 1656.43V1656.42ZM1202.74 1672.97C1199.52 1674.12 1195.58 1671.23 1194.6 1668.17C1193.69 1665.32 1194.89 1661.28 1197.7 1660.01C1202.14 1656.92 1207.7 1660.63 1208.04 1665.64C1208.27 1669.01 1206.07 1672.26 1202.73 1672.96L1202.74 1672.97Z" fill="#FFCD06"/>
<path d="M1190.6 1665.6C1190.53 1666.86 1190.72 1667.83 1190.79 1668.12C1191.6 1671.88 1194.55 1673.9 1194.81 1674.07C1196.87 1675.43 1198.93 1675.61 1199.89 1675.63C1199.07 1675.46 1197.91 1675.11 1196.72 1674.32C1193.89 1672.45 1192 1668.85 1192.37 1665.07C1192.69 1661.75 1194.72 1658.61 1197.68 1657.2C1198.7 1656.7 1199.66 1656.51 1200.37 1656.43C1200.46 1656.42 1197.77 1656.36 1195.31 1657.79C1193.56 1658.8 1192.59 1660.1 1192.28 1660.55C1190.78 1662.69 1190.63 1664.86 1190.6 1665.61V1665.6Z" fill="#F6A11D"/>
<path d="M1197.71 1660.02C1201.46 1658.33 1205.18 1660.26 1206.59 1663.97C1207.9 1667.39 1206.29 1671.7 1202.73 1672.97C1206.07 1672.26 1208.27 1669.01 1208.04 1665.65C1207.7 1660.63 1202.14 1656.92 1197.71 1660.02Z" fill="#F3991F"/>
<path d="M1197.7 1660.02C1201.46 1658.33 1205.18 1660.27 1206.59 1663.97C1207.9 1667.39 1206.29 1671.7 1202.73 1672.97C1199.51 1674.12 1195.57 1671.23 1194.59 1668.17C1193.68 1665.32 1194.88 1661.28 1197.69 1660.01L1197.7 1660.02Z" fill="#FCB416"/>
<path d="M1197.53 1669.8C1197.94 1671.21 1200.17 1671.58 1200.45 1671.62C1200.53 1671.63 1200.59 1671.64 1200.63 1671.65C1201.68 1671.78 1203.92 1671.65 1204.5 1670.26C1204.97 1669.13 1204.13 1667.73 1203.9 1667.35C1203.69 1667 1202.87 1665.64 1201.42 1665.52C1200.05 1665.41 1199.1 1666.45 1198.71 1666.89C1198.38 1667.26 1197.18 1668.6 1197.53 1669.81V1669.8Z" fill="#FFEECC"/>
<path d="M1202.4 1669.43C1202.8 1669.35 1203.02 1668.74 1202.87 1668.09C1202.73 1667.43 1202.28 1666.97 1201.88 1667.06C1201.47 1667.15 1201.26 1667.75 1201.4 1668.41C1201.55 1669.06 1201.99 1669.52 1202.4 1669.43Z" fill="#EE6825"/>
<path d="M1200.72 1668.56C1200.88 1668.03 1200.75 1667.52 1200.42 1667.41C1200.09 1667.31 1199.69 1667.65 1199.52 1668.18C1199.35 1668.71 1199.48 1669.23 1199.81 1669.33C1200.14 1669.44 1200.55 1669.09 1200.72 1668.56Z" fill="#EE6825"/>
</svg>
