<svg width="2000" height="2000" viewBox="0 0 2000 2000" fill="none" xmlns="http://www.w3.org/2000/svg">
<path d="M633.32 1687.99C633.619 1694.76 635.413 1702.43 640.362 1710.34C640.396 1710.41 640.462 1710.47 640.495 1710.54C646.341 1719.64 656.672 1724.92 667.501 1724.92H816.214C820.864 1724.92 825.514 1724.69 830.165 1724.22C842.09 1723.03 855.177 1721.07 869.195 1718.08C879.725 1715.82 889.524 1713.23 898.559 1710.47C906.83 1707.95 912.444 1700.31 912.444 1691.67C913.075 1685.89 913.706 1680.15 914.337 1674.37C820.665 1678.92 727.026 1683.44 633.354 1687.99H633.32Z" fill="#EFB029"/>
<path d="M907.03 1694.63C899.191 1704.43 884.542 1708.08 854.945 1713.96C849.564 1715.02 844.582 1715.89 840.131 1716.58C832.391 1717.81 824.552 1718.41 816.713 1718.41H666.903C665.641 1718.41 664.379 1718.31 663.117 1718.15C662.585 1718.08 662.087 1718.01 661.556 1717.91C659.762 1717.58 658.001 1717.12 656.307 1716.45C656.274 1716.45 656.208 1716.45 656.174 1716.38C655.743 1716.25 655.377 1716.05 654.979 1715.89C653.816 1715.39 652.687 1714.82 651.624 1714.16C651.159 1713.89 650.727 1713.59 650.262 1713.33C650.195 1713.26 650.096 1713.23 650.029 1713.16C649.564 1712.86 649.132 1712.53 648.701 1712.2C647.571 1711.34 646.442 1710.37 645.478 1709.31C644.914 1708.78 644.449 1708.28 643.984 1707.68C643.452 1707.05 642.954 1706.42 642.489 1705.76C636.51 1697.35 630.63 1685.46 630.365 1671.11C630.298 1668.02 630.531 1665.03 630.996 1662.18C633.786 1644.04 645.744 1630.22 657.769 1616.34C659.43 1614.38 661.356 1612.28 663.582 1609.99C668.996 1604.41 675.008 1599.53 681.419 1595.34C682.183 1594.81 682.981 1594.35 683.778 1593.88C693.876 1587.67 704.97 1583.25 716.53 1580.73C724.203 1579.04 732.075 1578.17 740.048 1578.17C747.555 1578.17 754.995 1578.94 762.303 1580.5C768.249 1581.73 774.095 1583.49 779.808 1585.78L817.078 1600.56L913.972 1596.71V1664.5C915.6 1681.94 910.019 1690.87 906.997 1694.63H907.03Z" fill="#FFD451"/>
<path d="M772.335 1718.44H666.904C665.641 1718.44 664.379 1718.34 663.117 1718.18C662.585 1718.11 662.087 1718.05 661.556 1717.95C659.762 1717.61 658.001 1717.15 656.307 1716.48C656.274 1716.48 656.208 1716.48 656.174 1716.42C655.743 1716.29 655.377 1716.09 654.979 1715.92C653.816 1715.42 652.687 1714.86 651.624 1714.19C651.159 1713.93 650.727 1713.63 650.262 1713.36C650.195 1713.3 650.096 1713.26 650.029 1713.2C649.564 1712.9 649.132 1712.56 648.701 1712.23C647.571 1711.37 646.442 1710.41 645.478 1709.34C644.914 1708.81 644.449 1708.31 643.984 1707.72C643.452 1707.08 642.954 1706.45 642.489 1705.79C636.51 1697.38 630.63 1685.49 630.365 1671.14C630.298 1668.06 630.531 1665.07 630.996 1662.21C639.533 1653.14 650.129 1646.03 662.087 1641.65L681.453 1595.38C682.217 1594.85 683.014 1594.38 683.811 1593.92C693.909 1587.7 705.004 1583.29 716.563 1580.76C724.236 1579.07 732.109 1578.21 740.081 1578.21C747.588 1578.21 755.028 1578.97 762.336 1580.53L735.231 1649.92C757.553 1664.5 772.335 1689.78 772.335 1718.44Z" fill="#FFDC68"/>
<path d="M758.614 1579.97C745.128 1597.87 731.675 1615.77 718.189 1633.68C713.04 1640.52 715.531 1650.32 723.304 1653.94C730.545 1657.29 738.85 1662.38 746.722 1670.08C765.822 1688.78 770.107 1710.94 771.236 1718.41C786.184 1679.12 801.099 1639.82 816.046 1600.53L758.614 1579.93V1579.97Z" fill="#FFD451"/>
<path d="M683.811 1593.92C680.39 1608.7 676.968 1623.51 673.58 1638.29C672.251 1643.94 669.129 1649.09 664.512 1652.61C658.367 1657.29 649.963 1665.9 647.173 1679.55C643.319 1698.68 653.484 1713.06 656.174 1716.45C655.743 1716.32 655.377 1716.12 654.979 1715.95C653.816 1715.45 652.687 1714.89 651.624 1714.23C651.159 1713.96 650.727 1713.66 650.262 1713.39C650.195 1713.33 650.096 1713.3 650.029 1713.23C649.564 1712.93 649.132 1712.6 648.701 1712.27C647.571 1711.4 646.442 1710.44 645.478 1709.38C644.914 1708.84 644.449 1708.35 643.984 1707.75C643.452 1707.12 642.954 1706.49 642.489 1705.82C636.51 1697.42 630.63 1685.53 630.365 1671.18C630.298 1668.09 630.531 1665.1 630.996 1662.24C633.786 1644.11 645.744 1630.29 657.769 1616.4C659.43 1614.44 661.356 1612.35 663.582 1610.06C668.996 1604.48 675.008 1599.6 681.419 1595.41C682.183 1594.88 682.981 1594.41 683.778 1593.95L683.811 1593.92Z" fill="#FFD451"/>
<path d="M724.698 1646.03C724.366 1646.03 724.001 1645.97 723.669 1645.87C714.468 1642.74 704.868 1641.08 695.168 1640.85C685.801 1640.65 676.5 1641.78 667.465 1644.27C665.705 1644.74 663.944 1643.74 663.479 1642.01C663.014 1640.29 664.011 1638.49 665.738 1638.03C675.371 1635.37 685.336 1634.14 695.301 1634.37C705.665 1634.61 715.896 1636.4 725.728 1639.72C727.422 1640.29 728.352 1642.15 727.754 1643.84C727.289 1645.2 726.027 1646.07 724.665 1646.07L724.698 1646.03Z" fill="#EFAF26"/>
<path d="M728.789 1637.36C728.59 1637.36 728.357 1637.36 728.158 1637.3L669.231 1625.47C667.47 1625.11 666.341 1623.41 666.673 1621.65C667.005 1619.89 668.733 1618.76 670.493 1619.1L729.42 1630.92C731.181 1631.29 732.31 1632.98 731.978 1634.74C731.679 1636.27 730.317 1637.36 728.789 1637.36Z" fill="#EFAF26"/>
<path d="M669.859 1634.27C668.265 1634.27 666.836 1633.08 666.637 1631.45C666.404 1629.66 667.667 1628.03 669.427 1627.8L735.828 1619.09C737.589 1618.86 739.25 1620.12 739.482 1621.88C739.715 1623.68 738.452 1625.31 736.692 1625.54L670.291 1634.24C670.291 1634.24 669.992 1634.24 669.859 1634.24V1634.27Z" fill="#EFAF26"/>
<path d="M743.735 1613.71C743.735 1613.71 743.469 1613.71 743.336 1613.71L679.227 1606.17C677.433 1605.97 676.171 1604.35 676.37 1602.55C676.57 1600.76 678.164 1599.46 679.991 1599.69L744.1 1607.24C745.894 1607.43 747.156 1609.06 746.957 1610.86C746.757 1612.52 745.362 1613.71 743.735 1613.71Z" fill="#EFAF26"/>
<path d="M677.933 1615.57C676.372 1615.57 674.976 1614.44 674.711 1612.82C674.445 1611.06 675.641 1609.4 677.435 1609.1L747.357 1598.1C749.117 1597.8 750.778 1599.03 751.077 1600.79C751.343 1602.55 750.147 1604.21 748.353 1604.51L678.431 1615.51C678.265 1615.51 678.099 1615.54 677.933 1615.54V1615.57Z" fill="#EFAF26"/>
<path d="M914.172 1674.4H914.305C913.707 1680.15 913.042 1685.89 912.411 1691.67C912.411 1700.31 906.797 1707.91 898.526 1710.47C889.491 1713.23 879.692 1715.82 869.162 1718.08C855.145 1721.1 842.057 1723.03 830.132 1724.22C825.515 1724.72 820.832 1724.92 816.181 1724.92H667.501C656.639 1724.92 646.375 1719.67 640.529 1710.54C640.463 1710.47 640.396 1710.41 640.363 1710.34C635.414 1702.43 633.62 1694.73 633.321 1687.98C631.594 1682.87 630.498 1677.22 630.365 1671.11C630.298 1668.05 630.531 1665.07 630.963 1662.18C633.753 1644.04 645.744 1630.22 657.736 1616.37C659.43 1614.41 661.323 1612.28 663.549 1610.03C668.996 1604.41 674.975 1599.53 681.386 1595.38C682.15 1594.85 682.947 1594.35 683.745 1593.92C693.843 1587.7 704.97 1583.32 716.497 1580.76C724.203 1579.04 732.042 1578.17 740.014 1578.17C747.555 1578.17 754.995 1578.94 762.303 1580.5C768.282 1581.73 774.095 1583.49 779.775 1585.78L817.078 1600.56L914.006 1596.67V1664.47C914.338 1668.15 914.371 1671.44 914.138 1674.37L914.172 1674.4Z" stroke="#EFB029" stroke-miterlimit="10"/>
<path d="M1369.86 1691.21C1369.57 1697.98 1367.77 1705.66 1362.82 1713.56C1362.79 1713.63 1362.72 1713.7 1362.69 1713.76C1356.84 1722.86 1346.51 1728.14 1335.68 1728.14H1186.97C1182.32 1728.14 1177.67 1727.91 1173.02 1727.45C1161.09 1726.25 1148.01 1724.29 1133.99 1721.3C1123.46 1719.04 1113.66 1716.45 1104.63 1713.7C1096.35 1711.17 1090.74 1703.53 1090.74 1694.9C1090.11 1689.12 1089.48 1683.37 1088.85 1677.59C1182.52 1682.14 1276.16 1686.66 1369.83 1691.21H1369.86Z" fill="#EFB029"/>
<path d="M1096.15 1697.85C1103.99 1707.65 1118.64 1711.3 1148.24 1717.18C1153.62 1718.25 1158.6 1719.11 1163.05 1719.81C1170.79 1721.04 1178.63 1721.63 1186.47 1721.63H1336.31C1337.57 1721.63 1338.84 1721.53 1340.1 1721.37C1340.63 1721.3 1341.13 1721.23 1341.66 1721.14C1343.45 1720.8 1345.21 1720.34 1346.91 1719.67C1346.94 1719.67 1347.01 1719.67 1347.04 1719.61C1347.47 1719.47 1347.84 1719.28 1348.24 1719.11C1349.4 1718.61 1350.53 1718.05 1351.59 1717.38C1352.06 1717.12 1352.49 1716.82 1352.95 1716.55C1353.02 1716.49 1353.12 1716.45 1353.19 1716.39C1353.65 1716.09 1354.08 1715.75 1354.51 1715.42C1355.64 1714.56 1356.77 1713.6 1357.74 1712.53C1358.3 1712 1358.77 1711.5 1359.23 1710.9C1359.76 1710.27 1360.26 1709.64 1360.73 1708.98C1366.71 1700.57 1372.58 1688.68 1372.85 1674.33C1372.92 1671.24 1372.68 1668.26 1372.22 1665.4C1369.43 1647.26 1357.47 1633.44 1345.45 1619.56C1343.79 1617.6 1341.86 1615.51 1339.63 1613.22C1334.22 1607.64 1328.21 1602.75 1321.8 1598.57C1321.03 1598.04 1320.23 1597.57 1319.44 1597.11C1309.34 1590.89 1298.24 1586.48 1286.69 1583.95C1279.01 1582.26 1271.14 1581.39 1263.17 1581.39C1255.66 1581.39 1248.22 1582.16 1240.91 1583.72C1234.97 1584.95 1229.12 1586.71 1223.41 1589L1186.14 1603.78L1089.24 1599.93C1089.24 1622.52 1089.24 1645.14 1089.24 1667.72C1087.62 1685.16 1093.2 1694.1 1096.22 1697.85H1096.15Z" fill="#FFD451"/>
<path d="M1230.85 1721.67H1336.28C1337.54 1721.67 1338.81 1721.57 1340.07 1721.4C1340.6 1721.33 1341.1 1721.27 1341.63 1721.17C1343.42 1720.84 1345.18 1720.37 1346.88 1719.71C1346.91 1719.71 1346.98 1719.71 1347.01 1719.64C1347.44 1719.51 1347.81 1719.31 1348.21 1719.14C1349.37 1718.64 1350.5 1718.08 1351.56 1717.41C1352.03 1717.15 1352.46 1716.85 1352.92 1716.58C1352.99 1716.52 1353.09 1716.48 1353.16 1716.42C1353.62 1716.12 1354.05 1715.79 1354.49 1715.46C1355.61 1714.59 1356.74 1713.63 1357.71 1712.57C1358.27 1712.03 1358.74 1711.54 1359.2 1710.94C1359.73 1710.31 1360.23 1709.68 1360.7 1709.01C1366.68 1700.61 1372.56 1688.72 1372.82 1674.37C1372.89 1671.28 1372.66 1668.29 1372.19 1665.43C1363.65 1656.36 1353.06 1649.26 1341.1 1644.87L1321.73 1598.6C1320.97 1598.07 1320.17 1597.6 1319.38 1597.14C1309.28 1590.93 1298.18 1586.51 1286.62 1583.99C1278.95 1582.29 1271.08 1581.43 1263.11 1581.43C1255.6 1581.43 1248.16 1582.19 1240.85 1583.75L1267.96 1653.14C1245.63 1667.72 1230.85 1693 1230.85 1721.67Z" fill="#FFDC68"/>
<path d="M1244.57 1583.19C1258.06 1601.09 1271.51 1619 1285 1636.9C1290.14 1643.74 1287.65 1653.54 1279.88 1657.16C1272.64 1660.52 1264.34 1665.6 1256.46 1673.31C1237.36 1692.01 1233.08 1714.16 1231.95 1721.63C1217 1682.34 1202.09 1643.05 1187.14 1603.75L1244.57 1583.16V1583.19Z" fill="#FFD451"/>
<path d="M1319.38 1597.14C1322.8 1611.92 1326.22 1626.73 1329.61 1641.52C1330.94 1647.16 1334.06 1652.31 1338.68 1655.83C1344.82 1660.52 1353.23 1669.12 1356.02 1682.77C1359.87 1701.9 1349.7 1716.29 1347.01 1719.67C1347.45 1719.54 1347.81 1719.34 1348.21 1719.18C1349.37 1718.68 1350.5 1718.11 1351.56 1717.45C1352.03 1717.18 1352.46 1716.88 1352.93 1716.62C1352.99 1716.55 1353.09 1716.52 1353.16 1716.45C1353.62 1716.15 1354.06 1715.82 1354.49 1715.49C1355.62 1714.62 1356.75 1713.66 1357.71 1712.6C1358.27 1712.07 1358.74 1711.57 1359.2 1710.97C1359.74 1710.34 1360.23 1709.71 1360.7 1709.04C1366.68 1700.64 1372.56 1688.75 1372.82 1674.4C1372.89 1671.31 1372.66 1668.32 1372.19 1665.46C1369.4 1647.33 1357.44 1633.51 1345.42 1619.63C1343.76 1617.67 1341.83 1615.57 1339.61 1613.28C1334.19 1607.7 1328.18 1602.82 1321.77 1598.63C1321 1598.1 1320.21 1597.64 1319.41 1597.17L1319.38 1597.14Z" fill="#FFD451"/>
<path d="M1278.48 1649.26C1278.82 1649.26 1279.18 1649.19 1279.51 1649.09C1288.71 1645.97 1298.31 1644.31 1308.01 1644.07C1317.38 1643.87 1326.68 1645 1335.72 1647.49C1337.48 1647.96 1339.24 1646.96 1339.7 1645.24C1340.17 1643.51 1339.17 1641.71 1337.44 1641.25C1327.81 1638.59 1317.85 1637.36 1307.88 1637.6C1297.52 1637.83 1287.29 1639.62 1277.45 1642.94C1275.76 1643.51 1274.83 1645.37 1275.43 1647.06C1275.89 1648.42 1277.16 1649.29 1278.52 1649.29L1278.48 1649.26Z" fill="#EFAF26"/>
<path d="M1274.4 1640.59C1274.6 1640.59 1274.83 1640.59 1275.03 1640.52L1333.96 1628.7C1335.72 1628.33 1336.85 1626.64 1336.52 1624.88C1336.18 1623.11 1334.46 1621.99 1332.7 1622.32L1273.77 1634.14C1272.01 1634.51 1270.88 1636.2 1271.21 1637.96C1271.51 1639.49 1272.87 1640.59 1274.4 1640.59Z" fill="#EFAF26"/>
<path d="M1333.32 1637.5C1334.92 1637.5 1336.35 1636.3 1336.55 1634.67C1336.78 1632.88 1335.52 1631.25 1333.76 1631.02L1267.36 1622.32C1265.59 1622.08 1263.93 1623.35 1263.7 1625.11C1263.47 1626.9 1264.73 1628.53 1266.49 1628.76L1332.89 1637.46C1332.89 1637.46 1333.19 1637.46 1333.32 1637.46V1637.5Z" fill="#EFAF26"/>
<path d="M1259.45 1616.93C1259.45 1616.93 1259.72 1616.93 1259.85 1616.93L1323.96 1609.39C1325.75 1609.2 1327.02 1607.57 1326.82 1605.77C1326.62 1603.98 1325.02 1602.69 1323.2 1602.92L1259.09 1610.46C1257.29 1610.66 1256.03 1612.28 1256.23 1614.08C1256.43 1615.74 1257.82 1616.93 1259.45 1616.93Z" fill="#EFAF26"/>
<path d="M1325.25 1618.8C1326.81 1618.8 1328.21 1617.67 1328.48 1616.04C1328.74 1614.28 1327.55 1612.62 1325.75 1612.32L1255.83 1601.32C1254.07 1601.03 1252.41 1602.25 1252.11 1604.01C1251.84 1605.78 1253.04 1607.44 1254.83 1607.73L1324.75 1618.73C1324.92 1618.73 1325.09 1618.76 1325.25 1618.76V1618.8Z" fill="#EFAF26"/>
<path d="M1372.82 1674.33C1372.69 1680.45 1371.59 1686.09 1369.87 1691.21C1369.57 1697.95 1367.78 1705.66 1362.83 1713.56C1362.79 1713.63 1362.76 1713.69 1362.66 1713.76C1356.81 1722.9 1346.52 1728.14 1335.69 1728.14H1186.97C1182.36 1728.14 1177.67 1727.94 1173.06 1727.45C1161.13 1726.25 1148.04 1724.32 1134.03 1721.3C1123.5 1719.04 1113.73 1716.42 1104.66 1713.69C1096.39 1711.17 1090.78 1703.53 1090.78 1694.89C1090.18 1689.11 1089.52 1683.34 1088.88 1677.62H1089.02C1088.78 1674.67 1088.82 1671.41 1089.15 1667.72V1599.93L1186.08 1603.82L1223.38 1589.03C1229.03 1586.74 1234.87 1584.98 1240.85 1583.75C1248.13 1582.19 1255.6 1581.43 1263.07 1581.43C1271.05 1581.43 1278.92 1582.29 1286.59 1584.02C1298.19 1586.54 1309.28 1590.93 1319.38 1597.17C1320.21 1597.64 1320.97 1598.1 1321.77 1598.63C1328.21 1602.82 1334.19 1607.67 1339.61 1613.28C1341.83 1615.54 1343.76 1617.67 1345.42 1619.63C1357.41 1633.51 1369.4 1647.3 1372.19 1665.4C1372.66 1668.32 1372.86 1671.31 1372.79 1674.37L1372.82 1674.33Z" stroke="#EFB029" stroke-miterlimit="10"/>
</svg>
