<svg width="24" height="24" viewBox="0 0 24 24" fill="none" xmlns="http://www.w3.org/2000/svg">
<g clip-path="url(#clip0_2391_114255)">
<path d="M3.00058 10C2.76058 10 2.55058 10.09 2.41058 10.25C2.27058 10.4 2.21058 10.62 2.24058 10.86L2.74058 13.85C2.82058 14.5 3.40058 15 4.00058 15H7.00058C7.64058 15 8.36058 14.44 8.50058 13.82L9.56058 10.63C9.60058 10.5 9.57058 10.31 9.50058 10.19C9.39058 10.07 9.22058 10 9.00058 10H3.00058ZM7.00058 17H4.00058C2.38058 17 0.960582 15.74 0.760582 14.14L0.260582 11.15C0.150582 10.3 0.390582 9.5 0.910582 8.92C1.43058 8.34 2.19058 8 3.00058 8H9.00058C9.83058 8 10.5806 8.35 11.0606 8.96C11.1706 9.11 11.2706 9.27 11.3506 9.45C11.7806 9.36 12.2206 9.36 12.6406 9.45C12.7206 9.27 12.8206 9.11 12.9406 8.96C13.4106 8.35 14.1606 8 15.0006 8H21.0006C21.8106 8 22.5706 8.34 23.0906 8.92C23.6006 9.5 23.8406 10.3 23.7406 11.11L23.2306 14.18C23.0406 15.74 21.6106 17 20.0006 17H17.0006C15.4406 17 13.9206 15.81 13.5406 14.3L12.6406 11.59C12.2606 11.31 11.7306 11.31 11.3506 11.59L10.4306 14.37C10.0706 15.82 8.56058 17 7.00058 17ZM15.0006 10C14.7806 10 14.6106 10.07 14.5006 10.19C14.4206 10.31 14.4006 10.5 14.4506 10.7L15.4606 13.75C15.6406 14.44 16.3606 15 17.0006 15H20.0006C20.5906 15 21.1806 14.5 21.2506 13.89L21.7606 10.82C21.7906 10.62 21.7306 10.4 21.5906 10.25C21.516 10.1684 21.4246 10.1039 21.3228 10.0607C21.221 10.0176 21.1111 9.99687 21.0006 10H15.0006Z" fill="currentColor"/>
</g>
<defs>
<clipPath id="clip0_2391_114255">
<rect width="24" height="24" fill="white"/>
</clipPath>
</defs>
</svg>
