<svg width="2000" height="2000" viewBox="0 0 2000 2000" fill="none" xmlns="http://www.w3.org/2000/svg">
<g clip-path="url(#clip0_2582_53564)">
<mask id="mask0_2582_53564" style="mask-type:luminance" maskUnits="userSpaceOnUse" x="557" y="993" width="444" height="674">
<path d="M1000.5 993.788H557V1667H1000.5V993.788Z" fill="white"/>
</mask>
<g mask="url(#mask0_2582_53564)">
<path d="M774.388 993.788C715.5 1032.83 635.296 1101.65 612.199 1131.03C582.743 1168.47 567.023 1199.7 560.79 1234.75C558.094 1249.88 550.437 1292.99 569.515 1303.35C585.363 1311.94 610.622 1293.12 614.946 1289.81C614.845 1296.17 614.794 1321.17 625.503 1324.91C633.414 1327.69 643.487 1317.61 648.447 1312.76C665.897 1295.66 692.276 1272.21 735.418 1238.18C722.012 1286.81 715.907 1328.68 712.931 1359.78C705.732 1434.74 713.007 1485.17 723.717 1559.64C734.222 1632.64 743.609 1651.71 759.049 1656.93C777.644 1663.21 799.698 1647.31 813.205 1635.36C814.757 1638.92 826.331 1664.79 846.935 1666.67C860.773 1667.94 871.355 1657.87 881.708 1647.75C895.19 1634.57 905.517 1618.45 924.392 1568.39C929.454 1554.96 936.017 1536.78 942.986 1514.9C951.61 1516.84 962.955 1518.9 976.386 1520.07C1004.42 1522.54 1026.24 1519.79 1028.94 1519.25C1061.4 1513.07 1070.63 1305.05 1047.99 1023.42" fill="#FFEECC"/>
<path d="M816.054 1612.44C844.798 1614.96 866.954 1611.53 873.568 1610.41C888.55 1607.87 900.938 1604.15 910.172 1600.85C908.137 1607.15 905.135 1614.71 900.633 1622.82C896.131 1630.93 891.323 1637.5 887.05 1642.58C887.05 1642.58 879.749 1651.03 869.625 1659.01C868.277 1660.08 862.782 1664.35 855.863 1666.14C851.971 1667.13 848.817 1667 848.13 1667C848.13 1667 845.358 1666.87 842.483 1666.11C836.556 1664.51 828.976 1659.27 822.591 1651.74C819.742 1648.38 815.927 1643.14 812.798 1635.87C805.014 1642.91 797.764 1647.59 792.397 1650.65C785.987 1654.28 781.688 1656.67 775.303 1657.77C771.259 1658.45 763.399 1659.8 755.844 1656.04C747.22 1651.77 743.685 1643.22 739.615 1633.43C736.639 1626.31 735.265 1620.61 733.408 1612.32C731.17 1602.27 730.025 1593.8 729.389 1587.88C749.688 1597.87 779.45 1609.24 816.029 1612.44H816.054Z" fill="#FDD6B6"/>
</g>
<mask id="mask1_2582_53564" style="mask-type:luminance" maskUnits="userSpaceOnUse" x="1000" y="993" width="444" height="674">
<path d="M1444 993.788H1000.5V1667H1444V993.788Z" fill="white"/>
</mask>
<g mask="url(#mask1_2582_53564)">
<path d="M1226.59 993.788C1285.47 1032.83 1365.68 1101.65 1388.78 1131.03C1418.23 1168.47 1433.95 1199.7 1440.18 1234.75C1442.88 1249.88 1450.54 1292.99 1431.46 1303.35C1415.61 1311.94 1390.35 1293.12 1386.03 1289.81C1386.13 1296.17 1386.18 1321.17 1375.47 1324.91C1367.56 1327.69 1357.49 1317.61 1352.53 1312.76C1335.08 1295.66 1308.7 1272.21 1265.56 1238.18C1278.96 1286.81 1285.07 1328.68 1288.04 1359.78C1295.24 1434.74 1287.97 1485.17 1277.26 1559.64C1266.75 1632.64 1257.37 1651.71 1241.93 1656.93C1223.33 1663.21 1201.28 1647.31 1187.77 1635.36C1186.22 1638.92 1174.64 1664.79 1154.04 1666.67C1140.2 1667.94 1129.62 1657.87 1119.27 1647.75C1105.79 1634.57 1095.46 1618.45 1076.58 1568.39C1071.52 1554.96 1064.96 1536.78 1057.99 1514.9C1049.37 1516.84 1038.02 1518.9 1024.59 1520.07C996.557 1522.54 974.732 1519.79 972.036 1519.25C939.578 1513.07 930.344 1305.05 952.983 1023.42" fill="#FFEECC"/>
<path d="M1184.95 1612.44C1156.2 1614.96 1134.05 1611.53 1127.43 1610.41C1112.45 1607.87 1100.06 1604.15 1090.83 1600.85C1092.86 1607.15 1095.86 1614.71 1100.37 1622.82C1104.87 1630.93 1109.68 1637.5 1113.95 1642.58C1113.95 1642.58 1121.25 1651.03 1131.38 1659.01C1132.72 1660.08 1138.22 1664.35 1145.14 1666.14C1149.03 1667.13 1152.18 1667 1152.87 1667C1152.87 1667 1155.64 1666.87 1158.52 1666.11C1164.44 1664.51 1172.02 1659.27 1178.41 1651.74C1181.26 1648.38 1185.07 1643.14 1188.2 1635.87C1195.99 1642.91 1203.24 1647.59 1208.6 1650.65C1215.01 1654.28 1219.31 1656.67 1225.7 1657.77C1229.74 1658.45 1237.6 1659.8 1245.16 1656.04C1253.78 1651.77 1257.32 1643.22 1261.39 1633.43C1264.36 1626.31 1265.74 1620.61 1267.59 1612.32C1269.83 1602.27 1270.98 1593.8 1271.61 1587.88C1251.31 1597.87 1221.55 1609.24 1184.97 1612.44H1184.95Z" fill="#FDD6B6"/>
</g>
<path d="M1401.75 1407.01C1399.13 1415.33 1392.9 1422.99 1384.99 1427.72C1377.07 1432.45 1367.18 1434.18 1358.96 1432.47C1353.67 1431.38 1350.98 1430.34 1346.5 1427.79C1342.81 1425.68 1339.61 1423.22 1337.24 1420.11C1337.75 1420.8 1336.88 1419.55 1336.88 1419.55C1336.55 1419.04 1336.22 1418.54 1335.89 1418C1335.56 1417.47 1335.28 1416.96 1335.03 1416.4C1335.1 1416.58 1335.48 1417.52 1335.1 1416.53C1334.72 1415.53 1334.42 1414.57 1334.16 1413.58C1334.09 1413.27 1333.93 1411.85 1334.11 1413.35C1334.06 1412.76 1334.01 1412.15 1334.01 1411.57C1334.01 1410.98 1334.01 1410.35 1334.06 1409.76C1334.06 1409.96 1333.88 1411.03 1334.09 1409.96C1334.29 1408.9 1334.54 1407.83 1334.9 1406.78C1334.42 1408.21 1335.51 1405.49 1335.71 1405.08C1336.12 1404.29 1337.21 1402.44 1337.39 1402.18C1342 1395.54 1351.38 1390.13 1358.73 1391.78C1362.02 1392.52 1365.32 1394.65 1367.26 1397.15C1370.36 1401.14 1371.35 1403.78 1372.52 1408.36C1372.65 1408.85 1373.18 1411.31 1373.06 1410.6C1372.88 1409.61 1373.11 1410.96 1373.11 1411.06C1373.16 1411.59 1373.23 1412.1 1373.26 1412.63C1373.34 1413.8 1373.34 1415 1373.34 1416.17C1373.31 1418 1373.44 1416.91 1373.06 1418.69C1371.94 1423.95 1370.89 1426.6 1367.97 1431.25C1362.96 1439.21 1354.56 1446.13 1345.38 1450.23C1334.01 1455.31 1320.81 1455.26 1308.83 1450.81C1309.03 1450.89 1309.69 1451.17 1308.67 1450.76C1307.88 1450.43 1307.1 1450.1 1306.33 1449.74C1305.16 1449.21 1304.02 1448.65 1302.87 1448.04C1300.91 1447 1299.01 1445.88 1297.15 1444.66C1296.39 1444.17 1295.67 1443.64 1294.94 1443.13C1293.77 1442.34 1296.54 1444.45 1294.58 1442.85C1294.02 1442.39 1293.44 1441.93 1292.9 1441.45C1283.97 1433.39 1270.95 1446.84 1279.9 1454.91C1298.04 1471.26 1325.77 1477.69 1348.76 1468.95C1374.43 1459.2 1396.99 1433.67 1390.86 1404.75C1388.27 1392.52 1380.46 1380.23 1368.55 1375.4C1354.23 1369.55 1338.54 1374.76 1327.68 1385.04C1318.06 1394.17 1312.26 1408.49 1317.02 1421.46C1321.47 1433.59 1332.15 1442.44 1343.88 1447.22C1359.06 1453.38 1375.09 1453.13 1390 1446.18C1404.5 1439.44 1415.18 1426.57 1419.94 1411.41C1421.46 1406.58 1417.75 1401.27 1413.07 1400.12C1407.88 1398.85 1403.3 1402.16 1401.77 1406.99L1401.75 1407.01Z" fill="#FFEECC"/>
<path d="M1178.21 1279.77C1178.41 1319.04 1170.65 1352.94 1154.07 1384.43C1137.53 1415.81 1113.47 1438.07 1083.07 1452.29C1038.81 1472.99 992.92 1477.19 946.649 1463.02C887.863 1445.01 848.283 1404.5 830.655 1340.25C825.898 1322.88 822.795 1305.35 822.769 1287.22C822.718 1263.11 827.17 1239.94 835.615 1217.71C844.874 1193.29 856.932 1170.63 873.161 1150.74C901.269 1116.28 935.838 1094.56 978.191 1088.07C1012.23 1082.86 1045.09 1086.19 1076.13 1103.59C1116.55 1126.27 1145.47 1160.25 1163.1 1205.65C1172.69 1230.38 1178.99 1255.81 1178.23 1279.77H1178.21Z" fill="white" stroke="white" stroke-width="1.07" stroke-miterlimit="10"/>
<path d="M823.253 552.789C823.125 567.108 820.607 575.018 816.385 588.218C815.393 591.296 814.553 593.229 812.976 594.602C810.814 596.433 807.736 596.815 805.879 597.018C798.985 597.807 776.041 596.688 732.263 587.837C758.642 557.926 788.887 535.621 818.852 518.987C823.38 533.154 823.304 545.362 823.253 552.789Z" fill="#FFEECC"/>
<path d="M1282.96 587.735C1282.73 587.786 1282.5 587.811 1282.27 587.837L1280.97 588.04C1231.57 598.57 1206.03 599.892 1198.71 599.028C1196.9 598.799 1193.8 598.468 1191.69 596.637C1190.08 595.238 1189.25 593.305 1188.2 590.126C1184 577.027 1181.49 569.143 1181.38 554.823C1181.31 546.939 1181.21 533.713 1186.63 518.453C1187.16 516.978 1187.82 515.147 1188.58 513.086C1223.92 531.399 1256.45 555.993 1282.96 587.735Z" fill="#FFEECC"/>
<path d="M1312.64 917.537C1225.09 1068.92 1028.3 1063.32 994.293 1062.36C981.168 1061.98 730.33 1051.27 666.381 873.816C627.131 765.01 683.042 662.46 693.7 642.952C702.196 627.361 711.71 613.169 721.885 600.249C761.313 608.591 787.335 611.516 800.97 611.516C803.64 611.516 805.828 611.389 807.558 611.185C810.305 610.88 816.792 610.117 822.286 605.437C827.272 601.139 829.052 595.543 830.044 592.44C834.343 579.062 837.447 569.372 837.574 552.891C837.625 544.141 837.752 529.568 831.672 512.171C899.336 478.038 962.675 471.731 973.791 470.815C1035.76 465.601 1109.8 475.826 1175.74 506.753C1174.67 509.449 1173.83 511.84 1173.17 513.671C1166.89 531.323 1167.01 546.1 1167.09 554.925C1167.22 571.432 1170.29 581.097 1174.62 594.577C1175.59 597.603 1177.37 603.199 1182.35 607.497C1187.82 612.177 1194.31 612.915 1197.03 613.245C1198.73 613.449 1200.95 613.551 1203.62 613.551C1217.38 613.551 1243.78 610.6 1283.8 602.08L1284.13 602.029C1287.1 601.673 1290.03 601.139 1292.9 600.452C1303.43 614.67 1312.82 630.184 1320.78 647.047C1324.34 654.601 1385.9 790.749 1312.59 917.537H1312.64Z" fill="#FFEECC"/>
<path d="M1326.28 555.205C1325.26 562.021 1321.29 568.583 1314.75 574.255C1306.59 581.351 1295.29 586.133 1282.96 587.76C1282.73 587.811 1282.5 587.837 1282.27 587.862L1280.97 588.066C1231.57 598.595 1206.03 599.918 1198.71 599.053C1196.9 598.824 1193.8 598.494 1191.69 596.662C1190.08 595.264 1189.25 593.331 1188.2 590.151C1184 577.053 1181.49 569.168 1181.38 554.849C1181.31 546.964 1181.21 533.739 1186.63 518.478C1187.16 517.003 1187.82 515.172 1188.58 513.112C1188.94 512.12 1189.37 511.077 1189.8 510.034C1195.38 496.605 1202.63 486.762 1211.99 480.048C1214.17 478.471 1216.51 477.046 1218.96 475.826C1223.48 473.511 1232.36 469.035 1242.64 469.035C1246.84 469.035 1251.31 469.798 1255.79 471.782C1268.74 477.428 1274.31 489.814 1276.11 494.876L1278.43 501.361L1284.97 503.599C1295.4 507.186 1304.63 513.214 1311.62 521.098C1322.82 533.713 1327.75 545.209 1326.25 555.205H1326.28Z" fill="#FFEECC"/>
<path d="M823.253 552.789C823.125 567.108 820.607 575.018 816.384 588.218C815.392 591.296 814.553 593.229 812.976 594.602C810.814 596.433 807.736 596.815 805.879 597.018C798.985 597.807 776.041 596.688 732.263 587.837C729.465 587.277 726.591 586.667 723.615 586.031L722.317 585.802C709.7 584.301 698.177 579.444 689.808 572.169C686.527 569.346 683.932 566.32 681.999 563.115C680.066 559.91 678.819 556.553 678.311 553.17C676.81 543.149 681.719 531.653 692.912 519.063C699.907 511.153 709.141 505.1 719.57 501.539L726.107 499.301L728.422 492.815C730.228 487.754 735.799 475.368 748.747 469.721C753.249 467.763 757.701 467 761.923 467C772.174 467 781.052 471.476 785.58 473.765C788.022 474.986 790.362 476.411 792.55 477.987C801.911 484.727 809.16 494.545 814.731 507.949C815.977 511.001 816.97 513.697 817.911 516.418C818.216 517.283 818.496 518.122 818.801 518.962C823.329 533.128 823.253 545.337 823.202 552.763L823.253 552.789Z" fill="#FFEECC"/>
<path d="M796.391 774.42C795.602 774.268 794.89 784.441 787.055 795.378C783.698 800.083 780.263 803.186 778.483 804.687C776.855 806.06 771.182 810.664 763.653 813.385C761.364 814.224 738.775 822.033 726.413 809.621C721.3 804.483 717.026 794.971 720.587 787.01C722.775 782.127 728.193 777.142 733.306 777.803C739.004 778.541 738.851 785.586 746.33 789.248C752.232 792.148 761.262 792.122 766.807 786.883C772.938 781.084 771.615 771.953 771.259 769.537C769.961 760.661 763.958 755.269 761.694 753.488C751.952 745.782 739.971 747.816 735.901 748.503C723.106 750.69 715.297 758.753 713.16 761.017C703.01 771.801 695.71 791.13 703.824 808.883C712.498 827.832 733.281 832.206 739.513 833.122C743.964 833.783 756.734 835.029 769.936 827.73C782.324 820.863 787.844 810.511 790.362 805.602C798.299 790.139 797.306 774.624 796.34 774.446L796.391 774.42Z" fill="#ED6825"/>
<path d="M1299.95 768.342C1299.16 768.189 1298.45 778.363 1290.61 789.299C1287.26 794.005 1283.82 797.107 1282.04 798.608C1280.41 799.982 1274.74 804.585 1267.21 807.306C1264.92 808.146 1242.33 815.954 1229.97 803.542C1224.86 798.405 1220.58 788.892 1224.15 780.931C1226.33 776.048 1231.75 771.063 1236.86 771.724C1242.56 772.462 1242.41 779.507 1249.89 783.17C1255.79 786.069 1264.82 786.044 1270.36 780.804C1276.5 775.005 1275.17 765.875 1274.82 763.458C1273.52 754.582 1267.52 749.19 1265.25 747.409C1255.51 739.703 1243.53 741.738 1239.46 742.424C1226.66 744.612 1218.85 752.674 1216.72 754.938C1206.57 765.722 1199.27 785.052 1207.38 802.805C1216.06 821.753 1236.84 826.128 1243.07 827.043C1247.52 827.705 1260.29 828.951 1273.49 821.651C1285.88 814.784 1291.4 804.432 1293.92 799.524C1301.86 784.06 1300.86 768.545 1299.9 768.367L1299.95 768.342Z" fill="#ED6825"/>
<path d="M1041.07 924.074C1018.43 945.591 982.618 945.54 959.927 924.074C948.481 913.239 931.107 930.534 942.605 941.394C975.088 972.144 1025.96 972.22 1058.42 941.394C1069.89 930.509 1052.52 913.188 1041.1 924.074H1041.07Z" fill="#EF6825"/>
<path d="M1115.22 853.393C1097.26 892.765 1029.57 891.925 1004.44 891.62C977.606 891.289 910.986 890.45 892.493 849.323C877.332 815.547 903.991 775.565 912.919 762.212C920.652 750.614 953.39 701.552 1005.08 703.485C1051.12 705.215 1078.67 746.138 1091.46 765.162C1103.55 783.093 1129.59 821.829 1115.2 853.393H1115.22Z" fill="white" stroke="white" stroke-width="0.67" stroke-miterlimit="10"/>
<path d="M990.722 808.467C997.168 787.449 991.56 767.09 978.196 762.992C964.832 758.894 948.773 772.609 942.326 793.626C935.88 814.643 941.488 835.003 954.852 839.101C968.216 843.199 984.275 829.484 990.722 808.467Z" fill="#ED6825"/>
<path d="M1065.54 792.835C1072.13 813.36 1067.5 833.987 1055.16 838.895C1042.83 843.804 1027.49 831.164 1020.9 810.638C1014.31 790.113 1018.94 769.486 1031.28 764.577C1043.62 759.669 1058.95 772.309 1065.54 792.835Z" fill="#ED6825"/>
<path d="M812.518 707.3C824.677 670.039 875.068 670.167 887.355 707.3C892.29 722.204 915.972 715.821 910.986 700.789C902.185 674.16 878.935 654.347 850.114 654.041C821.294 653.736 797.561 674.109 788.861 700.789C783.952 715.821 807.634 722.255 812.493 707.3H812.518Z" fill="#EF6825"/>
<path d="M1113.65 705.418C1125.8 668.157 1176.2 668.284 1188.48 705.418C1193.42 720.322 1217.1 713.938 1212.11 698.907C1203.31 672.278 1180.06 652.464 1151.24 652.159C1122.42 651.854 1098.69 672.227 1089.99 698.907C1085.08 713.938 1108.76 720.373 1113.62 705.418H1113.65Z" fill="#EF6825"/>
<mask id="mask2_2582_53564" style="mask-type:luminance" maskUnits="userSpaceOnUse" x="557" y="993" width="444" height="674">
<path d="M1000.5 993.788H557V1667H1000.5V993.788Z" fill="white"/>
</mask>
<g mask="url(#mask2_2582_53564)">
<path d="M774.388 993.788C715.5 1032.83 635.296 1101.65 612.199 1131.03C582.743 1168.47 567.023 1199.7 560.79 1234.75C558.094 1249.88 550.437 1292.99 569.515 1303.35C585.363 1311.94 610.622 1293.12 614.946 1289.81C614.845 1296.17 614.794 1321.17 625.503 1324.91C633.414 1327.69 643.487 1317.61 648.447 1312.76C665.897 1295.66 692.276 1272.21 735.418 1238.18C722.012 1286.81 715.907 1328.68 712.931 1359.78C705.732 1434.74 713.007 1485.17 723.717 1559.64C734.222 1632.64 743.609 1651.71 759.049 1656.93C777.644 1663.21 799.698 1647.31 813.205 1635.36C814.757 1638.92 826.331 1664.79 846.935 1666.67C860.773 1667.94 871.355 1657.87 881.708 1647.75C895.19 1634.57 905.517 1618.45 924.392 1568.39C929.454 1554.96 936.017 1536.78 942.986 1514.9C951.61 1516.84 962.955 1518.9 976.386 1520.07C1004.42 1522.54 1026.24 1519.79 1028.94 1519.25C1061.4 1513.07 1070.63 1305.05 1047.99 1023.42" fill="#FFEECC"/>
<path d="M816.054 1612.44C844.798 1614.96 866.954 1611.53 873.568 1610.41C888.55 1607.87 900.938 1604.15 910.172 1600.85C908.137 1607.15 905.135 1614.71 900.633 1622.82C896.131 1630.93 891.323 1637.5 887.05 1642.58C887.05 1642.58 879.749 1651.03 869.625 1659.01C868.277 1660.08 862.782 1664.35 855.863 1666.14C851.971 1667.13 848.817 1667 848.13 1667C848.13 1667 845.358 1666.87 842.483 1666.11C836.556 1664.51 828.976 1659.27 822.591 1651.74C819.742 1648.38 815.927 1643.14 812.798 1635.87C805.014 1642.91 797.764 1647.59 792.397 1650.65C785.987 1654.28 781.688 1656.67 775.303 1657.77C771.259 1658.45 763.399 1659.8 755.844 1656.04C747.22 1651.77 743.685 1643.22 739.615 1633.43C736.639 1626.31 735.265 1620.61 733.408 1612.32C731.17 1602.27 730.025 1593.8 729.389 1587.88C749.688 1597.87 779.45 1609.24 816.029 1612.44H816.054Z" fill="#FDD6B6"/>
</g>
<mask id="mask3_2582_53564" style="mask-type:luminance" maskUnits="userSpaceOnUse" x="1000" y="993" width="444" height="674">
<path d="M1444 993.788H1000.5V1667H1444V993.788Z" fill="white"/>
</mask>
<g mask="url(#mask3_2582_53564)">
<path d="M1226.59 993.788C1285.47 1032.83 1365.68 1101.65 1388.78 1131.03C1418.23 1168.47 1433.95 1199.7 1440.18 1234.75C1442.88 1249.88 1450.54 1292.99 1431.46 1303.35C1415.61 1311.94 1390.35 1293.12 1386.03 1289.81C1386.13 1296.17 1386.18 1321.17 1375.47 1324.91C1367.56 1327.69 1357.49 1317.61 1352.53 1312.76C1335.08 1295.66 1308.7 1272.21 1265.56 1238.18C1278.96 1286.81 1285.07 1328.68 1288.04 1359.78C1295.24 1434.74 1287.97 1485.17 1277.26 1559.64C1266.75 1632.64 1257.37 1651.71 1241.93 1656.93C1223.33 1663.21 1201.28 1647.31 1187.77 1635.36C1186.22 1638.92 1174.64 1664.79 1154.04 1666.67C1140.2 1667.94 1129.62 1657.87 1119.27 1647.75C1105.79 1634.57 1095.46 1618.45 1076.58 1568.39C1071.52 1554.96 1064.96 1536.78 1057.99 1514.9C1049.37 1516.84 1038.02 1518.9 1024.59 1520.07C996.557 1522.54 974.732 1519.79 972.036 1519.25C939.578 1513.07 930.344 1305.05 952.983 1023.42" fill="#FFEECC"/>
<path d="M1184.95 1612.44C1156.2 1614.96 1134.05 1611.53 1127.43 1610.41C1112.45 1607.87 1100.06 1604.15 1090.83 1600.85C1092.86 1607.15 1095.86 1614.71 1100.37 1622.82C1104.87 1630.93 1109.68 1637.5 1113.95 1642.58C1113.95 1642.58 1121.25 1651.03 1131.38 1659.01C1132.72 1660.08 1138.22 1664.35 1145.14 1666.14C1149.03 1667.13 1152.18 1667 1152.87 1667C1152.87 1667 1155.64 1666.87 1158.52 1666.11C1164.44 1664.51 1172.02 1659.27 1178.41 1651.74C1181.26 1648.38 1185.07 1643.14 1188.2 1635.87C1195.99 1642.91 1203.24 1647.59 1208.6 1650.65C1215.01 1654.28 1219.31 1656.67 1225.7 1657.77C1229.74 1658.45 1237.6 1659.8 1245.16 1656.04C1253.78 1651.77 1257.32 1643.22 1261.39 1633.43C1264.36 1626.31 1265.74 1620.61 1267.59 1612.32C1269.83 1602.27 1270.98 1593.8 1271.61 1587.88C1251.31 1597.87 1221.55 1609.24 1184.97 1612.44H1184.95Z" fill="#FDD6B6"/>
</g>
<path d="M1401.75 1407.01C1399.13 1415.33 1392.9 1422.99 1384.99 1427.72C1377.07 1432.45 1367.18 1434.18 1358.96 1432.47C1353.67 1431.38 1350.98 1430.34 1346.5 1427.79C1342.81 1425.68 1339.61 1423.22 1337.24 1420.11C1337.75 1420.8 1336.88 1419.55 1336.88 1419.55C1336.55 1419.04 1336.22 1418.54 1335.89 1418C1335.56 1417.47 1335.28 1416.96 1335.03 1416.4C1335.1 1416.58 1335.48 1417.52 1335.1 1416.53C1334.72 1415.53 1334.42 1414.57 1334.16 1413.58C1334.09 1413.27 1333.93 1411.85 1334.11 1413.35C1334.06 1412.76 1334.01 1412.15 1334.01 1411.57C1334.01 1410.98 1334.01 1410.35 1334.06 1409.76C1334.06 1409.96 1333.88 1411.03 1334.09 1409.96C1334.29 1408.9 1334.54 1407.83 1334.9 1406.78C1334.42 1408.21 1335.51 1405.49 1335.71 1405.08C1336.12 1404.29 1337.21 1402.44 1337.39 1402.18C1342 1395.54 1351.38 1390.13 1358.73 1391.78C1362.02 1392.52 1365.32 1394.65 1367.26 1397.15C1370.36 1401.14 1371.35 1403.78 1372.52 1408.36C1372.65 1408.85 1373.18 1411.31 1373.06 1410.6C1372.88 1409.61 1373.11 1410.96 1373.11 1411.06C1373.16 1411.59 1373.23 1412.1 1373.26 1412.63C1373.34 1413.8 1373.34 1415 1373.34 1416.17C1373.31 1418 1373.44 1416.91 1373.06 1418.69C1371.94 1423.95 1370.89 1426.6 1367.97 1431.25C1362.96 1439.21 1354.56 1446.13 1345.38 1450.23C1334.01 1455.31 1320.81 1455.26 1308.83 1450.81C1309.03 1450.89 1309.69 1451.17 1308.67 1450.76C1307.88 1450.43 1307.1 1450.1 1306.33 1449.74C1305.16 1449.21 1304.02 1448.65 1302.87 1448.04C1300.91 1447 1299.01 1445.88 1297.15 1444.66C1296.39 1444.17 1295.67 1443.64 1294.94 1443.13C1293.77 1442.34 1296.54 1444.45 1294.58 1442.85C1294.02 1442.39 1293.44 1441.93 1292.9 1441.45C1283.97 1433.39 1270.95 1446.84 1279.9 1454.91C1298.04 1471.26 1325.77 1477.69 1348.76 1468.95C1374.43 1459.2 1396.99 1433.67 1390.86 1404.75C1388.27 1392.52 1380.46 1380.23 1368.55 1375.4C1354.23 1369.55 1338.54 1374.76 1327.68 1385.04C1318.06 1394.17 1312.26 1408.49 1317.02 1421.46C1321.47 1433.59 1332.15 1442.44 1343.88 1447.22C1359.06 1453.38 1375.09 1453.13 1390 1446.18C1404.5 1439.44 1415.18 1426.57 1419.94 1411.41C1421.46 1406.58 1417.75 1401.27 1413.07 1400.12C1407.88 1398.85 1403.3 1402.16 1401.77 1406.99L1401.75 1407.01Z" fill="#FFEECC"/>
<path d="M1178.21 1279.77C1178.41 1319.04 1170.65 1352.94 1154.07 1384.43C1137.53 1415.81 1113.47 1438.07 1083.07 1452.29C1038.81 1472.99 992.92 1477.19 946.649 1463.02C887.863 1445.01 848.283 1404.5 830.655 1340.25C825.898 1322.88 822.795 1305.35 822.769 1287.22C822.718 1263.11 827.17 1239.94 835.615 1217.71C844.874 1193.29 856.932 1170.63 873.161 1150.74C901.269 1116.28 935.838 1094.56 978.191 1088.07C1012.23 1082.86 1045.09 1086.19 1076.13 1103.59C1116.55 1126.27 1145.47 1160.25 1163.1 1205.65C1172.69 1230.38 1178.99 1255.81 1178.23 1279.77H1178.21Z" fill="white" stroke="white" stroke-width="1.07" stroke-miterlimit="10"/>
<path d="M823.253 552.789C823.125 567.108 820.607 575.018 816.385 588.218C815.393 591.296 814.553 593.229 812.976 594.602C810.814 596.433 807.736 596.815 805.879 597.018C798.985 597.807 776.041 596.688 732.263 587.837C758.642 557.926 788.887 535.621 818.852 518.987C823.38 533.154 823.304 545.362 823.253 552.789Z" fill="#FFEECC"/>
<path d="M1282.96 587.735C1282.73 587.786 1282.5 587.811 1282.27 587.837L1280.97 588.04C1231.57 598.57 1206.03 599.892 1198.71 599.028C1196.9 598.799 1193.8 598.468 1191.69 596.637C1190.08 595.238 1189.25 593.305 1188.2 590.126C1184 577.027 1181.49 569.143 1181.38 554.823C1181.31 546.939 1181.21 533.713 1186.63 518.453C1187.16 516.978 1187.82 515.147 1188.58 513.086C1223.92 531.399 1256.45 555.993 1282.96 587.735Z" fill="#FFEECC"/>
<path d="M1312.64 917.537C1225.09 1068.92 1028.3 1063.32 994.293 1062.36C981.168 1061.98 730.33 1051.27 666.381 873.816C627.131 765.01 683.042 662.46 693.7 642.952C702.196 627.361 711.71 613.169 721.885 600.249C761.313 608.591 787.335 611.516 800.97 611.516C803.64 611.516 805.828 611.389 807.558 611.185C810.305 610.88 816.792 610.117 822.286 605.437C827.272 601.139 829.052 595.543 830.044 592.44C834.343 579.062 837.447 569.372 837.574 552.891C837.625 544.141 837.752 529.568 831.672 512.171C899.336 478.038 962.675 471.731 973.791 470.815C1035.76 465.601 1109.8 475.826 1175.74 506.753C1174.67 509.449 1173.83 511.84 1173.17 513.671C1166.89 531.323 1167.01 546.1 1167.09 554.925C1167.22 571.432 1170.29 581.097 1174.62 594.577C1175.59 597.603 1177.37 603.199 1182.35 607.497C1187.82 612.177 1194.31 612.915 1197.03 613.245C1198.73 613.449 1200.95 613.551 1203.62 613.551C1217.38 613.551 1243.78 610.6 1283.8 602.08L1284.13 602.029C1287.1 601.673 1290.03 601.139 1292.9 600.452C1303.43 614.67 1312.82 630.184 1320.78 647.047C1324.34 654.601 1385.9 790.749 1312.59 917.537H1312.64Z" fill="#FFEECC"/>
<path d="M1326.28 555.205C1325.26 562.021 1321.29 568.583 1314.75 574.255C1306.59 581.351 1295.29 586.133 1282.96 587.76C1282.73 587.811 1282.5 587.837 1282.27 587.862L1280.97 588.066C1231.57 598.595 1206.03 599.918 1198.71 599.053C1196.9 598.824 1193.8 598.494 1191.69 596.662C1190.08 595.264 1189.25 593.331 1188.2 590.151C1184 577.053 1181.49 569.168 1181.38 554.849C1181.31 546.964 1181.21 533.739 1186.63 518.478C1187.16 517.003 1187.82 515.172 1188.58 513.112C1188.94 512.12 1189.37 511.077 1189.8 510.034C1195.38 496.605 1202.63 486.762 1211.99 480.048C1214.17 478.471 1216.51 477.046 1218.96 475.826C1223.48 473.511 1232.36 469.035 1242.64 469.035C1246.84 469.035 1251.31 469.798 1255.79 471.782C1268.74 477.428 1274.31 489.814 1276.11 494.876L1278.43 501.361L1284.97 503.599C1295.4 507.186 1304.63 513.214 1311.62 521.098C1322.82 533.713 1327.75 545.209 1326.25 555.205H1326.28Z" fill="#FFEECC"/>
<path d="M823.253 552.789C823.125 567.108 820.607 575.018 816.384 588.218C815.392 591.296 814.553 593.229 812.976 594.602C810.814 596.433 807.736 596.815 805.879 597.018C798.985 597.807 776.041 596.688 732.263 587.837C729.465 587.277 726.591 586.667 723.615 586.031L722.317 585.802C709.7 584.301 698.177 579.444 689.808 572.169C686.527 569.346 683.932 566.32 681.999 563.115C680.066 559.91 678.819 556.553 678.311 553.17C676.81 543.149 681.719 531.653 692.912 519.063C699.907 511.153 709.141 505.1 719.57 501.539L726.107 499.301L728.422 492.815C730.228 487.754 735.799 475.368 748.747 469.721C753.249 467.763 757.701 467 761.923 467C772.174 467 781.052 471.476 785.58 473.765C788.022 474.986 790.362 476.411 792.55 477.987C801.911 484.727 809.16 494.545 814.731 507.949C815.977 511.001 816.97 513.697 817.911 516.418C818.216 517.283 818.496 518.122 818.801 518.962C823.329 533.128 823.253 545.337 823.202 552.763L823.253 552.789Z" fill="#FFEECC"/>
<path d="M796.391 774.42C795.602 774.268 794.89 784.441 787.055 795.378C783.698 800.083 780.263 803.186 778.483 804.687C776.855 806.06 771.182 810.664 763.653 813.385C761.364 814.224 738.775 822.033 726.413 809.621C721.3 804.483 717.026 794.971 720.587 787.01C722.775 782.127 728.193 777.142 733.306 777.803C739.004 778.541 738.851 785.586 746.33 789.248C752.232 792.148 761.262 792.122 766.807 786.883C772.938 781.084 771.615 771.953 771.259 769.537C769.961 760.661 763.958 755.269 761.694 753.488C751.952 745.782 739.971 747.816 735.901 748.503C723.106 750.69 715.297 758.753 713.16 761.017C703.01 771.801 695.71 791.13 703.824 808.883C712.498 827.832 733.281 832.206 739.513 833.122C743.964 833.783 756.734 835.029 769.936 827.73C782.324 820.863 787.844 810.511 790.362 805.602C798.299 790.139 797.306 774.624 796.34 774.446L796.391 774.42Z" fill="#ED6825"/>
<path d="M1299.95 768.342C1299.16 768.189 1298.45 778.363 1290.61 789.299C1287.26 794.005 1283.82 797.107 1282.04 798.608C1280.41 799.982 1274.74 804.585 1267.21 807.306C1264.92 808.146 1242.33 815.954 1229.97 803.542C1224.86 798.405 1220.58 788.892 1224.15 780.931C1226.33 776.048 1231.75 771.063 1236.86 771.724C1242.56 772.462 1242.41 779.507 1249.89 783.17C1255.79 786.069 1264.82 786.044 1270.36 780.804C1276.5 775.005 1275.17 765.875 1274.82 763.458C1273.52 754.582 1267.52 749.19 1265.25 747.409C1255.51 739.703 1243.53 741.738 1239.46 742.424C1226.66 744.612 1218.85 752.674 1216.72 754.938C1206.57 765.722 1199.27 785.052 1207.38 802.805C1216.06 821.753 1236.84 826.128 1243.07 827.043C1247.52 827.705 1260.29 828.951 1273.49 821.651C1285.88 814.784 1291.4 804.432 1293.92 799.524C1301.86 784.06 1300.86 768.545 1299.9 768.367L1299.95 768.342Z" fill="#ED6825"/>
<path d="M1041.07 924.074C1018.43 945.591 982.618 945.54 959.927 924.074C948.481 913.239 931.107 930.534 942.605 941.394C975.088 972.144 1025.96 972.22 1058.42 941.394C1069.89 930.509 1052.52 913.188 1041.1 924.074H1041.07Z" fill="#EF6825"/>
<path d="M1115.22 853.393C1097.26 892.765 1029.57 891.925 1004.44 891.62C977.606 891.289 910.986 890.45 892.493 849.323C877.332 815.547 903.991 775.565 912.919 762.212C920.652 750.614 953.39 701.552 1005.08 703.485C1051.12 705.215 1078.67 746.138 1091.46 765.162C1103.55 783.093 1129.59 821.829 1115.2 853.393H1115.22Z" fill="white" stroke="white" stroke-width="0.67" stroke-miterlimit="10"/>
<path d="M990.722 808.467C997.168 787.449 991.56 767.09 978.196 762.992C964.832 758.894 948.773 772.609 942.326 793.626C935.88 814.643 941.488 835.003 954.852 839.101C968.216 843.199 984.275 829.484 990.722 808.467Z" fill="#ED6825"/>
<path d="M1065.54 792.835C1072.13 813.36 1067.5 833.987 1055.16 838.895C1042.83 843.804 1027.49 831.164 1020.9 810.638C1014.31 790.113 1018.94 769.486 1031.28 764.577C1043.62 759.669 1058.95 772.309 1065.54 792.835Z" fill="#ED6825"/>
<path d="M812.518 707.3C824.677 670.039 875.068 670.167 887.355 707.3C892.29 722.204 915.972 715.821 910.986 700.789C902.185 674.16 878.935 654.347 850.114 654.041C821.294 653.736 797.561 674.109 788.861 700.789C783.952 715.821 807.634 722.255 812.493 707.3H812.518Z" fill="#EF6825"/>
<path d="M1113.65 705.418C1125.8 668.157 1176.2 668.284 1188.48 705.418C1193.42 720.322 1217.1 713.938 1212.11 698.907C1203.31 672.278 1180.06 652.464 1151.24 652.159C1122.42 651.854 1098.69 672.227 1089.99 698.907C1085.08 713.938 1108.76 720.373 1113.62 705.418H1113.65Z" fill="#EF6825"/>
</g>
<defs>
<clipPath id="clip0_2582_53564">
<rect width="887" height="1200" fill="white" transform="translate(557 467)"/>
</clipPath>
</defs>
</svg>
