<svg width="24" height="24" viewBox="0 0 24 24" fill="none" xmlns="http://www.w3.org/2000/svg">
<mask id="mask0_4199_24660" style="mask-type:luminance" maskUnits="userSpaceOnUse" x="1" y="2" width="22" height="20">
<path d="M22 3H14V7H22V3Z" stroke="white" stroke-width="2" stroke-miterlimit="2" stroke-linecap="round" stroke-linejoin="round"/>
<path d="M22 7V18C22 18.555 21.555 19 21 19H4C2.895 19 2 18.105 2 17V14C2 11.79 3.79 10 6 10H14V7H22Z" fill="white" stroke="white" stroke-width="2" stroke-miterlimit="2" stroke-linecap="round" stroke-linejoin="round"/>
<path d="M7 13V10M10.5 13V10" stroke="black" stroke-width="2" stroke-miterlimit="2" stroke-linecap="round" stroke-linejoin="round"/>
<path d="M7.5 21V19M4 21V19M11 21V19M17 21V19M20.5 21V19M11.5 10H6" stroke="white" stroke-width="2" stroke-miterlimit="2" stroke-linecap="round" stroke-linejoin="round"/>
</mask>
<g mask="url(#mask0_4199_24660)">
<path d="M0 0H24V24H0V0Z" fill="currentColor"/>
</g>
</svg>
