<svg width="2000" height="2000" viewBox="0 0 2000 2000" fill="none" xmlns="http://www.w3.org/2000/svg">
<path d="M1005.53 459.213C953.13 406.844 953.13 321.924 1005.53 269.555C1057.93 321.924 1057.93 406.844 1005.53 459.213Z" fill="#AED24A"/>
<path d="M1005.53 459.213C931.406 459.213 871.34 399.164 871.34 325.107C945.461 325.107 1005.53 385.157 1005.53 459.213Z" fill="#AED24A"/>
<path d="M1005.53 459.213C1005.53 385.137 1065.61 325.107 1139.71 325.107C1139.71 399.184 1079.63 459.213 1005.53 459.213Z" fill="#AED24A"/>
<path d="M791.341 996.133C709.515 900.21 689.646 778.321 739.717 699.947C796.259 611.425 920.79 611.644 994.195 611.783C1065.15 611.903 1173.8 612.102 1234.66 690.516C1294.27 767.318 1287.44 892.629 1217.5 999.993C1224.38 1000.07 1234.76 999.516 1246.64 996.113C1285.47 984.991 1307.07 952.877 1319.71 933.498C1414.93 787.593 1379.18 650.025 1379.18 650.025C1355.51 559.414 1298.19 504.419 1276.37 485.437C1178.73 400.497 1061.55 401.194 990.313 401.611C915.355 402.049 805.357 402.706 715.826 483.905C650.723 542.979 629.301 614.768 622.612 642.425C592.051 768.571 652.515 865.927 686.858 921.321C728.926 989.189 765.599 995.099 774.598 996.113C781.606 996.909 787.479 996.551 791.341 996.113V996.133Z" fill="#EF694F"/>
<path d="M693.571 811.09C692.456 812.443 689.51 816.065 685.448 816.065C681.367 816.065 678.4 812.423 677.325 811.09C670.238 802.375 678.759 779.454 683.378 768.69C684.293 766.561 687.3 766.581 688.176 768.73C692.595 779.494 700.679 802.375 693.571 811.09Z" fill="#F8CF54"/>
<path d="M655.438 737.651C654.323 739.004 651.377 742.625 647.315 742.625C643.234 742.625 640.267 738.984 639.192 737.651C632.105 728.936 640.626 706.015 645.245 695.25C646.161 693.121 649.167 693.141 650.043 695.29C654.463 706.054 662.546 728.936 655.438 737.651Z" fill="#F8CF54"/>
<path d="M715.344 695.809C714.23 697.162 711.283 700.783 707.222 700.783C703.14 700.783 700.174 697.142 699.099 695.809C692.011 687.094 700.532 664.173 705.151 653.409C706.067 651.28 709.073 651.3 709.949 653.448C714.369 664.213 722.452 687.094 715.344 695.809Z" fill="#F8CF54"/>
<path d="M666.329 642.961C665.214 644.314 662.267 647.936 658.206 647.936C654.125 647.936 651.158 644.295 650.083 642.961C642.995 634.247 651.516 611.325 656.135 600.561C657.051 598.432 660.057 598.452 660.933 600.601C665.353 611.365 673.436 634.247 666.329 642.961Z" fill="#F8CF54"/>
<path d="M1322.18 779.872C1321.07 781.225 1318.12 784.846 1314.06 784.846C1309.98 784.846 1307.01 781.205 1305.93 779.872C1298.85 771.157 1307.37 748.235 1311.99 737.471C1312.9 735.342 1315.91 735.362 1316.78 737.511C1321.2 748.275 1329.29 771.157 1322.18 779.872Z" fill="#F8CF54"/>
<path d="M1284.06 706.434C1282.94 707.787 1279.99 711.408 1275.93 711.408C1271.85 711.408 1268.88 707.767 1267.81 706.434C1260.72 697.719 1269.24 674.798 1273.86 664.034C1274.78 661.905 1277.78 661.925 1278.66 664.073C1283.08 674.838 1291.16 697.719 1284.06 706.434Z" fill="#F8CF54"/>
<path d="M1343.96 664.59C1342.85 665.943 1339.9 669.565 1335.84 669.565C1331.76 669.565 1328.79 665.923 1327.72 664.59C1320.63 655.875 1329.15 632.954 1333.77 622.19C1334.68 620.061 1337.69 620.081 1338.57 622.23C1342.99 632.994 1351.07 655.875 1343.96 664.59Z" fill="#F8CF54"/>
<path d="M1294.94 611.743C1293.82 613.096 1290.88 616.717 1286.82 616.717C1282.73 616.717 1279.77 613.076 1278.69 611.743C1271.6 603.028 1280.13 580.106 1284.74 569.342C1285.66 567.213 1288.67 567.233 1289.54 569.382C1293.96 580.146 1302.05 603.028 1294.94 611.743Z" fill="#F8CF54"/>
<path d="M795.844 609.793C794.73 611.146 791.783 614.768 787.721 614.768C783.64 614.768 780.674 611.127 779.599 609.793C772.511 601.079 781.032 578.157 785.651 567.393C786.567 565.264 789.573 565.284 790.449 567.433C794.869 578.197 802.952 601.079 795.844 609.793Z" fill="#F8CF54"/>
<path d="M735.954 569.522C734.839 570.875 731.892 574.496 727.831 574.496C723.75 574.496 720.783 570.855 719.708 569.522C712.62 560.807 721.141 537.886 725.76 527.121C726.676 524.993 729.682 525.012 730.558 527.161C734.978 537.926 743.061 560.807 735.954 569.522Z" fill="#F8CF54"/>
<path d="M795.844 494.51C794.73 495.863 791.783 499.484 787.721 499.484C783.64 499.484 780.674 495.843 779.599 494.51C772.511 485.795 781.032 462.874 785.651 452.11C786.567 449.981 789.573 450.001 790.449 452.15C794.869 462.914 802.952 485.795 795.844 494.51Z" fill="#F8CF54"/>
<path d="M1000.01 574.516C998.894 575.869 995.947 579.49 991.886 579.49C987.804 579.49 984.838 575.849 983.763 574.516C976.675 565.801 985.196 542.88 989.815 532.116C990.731 529.987 993.737 530.007 994.613 532.155C999.033 542.92 1007.12 565.801 1000.01 574.516Z" fill="#F8CF54"/>
<path d="M961.883 525.549C960.769 526.902 957.822 530.524 953.761 530.524C949.679 530.524 946.713 526.882 945.638 525.549C938.55 516.834 947.071 493.913 951.69 483.149C952.606 481.02 955.612 481.04 956.488 483.189C960.908 493.953 968.991 516.834 961.883 525.549Z" fill="#F8CF54"/>
<path d="M1021.79 459.211C1020.67 460.564 1017.73 464.186 1013.67 464.186C1009.59 464.186 1006.62 460.545 1005.54 459.211C998.456 450.497 1006.98 427.575 1011.6 416.811C1012.51 414.682 1015.52 414.702 1016.39 416.851C1020.81 427.615 1028.9 450.497 1021.79 459.211Z" fill="#F8CF54"/>
<path d="M1115.13 593.995C1114.01 595.348 1111.06 598.969 1107 598.969C1102.92 598.969 1099.95 595.328 1098.88 593.995C1091.79 585.28 1100.31 562.358 1104.93 551.594C1105.85 549.465 1108.85 549.485 1109.73 551.634C1114.15 562.398 1122.23 585.28 1115.13 593.995Z" fill="#F8CF54"/>
<path d="M1077.02 545.047C1075.9 546.4 1072.95 550.022 1068.89 550.022C1064.81 550.022 1061.85 546.38 1060.77 545.047C1053.68 536.332 1062.2 513.411 1066.82 502.647C1067.74 500.518 1070.74 500.538 1071.62 502.687C1076.04 513.451 1084.12 536.332 1077.02 545.047Z" fill="#F8CF54"/>
<path d="M1136.91 478.711C1135.79 480.064 1132.85 483.686 1128.78 483.686C1124.7 483.686 1121.74 480.045 1120.66 478.711C1113.57 469.997 1122.09 447.075 1126.71 436.311C1127.63 434.182 1130.64 434.202 1131.51 436.351C1135.93 447.115 1144.01 469.997 1136.91 478.711Z" fill="#F8CF54"/>
<path d="M1224.1 618.489C1222.99 619.842 1220.04 623.463 1215.98 623.463C1211.9 623.463 1208.93 619.822 1207.86 618.489C1200.77 609.774 1209.29 586.853 1213.91 576.088C1214.82 573.959 1217.83 573.979 1218.71 576.128C1223.13 586.892 1231.21 609.774 1224.1 618.489Z" fill="#F8CF54"/>
<path d="M1175.23 545.047C1174.11 546.4 1171.17 550.022 1167.1 550.022C1163.02 550.022 1160.06 546.38 1158.98 545.047C1151.89 536.332 1160.41 513.411 1165.03 502.647C1165.95 500.518 1168.96 500.538 1169.83 502.687C1174.25 513.451 1182.33 536.332 1175.23 545.047Z" fill="#F8CF54"/>
<path d="M1251.38 541.309C1250.27 542.662 1247.32 546.283 1243.26 546.283C1239.18 546.283 1236.21 542.642 1235.14 541.309C1228.05 532.594 1236.57 509.673 1241.19 498.909C1242.11 496.78 1245.11 496.8 1245.99 498.948C1250.41 509.713 1258.49 532.594 1251.38 541.309Z" fill="#F8CF54"/>
<path d="M887.579 585.321C886.464 586.674 883.517 590.295 879.456 590.295C875.375 590.295 872.408 586.654 871.333 585.321C864.245 576.606 872.766 553.685 877.385 542.92C878.301 540.791 881.307 540.811 882.183 542.96C886.603 553.724 894.686 576.606 887.579 585.321Z" fill="#F8CF54"/>
<path d="M849.454 536.352C848.339 537.705 845.392 541.326 841.331 541.326C837.25 541.326 834.283 537.685 833.208 536.352C826.12 527.637 834.641 504.716 839.26 493.952C840.176 491.823 843.182 491.842 844.058 493.991C848.478 504.756 856.561 527.637 849.454 536.352Z" fill="#F8CF54"/>
<path d="M909.36 470.036C908.245 471.389 905.299 475.01 901.237 475.01C897.156 475.01 894.189 471.369 893.114 470.036C886.027 461.321 894.548 438.399 899.167 427.635C900.082 425.506 903.089 425.526 903.965 427.675C908.384 438.439 916.468 461.321 909.36 470.036Z" fill="#F8CF54"/>
</svg>
