<svg width="2000" height="2000" viewBox="0 0 2000 2000" fill="none" xmlns="http://www.w3.org/2000/svg">
<path d="M1296.88 1459.14C1296.86 1487.26 1294.35 1512.43 1290.94 1533.93C1289.93 1540.23 1284.83 1545.07 1278.46 1545.66L1037.65 1567.72C1031.59 1568.27 1025.89 1564.82 1023.55 1559.19L1015.47 1539.65C1014.4 1537.06 1012.6 1534.91 1010.37 1533.43C1008.13 1531.92 1005.45 1531.07 1002.66 1531.07C997.255 1531.07 992.337 1534.22 990.055 1539.1L980.496 1559.7C977.981 1565.06 972.376 1568.26 966.472 1567.65C885.232 1559.27 803.958 1550.9 722.696 1542.5C716.504 1541.87 711.542 1537.17 710.445 1531.05C706.036 1506.46 702.957 1476.41 704.33 1442.31C705.316 1417.33 708.517 1395.02 712.417 1375.97C716.327 1380.59 721.954 1383.78 728.467 1384.47L806.994 1392.89C938.502 1407 1071.24 1405.28 1202.32 1387.74L1277.65 1377.67C1281.99 1377.08 1285.87 1375.41 1289.09 1373C1293.46 1396.81 1296.9 1425.91 1296.88 1459.16V1459.14Z" fill="#293375" stroke="#48599A" stroke-width="3.67608" stroke-linecap="round" stroke-linejoin="round"/>
<mask id="mask0_2619_871" style="mask-type:luminance" maskUnits="userSpaceOnUse" x="704" y="1373" width="593" height="195">
<path d="M1297 1459.2C1296.98 1487.3 1294.46 1512.46 1291.06 1533.95C1290.04 1540.24 1284.95 1545.08 1278.58 1545.67L1037.76 1567.72C1031.7 1568.27 1025.99 1564.82 1023.66 1559.2L1015.57 1539.67C1014.51 1537.07 1012.7 1534.93 1010.47 1533.45C1008.24 1531.93 1005.56 1531.09 1002.76 1531.09C997.358 1531.09 992.44 1534.24 990.158 1539.11L980.597 1559.71C978.083 1565.06 972.477 1568.26 966.573 1567.65C885.329 1559.27 804.051 1550.91 722.785 1542.51C716.593 1541.88 711.63 1537.19 710.533 1531.07C706.124 1506.49 703.045 1476.46 704.418 1442.37C705.404 1417.41 708.606 1395.11 712.505 1376.07C716.415 1380.69 722.043 1383.88 728.557 1384.57L807.087 1392.99C938.602 1407.09 1071.35 1405.36 1202.43 1387.84L1277.77 1377.77C1282.11 1377.18 1285.99 1375.51 1289.21 1373.1C1293.58 1396.9 1297.02 1425.99 1297 1459.22V1459.2Z" fill="white"/>
</mask>
<g mask="url(#mask0_2619_871)">
<mask id="mask1_2619_871" style="mask-type:luminance" maskUnits="userSpaceOnUse" x="247" y="1294" width="2259" height="1535">
<path d="M2505.03 1294.24H247.508V2828.85L1361.37 1834.28L2505.03 2828.85V1294.24Z" fill="white"/>
</mask>
<g mask="url(#mask1_2619_871)">
<path d="M1166.31 1518.5C1166.45 1520.28 1165.38 1521.99 1163.67 1522.7C1165.23 1523.04 1166.52 1524.07 1167.21 1525.4C1167.65 1526.18 1167.87 1527.1 1167.83 1528.03C1167.69 1530.72 1165.41 1532.95 1162.6 1533.01C1164.68 1534.57 1165.37 1537.28 1164.35 1539.31C1163.15 1541.66 1160.32 1541.86 1160.19 1541.87C1156.14 1540.07 1152.11 1538.27 1148.05 1536.45C1146.99 1535.96 1145.88 1535.46 1144.8 1534.98C1143.81 1536.12 1142.75 1537.04 1141.77 1537.75C1140.92 1538.38 1140.12 1538.89 1139.53 1539.26C1137.61 1540.45 1135.67 1541.26 1133.71 1541.83C1131.27 1542.52 1128.88 1542.79 1126.57 1542.83C1123.18 1542.9 1120.03 1542.5 1117.39 1542.13C1117.36 1542.13 1117.33 1542.1 1117.3 1542.1C1111.25 1541.26 1099.54 1539.6 1093.36 1530.52C1092.85 1529.72 1091.9 1528.33 1091.16 1526.53C1089.55 1526.9 1087.97 1527.3 1086.36 1527.71C1086.24 1527.71 1086.13 1527.76 1086.01 1527.8C1083.63 1528.38 1081.29 1528.97 1078.91 1529.54C1077.27 1529.95 1075.63 1530.36 1074.01 1530.76C1072.45 1530.18 1071.37 1528.77 1071.27 1527.15C1071.16 1525.37 1072.3 1523.69 1074.04 1523.06C1071.53 1522.39 1069.86 1520.06 1070.04 1517.59C1070.2 1515.41 1071.82 1513.6 1073.93 1512.99C1074.41 1512.86 1074.92 1512.77 1075.44 1512.76C1073.38 1511.15 1072.78 1508.38 1073.87 1506.4C1075.11 1504.11 1077.99 1503.97 1078.11 1503.96C1080.59 1505.16 1083.06 1506.38 1085.55 1507.59C1085.65 1507.63 1085.74 1507.68 1085.84 1507.72C1088.57 1509.04 1091.3 1510.38 1094.03 1511.7C1094.5 1511.2 1094.95 1510.78 1095.3 1510.43C1097.87 1508.01 1100.88 1506.37 1103.96 1505.29C1108.57 1503.67 1113.39 1503.29 1117.38 1503.41C1121.91 1503.51 1125.37 1504.21 1126.13 1504.37C1130.41 1505.33 1144.63 1508.44 1148.09 1518.94C1148.12 1519.05 1148.13 1519.13 1148.18 1519.26C1150.81 1518.52 1153.44 1517.79 1156.08 1517.03C1157.15 1516.75 1158.2 1516.46 1159.24 1516.15C1160.67 1515.76 1162.07 1515.37 1163.46 1514.97C1165.04 1515.48 1166.15 1516.88 1166.31 1518.49V1518.5Z" fill="#485999"/>
<path d="M872.703 1491.45C874.232 1491.47 875.617 1492.52 876.082 1494.03C876.503 1492.72 877.489 1491.71 878.674 1491.22C879.383 1490.91 880.181 1490.79 880.979 1490.9C883.261 1491.23 884.989 1493.36 884.811 1495.77C886.307 1494.1 888.677 1493.74 890.339 1494.78C892.245 1495.99 892.2 1498.44 892.2 1498.54C890.328 1501.85 888.478 1505.16 886.617 1508.47C886.107 1509.35 885.598 1510.24 885.099 1511.13C885.997 1512.06 886.695 1513.04 887.226 1513.93C887.692 1514.71 888.068 1515.43 888.334 1515.97C889.198 1517.71 889.741 1519.44 890.073 1521.16C890.472 1523.29 890.505 1525.37 890.361 1527.33C890.151 1530.23 889.553 1532.9 889.021 1535.11C889.021 1535.15 888.999 1535.16 888.999 1535.18C887.791 1540.29 885.454 1550.15 877.201 1554.7C876.481 1555.08 875.218 1555.77 873.623 1556.27C873.822 1557.67 874.033 1559.05 874.254 1560.46C874.254 1560.56 874.265 1560.66 874.299 1560.77C874.598 1562.85 874.908 1564.89 875.218 1566.97C875.44 1568.4 875.661 1569.84 875.872 1571.26C875.251 1572.56 873.966 1573.35 872.57 1573.31C871.042 1573.27 869.701 1572.16 869.303 1570.62C868.516 1572.71 866.411 1573.96 864.306 1573.6C862.456 1573.29 861.05 1571.77 860.695 1569.91C860.618 1569.49 860.584 1569.04 860.618 1568.6C859.078 1570.24 856.674 1570.52 855.057 1569.43C853.195 1568.19 853.306 1565.72 853.317 1565.62C854.536 1563.59 855.777 1561.58 856.995 1559.55C857.039 1559.46 857.095 1559.4 857.139 1559.32C858.48 1557.09 859.842 1554.87 861.183 1552.64C860.795 1552.18 860.474 1551.77 860.197 1551.45C858.325 1549.06 857.172 1546.36 856.497 1543.64C855.477 1539.58 855.533 1535.44 855.954 1532.03C856.397 1528.17 857.272 1525.28 857.471 1524.63C858.624 1521.06 862.423 1509.16 871.662 1507.03C871.751 1507.02 871.828 1507.01 871.939 1506.99C871.518 1504.68 871.097 1502.38 870.665 1500.05C870.499 1499.12 870.344 1498.2 870.167 1497.28C869.945 1496.03 869.723 1494.81 869.502 1493.58C870.056 1492.29 871.341 1491.43 872.726 1491.43L872.703 1491.45Z" fill="#485999"/>
<path d="M1047.44 1436.73C1047.68 1438.35 1046.82 1439.99 1045.3 1440.74C1046.75 1440.96 1047.99 1441.82 1048.71 1442.98C1049.16 1443.68 1049.43 1444.5 1049.45 1445.36C1049.51 1447.83 1047.57 1450.03 1044.99 1450.26C1046.99 1451.54 1047.8 1453.99 1047 1455.91C1046.06 1458.14 1043.48 1458.51 1043.37 1458.52C1039.55 1457.14 1035.74 1455.76 1031.9 1454.37C1030.9 1453.98 1029.86 1453.6 1028.84 1453.24C1028.01 1454.35 1027.1 1455.26 1026.25 1455.96C1025.51 1456.6 1024.83 1457.12 1024.31 1457.49C1022.62 1458.71 1020.9 1459.59 1019.14 1460.23C1016.96 1461.03 1014.79 1461.43 1012.68 1461.61C1009.58 1461.9 1006.67 1461.74 1004.23 1461.57C1004.2 1461.57 1004.19 1461.56 1004.15 1461.56C998.56 1461.18 987.749 1460.44 981.49 1452.53C980.969 1451.83 980.016 1450.62 979.208 1449.03C977.767 1449.48 976.338 1449.95 974.898 1450.44C974.788 1450.46 974.688 1450.49 974.577 1450.54C972.439 1451.22 970.334 1451.91 968.196 1452.6C966.723 1453.08 965.25 1453.56 963.798 1454.04C962.325 1453.62 961.262 1452.39 961.062 1450.91C960.852 1449.3 961.771 1447.69 963.322 1446.99C960.974 1446.54 959.29 1444.52 959.301 1442.25C959.301 1440.24 960.663 1438.48 962.558 1437.79C962.99 1437.63 963.444 1437.52 963.92 1437.48C961.926 1436.14 961.206 1433.65 962.07 1431.76C963.056 1429.58 965.682 1429.27 965.792 1429.26C968.152 1430.19 970.489 1431.14 972.838 1432.08C972.938 1432.11 973.015 1432.16 973.115 1432.19C975.696 1433.22 978.288 1434.26 980.869 1435.28C981.279 1434.79 981.656 1434.37 981.944 1434.04C984.137 1431.65 986.785 1429.95 989.532 1428.77C993.642 1426.98 998.029 1426.31 1001.68 1426.17C1005.84 1425.95 1009.04 1426.38 1009.76 1426.48C1013.74 1427.06 1026.95 1428.98 1030.81 1438.36C1030.84 1438.46 1030.86 1438.54 1030.91 1438.65C1033.27 1437.8 1035.63 1436.95 1038 1436.09C1038.95 1435.76 1039.89 1435.43 1040.83 1435.07C1042.12 1434.62 1043.37 1434.17 1044.61 1433.72C1046.08 1434.07 1047.2 1435.29 1047.45 1436.74L1047.44 1436.73Z" fill="#485999"/>
<path d="M690.066 1519.47C688.537 1518.75 687.639 1517.07 687.872 1515.34C686.853 1516.46 685.402 1517.02 683.995 1516.96C683.142 1516.96 682.278 1516.7 681.536 1516.22C679.398 1514.84 678.644 1511.92 679.929 1509.59C677.67 1510.57 675.122 1509.85 673.947 1508.05C672.585 1505.97 673.759 1503.54 673.803 1503.44C677.193 1500.97 680.561 1498.51 683.951 1496.04C684.859 1495.4 685.778 1494.74 686.687 1494.07C686.21 1492.73 685.967 1491.42 685.845 1490.29C685.734 1489.3 685.69 1488.41 685.668 1487.75C685.601 1485.61 685.845 1483.64 686.299 1481.76C686.875 1479.44 687.784 1477.36 688.836 1475.45C690.376 1472.64 692.192 1470.24 693.743 1468.26C693.766 1468.24 693.788 1468.23 693.799 1468.2C697.344 1463.64 704.201 1454.83 714.547 1454.05C715.434 1454 717.029 1453.88 718.846 1454.11C719.289 1452.62 719.71 1451.13 720.131 1449.63C720.175 1449.53 720.208 1449.42 720.23 1449.3C720.873 1447.08 721.504 1444.89 722.147 1442.66C722.579 1441.12 723.011 1439.59 723.454 1438.07C724.661 1437.07 726.323 1436.85 727.697 1437.53C729.203 1438.28 730.045 1440 729.735 1441.72C731.474 1439.98 734.166 1439.69 736.105 1441.02C737.822 1442.17 738.531 1444.34 738.032 1446.37C737.91 1446.82 737.755 1447.28 737.512 1447.71C739.805 1446.78 742.341 1447.59 743.46 1449.42C744.756 1451.51 743.516 1453.93 743.46 1454.04C741.311 1455.51 739.151 1456.96 736.991 1458.43C736.913 1458.5 736.825 1458.55 736.747 1458.6C734.388 1460.21 732.006 1461.82 729.646 1463.44C729.824 1464.06 729.968 1464.63 730.089 1465.08C730.865 1468.33 730.787 1471.56 730.222 1474.6C729.38 1479.14 727.431 1483.26 725.448 1486.47C723.232 1490.14 721.039 1492.63 720.54 1493.2C717.749 1496.24 708.499 1506.43 698.274 1504.33C698.174 1504.31 698.097 1504.27 697.975 1504.25C697.344 1506.76 696.712 1509.26 696.081 1511.78C695.815 1512.79 695.56 1513.79 695.316 1514.79C694.962 1516.14 694.63 1517.47 694.286 1518.8C693.134 1519.85 691.461 1520.1 690.066 1519.47Z" fill="#485999"/>
<path d="M809.718 1432.92C808.909 1431.85 808.898 1430.32 809.696 1429.18C808.555 1429.59 807.325 1429.45 806.339 1428.88C805.741 1428.56 805.221 1428.06 804.877 1427.44C803.88 1425.67 804.423 1423.32 806.206 1422.14C804.246 1421.99 802.706 1420.54 802.54 1418.82C802.351 1416.84 804.08 1415.55 804.157 1415.5C807.48 1415.01 810.782 1414.52 814.105 1414.03C814.991 1413.92 815.888 1413.79 816.775 1413.66C816.941 1412.53 817.251 1411.52 817.583 1410.67C817.871 1409.92 818.17 1409.27 818.403 1408.79C819.145 1407.25 820.065 1405.95 821.084 1404.78C822.358 1403.36 823.787 1402.21 825.227 1401.25C827.365 1399.83 829.547 1398.81 831.386 1397.98C831.408 1397.97 831.43 1397.98 831.453 1397.96C835.662 1396.04 843.815 1392.36 851.448 1395.67C852.102 1395.97 853.265 1396.48 854.472 1397.32C855.347 1396.43 856.2 1395.53 857.053 1394.62C857.131 1394.56 857.186 1394.49 857.242 1394.42C858.527 1393.09 859.79 1391.76 861.075 1390.43C861.961 1389.5 862.836 1388.58 863.711 1387.67C864.941 1387.4 866.204 1387.87 866.924 1388.87C867.71 1389.96 867.666 1391.49 866.813 1392.6C868.696 1392.01 870.712 1392.82 871.587 1394.47C872.374 1395.93 872.075 1397.74 870.967 1398.98C870.712 1399.26 870.424 1399.52 870.092 1399.73C872.064 1399.92 873.559 1401.45 873.67 1403.17C873.803 1405.14 872.019 1406.39 871.953 1406.45C869.881 1406.69 867.81 1406.91 865.727 1407.16C865.65 1407.17 865.572 1407.17 865.483 1407.19C863.213 1407.45 860.919 1407.71 858.637 1407.96C858.527 1408.47 858.427 1408.93 858.338 1409.29C857.685 1411.89 856.422 1414.16 854.882 1416.09C852.589 1419 849.676 1421.2 847.072 1422.74C844.137 1424.51 841.644 1425.47 841.09 1425.68C837.977 1426.8 827.62 1430.57 821.15 1425.27C821.084 1425.21 821.051 1425.16 820.962 1425.1C819.577 1426.64 818.193 1428.18 816.808 1429.73C816.243 1430.34 815.689 1430.96 815.146 1431.57C814.393 1432.4 813.662 1433.21 812.92 1434.03C811.712 1434.34 810.427 1433.9 809.674 1432.93L809.718 1432.92Z" fill="#485999"/>
<path d="M1222.58 1488.74C1220.91 1488.5 1219.55 1487.15 1219.26 1485.42C1218.6 1486.79 1217.39 1487.76 1216.01 1488.11C1215.19 1488.35 1214.3 1488.37 1213.44 1488.11C1210.99 1487.42 1209.41 1484.84 1209.95 1482.23C1208.07 1483.82 1205.42 1483.88 1203.76 1482.52C1201.84 1480.92 1202.25 1478.25 1202.28 1478.13C1204.8 1474.77 1207.32 1471.42 1209.84 1468.06C1210.53 1467.17 1211.22 1466.27 1211.89 1465.37C1211.04 1464.22 1210.42 1463.04 1209.98 1461.99C1209.58 1461.07 1209.27 1460.23 1209.06 1459.6C1208.36 1457.57 1208.01 1455.6 1207.91 1453.67C1207.78 1451.27 1208.05 1449.01 1208.49 1446.87C1209.14 1443.72 1210.19 1440.89 1211.08 1438.53C1211.08 1438.49 1211.12 1438.48 1211.12 1438.45C1213.18 1433.03 1217.18 1422.58 1226.88 1418.79C1227.72 1418.48 1229.21 1417.9 1231.02 1417.59C1231.01 1416.03 1230.98 1414.48 1230.93 1412.92C1230.95 1412.8 1230.95 1412.69 1230.93 1412.57C1230.9 1410.26 1230.86 1407.96 1230.83 1405.65C1230.8 1404.04 1230.77 1402.45 1230.75 1400.86C1231.61 1399.53 1233.14 1398.85 1234.66 1399.1C1236.32 1399.38 1237.63 1400.79 1237.85 1402.52C1239.01 1400.34 1241.5 1399.29 1243.75 1399.99C1245.73 1400.6 1247.05 1402.47 1247.17 1404.55C1247.2 1405.02 1247.17 1405.5 1247.06 1405.99C1248.99 1404.43 1251.66 1404.46 1253.28 1405.88C1255.14 1407.51 1254.65 1410.2 1254.63 1410.31C1252.99 1412.36 1251.35 1414.38 1249.71 1416.43C1249.66 1416.52 1249.58 1416.58 1249.52 1416.66C1247.73 1418.9 1245.91 1421.15 1244.13 1423.38C1244.48 1423.93 1244.78 1424.43 1245.03 1424.82C1246.72 1427.72 1247.61 1430.84 1247.95 1433.92C1248.47 1438.52 1247.81 1443.06 1246.85 1446.71C1245.8 1450.88 1244.43 1453.93 1244.12 1454.6C1242.33 1458.35 1236.45 1470.84 1226.02 1471.82C1225.92 1471.82 1225.83 1471.82 1225.71 1471.83C1225.83 1474.41 1225.96 1477 1226.09 1479.6C1226.14 1480.64 1226.18 1481.69 1226.24 1482.71C1226.29 1484.11 1226.36 1485.47 1226.43 1486.85C1225.63 1488.19 1224.1 1488.93 1222.58 1488.73V1488.74Z" fill="#485999"/>
</g>
</g>
</svg>
