<svg width="2000" height="2000" viewBox="0 0 2000 2000" fill="none" xmlns="http://www.w3.org/2000/svg">
<path d="M942.853 1583.76C936.485 1592.33 930.117 1600.89 923.775 1609.46C920.869 1612.62 916.548 1614.03 912.328 1613.25L725.865 1578.71C720.659 1577.75 716.616 1573.58 715.808 1568.35C714.367 1554.53 712.952 1540.69 711.512 1526.87C730.262 1535 752.221 1543.14 777.162 1549.96C807.156 1558.2 834.574 1562.64 858.024 1565.02C873.691 1564.69 894.614 1566.18 917.811 1573.61C927.211 1576.61 935.576 1580.15 942.853 1583.74V1583.76Z" fill="#383838" stroke="black" stroke-width="1.77466" stroke-miterlimit="10"/>
<path d="M1285.58 1532.35L1283.64 1568.35C1282.83 1573.58 1278.78 1577.75 1273.58 1578.71L1087.12 1613.25C1082.9 1614.03 1078.58 1612.62 1075.67 1609.46C1067.2 1600.14 1058.74 1590.79 1050.27 1581.47C1058.59 1575.4 1075.09 1565.07 1098.46 1561.15C1118.2 1557.84 1134.52 1560.55 1144.05 1562.87C1161.38 1564.66 1186.91 1565.37 1216.75 1559C1247.1 1552.54 1270.42 1541.22 1285.58 1532.35Z" fill="#383838" stroke="black" stroke-width="1.77466" stroke-miterlimit="10"/>
<path d="M1292.08 1505.77C1291.7 1509.71 1291.32 1513.58 1290.89 1517.37C1290 1525.17 1286.44 1532.4 1280.76 1537.83C1269.38 1548.67 1251.06 1562.82 1225.21 1571.76C1187.71 1584.78 1155.44 1579.55 1141.87 1576.54C1132.78 1582.2 1117.24 1589.9 1097.07 1590.79C1081.38 1591.47 1070.06 1587.71 1053.15 1582.1C1039.2 1577.47 1032 1573.2 1028.26 1570.37C1027.23 1569.62 1026.44 1568.93 1025.86 1568.38C1025.76 1568.28 1025.43 1567.95 1025.1 1567.62C1021.64 1564.13 1016.74 1557.29 1014.49 1543.24C1013.76 1538.51 1013.3 1533.01 1013.33 1526.54H982.45C983.233 1532.55 983.486 1537.73 983.36 1542.18C982.955 1557.26 978.28 1564.23 974.92 1567.62C974.642 1567.92 974.364 1568.18 974.161 1568.38C973.58 1568.93 972.797 1569.62 971.761 1570.37C968.021 1573.2 960.819 1577.47 946.871 1582.1C929.965 1587.71 918.645 1591.47 902.952 1590.79C882.787 1589.9 867.247 1582.2 858.15 1576.54C844.58 1579.55 812.311 1584.78 774.811 1571.76C748.961 1562.82 730.64 1548.67 719.269 1537.83C713.583 1532.4 710.02 1525.17 709.136 1517.37C706.179 1490.66 704.537 1460.57 705.573 1427.7C706.255 1405.59 708.049 1384.95 710.526 1366C780.446 1386.97 879.426 1408.75 999.305 1410.29H1000.72C1096.77 1409.05 1179.4 1394.83 1244.42 1378.43C1244.54 1378.41 1244.65 1378.38 1244.77 1378.33C1255.71 1375.6 1266.12 1372.77 1276.06 1369.94C1276.21 1369.89 1276.33 1369.87 1276.48 1369.82C1280.93 1368.53 1285.28 1367.29 1289.5 1366C1289.52 1366.15 1289.52 1366.28 1289.55 1366.43C1291.67 1382.78 1293.29 1400.39 1294.12 1419.11C1294.25 1421.94 1294.35 1424.82 1294.45 1427.7C1295.34 1455.9 1294.25 1482.05 1292.08 1505.77Z" fill="#383838" stroke="black" stroke-width="1.77466" stroke-miterlimit="10"/>
<path d="M769.479 1382.17C769.15 1383.41 765.714 1394.83 756.339 1404.99C751.032 1410.75 743.83 1416.13 734.178 1419.01C722.781 1422.42 712.471 1421 705.269 1418.93C700.418 1417.54 696.956 1415.85 695.465 1415.09C696.804 1413.3 698.573 1410.54 699.912 1406.88C702.995 1398.37 700.898 1392.73 701.807 1385.25C702.389 1380.45 704.36 1373.86 710.525 1366.33C730.185 1371.61 749.819 1376.89 769.479 1382.17Z" fill="#383838" stroke="black" stroke-width="1.77466" stroke-miterlimit="10"/>
<path d="M772.892 1451.25C768.243 1463.15 762.254 1478.63 754.723 1497.08C752.601 1502.33 747.496 1505.77 741.836 1505.77H707.925C698.878 1505.77 692.207 1497.28 694.431 1488.51C696.124 1481.77 697.69 1474.69 699.131 1467.29C702.492 1449.71 704.336 1433.46 705.271 1418.93C712.473 1421 722.783 1422.42 734.179 1419.01C743.832 1416.13 751.034 1410.75 756.341 1404.98C759.752 1407.92 764.654 1412.62 769.481 1419.31C772.084 1422.9 773.953 1425.53 775.141 1429.01C778.148 1437.8 774.787 1446.34 772.892 1451.25Z" fill="#383838" stroke="black" stroke-width="1.77466" stroke-miterlimit="10"/>
<path d="M956.851 1517.54C967.49 1518.98 977.32 1520.32 987.882 1520.9C998.091 1521.89 1007.59 1521.66 1017.55 1518.76C1022.27 1517.59 1030.76 1515.52 1035.46 1514.59L1036.1 1514.46H1036.17C1036.1 1514.54 1035.87 1514.66 1036.1 1515.07C1036.55 1515.32 1036.48 1515.12 1036.45 1515.19C1036.45 1515.19 1036.45 1515.19 1036.42 1515.19H1036.35L1036.02 1515.24L1034.68 1515.42C1035.16 1515.09 1035.67 1514.76 1036.2 1514.46H1036.25H1036.27C1036.27 1514.46 1036.22 1514.31 1036.68 1514.56C1036.9 1514.97 1036.75 1514.94 1036.73 1515.04C1036.3 1515.5 1034.23 1516.71 1033.62 1517.14C1025.76 1521.74 1018.03 1525.81 1008.98 1528C1001.83 1529.6 994.149 1529.22 987.048 1528.1C976.511 1526.64 965.847 1523.38 956.826 1517.59L956.851 1517.54Z" fill="black"/>
<path d="M757.832 1489.42L779.766 1496.22L795.256 1457.18L774.004 1448.26L770.416 1456.22L781.535 1462.01L775.243 1480.07L763.038 1476.36L757.832 1489.42Z" fill="#D3D1CD" stroke="black" stroke-width="1.77466" stroke-miterlimit="10"/>
<path d="M983.364 1542.18C982.96 1557.26 978.285 1564.23 974.924 1567.62C974.646 1567.92 974.368 1568.18 974.166 1568.38C973.585 1568.93 972.801 1569.62 971.765 1570.37C948.29 1568.05 918.927 1562.72 886.759 1550.87C838.469 1533.08 803.724 1507.94 782.346 1489.7L792.605 1463.85C811.507 1481.46 844.887 1507.92 893.203 1525.22C928.959 1538.03 960.798 1541.52 983.364 1542.18Z" fill="#383838" stroke="black" stroke-width="1.77466" stroke-miterlimit="10"/>
<path d="M800.184 1490.69C801.97 1490.69 803.418 1489.24 803.418 1487.45C803.418 1485.67 801.97 1484.22 800.184 1484.22C798.397 1484.22 796.949 1485.67 796.949 1487.45C796.949 1489.24 798.397 1490.69 800.184 1490.69Z" fill="#383838" stroke="black" stroke-width="1.77466" stroke-miterlimit="10"/>
<path d="M829.143 1511.43C830.929 1511.43 832.377 1509.98 832.377 1508.19C832.377 1506.41 830.929 1504.96 829.143 1504.96C827.356 1504.96 825.908 1506.41 825.908 1508.19C825.908 1509.98 827.356 1511.43 829.143 1511.43Z" fill="#383838" stroke="black" stroke-width="1.77466" stroke-miterlimit="10"/>
<path d="M1230.52 1382.17C1230.85 1383.41 1234.29 1394.83 1243.66 1404.99C1248.97 1410.75 1256.17 1416.13 1265.82 1419.01C1277.22 1422.42 1287.53 1421 1294.73 1418.93C1299.58 1417.54 1303.04 1415.85 1304.54 1415.09C1303.2 1413.3 1301.43 1410.54 1300.09 1406.88C1297.01 1398.37 1299.1 1392.73 1298.19 1385.25C1297.61 1380.45 1295.64 1373.86 1289.48 1366.33C1269.82 1371.61 1250.18 1376.89 1230.52 1382.17Z" fill="#383838" stroke="black" stroke-width="1.77466" stroke-miterlimit="10"/>
<path d="M1227.11 1451.25C1231.76 1463.15 1237.75 1478.63 1245.28 1497.08C1247.4 1502.33 1252.5 1505.77 1258.16 1505.77H1292.08C1301.12 1505.77 1307.79 1497.28 1305.57 1488.51C1303.88 1481.77 1302.31 1474.69 1300.87 1467.29C1297.51 1449.71 1295.66 1433.46 1294.73 1418.93C1287.53 1421 1277.22 1422.42 1265.82 1419.01C1256.17 1416.13 1248.97 1410.75 1243.66 1404.98C1240.25 1407.92 1235.35 1412.62 1230.52 1419.31C1227.92 1422.9 1226.05 1425.53 1224.86 1429.01C1221.85 1437.8 1225.21 1446.34 1227.11 1451.25Z" fill="#383838" stroke="black" stroke-width="1.77466" stroke-miterlimit="10"/>
<path d="M1242.17 1489.42L1220.24 1496.22L1204.75 1457.18L1226 1448.26L1229.59 1456.22L1218.47 1462.01L1224.76 1480.07L1236.94 1476.36L1242.17 1489.42Z" fill="#D3D1CD" stroke="black" stroke-width="1.77466" stroke-miterlimit="10"/>
<path d="M1217.66 1489.7C1196.28 1507.94 1161.54 1533.08 1113.25 1550.87C1081.1 1562.72 1051.74 1568.05 1028.27 1570.37C1027.23 1569.62 1026.45 1568.93 1025.87 1568.38C1025.76 1568.28 1025.44 1567.95 1025.11 1567.62C1021.65 1564.13 1016.74 1557.29 1014.49 1543.24L1016.64 1542.18C1039.21 1541.52 1071.05 1538.03 1106.8 1525.22C1155.14 1507.92 1188.5 1481.46 1207.4 1463.85L1217.66 1489.7Z" fill="#383838" stroke="black" stroke-width="1.77466" stroke-miterlimit="10"/>
<path d="M1199.79 1490.69C1201.58 1490.69 1203.03 1489.24 1203.03 1487.45C1203.03 1485.67 1201.58 1484.22 1199.79 1484.22C1198.01 1484.22 1196.56 1485.67 1196.56 1487.45C1196.56 1489.24 1198.01 1490.69 1199.79 1490.69Z" fill="#383838" stroke="black" stroke-width="1.77466" stroke-miterlimit="10"/>
<path d="M1170.86 1511.43C1172.65 1511.43 1174.1 1509.98 1174.1 1508.19C1174.1 1506.41 1172.65 1504.96 1170.86 1504.96C1169.08 1504.96 1167.63 1506.41 1167.63 1508.19C1167.63 1509.98 1169.08 1511.43 1170.86 1511.43Z" fill="#383838" stroke="black" stroke-width="1.77466" stroke-miterlimit="10"/>
</svg>
