<svg width="2000" height="2000" viewBox="0 0 2000 2000" fill="none" xmlns="http://www.w3.org/2000/svg">
<path d="M1334.48 1508.26C1315.31 1525.93 1270.15 1522.75 1270.1 1522.75H1270.04C1270.04 1522.75 1267.55 1521.84 1265.7 1521.15C1264.96 1520.87 1264.2 1520.8 1263.43 1520.9C1254.46 1522.25 1245.48 1523.59 1236.48 1524.92C1235.54 1525.07 1234.19 1526.03 1233.05 1527.46C1231.93 1528.88 1231.6 1530.31 1231.54 1530.46C1227.93 1543.22 1107.04 1550.7 1107.04 1550.7C1107.04 1550.7 1090.64 1551.74 1015.07 1550.55C1011.68 1550.5 1003.5 1550.29 994.061 1546.58C991.925 1545.72 990.196 1544.88 989.052 1544.29C988.06 1543 986.534 1542.21 984.907 1542.08C976.388 1541.47 967.869 1540.88 959.35 1540.27C957.748 1540.17 956.172 1540.71 954.977 1541.83C954.264 1542.49 953.374 1542.94 952.586 1543.53C949.814 1545.59 944.194 1545.74 944.194 1545.74C880.316 1547.19 850.818 1544.5 850.818 1544.5C808.402 1540.58 791.136 1540.6 770.589 1526.59C768.148 1524.94 766.215 1523.47 764.944 1522.45C763.164 1520.85 761.841 1519.32 760.951 1518.25C760.951 1518.23 760.926 1518.23 760.9 1518.2C755.331 1517.03 749.788 1515.84 744.219 1514.67H744.143C743.151 1515.43 741.625 1516.4 739.616 1517.03C735.547 1518.3 731.784 1517.39 729.622 1516.73C724.282 1515.12 699.692 1506.35 665.083 1493.43C656.463 1490.2 652.521 1480.24 656.64 1471.97C660.887 1463.45 665.159 1454.91 669.431 1446.39C682.451 1420.27 695.496 1394.21 708.542 1368.12C710.245 1364.71 711.949 1361.28 713.653 1357.87V1357.82C713.78 1355.4 713.907 1352.96 714.034 1350.52C714.39 1343.68 714.746 1336.84 715.102 1330C908.721 1333.23 1102.31 1336.43 1295.93 1339.66V1364.25C1297.33 1367.71 1298.7 1371.17 1300.1 1374.63C1315.23 1412.21 1330.36 1449.77 1345.47 1487.36C1347.91 1493.46 1341.55 1501.77 1334.48 1508.26Z" fill="#E6B9FE"/>
<g opacity="0.3">
<mask id="mask0_2619_32" style="mask-type:luminance" maskUnits="userSpaceOnUse" x="655" y="1330" width="691" height="222">
<path d="M1334.48 1508.26C1315.31 1525.93 1270.15 1522.75 1270.1 1522.75H1270.04C1270.04 1522.75 1267.55 1521.84 1265.7 1521.15C1264.96 1520.87 1264.2 1520.8 1263.43 1520.9C1254.46 1522.25 1245.48 1523.59 1236.48 1524.92C1235.54 1525.07 1234.19 1526.03 1233.05 1527.46C1231.93 1528.88 1231.6 1530.31 1231.54 1530.46C1227.93 1543.22 1107.04 1550.7 1107.04 1550.7C1107.04 1550.7 1090.64 1551.74 1015.07 1550.55C1011.68 1550.5 1003.5 1550.29 994.061 1546.58C991.925 1545.72 990.196 1544.88 989.052 1544.29C988.06 1543 986.534 1542.21 984.907 1542.08C976.388 1541.47 967.869 1540.88 959.35 1540.27C957.748 1540.17 956.172 1540.71 954.977 1541.83C954.264 1542.49 953.374 1542.94 952.586 1543.53C949.814 1545.59 944.194 1545.74 944.194 1545.74C880.316 1547.19 850.818 1544.5 850.818 1544.5C808.402 1540.58 791.136 1540.6 770.589 1526.59C768.148 1524.94 766.215 1523.47 764.944 1522.45C763.164 1520.85 761.841 1519.32 760.951 1518.25C760.951 1518.23 760.926 1518.23 760.9 1518.2C755.331 1517.03 749.788 1515.84 744.219 1514.67H744.143C743.151 1515.43 741.625 1516.4 739.616 1517.03C735.547 1518.3 731.784 1517.39 729.622 1516.73C724.282 1515.12 699.692 1506.35 665.083 1493.43C656.463 1490.2 652.521 1480.24 656.64 1471.97C660.887 1463.45 665.159 1454.91 669.431 1446.39C682.451 1420.27 695.496 1394.21 708.542 1368.12C710.245 1364.71 711.949 1361.28 713.653 1357.87V1357.82C713.78 1355.4 713.907 1352.96 714.034 1350.52C714.39 1343.68 714.746 1336.84 715.102 1330C908.721 1333.23 1102.31 1336.43 1295.93 1339.66V1364.25C1297.33 1367.71 1298.7 1371.17 1300.1 1374.63C1315.23 1412.21 1330.36 1449.77 1345.47 1487.36C1347.91 1493.46 1341.55 1501.77 1334.48 1508.26Z" fill="white"/>
</mask>
<g mask="url(#mask0_2619_32)">
<mask id="mask1_2619_32" style="mask-type:luminance" maskUnits="userSpaceOnUse" x="-641" y="891" width="2264" height="1540">
<path d="M1622.41 891.677H-640.789V2430.15H1622.41V891.677Z" fill="white"/>
</mask>
<g mask="url(#mask1_2619_32)">
<path d="M991.363 1495.11C991.618 1495.42 994.949 1491.91 1001.13 1490.28C1003.77 1489.59 1005.96 1489.49 1007.08 1489.49C1008.1 1489.49 1011.55 1489.52 1015.14 1490.81C1016.23 1491.2 1026.84 1495.19 1027.57 1503.48C1027.88 1506.89 1026.56 1511.67 1022.84 1513.5C1020.58 1514.62 1017.07 1514.79 1015.42 1512.99C1013.56 1511.01 1015.75 1508.46 1014.12 1504.85C1012.85 1502 1009.55 1499.28 1005.93 1499.51C1001.94 1499.77 999.653 1503.5 999.043 1504.5C996.83 1508.13 997.39 1511.92 997.67 1513.24C998.89 1519.02 1003.87 1521.89 1005.58 1522.88C1010.92 1525.96 1016.21 1525.4 1017.66 1525.22C1024.62 1524.36 1033.17 1519.52 1035.58 1510.57C1038.15 1501.04 1031.9 1493.13 1029.91 1490.92C1028.49 1489.34 1024.22 1484.99 1017.17 1483.67C1010.56 1482.42 1005.43 1484.53 1003.01 1485.55C995.406 1488.78 991.083 1494.76 991.389 1495.11H991.363Z" fill="#AE3DC3"/>
<path d="M909.023 1487.86C909.125 1488.37 915.38 1486.26 923.874 1488.22C927.51 1489.06 930.231 1490.33 931.579 1491.02C932.799 1491.65 936.97 1493.89 940.479 1497.71C941.547 1498.88 951.846 1510.42 947.498 1520.9C945.692 1525.22 941.089 1530.15 935.444 1530.03C931.986 1529.92 927.663 1527.94 926.773 1524.71C925.781 1521.13 930.053 1519.45 930.384 1514.06C930.638 1509.81 928.4 1504.42 923.874 1502.41C918.89 1500.17 913.753 1503.25 912.38 1504.06C907.396 1507.04 905.666 1511.97 905.158 1513.78C902.971 1521.51 907.192 1528.17 908.616 1530.43C913.117 1537.53 919.881 1540.2 921.763 1540.91C930.74 1544.29 944.115 1543.83 952.685 1534.55C961.84 1524.66 959.271 1511.13 958.28 1507.19C957.568 1504.37 955.126 1496.43 947.472 1490.36C940.276 1484.66 932.723 1483.95 929.163 1483.67C917.949 1482.78 908.921 1487.23 909.049 1487.86H909.023Z" fill="#AE3DC3"/>
<path d="M716.244 1450.03C716.625 1450.31 719.549 1445.27 726.288 1441.64C729.187 1440.08 731.73 1439.35 733.027 1439.02C734.197 1438.71 738.265 1437.8 742.817 1438.28C744.19 1438.43 757.744 1440.11 760.948 1449.59C762.27 1453.51 762.067 1459.46 758.253 1462.64C755.913 1464.6 751.87 1465.77 749.429 1464.17C746.682 1462.36 748.539 1458.77 745.64 1455.01C743.351 1452.04 738.723 1449.77 734.553 1451.07C729.95 1452.49 728.322 1457.5 727.89 1458.85C726.313 1463.73 728.043 1468.01 728.755 1469.48C731.806 1475.89 738.469 1477.85 740.732 1478.53C747.827 1480.64 753.879 1478.46 755.532 1477.85C763.44 1474.87 772.061 1466.81 772.366 1455.67C772.697 1443.77 763.135 1436.32 760.185 1434.29C758.075 1432.84 751.844 1428.97 743.224 1429.4C735.137 1429.79 729.721 1433.73 727.178 1435.61C719.219 1441.53 715.837 1449.75 716.269 1450.08L716.244 1450.03Z" fill="#AE3DC3"/>
<path d="M788.611 1419.59C788.967 1419.33 785.204 1415.39 783.703 1408.37C783.067 1405.37 783.068 1402.91 783.118 1401.66C783.169 1400.52 783.373 1396.63 785.026 1392.68C785.509 1391.49 790.544 1379.77 799.902 1379.36C803.767 1379.18 809.056 1380.91 810.913 1385.18C812.057 1387.8 812.057 1391.72 809.972 1393.5C807.632 1395.48 804.911 1392.89 800.766 1394.51C797.511 1395.81 794.256 1399.37 794.333 1403.44C794.409 1407.94 798.478 1410.69 799.571 1411.43C803.538 1414.12 807.81 1413.69 809.336 1413.43C815.871 1412.37 819.38 1406.9 820.576 1405.04C824.314 1399.22 823.932 1393.24 823.805 1391.59C823.195 1383.71 818.211 1373.89 808.293 1370.71C797.715 1367.33 788.509 1373.94 785.916 1376.08C784.059 1377.6 778.973 1382.18 777.117 1390.01C775.363 1397.36 777.473 1403.26 778.49 1406.01C781.72 1414.71 788.204 1419.87 788.637 1419.56L788.611 1419.59Z" fill="#AE3DC3"/>
<path d="M823.274 1582C823.528 1581.55 817.323 1578.93 812.161 1571.73C809.949 1568.63 808.728 1565.83 808.169 1564.41C807.66 1563.11 805.982 1558.58 805.88 1553.29C805.855 1551.69 805.753 1535.9 816.153 1530.82C820.451 1528.7 827.317 1528.04 831.538 1531.96C834.132 1534.35 836.09 1538.83 834.59 1541.88C832.911 1545.28 828.537 1543.68 824.672 1547.6C821.621 1550.68 819.688 1556.32 821.799 1560.9C824.113 1565.96 830.114 1567.08 831.691 1567.38C837.514 1568.48 842.167 1565.86 843.769 1564.81C850.661 1560.36 851.932 1552.43 852.365 1549.73C853.712 1541.27 850.33 1534.68 849.364 1532.88C844.787 1524.23 834.234 1515.56 821.417 1516.88C807.736 1518.28 800.591 1530.36 798.683 1534.05C797.336 1536.69 793.826 1544.42 795.606 1554.21C797.259 1563.42 802.574 1569.06 805.117 1571.68C813.102 1579.94 823.019 1582.59 823.35 1582.03L823.274 1582Z" fill="#AE3DC3"/>
<path d="M851.195 1435.89C851.857 1435.84 850.204 1427.7 853.967 1417.45C855.569 1413.05 857.578 1409.87 858.646 1408.3C859.613 1406.87 863.071 1402.02 868.386 1398.25C869.988 1397.11 885.983 1386.1 898.367 1393.14C903.478 1396.04 908.894 1402.58 907.826 1409.59C907.165 1413.89 903.986 1418.95 899.867 1419.56C895.239 1420.22 893.84 1414.68 887.178 1413.41C881.939 1412.42 874.87 1414.38 871.641 1419.69C868.08 1425.56 871.106 1432.43 871.895 1434.24C874.819 1440.92 880.693 1443.82 882.855 1444.74C892.162 1448.68 901.088 1444.46 904.139 1443.03C913.675 1438.56 918.049 1430.55 919.219 1428.31C924.839 1417.66 926.364 1400.95 916.142 1388.82C905.233 1375.88 888.017 1376.94 882.957 1377.58C879.32 1378.04 869.047 1379.82 860.299 1388.41C852.085 1396.47 850 1405.78 849.11 1410.15C846.237 1423.99 850.382 1435.91 851.195 1435.86V1435.89Z" fill="#AE3DC3"/>
<path d="M985.214 1419.36C985.596 1419.13 982.137 1414.81 981.247 1407.56C980.866 1404.46 981.095 1401.94 981.247 1400.69C981.4 1399.55 981.959 1395.63 983.968 1391.77C984.578 1390.6 990.732 1379.18 1000.22 1379.61C1004.13 1379.79 1009.35 1382 1010.85 1386.5C1011.76 1389.25 1011.43 1393.24 1009.14 1394.84C1006.6 1396.65 1004.08 1393.78 999.734 1395.05C996.327 1396.07 992.716 1399.37 992.411 1403.52C992.08 1408.09 995.971 1411.25 996.988 1412.09C1000.78 1415.16 1005.15 1415.11 1006.7 1414.98C1013.42 1414.5 1017.46 1409.26 1018.83 1407.51C1023.13 1401.94 1023.31 1395.86 1023.33 1394.16C1023.43 1386.12 1019.24 1375.72 1009.5 1371.63C999.073 1367.25 989.181 1373.13 986.358 1375.04C984.35 1376.41 978.781 1380.6 976.187 1388.36C973.746 1395.66 975.348 1401.81 976.161 1404.69C978.679 1413.79 984.756 1419.61 985.214 1419.33V1419.36Z" fill="#AE3DC3"/>
<path d="M1120.27 1437.87C1120.37 1437.36 1113.98 1436.75 1107.25 1431.69C1104.35 1429.51 1102.44 1427.32 1101.52 1426.17C1100.69 1425.13 1097.89 1421.5 1096.29 1416.71C1095.8 1415.27 1091.25 1400.95 1099.24 1393.37C1102.54 1390.24 1108.59 1387.7 1113.53 1390.06C1116.55 1391.51 1119.6 1395 1119.12 1398.2C1118.56 1401.76 1114.14 1401.56 1111.72 1406.21C1109.81 1409.87 1109.69 1415.54 1112.89 1419.13C1116.43 1423.07 1122.2 1422.39 1123.72 1422.21C1129.32 1421.55 1132.8 1417.86 1133.97 1416.46C1138.98 1410.46 1137.89 1402.91 1137.51 1400.34C1136.34 1392.28 1131.4 1387.24 1130.01 1385.87C1123.39 1379.31 1111.37 1374.43 1100.08 1379.26C1088.05 1384.42 1084.97 1397.39 1084.28 1401.3C1083.8 1404.08 1082.81 1412.09 1087.21 1420.5C1091.33 1428.41 1097.76 1432.02 1100.79 1433.68C1110.37 1438.91 1120.14 1438.53 1120.27 1437.92V1437.87Z" fill="#AE3DC3"/>
<path d="M1120.77 1506.05C1121.21 1505.82 1117.67 1500.83 1117.16 1492.8C1116.93 1489.34 1117.37 1486.62 1117.62 1485.25C1117.85 1484 1118.74 1479.7 1121.21 1475.58C1121.94 1474.34 1129.47 1462.16 1139.9 1463.25C1144.19 1463.71 1149.79 1466.48 1151.16 1471.54C1152 1474.62 1151.37 1478.99 1148.75 1480.62C1145.82 1482.42 1143.23 1479.09 1138.37 1480.24C1134.53 1481.13 1130.36 1484.53 1129.75 1489.09C1129.09 1494.09 1133.16 1497.83 1134.25 1498.82C1138.22 1502.46 1143.02 1502.69 1144.75 1502.66C1152.18 1502.56 1156.99 1497.07 1158.61 1495.21C1163.72 1489.37 1164.28 1482.68 1164.44 1480.82C1165.07 1471.97 1161.13 1460.25 1150.65 1455.09C1139.46 1449.59 1128.17 1455.42 1124.92 1457.35C1122.6 1458.72 1116.22 1462.97 1112.84 1471.36C1109.69 1479.24 1111.06 1486.14 1111.75 1489.34C1113.91 1499.51 1120.24 1506.33 1120.77 1506.05Z" fill="#AE3DC3"/>
<path d="M667.617 1560.95C667.719 1560.44 661.336 1559.83 654.598 1554.77C651.699 1552.58 649.792 1550.4 648.876 1549.25C648.037 1548.21 645.24 1544.57 643.638 1539.79C643.154 1538.34 638.603 1524.03 646.587 1516.45C649.893 1513.32 655.945 1510.78 660.879 1513.14C663.905 1514.59 666.956 1518.08 666.473 1521.28C665.914 1524.84 661.489 1524.64 659.073 1529.29C657.166 1532.95 657.039 1538.62 660.243 1542.21C663.778 1546.15 669.55 1545.46 671.076 1545.29C676.67 1544.63 680.154 1540.94 681.324 1539.54C686.333 1533.54 685.24 1525.99 684.858 1523.42C683.689 1515.36 678.755 1510.32 677.357 1508.95C670.745 1502.39 658.717 1497.5 647.427 1502.34C635.399 1507.5 632.322 1520.47 631.635 1524.38C631.152 1527.16 630.16 1535.17 634.559 1543.58C638.679 1551.49 645.113 1555.1 648.139 1556.76C657.725 1561.99 667.49 1561.61 667.617 1561V1560.95Z" fill="#AE3DC3"/>
<path d="M1168.88 1326.95C1169.26 1327.23 1172.18 1322.19 1178.92 1318.56C1181.82 1317.01 1184.36 1316.27 1185.66 1315.94C1186.83 1315.63 1190.9 1314.72 1195.45 1315.2C1196.82 1315.35 1210.38 1317.03 1213.58 1326.52C1214.91 1330.43 1214.7 1336.38 1210.89 1339.56C1208.55 1341.52 1204.5 1342.69 1202.06 1341.09C1199.32 1339.28 1201.17 1335.7 1198.27 1331.93C1195.99 1328.96 1191.36 1326.7 1187.19 1327.99C1182.58 1329.42 1180.96 1334.43 1180.52 1335.77C1178.95 1340.66 1180.68 1344.93 1181.39 1346.4C1184.44 1352.81 1191.1 1354.77 1193.37 1355.46C1200.46 1357.57 1206.51 1355.38 1208.17 1354.77C1216.07 1351.79 1224.7 1343.73 1225 1332.6C1225.33 1320.69 1215.77 1313.24 1212.82 1311.21C1210.71 1309.76 1204.48 1305.89 1195.86 1306.33C1187.77 1306.71 1182.36 1310.65 1179.81 1312.53C1171.85 1318.46 1168.47 1326.67 1168.9 1327L1168.88 1326.95Z" fill="#AE3DC3"/>
<path d="M1275.9 1458.93C1276.16 1458.47 1269.95 1455.85 1264.79 1448.65C1262.58 1445.55 1261.36 1442.75 1260.8 1441.33C1260.29 1440.03 1258.61 1435.51 1258.51 1430.22C1258.48 1428.62 1258.38 1412.82 1268.78 1407.74C1273.08 1405.63 1279.95 1404.97 1284.17 1408.88C1286.76 1411.27 1288.72 1415.75 1287.22 1418.8C1285.54 1422.21 1281.17 1420.61 1277.3 1424.52C1274.25 1427.6 1272.32 1433.24 1274.43 1437.82C1276.74 1442.88 1282.74 1444 1284.32 1444.31C1290.14 1445.4 1294.8 1442.78 1296.4 1441.74C1303.29 1437.29 1304.56 1429.35 1304.99 1426.66C1306.34 1418.19 1302.96 1411.6 1301.99 1409.8C1297.42 1401.15 1286.86 1392.48 1274.05 1393.8C1260.37 1395.2 1253.22 1407.28 1251.31 1410.97C1249.96 1413.61 1246.46 1421.34 1248.24 1431.13C1249.89 1440.34 1255.2 1445.98 1257.75 1448.6C1265.73 1456.87 1275.65 1459.51 1275.98 1458.95L1275.9 1458.93Z" fill="#AE3DC3"/>
<path d="M660.702 1376.69C660.193 1376.77 661.846 1383.12 659.303 1391.44C658.21 1395 656.761 1397.62 655.972 1398.89C655.26 1400.06 652.743 1404.05 648.699 1407.28C647.479 1408.25 635.273 1417.68 625.152 1412.65C620.982 1410.56 616.379 1405.63 616.938 1400.01C617.269 1396.58 619.558 1392.41 622.838 1391.77C626.474 1391.03 627.822 1395.38 633.162 1396.09C637.358 1396.65 642.876 1394.8 645.216 1390.42C647.784 1385.62 645.089 1380.3 644.377 1378.88C641.757 1373.71 636.977 1371.65 635.222 1371.02C627.669 1368.3 620.753 1372.04 618.413 1373.28C611.039 1377.25 607.911 1383.78 607.072 1385.62C603.079 1394.31 602.596 1407.64 611.217 1416.82C620.422 1426.61 634.027 1425.01 638.019 1424.29C640.867 1423.78 648.954 1421.9 655.515 1414.73C661.694 1407.99 662.914 1400.52 663.448 1397.01C665.127 1385.92 661.312 1376.64 660.677 1376.72L660.702 1376.69Z" fill="#AE3DC3"/>
</g>
</g>
</g>
<path d="M1300.1 1374.63C1236.68 1375.9 1172.67 1376.54 1108.87 1376.54C1075.3 1376.54 1041.79 1376.36 1008.4 1376C908.843 1374.96 808.016 1372.31 708.537 1368.12C710.241 1364.71 711.945 1361.28 713.648 1357.87V1357.82C713.776 1355.4 713.903 1352.96 714.03 1350.52C811.78 1354.59 910.801 1357.16 1008.6 1358.2C1103.96 1359.22 1200.54 1358.79 1295.93 1356.9V1364.25C1297.33 1367.71 1298.7 1371.17 1300.1 1374.63Z" fill="#D596F7"/>
<path d="M744.15 1514.67L787.685 1369.36H790.279C780.489 1418.98 770.699 1468.59 760.908 1518.2C755.314 1517.03 749.719 1515.84 744.125 1514.67H744.15Z" fill="#D596F7"/>
<path d="M989.052 1544.29C988.06 1542.99 986.534 1542.21 984.907 1542.08C976.388 1541.47 967.869 1540.88 959.35 1540.27C957.748 1540.17 956.172 1540.71 954.977 1541.83L979.414 1375.31H983.534C985.364 1431.64 987.195 1487.97 989.052 1544.29Z" fill="#D596F7"/>
<path d="M1270.1 1522.75H1270.05C1270.05 1522.75 1267.56 1521.84 1265.7 1521.15C1264.96 1520.87 1264.2 1520.8 1263.44 1520.9C1254.46 1522.24 1245.48 1523.59 1236.48 1524.91C1235.54 1525.07 1234.19 1526.03 1233.05 1527.46C1231.93 1528.88 1231.6 1530.31 1231.55 1530.46L1221.38 1375.44H1226.46L1270.1 1522.75Z" fill="#D596F7"/>
<path d="M1334.49 1508.63C1315.32 1526.32 1270.17 1523.14 1270.12 1523.14H1270.07C1270.07 1523.14 1267.58 1522.22 1265.72 1521.54C1264.99 1521.26 1264.22 1521.18 1263.46 1521.28C1254.49 1522.63 1245.51 1523.98 1236.52 1525.3C1235.58 1525.46 1234.23 1526.42 1233.08 1527.85C1231.97 1529.27 1231.64 1530.7 1231.58 1530.85C1227.97 1543.63 1107.13 1551.11 1107.13 1551.11C1107.13 1551.11 1090.73 1552.16 1015.18 1550.96C1011.8 1550.91 1003.61 1550.7 994.183 1546.99C992.048 1546.12 990.319 1545.28 989.176 1544.7C988.184 1543.4 986.659 1542.61 985.032 1542.48C976.516 1541.87 968 1541.29 959.485 1540.68C957.883 1540.57 956.307 1541.11 955.112 1542.23C954.401 1542.89 953.511 1543.35 952.723 1543.93C949.952 1546 944.334 1546.15 944.334 1546.15C880.478 1547.6 850.99 1544.9 850.99 1544.9C808.589 1540.98 791.329 1541.01 770.789 1526.98C768.349 1525.33 766.417 1523.85 765.146 1522.83C763.366 1521.23 762.044 1519.7 761.155 1518.63C761.155 1518.61 761.129 1518.61 761.104 1518.61C755.511 1517.41 749.944 1516.24 744.352 1515.07C743.36 1515.81 741.835 1516.78 739.827 1517.41C735.76 1518.69 731.997 1517.77 729.837 1517.11C724.498 1515.5 699.917 1506.72 665.32 1493.79C656.702 1490.56 652.762 1480.58 656.88 1472.31C661.125 1463.78 665.396 1455.23 669.667 1446.71C682.682 1420.57 695.722 1394.48 708.763 1368.36C710.466 1364.95 712.17 1361.52 713.873 1358.11V1358.06C714 1355.64 714.127 1353.19 714.254 1350.75L715.322 1330.21C908.873 1333.44 1102.4 1336.65 1295.95 1339.88V1364.5C1297.35 1367.96 1298.72 1371.42 1300.12 1374.88C1315.24 1412.5 1330.37 1450.09 1345.47 1487.71C1347.91 1493.82 1341.55 1502.14 1334.49 1508.63Z" stroke="#BF98C6" stroke-width="3" stroke-linejoin="round"/>
</svg>
