<svg width="2000" height="2000" viewBox="0 0 2000 2000" fill="none" xmlns="http://www.w3.org/2000/svg">
<path d="M713.708 1492.78C695.811 1488.31 683.703 1471.79 684.639 1453.38C685.346 1439.67 686.989 1424.54 690.124 1408.38C694.901 1383.68 701.928 1362.72 708.804 1346.05C902.608 1348.32 1096.41 1350.59 1290.22 1352.87C1293.83 1359.84 1297.34 1367.16 1300.66 1374.86C1313.24 1404.01 1320.52 1432.34 1324.52 1458.28C1327.6 1478.31 1314.38 1497.2 1294.56 1501.52C1217.74 1518.26 1119.82 1532.18 1006.2 1530.69C890.121 1529.17 790.805 1512.02 713.708 1492.75V1492.78Z" fill="#5C93CD"/>
<mask id="mask0_2619_538" style="mask-type:luminance" maskUnits="userSpaceOnUse" x="684" y="1346" width="641" height="185">
<path d="M713.708 1492.78C695.811 1488.31 683.703 1471.79 684.639 1453.38C685.346 1439.67 686.989 1424.54 690.124 1408.38C694.901 1383.68 701.928 1362.72 708.804 1346.05C902.608 1348.32 1096.41 1350.59 1290.22 1352.87C1293.83 1359.84 1297.34 1367.16 1300.66 1374.86C1313.24 1404.01 1320.52 1432.34 1324.52 1458.28C1327.6 1478.31 1314.38 1497.2 1294.56 1501.52C1217.74 1518.26 1119.82 1532.18 1006.2 1530.69C890.121 1529.17 790.805 1512.02 713.708 1492.75V1492.78Z" fill="white"/>
</mask>
<g mask="url(#mask0_2619_538)">
<path d="M673.316 1391.63C676.906 1393.5 708.326 1409.01 741.768 1392.79C770.408 1378.9 779.786 1351.81 781.378 1346.93" stroke="#417DBF" stroke-width="3" stroke-miterlimit="10"/>
<path d="M691.968 1383.78C717.624 1396.63 744.52 1375.14 748.135 1372.24C761.228 1361.78 777.785 1339.99 771.365 1325.62C760.571 1301.42 684.132 1297 669.268 1327.33C661.104 1343.98 670.557 1373.04 691.942 1383.75L691.968 1383.78Z" fill="#417DBF"/>
<path d="M1332.6 1391.63C1329.01 1393.5 1297.59 1409.01 1264.15 1392.79C1235.51 1378.9 1226.13 1351.81 1224.54 1346.93" stroke="#417DBF" stroke-width="3" stroke-miterlimit="10"/>
<path d="M1313.93 1383.78C1309.48 1384.99 1283.9 1391.58 1260.84 1376.33C1242.37 1364.08 1227.2 1338.9 1234.5 1325.64C1244.16 1308.11 1296.38 1305.13 1314.33 1333.47C1327.5 1354.26 1315.22 1381 1313.9 1383.78H1313.93Z" fill="#417DBF"/>
<path d="M1001.54 1358.37H996.611V1550.89H1001.54V1358.37Z" fill="#417DBF"/>
<mask id="mask1_2619_538" style="mask-type:luminance" maskUnits="userSpaceOnUse" x="684" y="1346" width="641" height="185">
<path d="M713.708 1492.78C695.811 1488.31 683.703 1471.79 684.639 1453.38C685.346 1439.67 686.989 1424.54 690.124 1408.38C694.901 1383.68 701.928 1362.72 708.804 1346.05C902.608 1348.32 1096.41 1350.59 1290.22 1352.87C1293.83 1359.84 1297.34 1367.16 1300.66 1374.86C1313.24 1404.01 1320.52 1432.34 1324.52 1458.28C1327.6 1478.31 1314.38 1497.2 1294.56 1501.52C1217.74 1518.26 1119.82 1532.18 1006.2 1530.69C890.121 1529.17 790.805 1512.02 713.708 1492.75V1492.78Z" fill="white"/>
</mask>
<g mask="url(#mask1_2619_538)">
<path d="M567.986 1382.57L1355.18 1730.68" stroke="#417DBF" stroke-miterlimit="10"/>
<path d="M599.707 1350.9L1386.9 1698.98" stroke="#417DBF" stroke-miterlimit="10"/>
<path d="M626.072 1311.75L1413.27 1659.86" stroke="#417DBF" stroke-miterlimit="10"/>
<path d="M632.693 1256.65L1419.87 1604.76" stroke="#417DBF" stroke-miterlimit="10"/>
<path d="M654.383 1218.59L1441.58 1566.7" stroke="#417DBF" stroke-miterlimit="10"/>
<path d="M707.088 1195.23L1494.29 1543.31" stroke="#417DBF" stroke-miterlimit="10"/>
<path d="M707.49 1153.78L1494.69 1501.87" stroke="#417DBF" stroke-miterlimit="10"/>
<path d="M597.961 1668.63L1400.96 1358.65" stroke="#417DBF" stroke-miterlimit="10"/>
<path d="M634.662 1705.3L1437.66 1395.32" stroke="#417DBF" stroke-miterlimit="10"/>
<path d="M570.283 1630.85L1373.28 1320.87" stroke="#417DBF" stroke-miterlimit="10"/>
<path d="M557.166 1587.94L1360.16 1277.96" stroke="#417DBF" stroke-miterlimit="10"/>
<path d="M535.35 1551.24L1338.35 1241.27" stroke="#417DBF" stroke-miterlimit="10"/>
<path d="M525.721 1511.82L1328.72 1201.84" stroke="#417DBF" stroke-miterlimit="10"/>
<path d="M509.945 1481.16L1312.94 1171.18" stroke="#417DBF" stroke-miterlimit="10"/>
</g>
</g>
<path d="M1019.16 1331.37C1019.16 1342.18 1010.34 1350.95 999.447 1350.95C988.552 1350.95 979.705 1342.18 979.705 1331.37C979.705 1323.47 984.432 1316.68 991.232 1313.62C991.232 1313.62 991.232 1313.62 991.257 1313.62C993.001 1313.64 994.771 1313.67 996.515 1313.7C1000.41 1313.75 1004.27 1313.8 1008.14 1313.85C1014.66 1317 1019.16 1323.67 1019.16 1331.37Z" fill="#417DBF"/>
<path d="M1290.24 1348.14V1354.05C1197.8 1360.47 1097.35 1363.78 989.97 1362.01C889.719 1360.37 795.737 1354.51 708.832 1346.07L707.088 1304.38H707.341L708.832 1340.16C742.047 1343.39 776.323 1346.25 811.561 1348.6L815.074 1309.02L815.58 1303.14C822.228 1303.37 828.901 1303.59 835.574 1303.82L835.043 1309.73L831.505 1349.89C882.363 1353.04 935.244 1355.21 989.97 1356.1C1051.47 1357.11 1110.67 1356.45 1167.42 1354.51L1163.91 1314.55L1163.38 1308.62C1170.07 1308.62 1176.75 1308.54 1183.4 1308.49L1183.93 1314.43L1187.41 1353.75C1222.7 1352.34 1256.98 1350.44 1290.24 1348.14Z" fill="#417DBF"/>
<path d="M815.577 1303.14L815.072 1309.02L811.558 1348.6C776.321 1346.25 742.045 1343.4 708.83 1340.16L707.338 1304.38C707.212 1301.19 709.816 1298.57 713.001 1298.75C746.797 1300.39 780.998 1301.85 815.577 1303.14Z" fill="#5D94CE"/>
<path d="M1163.91 1314.55L1163.38 1308.62C1108.68 1308.9 1053.06 1308.64 996.519 1307.79C941.995 1306.98 888.33 1305.64 835.576 1303.82L835.045 1309.73L831.506 1349.89C882.365 1353.04 935.245 1355.21 989.972 1356.1C1051.47 1357.11 1110.67 1356.45 1167.42 1354.51L1163.91 1314.55ZM999.451 1350.95C988.556 1350.95 979.709 1342.18 979.709 1331.37C979.709 1323.47 984.436 1316.68 991.236 1313.62C991.236 1313.62 991.235 1313.62 991.261 1313.62C993.763 1312.46 996.544 1311.83 999.451 1311.83C1002.56 1311.83 1005.52 1312.56 1008.15 1313.85C1014.67 1317 1019.17 1323.67 1019.17 1331.37C1019.17 1342.18 1010.35 1350.95 999.451 1350.95Z" fill="#5D94CE"/>
<path d="M1019.16 1331.37C1019.16 1342.18 1010.34 1350.95 999.447 1350.95C988.552 1350.95 979.705 1342.18 979.705 1331.37C979.705 1323.47 984.432 1316.68 991.232 1313.62C991.232 1313.62 991.232 1313.62 991.257 1313.62C993.759 1312.46 996.54 1311.83 999.447 1311.83C1002.56 1311.83 1005.51 1312.56 1008.14 1313.85C1014.66 1317 1019.16 1323.67 1019.16 1331.37Z" fill="#5D94CE"/>
<path d="M1290.24 1312.56V1348.12C1256.98 1350.42 1222.7 1352.31 1187.41 1353.72L1183.93 1314.4L1183.39 1308.47C1217.54 1308.24 1251.32 1307.79 1284.73 1307.13C1287.77 1307.08 1290.24 1309.5 1290.24 1312.56Z" fill="#5D94CE"/>
<path d="M685.121 1446.21C681.784 1451.81 677.968 1460.4 679.257 1470.1C679.788 1474.24 683.326 1494.32 726.956 1512.83C806.05 1546.39 948.236 1545.61 1000.86 1545.08C1086.51 1544.2 1139.13 1543.36 1210.37 1529.6C1301.9 1511.9 1325.78 1491.84 1328.69 1473.38C1329.88 1465.76 1327.43 1458.91 1325.03 1454.14C1320.6 1460.05 1313.68 1468.33 1303.84 1476.59C1284.25 1493.08 1261.22 1502.7 1181.85 1513.66C1130.41 1520.76 1090.47 1523.59 1061.18 1525.58C1033.4 1527.48 1019.47 1528.44 999.474 1528.82C957.564 1529.57 927.837 1527.05 881.453 1522.93C881.453 1522.93 830.24 1518.41 743.437 1499.37C729.711 1496.36 705.369 1490.66 692.78 1470.25C687.244 1461.29 685.652 1452.22 685.172 1446.18L685.121 1446.21Z" fill="#417DBF"/>
<path d="M980.721 1332.81C980.721 1322.01 989.543 1313.24 1000.44 1313.24C1011.33 1313.24 1020.18 1322.01 1020.18 1332.81C1020.18 1340.72 1015.45 1347.51 1008.65 1350.57C1008.65 1350.57 1008.65 1350.57 1008.63 1350.57C1006.12 1351.73 1003.34 1352.36 1000.44 1352.36C997.328 1352.36 994.371 1351.63 991.742 1350.34C985.22 1347.18 980.721 1340.52 980.721 1332.81Z" fill="#F2B636"/>
<path d="M1012.85 1328.52C1012.65 1328.47 1012.47 1331.1 1010.45 1333.9C1009.59 1335.11 1008.7 1335.9 1008.25 1336.3C1007.82 1336.65 1006.38 1337.84 1004.43 1338.55C1003.85 1338.75 998.035 1340.77 994.875 1337.59C993.561 1336.27 992.448 1333.82 993.384 1331.78C993.94 1330.52 995.33 1329.25 996.645 1329.4C998.111 1329.58 998.06 1331.4 999.981 1332.33C1001.5 1333.07 1003.82 1333.07 1005.24 1331.73C1006.81 1330.24 1006.48 1327.89 1006.38 1327.28C1006.05 1325.01 1004.51 1323.62 1003.92 1323.17C1001.42 1321.2 998.338 1321.7 997.302 1321.88C994.016 1322.43 992.019 1324.51 991.463 1325.09C988.859 1327.86 986.989 1332.81 989.061 1337.36C991.286 1342.23 996.619 1343.35 998.237 1343.57C999.375 1343.75 1002.66 1344.05 1006.05 1342.18C1009.23 1340.42 1010.65 1337.76 1011.31 1336.5C1013.35 1332.54 1013.1 1328.55 1012.85 1328.5V1328.52Z" fill="#ED6825"/>
</svg>
